  0
SECTION
  2
HEADER
  9
$ANGBASE
  50
0.0
  9
$ANGDIR
  70
1
  9
$MEASUREMENT
  70
0
  0
ENDSEC
  0
SECTION
  2
TABLES
  0
TABLE
  2
LTYPE
  70
4
  0
LTYPE
  5
40F
  2
CONTINUOUS
  70
0
  3
Solid line
  72
65
  73
0
  40
0.0
  0
LTYPE
  5
410
  2
DASHDOT
 70
0
  3
Dash Dot ____ _ ____ _
 72
65
 73
4
 40
2.0
 49
1.25
 49
-0.25
 49
0.25
 49
-0.25
  0
LTYPE
  5
411
  2
DASHED
 70
0
  3
Dashed __ __ __ __ __
 72
65
 73
2
 40
0.75
 49
0.5
 49
-0.25
  0
LTYPE
  5
43B
  2
DOTTED
 70
0
  3
Dotted .  .  .  .
 72
65
 73
2
 40
0.2
 49
0.0
 49
-0.2
  0
ENDTAB
  0
TABLE
  2
STYLE
  70
4
  0
STYLE
  2
KICAD
  70
0
  40
0
  41
1
  42
1
  50
0
  71
0
  3
isocp.shx
  0
STYLE
  2
KICADB
  70
0
  40
0
  41
1
  42
1
  50
0
  71
0
  3
isocp.shx
  0
STYLE
  2
KICADI
  70
0
  40
0
  41
1
  42
1
  50
15
  71
0
  3
isocp.shx
  0
STYLE
  2
KICADBI
  70
0
  40
0
  41
1
  42
1
  50
15
  71
0
  3
isocp.shx
  0
ENDTAB
  0
TABLE
  2
LAYER
  70
1
  0
LAYER
  2
BLACK
  70
0
  62
7
  6
CONTINUOUS
  0
ENDTAB
  0
ENDSEC
  0
SECTION
  2
ENTITIES
0
LINE
8
BLACK
6
CONTINUOUS
10
10.1575
20
-4.92126
11
0.708661
21
-4.92126
0
LINE
8
BLACK
6
CONTINUOUS
10
0.708661
20
-4.92126
11
0.708661
21
-0.708661
0
LINE
8
BLACK
6
CONTINUOUS
10
10.1575
20
-0.708661
11
10.1575
21
-4.92126
0
LINE
8
BLACK
6
CONTINUOUS
10
0.708661
20
-0.708661
11
10.1575
21
-0.708661
0
LINE
8
BLACK
6
CONTINUOUS
10
5.3065
20
-0.948031
11
5.33209
21
-0.973622
0
LINE
8
BLACK
6
CONTINUOUS
10
5.33209
20
-0.948031
11
5.3065
21
-0.973622
0
LINE
8
BLACK
6
CONTINUOUS
10
5.53406
20
-0.948031
11
5.55965
21
-0.973622
0
LINE
8
BLACK
6
CONTINUOUS
10
5.55965
20
-0.948031
11
5.53406
21
-0.973622
0
CIRCLE
8
BLACK
10
1.11225
20
-3.56622
40
0.0334646
0
CIRCLE
8
BLACK
10
1.48725
20
-1.31622
40
0.0334646
0
CIRCLE
8
BLACK
10
1.51225
20
-3.56622
40
0.0334646
0
CIRCLE
8
BLACK
10
1.86225
20
-2.06622
40
0.0334646
0
CIRCLE
8
BLACK
10
1.88725
20
-1.31622
40
0.0334646
0
CIRCLE
8
BLACK
10
2.26225
20
-2.06622
40
0.0334646
0
CIRCLE
8
BLACK
10
2.61225
20
-1.31622
40
0.0334646
0
CIRCLE
8
BLACK
10
2.61225
20
-2.06622
40
0.0334646
0
CIRCLE
8
BLACK
10
2.61225
20
-2.81622
40
0.0334646
0
CIRCLE
8
BLACK
10
3.01225
20
-1.31622
40
0.0334646
0
CIRCLE
8
BLACK
10
3.01225
20
-2.06622
40
0.0334646
0
CIRCLE
8
BLACK
10
3.01225
20
-2.81622
40
0.0334646
0
CIRCLE
8
BLACK
10
3.36225
20
-2.06622
40
0.0334646
0
CIRCLE
8
BLACK
10
3.73725
20
-4.31622
40
0.0334646
0
CIRCLE
8
BLACK
10
3.76225
20
-2.06622
40
0.0334646
0
CIRCLE
8
BLACK
10
4.13725
20
-4.31622
40
0.0334646
0
CIRCLE
8
BLACK
10
4.86225
20
-2.06622
40
0.0334646
0
CIRCLE
8
BLACK
10
4.86225
20
-2.81622
40
0.0334646
0
CIRCLE
8
BLACK
10
5.26225
20
-2.06622
40
0.0334646
0
CIRCLE
8
BLACK
10
5.26225
20
-2.81622
40
0.0334646
0
CIRCLE
8
BLACK
10
5.61225
20
-2.06622
40
0.0334646
0
CIRCLE
8
BLACK
10
5.61225
20
-2.81622
40
0.0334646
0
CIRCLE
8
BLACK
10
6.01225
20
-2.06622
40
0.0334646
0
CIRCLE
8
BLACK
10
6.01225
20
-2.81622
40
0.0334646
0
CIRCLE
8
BLACK
10
6.73725
20
-4.31622
40
0.0334646
0
CIRCLE
8
BLACK
10
7.11225
20
-2.06622
40
0.0334646
0
CIRCLE
8
BLACK
10
7.13725
20
-4.31622
40
0.0334646
0
CIRCLE
8
BLACK
10
7.51225
20
-2.06622
40
0.0334646
0
CIRCLE
8
BLACK
10
7.86225
20
-1.31622
40
0.0334646
0
CIRCLE
8
BLACK
10
7.86225
20
-2.06622
40
0.0334646
0
CIRCLE
8
BLACK
10
7.86225
20
-2.81622
40
0.0334646
0
CIRCLE
8
BLACK
10
8.26225
20
-1.31622
40
0.0334646
0
CIRCLE
8
BLACK
10
8.26225
20
-2.06622
40
0.0334646
0
CIRCLE
8
BLACK
10
8.26225
20
-2.81622
40
0.0334646
0
CIRCLE
8
BLACK
10
8.61225
20
-2.06622
40
0.0334646
0
CIRCLE
8
BLACK
10
8.98725
20
-1.31622
40
0.0334646
0
CIRCLE
8
BLACK
10
9.01225
20
-2.06622
40
0.0334646
0
CIRCLE
8
BLACK
10
9.36225
20
-3.56622
40
0.0334646
0
CIRCLE
8
BLACK
10
9.38725
20
-1.31622
40
0.0334646
0
CIRCLE
8
BLACK
10
9.76225
20
-3.56622
40
0.0334646
0
LINE
8
BLACK
6
CONTINUOUS
10
1.21875
20
-0.980586
11
1.21875
21
-1.10066
0
LINE
8
BLACK
6
CONTINUOUS
10
1.15871
20
-1.04062
11
1.27879
21
-1.04062
0
LINE
8
BLACK
6
CONTINUOUS
10
2.15576
20
-0.980586
11
2.15576
21
-1.10066
0
LINE
8
BLACK
6
CONTINUOUS
10
2.09572
20
-1.04062
11
2.2158
21
-1.04062
0
LINE
8
BLACK
6
CONTINUOUS
10
3.46875
20
-3.98059
11
3.46875
21
-4.10066
0
LINE
8
BLACK
6
CONTINUOUS
10
3.40871
20
-4.04062
11
3.52879
21
-4.04062
0
LINE
8
BLACK
6
CONTINUOUS
10
4.40576
20
-3.98059
11
4.40576
21
-4.10066
0
LINE
8
BLACK
6
CONTINUOUS
10
4.34572
20
-4.04062
11
4.4658
21
-4.04062
0
LINE
8
BLACK
6
CONTINUOUS
10
6.46875
20
-3.98059
11
6.46875
21
-4.10066
0
LINE
8
BLACK
6
CONTINUOUS
10
6.40871
20
-4.04062
11
6.52879
21
-4.04062
0
LINE
8
BLACK
6
CONTINUOUS
10
7.40576
20
-3.98059
11
7.40576
21
-4.10066
0
LINE
8
BLACK
6
CONTINUOUS
10
7.34572
20
-4.04062
11
7.4658
21
-4.04062
0
LINE
8
BLACK
6
CONTINUOUS
10
8.71875
20
-0.980586
11
8.71875
21
-1.10066
0
LINE
8
BLACK
6
CONTINUOUS
10
8.65871
20
-1.04062
11
8.77879
21
-1.04062
0
LINE
8
BLACK
6
CONTINUOUS
10
9.65576
20
-0.980586
11
9.65576
21
-1.10066
0
LINE
8
BLACK
6
CONTINUOUS
10
9.59572
20
-1.04062
11
9.7158
21
-1.04062
0
LINE
8
BLACK
6
CONTINUOUS
10
0.910684
20
-0.910684
11
0.910684
21
-0.821599
0
LINE
8
BLACK
6
CONTINUOUS
10
0.910684
20
-0.821599
11
0.821599
21
-0.821599
0
LINE
8
BLACK
6
CONTINUOUS
10
0.821599
20
-0.821599
11
0.821599
21
-0.910684
0
LINE
8
BLACK
6
CONTINUOUS
10
0.821599
20
-0.910684
11
0.910684
21
-0.910684
0
LINE
8
BLACK
6
CONTINUOUS
10
0.910684
20
-4.80832
11
0.910684
21
-4.71924
0
LINE
8
BLACK
6
CONTINUOUS
10
0.910684
20
-4.71924
11
0.821599
21
-4.71924
0
LINE
8
BLACK
6
CONTINUOUS
10
0.821599
20
-4.71924
11
0.821599
21
-4.80832
0
LINE
8
BLACK
6
CONTINUOUS
10
0.821599
20
-4.80832
11
0.910684
21
-4.80832
0
LINE
8
BLACK
6
CONTINUOUS
10
10.0445
20
-0.950054
11
10.0445
21
-0.860969
0
LINE
8
BLACK
6
CONTINUOUS
10
10.0445
20
-0.860969
11
9.95546
21
-0.860969
0
LINE
8
BLACK
6
CONTINUOUS
10
9.95546
20
-0.860969
11
9.95546
21
-0.950054
0
LINE
8
BLACK
6
CONTINUOUS
10
9.95546
20
-0.950054
11
10.0445
21
-0.950054
0
LINE
8
BLACK
6
CONTINUOUS
10
10.0445
20
-4.80832
11
10.0445
21
-4.71924
0
LINE
8
BLACK
6
CONTINUOUS
10
10.0445
20
-4.71924
11
9.95546
21
-4.71924
0
LINE
8
BLACK
6
CONTINUOUS
10
9.95546
20
-4.71924
11
9.95546
21
-4.80832
0
LINE
8
BLACK
6
CONTINUOUS
10
9.95546
20
-4.80832
11
10.0445
21
-4.80832
0
LINE
8
BLACK
6
CONTINUOUS
10
1.21875
20
-1.71937
11
1.29749
21
-1.64062
0
LINE
8
BLACK
6
CONTINUOUS
10
1.29749
20
-1.64062
11
1.21875
21
-1.56188
0
LINE
8
BLACK
6
CONTINUOUS
10
1.21875
20
-1.56188
11
1.14001
21
-1.64062
0
LINE
8
BLACK
6
CONTINUOUS
10
1.14001
20
-1.64062
11
1.21875
21
-1.71937
0
LINE
8
BLACK
6
CONTINUOUS
10
1.31225
20
-3.64496
11
1.39099
21
-3.56622
0
LINE
8
BLACK
6
CONTINUOUS
10
1.39099
20
-3.56622
11
1.31225
21
-3.48748
0
LINE
8
BLACK
6
CONTINUOUS
10
1.31225
20
-3.48748
11
1.23351
21
-3.56622
0
LINE
8
BLACK
6
CONTINUOUS
10
1.23351
20
-3.56622
11
1.31225
21
-3.64496
0
LINE
8
BLACK
6
CONTINUOUS
10
1.68725
20
-1.39496
11
1.76599
21
-1.31622
0
LINE
8
BLACK
6
CONTINUOUS
10
1.76599
20
-1.31622
11
1.68725
21
-1.23748
0
LINE
8
BLACK
6
CONTINUOUS
10
1.68725
20
-1.23748
11
1.60851
21
-1.31622
0
LINE
8
BLACK
6
CONTINUOUS
10
1.60851
20
-1.31622
11
1.68725
21
-1.39496
0
LINE
8
BLACK
6
CONTINUOUS
10
2.06225
20
-2.14496
11
2.14099
21
-2.06622
0
LINE
8
BLACK
6
CONTINUOUS
10
2.14099
20
-2.06622
11
2.06225
21
-1.98748
0
LINE
8
BLACK
6
CONTINUOUS
10
2.06225
20
-1.98748
11
1.98351
21
-2.06622
0
LINE
8
BLACK
6
CONTINUOUS
10
1.98351
20
-2.06622
11
2.06225
21
-2.14496
0
LINE
8
BLACK
6
CONTINUOUS
10
2.15576
20
-1.71937
11
2.2345
21
-1.64062
0
LINE
8
BLACK
6
CONTINUOUS
10
2.2345
20
-1.64062
11
2.15576
21
-1.56188
0
LINE
8
BLACK
6
CONTINUOUS
10
2.15576
20
-1.56188
11
2.07702
21
-1.64062
0
LINE
8
BLACK
6
CONTINUOUS
10
2.07702
20
-1.64062
11
2.15576
21
-1.71937
0
LINE
8
BLACK
6
CONTINUOUS
10
2.81225
20
-1.39496
11
2.89099
21
-1.31622
0
LINE
8
BLACK
6
CONTINUOUS
10
2.89099
20
-1.31622
11
2.81225
21
-1.23748
0
LINE
8
BLACK
6
CONTINUOUS
10
2.81225
20
-1.23748
11
2.73351
21
-1.31622
0
LINE
8
BLACK
6
CONTINUOUS
10
2.73351
20
-1.31622
11
2.81225
21
-1.39496
0
LINE
8
BLACK
6
CONTINUOUS
10
2.81225
20
-2.14496
11
2.89099
21
-2.06622
0
LINE
8
BLACK
6
CONTINUOUS
10
2.89099
20
-2.06622
11
2.81225
21
-1.98748
0
LINE
8
BLACK
6
CONTINUOUS
10
2.81225
20
-1.98748
11
2.73351
21
-2.06622
0
LINE
8
BLACK
6
CONTINUOUS
10
2.73351
20
-2.06622
11
2.81225
21
-2.14496
0
LINE
8
BLACK
6
CONTINUOUS
10
2.81225
20
-2.89496
11
2.89099
21
-2.81622
0
LINE
8
BLACK
6
CONTINUOUS
10
2.89099
20
-2.81622
11
2.81225
21
-2.73748
0
LINE
8
BLACK
6
CONTINUOUS
10
2.81225
20
-2.73748
11
2.73351
21
-2.81622
0
LINE
8
BLACK
6
CONTINUOUS
10
2.73351
20
-2.81622
11
2.81225
21
-2.89496
0
LINE
8
BLACK
6
CONTINUOUS
10
3.46875
20
-4.71937
11
3.54749
21
-4.64062
0
LINE
8
BLACK
6
CONTINUOUS
10
3.54749
20
-4.64062
11
3.46875
21
-4.56188
0
LINE
8
BLACK
6
CONTINUOUS
10
3.46875
20
-4.56188
11
3.39001
21
-4.64062
0
LINE
8
BLACK
6
CONTINUOUS
10
3.39001
20
-4.64062
11
3.46875
21
-4.71937
0
LINE
8
BLACK
6
CONTINUOUS
10
3.56225
20
-2.14496
11
3.64099
21
-2.06622
0
LINE
8
BLACK
6
CONTINUOUS
10
3.64099
20
-2.06622
11
3.56225
21
-1.98748
0
LINE
8
BLACK
6
CONTINUOUS
10
3.56225
20
-1.98748
11
3.48351
21
-2.06622
0
LINE
8
BLACK
6
CONTINUOUS
10
3.48351
20
-2.06622
11
3.56225
21
-2.14496
0
LINE
8
BLACK
6
CONTINUOUS
10
3.93725
20
-4.39496
11
4.01599
21
-4.31622
0
LINE
8
BLACK
6
CONTINUOUS
10
4.01599
20
-4.31622
11
3.93725
21
-4.23748
0
LINE
8
BLACK
6
CONTINUOUS
10
3.93725
20
-4.23748
11
3.85851
21
-4.31622
0
LINE
8
BLACK
6
CONTINUOUS
10
3.85851
20
-4.31622
11
3.93725
21
-4.39496
0
LINE
8
BLACK
6
CONTINUOUS
10
4.40576
20
-4.71937
11
4.4845
21
-4.64062
0
LINE
8
BLACK
6
CONTINUOUS
10
4.4845
20
-4.64062
11
4.40576
21
-4.56188
0
LINE
8
BLACK
6
CONTINUOUS
10
4.40576
20
-4.56188
11
4.32702
21
-4.64062
0
LINE
8
BLACK
6
CONTINUOUS
10
4.32702
20
-4.64062
11
4.40576
21
-4.71937
0
LINE
8
BLACK
6
CONTINUOUS
10
5.06225
20
-2.14496
11
5.14099
21
-2.06622
0
LINE
8
BLACK
6
CONTINUOUS
10
5.14099
20
-2.06622
11
5.06225
21
-1.98748
0
LINE
8
BLACK
6
CONTINUOUS
10
5.06225
20
-1.98748
11
4.98351
21
-2.06622
0
LINE
8
BLACK
6
CONTINUOUS
10
4.98351
20
-2.06622
11
5.06225
21
-2.14496
0
LINE
8
BLACK
6
CONTINUOUS
10
5.06225
20
-2.89496
11
5.14099
21
-2.81622
0
LINE
8
BLACK
6
CONTINUOUS
10
5.14099
20
-2.81622
11
5.06225
21
-2.73748
0
LINE
8
BLACK
6
CONTINUOUS
10
5.06225
20
-2.73748
11
4.98351
21
-2.81622
0
LINE
8
BLACK
6
CONTINUOUS
10
4.98351
20
-2.81622
11
5.06225
21
-2.89496
0
LINE
8
BLACK
6
CONTINUOUS
10
5.81225
20
-2.14496
11
5.89099
21
-2.06622
0
LINE
8
BLACK
6
CONTINUOUS
10
5.89099
20
-2.06622
11
5.81225
21
-1.98748
0
LINE
8
BLACK
6
CONTINUOUS
10
5.81225
20
-1.98748
11
5.73351
21
-2.06622
0
LINE
8
BLACK
6
CONTINUOUS
10
5.73351
20
-2.06622
11
5.81225
21
-2.14496
0
LINE
8
BLACK
6
CONTINUOUS
10
5.81225
20
-2.89496
11
5.89099
21
-2.81622
0
LINE
8
BLACK
6
CONTINUOUS
10
5.89099
20
-2.81622
11
5.81225
21
-2.73748
0
LINE
8
BLACK
6
CONTINUOUS
10
5.81225
20
-2.73748
11
5.73351
21
-2.81622
0
LINE
8
BLACK
6
CONTINUOUS
10
5.73351
20
-2.81622
11
5.81225
21
-2.89496
0
LINE
8
BLACK
6
CONTINUOUS
10
6.46875
20
-4.71937
11
6.54749
21
-4.64062
0
LINE
8
BLACK
6
CONTINUOUS
10
6.54749
20
-4.64062
11
6.46875
21
-4.56188
0
LINE
8
BLACK
6
CONTINUOUS
10
6.46875
20
-4.56188
11
6.39001
21
-4.64062
0
LINE
8
BLACK
6
CONTINUOUS
10
6.39001
20
-4.64062
11
6.46875
21
-4.71937
0
LINE
8
BLACK
6
CONTINUOUS
10
6.93725
20
-4.39496
11
7.01599
21
-4.31622
0
LINE
8
BLACK
6
CONTINUOUS
10
7.01599
20
-4.31622
11
6.93725
21
-4.23748
0
LINE
8
BLACK
6
CONTINUOUS
10
6.93725
20
-4.23748
11
6.85851
21
-4.31622
0
LINE
8
BLACK
6
CONTINUOUS
10
6.85851
20
-4.31622
11
6.93725
21
-4.39496
0
LINE
8
BLACK
6
CONTINUOUS
10
7.31225
20
-2.14496
11
7.39099
21
-2.06622
0
LINE
8
BLACK
6
CONTINUOUS
10
7.39099
20
-2.06622
11
7.31225
21
-1.98748
0
LINE
8
BLACK
6
CONTINUOUS
10
7.31225
20
-1.98748
11
7.23351
21
-2.06622
0
LINE
8
BLACK
6
CONTINUOUS
10
7.23351
20
-2.06622
11
7.31225
21
-2.14496
0
LINE
8
BLACK
6
CONTINUOUS
10
7.40576
20
-4.71937
11
7.4845
21
-4.64062
0
LINE
8
BLACK
6
CONTINUOUS
10
7.4845
20
-4.64062
11
7.40576
21
-4.56188
0
LINE
8
BLACK
6
CONTINUOUS
10
7.40576
20
-4.56188
11
7.32702
21
-4.64062
0
LINE
8
BLACK
6
CONTINUOUS
10
7.32702
20
-4.64062
11
7.40576
21
-4.71937
0
LINE
8
BLACK
6
CONTINUOUS
10
8.06225
20
-1.39496
11
8.14099
21
-1.31622
0
LINE
8
BLACK
6
CONTINUOUS
10
8.14099
20
-1.31622
11
8.06225
21
-1.23748
0
LINE
8
BLACK
6
CONTINUOUS
10
8.06225
20
-1.23748
11
7.98351
21
-1.31622
0
LINE
8
BLACK
6
CONTINUOUS
10
7.98351
20
-1.31622
11
8.06225
21
-1.39496
0
LINE
8
BLACK
6
CONTINUOUS
10
8.06225
20
-2.14496
11
8.14099
21
-2.06622
0
LINE
8
BLACK
6
CONTINUOUS
10
8.14099
20
-2.06622
11
8.06225
21
-1.98748
0
LINE
8
BLACK
6
CONTINUOUS
10
8.06225
20
-1.98748
11
7.98351
21
-2.06622
0
LINE
8
BLACK
6
CONTINUOUS
10
7.98351
20
-2.06622
11
8.06225
21
-2.14496
0
LINE
8
BLACK
6
CONTINUOUS
10
8.06225
20
-2.89496
11
8.14099
21
-2.81622
0
LINE
8
BLACK
6
CONTINUOUS
10
8.14099
20
-2.81622
11
8.06225
21
-2.73748
0
LINE
8
BLACK
6
CONTINUOUS
10
8.06225
20
-2.73748
11
7.98351
21
-2.81622
0
LINE
8
BLACK
6
CONTINUOUS
10
7.98351
20
-2.81622
11
8.06225
21
-2.89496
0
LINE
8
BLACK
6
CONTINUOUS
10
8.71875
20
-1.71937
11
8.79749
21
-1.64062
0
LINE
8
BLACK
6
CONTINUOUS
10
8.79749
20
-1.64062
11
8.71875
21
-1.56188
0
LINE
8
BLACK
6
CONTINUOUS
10
8.71875
20
-1.56188
11
8.64001
21
-1.64062
0
LINE
8
BLACK
6
CONTINUOUS
10
8.64001
20
-1.64062
11
8.71875
21
-1.71937
0
LINE
8
BLACK
6
CONTINUOUS
10
8.81225
20
-2.14496
11
8.89099
21
-2.06622
0
LINE
8
BLACK
6
CONTINUOUS
10
8.89099
20
-2.06622
11
8.81225
21
-1.98748
0
LINE
8
BLACK
6
CONTINUOUS
10
8.81225
20
-1.98748
11
8.73351
21
-2.06622
0
LINE
8
BLACK
6
CONTINUOUS
10
8.73351
20
-2.06622
11
8.81225
21
-2.14496
0
LINE
8
BLACK
6
CONTINUOUS
10
9.18725
20
-1.39496
11
9.26599
21
-1.31622
0
LINE
8
BLACK
6
CONTINUOUS
10
9.26599
20
-1.31622
11
9.18725
21
-1.23748
0
LINE
8
BLACK
6
CONTINUOUS
10
9.18725
20
-1.23748
11
9.10851
21
-1.31622
0
LINE
8
BLACK
6
CONTINUOUS
10
9.10851
20
-1.31622
11
9.18725
21
-1.39496
0
LINE
8
BLACK
6
CONTINUOUS
10
9.56225
20
-3.64496
11
9.64099
21
-3.56622
0
LINE
8
BLACK
6
CONTINUOUS
10
9.64099
20
-3.56622
11
9.56225
21
-3.48748
0
LINE
8
BLACK
6
CONTINUOUS
10
9.56225
20
-3.48748
11
9.48351
21
-3.56622
0
LINE
8
BLACK
6
CONTINUOUS
10
9.48351
20
-3.56622
11
9.56225
21
-3.64496
0
LINE
8
BLACK
6
CONTINUOUS
10
9.65576
20
-1.71937
11
9.7345
21
-1.64062
0
LINE
8
BLACK
6
CONTINUOUS
10
9.7345
20
-1.64062
11
9.65576
21
-1.56188
0
LINE
8
BLACK
6
CONTINUOUS
10
9.65576
20
-1.56188
11
9.57702
21
-1.64062
0
LINE
8
BLACK
6
CONTINUOUS
10
9.57702
20
-1.64062
11
9.65576
21
-1.71937
0
LINE
8
BLACK
6
CONTINUOUS
10
0.809361
20
-5.04586
11
0.809361
21
-4.96712
0
LINE
8
BLACK
6
CONTINUOUS
10
0.809361
20
-4.96712
11
0.828109
21
-4.96712
0
LINE
8
BLACK
6
CONTINUOUS
10
0.828109
20
-4.96712
11
0.839357
21
-4.97087
0
LINE
8
BLACK
6
CONTINUOUS
10
0.839357
20
-4.97087
11
0.846856
21
-4.97837
0
LINE
8
BLACK
6
CONTINUOUS
10
0.846856
20
-4.97837
11
0.850606
21
-4.98587
0
LINE
8
BLACK
6
CONTINUOUS
10
0.850606
20
-4.98587
11
0.854355
21
-5.00087
0
LINE
8
BLACK
6
CONTINUOUS
10
0.854355
20
-5.00087
11
0.854355
21
-5.01211
0
LINE
8
BLACK
6
CONTINUOUS
10
0.854355
20
-5.01211
11
0.850606
21
-5.02711
0
LINE
8
BLACK
6
CONTINUOUS
10
0.850606
20
-5.02711
11
0.846856
21
-5.03461
0
LINE
8
BLACK
6
CONTINUOUS
10
0.846856
20
-5.03461
11
0.839357
21
-5.04211
0
LINE
8
BLACK
6
CONTINUOUS
10
0.839357
20
-5.04211
11
0.828109
21
-5.04586
0
LINE
8
BLACK
6
CONTINUOUS
10
0.828109
20
-5.04586
11
0.809361
21
-5.04586
0
LINE
8
BLACK
6
CONTINUOUS
10
0.888101
20
-5.04586
11
0.888101
21
-4.99337
0
LINE
8
BLACK
6
CONTINUOUS
10
0.888101
20
-5.00836
11
0.891851
21
-5.00087
0
LINE
8
BLACK
6
CONTINUOUS
10
0.891851
20
-5.00087
11
0.8956
21
-4.99712
0
LINE
8
BLACK
6
CONTINUOUS
10
0.8956
20
-4.99712
11
0.903099
21
-4.99337
0
LINE
8
BLACK
6
CONTINUOUS
10
0.903099
20
-4.99337
11
0.910598
21
-4.99337
0
LINE
8
BLACK
6
CONTINUOUS
10
0.936845
20
-5.04586
11
0.936845
21
-4.99337
0
LINE
8
BLACK
6
CONTINUOUS
10
0.936845
20
-4.96712
11
0.933095
21
-4.97087
0
LINE
8
BLACK
6
CONTINUOUS
10
0.933095
20
-4.97087
11
0.936845
21
-4.97462
0
LINE
8
BLACK
6
CONTINUOUS
10
0.936845
20
-4.97462
11
0.940595
21
-4.97087
0
LINE
8
BLACK
6
CONTINUOUS
10
0.940595
20
-4.97087
11
0.936845
21
-4.96712
0
LINE
8
BLACK
6
CONTINUOUS
10
0.936845
20
-4.96712
11
0.936845
21
-4.97462
0
LINE
8
BLACK
6
CONTINUOUS
10
0.985589
20
-5.04586
11
0.97809
21
-5.04211
0
LINE
8
BLACK
6
CONTINUOUS
10
0.97809
20
-5.04211
11
0.97434
21
-5.03461
0
LINE
8
BLACK
6
CONTINUOUS
10
0.97434
20
-5.03461
11
0.97434
21
-4.96712
0
LINE
8
BLACK
6
CONTINUOUS
10
1.02683
20
-5.04586
11
1.01933
21
-5.04211
0
LINE
8
BLACK
6
CONTINUOUS
10
1.01933
20
-5.04211
11
1.01559
21
-5.03461
0
LINE
8
BLACK
6
CONTINUOUS
10
1.01559
20
-5.03461
11
1.01559
21
-4.96712
0
LINE
8
BLACK
6
CONTINUOUS
10
1.11682
20
-5.04586
11
1.11682
21
-4.96712
0
LINE
8
BLACK
6
CONTINUOUS
10
1.11682
20
-4.96712
11
1.14307
21
-5.02336
0
LINE
8
BLACK
6
CONTINUOUS
10
1.14307
20
-5.02336
11
1.16932
21
-4.96712
0
LINE
8
BLACK
6
CONTINUOUS
10
1.16932
20
-4.96712
11
1.16932
21
-5.04586
0
LINE
8
BLACK
6
CONTINUOUS
10
1.24056
20
-5.04586
11
1.24056
21
-5.00461
0
LINE
8
BLACK
6
CONTINUOUS
10
1.24056
20
-5.00461
11
1.23681
21
-4.99712
0
LINE
8
BLACK
6
CONTINUOUS
10
1.23681
20
-4.99712
11
1.22931
21
-4.99337
0
LINE
8
BLACK
6
CONTINUOUS
10
1.22931
20
-4.99337
11
1.21431
21
-4.99337
0
LINE
8
BLACK
6
CONTINUOUS
10
1.21431
20
-4.99337
11
1.20681
21
-4.99712
0
LINE
8
BLACK
6
CONTINUOUS
10
1.24056
20
-5.04211
11
1.23306
21
-5.04586
0
LINE
8
BLACK
6
CONTINUOUS
10
1.23306
20
-5.04586
11
1.21431
21
-5.04586
0
LINE
8
BLACK
6
CONTINUOUS
10
1.21431
20
-5.04586
11
1.20681
21
-5.04211
0
LINE
8
BLACK
6
CONTINUOUS
10
1.20681
20
-5.04211
11
1.20306
21
-5.03461
0
LINE
8
BLACK
6
CONTINUOUS
10
1.20306
20
-5.03461
11
1.20306
21
-5.02711
0
LINE
8
BLACK
6
CONTINUOUS
10
1.20306
20
-5.02711
11
1.20681
21
-5.01961
0
LINE
8
BLACK
6
CONTINUOUS
10
1.20681
20
-5.01961
11
1.21431
21
-5.01586
0
LINE
8
BLACK
6
CONTINUOUS
10
1.21431
20
-5.01586
11
1.23306
21
-5.01586
0
LINE
8
BLACK
6
CONTINUOUS
10
1.23306
20
-5.01586
11
1.24056
21
-5.01211
0
LINE
8
BLACK
6
CONTINUOUS
10
1.27805
20
-4.99337
11
1.27805
21
-5.07211
0
LINE
8
BLACK
6
CONTINUOUS
10
1.27805
20
-4.99712
11
1.28555
21
-4.99337
0
LINE
8
BLACK
6
CONTINUOUS
10
1.28555
20
-4.99337
11
1.30055
21
-4.99337
0
LINE
8
BLACK
6
CONTINUOUS
10
1.30055
20
-4.99337
11
1.30805
21
-4.99712
0
LINE
8
BLACK
6
CONTINUOUS
10
1.30805
20
-4.99712
11
1.3118
21
-5.00087
0
LINE
8
BLACK
6
CONTINUOUS
10
1.3118
20
-5.00087
11
1.31555
21
-5.00836
0
LINE
8
BLACK
6
CONTINUOUS
10
1.31555
20
-5.00836
11
1.31555
21
-5.03086
0
LINE
8
BLACK
6
CONTINUOUS
10
1.31555
20
-5.03086
11
1.3118
21
-5.03836
0
LINE
8
BLACK
6
CONTINUOUS
10
1.3118
20
-5.03836
11
1.30805
21
-5.04211
0
LINE
8
BLACK
6
CONTINUOUS
10
1.30805
20
-5.04211
11
1.30055
21
-5.04586
0
LINE
8
BLACK
6
CONTINUOUS
10
1.30055
20
-5.04586
11
1.28555
21
-5.04586
0
LINE
8
BLACK
6
CONTINUOUS
10
1.28555
20
-5.04586
11
1.27805
21
-5.04211
0
LINE
8
BLACK
6
CONTINUOUS
10
1.34929
20
-5.03836
11
1.35304
21
-5.04211
0
LINE
8
BLACK
6
CONTINUOUS
10
1.35304
20
-5.04211
11
1.34929
21
-5.04586
0
LINE
8
BLACK
6
CONTINUOUS
10
1.34929
20
-5.04586
11
1.34554
21
-5.04211
0
LINE
8
BLACK
6
CONTINUOUS
10
1.34554
20
-5.04211
11
1.34929
21
-5.03836
0
LINE
8
BLACK
6
CONTINUOUS
10
1.34929
20
-5.03836
11
1.34929
21
-5.04586
0
LINE
8
BLACK
6
CONTINUOUS
10
1.34929
20
-4.99712
11
1.35304
21
-5.00087
0
LINE
8
BLACK
6
CONTINUOUS
10
1.35304
20
-5.00087
11
1.34929
21
-5.00461
0
LINE
8
BLACK
6
CONTINUOUS
10
1.34929
20
-5.00461
11
1.34554
21
-5.00087
0
LINE
8
BLACK
6
CONTINUOUS
10
1.34554
20
-5.00087
11
1.34929
21
-4.99712
0
LINE
8
BLACK
6
CONTINUOUS
10
1.34929
20
-4.99712
11
1.34929
21
-5.00461
0
LINE
8
BLACK
6
CONTINUOUS
10
0.681102
20
-5.1624
11
0.706693
21
-5.18799
0
LINE
8
BLACK
6
CONTINUOUS
10
0.706693
20
-5.1624
11
0.681102
21
-5.18799
0
LINE
8
BLACK
6
CONTINUOUS
10
0.824359
20
-5.13247
11
0.831858
21
-5.13247
0
LINE
8
BLACK
6
CONTINUOUS
10
0.831858
20
-5.13247
11
0.839357
21
-5.13622
0
LINE
8
BLACK
6
CONTINUOUS
10
0.839357
20
-5.13622
11
0.843107
21
-5.13997
0
LINE
8
BLACK
6
CONTINUOUS
10
0.843107
20
-5.13997
11
0.846856
21
-5.14747
0
LINE
8
BLACK
6
CONTINUOUS
10
0.846856
20
-5.14747
11
0.850606
21
-5.16247
0
LINE
8
BLACK
6
CONTINUOUS
10
0.850606
20
-5.16247
11
0.850606
21
-5.18122
0
LINE
8
BLACK
6
CONTINUOUS
10
0.850606
20
-5.18122
11
0.846856
21
-5.19622
0
LINE
8
BLACK
6
CONTINUOUS
10
0.846856
20
-5.19622
11
0.843107
21
-5.20371
0
LINE
8
BLACK
6
CONTINUOUS
10
0.843107
20
-5.20371
11
0.839357
21
-5.20746
0
LINE
8
BLACK
6
CONTINUOUS
10
0.839357
20
-5.20746
11
0.831858
21
-5.21121
0
LINE
8
BLACK
6
CONTINUOUS
10
0.831858
20
-5.21121
11
0.824359
21
-5.21121
0
LINE
8
BLACK
6
CONTINUOUS
10
0.824359
20
-5.21121
11
0.81686
21
-5.20746
0
LINE
8
BLACK
6
CONTINUOUS
10
0.81686
20
-5.20746
11
0.81311
21
-5.20371
0
LINE
8
BLACK
6
CONTINUOUS
10
0.81311
20
-5.20371
11
0.809361
21
-5.19622
0
LINE
8
BLACK
6
CONTINUOUS
10
0.809361
20
-5.19622
11
0.805611
21
-5.18122
0
LINE
8
BLACK
6
CONTINUOUS
10
0.805611
20
-5.18122
11
0.805611
21
-5.16247
0
LINE
8
BLACK
6
CONTINUOUS
10
0.805611
20
-5.16247
11
0.809361
21
-5.14747
0
LINE
8
BLACK
6
CONTINUOUS
10
0.809361
20
-5.14747
11
0.81311
21
-5.13997
0
LINE
8
BLACK
6
CONTINUOUS
10
0.81311
20
-5.13997
11
0.81686
21
-5.13622
0
LINE
8
BLACK
6
CONTINUOUS
10
0.81686
20
-5.13622
11
0.824359
21
-5.13247
0
LINE
8
BLACK
6
CONTINUOUS
10
0.884352
20
-5.20371
11
0.888101
21
-5.20746
0
LINE
8
BLACK
6
CONTINUOUS
10
0.888101
20
-5.20746
11
0.884352
21
-5.21121
0
LINE
8
BLACK
6
CONTINUOUS
10
0.884352
20
-5.21121
11
0.880602
21
-5.20746
0
LINE
8
BLACK
6
CONTINUOUS
10
0.880602
20
-5.20746
11
0.884352
21
-5.20371
0
LINE
8
BLACK
6
CONTINUOUS
10
0.884352
20
-5.20371
11
0.884352
21
-5.21121
0
LINE
8
BLACK
6
CONTINUOUS
10
0.955593
20
-5.13247
11
0.940595
21
-5.13247
0
LINE
8
BLACK
6
CONTINUOUS
10
0.940595
20
-5.13247
11
0.933095
21
-5.13622
0
LINE
8
BLACK
6
CONTINUOUS
10
0.933095
20
-5.13622
11
0.929346
21
-5.13997
0
LINE
8
BLACK
6
CONTINUOUS
10
0.929346
20
-5.13997
11
0.921847
21
-5.15122
0
LINE
8
BLACK
6
CONTINUOUS
10
0.921847
20
-5.15122
11
0.918097
21
-5.16622
0
LINE
8
BLACK
6
CONTINUOUS
10
0.918097
20
-5.16622
11
0.918097
21
-5.19622
0
LINE
8
BLACK
6
CONTINUOUS
10
0.918097
20
-5.19622
11
0.921847
21
-5.20371
0
LINE
8
BLACK
6
CONTINUOUS
10
0.921847
20
-5.20371
11
0.925596
21
-5.20746
0
LINE
8
BLACK
6
CONTINUOUS
10
0.925596
20
-5.20746
11
0.933095
21
-5.21121
0
LINE
8
BLACK
6
CONTINUOUS
10
0.933095
20
-5.21121
11
0.948094
21
-5.21121
0
LINE
8
BLACK
6
CONTINUOUS
10
0.948094
20
-5.21121
11
0.955593
21
-5.20746
0
LINE
8
BLACK
6
CONTINUOUS
10
0.955593
20
-5.20746
11
0.959342
21
-5.20371
0
LINE
8
BLACK
6
CONTINUOUS
10
0.959342
20
-5.20371
11
0.963092
21
-5.19622
0
LINE
8
BLACK
6
CONTINUOUS
10
0.963092
20
-5.19622
11
0.963092
21
-5.17747
0
LINE
8
BLACK
6
CONTINUOUS
10
0.963092
20
-5.17747
11
0.959342
21
-5.16997
0
LINE
8
BLACK
6
CONTINUOUS
10
0.959342
20
-5.16997
11
0.955593
21
-5.16622
0
LINE
8
BLACK
6
CONTINUOUS
10
0.955593
20
-5.16622
11
0.948094
21
-5.16247
0
LINE
8
BLACK
6
CONTINUOUS
10
0.948094
20
-5.16247
11
0.933095
21
-5.16247
0
LINE
8
BLACK
6
CONTINUOUS
10
0.933095
20
-5.16247
11
0.925596
21
-5.16622
0
LINE
8
BLACK
6
CONTINUOUS
10
0.925596
20
-5.16622
11
0.921847
21
-5.16997
0
LINE
8
BLACK
6
CONTINUOUS
10
0.921847
20
-5.16997
11
0.918097
21
-5.17747
0
LINE
8
BLACK
6
CONTINUOUS
10
1.03433
20
-5.13247
11
0.996838
21
-5.13247
0
LINE
8
BLACK
6
CONTINUOUS
10
0.996838
20
-5.13247
11
0.993088
21
-5.16997
0
LINE
8
BLACK
6
CONTINUOUS
10
0.993088
20
-5.16997
11
0.996838
21
-5.16622
0
LINE
8
BLACK
6
CONTINUOUS
10
0.996838
20
-5.16622
11
1.00434
21
-5.16247
0
LINE
8
BLACK
6
CONTINUOUS
10
1.00434
20
-5.16247
11
1.02308
21
-5.16247
0
LINE
8
BLACK
6
CONTINUOUS
10
1.02308
20
-5.16247
11
1.03058
21
-5.16622
0
LINE
8
BLACK
6
CONTINUOUS
10
1.03058
20
-5.16622
11
1.03433
21
-5.16997
0
LINE
8
BLACK
6
CONTINUOUS
10
1.03433
20
-5.16997
11
1.03808
21
-5.17747
0
LINE
8
BLACK
6
CONTINUOUS
10
1.03808
20
-5.17747
11
1.03808
21
-5.19622
0
LINE
8
BLACK
6
CONTINUOUS
10
1.03808
20
-5.19622
11
1.03433
21
-5.20371
0
LINE
8
BLACK
6
CONTINUOUS
10
1.03433
20
-5.20371
11
1.03058
21
-5.20746
0
LINE
8
BLACK
6
CONTINUOUS
10
1.03058
20
-5.20746
11
1.02308
21
-5.21121
0
LINE
8
BLACK
6
CONTINUOUS
10
1.02308
20
-5.21121
11
1.00434
21
-5.21121
0
LINE
8
BLACK
6
CONTINUOUS
10
1.00434
20
-5.21121
11
0.996838
21
-5.20746
0
LINE
8
BLACK
6
CONTINUOUS
10
0.996838
20
-5.20746
11
0.993088
21
-5.20371
0
LINE
8
BLACK
6
CONTINUOUS
10
1.08683
20
-5.13247
11
1.09433
21
-5.13247
0
LINE
8
BLACK
6
CONTINUOUS
10
1.09433
20
-5.13247
11
1.10182
21
-5.13622
0
LINE
8
BLACK
6
CONTINUOUS
10
1.10182
20
-5.13622
11
1.10557
21
-5.13997
0
LINE
8
BLACK
6
CONTINUOUS
10
1.10557
20
-5.13997
11
1.10932
21
-5.14747
0
LINE
8
BLACK
6
CONTINUOUS
10
1.10932
20
-5.14747
11
1.11307
21
-5.16247
0
LINE
8
BLACK
6
CONTINUOUS
10
1.11307
20
-5.16247
11
1.11307
21
-5.18122
0
LINE
8
BLACK
6
CONTINUOUS
10
1.11307
20
-5.18122
11
1.10932
21
-5.19622
0
LINE
8
BLACK
6
CONTINUOUS
10
1.10932
20
-5.19622
11
1.10557
21
-5.20371
0
LINE
8
BLACK
6
CONTINUOUS
10
1.10557
20
-5.20371
11
1.10182
21
-5.20746
0
LINE
8
BLACK
6
CONTINUOUS
10
1.10182
20
-5.20746
11
1.09433
21
-5.21121
0
LINE
8
BLACK
6
CONTINUOUS
10
1.09433
20
-5.21121
11
1.08683
21
-5.21121
0
LINE
8
BLACK
6
CONTINUOUS
10
1.08683
20
-5.21121
11
1.07933
21
-5.20746
0
LINE
8
BLACK
6
CONTINUOUS
10
1.07933
20
-5.20746
11
1.07558
21
-5.20371
0
LINE
8
BLACK
6
CONTINUOUS
10
1.07558
20
-5.20371
11
1.07183
21
-5.19622
0
LINE
8
BLACK
6
CONTINUOUS
10
1.07183
20
-5.19622
11
1.06808
21
-5.18122
0
LINE
8
BLACK
6
CONTINUOUS
10
1.06808
20
-5.18122
11
1.06808
21
-5.16247
0
LINE
8
BLACK
6
CONTINUOUS
10
1.06808
20
-5.16247
11
1.07183
21
-5.14747
0
LINE
8
BLACK
6
CONTINUOUS
10
1.07183
20
-5.14747
11
1.07558
21
-5.13997
0
LINE
8
BLACK
6
CONTINUOUS
10
1.07558
20
-5.13997
11
1.07933
21
-5.13622
0
LINE
8
BLACK
6
CONTINUOUS
10
1.07933
20
-5.13622
11
1.08683
21
-5.13247
0
LINE
8
BLACK
6
CONTINUOUS
10
1.14682
20
-5.21121
11
1.14682
21
-5.15872
0
LINE
8
BLACK
6
CONTINUOUS
10
1.14682
20
-5.16622
11
1.15057
21
-5.16247
0
LINE
8
BLACK
6
CONTINUOUS
10
1.15057
20
-5.16247
11
1.15807
21
-5.15872
0
LINE
8
BLACK
6
CONTINUOUS
10
1.15807
20
-5.15872
11
1.16932
21
-5.15872
0
LINE
8
BLACK
6
CONTINUOUS
10
1.16932
20
-5.15872
11
1.17682
21
-5.16247
0
LINE
8
BLACK
6
CONTINUOUS
10
1.17682
20
-5.16247
11
1.18056
21
-5.16997
0
LINE
8
BLACK
6
CONTINUOUS
10
1.18056
20
-5.16997
11
1.18056
21
-5.21121
0
LINE
8
BLACK
6
CONTINUOUS
10
1.18056
20
-5.16997
11
1.18431
21
-5.16247
0
LINE
8
BLACK
6
CONTINUOUS
10
1.18431
20
-5.16247
11
1.19181
21
-5.15872
0
LINE
8
BLACK
6
CONTINUOUS
10
1.19181
20
-5.15872
11
1.20306
21
-5.15872
0
LINE
8
BLACK
6
CONTINUOUS
10
1.20306
20
-5.15872
11
1.21056
21
-5.16247
0
LINE
8
BLACK
6
CONTINUOUS
10
1.21056
20
-5.16247
11
1.21431
21
-5.16997
0
LINE
8
BLACK
6
CONTINUOUS
10
1.21431
20
-5.16997
11
1.21431
21
-5.21121
0
LINE
8
BLACK
6
CONTINUOUS
10
1.25181
20
-5.21121
11
1.25181
21
-5.15872
0
LINE
8
BLACK
6
CONTINUOUS
10
1.25181
20
-5.16622
11
1.25556
21
-5.16247
0
LINE
8
BLACK
6
CONTINUOUS
10
1.25556
20
-5.16247
11
1.26305
21
-5.15872
0
LINE
8
BLACK
6
CONTINUOUS
10
1.26305
20
-5.15872
11
1.2743
21
-5.15872
0
LINE
8
BLACK
6
CONTINUOUS
10
1.2743
20
-5.15872
11
1.2818
21
-5.16247
0
LINE
8
BLACK
6
CONTINUOUS
10
1.2818
20
-5.16247
11
1.28555
21
-5.16997
0
LINE
8
BLACK
6
CONTINUOUS
10
1.28555
20
-5.16997
11
1.28555
21
-5.21121
0
LINE
8
BLACK
6
CONTINUOUS
10
1.28555
20
-5.16997
11
1.2893
21
-5.16247
0
LINE
8
BLACK
6
CONTINUOUS
10
1.2893
20
-5.16247
11
1.2968
21
-5.15872
0
LINE
8
BLACK
6
CONTINUOUS
10
1.2968
20
-5.15872
11
1.30805
21
-5.15872
0
LINE
8
BLACK
6
CONTINUOUS
10
1.30805
20
-5.15872
11
1.31555
21
-5.16247
0
LINE
8
BLACK
6
CONTINUOUS
10
1.31555
20
-5.16247
11
1.3193
21
-5.16997
0
LINE
8
BLACK
6
CONTINUOUS
10
1.3193
20
-5.16997
11
1.3193
21
-5.21121
0
LINE
8
BLACK
6
CONTINUOUS
10
1.47303
20
-5.12872
11
1.40554
21
-5.22996
0
LINE
8
BLACK
6
CONTINUOUS
10
1.57427
20
-5.13247
11
1.58176
21
-5.13247
0
LINE
8
BLACK
6
CONTINUOUS
10
1.58176
20
-5.13247
11
1.58926
21
-5.13622
0
LINE
8
BLACK
6
CONTINUOUS
10
1.58926
20
-5.13622
11
1.59301
21
-5.13997
0
LINE
8
BLACK
6
CONTINUOUS
10
1.59301
20
-5.13997
11
1.59676
21
-5.14747
0
LINE
8
BLACK
6
CONTINUOUS
10
1.59676
20
-5.14747
11
1.60051
21
-5.16247
0
LINE
8
BLACK
6
CONTINUOUS
10
1.60051
20
-5.16247
11
1.60051
21
-5.18122
0
LINE
8
BLACK
6
CONTINUOUS
10
1.60051
20
-5.18122
11
1.59676
21
-5.19622
0
LINE
8
BLACK
6
CONTINUOUS
10
1.59676
20
-5.19622
11
1.59301
21
-5.20371
0
LINE
8
BLACK
6
CONTINUOUS
10
1.59301
20
-5.20371
11
1.58926
21
-5.20746
0
LINE
8
BLACK
6
CONTINUOUS
10
1.58926
20
-5.20746
11
1.58176
21
-5.21121
0
LINE
8
BLACK
6
CONTINUOUS
10
1.58176
20
-5.21121
11
1.57427
21
-5.21121
0
LINE
8
BLACK
6
CONTINUOUS
10
1.57427
20
-5.21121
11
1.56677
21
-5.20746
0
LINE
8
BLACK
6
CONTINUOUS
10
1.56677
20
-5.20746
11
1.56302
21
-5.20371
0
LINE
8
BLACK
6
CONTINUOUS
10
1.56302
20
-5.20371
11
1.55927
21
-5.19622
0
LINE
8
BLACK
6
CONTINUOUS
10
1.55927
20
-5.19622
11
1.55552
21
-5.18122
0
LINE
8
BLACK
6
CONTINUOUS
10
1.55552
20
-5.18122
11
1.55552
21
-5.16247
0
LINE
8
BLACK
6
CONTINUOUS
10
1.55552
20
-5.16247
11
1.55927
21
-5.14747
0
LINE
8
BLACK
6
CONTINUOUS
10
1.55927
20
-5.14747
11
1.56302
21
-5.13997
0
LINE
8
BLACK
6
CONTINUOUS
10
1.56302
20
-5.13997
11
1.56677
21
-5.13622
0
LINE
8
BLACK
6
CONTINUOUS
10
1.56677
20
-5.13622
11
1.57427
21
-5.13247
0
LINE
8
BLACK
6
CONTINUOUS
10
1.63426
20
-5.20371
11
1.63801
21
-5.20746
0
LINE
8
BLACK
6
CONTINUOUS
10
1.63801
20
-5.20746
11
1.63426
21
-5.21121
0
LINE
8
BLACK
6
CONTINUOUS
10
1.63426
20
-5.21121
11
1.63051
21
-5.20746
0
LINE
8
BLACK
6
CONTINUOUS
10
1.63051
20
-5.20746
11
1.63426
21
-5.20371
0
LINE
8
BLACK
6
CONTINUOUS
10
1.63426
20
-5.20371
11
1.63426
21
-5.21121
0
LINE
8
BLACK
6
CONTINUOUS
10
1.68675
20
-5.13247
11
1.69425
21
-5.13247
0
LINE
8
BLACK
6
CONTINUOUS
10
1.69425
20
-5.13247
11
1.70175
21
-5.13622
0
LINE
8
BLACK
6
CONTINUOUS
10
1.70175
20
-5.13622
11
1.7055
21
-5.13997
0
LINE
8
BLACK
6
CONTINUOUS
10
1.7055
20
-5.13997
11
1.70925
21
-5.14747
0
LINE
8
BLACK
6
CONTINUOUS
10
1.70925
20
-5.14747
11
1.713
21
-5.16247
0
LINE
8
BLACK
6
CONTINUOUS
10
1.713
20
-5.16247
11
1.713
21
-5.18122
0
LINE
8
BLACK
6
CONTINUOUS
10
1.713
20
-5.18122
11
1.70925
21
-5.19622
0
LINE
8
BLACK
6
CONTINUOUS
10
1.70925
20
-5.19622
11
1.7055
21
-5.20371
0
LINE
8
BLACK
6
CONTINUOUS
10
1.7055
20
-5.20371
11
1.70175
21
-5.20746
0
LINE
8
BLACK
6
CONTINUOUS
10
1.70175
20
-5.20746
11
1.69425
21
-5.21121
0
LINE
8
BLACK
6
CONTINUOUS
10
1.69425
20
-5.21121
11
1.68675
21
-5.21121
0
LINE
8
BLACK
6
CONTINUOUS
10
1.68675
20
-5.21121
11
1.67925
21
-5.20746
0
LINE
8
BLACK
6
CONTINUOUS
10
1.67925
20
-5.20746
11
1.6755
21
-5.20371
0
LINE
8
BLACK
6
CONTINUOUS
10
1.6755
20
-5.20371
11
1.67175
21
-5.19622
0
LINE
8
BLACK
6
CONTINUOUS
10
1.67175
20
-5.19622
11
1.668
21
-5.18122
0
LINE
8
BLACK
6
CONTINUOUS
10
1.668
20
-5.18122
11
1.668
21
-5.16247
0
LINE
8
BLACK
6
CONTINUOUS
10
1.668
20
-5.16247
11
1.67175
21
-5.14747
0
LINE
8
BLACK
6
CONTINUOUS
10
1.67175
20
-5.14747
11
1.6755
21
-5.13997
0
LINE
8
BLACK
6
CONTINUOUS
10
1.6755
20
-5.13997
11
1.67925
21
-5.13622
0
LINE
8
BLACK
6
CONTINUOUS
10
1.67925
20
-5.13622
11
1.68675
21
-5.13247
0
LINE
8
BLACK
6
CONTINUOUS
10
1.74299
20
-5.13997
11
1.74674
21
-5.13622
0
LINE
8
BLACK
6
CONTINUOUS
10
1.74674
20
-5.13622
11
1.75424
21
-5.13247
0
LINE
8
BLACK
6
CONTINUOUS
10
1.75424
20
-5.13247
11
1.77299
21
-5.13247
0
LINE
8
BLACK
6
CONTINUOUS
10
1.77299
20
-5.13247
11
1.78049
21
-5.13622
0
LINE
8
BLACK
6
CONTINUOUS
10
1.78049
20
-5.13622
11
1.78424
21
-5.13997
0
LINE
8
BLACK
6
CONTINUOUS
10
1.78424
20
-5.13997
11
1.78799
21
-5.14747
0
LINE
8
BLACK
6
CONTINUOUS
10
1.78799
20
-5.14747
11
1.78799
21
-5.15497
0
LINE
8
BLACK
6
CONTINUOUS
10
1.78799
20
-5.15497
11
1.78424
21
-5.16622
0
LINE
8
BLACK
6
CONTINUOUS
10
1.78424
20
-5.16622
11
1.73924
21
-5.21121
0
LINE
8
BLACK
6
CONTINUOUS
10
1.73924
20
-5.21121
11
1.78799
21
-5.21121
0
LINE
8
BLACK
6
CONTINUOUS
10
1.85923
20
-5.13247
11
1.82173
21
-5.13247
0
LINE
8
BLACK
6
CONTINUOUS
10
1.82173
20
-5.13247
11
1.81798
21
-5.16997
0
LINE
8
BLACK
6
CONTINUOUS
10
1.81798
20
-5.16997
11
1.82173
21
-5.16622
0
LINE
8
BLACK
6
CONTINUOUS
10
1.82173
20
-5.16622
11
1.82923
21
-5.16247
0
LINE
8
BLACK
6
CONTINUOUS
10
1.82923
20
-5.16247
11
1.84798
21
-5.16247
0
LINE
8
BLACK
6
CONTINUOUS
10
1.84798
20
-5.16247
11
1.85548
21
-5.16622
0
LINE
8
BLACK
6
CONTINUOUS
10
1.85548
20
-5.16622
11
1.85923
21
-5.16997
0
LINE
8
BLACK
6
CONTINUOUS
10
1.85923
20
-5.16997
11
1.86298
21
-5.17747
0
LINE
8
BLACK
6
CONTINUOUS
10
1.86298
20
-5.17747
11
1.86298
21
-5.19622
0
LINE
8
BLACK
6
CONTINUOUS
10
1.86298
20
-5.19622
11
1.85923
21
-5.20371
0
LINE
8
BLACK
6
CONTINUOUS
10
1.85923
20
-5.20371
11
1.85548
21
-5.20746
0
LINE
8
BLACK
6
CONTINUOUS
10
1.85548
20
-5.20746
11
1.84798
21
-5.21121
0
LINE
8
BLACK
6
CONTINUOUS
10
1.84798
20
-5.21121
11
1.82923
21
-5.21121
0
LINE
8
BLACK
6
CONTINUOUS
10
1.82923
20
-5.21121
11
1.82173
21
-5.20746
0
LINE
8
BLACK
6
CONTINUOUS
10
1.82173
20
-5.20746
11
1.81798
21
-5.20371
0
LINE
8
BLACK
6
CONTINUOUS
10
1.93047
20
-5.13247
11
1.91547
21
-5.13247
0
LINE
8
BLACK
6
CONTINUOUS
10
1.91547
20
-5.13247
11
1.90797
21
-5.13622
0
LINE
8
BLACK
6
CONTINUOUS
10
1.90797
20
-5.13622
11
1.90422
21
-5.13997
0
LINE
8
BLACK
6
CONTINUOUS
10
1.90422
20
-5.13997
11
1.89673
21
-5.15122
0
LINE
8
BLACK
6
CONTINUOUS
10
1.89673
20
-5.15122
11
1.89298
21
-5.16622
0
LINE
8
BLACK
6
CONTINUOUS
10
1.89298
20
-5.16622
11
1.89298
21
-5.19622
0
LINE
8
BLACK
6
CONTINUOUS
10
1.89298
20
-5.19622
11
1.89673
21
-5.20371
0
LINE
8
BLACK
6
CONTINUOUS
10
1.89673
20
-5.20371
11
1.90047
21
-5.20746
0
LINE
8
BLACK
6
CONTINUOUS
10
1.90047
20
-5.20746
11
1.90797
21
-5.21121
0
LINE
8
BLACK
6
CONTINUOUS
10
1.90797
20
-5.21121
11
1.92297
21
-5.21121
0
LINE
8
BLACK
6
CONTINUOUS
10
1.92297
20
-5.21121
11
1.93047
21
-5.20746
0
LINE
8
BLACK
6
CONTINUOUS
10
1.93047
20
-5.20746
11
1.93422
21
-5.20371
0
LINE
8
BLACK
6
CONTINUOUS
10
1.93422
20
-5.20371
11
1.93797
21
-5.19622
0
LINE
8
BLACK
6
CONTINUOUS
10
1.93797
20
-5.19622
11
1.93797
21
-5.17747
0
LINE
8
BLACK
6
CONTINUOUS
10
1.93797
20
-5.17747
11
1.93422
21
-5.16997
0
LINE
8
BLACK
6
CONTINUOUS
10
1.93422
20
-5.16997
11
1.93047
21
-5.16622
0
LINE
8
BLACK
6
CONTINUOUS
10
1.93047
20
-5.16622
11
1.92297
21
-5.16247
0
LINE
8
BLACK
6
CONTINUOUS
10
1.92297
20
-5.16247
11
1.90797
21
-5.16247
0
LINE
8
BLACK
6
CONTINUOUS
10
1.90797
20
-5.16247
11
1.90047
21
-5.16622
0
LINE
8
BLACK
6
CONTINUOUS
10
1.90047
20
-5.16622
11
1.89673
21
-5.16997
0
LINE
8
BLACK
6
CONTINUOUS
10
1.89673
20
-5.16997
11
1.89298
21
-5.17747
0
LINE
8
BLACK
6
CONTINUOUS
10
1.96797
20
-5.13247
11
1.96797
21
-5.14747
0
LINE
8
BLACK
6
CONTINUOUS
10
1.99796
20
-5.13247
11
1.99796
21
-5.14747
0
LINE
8
BLACK
6
CONTINUOUS
10
2.1142
20
-5.24121
11
2.11045
21
-5.23746
0
LINE
8
BLACK
6
CONTINUOUS
10
2.11045
20
-5.23746
11
2.10295
21
-5.22621
0
LINE
8
BLACK
6
CONTINUOUS
10
2.10295
20
-5.22621
11
2.0992
21
-5.21871
0
LINE
8
BLACK
6
CONTINUOUS
10
2.0992
20
-5.21871
11
2.09545
21
-5.20746
0
LINE
8
BLACK
6
CONTINUOUS
10
2.09545
20
-5.20746
11
2.0917
21
-5.18872
0
LINE
8
BLACK
6
CONTINUOUS
10
2.0917
20
-5.18872
11
2.0917
21
-5.17372
0
LINE
8
BLACK
6
CONTINUOUS
10
2.0917
20
-5.17372
11
2.09545
21
-5.15497
0
LINE
8
BLACK
6
CONTINUOUS
10
2.09545
20
-5.15497
11
2.0992
21
-5.14372
0
LINE
8
BLACK
6
CONTINUOUS
10
2.0992
20
-5.14372
11
2.10295
21
-5.13622
0
LINE
8
BLACK
6
CONTINUOUS
10
2.10295
20
-5.13622
11
2.11045
21
-5.12497
0
LINE
8
BLACK
6
CONTINUOUS
10
2.11045
20
-5.12497
11
2.1142
21
-5.12123
0
LINE
8
BLACK
6
CONTINUOUS
10
2.14044
20
-5.13997
11
2.14419
21
-5.13622
0
LINE
8
BLACK
6
CONTINUOUS
10
2.14419
20
-5.13622
11
2.15169
21
-5.13247
0
LINE
8
BLACK
6
CONTINUOUS
10
2.15169
20
-5.13247
11
2.17044
21
-5.13247
0
LINE
8
BLACK
6
CONTINUOUS
10
2.17044
20
-5.13247
11
2.17794
21
-5.13622
0
LINE
8
BLACK
6
CONTINUOUS
10
2.17794
20
-5.13622
11
2.18169
21
-5.13997
0
LINE
8
BLACK
6
CONTINUOUS
10
2.18169
20
-5.13997
11
2.18544
21
-5.14747
0
LINE
8
BLACK
6
CONTINUOUS
10
2.18544
20
-5.14747
11
2.18544
21
-5.15497
0
LINE
8
BLACK
6
CONTINUOUS
10
2.18544
20
-5.15497
11
2.18169
21
-5.16622
0
LINE
8
BLACK
6
CONTINUOUS
10
2.18169
20
-5.16622
11
2.1367
21
-5.21121
0
LINE
8
BLACK
6
CONTINUOUS
10
2.1367
20
-5.21121
11
2.18544
21
-5.21121
0
LINE
8
BLACK
6
CONTINUOUS
10
2.27918
20
-5.21121
11
2.27918
21
-5.13247
0
LINE
8
BLACK
6
CONTINUOUS
10
2.31292
20
-5.21121
11
2.31292
21
-5.16997
0
LINE
8
BLACK
6
CONTINUOUS
10
2.31292
20
-5.16997
11
2.30917
21
-5.16247
0
LINE
8
BLACK
6
CONTINUOUS
10
2.30917
20
-5.16247
11
2.30167
21
-5.15872
0
LINE
8
BLACK
6
CONTINUOUS
10
2.30167
20
-5.15872
11
2.29043
21
-5.15872
0
LINE
8
BLACK
6
CONTINUOUS
10
2.29043
20
-5.15872
11
2.28293
21
-5.16247
0
LINE
8
BLACK
6
CONTINUOUS
10
2.28293
20
-5.16247
11
2.27918
21
-5.16622
0
LINE
8
BLACK
6
CONTINUOUS
10
2.36167
20
-5.21121
11
2.35417
21
-5.20746
0
LINE
8
BLACK
6
CONTINUOUS
10
2.35417
20
-5.20746
11
2.35042
21
-5.20371
0
LINE
8
BLACK
6
CONTINUOUS
10
2.35042
20
-5.20371
11
2.34667
21
-5.19622
0
LINE
8
BLACK
6
CONTINUOUS
10
2.34667
20
-5.19622
11
2.34667
21
-5.17372
0
LINE
8
BLACK
6
CONTINUOUS
10
2.34667
20
-5.17372
11
2.35042
21
-5.16622
0
LINE
8
BLACK
6
CONTINUOUS
10
2.35042
20
-5.16622
11
2.35417
21
-5.16247
0
LINE
8
BLACK
6
CONTINUOUS
10
2.35417
20
-5.16247
11
2.36167
21
-5.15872
0
LINE
8
BLACK
6
CONTINUOUS
10
2.36167
20
-5.15872
11
2.37292
21
-5.15872
0
LINE
8
BLACK
6
CONTINUOUS
10
2.37292
20
-5.15872
11
2.38041
21
-5.16247
0
LINE
8
BLACK
6
CONTINUOUS
10
2.38041
20
-5.16247
11
2.38416
21
-5.16622
0
LINE
8
BLACK
6
CONTINUOUS
10
2.38416
20
-5.16622
11
2.38791
21
-5.17372
0
LINE
8
BLACK
6
CONTINUOUS
10
2.38791
20
-5.17372
11
2.38791
21
-5.19622
0
LINE
8
BLACK
6
CONTINUOUS
10
2.38791
20
-5.19622
11
2.38416
21
-5.20371
0
LINE
8
BLACK
6
CONTINUOUS
10
2.38416
20
-5.20371
11
2.38041
21
-5.20746
0
LINE
8
BLACK
6
CONTINUOUS
10
2.38041
20
-5.20746
11
2.37292
21
-5.21121
0
LINE
8
BLACK
6
CONTINUOUS
10
2.37292
20
-5.21121
11
2.36167
21
-5.21121
0
LINE
8
BLACK
6
CONTINUOUS
10
2.43291
20
-5.21121
11
2.42541
21
-5.20746
0
LINE
8
BLACK
6
CONTINUOUS
10
2.42541
20
-5.20746
11
2.42166
21
-5.19997
0
LINE
8
BLACK
6
CONTINUOUS
10
2.42166
20
-5.19997
11
2.42166
21
-5.13247
0
LINE
8
BLACK
6
CONTINUOUS
10
2.4929
20
-5.20746
11
2.4854
21
-5.21121
0
LINE
8
BLACK
6
CONTINUOUS
10
2.4854
20
-5.21121
11
2.4704
21
-5.21121
0
LINE
8
BLACK
6
CONTINUOUS
10
2.4704
20
-5.21121
11
2.4629
21
-5.20746
0
LINE
8
BLACK
6
CONTINUOUS
10
2.4629
20
-5.20746
11
2.45915
21
-5.19997
0
LINE
8
BLACK
6
CONTINUOUS
10
2.45915
20
-5.19997
11
2.45915
21
-5.16997
0
LINE
8
BLACK
6
CONTINUOUS
10
2.45915
20
-5.16997
11
2.4629
21
-5.16247
0
LINE
8
BLACK
6
CONTINUOUS
10
2.4629
20
-5.16247
11
2.4704
21
-5.15872
0
LINE
8
BLACK
6
CONTINUOUS
10
2.4704
20
-5.15872
11
2.4854
21
-5.15872
0
LINE
8
BLACK
6
CONTINUOUS
10
2.4854
20
-5.15872
11
2.4929
21
-5.16247
0
LINE
8
BLACK
6
CONTINUOUS
10
2.4929
20
-5.16247
11
2.49665
21
-5.16997
0
LINE
8
BLACK
6
CONTINUOUS
10
2.49665
20
-5.16997
11
2.49665
21
-5.17747
0
LINE
8
BLACK
6
CONTINUOUS
10
2.49665
20
-5.17747
11
2.45915
21
-5.18497
0
LINE
8
BLACK
6
CONTINUOUS
10
2.52665
20
-5.20746
11
2.53415
21
-5.21121
0
LINE
8
BLACK
6
CONTINUOUS
10
2.53415
20
-5.21121
11
2.54914
21
-5.21121
0
LINE
8
BLACK
6
CONTINUOUS
10
2.54914
20
-5.21121
11
2.55664
21
-5.20746
0
LINE
8
BLACK
6
CONTINUOUS
10
2.55664
20
-5.20746
11
2.56039
21
-5.19997
0
LINE
8
BLACK
6
CONTINUOUS
10
2.56039
20
-5.19997
11
2.56039
21
-5.19622
0
LINE
8
BLACK
6
CONTINUOUS
10
2.56039
20
-5.19622
11
2.55664
21
-5.18872
0
LINE
8
BLACK
6
CONTINUOUS
10
2.55664
20
-5.18872
11
2.54914
21
-5.18497
0
LINE
8
BLACK
6
CONTINUOUS
10
2.54914
20
-5.18497
11
2.5379
21
-5.18497
0
LINE
8
BLACK
6
CONTINUOUS
10
2.5379
20
-5.18497
11
2.5304
21
-5.18122
0
LINE
8
BLACK
6
CONTINUOUS
10
2.5304
20
-5.18122
11
2.52665
21
-5.17372
0
LINE
8
BLACK
6
CONTINUOUS
10
2.52665
20
-5.17372
11
2.52665
21
-5.16997
0
LINE
8
BLACK
6
CONTINUOUS
10
2.52665
20
-5.16997
11
2.5304
21
-5.16247
0
LINE
8
BLACK
6
CONTINUOUS
10
2.5304
20
-5.16247
11
2.5379
21
-5.15872
0
LINE
8
BLACK
6
CONTINUOUS
10
2.5379
20
-5.15872
11
2.54914
21
-5.15872
0
LINE
8
BLACK
6
CONTINUOUS
10
2.54914
20
-5.15872
11
2.55664
21
-5.16247
0
LINE
8
BLACK
6
CONTINUOUS
10
2.58664
20
-5.24121
11
2.59039
21
-5.23746
0
LINE
8
BLACK
6
CONTINUOUS
10
2.59039
20
-5.23746
11
2.59789
21
-5.22621
0
LINE
8
BLACK
6
CONTINUOUS
10
2.59789
20
-5.22621
11
2.60164
21
-5.21871
0
LINE
8
BLACK
6
CONTINUOUS
10
2.60164
20
-5.21871
11
2.60539
21
-5.20746
0
LINE
8
BLACK
6
CONTINUOUS
10
2.60539
20
-5.20746
11
2.60914
21
-5.18872
0
LINE
8
BLACK
6
CONTINUOUS
10
2.60914
20
-5.18872
11
2.60914
21
-5.17372
0
LINE
8
BLACK
6
CONTINUOUS
10
2.60914
20
-5.17372
11
2.60539
21
-5.15497
0
LINE
8
BLACK
6
CONTINUOUS
10
2.60539
20
-5.15497
11
2.60164
21
-5.14372
0
LINE
8
BLACK
6
CONTINUOUS
10
2.60164
20
-5.14372
11
2.59789
21
-5.13622
0
LINE
8
BLACK
6
CONTINUOUS
10
2.59789
20
-5.13622
11
2.59039
21
-5.12497
0
LINE
8
BLACK
6
CONTINUOUS
10
2.59039
20
-5.12497
11
2.58664
21
-5.12123
0
LINE
8
BLACK
6
CONTINUOUS
10
2.72912
20
-5.24121
11
2.72537
21
-5.23746
0
LINE
8
BLACK
6
CONTINUOUS
10
2.72537
20
-5.23746
11
2.71787
21
-5.22621
0
LINE
8
BLACK
6
CONTINUOUS
10
2.71787
20
-5.22621
11
2.71412
21
-5.21871
0
LINE
8
BLACK
6
CONTINUOUS
10
2.71412
20
-5.21871
11
2.71037
21
-5.20746
0
LINE
8
BLACK
6
CONTINUOUS
10
2.71037
20
-5.20746
11
2.70662
21
-5.18872
0
LINE
8
BLACK
6
CONTINUOUS
10
2.70662
20
-5.18872
11
2.70662
21
-5.17372
0
LINE
8
BLACK
6
CONTINUOUS
10
2.70662
20
-5.17372
11
2.71037
21
-5.15497
0
LINE
8
BLACK
6
CONTINUOUS
10
2.71037
20
-5.15497
11
2.71412
21
-5.14372
0
LINE
8
BLACK
6
CONTINUOUS
10
2.71412
20
-5.14372
11
2.71787
21
-5.13622
0
LINE
8
BLACK
6
CONTINUOUS
10
2.71787
20
-5.13622
11
2.72537
21
-5.12497
0
LINE
8
BLACK
6
CONTINUOUS
10
2.72537
20
-5.12497
11
2.72912
21
-5.12123
0
LINE
8
BLACK
6
CONTINUOUS
10
2.75912
20
-5.15872
11
2.75912
21
-5.21121
0
LINE
8
BLACK
6
CONTINUOUS
10
2.75912
20
-5.16622
11
2.76287
21
-5.16247
0
LINE
8
BLACK
6
CONTINUOUS
10
2.76287
20
-5.16247
11
2.77037
21
-5.15872
0
LINE
8
BLACK
6
CONTINUOUS
10
2.77037
20
-5.15872
11
2.78161
21
-5.15872
0
LINE
8
BLACK
6
CONTINUOUS
10
2.78161
20
-5.15872
11
2.78911
21
-5.16247
0
LINE
8
BLACK
6
CONTINUOUS
10
2.78911
20
-5.16247
11
2.79286
21
-5.16997
0
LINE
8
BLACK
6
CONTINUOUS
10
2.79286
20
-5.16997
11
2.79286
21
-5.21121
0
LINE
8
BLACK
6
CONTINUOUS
10
2.84161
20
-5.21121
11
2.83411
21
-5.20746
0
LINE
8
BLACK
6
CONTINUOUS
10
2.83411
20
-5.20746
11
2.83036
21
-5.20371
0
LINE
8
BLACK
6
CONTINUOUS
10
2.83036
20
-5.20371
11
2.82661
21
-5.19622
0
LINE
8
BLACK
6
CONTINUOUS
10
2.82661
20
-5.19622
11
2.82661
21
-5.17372
0
LINE
8
BLACK
6
CONTINUOUS
10
2.82661
20
-5.17372
11
2.83036
21
-5.16622
0
LINE
8
BLACK
6
CONTINUOUS
10
2.83036
20
-5.16622
11
2.83411
21
-5.16247
0
LINE
8
BLACK
6
CONTINUOUS
10
2.83411
20
-5.16247
11
2.84161
21
-5.15872
0
LINE
8
BLACK
6
CONTINUOUS
10
2.84161
20
-5.15872
11
2.85286
21
-5.15872
0
LINE
8
BLACK
6
CONTINUOUS
10
2.85286
20
-5.15872
11
2.86035
21
-5.16247
0
LINE
8
BLACK
6
CONTINUOUS
10
2.86035
20
-5.16247
11
2.8641
21
-5.16622
0
LINE
8
BLACK
6
CONTINUOUS
10
2.8641
20
-5.16622
11
2.86785
21
-5.17372
0
LINE
8
BLACK
6
CONTINUOUS
10
2.86785
20
-5.17372
11
2.86785
21
-5.19622
0
LINE
8
BLACK
6
CONTINUOUS
10
2.86785
20
-5.19622
11
2.8641
21
-5.20371
0
LINE
8
BLACK
6
CONTINUOUS
10
2.8641
20
-5.20371
11
2.86035
21
-5.20746
0
LINE
8
BLACK
6
CONTINUOUS
10
2.86035
20
-5.20746
11
2.85286
21
-5.21121
0
LINE
8
BLACK
6
CONTINUOUS
10
2.85286
20
-5.21121
11
2.84161
21
-5.21121
0
LINE
8
BLACK
6
CONTINUOUS
10
2.89035
20
-5.15872
11
2.92035
21
-5.15872
0
LINE
8
BLACK
6
CONTINUOUS
10
2.9016
20
-5.13247
11
2.9016
21
-5.19997
0
LINE
8
BLACK
6
CONTINUOUS
10
2.9016
20
-5.19997
11
2.90535
21
-5.20746
0
LINE
8
BLACK
6
CONTINUOUS
10
2.90535
20
-5.20746
11
2.91285
21
-5.21121
0
LINE
8
BLACK
6
CONTINUOUS
10
2.91285
20
-5.21121
11
2.92035
21
-5.21121
0
LINE
8
BLACK
6
CONTINUOUS
10
3.00659
20
-5.15872
11
3.00659
21
-5.23746
0
LINE
8
BLACK
6
CONTINUOUS
10
3.00659
20
-5.16247
11
3.01409
21
-5.15872
0
LINE
8
BLACK
6
CONTINUOUS
10
3.01409
20
-5.15872
11
3.02908
21
-5.15872
0
LINE
8
BLACK
6
CONTINUOUS
10
3.02908
20
-5.15872
11
3.03658
21
-5.16247
0
LINE
8
BLACK
6
CONTINUOUS
10
3.03658
20
-5.16247
11
3.04033
21
-5.16622
0
LINE
8
BLACK
6
CONTINUOUS
10
3.04033
20
-5.16622
11
3.04408
21
-5.17372
0
LINE
8
BLACK
6
CONTINUOUS
10
3.04408
20
-5.17372
11
3.04408
21
-5.19622
0
LINE
8
BLACK
6
CONTINUOUS
10
3.04408
20
-5.19622
11
3.04033
21
-5.20371
0
LINE
8
BLACK
6
CONTINUOUS
10
3.04033
20
-5.20371
11
3.03658
21
-5.20746
0
LINE
8
BLACK
6
CONTINUOUS
10
3.03658
20
-5.20746
11
3.02908
21
-5.21121
0
LINE
8
BLACK
6
CONTINUOUS
10
3.02908
20
-5.21121
11
3.01409
21
-5.21121
0
LINE
8
BLACK
6
CONTINUOUS
10
3.01409
20
-5.21121
11
3.00659
21
-5.20746
0
LINE
8
BLACK
6
CONTINUOUS
10
3.08908
20
-5.21121
11
3.08158
21
-5.20746
0
LINE
8
BLACK
6
CONTINUOUS
10
3.08158
20
-5.20746
11
3.07783
21
-5.19997
0
LINE
8
BLACK
6
CONTINUOUS
10
3.07783
20
-5.19997
11
3.07783
21
-5.13247
0
LINE
8
BLACK
6
CONTINUOUS
10
3.15282
20
-5.21121
11
3.15282
21
-5.16997
0
LINE
8
BLACK
6
CONTINUOUS
10
3.15282
20
-5.16997
11
3.14907
21
-5.16247
0
LINE
8
BLACK
6
CONTINUOUS
10
3.14907
20
-5.16247
11
3.14157
21
-5.15872
0
LINE
8
BLACK
6
CONTINUOUS
10
3.14157
20
-5.15872
11
3.12657
21
-5.15872
0
LINE
8
BLACK
6
CONTINUOUS
10
3.12657
20
-5.15872
11
3.11907
21
-5.16247
0
LINE
8
BLACK
6
CONTINUOUS
10
3.15282
20
-5.20746
11
3.14532
21
-5.21121
0
LINE
8
BLACK
6
CONTINUOUS
10
3.14532
20
-5.21121
11
3.12657
21
-5.21121
0
LINE
8
BLACK
6
CONTINUOUS
10
3.12657
20
-5.21121
11
3.11907
21
-5.20746
0
LINE
8
BLACK
6
CONTINUOUS
10
3.11907
20
-5.20746
11
3.11532
21
-5.19997
0
LINE
8
BLACK
6
CONTINUOUS
10
3.11532
20
-5.19997
11
3.11532
21
-5.19247
0
LINE
8
BLACK
6
CONTINUOUS
10
3.11532
20
-5.19247
11
3.11907
21
-5.18497
0
LINE
8
BLACK
6
CONTINUOUS
10
3.11907
20
-5.18497
11
3.12657
21
-5.18122
0
LINE
8
BLACK
6
CONTINUOUS
10
3.12657
20
-5.18122
11
3.14532
21
-5.18122
0
LINE
8
BLACK
6
CONTINUOUS
10
3.14532
20
-5.18122
11
3.15282
21
-5.17747
0
LINE
8
BLACK
6
CONTINUOUS
10
3.17906
20
-5.15872
11
3.20906
21
-5.15872
0
LINE
8
BLACK
6
CONTINUOUS
10
3.19031
20
-5.13247
11
3.19031
21
-5.19997
0
LINE
8
BLACK
6
CONTINUOUS
10
3.19031
20
-5.19997
11
3.19406
21
-5.20746
0
LINE
8
BLACK
6
CONTINUOUS
10
3.19406
20
-5.20746
11
3.20156
21
-5.21121
0
LINE
8
BLACK
6
CONTINUOUS
10
3.20156
20
-5.21121
11
3.20906
21
-5.21121
0
LINE
8
BLACK
6
CONTINUOUS
10
3.2653
20
-5.20746
11
3.25781
21
-5.21121
0
LINE
8
BLACK
6
CONTINUOUS
10
3.25781
20
-5.21121
11
3.24281
21
-5.21121
0
LINE
8
BLACK
6
CONTINUOUS
10
3.24281
20
-5.21121
11
3.23531
21
-5.20746
0
LINE
8
BLACK
6
CONTINUOUS
10
3.23531
20
-5.20746
11
3.23156
21
-5.19997
0
LINE
8
BLACK
6
CONTINUOUS
10
3.23156
20
-5.19997
11
3.23156
21
-5.16997
0
LINE
8
BLACK
6
CONTINUOUS
10
3.23156
20
-5.16997
11
3.23531
21
-5.16247
0
LINE
8
BLACK
6
CONTINUOUS
10
3.23531
20
-5.16247
11
3.24281
21
-5.15872
0
LINE
8
BLACK
6
CONTINUOUS
10
3.24281
20
-5.15872
11
3.25781
21
-5.15872
0
LINE
8
BLACK
6
CONTINUOUS
10
3.25781
20
-5.15872
11
3.2653
21
-5.16247
0
LINE
8
BLACK
6
CONTINUOUS
10
3.2653
20
-5.16247
11
3.26905
21
-5.16997
0
LINE
8
BLACK
6
CONTINUOUS
10
3.26905
20
-5.16997
11
3.26905
21
-5.17747
0
LINE
8
BLACK
6
CONTINUOUS
10
3.26905
20
-5.17747
11
3.23156
21
-5.18497
0
LINE
8
BLACK
6
CONTINUOUS
10
3.33655
20
-5.21121
11
3.33655
21
-5.13247
0
LINE
8
BLACK
6
CONTINUOUS
10
3.33655
20
-5.20746
11
3.32905
21
-5.21121
0
LINE
8
BLACK
6
CONTINUOUS
10
3.32905
20
-5.21121
11
3.31405
21
-5.21121
0
LINE
8
BLACK
6
CONTINUOUS
10
3.31405
20
-5.21121
11
3.30655
21
-5.20746
0
LINE
8
BLACK
6
CONTINUOUS
10
3.30655
20
-5.20746
11
3.3028
21
-5.20371
0
LINE
8
BLACK
6
CONTINUOUS
10
3.3028
20
-5.20371
11
3.29905
21
-5.19622
0
LINE
8
BLACK
6
CONTINUOUS
10
3.29905
20
-5.19622
11
3.29905
21
-5.17372
0
LINE
8
BLACK
6
CONTINUOUS
10
3.29905
20
-5.17372
11
3.3028
21
-5.16622
0
LINE
8
BLACK
6
CONTINUOUS
10
3.3028
20
-5.16622
11
3.30655
21
-5.16247
0
LINE
8
BLACK
6
CONTINUOUS
10
3.30655
20
-5.16247
11
3.31405
21
-5.15872
0
LINE
8
BLACK
6
CONTINUOUS
10
3.31405
20
-5.15872
11
3.32905
21
-5.15872
0
LINE
8
BLACK
6
CONTINUOUS
10
3.32905
20
-5.15872
11
3.33655
21
-5.16247
0
LINE
8
BLACK
6
CONTINUOUS
10
3.36654
20
-5.24121
11
3.37029
21
-5.23746
0
LINE
8
BLACK
6
CONTINUOUS
10
3.37029
20
-5.23746
11
3.37779
21
-5.22621
0
LINE
8
BLACK
6
CONTINUOUS
10
3.37779
20
-5.22621
11
3.38154
21
-5.21871
0
LINE
8
BLACK
6
CONTINUOUS
10
3.38154
20
-5.21871
11
3.38529
21
-5.20746
0
LINE
8
BLACK
6
CONTINUOUS
10
3.38529
20
-5.20746
11
3.38904
21
-5.18872
0
LINE
8
BLACK
6
CONTINUOUS
10
3.38904
20
-5.18872
11
3.38904
21
-5.17372
0
LINE
8
BLACK
6
CONTINUOUS
10
3.38904
20
-5.17372
11
3.38529
21
-5.15497
0
LINE
8
BLACK
6
CONTINUOUS
10
3.38529
20
-5.15497
11
3.38154
21
-5.14372
0
LINE
8
BLACK
6
CONTINUOUS
10
3.38154
20
-5.14372
11
3.37779
21
-5.13622
0
LINE
8
BLACK
6
CONTINUOUS
10
3.37779
20
-5.13622
11
3.37029
21
-5.12497
0
LINE
8
BLACK
6
CONTINUOUS
10
3.37029
20
-5.12497
11
3.36654
21
-5.12123
0
CIRCLE
8
BLACK
10
0.673228
20
-5.27913
40
0.0334646
0
LINE
8
BLACK
6
CONTINUOUS
10
0.850606
20
-5.31515
11
0.805611
21
-5.31515
0
LINE
8
BLACK
6
CONTINUOUS
10
0.828109
20
-5.31515
11
0.828109
21
-5.23641
0
LINE
8
BLACK
6
CONTINUOUS
10
0.828109
20
-5.23641
11
0.82061
21
-5.24766
0
LINE
8
BLACK
6
CONTINUOUS
10
0.82061
20
-5.24766
11
0.81311
21
-5.25516
0
LINE
8
BLACK
6
CONTINUOUS
10
0.81311
20
-5.25516
11
0.805611
21
-5.25891
0
LINE
8
BLACK
6
CONTINUOUS
10
0.884352
20
-5.30765
11
0.888101
21
-5.3114
0
LINE
8
BLACK
6
CONTINUOUS
10
0.888101
20
-5.3114
11
0.884352
21
-5.31515
0
LINE
8
BLACK
6
CONTINUOUS
10
0.884352
20
-5.31515
11
0.880602
21
-5.3114
0
LINE
8
BLACK
6
CONTINUOUS
10
0.880602
20
-5.3114
11
0.884352
21
-5.30765
0
LINE
8
BLACK
6
CONTINUOUS
10
0.884352
20
-5.30765
11
0.884352
21
-5.31515
0
LINE
8
BLACK
6
CONTINUOUS
10
0.914348
20
-5.23641
11
0.966841
21
-5.23641
0
LINE
8
BLACK
6
CONTINUOUS
10
0.966841
20
-5.23641
11
0.933095
21
-5.31515
0
LINE
8
BLACK
6
CONTINUOUS
10
1.01184
20
-5.23641
11
1.01933
21
-5.23641
0
LINE
8
BLACK
6
CONTINUOUS
10
1.01933
20
-5.23641
11
1.02683
21
-5.24016
0
LINE
8
BLACK
6
CONTINUOUS
10
1.02683
20
-5.24016
11
1.03058
21
-5.24391
0
LINE
8
BLACK
6
CONTINUOUS
10
1.03058
20
-5.24391
11
1.03433
21
-5.25141
0
LINE
8
BLACK
6
CONTINUOUS
10
1.03433
20
-5.25141
11
1.03808
21
-5.26641
0
LINE
8
BLACK
6
CONTINUOUS
10
1.03808
20
-5.26641
11
1.03808
21
-5.28515
0
LINE
8
BLACK
6
CONTINUOUS
10
1.03808
20
-5.28515
11
1.03433
21
-5.30015
0
LINE
8
BLACK
6
CONTINUOUS
10
1.03433
20
-5.30015
11
1.03058
21
-5.30765
0
LINE
8
BLACK
6
CONTINUOUS
10
1.03058
20
-5.30765
11
1.02683
21
-5.3114
0
LINE
8
BLACK
6
CONTINUOUS
10
1.02683
20
-5.3114
11
1.01933
21
-5.31515
0
LINE
8
BLACK
6
CONTINUOUS
10
1.01933
20
-5.31515
11
1.01184
21
-5.31515
0
LINE
8
BLACK
6
CONTINUOUS
10
1.01184
20
-5.31515
11
1.00434
21
-5.3114
0
LINE
8
BLACK
6
CONTINUOUS
10
1.00434
20
-5.3114
11
1.00059
21
-5.30765
0
LINE
8
BLACK
6
CONTINUOUS
10
1.00059
20
-5.30765
11
0.996838
21
-5.30015
0
LINE
8
BLACK
6
CONTINUOUS
10
0.996838
20
-5.30015
11
0.993088
21
-5.28515
0
LINE
8
BLACK
6
CONTINUOUS
10
0.993088
20
-5.28515
11
0.993088
21
-5.26641
0
LINE
8
BLACK
6
CONTINUOUS
10
0.993088
20
-5.26641
11
0.996838
21
-5.25141
0
LINE
8
BLACK
6
CONTINUOUS
10
0.996838
20
-5.25141
11
1.00059
21
-5.24391
0
LINE
8
BLACK
6
CONTINUOUS
10
1.00059
20
-5.24391
11
1.00434
21
-5.24016
0
LINE
8
BLACK
6
CONTINUOUS
10
1.00434
20
-5.24016
11
1.01184
21
-5.23641
0
LINE
8
BLACK
6
CONTINUOUS
10
1.08683
20
-5.23641
11
1.09433
21
-5.23641
0
LINE
8
BLACK
6
CONTINUOUS
10
1.09433
20
-5.23641
11
1.10182
21
-5.24016
0
LINE
8
BLACK
6
CONTINUOUS
10
1.10182
20
-5.24016
11
1.10557
21
-5.24391
0
LINE
8
BLACK
6
CONTINUOUS
10
1.10557
20
-5.24391
11
1.10932
21
-5.25141
0
LINE
8
BLACK
6
CONTINUOUS
10
1.10932
20
-5.25141
11
1.11307
21
-5.26641
0
LINE
8
BLACK
6
CONTINUOUS
10
1.11307
20
-5.26641
11
1.11307
21
-5.28515
0
LINE
8
BLACK
6
CONTINUOUS
10
1.11307
20
-5.28515
11
1.10932
21
-5.30015
0
LINE
8
BLACK
6
CONTINUOUS
10
1.10932
20
-5.30015
11
1.10557
21
-5.30765
0
LINE
8
BLACK
6
CONTINUOUS
10
1.10557
20
-5.30765
11
1.10182
21
-5.3114
0
LINE
8
BLACK
6
CONTINUOUS
10
1.10182
20
-5.3114
11
1.09433
21
-5.31515
0
LINE
8
BLACK
6
CONTINUOUS
10
1.09433
20
-5.31515
11
1.08683
21
-5.31515
0
LINE
8
BLACK
6
CONTINUOUS
10
1.08683
20
-5.31515
11
1.07933
21
-5.3114
0
LINE
8
BLACK
6
CONTINUOUS
10
1.07933
20
-5.3114
11
1.07558
21
-5.30765
0
LINE
8
BLACK
6
CONTINUOUS
10
1.07558
20
-5.30765
11
1.07183
21
-5.30015
0
LINE
8
BLACK
6
CONTINUOUS
10
1.07183
20
-5.30015
11
1.06808
21
-5.28515
0
LINE
8
BLACK
6
CONTINUOUS
10
1.06808
20
-5.28515
11
1.06808
21
-5.26641
0
LINE
8
BLACK
6
CONTINUOUS
10
1.06808
20
-5.26641
11
1.07183
21
-5.25141
0
LINE
8
BLACK
6
CONTINUOUS
10
1.07183
20
-5.25141
11
1.07558
21
-5.24391
0
LINE
8
BLACK
6
CONTINUOUS
10
1.07558
20
-5.24391
11
1.07933
21
-5.24016
0
LINE
8
BLACK
6
CONTINUOUS
10
1.07933
20
-5.24016
11
1.08683
21
-5.23641
0
LINE
8
BLACK
6
CONTINUOUS
10
1.14682
20
-5.31515
11
1.14682
21
-5.26266
0
LINE
8
BLACK
6
CONTINUOUS
10
1.14682
20
-5.27016
11
1.15057
21
-5.26641
0
LINE
8
BLACK
6
CONTINUOUS
10
1.15057
20
-5.26641
11
1.15807
21
-5.26266
0
LINE
8
BLACK
6
CONTINUOUS
10
1.15807
20
-5.26266
11
1.16932
21
-5.26266
0
LINE
8
BLACK
6
CONTINUOUS
10
1.16932
20
-5.26266
11
1.17682
21
-5.26641
0
LINE
8
BLACK
6
CONTINUOUS
10
1.17682
20
-5.26641
11
1.18056
21
-5.27391
0
LINE
8
BLACK
6
CONTINUOUS
10
1.18056
20
-5.27391
11
1.18056
21
-5.31515
0
LINE
8
BLACK
6
CONTINUOUS
10
1.18056
20
-5.27391
11
1.18431
21
-5.26641
0
LINE
8
BLACK
6
CONTINUOUS
10
1.18431
20
-5.26641
11
1.19181
21
-5.26266
0
LINE
8
BLACK
6
CONTINUOUS
10
1.19181
20
-5.26266
11
1.20306
21
-5.26266
0
LINE
8
BLACK
6
CONTINUOUS
10
1.20306
20
-5.26266
11
1.21056
21
-5.26641
0
LINE
8
BLACK
6
CONTINUOUS
10
1.21056
20
-5.26641
11
1.21431
21
-5.27391
0
LINE
8
BLACK
6
CONTINUOUS
10
1.21431
20
-5.27391
11
1.21431
21
-5.31515
0
LINE
8
BLACK
6
CONTINUOUS
10
1.25181
20
-5.31515
11
1.25181
21
-5.26266
0
LINE
8
BLACK
6
CONTINUOUS
10
1.25181
20
-5.27016
11
1.25556
21
-5.26641
0
LINE
8
BLACK
6
CONTINUOUS
10
1.25556
20
-5.26641
11
1.26305
21
-5.26266
0
LINE
8
BLACK
6
CONTINUOUS
10
1.26305
20
-5.26266
11
1.2743
21
-5.26266
0
LINE
8
BLACK
6
CONTINUOUS
10
1.2743
20
-5.26266
11
1.2818
21
-5.26641
0
LINE
8
BLACK
6
CONTINUOUS
10
1.2818
20
-5.26641
11
1.28555
21
-5.27391
0
LINE
8
BLACK
6
CONTINUOUS
10
1.28555
20
-5.27391
11
1.28555
21
-5.31515
0
LINE
8
BLACK
6
CONTINUOUS
10
1.28555
20
-5.27391
11
1.2893
21
-5.26641
0
LINE
8
BLACK
6
CONTINUOUS
10
1.2893
20
-5.26641
11
1.2968
21
-5.26266
0
LINE
8
BLACK
6
CONTINUOUS
10
1.2968
20
-5.26266
11
1.30805
21
-5.26266
0
LINE
8
BLACK
6
CONTINUOUS
10
1.30805
20
-5.26266
11
1.31555
21
-5.26641
0
LINE
8
BLACK
6
CONTINUOUS
10
1.31555
20
-5.26641
11
1.3193
21
-5.27391
0
LINE
8
BLACK
6
CONTINUOUS
10
1.3193
20
-5.27391
11
1.3193
21
-5.31515
0
LINE
8
BLACK
6
CONTINUOUS
10
1.47303
20
-5.23266
11
1.40554
21
-5.3339
0
LINE
8
BLACK
6
CONTINUOUS
10
1.57427
20
-5.23641
11
1.58176
21
-5.23641
0
LINE
8
BLACK
6
CONTINUOUS
10
1.58176
20
-5.23641
11
1.58926
21
-5.24016
0
LINE
8
BLACK
6
CONTINUOUS
10
1.58926
20
-5.24016
11
1.59301
21
-5.24391
0
LINE
8
BLACK
6
CONTINUOUS
10
1.59301
20
-5.24391
11
1.59676
21
-5.25141
0
LINE
8
BLACK
6
CONTINUOUS
10
1.59676
20
-5.25141
11
1.60051
21
-5.26641
0
LINE
8
BLACK
6
CONTINUOUS
10
1.60051
20
-5.26641
11
1.60051
21
-5.28515
0
LINE
8
BLACK
6
CONTINUOUS
10
1.60051
20
-5.28515
11
1.59676
21
-5.30015
0
LINE
8
BLACK
6
CONTINUOUS
10
1.59676
20
-5.30015
11
1.59301
21
-5.30765
0
LINE
8
BLACK
6
CONTINUOUS
10
1.59301
20
-5.30765
11
1.58926
21
-5.3114
0
LINE
8
BLACK
6
CONTINUOUS
10
1.58926
20
-5.3114
11
1.58176
21
-5.31515
0
LINE
8
BLACK
6
CONTINUOUS
10
1.58176
20
-5.31515
11
1.57427
21
-5.31515
0
LINE
8
BLACK
6
CONTINUOUS
10
1.57427
20
-5.31515
11
1.56677
21
-5.3114
0
LINE
8
BLACK
6
CONTINUOUS
10
1.56677
20
-5.3114
11
1.56302
21
-5.30765
0
LINE
8
BLACK
6
CONTINUOUS
10
1.56302
20
-5.30765
11
1.55927
21
-5.30015
0
LINE
8
BLACK
6
CONTINUOUS
10
1.55927
20
-5.30015
11
1.55552
21
-5.28515
0
LINE
8
BLACK
6
CONTINUOUS
10
1.55552
20
-5.28515
11
1.55552
21
-5.26641
0
LINE
8
BLACK
6
CONTINUOUS
10
1.55552
20
-5.26641
11
1.55927
21
-5.25141
0
LINE
8
BLACK
6
CONTINUOUS
10
1.55927
20
-5.25141
11
1.56302
21
-5.24391
0
LINE
8
BLACK
6
CONTINUOUS
10
1.56302
20
-5.24391
11
1.56677
21
-5.24016
0
LINE
8
BLACK
6
CONTINUOUS
10
1.56677
20
-5.24016
11
1.57427
21
-5.23641
0
LINE
8
BLACK
6
CONTINUOUS
10
1.63426
20
-5.30765
11
1.63801
21
-5.3114
0
LINE
8
BLACK
6
CONTINUOUS
10
1.63801
20
-5.3114
11
1.63426
21
-5.31515
0
LINE
8
BLACK
6
CONTINUOUS
10
1.63426
20
-5.31515
11
1.63051
21
-5.3114
0
LINE
8
BLACK
6
CONTINUOUS
10
1.63051
20
-5.3114
11
1.63426
21
-5.30765
0
LINE
8
BLACK
6
CONTINUOUS
10
1.63426
20
-5.30765
11
1.63426
21
-5.31515
0
LINE
8
BLACK
6
CONTINUOUS
10
1.68675
20
-5.23641
11
1.69425
21
-5.23641
0
LINE
8
BLACK
6
CONTINUOUS
10
1.69425
20
-5.23641
11
1.70175
21
-5.24016
0
LINE
8
BLACK
6
CONTINUOUS
10
1.70175
20
-5.24016
11
1.7055
21
-5.24391
0
LINE
8
BLACK
6
CONTINUOUS
10
1.7055
20
-5.24391
11
1.70925
21
-5.25141
0
LINE
8
BLACK
6
CONTINUOUS
10
1.70925
20
-5.25141
11
1.713
21
-5.26641
0
LINE
8
BLACK
6
CONTINUOUS
10
1.713
20
-5.26641
11
1.713
21
-5.28515
0
LINE
8
BLACK
6
CONTINUOUS
10
1.713
20
-5.28515
11
1.70925
21
-5.30015
0
LINE
8
BLACK
6
CONTINUOUS
10
1.70925
20
-5.30015
11
1.7055
21
-5.30765
0
LINE
8
BLACK
6
CONTINUOUS
10
1.7055
20
-5.30765
11
1.70175
21
-5.3114
0
LINE
8
BLACK
6
CONTINUOUS
10
1.70175
20
-5.3114
11
1.69425
21
-5.31515
0
LINE
8
BLACK
6
CONTINUOUS
10
1.69425
20
-5.31515
11
1.68675
21
-5.31515
0
LINE
8
BLACK
6
CONTINUOUS
10
1.68675
20
-5.31515
11
1.67925
21
-5.3114
0
LINE
8
BLACK
6
CONTINUOUS
10
1.67925
20
-5.3114
11
1.6755
21
-5.30765
0
LINE
8
BLACK
6
CONTINUOUS
10
1.6755
20
-5.30765
11
1.67175
21
-5.30015
0
LINE
8
BLACK
6
CONTINUOUS
10
1.67175
20
-5.30015
11
1.668
21
-5.28515
0
LINE
8
BLACK
6
CONTINUOUS
10
1.668
20
-5.28515
11
1.668
21
-5.26641
0
LINE
8
BLACK
6
CONTINUOUS
10
1.668
20
-5.26641
11
1.67175
21
-5.25141
0
LINE
8
BLACK
6
CONTINUOUS
10
1.67175
20
-5.25141
11
1.6755
21
-5.24391
0
LINE
8
BLACK
6
CONTINUOUS
10
1.6755
20
-5.24391
11
1.67925
21
-5.24016
0
LINE
8
BLACK
6
CONTINUOUS
10
1.67925
20
-5.24016
11
1.68675
21
-5.23641
0
LINE
8
BLACK
6
CONTINUOUS
10
1.78049
20
-5.23641
11
1.76549
21
-5.23641
0
LINE
8
BLACK
6
CONTINUOUS
10
1.76549
20
-5.23641
11
1.75799
21
-5.24016
0
LINE
8
BLACK
6
CONTINUOUS
10
1.75799
20
-5.24016
11
1.75424
21
-5.24391
0
LINE
8
BLACK
6
CONTINUOUS
10
1.75424
20
-5.24391
11
1.74674
21
-5.25516
0
LINE
8
BLACK
6
CONTINUOUS
10
1.74674
20
-5.25516
11
1.74299
21
-5.27016
0
LINE
8
BLACK
6
CONTINUOUS
10
1.74299
20
-5.27016
11
1.74299
21
-5.30015
0
LINE
8
BLACK
6
CONTINUOUS
10
1.74299
20
-5.30015
11
1.74674
21
-5.30765
0
LINE
8
BLACK
6
CONTINUOUS
10
1.74674
20
-5.30765
11
1.75049
21
-5.3114
0
LINE
8
BLACK
6
CONTINUOUS
10
1.75049
20
-5.3114
11
1.75799
21
-5.31515
0
LINE
8
BLACK
6
CONTINUOUS
10
1.75799
20
-5.31515
11
1.77299
21
-5.31515
0
LINE
8
BLACK
6
CONTINUOUS
10
1.77299
20
-5.31515
11
1.78049
21
-5.3114
0
LINE
8
BLACK
6
CONTINUOUS
10
1.78049
20
-5.3114
11
1.78424
21
-5.30765
0
LINE
8
BLACK
6
CONTINUOUS
10
1.78424
20
-5.30765
11
1.78799
21
-5.30015
0
LINE
8
BLACK
6
CONTINUOUS
10
1.78799
20
-5.30015
11
1.78799
21
-5.28141
0
LINE
8
BLACK
6
CONTINUOUS
10
1.78799
20
-5.28141
11
1.78424
21
-5.27391
0
LINE
8
BLACK
6
CONTINUOUS
10
1.78424
20
-5.27391
11
1.78049
21
-5.27016
0
LINE
8
BLACK
6
CONTINUOUS
10
1.78049
20
-5.27016
11
1.77299
21
-5.26641
0
LINE
8
BLACK
6
CONTINUOUS
10
1.77299
20
-5.26641
11
1.75799
21
-5.26641
0
LINE
8
BLACK
6
CONTINUOUS
10
1.75799
20
-5.26641
11
1.75049
21
-5.27016
0
LINE
8
BLACK
6
CONTINUOUS
10
1.75049
20
-5.27016
11
1.74674
21
-5.27391
0
LINE
8
BLACK
6
CONTINUOUS
10
1.74674
20
-5.27391
11
1.74299
21
-5.28141
0
LINE
8
BLACK
6
CONTINUOUS
10
1.85548
20
-5.23641
11
1.84048
21
-5.23641
0
LINE
8
BLACK
6
CONTINUOUS
10
1.84048
20
-5.23641
11
1.83298
21
-5.24016
0
LINE
8
BLACK
6
CONTINUOUS
10
1.83298
20
-5.24016
11
1.82923
21
-5.24391
0
LINE
8
BLACK
6
CONTINUOUS
10
1.82923
20
-5.24391
11
1.82173
21
-5.25516
0
LINE
8
BLACK
6
CONTINUOUS
10
1.82173
20
-5.25516
11
1.81798
21
-5.27016
0
LINE
8
BLACK
6
CONTINUOUS
10
1.81798
20
-5.27016
11
1.81798
21
-5.30015
0
LINE
8
BLACK
6
CONTINUOUS
10
1.81798
20
-5.30015
11
1.82173
21
-5.30765
0
LINE
8
BLACK
6
CONTINUOUS
10
1.82173
20
-5.30765
11
1.82548
21
-5.3114
0
LINE
8
BLACK
6
CONTINUOUS
10
1.82548
20
-5.3114
11
1.83298
21
-5.31515
0
LINE
8
BLACK
6
CONTINUOUS
10
1.83298
20
-5.31515
11
1.84798
21
-5.31515
0
LINE
8
BLACK
6
CONTINUOUS
10
1.84798
20
-5.31515
11
1.85548
21
-5.3114
0
LINE
8
BLACK
6
CONTINUOUS
10
1.85548
20
-5.3114
11
1.85923
21
-5.30765
0
LINE
8
BLACK
6
CONTINUOUS
10
1.85923
20
-5.30765
11
1.86298
21
-5.30015
0
LINE
8
BLACK
6
CONTINUOUS
10
1.86298
20
-5.30015
11
1.86298
21
-5.28141
0
LINE
8
BLACK
6
CONTINUOUS
10
1.86298
20
-5.28141
11
1.85923
21
-5.27391
0
LINE
8
BLACK
6
CONTINUOUS
10
1.85923
20
-5.27391
11
1.85548
21
-5.27016
0
LINE
8
BLACK
6
CONTINUOUS
10
1.85548
20
-5.27016
11
1.84798
21
-5.26641
0
LINE
8
BLACK
6
CONTINUOUS
10
1.84798
20
-5.26641
11
1.83298
21
-5.26641
0
LINE
8
BLACK
6
CONTINUOUS
10
1.83298
20
-5.26641
11
1.82548
21
-5.27016
0
LINE
8
BLACK
6
CONTINUOUS
10
1.82548
20
-5.27016
11
1.82173
21
-5.27391
0
LINE
8
BLACK
6
CONTINUOUS
10
1.82173
20
-5.27391
11
1.81798
21
-5.28141
0
LINE
8
BLACK
6
CONTINUOUS
10
1.90047
20
-5.31515
11
1.91547
21
-5.31515
0
LINE
8
BLACK
6
CONTINUOUS
10
1.91547
20
-5.31515
11
1.92297
21
-5.3114
0
LINE
8
BLACK
6
CONTINUOUS
10
1.92297
20
-5.3114
11
1.92672
21
-5.30765
0
LINE
8
BLACK
6
CONTINUOUS
10
1.92672
20
-5.30765
11
1.93422
21
-5.2964
0
LINE
8
BLACK
6
CONTINUOUS
10
1.93422
20
-5.2964
11
1.93797
21
-5.28141
0
LINE
8
BLACK
6
CONTINUOUS
10
1.93797
20
-5.28141
11
1.93797
21
-5.25141
0
LINE
8
BLACK
6
CONTINUOUS
10
1.93797
20
-5.25141
11
1.93422
21
-5.24391
0
LINE
8
BLACK
6
CONTINUOUS
10
1.93422
20
-5.24391
11
1.93047
21
-5.24016
0
LINE
8
BLACK
6
CONTINUOUS
10
1.93047
20
-5.24016
11
1.92297
21
-5.23641
0
LINE
8
BLACK
6
CONTINUOUS
10
1.92297
20
-5.23641
11
1.90797
21
-5.23641
0
LINE
8
BLACK
6
CONTINUOUS
10
1.90797
20
-5.23641
11
1.90047
21
-5.24016
0
LINE
8
BLACK
6
CONTINUOUS
10
1.90047
20
-5.24016
11
1.89673
21
-5.24391
0
LINE
8
BLACK
6
CONTINUOUS
10
1.89673
20
-5.24391
11
1.89298
21
-5.25141
0
LINE
8
BLACK
6
CONTINUOUS
10
1.89298
20
-5.25141
11
1.89298
21
-5.27016
0
LINE
8
BLACK
6
CONTINUOUS
10
1.89298
20
-5.27016
11
1.89673
21
-5.27766
0
LINE
8
BLACK
6
CONTINUOUS
10
1.89673
20
-5.27766
11
1.90047
21
-5.28141
0
LINE
8
BLACK
6
CONTINUOUS
10
1.90047
20
-5.28141
11
1.90797
21
-5.28515
0
LINE
8
BLACK
6
CONTINUOUS
10
1.90797
20
-5.28515
11
1.92297
21
-5.28515
0
LINE
8
BLACK
6
CONTINUOUS
10
1.92297
20
-5.28515
11
1.93047
21
-5.28141
0
LINE
8
BLACK
6
CONTINUOUS
10
1.93047
20
-5.28141
11
1.93422
21
-5.27766
0
LINE
8
BLACK
6
CONTINUOUS
10
1.93422
20
-5.27766
11
1.93797
21
-5.27016
0
LINE
8
BLACK
6
CONTINUOUS
10
1.96797
20
-5.23641
11
1.96797
21
-5.25141
0
LINE
8
BLACK
6
CONTINUOUS
10
1.99796
20
-5.23641
11
1.99796
21
-5.25141
0
LINE
8
BLACK
6
CONTINUOUS
10
2.1142
20
-5.34515
11
2.11045
21
-5.3414
0
LINE
8
BLACK
6
CONTINUOUS
10
2.11045
20
-5.3414
11
2.10295
21
-5.33015
0
LINE
8
BLACK
6
CONTINUOUS
10
2.10295
20
-5.33015
11
2.0992
21
-5.32265
0
LINE
8
BLACK
6
CONTINUOUS
10
2.0992
20
-5.32265
11
2.09545
21
-5.3114
0
LINE
8
BLACK
6
CONTINUOUS
10
2.09545
20
-5.3114
11
2.0917
21
-5.29265
0
LINE
8
BLACK
6
CONTINUOUS
10
2.0917
20
-5.29265
11
2.0917
21
-5.27766
0
LINE
8
BLACK
6
CONTINUOUS
10
2.0917
20
-5.27766
11
2.09545
21
-5.25891
0
LINE
8
BLACK
6
CONTINUOUS
10
2.09545
20
-5.25891
11
2.0992
21
-5.24766
0
LINE
8
BLACK
6
CONTINUOUS
10
2.0992
20
-5.24766
11
2.10295
21
-5.24016
0
LINE
8
BLACK
6
CONTINUOUS
10
2.10295
20
-5.24016
11
2.11045
21
-5.22891
0
LINE
8
BLACK
6
CONTINUOUS
10
2.11045
20
-5.22891
11
2.1142
21
-5.22516
0
LINE
8
BLACK
6
CONTINUOUS
10
2.17794
20
-5.26266
11
2.17794
21
-5.31515
0
LINE
8
BLACK
6
CONTINUOUS
10
2.15919
20
-5.23266
11
2.14044
21
-5.2889
0
LINE
8
BLACK
6
CONTINUOUS
10
2.14044
20
-5.2889
11
2.18919
21
-5.2889
0
LINE
8
BLACK
6
CONTINUOUS
10
2.23418
20
-5.23641
11
2.24168
21
-5.23641
0
LINE
8
BLACK
6
CONTINUOUS
10
2.24168
20
-5.23641
11
2.24918
21
-5.24016
0
LINE
8
BLACK
6
CONTINUOUS
10
2.24918
20
-5.24016
11
2.25293
21
-5.24391
0
LINE
8
BLACK
6
CONTINUOUS
10
2.25293
20
-5.24391
11
2.25668
21
-5.25141
0
LINE
8
BLACK
6
CONTINUOUS
10
2.25668
20
-5.25141
11
2.26043
21
-5.26641
0
LINE
8
BLACK
6
CONTINUOUS
10
2.26043
20
-5.26641
11
2.26043
21
-5.28515
0
LINE
8
BLACK
6
CONTINUOUS
10
2.26043
20
-5.28515
11
2.25668
21
-5.30015
0
LINE
8
BLACK
6
CONTINUOUS
10
2.25668
20
-5.30015
11
2.25293
21
-5.30765
0
LINE
8
BLACK
6
CONTINUOUS
10
2.25293
20
-5.30765
11
2.24918
21
-5.3114
0
LINE
8
BLACK
6
CONTINUOUS
10
2.24918
20
-5.3114
11
2.24168
21
-5.31515
0
LINE
8
BLACK
6
CONTINUOUS
10
2.24168
20
-5.31515
11
2.23418
21
-5.31515
0
LINE
8
BLACK
6
CONTINUOUS
10
2.23418
20
-5.31515
11
2.22668
21
-5.3114
0
LINE
8
BLACK
6
CONTINUOUS
10
2.22668
20
-5.3114
11
2.22293
21
-5.30765
0
LINE
8
BLACK
6
CONTINUOUS
10
2.22293
20
-5.30765
11
2.21918
21
-5.30015
0
LINE
8
BLACK
6
CONTINUOUS
10
2.21918
20
-5.30015
11
2.21544
21
-5.28515
0
LINE
8
BLACK
6
CONTINUOUS
10
2.21544
20
-5.28515
11
2.21544
21
-5.26641
0
LINE
8
BLACK
6
CONTINUOUS
10
2.21544
20
-5.26641
11
2.21918
21
-5.25141
0
LINE
8
BLACK
6
CONTINUOUS
10
2.21918
20
-5.25141
11
2.22293
21
-5.24391
0
LINE
8
BLACK
6
CONTINUOUS
10
2.22293
20
-5.24391
11
2.22668
21
-5.24016
0
LINE
8
BLACK
6
CONTINUOUS
10
2.22668
20
-5.24016
11
2.23418
21
-5.23641
0
LINE
8
BLACK
6
CONTINUOUS
10
2.35417
20
-5.31515
11
2.35417
21
-5.23641
0
LINE
8
BLACK
6
CONTINUOUS
10
2.38791
20
-5.31515
11
2.38791
21
-5.27391
0
LINE
8
BLACK
6
CONTINUOUS
10
2.38791
20
-5.27391
11
2.38416
21
-5.26641
0
LINE
8
BLACK
6
CONTINUOUS
10
2.38416
20
-5.26641
11
2.37667
21
-5.26266
0
LINE
8
BLACK
6
CONTINUOUS
10
2.37667
20
-5.26266
11
2.36542
21
-5.26266
0
LINE
8
BLACK
6
CONTINUOUS
10
2.36542
20
-5.26266
11
2.35792
21
-5.26641
0
LINE
8
BLACK
6
CONTINUOUS
10
2.35792
20
-5.26641
11
2.35417
21
-5.27016
0
LINE
8
BLACK
6
CONTINUOUS
10
2.43666
20
-5.31515
11
2.42916
21
-5.3114
0
LINE
8
BLACK
6
CONTINUOUS
10
2.42916
20
-5.3114
11
2.42541
21
-5.30765
0
LINE
8
BLACK
6
CONTINUOUS
10
2.42541
20
-5.30765
11
2.42166
21
-5.30015
0
LINE
8
BLACK
6
CONTINUOUS
10
2.42166
20
-5.30015
11
2.42166
21
-5.27766
0
LINE
8
BLACK
6
CONTINUOUS
10
2.42166
20
-5.27766
11
2.42541
21
-5.27016
0
LINE
8
BLACK
6
CONTINUOUS
10
2.42541
20
-5.27016
11
2.42916
21
-5.26641
0
LINE
8
BLACK
6
CONTINUOUS
10
2.42916
20
-5.26641
11
2.43666
21
-5.26266
0
LINE
8
BLACK
6
CONTINUOUS
10
2.43666
20
-5.26266
11
2.44791
21
-5.26266
0
LINE
8
BLACK
6
CONTINUOUS
10
2.44791
20
-5.26266
11
2.45541
21
-5.26641
0
LINE
8
BLACK
6
CONTINUOUS
10
2.45541
20
-5.26641
11
2.45915
21
-5.27016
0
LINE
8
BLACK
6
CONTINUOUS
10
2.45915
20
-5.27016
11
2.4629
21
-5.27766
0
LINE
8
BLACK
6
CONTINUOUS
10
2.4629
20
-5.27766
11
2.4629
21
-5.30015
0
LINE
8
BLACK
6
CONTINUOUS
10
2.4629
20
-5.30015
11
2.45915
21
-5.30765
0
LINE
8
BLACK
6
CONTINUOUS
10
2.45915
20
-5.30765
11
2.45541
21
-5.3114
0
LINE
8
BLACK
6
CONTINUOUS
10
2.45541
20
-5.3114
11
2.44791
21
-5.31515
0
LINE
8
BLACK
6
CONTINUOUS
10
2.44791
20
-5.31515
11
2.43666
21
-5.31515
0
LINE
8
BLACK
6
CONTINUOUS
10
2.5079
20
-5.31515
11
2.5004
21
-5.3114
0
LINE
8
BLACK
6
CONTINUOUS
10
2.5004
20
-5.3114
11
2.49665
21
-5.3039
0
LINE
8
BLACK
6
CONTINUOUS
10
2.49665
20
-5.3039
11
2.49665
21
-5.23641
0
LINE
8
BLACK
6
CONTINUOUS
10
2.56789
20
-5.3114
11
2.56039
21
-5.31515
0
LINE
8
BLACK
6
CONTINUOUS
10
2.56039
20
-5.31515
11
2.54539
21
-5.31515
0
LINE
8
BLACK
6
CONTINUOUS
10
2.54539
20
-5.31515
11
2.5379
21
-5.3114
0
LINE
8
BLACK
6
CONTINUOUS
10
2.5379
20
-5.3114
11
2.53415
21
-5.3039
0
LINE
8
BLACK
6
CONTINUOUS
10
2.53415
20
-5.3039
11
2.53415
21
-5.27391
0
LINE
8
BLACK
6
CONTINUOUS
10
2.53415
20
-5.27391
11
2.5379
21
-5.26641
0
LINE
8
BLACK
6
CONTINUOUS
10
2.5379
20
-5.26641
11
2.54539
21
-5.26266
0
LINE
8
BLACK
6
CONTINUOUS
10
2.54539
20
-5.26266
11
2.56039
21
-5.26266
0
LINE
8
BLACK
6
CONTINUOUS
10
2.56039
20
-5.26266
11
2.56789
21
-5.26641
0
LINE
8
BLACK
6
CONTINUOUS
10
2.56789
20
-5.26641
11
2.57164
21
-5.27391
0
LINE
8
BLACK
6
CONTINUOUS
10
2.57164
20
-5.27391
11
2.57164
21
-5.28141
0
LINE
8
BLACK
6
CONTINUOUS
10
2.57164
20
-5.28141
11
2.53415
21
-5.2889
0
LINE
8
BLACK
6
CONTINUOUS
10
2.60164
20
-5.3114
11
2.60914
21
-5.31515
0
LINE
8
BLACK
6
CONTINUOUS
10
2.60914
20
-5.31515
11
2.62413
21
-5.31515
0
LINE
8
BLACK
6
CONTINUOUS
10
2.62413
20
-5.31515
11
2.63163
21
-5.3114
0
LINE
8
BLACK
6
CONTINUOUS
10
2.63163
20
-5.3114
11
2.63538
21
-5.3039
0
LINE
8
BLACK
6
CONTINUOUS
10
2.63538
20
-5.3039
11
2.63538
21
-5.30015
0
LINE
8
BLACK
6
CONTINUOUS
10
2.63538
20
-5.30015
11
2.63163
21
-5.29265
0
LINE
8
BLACK
6
CONTINUOUS
10
2.63163
20
-5.29265
11
2.62413
21
-5.2889
0
LINE
8
BLACK
6
CONTINUOUS
10
2.62413
20
-5.2889
11
2.61289
21
-5.2889
0
LINE
8
BLACK
6
CONTINUOUS
10
2.61289
20
-5.2889
11
2.60539
21
-5.28515
0
LINE
8
BLACK
6
CONTINUOUS
10
2.60539
20
-5.28515
11
2.60164
21
-5.27766
0
LINE
8
BLACK
6
CONTINUOUS
10
2.60164
20
-5.27766
11
2.60164
21
-5.27391
0
LINE
8
BLACK
6
CONTINUOUS
10
2.60164
20
-5.27391
11
2.60539
21
-5.26641
0
LINE
8
BLACK
6
CONTINUOUS
10
2.60539
20
-5.26641
11
2.61289
21
-5.26266
0
LINE
8
BLACK
6
CONTINUOUS
10
2.61289
20
-5.26266
11
2.62413
21
-5.26266
0
LINE
8
BLACK
6
CONTINUOUS
10
2.62413
20
-5.26266
11
2.63163
21
-5.26641
0
LINE
8
BLACK
6
CONTINUOUS
10
2.66163
20
-5.34515
11
2.66538
21
-5.3414
0
LINE
8
BLACK
6
CONTINUOUS
10
2.66538
20
-5.3414
11
2.67288
21
-5.33015
0
LINE
8
BLACK
6
CONTINUOUS
10
2.67288
20
-5.33015
11
2.67663
21
-5.32265
0
LINE
8
BLACK
6
CONTINUOUS
10
2.67663
20
-5.32265
11
2.68038
21
-5.3114
0
LINE
8
BLACK
6
CONTINUOUS
10
2.68038
20
-5.3114
11
2.68413
21
-5.29265
0
LINE
8
BLACK
6
CONTINUOUS
10
2.68413
20
-5.29265
11
2.68413
21
-5.27766
0
LINE
8
BLACK
6
CONTINUOUS
10
2.68413
20
-5.27766
11
2.68038
21
-5.25891
0
LINE
8
BLACK
6
CONTINUOUS
10
2.68038
20
-5.25891
11
2.67663
21
-5.24766
0
LINE
8
BLACK
6
CONTINUOUS
10
2.67663
20
-5.24766
11
2.67288
21
-5.24016
0
LINE
8
BLACK
6
CONTINUOUS
10
2.67288
20
-5.24016
11
2.66538
21
-5.22891
0
LINE
8
BLACK
6
CONTINUOUS
10
2.66538
20
-5.22891
11
2.66163
21
-5.22516
0
LINE
8
BLACK
6
CONTINUOUS
10
2.80411
20
-5.34515
11
2.80036
21
-5.3414
0
LINE
8
BLACK
6
CONTINUOUS
10
2.80036
20
-5.3414
11
2.79286
21
-5.33015
0
LINE
8
BLACK
6
CONTINUOUS
10
2.79286
20
-5.33015
11
2.78911
21
-5.32265
0
LINE
8
BLACK
6
CONTINUOUS
10
2.78911
20
-5.32265
11
2.78536
21
-5.3114
0
LINE
8
BLACK
6
CONTINUOUS
10
2.78536
20
-5.3114
11
2.78161
21
-5.29265
0
LINE
8
BLACK
6
CONTINUOUS
10
2.78161
20
-5.29265
11
2.78161
21
-5.27766
0
LINE
8
BLACK
6
CONTINUOUS
10
2.78161
20
-5.27766
11
2.78536
21
-5.25891
0
LINE
8
BLACK
6
CONTINUOUS
10
2.78536
20
-5.25891
11
2.78911
21
-5.24766
0
LINE
8
BLACK
6
CONTINUOUS
10
2.78911
20
-5.24766
11
2.79286
21
-5.24016
0
LINE
8
BLACK
6
CONTINUOUS
10
2.79286
20
-5.24016
11
2.80036
21
-5.22891
0
LINE
8
BLACK
6
CONTINUOUS
10
2.80036
20
-5.22891
11
2.80411
21
-5.22516
0
LINE
8
BLACK
6
CONTINUOUS
10
2.83411
20
-5.26266
11
2.83411
21
-5.31515
0
LINE
8
BLACK
6
CONTINUOUS
10
2.83411
20
-5.27016
11
2.83786
21
-5.26641
0
LINE
8
BLACK
6
CONTINUOUS
10
2.83786
20
-5.26641
11
2.84536
21
-5.26266
0
LINE
8
BLACK
6
CONTINUOUS
10
2.84536
20
-5.26266
11
2.85661
21
-5.26266
0
LINE
8
BLACK
6
CONTINUOUS
10
2.85661
20
-5.26266
11
2.8641
21
-5.26641
0
LINE
8
BLACK
6
CONTINUOUS
10
2.8641
20
-5.26641
11
2.86785
21
-5.27391
0
LINE
8
BLACK
6
CONTINUOUS
10
2.86785
20
-5.27391
11
2.86785
21
-5.31515
0
LINE
8
BLACK
6
CONTINUOUS
10
2.9166
20
-5.31515
11
2.9091
21
-5.3114
0
LINE
8
BLACK
6
CONTINUOUS
10
2.9091
20
-5.3114
11
2.90535
21
-5.30765
0
LINE
8
BLACK
6
CONTINUOUS
10
2.90535
20
-5.30765
11
2.9016
21
-5.30015
0
LINE
8
BLACK
6
CONTINUOUS
10
2.9016
20
-5.30015
11
2.9016
21
-5.27766
0
LINE
8
BLACK
6
CONTINUOUS
10
2.9016
20
-5.27766
11
2.90535
21
-5.27016
0
LINE
8
BLACK
6
CONTINUOUS
10
2.90535
20
-5.27016
11
2.9091
21
-5.26641
0
LINE
8
BLACK
6
CONTINUOUS
10
2.9091
20
-5.26641
11
2.9166
21
-5.26266
0
LINE
8
BLACK
6
CONTINUOUS
10
2.9166
20
-5.26266
11
2.92785
21
-5.26266
0
LINE
8
BLACK
6
CONTINUOUS
10
2.92785
20
-5.26266
11
2.93535
21
-5.26641
0
LINE
8
BLACK
6
CONTINUOUS
10
2.93535
20
-5.26641
11
2.93909
21
-5.27016
0
LINE
8
BLACK
6
CONTINUOUS
10
2.93909
20
-5.27016
11
2.94284
21
-5.27766
0
LINE
8
BLACK
6
CONTINUOUS
10
2.94284
20
-5.27766
11
2.94284
21
-5.30015
0
LINE
8
BLACK
6
CONTINUOUS
10
2.94284
20
-5.30015
11
2.93909
21
-5.30765
0
LINE
8
BLACK
6
CONTINUOUS
10
2.93909
20
-5.30765
11
2.93535
21
-5.3114
0
LINE
8
BLACK
6
CONTINUOUS
10
2.93535
20
-5.3114
11
2.92785
21
-5.31515
0
LINE
8
BLACK
6
CONTINUOUS
10
2.92785
20
-5.31515
11
2.9166
21
-5.31515
0
LINE
8
BLACK
6
CONTINUOUS
10
2.96534
20
-5.26266
11
2.99534
21
-5.26266
0
LINE
8
BLACK
6
CONTINUOUS
10
2.97659
20
-5.23641
11
2.97659
21
-5.3039
0
LINE
8
BLACK
6
CONTINUOUS
10
2.97659
20
-5.3039
11
2.98034
21
-5.3114
0
LINE
8
BLACK
6
CONTINUOUS
10
2.98034
20
-5.3114
11
2.98784
21
-5.31515
0
LINE
8
BLACK
6
CONTINUOUS
10
2.98784
20
-5.31515
11
2.99534
21
-5.31515
0
LINE
8
BLACK
6
CONTINUOUS
10
3.08158
20
-5.26266
11
3.08158
21
-5.3414
0
LINE
8
BLACK
6
CONTINUOUS
10
3.08158
20
-5.26641
11
3.08908
21
-5.26266
0
LINE
8
BLACK
6
CONTINUOUS
10
3.08908
20
-5.26266
11
3.10407
21
-5.26266
0
LINE
8
BLACK
6
CONTINUOUS
10
3.10407
20
-5.26266
11
3.11157
21
-5.26641
0
LINE
8
BLACK
6
CONTINUOUS
10
3.11157
20
-5.26641
11
3.11532
21
-5.27016
0
LINE
8
BLACK
6
CONTINUOUS
10
3.11532
20
-5.27016
11
3.11907
21
-5.27766
0
LINE
8
BLACK
6
CONTINUOUS
10
3.11907
20
-5.27766
11
3.11907
21
-5.30015
0
LINE
8
BLACK
6
CONTINUOUS
10
3.11907
20
-5.30015
11
3.11532
21
-5.30765
0
LINE
8
BLACK
6
CONTINUOUS
10
3.11532
20
-5.30765
11
3.11157
21
-5.3114
0
LINE
8
BLACK
6
CONTINUOUS
10
3.11157
20
-5.3114
11
3.10407
21
-5.31515
0
LINE
8
BLACK
6
CONTINUOUS
10
3.10407
20
-5.31515
11
3.08908
21
-5.31515
0
LINE
8
BLACK
6
CONTINUOUS
10
3.08908
20
-5.31515
11
3.08158
21
-5.3114
0
LINE
8
BLACK
6
CONTINUOUS
10
3.16407
20
-5.31515
11
3.15657
21
-5.3114
0
LINE
8
BLACK
6
CONTINUOUS
10
3.15657
20
-5.3114
11
3.15282
21
-5.3039
0
LINE
8
BLACK
6
CONTINUOUS
10
3.15282
20
-5.3039
11
3.15282
21
-5.23641
0
LINE
8
BLACK
6
CONTINUOUS
10
3.22781
20
-5.31515
11
3.22781
21
-5.27391
0
LINE
8
BLACK
6
CONTINUOUS
10
3.22781
20
-5.27391
11
3.22406
21
-5.26641
0
LINE
8
BLACK
6
CONTINUOUS
10
3.22406
20
-5.26641
11
3.21656
21
-5.26266
0
LINE
8
BLACK
6
CONTINUOUS
10
3.21656
20
-5.26266
11
3.20156
21
-5.26266
0
LINE
8
BLACK
6
CONTINUOUS
10
3.20156
20
-5.26266
11
3.19406
21
-5.26641
0
LINE
8
BLACK
6
CONTINUOUS
10
3.22781
20
-5.3114
11
3.22031
21
-5.31515
0
LINE
8
BLACK
6
CONTINUOUS
10
3.22031
20
-5.31515
11
3.20156
21
-5.31515
0
LINE
8
BLACK
6
CONTINUOUS
10
3.20156
20
-5.31515
11
3.19406
21
-5.3114
0
LINE
8
BLACK
6
CONTINUOUS
10
3.19406
20
-5.3114
11
3.19031
21
-5.3039
0
LINE
8
BLACK
6
CONTINUOUS
10
3.19031
20
-5.3039
11
3.19031
21
-5.2964
0
LINE
8
BLACK
6
CONTINUOUS
10
3.19031
20
-5.2964
11
3.19406
21
-5.2889
0
LINE
8
BLACK
6
CONTINUOUS
10
3.19406
20
-5.2889
11
3.20156
21
-5.28515
0
LINE
8
BLACK
6
CONTINUOUS
10
3.20156
20
-5.28515
11
3.22031
21
-5.28515
0
LINE
8
BLACK
6
CONTINUOUS
10
3.22031
20
-5.28515
11
3.22781
21
-5.28141
0
LINE
8
BLACK
6
CONTINUOUS
10
3.25406
20
-5.26266
11
3.28405
21
-5.26266
0
LINE
8
BLACK
6
CONTINUOUS
10
3.2653
20
-5.23641
11
3.2653
21
-5.3039
0
LINE
8
BLACK
6
CONTINUOUS
10
3.2653
20
-5.3039
11
3.26905
21
-5.3114
0
LINE
8
BLACK
6
CONTINUOUS
10
3.26905
20
-5.3114
11
3.27655
21
-5.31515
0
LINE
8
BLACK
6
CONTINUOUS
10
3.27655
20
-5.31515
11
3.28405
21
-5.31515
0
LINE
8
BLACK
6
CONTINUOUS
10
3.34029
20
-5.3114
11
3.3328
21
-5.31515
0
LINE
8
BLACK
6
CONTINUOUS
10
3.3328
20
-5.31515
11
3.3178
21
-5.31515
0
LINE
8
BLACK
6
CONTINUOUS
10
3.3178
20
-5.31515
11
3.3103
21
-5.3114
0
LINE
8
BLACK
6
CONTINUOUS
10
3.3103
20
-5.3114
11
3.30655
21
-5.3039
0
LINE
8
BLACK
6
CONTINUOUS
10
3.30655
20
-5.3039
11
3.30655
21
-5.27391
0
LINE
8
BLACK
6
CONTINUOUS
10
3.30655
20
-5.27391
11
3.3103
21
-5.26641
0
LINE
8
BLACK
6
CONTINUOUS
10
3.3103
20
-5.26641
11
3.3178
21
-5.26266
0
LINE
8
BLACK
6
CONTINUOUS
10
3.3178
20
-5.26266
11
3.3328
21
-5.26266
0
LINE
8
BLACK
6
CONTINUOUS
10
3.3328
20
-5.26266
11
3.34029
21
-5.26641
0
LINE
8
BLACK
6
CONTINUOUS
10
3.34029
20
-5.26641
11
3.34404
21
-5.27391
0
LINE
8
BLACK
6
CONTINUOUS
10
3.34404
20
-5.27391
11
3.34404
21
-5.28141
0
LINE
8
BLACK
6
CONTINUOUS
10
3.34404
20
-5.28141
11
3.30655
21
-5.2889
0
LINE
8
BLACK
6
CONTINUOUS
10
3.41154
20
-5.31515
11
3.41154
21
-5.23641
0
LINE
8
BLACK
6
CONTINUOUS
10
3.41154
20
-5.3114
11
3.40404
21
-5.31515
0
LINE
8
BLACK
6
CONTINUOUS
10
3.40404
20
-5.31515
11
3.38904
21
-5.31515
0
LINE
8
BLACK
6
CONTINUOUS
10
3.38904
20
-5.31515
11
3.38154
21
-5.3114
0
LINE
8
BLACK
6
CONTINUOUS
10
3.38154
20
-5.3114
11
3.37779
21
-5.30765
0
LINE
8
BLACK
6
CONTINUOUS
10
3.37779
20
-5.30765
11
3.37404
21
-5.30015
0
LINE
8
BLACK
6
CONTINUOUS
10
3.37404
20
-5.30015
11
3.37404
21
-5.27766
0
LINE
8
BLACK
6
CONTINUOUS
10
3.37404
20
-5.27766
11
3.37779
21
-5.27016
0
LINE
8
BLACK
6
CONTINUOUS
10
3.37779
20
-5.27016
11
3.38154
21
-5.26641
0
LINE
8
BLACK
6
CONTINUOUS
10
3.38154
20
-5.26641
11
3.38904
21
-5.26266
0
LINE
8
BLACK
6
CONTINUOUS
10
3.38904
20
-5.26266
11
3.40404
21
-5.26266
0
LINE
8
BLACK
6
CONTINUOUS
10
3.40404
20
-5.26266
11
3.41154
21
-5.26641
0
LINE
8
BLACK
6
CONTINUOUS
10
3.44153
20
-5.34515
11
3.44528
21
-5.3414
0
LINE
8
BLACK
6
CONTINUOUS
10
3.44528
20
-5.3414
11
3.45278
21
-5.33015
0
LINE
8
BLACK
6
CONTINUOUS
10
3.45278
20
-5.33015
11
3.45653
21
-5.32265
0
LINE
8
BLACK
6
CONTINUOUS
10
3.45653
20
-5.32265
11
3.46028
21
-5.3114
0
LINE
8
BLACK
6
CONTINUOUS
10
3.46028
20
-5.3114
11
3.46403
21
-5.29265
0
LINE
8
BLACK
6
CONTINUOUS
10
3.46403
20
-5.29265
11
3.46403
21
-5.27766
0
LINE
8
BLACK
6
CONTINUOUS
10
3.46403
20
-5.27766
11
3.46028
21
-5.25891
0
LINE
8
BLACK
6
CONTINUOUS
10
3.46028
20
-5.25891
11
3.45653
21
-5.24766
0
LINE
8
BLACK
6
CONTINUOUS
10
3.45653
20
-5.24766
11
3.45278
21
-5.24016
0
LINE
8
BLACK
6
CONTINUOUS
10
3.45278
20
-5.24016
11
3.44528
21
-5.22891
0
LINE
8
BLACK
6
CONTINUOUS
10
3.44528
20
-5.22891
11
3.44153
21
-5.22516
0
LINE
8
BLACK
6
CONTINUOUS
10
0.667323
20
-5.35394
11
0.667323
21
-5.43268
0
LINE
8
BLACK
6
CONTINUOUS
10
0.627953
20
-5.39331
11
0.706693
21
-5.39331
0
LINE
8
BLACK
6
CONTINUOUS
10
0.801862
20
-5.35058
11
0.850606
21
-5.35058
0
LINE
8
BLACK
6
CONTINUOUS
10
0.850606
20
-5.35058
11
0.824359
21
-5.38058
0
LINE
8
BLACK
6
CONTINUOUS
10
0.824359
20
-5.38058
11
0.835608
21
-5.38058
0
LINE
8
BLACK
6
CONTINUOUS
10
0.835608
20
-5.38058
11
0.843107
21
-5.38433
0
LINE
8
BLACK
6
CONTINUOUS
10
0.843107
20
-5.38433
11
0.846856
21
-5.38808
0
LINE
8
BLACK
6
CONTINUOUS
10
0.846856
20
-5.38808
11
0.850606
21
-5.39558
0
LINE
8
BLACK
6
CONTINUOUS
10
0.850606
20
-5.39558
11
0.850606
21
-5.41433
0
LINE
8
BLACK
6
CONTINUOUS
10
0.850606
20
-5.41433
11
0.846856
21
-5.42183
0
LINE
8
BLACK
6
CONTINUOUS
10
0.846856
20
-5.42183
11
0.843107
21
-5.42557
0
LINE
8
BLACK
6
CONTINUOUS
10
0.843107
20
-5.42557
11
0.835608
21
-5.42932
0
LINE
8
BLACK
6
CONTINUOUS
10
0.835608
20
-5.42932
11
0.81311
21
-5.42932
0
LINE
8
BLACK
6
CONTINUOUS
10
0.81311
20
-5.42932
11
0.805611
21
-5.42557
0
LINE
8
BLACK
6
CONTINUOUS
10
0.805611
20
-5.42557
11
0.801862
21
-5.42183
0
LINE
8
BLACK
6
CONTINUOUS
10
0.884352
20
-5.42183
11
0.888101
21
-5.42557
0
LINE
8
BLACK
6
CONTINUOUS
10
0.888101
20
-5.42557
11
0.884352
21
-5.42932
0
LINE
8
BLACK
6
CONTINUOUS
10
0.884352
20
-5.42932
11
0.880602
21
-5.42557
0
LINE
8
BLACK
6
CONTINUOUS
10
0.880602
20
-5.42557
11
0.884352
21
-5.42183
0
LINE
8
BLACK
6
CONTINUOUS
10
0.884352
20
-5.42183
11
0.884352
21
-5.42932
0
LINE
8
BLACK
6
CONTINUOUS
10
0.936845
20
-5.35058
11
0.944344
21
-5.35058
0
LINE
8
BLACK
6
CONTINUOUS
10
0.944344
20
-5.35058
11
0.951843
21
-5.35433
0
LINE
8
BLACK
6
CONTINUOUS
10
0.951843
20
-5.35433
11
0.955593
21
-5.35808
0
LINE
8
BLACK
6
CONTINUOUS
10
0.955593
20
-5.35808
11
0.959342
21
-5.36558
0
LINE
8
BLACK
6
CONTINUOUS
10
0.959342
20
-5.36558
11
0.963092
21
-5.38058
0
LINE
8
BLACK
6
CONTINUOUS
10
0.963092
20
-5.38058
11
0.963092
21
-5.39933
0
LINE
8
BLACK
6
CONTINUOUS
10
0.963092
20
-5.39933
11
0.959342
21
-5.41433
0
LINE
8
BLACK
6
CONTINUOUS
10
0.959342
20
-5.41433
11
0.955593
21
-5.42183
0
LINE
8
BLACK
6
CONTINUOUS
10
0.955593
20
-5.42183
11
0.951843
21
-5.42557
0
LINE
8
BLACK
6
CONTINUOUS
10
0.951843
20
-5.42557
11
0.944344
21
-5.42932
0
LINE
8
BLACK
6
CONTINUOUS
10
0.944344
20
-5.42932
11
0.936845
21
-5.42932
0
LINE
8
BLACK
6
CONTINUOUS
10
0.936845
20
-5.42932
11
0.929346
21
-5.42557
0
LINE
8
BLACK
6
CONTINUOUS
10
0.929346
20
-5.42557
11
0.925596
21
-5.42183
0
LINE
8
BLACK
6
CONTINUOUS
10
0.925596
20
-5.42183
11
0.921847
21
-5.41433
0
LINE
8
BLACK
6
CONTINUOUS
10
0.921847
20
-5.41433
11
0.918097
21
-5.39933
0
LINE
8
BLACK
6
CONTINUOUS
10
0.918097
20
-5.39933
11
0.918097
21
-5.38058
0
LINE
8
BLACK
6
CONTINUOUS
10
0.918097
20
-5.38058
11
0.921847
21
-5.36558
0
LINE
8
BLACK
6
CONTINUOUS
10
0.921847
20
-5.36558
11
0.925596
21
-5.35808
0
LINE
8
BLACK
6
CONTINUOUS
10
0.925596
20
-5.35808
11
0.929346
21
-5.35433
0
LINE
8
BLACK
6
CONTINUOUS
10
0.929346
20
-5.35433
11
0.936845
21
-5.35058
0
LINE
8
BLACK
6
CONTINUOUS
10
1.03433
20
-5.35058
11
0.996838
21
-5.35058
0
LINE
8
BLACK
6
CONTINUOUS
10
0.996838
20
-5.35058
11
0.993088
21
-5.38808
0
LINE
8
BLACK
6
CONTINUOUS
10
0.993088
20
-5.38808
11
0.996838
21
-5.38433
0
LINE
8
BLACK
6
CONTINUOUS
10
0.996838
20
-5.38433
11
1.00434
21
-5.38058
0
LINE
8
BLACK
6
CONTINUOUS
10
1.00434
20
-5.38058
11
1.02308
21
-5.38058
0
LINE
8
BLACK
6
CONTINUOUS
10
1.02308
20
-5.38058
11
1.03058
21
-5.38433
0
LINE
8
BLACK
6
CONTINUOUS
10
1.03058
20
-5.38433
11
1.03433
21
-5.38808
0
LINE
8
BLACK
6
CONTINUOUS
10
1.03433
20
-5.38808
11
1.03808
21
-5.39558
0
LINE
8
BLACK
6
CONTINUOUS
10
1.03808
20
-5.39558
11
1.03808
21
-5.41433
0
LINE
8
BLACK
6
CONTINUOUS
10
1.03808
20
-5.41433
11
1.03433
21
-5.42183
0
LINE
8
BLACK
6
CONTINUOUS
10
1.03433
20
-5.42183
11
1.03058
21
-5.42557
0
LINE
8
BLACK
6
CONTINUOUS
10
1.03058
20
-5.42557
11
1.02308
21
-5.42932
0
LINE
8
BLACK
6
CONTINUOUS
10
1.02308
20
-5.42932
11
1.00434
21
-5.42932
0
LINE
8
BLACK
6
CONTINUOUS
10
1.00434
20
-5.42932
11
0.996838
21
-5.42557
0
LINE
8
BLACK
6
CONTINUOUS
10
0.996838
20
-5.42557
11
0.993088
21
-5.42183
0
LINE
8
BLACK
6
CONTINUOUS
10
1.08683
20
-5.35058
11
1.09433
21
-5.35058
0
LINE
8
BLACK
6
CONTINUOUS
10
1.09433
20
-5.35058
11
1.10182
21
-5.35433
0
LINE
8
BLACK
6
CONTINUOUS
10
1.10182
20
-5.35433
11
1.10557
21
-5.35808
0
LINE
8
BLACK
6
CONTINUOUS
10
1.10557
20
-5.35808
11
1.10932
21
-5.36558
0
LINE
8
BLACK
6
CONTINUOUS
10
1.10932
20
-5.36558
11
1.11307
21
-5.38058
0
LINE
8
BLACK
6
CONTINUOUS
10
1.11307
20
-5.38058
11
1.11307
21
-5.39933
0
LINE
8
BLACK
6
CONTINUOUS
10
1.11307
20
-5.39933
11
1.10932
21
-5.41433
0
LINE
8
BLACK
6
CONTINUOUS
10
1.10932
20
-5.41433
11
1.10557
21
-5.42183
0
LINE
8
BLACK
6
CONTINUOUS
10
1.10557
20
-5.42183
11
1.10182
21
-5.42557
0
LINE
8
BLACK
6
CONTINUOUS
10
1.10182
20
-5.42557
11
1.09433
21
-5.42932
0
LINE
8
BLACK
6
CONTINUOUS
10
1.09433
20
-5.42932
11
1.08683
21
-5.42932
0
LINE
8
BLACK
6
CONTINUOUS
10
1.08683
20
-5.42932
11
1.07933
21
-5.42557
0
LINE
8
BLACK
6
CONTINUOUS
10
1.07933
20
-5.42557
11
1.07558
21
-5.42183
0
LINE
8
BLACK
6
CONTINUOUS
10
1.07558
20
-5.42183
11
1.07183
21
-5.41433
0
LINE
8
BLACK
6
CONTINUOUS
10
1.07183
20
-5.41433
11
1.06808
21
-5.39933
0
LINE
8
BLACK
6
CONTINUOUS
10
1.06808
20
-5.39933
11
1.06808
21
-5.38058
0
LINE
8
BLACK
6
CONTINUOUS
10
1.06808
20
-5.38058
11
1.07183
21
-5.36558
0
LINE
8
BLACK
6
CONTINUOUS
10
1.07183
20
-5.36558
11
1.07558
21
-5.35808
0
LINE
8
BLACK
6
CONTINUOUS
10
1.07558
20
-5.35808
11
1.07933
21
-5.35433
0
LINE
8
BLACK
6
CONTINUOUS
10
1.07933
20
-5.35433
11
1.08683
21
-5.35058
0
LINE
8
BLACK
6
CONTINUOUS
10
1.14682
20
-5.42932
11
1.14682
21
-5.37683
0
LINE
8
BLACK
6
CONTINUOUS
10
1.14682
20
-5.38433
11
1.15057
21
-5.38058
0
LINE
8
BLACK
6
CONTINUOUS
10
1.15057
20
-5.38058
11
1.15807
21
-5.37683
0
LINE
8
BLACK
6
CONTINUOUS
10
1.15807
20
-5.37683
11
1.16932
21
-5.37683
0
LINE
8
BLACK
6
CONTINUOUS
10
1.16932
20
-5.37683
11
1.17682
21
-5.38058
0
LINE
8
BLACK
6
CONTINUOUS
10
1.17682
20
-5.38058
11
1.18056
21
-5.38808
0
LINE
8
BLACK
6
CONTINUOUS
10
1.18056
20
-5.38808
11
1.18056
21
-5.42932
0
LINE
8
BLACK
6
CONTINUOUS
10
1.18056
20
-5.38808
11
1.18431
21
-5.38058
0
LINE
8
BLACK
6
CONTINUOUS
10
1.18431
20
-5.38058
11
1.19181
21
-5.37683
0
LINE
8
BLACK
6
CONTINUOUS
10
1.19181
20
-5.37683
11
1.20306
21
-5.37683
0
LINE
8
BLACK
6
CONTINUOUS
10
1.20306
20
-5.37683
11
1.21056
21
-5.38058
0
LINE
8
BLACK
6
CONTINUOUS
10
1.21056
20
-5.38058
11
1.21431
21
-5.38808
0
LINE
8
BLACK
6
CONTINUOUS
10
1.21431
20
-5.38808
11
1.21431
21
-5.42932
0
LINE
8
BLACK
6
CONTINUOUS
10
1.25181
20
-5.42932
11
1.25181
21
-5.37683
0
LINE
8
BLACK
6
CONTINUOUS
10
1.25181
20
-5.38433
11
1.25556
21
-5.38058
0
LINE
8
BLACK
6
CONTINUOUS
10
1.25556
20
-5.38058
11
1.26305
21
-5.37683
0
LINE
8
BLACK
6
CONTINUOUS
10
1.26305
20
-5.37683
11
1.2743
21
-5.37683
0
LINE
8
BLACK
6
CONTINUOUS
10
1.2743
20
-5.37683
11
1.2818
21
-5.38058
0
LINE
8
BLACK
6
CONTINUOUS
10
1.2818
20
-5.38058
11
1.28555
21
-5.38808
0
LINE
8
BLACK
6
CONTINUOUS
10
1.28555
20
-5.38808
11
1.28555
21
-5.42932
0
LINE
8
BLACK
6
CONTINUOUS
10
1.28555
20
-5.38808
11
1.2893
21
-5.38058
0
LINE
8
BLACK
6
CONTINUOUS
10
1.2893
20
-5.38058
11
1.2968
21
-5.37683
0
LINE
8
BLACK
6
CONTINUOUS
10
1.2968
20
-5.37683
11
1.30805
21
-5.37683
0
LINE
8
BLACK
6
CONTINUOUS
10
1.30805
20
-5.37683
11
1.31555
21
-5.38058
0
LINE
8
BLACK
6
CONTINUOUS
10
1.31555
20
-5.38058
11
1.3193
21
-5.38808
0
LINE
8
BLACK
6
CONTINUOUS
10
1.3193
20
-5.38808
11
1.3193
21
-5.42932
0
LINE
8
BLACK
6
CONTINUOUS
10
1.47303
20
-5.34683
11
1.40554
21
-5.44807
0
LINE
8
BLACK
6
CONTINUOUS
10
1.57427
20
-5.35058
11
1.58176
21
-5.35058
0
LINE
8
BLACK
6
CONTINUOUS
10
1.58176
20
-5.35058
11
1.58926
21
-5.35433
0
LINE
8
BLACK
6
CONTINUOUS
10
1.58926
20
-5.35433
11
1.59301
21
-5.35808
0
LINE
8
BLACK
6
CONTINUOUS
10
1.59301
20
-5.35808
11
1.59676
21
-5.36558
0
LINE
8
BLACK
6
CONTINUOUS
10
1.59676
20
-5.36558
11
1.60051
21
-5.38058
0
LINE
8
BLACK
6
CONTINUOUS
10
1.60051
20
-5.38058
11
1.60051
21
-5.39933
0
LINE
8
BLACK
6
CONTINUOUS
10
1.60051
20
-5.39933
11
1.59676
21
-5.41433
0
LINE
8
BLACK
6
CONTINUOUS
10
1.59676
20
-5.41433
11
1.59301
21
-5.42183
0
LINE
8
BLACK
6
CONTINUOUS
10
1.59301
20
-5.42183
11
1.58926
21
-5.42557
0
LINE
8
BLACK
6
CONTINUOUS
10
1.58926
20
-5.42557
11
1.58176
21
-5.42932
0
LINE
8
BLACK
6
CONTINUOUS
10
1.58176
20
-5.42932
11
1.57427
21
-5.42932
0
LINE
8
BLACK
6
CONTINUOUS
10
1.57427
20
-5.42932
11
1.56677
21
-5.42557
0
LINE
8
BLACK
6
CONTINUOUS
10
1.56677
20
-5.42557
11
1.56302
21
-5.42183
0
LINE
8
BLACK
6
CONTINUOUS
10
1.56302
20
-5.42183
11
1.55927
21
-5.41433
0
LINE
8
BLACK
6
CONTINUOUS
10
1.55927
20
-5.41433
11
1.55552
21
-5.39933
0
LINE
8
BLACK
6
CONTINUOUS
10
1.55552
20
-5.39933
11
1.55552
21
-5.38058
0
LINE
8
BLACK
6
CONTINUOUS
10
1.55552
20
-5.38058
11
1.55927
21
-5.36558
0
LINE
8
BLACK
6
CONTINUOUS
10
1.55927
20
-5.36558
11
1.56302
21
-5.35808
0
LINE
8
BLACK
6
CONTINUOUS
10
1.56302
20
-5.35808
11
1.56677
21
-5.35433
0
LINE
8
BLACK
6
CONTINUOUS
10
1.56677
20
-5.35433
11
1.57427
21
-5.35058
0
LINE
8
BLACK
6
CONTINUOUS
10
1.63426
20
-5.42183
11
1.63801
21
-5.42557
0
LINE
8
BLACK
6
CONTINUOUS
10
1.63801
20
-5.42557
11
1.63426
21
-5.42932
0
LINE
8
BLACK
6
CONTINUOUS
10
1.63426
20
-5.42932
11
1.63051
21
-5.42557
0
LINE
8
BLACK
6
CONTINUOUS
10
1.63051
20
-5.42557
11
1.63426
21
-5.42183
0
LINE
8
BLACK
6
CONTINUOUS
10
1.63426
20
-5.42183
11
1.63426
21
-5.42932
0
LINE
8
BLACK
6
CONTINUOUS
10
1.713
20
-5.42932
11
1.668
21
-5.42932
0
LINE
8
BLACK
6
CONTINUOUS
10
1.6905
20
-5.42932
11
1.6905
21
-5.35058
0
LINE
8
BLACK
6
CONTINUOUS
10
1.6905
20
-5.35058
11
1.683
21
-5.36183
0
LINE
8
BLACK
6
CONTINUOUS
10
1.683
20
-5.36183
11
1.6755
21
-5.36933
0
LINE
8
BLACK
6
CONTINUOUS
10
1.6755
20
-5.36933
11
1.668
21
-5.37308
0
LINE
8
BLACK
6
CONTINUOUS
10
1.74299
20
-5.35808
11
1.74674
21
-5.35433
0
LINE
8
BLACK
6
CONTINUOUS
10
1.74674
20
-5.35433
11
1.75424
21
-5.35058
0
LINE
8
BLACK
6
CONTINUOUS
10
1.75424
20
-5.35058
11
1.77299
21
-5.35058
0
LINE
8
BLACK
6
CONTINUOUS
10
1.77299
20
-5.35058
11
1.78049
21
-5.35433
0
LINE
8
BLACK
6
CONTINUOUS
10
1.78049
20
-5.35433
11
1.78424
21
-5.35808
0
LINE
8
BLACK
6
CONTINUOUS
10
1.78424
20
-5.35808
11
1.78799
21
-5.36558
0
LINE
8
BLACK
6
CONTINUOUS
10
1.78799
20
-5.36558
11
1.78799
21
-5.37308
0
LINE
8
BLACK
6
CONTINUOUS
10
1.78799
20
-5.37308
11
1.78424
21
-5.38433
0
LINE
8
BLACK
6
CONTINUOUS
10
1.78424
20
-5.38433
11
1.73924
21
-5.42932
0
LINE
8
BLACK
6
CONTINUOUS
10
1.73924
20
-5.42932
11
1.78799
21
-5.42932
0
LINE
8
BLACK
6
CONTINUOUS
10
1.83673
20
-5.35058
11
1.84423
21
-5.35058
0
LINE
8
BLACK
6
CONTINUOUS
10
1.84423
20
-5.35058
11
1.85173
21
-5.35433
0
LINE
8
BLACK
6
CONTINUOUS
10
1.85173
20
-5.35433
11
1.85548
21
-5.35808
0
LINE
8
BLACK
6
CONTINUOUS
10
1.85548
20
-5.35808
11
1.85923
21
-5.36558
0
LINE
8
BLACK
6
CONTINUOUS
10
1.85923
20
-5.36558
11
1.86298
21
-5.38058
0
LINE
8
BLACK
6
CONTINUOUS
10
1.86298
20
-5.38058
11
1.86298
21
-5.39933
0
LINE
8
BLACK
6
CONTINUOUS
10
1.86298
20
-5.39933
11
1.85923
21
-5.41433
0
LINE
8
BLACK
6
CONTINUOUS
10
1.85923
20
-5.41433
11
1.85548
21
-5.42183
0
LINE
8
BLACK
6
CONTINUOUS
10
1.85548
20
-5.42183
11
1.85173
21
-5.42557
0
LINE
8
BLACK
6
CONTINUOUS
10
1.85173
20
-5.42557
11
1.84423
21
-5.42932
0
LINE
8
BLACK
6
CONTINUOUS
10
1.84423
20
-5.42932
11
1.83673
21
-5.42932
0
LINE
8
BLACK
6
CONTINUOUS
10
1.83673
20
-5.42932
11
1.82923
21
-5.42557
0
LINE
8
BLACK
6
CONTINUOUS
10
1.82923
20
-5.42557
11
1.82548
21
-5.42183
0
LINE
8
BLACK
6
CONTINUOUS
10
1.82548
20
-5.42183
11
1.82173
21
-5.41433
0
LINE
8
BLACK
6
CONTINUOUS
10
1.82173
20
-5.41433
11
1.81798
21
-5.39933
0
LINE
8
BLACK
6
CONTINUOUS
10
1.81798
20
-5.39933
11
1.81798
21
-5.38058
0
LINE
8
BLACK
6
CONTINUOUS
10
1.81798
20
-5.38058
11
1.82173
21
-5.36558
0
LINE
8
BLACK
6
CONTINUOUS
10
1.82173
20
-5.36558
11
1.82548
21
-5.35808
0
LINE
8
BLACK
6
CONTINUOUS
10
1.82548
20
-5.35808
11
1.82923
21
-5.35433
0
LINE
8
BLACK
6
CONTINUOUS
10
1.82923
20
-5.35433
11
1.83673
21
-5.35058
0
LINE
8
BLACK
6
CONTINUOUS
10
1.93797
20
-5.42932
11
1.89298
21
-5.42932
0
LINE
8
BLACK
6
CONTINUOUS
10
1.91547
20
-5.42932
11
1.91547
21
-5.35058
0
LINE
8
BLACK
6
CONTINUOUS
10
1.91547
20
-5.35058
11
1.90797
21
-5.36183
0
LINE
8
BLACK
6
CONTINUOUS
10
1.90797
20
-5.36183
11
1.90047
21
-5.36933
0
LINE
8
BLACK
6
CONTINUOUS
10
1.90047
20
-5.36933
11
1.89298
21
-5.37308
0
LINE
8
BLACK
6
CONTINUOUS
10
1.96797
20
-5.35058
11
1.96797
21
-5.36558
0
LINE
8
BLACK
6
CONTINUOUS
10
1.99796
20
-5.35058
11
1.99796
21
-5.36558
0
LINE
8
BLACK
6
CONTINUOUS
10
2.1142
20
-5.45932
11
2.11045
21
-5.45557
0
LINE
8
BLACK
6
CONTINUOUS
10
2.11045
20
-5.45557
11
2.10295
21
-5.44432
0
LINE
8
BLACK
6
CONTINUOUS
10
2.10295
20
-5.44432
11
2.0992
21
-5.43682
0
LINE
8
BLACK
6
CONTINUOUS
10
2.0992
20
-5.43682
11
2.09545
21
-5.42557
0
LINE
8
BLACK
6
CONTINUOUS
10
2.09545
20
-5.42557
11
2.0917
21
-5.40683
0
LINE
8
BLACK
6
CONTINUOUS
10
2.0917
20
-5.40683
11
2.0917
21
-5.39183
0
LINE
8
BLACK
6
CONTINUOUS
10
2.0917
20
-5.39183
11
2.09545
21
-5.37308
0
LINE
8
BLACK
6
CONTINUOUS
10
2.09545
20
-5.37308
11
2.0992
21
-5.36183
0
LINE
8
BLACK
6
CONTINUOUS
10
2.0992
20
-5.36183
11
2.10295
21
-5.35433
0
LINE
8
BLACK
6
CONTINUOUS
10
2.10295
20
-5.35433
11
2.11045
21
-5.34309
0
LINE
8
BLACK
6
CONTINUOUS
10
2.11045
20
-5.34309
11
2.1142
21
-5.33934
0
LINE
8
BLACK
6
CONTINUOUS
10
2.15544
20
-5.38433
11
2.14794
21
-5.38058
0
LINE
8
BLACK
6
CONTINUOUS
10
2.14794
20
-5.38058
11
2.14419
21
-5.37683
0
LINE
8
BLACK
6
CONTINUOUS
10
2.14419
20
-5.37683
11
2.14044
21
-5.36933
0
LINE
8
BLACK
6
CONTINUOUS
10
2.14044
20
-5.36933
11
2.14044
21
-5.36558
0
LINE
8
BLACK
6
CONTINUOUS
10
2.14044
20
-5.36558
11
2.14419
21
-5.35808
0
LINE
8
BLACK
6
CONTINUOUS
10
2.14419
20
-5.35808
11
2.14794
21
-5.35433
0
LINE
8
BLACK
6
CONTINUOUS
10
2.14794
20
-5.35433
11
2.15544
21
-5.35058
0
LINE
8
BLACK
6
CONTINUOUS
10
2.15544
20
-5.35058
11
2.17044
21
-5.35058
0
LINE
8
BLACK
6
CONTINUOUS
10
2.17044
20
-5.35058
11
2.17794
21
-5.35433
0
LINE
8
BLACK
6
CONTINUOUS
10
2.17794
20
-5.35433
11
2.18169
21
-5.35808
0
LINE
8
BLACK
6
CONTINUOUS
10
2.18169
20
-5.35808
11
2.18544
21
-5.36558
0
LINE
8
BLACK
6
CONTINUOUS
10
2.18544
20
-5.36558
11
2.18544
21
-5.36933
0
LINE
8
BLACK
6
CONTINUOUS
10
2.18544
20
-5.36933
11
2.18169
21
-5.37683
0
LINE
8
BLACK
6
CONTINUOUS
10
2.18169
20
-5.37683
11
2.17794
21
-5.38058
0
LINE
8
BLACK
6
CONTINUOUS
10
2.17794
20
-5.38058
11
2.17044
21
-5.38433
0
LINE
8
BLACK
6
CONTINUOUS
10
2.17044
20
-5.38433
11
2.15544
21
-5.38433
0
LINE
8
BLACK
6
CONTINUOUS
10
2.15544
20
-5.38433
11
2.14794
21
-5.38808
0
LINE
8
BLACK
6
CONTINUOUS
10
2.14794
20
-5.38808
11
2.14419
21
-5.39183
0
LINE
8
BLACK
6
CONTINUOUS
10
2.14419
20
-5.39183
11
2.14044
21
-5.39933
0
LINE
8
BLACK
6
CONTINUOUS
10
2.14044
20
-5.39933
11
2.14044
21
-5.41433
0
LINE
8
BLACK
6
CONTINUOUS
10
2.14044
20
-5.41433
11
2.14419
21
-5.42183
0
LINE
8
BLACK
6
CONTINUOUS
10
2.14419
20
-5.42183
11
2.14794
21
-5.42557
0
LINE
8
BLACK
6
CONTINUOUS
10
2.14794
20
-5.42557
11
2.15544
21
-5.42932
0
LINE
8
BLACK
6
CONTINUOUS
10
2.15544
20
-5.42932
11
2.17044
21
-5.42932
0
LINE
8
BLACK
6
CONTINUOUS
10
2.17044
20
-5.42932
11
2.17794
21
-5.42557
0
LINE
8
BLACK
6
CONTINUOUS
10
2.17794
20
-5.42557
11
2.18169
21
-5.42183
0
LINE
8
BLACK
6
CONTINUOUS
10
2.18169
20
-5.42183
11
2.18544
21
-5.41433
0
LINE
8
BLACK
6
CONTINUOUS
10
2.18544
20
-5.41433
11
2.18544
21
-5.39933
0
LINE
8
BLACK
6
CONTINUOUS
10
2.18544
20
-5.39933
11
2.18169
21
-5.39183
0
LINE
8
BLACK
6
CONTINUOUS
10
2.18169
20
-5.39183
11
2.17794
21
-5.38808
0
LINE
8
BLACK
6
CONTINUOUS
10
2.17794
20
-5.38808
11
2.17044
21
-5.38433
0
LINE
8
BLACK
6
CONTINUOUS
10
2.27918
20
-5.42932
11
2.27918
21
-5.35058
0
LINE
8
BLACK
6
CONTINUOUS
10
2.31292
20
-5.42932
11
2.31292
21
-5.38808
0
LINE
8
BLACK
6
CONTINUOUS
10
2.31292
20
-5.38808
11
2.30917
21
-5.38058
0
LINE
8
BLACK
6
CONTINUOUS
10
2.30917
20
-5.38058
11
2.30167
21
-5.37683
0
LINE
8
BLACK
6
CONTINUOUS
10
2.30167
20
-5.37683
11
2.29043
21
-5.37683
0
LINE
8
BLACK
6
CONTINUOUS
10
2.29043
20
-5.37683
11
2.28293
21
-5.38058
0
LINE
8
BLACK
6
CONTINUOUS
10
2.28293
20
-5.38058
11
2.27918
21
-5.38433
0
LINE
8
BLACK
6
CONTINUOUS
10
2.36167
20
-5.42932
11
2.35417
21
-5.42557
0
LINE
8
BLACK
6
CONTINUOUS
10
2.35417
20
-5.42557
11
2.35042
21
-5.42183
0
LINE
8
BLACK
6
CONTINUOUS
10
2.35042
20
-5.42183
11
2.34667
21
-5.41433
0
LINE
8
BLACK
6
CONTINUOUS
10
2.34667
20
-5.41433
11
2.34667
21
-5.39183
0
LINE
8
BLACK
6
CONTINUOUS
10
2.34667
20
-5.39183
11
2.35042
21
-5.38433
0
LINE
8
BLACK
6
CONTINUOUS
10
2.35042
20
-5.38433
11
2.35417
21
-5.38058
0
LINE
8
BLACK
6
CONTINUOUS
10
2.35417
20
-5.38058
11
2.36167
21
-5.37683
0
LINE
8
BLACK
6
CONTINUOUS
10
2.36167
20
-5.37683
11
2.37292
21
-5.37683
0
LINE
8
BLACK
6
CONTINUOUS
10
2.37292
20
-5.37683
11
2.38041
21
-5.38058
0
LINE
8
BLACK
6
CONTINUOUS
10
2.38041
20
-5.38058
11
2.38416
21
-5.38433
0
LINE
8
BLACK
6
CONTINUOUS
10
2.38416
20
-5.38433
11
2.38791
21
-5.39183
0
LINE
8
BLACK
6
CONTINUOUS
10
2.38791
20
-5.39183
11
2.38791
21
-5.41433
0
LINE
8
BLACK
6
CONTINUOUS
10
2.38791
20
-5.41433
11
2.38416
21
-5.42183
0
LINE
8
BLACK
6
CONTINUOUS
10
2.38416
20
-5.42183
11
2.38041
21
-5.42557
0
LINE
8
BLACK
6
CONTINUOUS
10
2.38041
20
-5.42557
11
2.37292
21
-5.42932
0
LINE
8
BLACK
6
CONTINUOUS
10
2.37292
20
-5.42932
11
2.36167
21
-5.42932
0
LINE
8
BLACK
6
CONTINUOUS
10
2.43291
20
-5.42932
11
2.42541
21
-5.42557
0
LINE
8
BLACK
6
CONTINUOUS
10
2.42541
20
-5.42557
11
2.42166
21
-5.41808
0
LINE
8
BLACK
6
CONTINUOUS
10
2.42166
20
-5.41808
11
2.42166
21
-5.35058
0
LINE
8
BLACK
6
CONTINUOUS
10
2.4929
20
-5.42557
11
2.4854
21
-5.42932
0
LINE
8
BLACK
6
CONTINUOUS
10
2.4854
20
-5.42932
11
2.4704
21
-5.42932
0
LINE
8
BLACK
6
CONTINUOUS
10
2.4704
20
-5.42932
11
2.4629
21
-5.42557
0
LINE
8
BLACK
6
CONTINUOUS
10
2.4629
20
-5.42557
11
2.45915
21
-5.41808
0
LINE
8
BLACK
6
CONTINUOUS
10
2.45915
20
-5.41808
11
2.45915
21
-5.38808
0
LINE
8
BLACK
6
CONTINUOUS
10
2.45915
20
-5.38808
11
2.4629
21
-5.38058
0
LINE
8
BLACK
6
CONTINUOUS
10
2.4629
20
-5.38058
11
2.4704
21
-5.37683
0
LINE
8
BLACK
6
CONTINUOUS
10
2.4704
20
-5.37683
11
2.4854
21
-5.37683
0
LINE
8
BLACK
6
CONTINUOUS
10
2.4854
20
-5.37683
11
2.4929
21
-5.38058
0
LINE
8
BLACK
6
CONTINUOUS
10
2.4929
20
-5.38058
11
2.49665
21
-5.38808
0
LINE
8
BLACK
6
CONTINUOUS
10
2.49665
20
-5.38808
11
2.49665
21
-5.39558
0
LINE
8
BLACK
6
CONTINUOUS
10
2.49665
20
-5.39558
11
2.45915
21
-5.40308
0
LINE
8
BLACK
6
CONTINUOUS
10
2.52665
20
-5.42557
11
2.53415
21
-5.42932
0
LINE
8
BLACK
6
CONTINUOUS
10
2.53415
20
-5.42932
11
2.54914
21
-5.42932
0
LINE
8
BLACK
6
CONTINUOUS
10
2.54914
20
-5.42932
11
2.55664
21
-5.42557
0
LINE
8
BLACK
6
CONTINUOUS
10
2.55664
20
-5.42557
11
2.56039
21
-5.41808
0
LINE
8
BLACK
6
CONTINUOUS
10
2.56039
20
-5.41808
11
2.56039
21
-5.41433
0
LINE
8
BLACK
6
CONTINUOUS
10
2.56039
20
-5.41433
11
2.55664
21
-5.40683
0
LINE
8
BLACK
6
CONTINUOUS
10
2.55664
20
-5.40683
11
2.54914
21
-5.40308
0
LINE
8
BLACK
6
CONTINUOUS
10
2.54914
20
-5.40308
11
2.5379
21
-5.40308
0
LINE
8
BLACK
6
CONTINUOUS
10
2.5379
20
-5.40308
11
2.5304
21
-5.39933
0
LINE
8
BLACK
6
CONTINUOUS
10
2.5304
20
-5.39933
11
2.52665
21
-5.39183
0
LINE
8
BLACK
6
CONTINUOUS
10
2.52665
20
-5.39183
11
2.52665
21
-5.38808
0
LINE
8
BLACK
6
CONTINUOUS
10
2.52665
20
-5.38808
11
2.5304
21
-5.38058
0
LINE
8
BLACK
6
CONTINUOUS
10
2.5304
20
-5.38058
11
2.5379
21
-5.37683
0
LINE
8
BLACK
6
CONTINUOUS
10
2.5379
20
-5.37683
11
2.54914
21
-5.37683
0
LINE
8
BLACK
6
CONTINUOUS
10
2.54914
20
-5.37683
11
2.55664
21
-5.38058
0
LINE
8
BLACK
6
CONTINUOUS
10
2.58664
20
-5.45932
11
2.59039
21
-5.45557
0
LINE
8
BLACK
6
CONTINUOUS
10
2.59039
20
-5.45557
11
2.59789
21
-5.44432
0
LINE
8
BLACK
6
CONTINUOUS
10
2.59789
20
-5.44432
11
2.60164
21
-5.43682
0
LINE
8
BLACK
6
CONTINUOUS
10
2.60164
20
-5.43682
11
2.60539
21
-5.42557
0
LINE
8
BLACK
6
CONTINUOUS
10
2.60539
20
-5.42557
11
2.60914
21
-5.40683
0
LINE
8
BLACK
6
CONTINUOUS
10
2.60914
20
-5.40683
11
2.60914
21
-5.39183
0
LINE
8
BLACK
6
CONTINUOUS
10
2.60914
20
-5.39183
11
2.60539
21
-5.37308
0
LINE
8
BLACK
6
CONTINUOUS
10
2.60539
20
-5.37308
11
2.60164
21
-5.36183
0
LINE
8
BLACK
6
CONTINUOUS
10
2.60164
20
-5.36183
11
2.59789
21
-5.35433
0
LINE
8
BLACK
6
CONTINUOUS
10
2.59789
20
-5.35433
11
2.59039
21
-5.34309
0
LINE
8
BLACK
6
CONTINUOUS
10
2.59039
20
-5.34309
11
2.58664
21
-5.33934
0
LINE
8
BLACK
6
CONTINUOUS
10
2.72912
20
-5.45932
11
2.72537
21
-5.45557
0
LINE
8
BLACK
6
CONTINUOUS
10
2.72537
20
-5.45557
11
2.71787
21
-5.44432
0
LINE
8
BLACK
6
CONTINUOUS
10
2.71787
20
-5.44432
11
2.71412
21
-5.43682
0
LINE
8
BLACK
6
CONTINUOUS
10
2.71412
20
-5.43682
11
2.71037
21
-5.42557
0
LINE
8
BLACK
6
CONTINUOUS
10
2.71037
20
-5.42557
11
2.70662
21
-5.40683
0
LINE
8
BLACK
6
CONTINUOUS
10
2.70662
20
-5.40683
11
2.70662
21
-5.39183
0
LINE
8
BLACK
6
CONTINUOUS
10
2.70662
20
-5.39183
11
2.71037
21
-5.37308
0
LINE
8
BLACK
6
CONTINUOUS
10
2.71037
20
-5.37308
11
2.71412
21
-5.36183
0
LINE
8
BLACK
6
CONTINUOUS
10
2.71412
20
-5.36183
11
2.71787
21
-5.35433
0
LINE
8
BLACK
6
CONTINUOUS
10
2.71787
20
-5.35433
11
2.72537
21
-5.34309
0
LINE
8
BLACK
6
CONTINUOUS
10
2.72537
20
-5.34309
11
2.72912
21
-5.33934
0
LINE
8
BLACK
6
CONTINUOUS
10
2.75912
20
-5.37683
11
2.75912
21
-5.42932
0
LINE
8
BLACK
6
CONTINUOUS
10
2.75912
20
-5.38433
11
2.76287
21
-5.38058
0
LINE
8
BLACK
6
CONTINUOUS
10
2.76287
20
-5.38058
11
2.77037
21
-5.37683
0
LINE
8
BLACK
6
CONTINUOUS
10
2.77037
20
-5.37683
11
2.78161
21
-5.37683
0
LINE
8
BLACK
6
CONTINUOUS
10
2.78161
20
-5.37683
11
2.78911
21
-5.38058
0
LINE
8
BLACK
6
CONTINUOUS
10
2.78911
20
-5.38058
11
2.79286
21
-5.38808
0
LINE
8
BLACK
6
CONTINUOUS
10
2.79286
20
-5.38808
11
2.79286
21
-5.42932
0
LINE
8
BLACK
6
CONTINUOUS
10
2.84161
20
-5.42932
11
2.83411
21
-5.42557
0
LINE
8
BLACK
6
CONTINUOUS
10
2.83411
20
-5.42557
11
2.83036
21
-5.42183
0
LINE
8
BLACK
6
CONTINUOUS
10
2.83036
20
-5.42183
11
2.82661
21
-5.41433
0
LINE
8
BLACK
6
CONTINUOUS
10
2.82661
20
-5.41433
11
2.82661
21
-5.39183
0
LINE
8
BLACK
6
CONTINUOUS
10
2.82661
20
-5.39183
11
2.83036
21
-5.38433
0
LINE
8
BLACK
6
CONTINUOUS
10
2.83036
20
-5.38433
11
2.83411
21
-5.38058
0
LINE
8
BLACK
6
CONTINUOUS
10
2.83411
20
-5.38058
11
2.84161
21
-5.37683
0
LINE
8
BLACK
6
CONTINUOUS
10
2.84161
20
-5.37683
11
2.85286
21
-5.37683
0
LINE
8
BLACK
6
CONTINUOUS
10
2.85286
20
-5.37683
11
2.86035
21
-5.38058
0
LINE
8
BLACK
6
CONTINUOUS
10
2.86035
20
-5.38058
11
2.8641
21
-5.38433
0
LINE
8
BLACK
6
CONTINUOUS
10
2.8641
20
-5.38433
11
2.86785
21
-5.39183
0
LINE
8
BLACK
6
CONTINUOUS
10
2.86785
20
-5.39183
11
2.86785
21
-5.41433
0
LINE
8
BLACK
6
CONTINUOUS
10
2.86785
20
-5.41433
11
2.8641
21
-5.42183
0
LINE
8
BLACK
6
CONTINUOUS
10
2.8641
20
-5.42183
11
2.86035
21
-5.42557
0
LINE
8
BLACK
6
CONTINUOUS
10
2.86035
20
-5.42557
11
2.85286
21
-5.42932
0
LINE
8
BLACK
6
CONTINUOUS
10
2.85286
20
-5.42932
11
2.84161
21
-5.42932
0
LINE
8
BLACK
6
CONTINUOUS
10
2.89035
20
-5.37683
11
2.92035
21
-5.37683
0
LINE
8
BLACK
6
CONTINUOUS
10
2.9016
20
-5.35058
11
2.9016
21
-5.41808
0
LINE
8
BLACK
6
CONTINUOUS
10
2.9016
20
-5.41808
11
2.90535
21
-5.42557
0
LINE
8
BLACK
6
CONTINUOUS
10
2.90535
20
-5.42557
11
2.91285
21
-5.42932
0
LINE
8
BLACK
6
CONTINUOUS
10
2.91285
20
-5.42932
11
2.92035
21
-5.42932
0
LINE
8
BLACK
6
CONTINUOUS
10
3.00659
20
-5.37683
11
3.00659
21
-5.45557
0
LINE
8
BLACK
6
CONTINUOUS
10
3.00659
20
-5.38058
11
3.01409
21
-5.37683
0
LINE
8
BLACK
6
CONTINUOUS
10
3.01409
20
-5.37683
11
3.02908
21
-5.37683
0
LINE
8
BLACK
6
CONTINUOUS
10
3.02908
20
-5.37683
11
3.03658
21
-5.38058
0
LINE
8
BLACK
6
CONTINUOUS
10
3.03658
20
-5.38058
11
3.04033
21
-5.38433
0
LINE
8
BLACK
6
CONTINUOUS
10
3.04033
20
-5.38433
11
3.04408
21
-5.39183
0
LINE
8
BLACK
6
CONTINUOUS
10
3.04408
20
-5.39183
11
3.04408
21
-5.41433
0
LINE
8
BLACK
6
CONTINUOUS
10
3.04408
20
-5.41433
11
3.04033
21
-5.42183
0
LINE
8
BLACK
6
CONTINUOUS
10
3.04033
20
-5.42183
11
3.03658
21
-5.42557
0
LINE
8
BLACK
6
CONTINUOUS
10
3.03658
20
-5.42557
11
3.02908
21
-5.42932
0
LINE
8
BLACK
6
CONTINUOUS
10
3.02908
20
-5.42932
11
3.01409
21
-5.42932
0
LINE
8
BLACK
6
CONTINUOUS
10
3.01409
20
-5.42932
11
3.00659
21
-5.42557
0
LINE
8
BLACK
6
CONTINUOUS
10
3.08908
20
-5.42932
11
3.08158
21
-5.42557
0
LINE
8
BLACK
6
CONTINUOUS
10
3.08158
20
-5.42557
11
3.07783
21
-5.41808
0
LINE
8
BLACK
6
CONTINUOUS
10
3.07783
20
-5.41808
11
3.07783
21
-5.35058
0
LINE
8
BLACK
6
CONTINUOUS
10
3.15282
20
-5.42932
11
3.15282
21
-5.38808
0
LINE
8
BLACK
6
CONTINUOUS
10
3.15282
20
-5.38808
11
3.14907
21
-5.38058
0
LINE
8
BLACK
6
CONTINUOUS
10
3.14907
20
-5.38058
11
3.14157
21
-5.37683
0
LINE
8
BLACK
6
CONTINUOUS
10
3.14157
20
-5.37683
11
3.12657
21
-5.37683
0
LINE
8
BLACK
6
CONTINUOUS
10
3.12657
20
-5.37683
11
3.11907
21
-5.38058
0
LINE
8
BLACK
6
CONTINUOUS
10
3.15282
20
-5.42557
11
3.14532
21
-5.42932
0
LINE
8
BLACK
6
CONTINUOUS
10
3.14532
20
-5.42932
11
3.12657
21
-5.42932
0
LINE
8
BLACK
6
CONTINUOUS
10
3.12657
20
-5.42932
11
3.11907
21
-5.42557
0
LINE
8
BLACK
6
CONTINUOUS
10
3.11907
20
-5.42557
11
3.11532
21
-5.41808
0
LINE
8
BLACK
6
CONTINUOUS
10
3.11532
20
-5.41808
11
3.11532
21
-5.41058
0
LINE
8
BLACK
6
CONTINUOUS
10
3.11532
20
-5.41058
11
3.11907
21
-5.40308
0
LINE
8
BLACK
6
CONTINUOUS
10
3.11907
20
-5.40308
11
3.12657
21
-5.39933
0
LINE
8
BLACK
6
CONTINUOUS
10
3.12657
20
-5.39933
11
3.14532
21
-5.39933
0
LINE
8
BLACK
6
CONTINUOUS
10
3.14532
20
-5.39933
11
3.15282
21
-5.39558
0
LINE
8
BLACK
6
CONTINUOUS
10
3.17906
20
-5.37683
11
3.20906
21
-5.37683
0
LINE
8
BLACK
6
CONTINUOUS
10
3.19031
20
-5.35058
11
3.19031
21
-5.41808
0
LINE
8
BLACK
6
CONTINUOUS
10
3.19031
20
-5.41808
11
3.19406
21
-5.42557
0
LINE
8
BLACK
6
CONTINUOUS
10
3.19406
20
-5.42557
11
3.20156
21
-5.42932
0
LINE
8
BLACK
6
CONTINUOUS
10
3.20156
20
-5.42932
11
3.20906
21
-5.42932
0
LINE
8
BLACK
6
CONTINUOUS
10
3.2653
20
-5.42557
11
3.25781
21
-5.42932
0
LINE
8
BLACK
6
CONTINUOUS
10
3.25781
20
-5.42932
11
3.24281
21
-5.42932
0
LINE
8
BLACK
6
CONTINUOUS
10
3.24281
20
-5.42932
11
3.23531
21
-5.42557
0
LINE
8
BLACK
6
CONTINUOUS
10
3.23531
20
-5.42557
11
3.23156
21
-5.41808
0
LINE
8
BLACK
6
CONTINUOUS
10
3.23156
20
-5.41808
11
3.23156
21
-5.38808
0
LINE
8
BLACK
6
CONTINUOUS
10
3.23156
20
-5.38808
11
3.23531
21
-5.38058
0
LINE
8
BLACK
6
CONTINUOUS
10
3.23531
20
-5.38058
11
3.24281
21
-5.37683
0
LINE
8
BLACK
6
CONTINUOUS
10
3.24281
20
-5.37683
11
3.25781
21
-5.37683
0
LINE
8
BLACK
6
CONTINUOUS
10
3.25781
20
-5.37683
11
3.2653
21
-5.38058
0
LINE
8
BLACK
6
CONTINUOUS
10
3.2653
20
-5.38058
11
3.26905
21
-5.38808
0
LINE
8
BLACK
6
CONTINUOUS
10
3.26905
20
-5.38808
11
3.26905
21
-5.39558
0
LINE
8
BLACK
6
CONTINUOUS
10
3.26905
20
-5.39558
11
3.23156
21
-5.40308
0
LINE
8
BLACK
6
CONTINUOUS
10
3.33655
20
-5.42932
11
3.33655
21
-5.35058
0
LINE
8
BLACK
6
CONTINUOUS
10
3.33655
20
-5.42557
11
3.32905
21
-5.42932
0
LINE
8
BLACK
6
CONTINUOUS
10
3.32905
20
-5.42932
11
3.31405
21
-5.42932
0
LINE
8
BLACK
6
CONTINUOUS
10
3.31405
20
-5.42932
11
3.30655
21
-5.42557
0
LINE
8
BLACK
6
CONTINUOUS
10
3.30655
20
-5.42557
11
3.3028
21
-5.42183
0
LINE
8
BLACK
6
CONTINUOUS
10
3.3028
20
-5.42183
11
3.29905
21
-5.41433
0
LINE
8
BLACK
6
CONTINUOUS
10
3.29905
20
-5.41433
11
3.29905
21
-5.39183
0
LINE
8
BLACK
6
CONTINUOUS
10
3.29905
20
-5.39183
11
3.3028
21
-5.38433
0
LINE
8
BLACK
6
CONTINUOUS
10
3.3028
20
-5.38433
11
3.30655
21
-5.38058
0
LINE
8
BLACK
6
CONTINUOUS
10
3.30655
20
-5.38058
11
3.31405
21
-5.37683
0
LINE
8
BLACK
6
CONTINUOUS
10
3.31405
20
-5.37683
11
3.32905
21
-5.37683
0
LINE
8
BLACK
6
CONTINUOUS
10
3.32905
20
-5.37683
11
3.33655
21
-5.38058
0
LINE
8
BLACK
6
CONTINUOUS
10
3.36654
20
-5.45932
11
3.37029
21
-5.45557
0
LINE
8
BLACK
6
CONTINUOUS
10
3.37029
20
-5.45557
11
3.37779
21
-5.44432
0
LINE
8
BLACK
6
CONTINUOUS
10
3.37779
20
-5.44432
11
3.38154
21
-5.43682
0
LINE
8
BLACK
6
CONTINUOUS
10
3.38154
20
-5.43682
11
3.38529
21
-5.42557
0
LINE
8
BLACK
6
CONTINUOUS
10
3.38529
20
-5.42557
11
3.38904
21
-5.40683
0
LINE
8
BLACK
6
CONTINUOUS
10
3.38904
20
-5.40683
11
3.38904
21
-5.39183
0
LINE
8
BLACK
6
CONTINUOUS
10
3.38904
20
-5.39183
11
3.38529
21
-5.37308
0
LINE
8
BLACK
6
CONTINUOUS
10
3.38529
20
-5.37308
11
3.38154
21
-5.36183
0
LINE
8
BLACK
6
CONTINUOUS
10
3.38154
20
-5.36183
11
3.37779
21
-5.35433
0
LINE
8
BLACK
6
CONTINUOUS
10
3.37779
20
-5.35433
11
3.37029
21
-5.34309
0
LINE
8
BLACK
6
CONTINUOUS
10
3.37029
20
-5.34309
11
3.36654
21
-5.33934
0
LINE
8
BLACK
6
CONTINUOUS
10
0.695162
20
-5.54713
11
0.695162
21
-5.49145
0
LINE
8
BLACK
6
CONTINUOUS
10
0.695162
20
-5.49145
11
0.639484
21
-5.49145
0
LINE
8
BLACK
6
CONTINUOUS
10
0.639484
20
-5.49145
11
0.639484
21
-5.54713
0
LINE
8
BLACK
6
CONTINUOUS
10
0.639484
20
-5.54713
11
0.695162
21
-5.54713
0
LINE
8
BLACK
6
CONTINUOUS
10
0.801862
20
-5.47657
11
0.850606
21
-5.47657
0
LINE
8
BLACK
6
CONTINUOUS
10
0.850606
20
-5.47657
11
0.824359
21
-5.50656
0
LINE
8
BLACK
6
CONTINUOUS
10
0.824359
20
-5.50656
11
0.835608
21
-5.50656
0
LINE
8
BLACK
6
CONTINUOUS
10
0.835608
20
-5.50656
11
0.843107
21
-5.51031
0
LINE
8
BLACK
6
CONTINUOUS
10
0.843107
20
-5.51031
11
0.846856
21
-5.51406
0
LINE
8
BLACK
6
CONTINUOUS
10
0.846856
20
-5.51406
11
0.850606
21
-5.52156
0
LINE
8
BLACK
6
CONTINUOUS
10
0.850606
20
-5.52156
11
0.850606
21
-5.54031
0
LINE
8
BLACK
6
CONTINUOUS
10
0.850606
20
-5.54031
11
0.846856
21
-5.54781
0
LINE
8
BLACK
6
CONTINUOUS
10
0.846856
20
-5.54781
11
0.843107
21
-5.55156
0
LINE
8
BLACK
6
CONTINUOUS
10
0.843107
20
-5.55156
11
0.835608
21
-5.55531
0
LINE
8
BLACK
6
CONTINUOUS
10
0.835608
20
-5.55531
11
0.81311
21
-5.55531
0
LINE
8
BLACK
6
CONTINUOUS
10
0.81311
20
-5.55531
11
0.805611
21
-5.55156
0
LINE
8
BLACK
6
CONTINUOUS
10
0.805611
20
-5.55156
11
0.801862
21
-5.54781
0
LINE
8
BLACK
6
CONTINUOUS
10
0.884352
20
-5.54781
11
0.888101
21
-5.55156
0
LINE
8
BLACK
6
CONTINUOUS
10
0.888101
20
-5.55156
11
0.884352
21
-5.55531
0
LINE
8
BLACK
6
CONTINUOUS
10
0.884352
20
-5.55531
11
0.880602
21
-5.55156
0
LINE
8
BLACK
6
CONTINUOUS
10
0.880602
20
-5.55156
11
0.884352
21
-5.54781
0
LINE
8
BLACK
6
CONTINUOUS
10
0.884352
20
-5.54781
11
0.884352
21
-5.55531
0
LINE
8
BLACK
6
CONTINUOUS
10
0.918097
20
-5.48407
11
0.921847
21
-5.48032
0
LINE
8
BLACK
6
CONTINUOUS
10
0.921847
20
-5.48032
11
0.929346
21
-5.47657
0
LINE
8
BLACK
6
CONTINUOUS
10
0.929346
20
-5.47657
11
0.948094
21
-5.47657
0
LINE
8
BLACK
6
CONTINUOUS
10
0.948094
20
-5.47657
11
0.955593
21
-5.48032
0
LINE
8
BLACK
6
CONTINUOUS
10
0.955593
20
-5.48032
11
0.959342
21
-5.48407
0
LINE
8
BLACK
6
CONTINUOUS
10
0.959342
20
-5.48407
11
0.963092
21
-5.49157
0
LINE
8
BLACK
6
CONTINUOUS
10
0.963092
20
-5.49157
11
0.963092
21
-5.49907
0
LINE
8
BLACK
6
CONTINUOUS
10
0.963092
20
-5.49907
11
0.959342
21
-5.51031
0
LINE
8
BLACK
6
CONTINUOUS
10
0.959342
20
-5.51031
11
0.914348
21
-5.55531
0
LINE
8
BLACK
6
CONTINUOUS
10
0.914348
20
-5.55531
11
0.963092
21
-5.55531
0
LINE
8
BLACK
6
CONTINUOUS
10
1.01184
20
-5.47657
11
1.01933
21
-5.47657
0
LINE
8
BLACK
6
CONTINUOUS
10
1.01933
20
-5.47657
11
1.02683
21
-5.48032
0
LINE
8
BLACK
6
CONTINUOUS
10
1.02683
20
-5.48032
11
1.03058
21
-5.48407
0
LINE
8
BLACK
6
CONTINUOUS
10
1.03058
20
-5.48407
11
1.03433
21
-5.49157
0
LINE
8
BLACK
6
CONTINUOUS
10
1.03433
20
-5.49157
11
1.03808
21
-5.50656
0
LINE
8
BLACK
6
CONTINUOUS
10
1.03808
20
-5.50656
11
1.03808
21
-5.52531
0
LINE
8
BLACK
6
CONTINUOUS
10
1.03808
20
-5.52531
11
1.03433
21
-5.54031
0
LINE
8
BLACK
6
CONTINUOUS
10
1.03433
20
-5.54031
11
1.03058
21
-5.54781
0
LINE
8
BLACK
6
CONTINUOUS
10
1.03058
20
-5.54781
11
1.02683
21
-5.55156
0
LINE
8
BLACK
6
CONTINUOUS
10
1.02683
20
-5.55156
11
1.01933
21
-5.55531
0
LINE
8
BLACK
6
CONTINUOUS
10
1.01933
20
-5.55531
11
1.01184
21
-5.55531
0
LINE
8
BLACK
6
CONTINUOUS
10
1.01184
20
-5.55531
11
1.00434
21
-5.55156
0
LINE
8
BLACK
6
CONTINUOUS
10
1.00434
20
-5.55156
11
1.00059
21
-5.54781
0
LINE
8
BLACK
6
CONTINUOUS
10
1.00059
20
-5.54781
11
0.996838
21
-5.54031
0
LINE
8
BLACK
6
CONTINUOUS
10
0.996838
20
-5.54031
11
0.993088
21
-5.52531
0
LINE
8
BLACK
6
CONTINUOUS
10
0.993088
20
-5.52531
11
0.993088
21
-5.50656
0
LINE
8
BLACK
6
CONTINUOUS
10
0.993088
20
-5.50656
11
0.996838
21
-5.49157
0
LINE
8
BLACK
6
CONTINUOUS
10
0.996838
20
-5.49157
11
1.00059
21
-5.48407
0
LINE
8
BLACK
6
CONTINUOUS
10
1.00059
20
-5.48407
11
1.00434
21
-5.48032
0
LINE
8
BLACK
6
CONTINUOUS
10
1.00434
20
-5.48032
11
1.01184
21
-5.47657
0
LINE
8
BLACK
6
CONTINUOUS
10
1.08683
20
-5.47657
11
1.09433
21
-5.47657
0
LINE
8
BLACK
6
CONTINUOUS
10
1.09433
20
-5.47657
11
1.10182
21
-5.48032
0
LINE
8
BLACK
6
CONTINUOUS
10
1.10182
20
-5.48032
11
1.10557
21
-5.48407
0
LINE
8
BLACK
6
CONTINUOUS
10
1.10557
20
-5.48407
11
1.10932
21
-5.49157
0
LINE
8
BLACK
6
CONTINUOUS
10
1.10932
20
-5.49157
11
1.11307
21
-5.50656
0
LINE
8
BLACK
6
CONTINUOUS
10
1.11307
20
-5.50656
11
1.11307
21
-5.52531
0
LINE
8
BLACK
6
CONTINUOUS
10
1.11307
20
-5.52531
11
1.10932
21
-5.54031
0
LINE
8
BLACK
6
CONTINUOUS
10
1.10932
20
-5.54031
11
1.10557
21
-5.54781
0
LINE
8
BLACK
6
CONTINUOUS
10
1.10557
20
-5.54781
11
1.10182
21
-5.55156
0
LINE
8
BLACK
6
CONTINUOUS
10
1.10182
20
-5.55156
11
1.09433
21
-5.55531
0
LINE
8
BLACK
6
CONTINUOUS
10
1.09433
20
-5.55531
11
1.08683
21
-5.55531
0
LINE
8
BLACK
6
CONTINUOUS
10
1.08683
20
-5.55531
11
1.07933
21
-5.55156
0
LINE
8
BLACK
6
CONTINUOUS
10
1.07933
20
-5.55156
11
1.07558
21
-5.54781
0
LINE
8
BLACK
6
CONTINUOUS
10
1.07558
20
-5.54781
11
1.07183
21
-5.54031
0
LINE
8
BLACK
6
CONTINUOUS
10
1.07183
20
-5.54031
11
1.06808
21
-5.52531
0
LINE
8
BLACK
6
CONTINUOUS
10
1.06808
20
-5.52531
11
1.06808
21
-5.50656
0
LINE
8
BLACK
6
CONTINUOUS
10
1.06808
20
-5.50656
11
1.07183
21
-5.49157
0
LINE
8
BLACK
6
CONTINUOUS
10
1.07183
20
-5.49157
11
1.07558
21
-5.48407
0
LINE
8
BLACK
6
CONTINUOUS
10
1.07558
20
-5.48407
11
1.07933
21
-5.48032
0
LINE
8
BLACK
6
CONTINUOUS
10
1.07933
20
-5.48032
11
1.08683
21
-5.47657
0
LINE
8
BLACK
6
CONTINUOUS
10
1.14682
20
-5.55531
11
1.14682
21
-5.50282
0
LINE
8
BLACK
6
CONTINUOUS
10
1.14682
20
-5.51031
11
1.15057
21
-5.50656
0
LINE
8
BLACK
6
CONTINUOUS
10
1.15057
20
-5.50656
11
1.15807
21
-5.50282
0
LINE
8
BLACK
6
CONTINUOUS
10
1.15807
20
-5.50282
11
1.16932
21
-5.50282
0
LINE
8
BLACK
6
CONTINUOUS
10
1.16932
20
-5.50282
11
1.17682
21
-5.50656
0
LINE
8
BLACK
6
CONTINUOUS
10
1.17682
20
-5.50656
11
1.18056
21
-5.51406
0
LINE
8
BLACK
6
CONTINUOUS
10
1.18056
20
-5.51406
11
1.18056
21
-5.55531
0
LINE
8
BLACK
6
CONTINUOUS
10
1.18056
20
-5.51406
11
1.18431
21
-5.50656
0
LINE
8
BLACK
6
CONTINUOUS
10
1.18431
20
-5.50656
11
1.19181
21
-5.50282
0
LINE
8
BLACK
6
CONTINUOUS
10
1.19181
20
-5.50282
11
1.20306
21
-5.50282
0
LINE
8
BLACK
6
CONTINUOUS
10
1.20306
20
-5.50282
11
1.21056
21
-5.50656
0
LINE
8
BLACK
6
CONTINUOUS
10
1.21056
20
-5.50656
11
1.21431
21
-5.51406
0
LINE
8
BLACK
6
CONTINUOUS
10
1.21431
20
-5.51406
11
1.21431
21
-5.55531
0
LINE
8
BLACK
6
CONTINUOUS
10
1.25181
20
-5.55531
11
1.25181
21
-5.50282
0
LINE
8
BLACK
6
CONTINUOUS
10
1.25181
20
-5.51031
11
1.25556
21
-5.50656
0
LINE
8
BLACK
6
CONTINUOUS
10
1.25556
20
-5.50656
11
1.26305
21
-5.50282
0
LINE
8
BLACK
6
CONTINUOUS
10
1.26305
20
-5.50282
11
1.2743
21
-5.50282
0
LINE
8
BLACK
6
CONTINUOUS
10
1.2743
20
-5.50282
11
1.2818
21
-5.50656
0
LINE
8
BLACK
6
CONTINUOUS
10
1.2818
20
-5.50656
11
1.28555
21
-5.51406
0
LINE
8
BLACK
6
CONTINUOUS
10
1.28555
20
-5.51406
11
1.28555
21
-5.55531
0
LINE
8
BLACK
6
CONTINUOUS
10
1.28555
20
-5.51406
11
1.2893
21
-5.50656
0
LINE
8
BLACK
6
CONTINUOUS
10
1.2893
20
-5.50656
11
1.2968
21
-5.50282
0
LINE
8
BLACK
6
CONTINUOUS
10
1.2968
20
-5.50282
11
1.30805
21
-5.50282
0
LINE
8
BLACK
6
CONTINUOUS
10
1.30805
20
-5.50282
11
1.31555
21
-5.50656
0
LINE
8
BLACK
6
CONTINUOUS
10
1.31555
20
-5.50656
11
1.3193
21
-5.51406
0
LINE
8
BLACK
6
CONTINUOUS
10
1.3193
20
-5.51406
11
1.3193
21
-5.55531
0
LINE
8
BLACK
6
CONTINUOUS
10
1.47303
20
-5.47282
11
1.40554
21
-5.57406
0
LINE
8
BLACK
6
CONTINUOUS
10
1.57427
20
-5.47657
11
1.58176
21
-5.47657
0
LINE
8
BLACK
6
CONTINUOUS
10
1.58176
20
-5.47657
11
1.58926
21
-5.48032
0
LINE
8
BLACK
6
CONTINUOUS
10
1.58926
20
-5.48032
11
1.59301
21
-5.48407
0
LINE
8
BLACK
6
CONTINUOUS
10
1.59301
20
-5.48407
11
1.59676
21
-5.49157
0
LINE
8
BLACK
6
CONTINUOUS
10
1.59676
20
-5.49157
11
1.60051
21
-5.50656
0
LINE
8
BLACK
6
CONTINUOUS
10
1.60051
20
-5.50656
11
1.60051
21
-5.52531
0
LINE
8
BLACK
6
CONTINUOUS
10
1.60051
20
-5.52531
11
1.59676
21
-5.54031
0
LINE
8
BLACK
6
CONTINUOUS
10
1.59676
20
-5.54031
11
1.59301
21
-5.54781
0
LINE
8
BLACK
6
CONTINUOUS
10
1.59301
20
-5.54781
11
1.58926
21
-5.55156
0
LINE
8
BLACK
6
CONTINUOUS
10
1.58926
20
-5.55156
11
1.58176
21
-5.55531
0
LINE
8
BLACK
6
CONTINUOUS
10
1.58176
20
-5.55531
11
1.57427
21
-5.55531
0
LINE
8
BLACK
6
CONTINUOUS
10
1.57427
20
-5.55531
11
1.56677
21
-5.55156
0
LINE
8
BLACK
6
CONTINUOUS
10
1.56677
20
-5.55156
11
1.56302
21
-5.54781
0
LINE
8
BLACK
6
CONTINUOUS
10
1.56302
20
-5.54781
11
1.55927
21
-5.54031
0
LINE
8
BLACK
6
CONTINUOUS
10
1.55927
20
-5.54031
11
1.55552
21
-5.52531
0
LINE
8
BLACK
6
CONTINUOUS
10
1.55552
20
-5.52531
11
1.55552
21
-5.50656
0
LINE
8
BLACK
6
CONTINUOUS
10
1.55552
20
-5.50656
11
1.55927
21
-5.49157
0
LINE
8
BLACK
6
CONTINUOUS
10
1.55927
20
-5.49157
11
1.56302
21
-5.48407
0
LINE
8
BLACK
6
CONTINUOUS
10
1.56302
20
-5.48407
11
1.56677
21
-5.48032
0
LINE
8
BLACK
6
CONTINUOUS
10
1.56677
20
-5.48032
11
1.57427
21
-5.47657
0
LINE
8
BLACK
6
CONTINUOUS
10
1.63426
20
-5.54781
11
1.63801
21
-5.55156
0
LINE
8
BLACK
6
CONTINUOUS
10
1.63801
20
-5.55156
11
1.63426
21
-5.55531
0
LINE
8
BLACK
6
CONTINUOUS
10
1.63426
20
-5.55531
11
1.63051
21
-5.55156
0
LINE
8
BLACK
6
CONTINUOUS
10
1.63051
20
-5.55156
11
1.63426
21
-5.54781
0
LINE
8
BLACK
6
CONTINUOUS
10
1.63426
20
-5.54781
11
1.63426
21
-5.55531
0
LINE
8
BLACK
6
CONTINUOUS
10
1.713
20
-5.55531
11
1.668
21
-5.55531
0
LINE
8
BLACK
6
CONTINUOUS
10
1.6905
20
-5.55531
11
1.6905
21
-5.47657
0
LINE
8
BLACK
6
CONTINUOUS
10
1.6905
20
-5.47657
11
1.683
21
-5.48782
0
LINE
8
BLACK
6
CONTINUOUS
10
1.683
20
-5.48782
11
1.6755
21
-5.49532
0
LINE
8
BLACK
6
CONTINUOUS
10
1.6755
20
-5.49532
11
1.668
21
-5.49907
0
LINE
8
BLACK
6
CONTINUOUS
10
1.74299
20
-5.48407
11
1.74674
21
-5.48032
0
LINE
8
BLACK
6
CONTINUOUS
10
1.74674
20
-5.48032
11
1.75424
21
-5.47657
0
LINE
8
BLACK
6
CONTINUOUS
10
1.75424
20
-5.47657
11
1.77299
21
-5.47657
0
LINE
8
BLACK
6
CONTINUOUS
10
1.77299
20
-5.47657
11
1.78049
21
-5.48032
0
LINE
8
BLACK
6
CONTINUOUS
10
1.78049
20
-5.48032
11
1.78424
21
-5.48407
0
LINE
8
BLACK
6
CONTINUOUS
10
1.78424
20
-5.48407
11
1.78799
21
-5.49157
0
LINE
8
BLACK
6
CONTINUOUS
10
1.78799
20
-5.49157
11
1.78799
21
-5.49907
0
LINE
8
BLACK
6
CONTINUOUS
10
1.78799
20
-5.49907
11
1.78424
21
-5.51031
0
LINE
8
BLACK
6
CONTINUOUS
10
1.78424
20
-5.51031
11
1.73924
21
-5.55531
0
LINE
8
BLACK
6
CONTINUOUS
10
1.73924
20
-5.55531
11
1.78799
21
-5.55531
0
LINE
8
BLACK
6
CONTINUOUS
10
1.85548
20
-5.47657
11
1.84048
21
-5.47657
0
LINE
8
BLACK
6
CONTINUOUS
10
1.84048
20
-5.47657
11
1.83298
21
-5.48032
0
LINE
8
BLACK
6
CONTINUOUS
10
1.83298
20
-5.48032
11
1.82923
21
-5.48407
0
LINE
8
BLACK
6
CONTINUOUS
10
1.82923
20
-5.48407
11
1.82173
21
-5.49532
0
LINE
8
BLACK
6
CONTINUOUS
10
1.82173
20
-5.49532
11
1.81798
21
-5.51031
0
LINE
8
BLACK
6
CONTINUOUS
10
1.81798
20
-5.51031
11
1.81798
21
-5.54031
0
LINE
8
BLACK
6
CONTINUOUS
10
1.81798
20
-5.54031
11
1.82173
21
-5.54781
0
LINE
8
BLACK
6
CONTINUOUS
10
1.82173
20
-5.54781
11
1.82548
21
-5.55156
0
LINE
8
BLACK
6
CONTINUOUS
10
1.82548
20
-5.55156
11
1.83298
21
-5.55531
0
LINE
8
BLACK
6
CONTINUOUS
10
1.83298
20
-5.55531
11
1.84798
21
-5.55531
0
LINE
8
BLACK
6
CONTINUOUS
10
1.84798
20
-5.55531
11
1.85548
21
-5.55156
0
LINE
8
BLACK
6
CONTINUOUS
10
1.85548
20
-5.55156
11
1.85923
21
-5.54781
0
LINE
8
BLACK
6
CONTINUOUS
10
1.85923
20
-5.54781
11
1.86298
21
-5.54031
0
LINE
8
BLACK
6
CONTINUOUS
10
1.86298
20
-5.54031
11
1.86298
21
-5.52156
0
LINE
8
BLACK
6
CONTINUOUS
10
1.86298
20
-5.52156
11
1.85923
21
-5.51406
0
LINE
8
BLACK
6
CONTINUOUS
10
1.85923
20
-5.51406
11
1.85548
21
-5.51031
0
LINE
8
BLACK
6
CONTINUOUS
10
1.85548
20
-5.51031
11
1.84798
21
-5.50656
0
LINE
8
BLACK
6
CONTINUOUS
10
1.84798
20
-5.50656
11
1.83298
21
-5.50656
0
LINE
8
BLACK
6
CONTINUOUS
10
1.83298
20
-5.50656
11
1.82548
21
-5.51031
0
LINE
8
BLACK
6
CONTINUOUS
10
1.82548
20
-5.51031
11
1.82173
21
-5.51406
0
LINE
8
BLACK
6
CONTINUOUS
10
1.82173
20
-5.51406
11
1.81798
21
-5.52156
0
LINE
8
BLACK
6
CONTINUOUS
10
1.91172
20
-5.47657
11
1.91922
21
-5.47657
0
LINE
8
BLACK
6
CONTINUOUS
10
1.91922
20
-5.47657
11
1.92672
21
-5.48032
0
LINE
8
BLACK
6
CONTINUOUS
10
1.92672
20
-5.48032
11
1.93047
21
-5.48407
0
LINE
8
BLACK
6
CONTINUOUS
10
1.93047
20
-5.48407
11
1.93422
21
-5.49157
0
LINE
8
BLACK
6
CONTINUOUS
10
1.93422
20
-5.49157
11
1.93797
21
-5.50656
0
LINE
8
BLACK
6
CONTINUOUS
10
1.93797
20
-5.50656
11
1.93797
21
-5.52531
0
LINE
8
BLACK
6
CONTINUOUS
10
1.93797
20
-5.52531
11
1.93422
21
-5.54031
0
LINE
8
BLACK
6
CONTINUOUS
10
1.93422
20
-5.54031
11
1.93047
21
-5.54781
0
LINE
8
BLACK
6
CONTINUOUS
10
1.93047
20
-5.54781
11
1.92672
21
-5.55156
0
LINE
8
BLACK
6
CONTINUOUS
10
1.92672
20
-5.55156
11
1.91922
21
-5.55531
0
LINE
8
BLACK
6
CONTINUOUS
10
1.91922
20
-5.55531
11
1.91172
21
-5.55531
0
LINE
8
BLACK
6
CONTINUOUS
10
1.91172
20
-5.55531
11
1.90422
21
-5.55156
0
LINE
8
BLACK
6
CONTINUOUS
10
1.90422
20
-5.55156
11
1.90047
21
-5.54781
0
LINE
8
BLACK
6
CONTINUOUS
10
1.90047
20
-5.54781
11
1.89673
21
-5.54031
0
LINE
8
BLACK
6
CONTINUOUS
10
1.89673
20
-5.54031
11
1.89298
21
-5.52531
0
LINE
8
BLACK
6
CONTINUOUS
10
1.89298
20
-5.52531
11
1.89298
21
-5.50656
0
LINE
8
BLACK
6
CONTINUOUS
10
1.89298
20
-5.50656
11
1.89673
21
-5.49157
0
LINE
8
BLACK
6
CONTINUOUS
10
1.89673
20
-5.49157
11
1.90047
21
-5.48407
0
LINE
8
BLACK
6
CONTINUOUS
10
1.90047
20
-5.48407
11
1.90422
21
-5.48032
0
LINE
8
BLACK
6
CONTINUOUS
10
1.90422
20
-5.48032
11
1.91172
21
-5.47657
0
LINE
8
BLACK
6
CONTINUOUS
10
1.96797
20
-5.47657
11
1.96797
21
-5.49157
0
LINE
8
BLACK
6
CONTINUOUS
10
1.99796
20
-5.47657
11
1.99796
21
-5.49157
0
LINE
8
BLACK
6
CONTINUOUS
10
2.1142
20
-5.5853
11
2.11045
21
-5.58156
0
LINE
8
BLACK
6
CONTINUOUS
10
2.11045
20
-5.58156
11
2.10295
21
-5.57031
0
LINE
8
BLACK
6
CONTINUOUS
10
2.10295
20
-5.57031
11
2.0992
21
-5.56281
0
LINE
8
BLACK
6
CONTINUOUS
10
2.0992
20
-5.56281
11
2.09545
21
-5.55156
0
LINE
8
BLACK
6
CONTINUOUS
10
2.09545
20
-5.55156
11
2.0917
21
-5.53281
0
LINE
8
BLACK
6
CONTINUOUS
10
2.0917
20
-5.53281
11
2.0917
21
-5.51781
0
LINE
8
BLACK
6
CONTINUOUS
10
2.0917
20
-5.51781
11
2.09545
21
-5.49907
0
LINE
8
BLACK
6
CONTINUOUS
10
2.09545
20
-5.49907
11
2.0992
21
-5.48782
0
LINE
8
BLACK
6
CONTINUOUS
10
2.0992
20
-5.48782
11
2.10295
21
-5.48032
0
LINE
8
BLACK
6
CONTINUOUS
10
2.10295
20
-5.48032
11
2.11045
21
-5.46907
0
LINE
8
BLACK
6
CONTINUOUS
10
2.11045
20
-5.46907
11
2.1142
21
-5.46532
0
LINE
8
BLACK
6
CONTINUOUS
10
2.17794
20
-5.50282
11
2.17794
21
-5.55531
0
LINE
8
BLACK
6
CONTINUOUS
10
2.15919
20
-5.47282
11
2.14044
21
-5.52906
0
LINE
8
BLACK
6
CONTINUOUS
10
2.14044
20
-5.52906
11
2.18919
21
-5.52906
0
LINE
8
BLACK
6
CONTINUOUS
10
2.27918
20
-5.55531
11
2.27918
21
-5.47657
0
LINE
8
BLACK
6
CONTINUOUS
10
2.31292
20
-5.55531
11
2.31292
21
-5.51406
0
LINE
8
BLACK
6
CONTINUOUS
10
2.31292
20
-5.51406
11
2.30917
21
-5.50656
0
LINE
8
BLACK
6
CONTINUOUS
10
2.30917
20
-5.50656
11
2.30167
21
-5.50282
0
LINE
8
BLACK
6
CONTINUOUS
10
2.30167
20
-5.50282
11
2.29043
21
-5.50282
0
LINE
8
BLACK
6
CONTINUOUS
10
2.29043
20
-5.50282
11
2.28293
21
-5.50656
0
LINE
8
BLACK
6
CONTINUOUS
10
2.28293
20
-5.50656
11
2.27918
21
-5.51031
0
LINE
8
BLACK
6
CONTINUOUS
10
2.36167
20
-5.55531
11
2.35417
21
-5.55156
0
LINE
8
BLACK
6
CONTINUOUS
10
2.35417
20
-5.55156
11
2.35042
21
-5.54781
0
LINE
8
BLACK
6
CONTINUOUS
10
2.35042
20
-5.54781
11
2.34667
21
-5.54031
0
LINE
8
BLACK
6
CONTINUOUS
10
2.34667
20
-5.54031
11
2.34667
21
-5.51781
0
LINE
8
BLACK
6
CONTINUOUS
10
2.34667
20
-5.51781
11
2.35042
21
-5.51031
0
LINE
8
BLACK
6
CONTINUOUS
10
2.35042
20
-5.51031
11
2.35417
21
-5.50656
0
LINE
8
BLACK
6
CONTINUOUS
10
2.35417
20
-5.50656
11
2.36167
21
-5.50282
0
LINE
8
BLACK
6
CONTINUOUS
10
2.36167
20
-5.50282
11
2.37292
21
-5.50282
0
LINE
8
BLACK
6
CONTINUOUS
10
2.37292
20
-5.50282
11
2.38041
21
-5.50656
0
LINE
8
BLACK
6
CONTINUOUS
10
2.38041
20
-5.50656
11
2.38416
21
-5.51031
0
LINE
8
BLACK
6
CONTINUOUS
10
2.38416
20
-5.51031
11
2.38791
21
-5.51781
0
LINE
8
BLACK
6
CONTINUOUS
10
2.38791
20
-5.51781
11
2.38791
21
-5.54031
0
LINE
8
BLACK
6
CONTINUOUS
10
2.38791
20
-5.54031
11
2.38416
21
-5.54781
0
LINE
8
BLACK
6
CONTINUOUS
10
2.38416
20
-5.54781
11
2.38041
21
-5.55156
0
LINE
8
BLACK
6
CONTINUOUS
10
2.38041
20
-5.55156
11
2.37292
21
-5.55531
0
LINE
8
BLACK
6
CONTINUOUS
10
2.37292
20
-5.55531
11
2.36167
21
-5.55531
0
LINE
8
BLACK
6
CONTINUOUS
10
2.43291
20
-5.55531
11
2.42541
21
-5.55156
0
LINE
8
BLACK
6
CONTINUOUS
10
2.42541
20
-5.55156
11
2.42166
21
-5.54406
0
LINE
8
BLACK
6
CONTINUOUS
10
2.42166
20
-5.54406
11
2.42166
21
-5.47657
0
LINE
8
BLACK
6
CONTINUOUS
10
2.4929
20
-5.55156
11
2.4854
21
-5.55531
0
LINE
8
BLACK
6
CONTINUOUS
10
2.4854
20
-5.55531
11
2.4704
21
-5.55531
0
LINE
8
BLACK
6
CONTINUOUS
10
2.4704
20
-5.55531
11
2.4629
21
-5.55156
0
LINE
8
BLACK
6
CONTINUOUS
10
2.4629
20
-5.55156
11
2.45915
21
-5.54406
0
LINE
8
BLACK
6
CONTINUOUS
10
2.45915
20
-5.54406
11
2.45915
21
-5.51406
0
LINE
8
BLACK
6
CONTINUOUS
10
2.45915
20
-5.51406
11
2.4629
21
-5.50656
0
LINE
8
BLACK
6
CONTINUOUS
10
2.4629
20
-5.50656
11
2.4704
21
-5.50282
0
LINE
8
BLACK
6
CONTINUOUS
10
2.4704
20
-5.50282
11
2.4854
21
-5.50282
0
LINE
8
BLACK
6
CONTINUOUS
10
2.4854
20
-5.50282
11
2.4929
21
-5.50656
0
LINE
8
BLACK
6
CONTINUOUS
10
2.4929
20
-5.50656
11
2.49665
21
-5.51406
0
LINE
8
BLACK
6
CONTINUOUS
10
2.49665
20
-5.51406
11
2.49665
21
-5.52156
0
LINE
8
BLACK
6
CONTINUOUS
10
2.49665
20
-5.52156
11
2.45915
21
-5.52906
0
LINE
8
BLACK
6
CONTINUOUS
10
2.52665
20
-5.55156
11
2.53415
21
-5.55531
0
LINE
8
BLACK
6
CONTINUOUS
10
2.53415
20
-5.55531
11
2.54914
21
-5.55531
0
LINE
8
BLACK
6
CONTINUOUS
10
2.54914
20
-5.55531
11
2.55664
21
-5.55156
0
LINE
8
BLACK
6
CONTINUOUS
10
2.55664
20
-5.55156
11
2.56039
21
-5.54406
0
LINE
8
BLACK
6
CONTINUOUS
10
2.56039
20
-5.54406
11
2.56039
21
-5.54031
0
LINE
8
BLACK
6
CONTINUOUS
10
2.56039
20
-5.54031
11
2.55664
21
-5.53281
0
LINE
8
BLACK
6
CONTINUOUS
10
2.55664
20
-5.53281
11
2.54914
21
-5.52906
0
LINE
8
BLACK
6
CONTINUOUS
10
2.54914
20
-5.52906
11
2.5379
21
-5.52906
0
LINE
8
BLACK
6
CONTINUOUS
10
2.5379
20
-5.52906
11
2.5304
21
-5.52531
0
LINE
8
BLACK
6
CONTINUOUS
10
2.5304
20
-5.52531
11
2.52665
21
-5.51781
0
LINE
8
BLACK
6
CONTINUOUS
10
2.52665
20
-5.51781
11
2.52665
21
-5.51406
0
LINE
8
BLACK
6
CONTINUOUS
10
2.52665
20
-5.51406
11
2.5304
21
-5.50656
0
LINE
8
BLACK
6
CONTINUOUS
10
2.5304
20
-5.50656
11
2.5379
21
-5.50282
0
LINE
8
BLACK
6
CONTINUOUS
10
2.5379
20
-5.50282
11
2.54914
21
-5.50282
0
LINE
8
BLACK
6
CONTINUOUS
10
2.54914
20
-5.50282
11
2.55664
21
-5.50656
0
LINE
8
BLACK
6
CONTINUOUS
10
2.58664
20
-5.5853
11
2.59039
21
-5.58156
0
LINE
8
BLACK
6
CONTINUOUS
10
2.59039
20
-5.58156
11
2.59789
21
-5.57031
0
LINE
8
BLACK
6
CONTINUOUS
10
2.59789
20
-5.57031
11
2.60164
21
-5.56281
0
LINE
8
BLACK
6
CONTINUOUS
10
2.60164
20
-5.56281
11
2.60539
21
-5.55156
0
LINE
8
BLACK
6
CONTINUOUS
10
2.60539
20
-5.55156
11
2.60914
21
-5.53281
0
LINE
8
BLACK
6
CONTINUOUS
10
2.60914
20
-5.53281
11
2.60914
21
-5.51781
0
LINE
8
BLACK
6
CONTINUOUS
10
2.60914
20
-5.51781
11
2.60539
21
-5.49907
0
LINE
8
BLACK
6
CONTINUOUS
10
2.60539
20
-5.49907
11
2.60164
21
-5.48782
0
LINE
8
BLACK
6
CONTINUOUS
10
2.60164
20
-5.48782
11
2.59789
21
-5.48032
0
LINE
8
BLACK
6
CONTINUOUS
10
2.59789
20
-5.48032
11
2.59039
21
-5.46907
0
LINE
8
BLACK
6
CONTINUOUS
10
2.59039
20
-5.46907
11
2.58664
21
-5.46532
0
LINE
8
BLACK
6
CONTINUOUS
10
2.72912
20
-5.5853
11
2.72537
21
-5.58156
0
LINE
8
BLACK
6
CONTINUOUS
10
2.72537
20
-5.58156
11
2.71787
21
-5.57031
0
LINE
8
BLACK
6
CONTINUOUS
10
2.71787
20
-5.57031
11
2.71412
21
-5.56281
0
LINE
8
BLACK
6
CONTINUOUS
10
2.71412
20
-5.56281
11
2.71037
21
-5.55156
0
LINE
8
BLACK
6
CONTINUOUS
10
2.71037
20
-5.55156
11
2.70662
21
-5.53281
0
LINE
8
BLACK
6
CONTINUOUS
10
2.70662
20
-5.53281
11
2.70662
21
-5.51781
0
LINE
8
BLACK
6
CONTINUOUS
10
2.70662
20
-5.51781
11
2.71037
21
-5.49907
0
LINE
8
BLACK
6
CONTINUOUS
10
2.71037
20
-5.49907
11
2.71412
21
-5.48782
0
LINE
8
BLACK
6
CONTINUOUS
10
2.71412
20
-5.48782
11
2.71787
21
-5.48032
0
LINE
8
BLACK
6
CONTINUOUS
10
2.71787
20
-5.48032
11
2.72537
21
-5.46907
0
LINE
8
BLACK
6
CONTINUOUS
10
2.72537
20
-5.46907
11
2.72912
21
-5.46532
0
LINE
8
BLACK
6
CONTINUOUS
10
2.75912
20
-5.50282
11
2.75912
21
-5.55531
0
LINE
8
BLACK
6
CONTINUOUS
10
2.75912
20
-5.51031
11
2.76287
21
-5.50656
0
LINE
8
BLACK
6
CONTINUOUS
10
2.76287
20
-5.50656
11
2.77037
21
-5.50282
0
LINE
8
BLACK
6
CONTINUOUS
10
2.77037
20
-5.50282
11
2.78161
21
-5.50282
0
LINE
8
BLACK
6
CONTINUOUS
10
2.78161
20
-5.50282
11
2.78911
21
-5.50656
0
LINE
8
BLACK
6
CONTINUOUS
10
2.78911
20
-5.50656
11
2.79286
21
-5.51406
0
LINE
8
BLACK
6
CONTINUOUS
10
2.79286
20
-5.51406
11
2.79286
21
-5.55531
0
LINE
8
BLACK
6
CONTINUOUS
10
2.84161
20
-5.55531
11
2.83411
21
-5.55156
0
LINE
8
BLACK
6
CONTINUOUS
10
2.83411
20
-5.55156
11
2.83036
21
-5.54781
0
LINE
8
BLACK
6
CONTINUOUS
10
2.83036
20
-5.54781
11
2.82661
21
-5.54031
0
LINE
8
BLACK
6
CONTINUOUS
10
2.82661
20
-5.54031
11
2.82661
21
-5.51781
0
LINE
8
BLACK
6
CONTINUOUS
10
2.82661
20
-5.51781
11
2.83036
21
-5.51031
0
LINE
8
BLACK
6
CONTINUOUS
10
2.83036
20
-5.51031
11
2.83411
21
-5.50656
0
LINE
8
BLACK
6
CONTINUOUS
10
2.83411
20
-5.50656
11
2.84161
21
-5.50282
0
LINE
8
BLACK
6
CONTINUOUS
10
2.84161
20
-5.50282
11
2.85286
21
-5.50282
0
LINE
8
BLACK
6
CONTINUOUS
10
2.85286
20
-5.50282
11
2.86035
21
-5.50656
0
LINE
8
BLACK
6
CONTINUOUS
10
2.86035
20
-5.50656
11
2.8641
21
-5.51031
0
LINE
8
BLACK
6
CONTINUOUS
10
2.8641
20
-5.51031
11
2.86785
21
-5.51781
0
LINE
8
BLACK
6
CONTINUOUS
10
2.86785
20
-5.51781
11
2.86785
21
-5.54031
0
LINE
8
BLACK
6
CONTINUOUS
10
2.86785
20
-5.54031
11
2.8641
21
-5.54781
0
LINE
8
BLACK
6
CONTINUOUS
10
2.8641
20
-5.54781
11
2.86035
21
-5.55156
0
LINE
8
BLACK
6
CONTINUOUS
10
2.86035
20
-5.55156
11
2.85286
21
-5.55531
0
LINE
8
BLACK
6
CONTINUOUS
10
2.85286
20
-5.55531
11
2.84161
21
-5.55531
0
LINE
8
BLACK
6
CONTINUOUS
10
2.89035
20
-5.50282
11
2.92035
21
-5.50282
0
LINE
8
BLACK
6
CONTINUOUS
10
2.9016
20
-5.47657
11
2.9016
21
-5.54406
0
LINE
8
BLACK
6
CONTINUOUS
10
2.9016
20
-5.54406
11
2.90535
21
-5.55156
0
LINE
8
BLACK
6
CONTINUOUS
10
2.90535
20
-5.55156
11
2.91285
21
-5.55531
0
LINE
8
BLACK
6
CONTINUOUS
10
2.91285
20
-5.55531
11
2.92035
21
-5.55531
0
LINE
8
BLACK
6
CONTINUOUS
10
3.00659
20
-5.50282
11
3.00659
21
-5.58156
0
LINE
8
BLACK
6
CONTINUOUS
10
3.00659
20
-5.50656
11
3.01409
21
-5.50282
0
LINE
8
BLACK
6
CONTINUOUS
10
3.01409
20
-5.50282
11
3.02908
21
-5.50282
0
LINE
8
BLACK
6
CONTINUOUS
10
3.02908
20
-5.50282
11
3.03658
21
-5.50656
0
LINE
8
BLACK
6
CONTINUOUS
10
3.03658
20
-5.50656
11
3.04033
21
-5.51031
0
LINE
8
BLACK
6
CONTINUOUS
10
3.04033
20
-5.51031
11
3.04408
21
-5.51781
0
LINE
8
BLACK
6
CONTINUOUS
10
3.04408
20
-5.51781
11
3.04408
21
-5.54031
0
LINE
8
BLACK
6
CONTINUOUS
10
3.04408
20
-5.54031
11
3.04033
21
-5.54781
0
LINE
8
BLACK
6
CONTINUOUS
10
3.04033
20
-5.54781
11
3.03658
21
-5.55156
0
LINE
8
BLACK
6
CONTINUOUS
10
3.03658
20
-5.55156
11
3.02908
21
-5.55531
0
LINE
8
BLACK
6
CONTINUOUS
10
3.02908
20
-5.55531
11
3.01409
21
-5.55531
0
LINE
8
BLACK
6
CONTINUOUS
10
3.01409
20
-5.55531
11
3.00659
21
-5.55156
0
LINE
8
BLACK
6
CONTINUOUS
10
3.08908
20
-5.55531
11
3.08158
21
-5.55156
0
LINE
8
BLACK
6
CONTINUOUS
10
3.08158
20
-5.55156
11
3.07783
21
-5.54406
0
LINE
8
BLACK
6
CONTINUOUS
10
3.07783
20
-5.54406
11
3.07783
21
-5.47657
0
LINE
8
BLACK
6
CONTINUOUS
10
3.15282
20
-5.55531
11
3.15282
21
-5.51406
0
LINE
8
BLACK
6
CONTINUOUS
10
3.15282
20
-5.51406
11
3.14907
21
-5.50656
0
LINE
8
BLACK
6
CONTINUOUS
10
3.14907
20
-5.50656
11
3.14157
21
-5.50282
0
LINE
8
BLACK
6
CONTINUOUS
10
3.14157
20
-5.50282
11
3.12657
21
-5.50282
0
LINE
8
BLACK
6
CONTINUOUS
10
3.12657
20
-5.50282
11
3.11907
21
-5.50656
0
LINE
8
BLACK
6
CONTINUOUS
10
3.15282
20
-5.55156
11
3.14532
21
-5.55531
0
LINE
8
BLACK
6
CONTINUOUS
10
3.14532
20
-5.55531
11
3.12657
21
-5.55531
0
LINE
8
BLACK
6
CONTINUOUS
10
3.12657
20
-5.55531
11
3.11907
21
-5.55156
0
LINE
8
BLACK
6
CONTINUOUS
10
3.11907
20
-5.55156
11
3.11532
21
-5.54406
0
LINE
8
BLACK
6
CONTINUOUS
10
3.11532
20
-5.54406
11
3.11532
21
-5.53656
0
LINE
8
BLACK
6
CONTINUOUS
10
3.11532
20
-5.53656
11
3.11907
21
-5.52906
0
LINE
8
BLACK
6
CONTINUOUS
10
3.11907
20
-5.52906
11
3.12657
21
-5.52531
0
LINE
8
BLACK
6
CONTINUOUS
10
3.12657
20
-5.52531
11
3.14532
21
-5.52531
0
LINE
8
BLACK
6
CONTINUOUS
10
3.14532
20
-5.52531
11
3.15282
21
-5.52156
0
LINE
8
BLACK
6
CONTINUOUS
10
3.17906
20
-5.50282
11
3.20906
21
-5.50282
0
LINE
8
BLACK
6
CONTINUOUS
10
3.19031
20
-5.47657
11
3.19031
21
-5.54406
0
LINE
8
BLACK
6
CONTINUOUS
10
3.19031
20
-5.54406
11
3.19406
21
-5.55156
0
LINE
8
BLACK
6
CONTINUOUS
10
3.19406
20
-5.55156
11
3.20156
21
-5.55531
0
LINE
8
BLACK
6
CONTINUOUS
10
3.20156
20
-5.55531
11
3.20906
21
-5.55531
0
LINE
8
BLACK
6
CONTINUOUS
10
3.2653
20
-5.55156
11
3.25781
21
-5.55531
0
LINE
8
BLACK
6
CONTINUOUS
10
3.25781
20
-5.55531
11
3.24281
21
-5.55531
0
LINE
8
BLACK
6
CONTINUOUS
10
3.24281
20
-5.55531
11
3.23531
21
-5.55156
0
LINE
8
BLACK
6
CONTINUOUS
10
3.23531
20
-5.55156
11
3.23156
21
-5.54406
0
LINE
8
BLACK
6
CONTINUOUS
10
3.23156
20
-5.54406
11
3.23156
21
-5.51406
0
LINE
8
BLACK
6
CONTINUOUS
10
3.23156
20
-5.51406
11
3.23531
21
-5.50656
0
LINE
8
BLACK
6
CONTINUOUS
10
3.23531
20
-5.50656
11
3.24281
21
-5.50282
0
LINE
8
BLACK
6
CONTINUOUS
10
3.24281
20
-5.50282
11
3.25781
21
-5.50282
0
LINE
8
BLACK
6
CONTINUOUS
10
3.25781
20
-5.50282
11
3.2653
21
-5.50656
0
LINE
8
BLACK
6
CONTINUOUS
10
3.2653
20
-5.50656
11
3.26905
21
-5.51406
0
LINE
8
BLACK
6
CONTINUOUS
10
3.26905
20
-5.51406
11
3.26905
21
-5.52156
0
LINE
8
BLACK
6
CONTINUOUS
10
3.26905
20
-5.52156
11
3.23156
21
-5.52906
0
LINE
8
BLACK
6
CONTINUOUS
10
3.33655
20
-5.55531
11
3.33655
21
-5.47657
0
LINE
8
BLACK
6
CONTINUOUS
10
3.33655
20
-5.55156
11
3.32905
21
-5.55531
0
LINE
8
BLACK
6
CONTINUOUS
10
3.32905
20
-5.55531
11
3.31405
21
-5.55531
0
LINE
8
BLACK
6
CONTINUOUS
10
3.31405
20
-5.55531
11
3.30655
21
-5.55156
0
LINE
8
BLACK
6
CONTINUOUS
10
3.30655
20
-5.55156
11
3.3028
21
-5.54781
0
LINE
8
BLACK
6
CONTINUOUS
10
3.3028
20
-5.54781
11
3.29905
21
-5.54031
0
LINE
8
BLACK
6
CONTINUOUS
10
3.29905
20
-5.54031
11
3.29905
21
-5.51781
0
LINE
8
BLACK
6
CONTINUOUS
10
3.29905
20
-5.51781
11
3.3028
21
-5.51031
0
LINE
8
BLACK
6
CONTINUOUS
10
3.3028
20
-5.51031
11
3.30655
21
-5.50656
0
LINE
8
BLACK
6
CONTINUOUS
10
3.30655
20
-5.50656
11
3.31405
21
-5.50282
0
LINE
8
BLACK
6
CONTINUOUS
10
3.31405
20
-5.50282
11
3.32905
21
-5.50282
0
LINE
8
BLACK
6
CONTINUOUS
10
3.32905
20
-5.50282
11
3.33655
21
-5.50656
0
LINE
8
BLACK
6
CONTINUOUS
10
3.36654
20
-5.5853
11
3.37029
21
-5.58156
0
LINE
8
BLACK
6
CONTINUOUS
10
3.37029
20
-5.58156
11
3.37779
21
-5.57031
0
LINE
8
BLACK
6
CONTINUOUS
10
3.37779
20
-5.57031
11
3.38154
21
-5.56281
0
LINE
8
BLACK
6
CONTINUOUS
10
3.38154
20
-5.56281
11
3.38529
21
-5.55156
0
LINE
8
BLACK
6
CONTINUOUS
10
3.38529
20
-5.55156
11
3.38904
21
-5.53281
0
LINE
8
BLACK
6
CONTINUOUS
10
3.38904
20
-5.53281
11
3.38904
21
-5.51781
0
LINE
8
BLACK
6
CONTINUOUS
10
3.38904
20
-5.51781
11
3.38529
21
-5.49907
0
LINE
8
BLACK
6
CONTINUOUS
10
3.38529
20
-5.49907
11
3.38154
21
-5.48782
0
LINE
8
BLACK
6
CONTINUOUS
10
3.38154
20
-5.48782
11
3.37779
21
-5.48032
0
LINE
8
BLACK
6
CONTINUOUS
10
3.37779
20
-5.48032
11
3.37029
21
-5.46907
0
LINE
8
BLACK
6
CONTINUOUS
10
3.37029
20
-5.46907
11
3.36654
21
-5.46532
0
LINE
8
BLACK
6
CONTINUOUS
10
0.667323
20
-5.68465
11
0.706693
21
-5.64528
0
LINE
8
BLACK
6
CONTINUOUS
10
0.706693
20
-5.64528
11
0.667323
21
-5.60591
0
LINE
8
BLACK
6
CONTINUOUS
10
0.667323
20
-5.60591
11
0.627953
21
-5.64528
0
LINE
8
BLACK
6
CONTINUOUS
10
0.627953
20
-5.64528
11
0.667323
21
-5.68465
0
LINE
8
BLACK
6
CONTINUOUS
10
0.843107
20
-5.6288
11
0.843107
21
-5.68129
0
LINE
8
BLACK
6
CONTINUOUS
10
0.824359
20
-5.5988
11
0.805611
21
-5.65505
0
LINE
8
BLACK
6
CONTINUOUS
10
0.805611
20
-5.65505
11
0.854355
21
-5.65505
0
LINE
8
BLACK
6
CONTINUOUS
10
0.884352
20
-5.67379
11
0.888101
21
-5.67754
0
LINE
8
BLACK
6
CONTINUOUS
10
0.888101
20
-5.67754
11
0.884352
21
-5.68129
0
LINE
8
BLACK
6
CONTINUOUS
10
0.884352
20
-5.68129
11
0.880602
21
-5.67754
0
LINE
8
BLACK
6
CONTINUOUS
10
0.880602
20
-5.67754
11
0.884352
21
-5.67379
0
LINE
8
BLACK
6
CONTINUOUS
10
0.884352
20
-5.67379
11
0.884352
21
-5.68129
0
LINE
8
BLACK
6
CONTINUOUS
10
0.936845
20
-5.60255
11
0.944344
21
-5.60255
0
LINE
8
BLACK
6
CONTINUOUS
10
0.944344
20
-5.60255
11
0.951843
21
-5.6063
0
LINE
8
BLACK
6
CONTINUOUS
10
0.951843
20
-5.6063
11
0.955593
21
-5.61005
0
LINE
8
BLACK
6
CONTINUOUS
10
0.955593
20
-5.61005
11
0.959342
21
-5.61755
0
LINE
8
BLACK
6
CONTINUOUS
10
0.959342
20
-5.61755
11
0.963092
21
-5.63255
0
LINE
8
BLACK
6
CONTINUOUS
10
0.963092
20
-5.63255
11
0.963092
21
-5.6513
0
LINE
8
BLACK
6
CONTINUOUS
10
0.963092
20
-5.6513
11
0.959342
21
-5.66629
0
LINE
8
BLACK
6
CONTINUOUS
10
0.959342
20
-5.66629
11
0.955593
21
-5.67379
0
LINE
8
BLACK
6
CONTINUOUS
10
0.955593
20
-5.67379
11
0.951843
21
-5.67754
0
LINE
8
BLACK
6
CONTINUOUS
10
0.951843
20
-5.67754
11
0.944344
21
-5.68129
0
LINE
8
BLACK
6
CONTINUOUS
10
0.944344
20
-5.68129
11
0.936845
21
-5.68129
0
LINE
8
BLACK
6
CONTINUOUS
10
0.936845
20
-5.68129
11
0.929346
21
-5.67754
0
LINE
8
BLACK
6
CONTINUOUS
10
0.929346
20
-5.67754
11
0.925596
21
-5.67379
0
LINE
8
BLACK
6
CONTINUOUS
10
0.925596
20
-5.67379
11
0.921847
21
-5.66629
0
LINE
8
BLACK
6
CONTINUOUS
10
0.921847
20
-5.66629
11
0.918097
21
-5.6513
0
LINE
8
BLACK
6
CONTINUOUS
10
0.918097
20
-5.6513
11
0.918097
21
-5.63255
0
LINE
8
BLACK
6
CONTINUOUS
10
0.918097
20
-5.63255
11
0.921847
21
-5.61755
0
LINE
8
BLACK
6
CONTINUOUS
10
0.921847
20
-5.61755
11
0.925596
21
-5.61005
0
LINE
8
BLACK
6
CONTINUOUS
10
0.925596
20
-5.61005
11
0.929346
21
-5.6063
0
LINE
8
BLACK
6
CONTINUOUS
10
0.929346
20
-5.6063
11
0.936845
21
-5.60255
0
LINE
8
BLACK
6
CONTINUOUS
10
1.01184
20
-5.60255
11
1.01933
21
-5.60255
0
LINE
8
BLACK
6
CONTINUOUS
10
1.01933
20
-5.60255
11
1.02683
21
-5.6063
0
LINE
8
BLACK
6
CONTINUOUS
10
1.02683
20
-5.6063
11
1.03058
21
-5.61005
0
LINE
8
BLACK
6
CONTINUOUS
10
1.03058
20
-5.61005
11
1.03433
21
-5.61755
0
LINE
8
BLACK
6
CONTINUOUS
10
1.03433
20
-5.61755
11
1.03808
21
-5.63255
0
LINE
8
BLACK
6
CONTINUOUS
10
1.03808
20
-5.63255
11
1.03808
21
-5.6513
0
LINE
8
BLACK
6
CONTINUOUS
10
1.03808
20
-5.6513
11
1.03433
21
-5.66629
0
LINE
8
BLACK
6
CONTINUOUS
10
1.03433
20
-5.66629
11
1.03058
21
-5.67379
0
LINE
8
BLACK
6
CONTINUOUS
10
1.03058
20
-5.67379
11
1.02683
21
-5.67754
0
LINE
8
BLACK
6
CONTINUOUS
10
1.02683
20
-5.67754
11
1.01933
21
-5.68129
0
LINE
8
BLACK
6
CONTINUOUS
10
1.01933
20
-5.68129
11
1.01184
21
-5.68129
0
LINE
8
BLACK
6
CONTINUOUS
10
1.01184
20
-5.68129
11
1.00434
21
-5.67754
0
LINE
8
BLACK
6
CONTINUOUS
10
1.00434
20
-5.67754
11
1.00059
21
-5.67379
0
LINE
8
BLACK
6
CONTINUOUS
10
1.00059
20
-5.67379
11
0.996838
21
-5.66629
0
LINE
8
BLACK
6
CONTINUOUS
10
0.996838
20
-5.66629
11
0.993088
21
-5.6513
0
LINE
8
BLACK
6
CONTINUOUS
10
0.993088
20
-5.6513
11
0.993088
21
-5.63255
0
LINE
8
BLACK
6
CONTINUOUS
10
0.993088
20
-5.63255
11
0.996838
21
-5.61755
0
LINE
8
BLACK
6
CONTINUOUS
10
0.996838
20
-5.61755
11
1.00059
21
-5.61005
0
LINE
8
BLACK
6
CONTINUOUS
10
1.00059
20
-5.61005
11
1.00434
21
-5.6063
0
LINE
8
BLACK
6
CONTINUOUS
10
1.00434
20
-5.6063
11
1.01184
21
-5.60255
0
LINE
8
BLACK
6
CONTINUOUS
10
1.08683
20
-5.60255
11
1.09433
21
-5.60255
0
LINE
8
BLACK
6
CONTINUOUS
10
1.09433
20
-5.60255
11
1.10182
21
-5.6063
0
LINE
8
BLACK
6
CONTINUOUS
10
1.10182
20
-5.6063
11
1.10557
21
-5.61005
0
LINE
8
BLACK
6
CONTINUOUS
10
1.10557
20
-5.61005
11
1.10932
21
-5.61755
0
LINE
8
BLACK
6
CONTINUOUS
10
1.10932
20
-5.61755
11
1.11307
21
-5.63255
0
LINE
8
BLACK
6
CONTINUOUS
10
1.11307
20
-5.63255
11
1.11307
21
-5.6513
0
LINE
8
BLACK
6
CONTINUOUS
10
1.11307
20
-5.6513
11
1.10932
21
-5.66629
0
LINE
8
BLACK
6
CONTINUOUS
10
1.10932
20
-5.66629
11
1.10557
21
-5.67379
0
LINE
8
BLACK
6
CONTINUOUS
10
1.10557
20
-5.67379
11
1.10182
21
-5.67754
0
LINE
8
BLACK
6
CONTINUOUS
10
1.10182
20
-5.67754
11
1.09433
21
-5.68129
0
LINE
8
BLACK
6
CONTINUOUS
10
1.09433
20
-5.68129
11
1.08683
21
-5.68129
0
LINE
8
BLACK
6
CONTINUOUS
10
1.08683
20
-5.68129
11
1.07933
21
-5.67754
0
LINE
8
BLACK
6
CONTINUOUS
10
1.07933
20
-5.67754
11
1.07558
21
-5.67379
0
LINE
8
BLACK
6
CONTINUOUS
10
1.07558
20
-5.67379
11
1.07183
21
-5.66629
0
LINE
8
BLACK
6
CONTINUOUS
10
1.07183
20
-5.66629
11
1.06808
21
-5.6513
0
LINE
8
BLACK
6
CONTINUOUS
10
1.06808
20
-5.6513
11
1.06808
21
-5.63255
0
LINE
8
BLACK
6
CONTINUOUS
10
1.06808
20
-5.63255
11
1.07183
21
-5.61755
0
LINE
8
BLACK
6
CONTINUOUS
10
1.07183
20
-5.61755
11
1.07558
21
-5.61005
0
LINE
8
BLACK
6
CONTINUOUS
10
1.07558
20
-5.61005
11
1.07933
21
-5.6063
0
LINE
8
BLACK
6
CONTINUOUS
10
1.07933
20
-5.6063
11
1.08683
21
-5.60255
0
LINE
8
BLACK
6
CONTINUOUS
10
1.14682
20
-5.68129
11
1.14682
21
-5.6288
0
LINE
8
BLACK
6
CONTINUOUS
10
1.14682
20
-5.6363
11
1.15057
21
-5.63255
0
LINE
8
BLACK
6
CONTINUOUS
10
1.15057
20
-5.63255
11
1.15807
21
-5.6288
0
LINE
8
BLACK
6
CONTINUOUS
10
1.15807
20
-5.6288
11
1.16932
21
-5.6288
0
LINE
8
BLACK
6
CONTINUOUS
10
1.16932
20
-5.6288
11
1.17682
21
-5.63255
0
LINE
8
BLACK
6
CONTINUOUS
10
1.17682
20
-5.63255
11
1.18056
21
-5.64005
0
LINE
8
BLACK
6
CONTINUOUS
10
1.18056
20
-5.64005
11
1.18056
21
-5.68129
0
LINE
8
BLACK
6
CONTINUOUS
10
1.18056
20
-5.64005
11
1.18431
21
-5.63255
0
LINE
8
BLACK
6
CONTINUOUS
10
1.18431
20
-5.63255
11
1.19181
21
-5.6288
0
LINE
8
BLACK
6
CONTINUOUS
10
1.19181
20
-5.6288
11
1.20306
21
-5.6288
0
LINE
8
BLACK
6
CONTINUOUS
10
1.20306
20
-5.6288
11
1.21056
21
-5.63255
0
LINE
8
BLACK
6
CONTINUOUS
10
1.21056
20
-5.63255
11
1.21431
21
-5.64005
0
LINE
8
BLACK
6
CONTINUOUS
10
1.21431
20
-5.64005
11
1.21431
21
-5.68129
0
LINE
8
BLACK
6
CONTINUOUS
10
1.25181
20
-5.68129
11
1.25181
21
-5.6288
0
LINE
8
BLACK
6
CONTINUOUS
10
1.25181
20
-5.6363
11
1.25556
21
-5.63255
0
LINE
8
BLACK
6
CONTINUOUS
10
1.25556
20
-5.63255
11
1.26305
21
-5.6288
0
LINE
8
BLACK
6
CONTINUOUS
10
1.26305
20
-5.6288
11
1.2743
21
-5.6288
0
LINE
8
BLACK
6
CONTINUOUS
10
1.2743
20
-5.6288
11
1.2818
21
-5.63255
0
LINE
8
BLACK
6
CONTINUOUS
10
1.2818
20
-5.63255
11
1.28555
21
-5.64005
0
LINE
8
BLACK
6
CONTINUOUS
10
1.28555
20
-5.64005
11
1.28555
21
-5.68129
0
LINE
8
BLACK
6
CONTINUOUS
10
1.28555
20
-5.64005
11
1.2893
21
-5.63255
0
LINE
8
BLACK
6
CONTINUOUS
10
1.2893
20
-5.63255
11
1.2968
21
-5.6288
0
LINE
8
BLACK
6
CONTINUOUS
10
1.2968
20
-5.6288
11
1.30805
21
-5.6288
0
LINE
8
BLACK
6
CONTINUOUS
10
1.30805
20
-5.6288
11
1.31555
21
-5.63255
0
LINE
8
BLACK
6
CONTINUOUS
10
1.31555
20
-5.63255
11
1.3193
21
-5.64005
0
LINE
8
BLACK
6
CONTINUOUS
10
1.3193
20
-5.64005
11
1.3193
21
-5.68129
0
LINE
8
BLACK
6
CONTINUOUS
10
1.47303
20
-5.5988
11
1.40554
21
-5.70004
0
LINE
8
BLACK
6
CONTINUOUS
10
1.57427
20
-5.60255
11
1.58176
21
-5.60255
0
LINE
8
BLACK
6
CONTINUOUS
10
1.58176
20
-5.60255
11
1.58926
21
-5.6063
0
LINE
8
BLACK
6
CONTINUOUS
10
1.58926
20
-5.6063
11
1.59301
21
-5.61005
0
LINE
8
BLACK
6
CONTINUOUS
10
1.59301
20
-5.61005
11
1.59676
21
-5.61755
0
LINE
8
BLACK
6
CONTINUOUS
10
1.59676
20
-5.61755
11
1.60051
21
-5.63255
0
LINE
8
BLACK
6
CONTINUOUS
10
1.60051
20
-5.63255
11
1.60051
21
-5.6513
0
LINE
8
BLACK
6
CONTINUOUS
10
1.60051
20
-5.6513
11
1.59676
21
-5.66629
0
LINE
8
BLACK
6
CONTINUOUS
10
1.59676
20
-5.66629
11
1.59301
21
-5.67379
0
LINE
8
BLACK
6
CONTINUOUS
10
1.59301
20
-5.67379
11
1.58926
21
-5.67754
0
LINE
8
BLACK
6
CONTINUOUS
10
1.58926
20
-5.67754
11
1.58176
21
-5.68129
0
LINE
8
BLACK
6
CONTINUOUS
10
1.58176
20
-5.68129
11
1.57427
21
-5.68129
0
LINE
8
BLACK
6
CONTINUOUS
10
1.57427
20
-5.68129
11
1.56677
21
-5.67754
0
LINE
8
BLACK
6
CONTINUOUS
10
1.56677
20
-5.67754
11
1.56302
21
-5.67379
0
LINE
8
BLACK
6
CONTINUOUS
10
1.56302
20
-5.67379
11
1.55927
21
-5.66629
0
LINE
8
BLACK
6
CONTINUOUS
10
1.55927
20
-5.66629
11
1.55552
21
-5.6513
0
LINE
8
BLACK
6
CONTINUOUS
10
1.55552
20
-5.6513
11
1.55552
21
-5.63255
0
LINE
8
BLACK
6
CONTINUOUS
10
1.55552
20
-5.63255
11
1.55927
21
-5.61755
0
LINE
8
BLACK
6
CONTINUOUS
10
1.55927
20
-5.61755
11
1.56302
21
-5.61005
0
LINE
8
BLACK
6
CONTINUOUS
10
1.56302
20
-5.61005
11
1.56677
21
-5.6063
0
LINE
8
BLACK
6
CONTINUOUS
10
1.56677
20
-5.6063
11
1.57427
21
-5.60255
0
LINE
8
BLACK
6
CONTINUOUS
10
1.63426
20
-5.67379
11
1.63801
21
-5.67754
0
LINE
8
BLACK
6
CONTINUOUS
10
1.63801
20
-5.67754
11
1.63426
21
-5.68129
0
LINE
8
BLACK
6
CONTINUOUS
10
1.63426
20
-5.68129
11
1.63051
21
-5.67754
0
LINE
8
BLACK
6
CONTINUOUS
10
1.63051
20
-5.67754
11
1.63426
21
-5.67379
0
LINE
8
BLACK
6
CONTINUOUS
10
1.63426
20
-5.67379
11
1.63426
21
-5.68129
0
LINE
8
BLACK
6
CONTINUOUS
10
1.713
20
-5.68129
11
1.668
21
-5.68129
0
LINE
8
BLACK
6
CONTINUOUS
10
1.6905
20
-5.68129
11
1.6905
21
-5.60255
0
LINE
8
BLACK
6
CONTINUOUS
10
1.6905
20
-5.60255
11
1.683
21
-5.6138
0
LINE
8
BLACK
6
CONTINUOUS
10
1.683
20
-5.6138
11
1.6755
21
-5.6213
0
LINE
8
BLACK
6
CONTINUOUS
10
1.6755
20
-5.6213
11
1.668
21
-5.62505
0
LINE
8
BLACK
6
CONTINUOUS
10
1.78424
20
-5.60255
11
1.74674
21
-5.60255
0
LINE
8
BLACK
6
CONTINUOUS
10
1.74674
20
-5.60255
11
1.74299
21
-5.64005
0
LINE
8
BLACK
6
CONTINUOUS
10
1.74299
20
-5.64005
11
1.74674
21
-5.6363
0
LINE
8
BLACK
6
CONTINUOUS
10
1.74674
20
-5.6363
11
1.75424
21
-5.63255
0
LINE
8
BLACK
6
CONTINUOUS
10
1.75424
20
-5.63255
11
1.77299
21
-5.63255
0
LINE
8
BLACK
6
CONTINUOUS
10
1.77299
20
-5.63255
11
1.78049
21
-5.6363
0
LINE
8
BLACK
6
CONTINUOUS
10
1.78049
20
-5.6363
11
1.78424
21
-5.64005
0
LINE
8
BLACK
6
CONTINUOUS
10
1.78424
20
-5.64005
11
1.78799
21
-5.64755
0
LINE
8
BLACK
6
CONTINUOUS
10
1.78799
20
-5.64755
11
1.78799
21
-5.66629
0
LINE
8
BLACK
6
CONTINUOUS
10
1.78799
20
-5.66629
11
1.78424
21
-5.67379
0
LINE
8
BLACK
6
CONTINUOUS
10
1.78424
20
-5.67379
11
1.78049
21
-5.67754
0
LINE
8
BLACK
6
CONTINUOUS
10
1.78049
20
-5.67754
11
1.77299
21
-5.68129
0
LINE
8
BLACK
6
CONTINUOUS
10
1.77299
20
-5.68129
11
1.75424
21
-5.68129
0
LINE
8
BLACK
6
CONTINUOUS
10
1.75424
20
-5.68129
11
1.74674
21
-5.67754
0
LINE
8
BLACK
6
CONTINUOUS
10
1.74674
20
-5.67754
11
1.74299
21
-5.67379
0
LINE
8
BLACK
6
CONTINUOUS
10
1.81424
20
-5.60255
11
1.86673
21
-5.60255
0
LINE
8
BLACK
6
CONTINUOUS
10
1.86673
20
-5.60255
11
1.83298
21
-5.68129
0
LINE
8
BLACK
6
CONTINUOUS
10
1.93422
20
-5.60255
11
1.89673
21
-5.60255
0
LINE
8
BLACK
6
CONTINUOUS
10
1.89673
20
-5.60255
11
1.89298
21
-5.64005
0
LINE
8
BLACK
6
CONTINUOUS
10
1.89298
20
-5.64005
11
1.89673
21
-5.6363
0
LINE
8
BLACK
6
CONTINUOUS
10
1.89673
20
-5.6363
11
1.90422
21
-5.63255
0
LINE
8
BLACK
6
CONTINUOUS
10
1.90422
20
-5.63255
11
1.92297
21
-5.63255
0
LINE
8
BLACK
6
CONTINUOUS
10
1.92297
20
-5.63255
11
1.93047
21
-5.6363
0
LINE
8
BLACK
6
CONTINUOUS
10
1.93047
20
-5.6363
11
1.93422
21
-5.64005
0
LINE
8
BLACK
6
CONTINUOUS
10
1.93422
20
-5.64005
11
1.93797
21
-5.64755
0
LINE
8
BLACK
6
CONTINUOUS
10
1.93797
20
-5.64755
11
1.93797
21
-5.66629
0
LINE
8
BLACK
6
CONTINUOUS
10
1.93797
20
-5.66629
11
1.93422
21
-5.67379
0
LINE
8
BLACK
6
CONTINUOUS
10
1.93422
20
-5.67379
11
1.93047
21
-5.67754
0
LINE
8
BLACK
6
CONTINUOUS
10
1.93047
20
-5.67754
11
1.92297
21
-5.68129
0
LINE
8
BLACK
6
CONTINUOUS
10
1.92297
20
-5.68129
11
1.90422
21
-5.68129
0
LINE
8
BLACK
6
CONTINUOUS
10
1.90422
20
-5.68129
11
1.89673
21
-5.67754
0
LINE
8
BLACK
6
CONTINUOUS
10
1.89673
20
-5.67754
11
1.89298
21
-5.67379
0
LINE
8
BLACK
6
CONTINUOUS
10
1.96797
20
-5.60255
11
1.96797
21
-5.61755
0
LINE
8
BLACK
6
CONTINUOUS
10
1.99796
20
-5.60255
11
1.99796
21
-5.61755
0
LINE
8
BLACK
6
CONTINUOUS
10
2.1142
20
-5.71129
11
2.11045
21
-5.70754
0
LINE
8
BLACK
6
CONTINUOUS
10
2.11045
20
-5.70754
11
2.10295
21
-5.69629
0
LINE
8
BLACK
6
CONTINUOUS
10
2.10295
20
-5.69629
11
2.0992
21
-5.68879
0
LINE
8
BLACK
6
CONTINUOUS
10
2.0992
20
-5.68879
11
2.09545
21
-5.67754
0
LINE
8
BLACK
6
CONTINUOUS
10
2.09545
20
-5.67754
11
2.0917
21
-5.6588
0
LINE
8
BLACK
6
CONTINUOUS
10
2.0917
20
-5.6588
11
2.0917
21
-5.6438
0
LINE
8
BLACK
6
CONTINUOUS
10
2.0917
20
-5.6438
11
2.09545
21
-5.62505
0
LINE
8
BLACK
6
CONTINUOUS
10
2.09545
20
-5.62505
11
2.0992
21
-5.6138
0
LINE
8
BLACK
6
CONTINUOUS
10
2.0992
20
-5.6138
11
2.10295
21
-5.6063
0
LINE
8
BLACK
6
CONTINUOUS
10
2.10295
20
-5.6063
11
2.11045
21
-5.59505
0
LINE
8
BLACK
6
CONTINUOUS
10
2.11045
20
-5.59505
11
2.1142
21
-5.5913
0
LINE
8
BLACK
6
CONTINUOUS
10
2.14044
20
-5.61005
11
2.14419
21
-5.6063
0
LINE
8
BLACK
6
CONTINUOUS
10
2.14419
20
-5.6063
11
2.15169
21
-5.60255
0
LINE
8
BLACK
6
CONTINUOUS
10
2.15169
20
-5.60255
11
2.17044
21
-5.60255
0
LINE
8
BLACK
6
CONTINUOUS
10
2.17044
20
-5.60255
11
2.17794
21
-5.6063
0
LINE
8
BLACK
6
CONTINUOUS
10
2.17794
20
-5.6063
11
2.18169
21
-5.61005
0
LINE
8
BLACK
6
CONTINUOUS
10
2.18169
20
-5.61005
11
2.18544
21
-5.61755
0
LINE
8
BLACK
6
CONTINUOUS
10
2.18544
20
-5.61755
11
2.18544
21
-5.62505
0
LINE
8
BLACK
6
CONTINUOUS
10
2.18544
20
-5.62505
11
2.18169
21
-5.6363
0
LINE
8
BLACK
6
CONTINUOUS
10
2.18169
20
-5.6363
11
2.1367
21
-5.68129
0
LINE
8
BLACK
6
CONTINUOUS
10
2.1367
20
-5.68129
11
2.18544
21
-5.68129
0
LINE
8
BLACK
6
CONTINUOUS
10
2.23043
20
-5.6363
11
2.22293
21
-5.63255
0
LINE
8
BLACK
6
CONTINUOUS
10
2.22293
20
-5.63255
11
2.21918
21
-5.6288
0
LINE
8
BLACK
6
CONTINUOUS
10
2.21918
20
-5.6288
11
2.21544
21
-5.6213
0
LINE
8
BLACK
6
CONTINUOUS
10
2.21544
20
-5.6213
11
2.21544
21
-5.61755
0
LINE
8
BLACK
6
CONTINUOUS
10
2.21544
20
-5.61755
11
2.21918
21
-5.61005
0
LINE
8
BLACK
6
CONTINUOUS
10
2.21918
20
-5.61005
11
2.22293
21
-5.6063
0
LINE
8
BLACK
6
CONTINUOUS
10
2.22293
20
-5.6063
11
2.23043
21
-5.60255
0
LINE
8
BLACK
6
CONTINUOUS
10
2.23043
20
-5.60255
11
2.24543
21
-5.60255
0
LINE
8
BLACK
6
CONTINUOUS
10
2.24543
20
-5.60255
11
2.25293
21
-5.6063
0
LINE
8
BLACK
6
CONTINUOUS
10
2.25293
20
-5.6063
11
2.25668
21
-5.61005
0
LINE
8
BLACK
6
CONTINUOUS
10
2.25668
20
-5.61005
11
2.26043
21
-5.61755
0
LINE
8
BLACK
6
CONTINUOUS
10
2.26043
20
-5.61755
11
2.26043
21
-5.6213
0
LINE
8
BLACK
6
CONTINUOUS
10
2.26043
20
-5.6213
11
2.25668
21
-5.6288
0
LINE
8
BLACK
6
CONTINUOUS
10
2.25668
20
-5.6288
11
2.25293
21
-5.63255
0
LINE
8
BLACK
6
CONTINUOUS
10
2.25293
20
-5.63255
11
2.24543
21
-5.6363
0
LINE
8
BLACK
6
CONTINUOUS
10
2.24543
20
-5.6363
11
2.23043
21
-5.6363
0
LINE
8
BLACK
6
CONTINUOUS
10
2.23043
20
-5.6363
11
2.22293
21
-5.64005
0
LINE
8
BLACK
6
CONTINUOUS
10
2.22293
20
-5.64005
11
2.21918
21
-5.6438
0
LINE
8
BLACK
6
CONTINUOUS
10
2.21918
20
-5.6438
11
2.21544
21
-5.6513
0
LINE
8
BLACK
6
CONTINUOUS
10
2.21544
20
-5.6513
11
2.21544
21
-5.66629
0
LINE
8
BLACK
6
CONTINUOUS
10
2.21544
20
-5.66629
11
2.21918
21
-5.67379
0
LINE
8
BLACK
6
CONTINUOUS
10
2.21918
20
-5.67379
11
2.22293
21
-5.67754
0
LINE
8
BLACK
6
CONTINUOUS
10
2.22293
20
-5.67754
11
2.23043
21
-5.68129
0
LINE
8
BLACK
6
CONTINUOUS
10
2.23043
20
-5.68129
11
2.24543
21
-5.68129
0
LINE
8
BLACK
6
CONTINUOUS
10
2.24543
20
-5.68129
11
2.25293
21
-5.67754
0
LINE
8
BLACK
6
CONTINUOUS
10
2.25293
20
-5.67754
11
2.25668
21
-5.67379
0
LINE
8
BLACK
6
CONTINUOUS
10
2.25668
20
-5.67379
11
2.26043
21
-5.66629
0
LINE
8
BLACK
6
CONTINUOUS
10
2.26043
20
-5.66629
11
2.26043
21
-5.6513
0
LINE
8
BLACK
6
CONTINUOUS
10
2.26043
20
-5.6513
11
2.25668
21
-5.6438
0
LINE
8
BLACK
6
CONTINUOUS
10
2.25668
20
-5.6438
11
2.25293
21
-5.64005
0
LINE
8
BLACK
6
CONTINUOUS
10
2.25293
20
-5.64005
11
2.24543
21
-5.6363
0
LINE
8
BLACK
6
CONTINUOUS
10
2.35417
20
-5.68129
11
2.35417
21
-5.60255
0
LINE
8
BLACK
6
CONTINUOUS
10
2.38791
20
-5.68129
11
2.38791
21
-5.64005
0
LINE
8
BLACK
6
CONTINUOUS
10
2.38791
20
-5.64005
11
2.38416
21
-5.63255
0
LINE
8
BLACK
6
CONTINUOUS
10
2.38416
20
-5.63255
11
2.37667
21
-5.6288
0
LINE
8
BLACK
6
CONTINUOUS
10
2.37667
20
-5.6288
11
2.36542
21
-5.6288
0
LINE
8
BLACK
6
CONTINUOUS
10
2.36542
20
-5.6288
11
2.35792
21
-5.63255
0
LINE
8
BLACK
6
CONTINUOUS
10
2.35792
20
-5.63255
11
2.35417
21
-5.6363
0
LINE
8
BLACK
6
CONTINUOUS
10
2.43666
20
-5.68129
11
2.42916
21
-5.67754
0
LINE
8
BLACK
6
CONTINUOUS
10
2.42916
20
-5.67754
11
2.42541
21
-5.67379
0
LINE
8
BLACK
6
CONTINUOUS
10
2.42541
20
-5.67379
11
2.42166
21
-5.66629
0
LINE
8
BLACK
6
CONTINUOUS
10
2.42166
20
-5.66629
11
2.42166
21
-5.6438
0
LINE
8
BLACK
6
CONTINUOUS
10
2.42166
20
-5.6438
11
2.42541
21
-5.6363
0
LINE
8
BLACK
6
CONTINUOUS
10
2.42541
20
-5.6363
11
2.42916
21
-5.63255
0
LINE
8
BLACK
6
CONTINUOUS
10
2.42916
20
-5.63255
11
2.43666
21
-5.6288
0
LINE
8
BLACK
6
CONTINUOUS
10
2.43666
20
-5.6288
11
2.44791
21
-5.6288
0
LINE
8
BLACK
6
CONTINUOUS
10
2.44791
20
-5.6288
11
2.45541
21
-5.63255
0
LINE
8
BLACK
6
CONTINUOUS
10
2.45541
20
-5.63255
11
2.45915
21
-5.6363
0
LINE
8
BLACK
6
CONTINUOUS
10
2.45915
20
-5.6363
11
2.4629
21
-5.6438
0
LINE
8
BLACK
6
CONTINUOUS
10
2.4629
20
-5.6438
11
2.4629
21
-5.66629
0
LINE
8
BLACK
6
CONTINUOUS
10
2.4629
20
-5.66629
11
2.45915
21
-5.67379
0
LINE
8
BLACK
6
CONTINUOUS
10
2.45915
20
-5.67379
11
2.45541
21
-5.67754
0
LINE
8
BLACK
6
CONTINUOUS
10
2.45541
20
-5.67754
11
2.44791
21
-5.68129
0
LINE
8
BLACK
6
CONTINUOUS
10
2.44791
20
-5.68129
11
2.43666
21
-5.68129
0
LINE
8
BLACK
6
CONTINUOUS
10
2.5079
20
-5.68129
11
2.5004
21
-5.67754
0
LINE
8
BLACK
6
CONTINUOUS
10
2.5004
20
-5.67754
11
2.49665
21
-5.67004
0
LINE
8
BLACK
6
CONTINUOUS
10
2.49665
20
-5.67004
11
2.49665
21
-5.60255
0
LINE
8
BLACK
6
CONTINUOUS
10
2.56789
20
-5.67754
11
2.56039
21
-5.68129
0
LINE
8
BLACK
6
CONTINUOUS
10
2.56039
20
-5.68129
11
2.54539
21
-5.68129
0
LINE
8
BLACK
6
CONTINUOUS
10
2.54539
20
-5.68129
11
2.5379
21
-5.67754
0
LINE
8
BLACK
6
CONTINUOUS
10
2.5379
20
-5.67754
11
2.53415
21
-5.67004
0
LINE
8
BLACK
6
CONTINUOUS
10
2.53415
20
-5.67004
11
2.53415
21
-5.64005
0
LINE
8
BLACK
6
CONTINUOUS
10
2.53415
20
-5.64005
11
2.5379
21
-5.63255
0
LINE
8
BLACK
6
CONTINUOUS
10
2.5379
20
-5.63255
11
2.54539
21
-5.6288
0
LINE
8
BLACK
6
CONTINUOUS
10
2.54539
20
-5.6288
11
2.56039
21
-5.6288
0
LINE
8
BLACK
6
CONTINUOUS
10
2.56039
20
-5.6288
11
2.56789
21
-5.63255
0
LINE
8
BLACK
6
CONTINUOUS
10
2.56789
20
-5.63255
11
2.57164
21
-5.64005
0
LINE
8
BLACK
6
CONTINUOUS
10
2.57164
20
-5.64005
11
2.57164
21
-5.64755
0
LINE
8
BLACK
6
CONTINUOUS
10
2.57164
20
-5.64755
11
2.53415
21
-5.65505
0
LINE
8
BLACK
6
CONTINUOUS
10
2.60164
20
-5.67754
11
2.60914
21
-5.68129
0
LINE
8
BLACK
6
CONTINUOUS
10
2.60914
20
-5.68129
11
2.62413
21
-5.68129
0
LINE
8
BLACK
6
CONTINUOUS
10
2.62413
20
-5.68129
11
2.63163
21
-5.67754
0
LINE
8
BLACK
6
CONTINUOUS
10
2.63163
20
-5.67754
11
2.63538
21
-5.67004
0
LINE
8
BLACK
6
CONTINUOUS
10
2.63538
20
-5.67004
11
2.63538
21
-5.66629
0
LINE
8
BLACK
6
CONTINUOUS
10
2.63538
20
-5.66629
11
2.63163
21
-5.6588
0
LINE
8
BLACK
6
CONTINUOUS
10
2.63163
20
-5.6588
11
2.62413
21
-5.65505
0
LINE
8
BLACK
6
CONTINUOUS
10
2.62413
20
-5.65505
11
2.61289
21
-5.65505
0
LINE
8
BLACK
6
CONTINUOUS
10
2.61289
20
-5.65505
11
2.60539
21
-5.6513
0
LINE
8
BLACK
6
CONTINUOUS
10
2.60539
20
-5.6513
11
2.60164
21
-5.6438
0
LINE
8
BLACK
6
CONTINUOUS
10
2.60164
20
-5.6438
11
2.60164
21
-5.64005
0
LINE
8
BLACK
6
CONTINUOUS
10
2.60164
20
-5.64005
11
2.60539
21
-5.63255
0
LINE
8
BLACK
6
CONTINUOUS
10
2.60539
20
-5.63255
11
2.61289
21
-5.6288
0
LINE
8
BLACK
6
CONTINUOUS
10
2.61289
20
-5.6288
11
2.62413
21
-5.6288
0
LINE
8
BLACK
6
CONTINUOUS
10
2.62413
20
-5.6288
11
2.63163
21
-5.63255
0
LINE
8
BLACK
6
CONTINUOUS
10
2.66163
20
-5.71129
11
2.66538
21
-5.70754
0
LINE
8
BLACK
6
CONTINUOUS
10
2.66538
20
-5.70754
11
2.67288
21
-5.69629
0
LINE
8
BLACK
6
CONTINUOUS
10
2.67288
20
-5.69629
11
2.67663
21
-5.68879
0
LINE
8
BLACK
6
CONTINUOUS
10
2.67663
20
-5.68879
11
2.68038
21
-5.67754
0
LINE
8
BLACK
6
CONTINUOUS
10
2.68038
20
-5.67754
11
2.68413
21
-5.6588
0
LINE
8
BLACK
6
CONTINUOUS
10
2.68413
20
-5.6588
11
2.68413
21
-5.6438
0
LINE
8
BLACK
6
CONTINUOUS
10
2.68413
20
-5.6438
11
2.68038
21
-5.62505
0
LINE
8
BLACK
6
CONTINUOUS
10
2.68038
20
-5.62505
11
2.67663
21
-5.6138
0
LINE
8
BLACK
6
CONTINUOUS
10
2.67663
20
-5.6138
11
2.67288
21
-5.6063
0
LINE
8
BLACK
6
CONTINUOUS
10
2.67288
20
-5.6063
11
2.66538
21
-5.59505
0
LINE
8
BLACK
6
CONTINUOUS
10
2.66538
20
-5.59505
11
2.66163
21
-5.5913
0
LINE
8
BLACK
6
CONTINUOUS
10
2.80411
20
-5.71129
11
2.80036
21
-5.70754
0
LINE
8
BLACK
6
CONTINUOUS
10
2.80036
20
-5.70754
11
2.79286
21
-5.69629
0
LINE
8
BLACK
6
CONTINUOUS
10
2.79286
20
-5.69629
11
2.78911
21
-5.68879
0
LINE
8
BLACK
6
CONTINUOUS
10
2.78911
20
-5.68879
11
2.78536
21
-5.67754
0
LINE
8
BLACK
6
CONTINUOUS
10
2.78536
20
-5.67754
11
2.78161
21
-5.6588
0
LINE
8
BLACK
6
CONTINUOUS
10
2.78161
20
-5.6588
11
2.78161
21
-5.6438
0
LINE
8
BLACK
6
CONTINUOUS
10
2.78161
20
-5.6438
11
2.78536
21
-5.62505
0
LINE
8
BLACK
6
CONTINUOUS
10
2.78536
20
-5.62505
11
2.78911
21
-5.6138
0
LINE
8
BLACK
6
CONTINUOUS
10
2.78911
20
-5.6138
11
2.79286
21
-5.6063
0
LINE
8
BLACK
6
CONTINUOUS
10
2.79286
20
-5.6063
11
2.80036
21
-5.59505
0
LINE
8
BLACK
6
CONTINUOUS
10
2.80036
20
-5.59505
11
2.80411
21
-5.5913
0
LINE
8
BLACK
6
CONTINUOUS
10
2.83411
20
-5.6288
11
2.83411
21
-5.68129
0
LINE
8
BLACK
6
CONTINUOUS
10
2.83411
20
-5.6363
11
2.83786
21
-5.63255
0
LINE
8
BLACK
6
CONTINUOUS
10
2.83786
20
-5.63255
11
2.84536
21
-5.6288
0
LINE
8
BLACK
6
CONTINUOUS
10
2.84536
20
-5.6288
11
2.85661
21
-5.6288
0
LINE
8
BLACK
6
CONTINUOUS
10
2.85661
20
-5.6288
11
2.8641
21
-5.63255
0
LINE
8
BLACK
6
CONTINUOUS
10
2.8641
20
-5.63255
11
2.86785
21
-5.64005
0
LINE
8
BLACK
6
CONTINUOUS
10
2.86785
20
-5.64005
11
2.86785
21
-5.68129
0
LINE
8
BLACK
6
CONTINUOUS
10
2.9166
20
-5.68129
11
2.9091
21
-5.67754
0
LINE
8
BLACK
6
CONTINUOUS
10
2.9091
20
-5.67754
11
2.90535
21
-5.67379
0
LINE
8
BLACK
6
CONTINUOUS
10
2.90535
20
-5.67379
11
2.9016
21
-5.66629
0
LINE
8
BLACK
6
CONTINUOUS
10
2.9016
20
-5.66629
11
2.9016
21
-5.6438
0
LINE
8
BLACK
6
CONTINUOUS
10
2.9016
20
-5.6438
11
2.90535
21
-5.6363
0
LINE
8
BLACK
6
CONTINUOUS
10
2.90535
20
-5.6363
11
2.9091
21
-5.63255
0
LINE
8
BLACK
6
CONTINUOUS
10
2.9091
20
-5.63255
11
2.9166
21
-5.6288
0
LINE
8
BLACK
6
CONTINUOUS
10
2.9166
20
-5.6288
11
2.92785
21
-5.6288
0
LINE
8
BLACK
6
CONTINUOUS
10
2.92785
20
-5.6288
11
2.93535
21
-5.63255
0
LINE
8
BLACK
6
CONTINUOUS
10
2.93535
20
-5.63255
11
2.93909
21
-5.6363
0
LINE
8
BLACK
6
CONTINUOUS
10
2.93909
20
-5.6363
11
2.94284
21
-5.6438
0
LINE
8
BLACK
6
CONTINUOUS
10
2.94284
20
-5.6438
11
2.94284
21
-5.66629
0
LINE
8
BLACK
6
CONTINUOUS
10
2.94284
20
-5.66629
11
2.93909
21
-5.67379
0
LINE
8
BLACK
6
CONTINUOUS
10
2.93909
20
-5.67379
11
2.93535
21
-5.67754
0
LINE
8
BLACK
6
CONTINUOUS
10
2.93535
20
-5.67754
11
2.92785
21
-5.68129
0
LINE
8
BLACK
6
CONTINUOUS
10
2.92785
20
-5.68129
11
2.9166
21
-5.68129
0
LINE
8
BLACK
6
CONTINUOUS
10
2.96534
20
-5.6288
11
2.99534
21
-5.6288
0
LINE
8
BLACK
6
CONTINUOUS
10
2.97659
20
-5.60255
11
2.97659
21
-5.67004
0
LINE
8
BLACK
6
CONTINUOUS
10
2.97659
20
-5.67004
11
2.98034
21
-5.67754
0
LINE
8
BLACK
6
CONTINUOUS
10
2.98034
20
-5.67754
11
2.98784
21
-5.68129
0
LINE
8
BLACK
6
CONTINUOUS
10
2.98784
20
-5.68129
11
2.99534
21
-5.68129
0
LINE
8
BLACK
6
CONTINUOUS
10
3.08158
20
-5.6288
11
3.08158
21
-5.70754
0
LINE
8
BLACK
6
CONTINUOUS
10
3.08158
20
-5.63255
11
3.08908
21
-5.6288
0
LINE
8
BLACK
6
CONTINUOUS
10
3.08908
20
-5.6288
11
3.10407
21
-5.6288
0
LINE
8
BLACK
6
CONTINUOUS
10
3.10407
20
-5.6288
11
3.11157
21
-5.63255
0
LINE
8
BLACK
6
CONTINUOUS
10
3.11157
20
-5.63255
11
3.11532
21
-5.6363
0
LINE
8
BLACK
6
CONTINUOUS
10
3.11532
20
-5.6363
11
3.11907
21
-5.6438
0
LINE
8
BLACK
6
CONTINUOUS
10
3.11907
20
-5.6438
11
3.11907
21
-5.66629
0
LINE
8
BLACK
6
CONTINUOUS
10
3.11907
20
-5.66629
11
3.11532
21
-5.67379
0
LINE
8
BLACK
6
CONTINUOUS
10
3.11532
20
-5.67379
11
3.11157
21
-5.67754
0
LINE
8
BLACK
6
CONTINUOUS
10
3.11157
20
-5.67754
11
3.10407
21
-5.68129
0
LINE
8
BLACK
6
CONTINUOUS
10
3.10407
20
-5.68129
11
3.08908
21
-5.68129
0
LINE
8
BLACK
6
CONTINUOUS
10
3.08908
20
-5.68129
11
3.08158
21
-5.67754
0
LINE
8
BLACK
6
CONTINUOUS
10
3.16407
20
-5.68129
11
3.15657
21
-5.67754
0
LINE
8
BLACK
6
CONTINUOUS
10
3.15657
20
-5.67754
11
3.15282
21
-5.67004
0
LINE
8
BLACK
6
CONTINUOUS
10
3.15282
20
-5.67004
11
3.15282
21
-5.60255
0
LINE
8
BLACK
6
CONTINUOUS
10
3.22781
20
-5.68129
11
3.22781
21
-5.64005
0
LINE
8
BLACK
6
CONTINUOUS
10
3.22781
20
-5.64005
11
3.22406
21
-5.63255
0
LINE
8
BLACK
6
CONTINUOUS
10
3.22406
20
-5.63255
11
3.21656
21
-5.6288
0
LINE
8
BLACK
6
CONTINUOUS
10
3.21656
20
-5.6288
11
3.20156
21
-5.6288
0
LINE
8
BLACK
6
CONTINUOUS
10
3.20156
20
-5.6288
11
3.19406
21
-5.63255
0
LINE
8
BLACK
6
CONTINUOUS
10
3.22781
20
-5.67754
11
3.22031
21
-5.68129
0
LINE
8
BLACK
6
CONTINUOUS
10
3.22031
20
-5.68129
11
3.20156
21
-5.68129
0
LINE
8
BLACK
6
CONTINUOUS
10
3.20156
20
-5.68129
11
3.19406
21
-5.67754
0
LINE
8
BLACK
6
CONTINUOUS
10
3.19406
20
-5.67754
11
3.19031
21
-5.67004
0
LINE
8
BLACK
6
CONTINUOUS
10
3.19031
20
-5.67004
11
3.19031
21
-5.66255
0
LINE
8
BLACK
6
CONTINUOUS
10
3.19031
20
-5.66255
11
3.19406
21
-5.65505
0
LINE
8
BLACK
6
CONTINUOUS
10
3.19406
20
-5.65505
11
3.20156
21
-5.6513
0
LINE
8
BLACK
6
CONTINUOUS
10
3.20156
20
-5.6513
11
3.22031
21
-5.6513
0
LINE
8
BLACK
6
CONTINUOUS
10
3.22031
20
-5.6513
11
3.22781
21
-5.64755
0
LINE
8
BLACK
6
CONTINUOUS
10
3.25406
20
-5.6288
11
3.28405
21
-5.6288
0
LINE
8
BLACK
6
CONTINUOUS
10
3.2653
20
-5.60255
11
3.2653
21
-5.67004
0
LINE
8
BLACK
6
CONTINUOUS
10
3.2653
20
-5.67004
11
3.26905
21
-5.67754
0
LINE
8
BLACK
6
CONTINUOUS
10
3.26905
20
-5.67754
11
3.27655
21
-5.68129
0
LINE
8
BLACK
6
CONTINUOUS
10
3.27655
20
-5.68129
11
3.28405
21
-5.68129
0
LINE
8
BLACK
6
CONTINUOUS
10
3.34029
20
-5.67754
11
3.3328
21
-5.68129
0
LINE
8
BLACK
6
CONTINUOUS
10
3.3328
20
-5.68129
11
3.3178
21
-5.68129
0
LINE
8
BLACK
6
CONTINUOUS
10
3.3178
20
-5.68129
11
3.3103
21
-5.67754
0
LINE
8
BLACK
6
CONTINUOUS
10
3.3103
20
-5.67754
11
3.30655
21
-5.67004
0
LINE
8
BLACK
6
CONTINUOUS
10
3.30655
20
-5.67004
11
3.30655
21
-5.64005
0
LINE
8
BLACK
6
CONTINUOUS
10
3.30655
20
-5.64005
11
3.3103
21
-5.63255
0
LINE
8
BLACK
6
CONTINUOUS
10
3.3103
20
-5.63255
11
3.3178
21
-5.6288
0
LINE
8
BLACK
6
CONTINUOUS
10
3.3178
20
-5.6288
11
3.3328
21
-5.6288
0
LINE
8
BLACK
6
CONTINUOUS
10
3.3328
20
-5.6288
11
3.34029
21
-5.63255
0
LINE
8
BLACK
6
CONTINUOUS
10
3.34029
20
-5.63255
11
3.34404
21
-5.64005
0
LINE
8
BLACK
6
CONTINUOUS
10
3.34404
20
-5.64005
11
3.34404
21
-5.64755
0
LINE
8
BLACK
6
CONTINUOUS
10
3.34404
20
-5.64755
11
3.30655
21
-5.65505
0
LINE
8
BLACK
6
CONTINUOUS
10
3.41154
20
-5.68129
11
3.41154
21
-5.60255
0
LINE
8
BLACK
6
CONTINUOUS
10
3.41154
20
-5.67754
11
3.40404
21
-5.68129
0
LINE
8
BLACK
6
CONTINUOUS
10
3.40404
20
-5.68129
11
3.38904
21
-5.68129
0
LINE
8
BLACK
6
CONTINUOUS
10
3.38904
20
-5.68129
11
3.38154
21
-5.67754
0
LINE
8
BLACK
6
CONTINUOUS
10
3.38154
20
-5.67754
11
3.37779
21
-5.67379
0
LINE
8
BLACK
6
CONTINUOUS
10
3.37779
20
-5.67379
11
3.37404
21
-5.66629
0
LINE
8
BLACK
6
CONTINUOUS
10
3.37404
20
-5.66629
11
3.37404
21
-5.6438
0
LINE
8
BLACK
6
CONTINUOUS
10
3.37404
20
-5.6438
11
3.37779
21
-5.6363
0
LINE
8
BLACK
6
CONTINUOUS
10
3.37779
20
-5.6363
11
3.38154
21
-5.63255
0
LINE
8
BLACK
6
CONTINUOUS
10
3.38154
20
-5.63255
11
3.38904
21
-5.6288
0
LINE
8
BLACK
6
CONTINUOUS
10
3.38904
20
-5.6288
11
3.40404
21
-5.6288
0
LINE
8
BLACK
6
CONTINUOUS
10
3.40404
20
-5.6288
11
3.41154
21
-5.63255
0
LINE
8
BLACK
6
CONTINUOUS
10
3.44153
20
-5.71129
11
3.44528
21
-5.70754
0
LINE
8
BLACK
6
CONTINUOUS
10
3.44528
20
-5.70754
11
3.45278
21
-5.69629
0
LINE
8
BLACK
6
CONTINUOUS
10
3.45278
20
-5.69629
11
3.45653
21
-5.68879
0
LINE
8
BLACK
6
CONTINUOUS
10
3.45653
20
-5.68879
11
3.46028
21
-5.67754
0
LINE
8
BLACK
6
CONTINUOUS
10
3.46028
20
-5.67754
11
3.46403
21
-5.6588
0
LINE
8
BLACK
6
CONTINUOUS
10
3.46403
20
-5.6588
11
3.46403
21
-5.6438
0
LINE
8
BLACK
6
CONTINUOUS
10
3.46403
20
-5.6438
11
3.46028
21
-5.62505
0
LINE
8
BLACK
6
CONTINUOUS
10
3.46028
20
-5.62505
11
3.45653
21
-5.6138
0
LINE
8
BLACK
6
CONTINUOUS
10
3.45653
20
-5.6138
11
3.45278
21
-5.6063
0
LINE
8
BLACK
6
CONTINUOUS
10
3.45278
20
-5.6063
11
3.44528
21
-5.59505
0
LINE
8
BLACK
6
CONTINUOUS
10
3.44528
20
-5.59505
11
3.44153
21
-5.5913
  0
ENDSEC
  0
EOF
