%TF.GenerationSoftware,KiCad,Pcbnew,7.0.7*%
%TF.CreationDate,2023-10-06T06:04:08+09:00*%
%TF.ProjectId,Sixtar-Switch,53697874-6172-42d5-9377-697463682e6b,rev?*%
%TF.SameCoordinates,Original*%
%TF.FileFunction,Drillmap*%
%TF.FilePolarity,Positive*%
%FSLAX45Y45*%
G04 Gerber Fmt 4.5, Leading zero omitted, Abs format (unit mm)*
G04 Created by KiCad (PCBNEW 7.0.7) date 2023-10-06 06:04:08*
%MOMM*%
%LPD*%
G01*
G04 APERTURE LIST*
%ADD10C,0.100000*%
%ADD11C,0.200000*%
%ADD12C,0.065000*%
%ADD13C,0.170000*%
%ADD14C,0.305000*%
%ADD15C,0.320000*%
%ADD16C,0.400000*%
G04 APERTURE END LIST*
D10*
X25800000Y-12500000D02*
X1800000Y-12500000D01*
X1800000Y-12500000D02*
X1800000Y-1800000D01*
X25800000Y-1800000D02*
X25800000Y-12500000D01*
X1800000Y-1800000D02*
X25800000Y-1800000D01*
D11*
D12*
X13478500Y-2408000D02*
X13543500Y-2473000D01*
X13543500Y-2408000D02*
X13478500Y-2473000D01*
X14056500Y-2408000D02*
X14121500Y-2473000D01*
X14121500Y-2408000D02*
X14056500Y-2473000D01*
D13*
X2910125Y-9058188D02*
G75*
G03*
X2910125Y-9058188I-85000J0D01*
G01*
X3862625Y-3343187D02*
G75*
G03*
X3862625Y-3343187I-85000J0D01*
G01*
X3926125Y-9058188D02*
G75*
G03*
X3926125Y-9058188I-85000J0D01*
G01*
X4815125Y-5248188D02*
G75*
G03*
X4815125Y-5248188I-85000J0D01*
G01*
X4878625Y-3343187D02*
G75*
G03*
X4878625Y-3343187I-85000J0D01*
G01*
X5831125Y-5248188D02*
G75*
G03*
X5831125Y-5248188I-85000J0D01*
G01*
X6720125Y-3343187D02*
G75*
G03*
X6720125Y-3343187I-85000J0D01*
G01*
X6720125Y-5248188D02*
G75*
G03*
X6720125Y-5248188I-85000J0D01*
G01*
X6720125Y-7153187D02*
G75*
G03*
X6720125Y-7153187I-85000J0D01*
G01*
X7736125Y-3343187D02*
G75*
G03*
X7736125Y-3343187I-85000J0D01*
G01*
X7736125Y-5248188D02*
G75*
G03*
X7736125Y-5248188I-85000J0D01*
G01*
X7736125Y-7153187D02*
G75*
G03*
X7736125Y-7153187I-85000J0D01*
G01*
X8625125Y-5248188D02*
G75*
G03*
X8625125Y-5248188I-85000J0D01*
G01*
X9577625Y-10963188D02*
G75*
G03*
X9577625Y-10963188I-85000J0D01*
G01*
X9641125Y-5248188D02*
G75*
G03*
X9641125Y-5248188I-85000J0D01*
G01*
X10593625Y-10963188D02*
G75*
G03*
X10593625Y-10963188I-85000J0D01*
G01*
X12435125Y-5248188D02*
G75*
G03*
X12435125Y-5248188I-85000J0D01*
G01*
X12435125Y-7153187D02*
G75*
G03*
X12435125Y-7153187I-85000J0D01*
G01*
X13451125Y-5248188D02*
G75*
G03*
X13451125Y-5248188I-85000J0D01*
G01*
X13451125Y-7153187D02*
G75*
G03*
X13451125Y-7153187I-85000J0D01*
G01*
X14340125Y-5248188D02*
G75*
G03*
X14340125Y-5248188I-85000J0D01*
G01*
X14340125Y-7153187D02*
G75*
G03*
X14340125Y-7153187I-85000J0D01*
G01*
X15356125Y-5248188D02*
G75*
G03*
X15356125Y-5248188I-85000J0D01*
G01*
X15356125Y-7153187D02*
G75*
G03*
X15356125Y-7153187I-85000J0D01*
G01*
X17197625Y-10963188D02*
G75*
G03*
X17197625Y-10963188I-85000J0D01*
G01*
X18150125Y-5248188D02*
G75*
G03*
X18150125Y-5248188I-85000J0D01*
G01*
X18213625Y-10963188D02*
G75*
G03*
X18213625Y-10963188I-85000J0D01*
G01*
X19166125Y-5248188D02*
G75*
G03*
X19166125Y-5248188I-85000J0D01*
G01*
X20055125Y-3343187D02*
G75*
G03*
X20055125Y-3343187I-85000J0D01*
G01*
X20055125Y-5248188D02*
G75*
G03*
X20055125Y-5248188I-85000J0D01*
G01*
X20055125Y-7153187D02*
G75*
G03*
X20055125Y-7153187I-85000J0D01*
G01*
X21071125Y-3343187D02*
G75*
G03*
X21071125Y-3343187I-85000J0D01*
G01*
X21071125Y-5248188D02*
G75*
G03*
X21071125Y-5248188I-85000J0D01*
G01*
X21071125Y-7153187D02*
G75*
G03*
X21071125Y-7153187I-85000J0D01*
G01*
X21960125Y-5248188D02*
G75*
G03*
X21960125Y-5248188I-85000J0D01*
G01*
X22912625Y-3343187D02*
G75*
G03*
X22912625Y-3343187I-85000J0D01*
G01*
X22976125Y-5248188D02*
G75*
G03*
X22976125Y-5248188I-85000J0D01*
G01*
X23865125Y-9058188D02*
G75*
G03*
X23865125Y-9058188I-85000J0D01*
G01*
X23928625Y-3343187D02*
G75*
G03*
X23928625Y-3343187I-85000J0D01*
G01*
X24881125Y-9058188D02*
G75*
G03*
X24881125Y-9058188I-85000J0D01*
G01*
D14*
X3095625Y-2490688D02*
X3095625Y-2795688D01*
X2943125Y-2643188D02*
X3248125Y-2643188D01*
X5475625Y-2490688D02*
X5475625Y-2795688D01*
X5323125Y-2643188D02*
X5628125Y-2643188D01*
X8810625Y-10110688D02*
X8810625Y-10415688D01*
X8658125Y-10263188D02*
X8963125Y-10263188D01*
X11190625Y-10110688D02*
X11190625Y-10415688D01*
X11038125Y-10263188D02*
X11343125Y-10263188D01*
X16430625Y-10110688D02*
X16430625Y-10415688D01*
X16278125Y-10263188D02*
X16583125Y-10263188D01*
X18810625Y-10110688D02*
X18810625Y-10415688D01*
X18658125Y-10263188D02*
X18963125Y-10263188D01*
X22145625Y-2490688D02*
X22145625Y-2795688D01*
X21993125Y-2643188D02*
X22298125Y-2643188D01*
X24525625Y-2490688D02*
X24525625Y-2795688D01*
X24373125Y-2643188D02*
X24678125Y-2643188D01*
D15*
X2313138Y-2313138D02*
X2313138Y-2086862D01*
X2086862Y-2086862D01*
X2086862Y-2313138D01*
X2313138Y-2313138D01*
X2313138Y-12213138D02*
X2313138Y-11986862D01*
X2086862Y-11986862D01*
X2086862Y-12213138D01*
X2313138Y-12213138D01*
X25513138Y-2413138D02*
X25513138Y-2186862D01*
X25286862Y-2186862D01*
X25286862Y-2413138D01*
X25513138Y-2413138D01*
X25513138Y-12213138D02*
X25513138Y-11986862D01*
X25286862Y-11986862D01*
X25286862Y-12213138D01*
X25513138Y-12213138D01*
D16*
X3095625Y-4367188D02*
X3295625Y-4167187D01*
X3095625Y-3967187D01*
X2895625Y-4167187D01*
X3095625Y-4367188D01*
X3333125Y-9258188D02*
X3533125Y-9058188D01*
X3333125Y-8858188D01*
X3133125Y-9058188D01*
X3333125Y-9258188D01*
X4285625Y-3543187D02*
X4485625Y-3343187D01*
X4285625Y-3143187D01*
X4085625Y-3343187D01*
X4285625Y-3543187D01*
X5238125Y-5448188D02*
X5438125Y-5248188D01*
X5238125Y-5048188D01*
X5038125Y-5248188D01*
X5238125Y-5448188D01*
X5475625Y-4367188D02*
X5675625Y-4167187D01*
X5475625Y-3967187D01*
X5275625Y-4167187D01*
X5475625Y-4367188D01*
X7143125Y-3543187D02*
X7343125Y-3343187D01*
X7143125Y-3143187D01*
X6943125Y-3343187D01*
X7143125Y-3543187D01*
X7143125Y-5448188D02*
X7343125Y-5248188D01*
X7143125Y-5048188D01*
X6943125Y-5248188D01*
X7143125Y-5448188D01*
X7143125Y-7353187D02*
X7343125Y-7153187D01*
X7143125Y-6953187D01*
X6943125Y-7153187D01*
X7143125Y-7353187D01*
X8810625Y-11987187D02*
X9010625Y-11787187D01*
X8810625Y-11587187D01*
X8610625Y-11787187D01*
X8810625Y-11987187D01*
X9048125Y-5448188D02*
X9248125Y-5248188D01*
X9048125Y-5048188D01*
X8848125Y-5248188D01*
X9048125Y-5448188D01*
X10000625Y-11163188D02*
X10200625Y-10963188D01*
X10000625Y-10763188D01*
X9800625Y-10963188D01*
X10000625Y-11163188D01*
X11190625Y-11987187D02*
X11390625Y-11787187D01*
X11190625Y-11587187D01*
X10990625Y-11787187D01*
X11190625Y-11987187D01*
X12858125Y-5448188D02*
X13058125Y-5248188D01*
X12858125Y-5048188D01*
X12658125Y-5248188D01*
X12858125Y-5448188D01*
X12858125Y-7353187D02*
X13058125Y-7153187D01*
X12858125Y-6953187D01*
X12658125Y-7153187D01*
X12858125Y-7353187D01*
X14763125Y-5448188D02*
X14963125Y-5248188D01*
X14763125Y-5048188D01*
X14563125Y-5248188D01*
X14763125Y-5448188D01*
X14763125Y-7353187D02*
X14963125Y-7153187D01*
X14763125Y-6953187D01*
X14563125Y-7153187D01*
X14763125Y-7353187D01*
X16430625Y-11987187D02*
X16630625Y-11787187D01*
X16430625Y-11587187D01*
X16230625Y-11787187D01*
X16430625Y-11987187D01*
X17620625Y-11163188D02*
X17820625Y-10963188D01*
X17620625Y-10763188D01*
X17420625Y-10963188D01*
X17620625Y-11163188D01*
X18573125Y-5448188D02*
X18773125Y-5248188D01*
X18573125Y-5048188D01*
X18373125Y-5248188D01*
X18573125Y-5448188D01*
X18810625Y-11987187D02*
X19010625Y-11787187D01*
X18810625Y-11587187D01*
X18610625Y-11787187D01*
X18810625Y-11987187D01*
X20478125Y-3543187D02*
X20678125Y-3343187D01*
X20478125Y-3143187D01*
X20278125Y-3343187D01*
X20478125Y-3543187D01*
X20478125Y-5448188D02*
X20678125Y-5248188D01*
X20478125Y-5048188D01*
X20278125Y-5248188D01*
X20478125Y-5448188D01*
X20478125Y-7353187D02*
X20678125Y-7153187D01*
X20478125Y-6953187D01*
X20278125Y-7153187D01*
X20478125Y-7353187D01*
X22145625Y-4367188D02*
X22345625Y-4167187D01*
X22145625Y-3967187D01*
X21945625Y-4167187D01*
X22145625Y-4367188D01*
X22383125Y-5448188D02*
X22583125Y-5248188D01*
X22383125Y-5048188D01*
X22183125Y-5248188D01*
X22383125Y-5448188D01*
X23335625Y-3543187D02*
X23535625Y-3343187D01*
X23335625Y-3143187D01*
X23135625Y-3343187D01*
X23335625Y-3543187D01*
X24288125Y-9258188D02*
X24488125Y-9058188D01*
X24288125Y-8858188D01*
X24088125Y-9058188D01*
X24288125Y-9258188D01*
X24525625Y-4367188D02*
X24725625Y-4167187D01*
X24525625Y-3967187D01*
X24325625Y-4167187D01*
X24525625Y-4367188D01*
D11*
X2055777Y-12816484D02*
X2055777Y-12616484D01*
X2055777Y-12616484D02*
X2103396Y-12616484D01*
X2103396Y-12616484D02*
X2131967Y-12626008D01*
X2131967Y-12626008D02*
X2151015Y-12645055D01*
X2151015Y-12645055D02*
X2160539Y-12664103D01*
X2160539Y-12664103D02*
X2170063Y-12702198D01*
X2170063Y-12702198D02*
X2170063Y-12730769D01*
X2170063Y-12730769D02*
X2160539Y-12768865D01*
X2160539Y-12768865D02*
X2151015Y-12787912D01*
X2151015Y-12787912D02*
X2131967Y-12806960D01*
X2131967Y-12806960D02*
X2103396Y-12816484D01*
X2103396Y-12816484D02*
X2055777Y-12816484D01*
X2255777Y-12816484D02*
X2255777Y-12683150D01*
X2255777Y-12721246D02*
X2265301Y-12702198D01*
X2265301Y-12702198D02*
X2274824Y-12692674D01*
X2274824Y-12692674D02*
X2293872Y-12683150D01*
X2293872Y-12683150D02*
X2312920Y-12683150D01*
X2379586Y-12816484D02*
X2379586Y-12683150D01*
X2379586Y-12616484D02*
X2370063Y-12626008D01*
X2370063Y-12626008D02*
X2379586Y-12635531D01*
X2379586Y-12635531D02*
X2389110Y-12626008D01*
X2389110Y-12626008D02*
X2379586Y-12616484D01*
X2379586Y-12616484D02*
X2379586Y-12635531D01*
X2503396Y-12816484D02*
X2484348Y-12806960D01*
X2484348Y-12806960D02*
X2474824Y-12787912D01*
X2474824Y-12787912D02*
X2474824Y-12616484D01*
X2608158Y-12816484D02*
X2589110Y-12806960D01*
X2589110Y-12806960D02*
X2579586Y-12787912D01*
X2579586Y-12787912D02*
X2579586Y-12616484D01*
X2836729Y-12816484D02*
X2836729Y-12616484D01*
X2836729Y-12616484D02*
X2903396Y-12759341D01*
X2903396Y-12759341D02*
X2970062Y-12616484D01*
X2970062Y-12616484D02*
X2970062Y-12816484D01*
X3151015Y-12816484D02*
X3151015Y-12711722D01*
X3151015Y-12711722D02*
X3141491Y-12692674D01*
X3141491Y-12692674D02*
X3122443Y-12683150D01*
X3122443Y-12683150D02*
X3084348Y-12683150D01*
X3084348Y-12683150D02*
X3065301Y-12692674D01*
X3151015Y-12806960D02*
X3131967Y-12816484D01*
X3131967Y-12816484D02*
X3084348Y-12816484D01*
X3084348Y-12816484D02*
X3065301Y-12806960D01*
X3065301Y-12806960D02*
X3055777Y-12787912D01*
X3055777Y-12787912D02*
X3055777Y-12768865D01*
X3055777Y-12768865D02*
X3065301Y-12749817D01*
X3065301Y-12749817D02*
X3084348Y-12740293D01*
X3084348Y-12740293D02*
X3131967Y-12740293D01*
X3131967Y-12740293D02*
X3151015Y-12730769D01*
X3246253Y-12683150D02*
X3246253Y-12883150D01*
X3246253Y-12692674D02*
X3265301Y-12683150D01*
X3265301Y-12683150D02*
X3303396Y-12683150D01*
X3303396Y-12683150D02*
X3322443Y-12692674D01*
X3322443Y-12692674D02*
X3331967Y-12702198D01*
X3331967Y-12702198D02*
X3341491Y-12721246D01*
X3341491Y-12721246D02*
X3341491Y-12778388D01*
X3341491Y-12778388D02*
X3331967Y-12797436D01*
X3331967Y-12797436D02*
X3322443Y-12806960D01*
X3322443Y-12806960D02*
X3303396Y-12816484D01*
X3303396Y-12816484D02*
X3265301Y-12816484D01*
X3265301Y-12816484D02*
X3246253Y-12806960D01*
X3427205Y-12797436D02*
X3436729Y-12806960D01*
X3436729Y-12806960D02*
X3427205Y-12816484D01*
X3427205Y-12816484D02*
X3417682Y-12806960D01*
X3417682Y-12806960D02*
X3427205Y-12797436D01*
X3427205Y-12797436D02*
X3427205Y-12816484D01*
X3427205Y-12692674D02*
X3436729Y-12702198D01*
X3436729Y-12702198D02*
X3427205Y-12711722D01*
X3427205Y-12711722D02*
X3417682Y-12702198D01*
X3417682Y-12702198D02*
X3427205Y-12692674D01*
X3427205Y-12692674D02*
X3427205Y-12711722D01*
D12*
X1730000Y-13112500D02*
X1795000Y-13177500D01*
X1795000Y-13112500D02*
X1730000Y-13177500D01*
D11*
X2093872Y-13036484D02*
X2112920Y-13036484D01*
X2112920Y-13036484D02*
X2131967Y-13046008D01*
X2131967Y-13046008D02*
X2141491Y-13055531D01*
X2141491Y-13055531D02*
X2151015Y-13074579D01*
X2151015Y-13074579D02*
X2160539Y-13112674D01*
X2160539Y-13112674D02*
X2160539Y-13160293D01*
X2160539Y-13160293D02*
X2151015Y-13198388D01*
X2151015Y-13198388D02*
X2141491Y-13217436D01*
X2141491Y-13217436D02*
X2131967Y-13226960D01*
X2131967Y-13226960D02*
X2112920Y-13236484D01*
X2112920Y-13236484D02*
X2093872Y-13236484D01*
X2093872Y-13236484D02*
X2074824Y-13226960D01*
X2074824Y-13226960D02*
X2065301Y-13217436D01*
X2065301Y-13217436D02*
X2055777Y-13198388D01*
X2055777Y-13198388D02*
X2046253Y-13160293D01*
X2046253Y-13160293D02*
X2046253Y-13112674D01*
X2046253Y-13112674D02*
X2055777Y-13074579D01*
X2055777Y-13074579D02*
X2065301Y-13055531D01*
X2065301Y-13055531D02*
X2074824Y-13046008D01*
X2074824Y-13046008D02*
X2093872Y-13036484D01*
X2246253Y-13217436D02*
X2255777Y-13226960D01*
X2255777Y-13226960D02*
X2246253Y-13236484D01*
X2246253Y-13236484D02*
X2236729Y-13226960D01*
X2236729Y-13226960D02*
X2246253Y-13217436D01*
X2246253Y-13217436D02*
X2246253Y-13236484D01*
X2427205Y-13036484D02*
X2389110Y-13036484D01*
X2389110Y-13036484D02*
X2370063Y-13046008D01*
X2370063Y-13046008D02*
X2360539Y-13055531D01*
X2360539Y-13055531D02*
X2341491Y-13084103D01*
X2341491Y-13084103D02*
X2331967Y-13122198D01*
X2331967Y-13122198D02*
X2331967Y-13198388D01*
X2331967Y-13198388D02*
X2341491Y-13217436D01*
X2341491Y-13217436D02*
X2351015Y-13226960D01*
X2351015Y-13226960D02*
X2370063Y-13236484D01*
X2370063Y-13236484D02*
X2408158Y-13236484D01*
X2408158Y-13236484D02*
X2427205Y-13226960D01*
X2427205Y-13226960D02*
X2436729Y-13217436D01*
X2436729Y-13217436D02*
X2446253Y-13198388D01*
X2446253Y-13198388D02*
X2446253Y-13150769D01*
X2446253Y-13150769D02*
X2436729Y-13131722D01*
X2436729Y-13131722D02*
X2427205Y-13122198D01*
X2427205Y-13122198D02*
X2408158Y-13112674D01*
X2408158Y-13112674D02*
X2370063Y-13112674D01*
X2370063Y-13112674D02*
X2351015Y-13122198D01*
X2351015Y-13122198D02*
X2341491Y-13131722D01*
X2341491Y-13131722D02*
X2331967Y-13150769D01*
X2627205Y-13036484D02*
X2531967Y-13036484D01*
X2531967Y-13036484D02*
X2522444Y-13131722D01*
X2522444Y-13131722D02*
X2531967Y-13122198D01*
X2531967Y-13122198D02*
X2551015Y-13112674D01*
X2551015Y-13112674D02*
X2598634Y-13112674D01*
X2598634Y-13112674D02*
X2617682Y-13122198D01*
X2617682Y-13122198D02*
X2627205Y-13131722D01*
X2627205Y-13131722D02*
X2636729Y-13150769D01*
X2636729Y-13150769D02*
X2636729Y-13198388D01*
X2636729Y-13198388D02*
X2627205Y-13217436D01*
X2627205Y-13217436D02*
X2617682Y-13226960D01*
X2617682Y-13226960D02*
X2598634Y-13236484D01*
X2598634Y-13236484D02*
X2551015Y-13236484D01*
X2551015Y-13236484D02*
X2531967Y-13226960D01*
X2531967Y-13226960D02*
X2522444Y-13217436D01*
X2760539Y-13036484D02*
X2779586Y-13036484D01*
X2779586Y-13036484D02*
X2798634Y-13046008D01*
X2798634Y-13046008D02*
X2808158Y-13055531D01*
X2808158Y-13055531D02*
X2817682Y-13074579D01*
X2817682Y-13074579D02*
X2827205Y-13112674D01*
X2827205Y-13112674D02*
X2827205Y-13160293D01*
X2827205Y-13160293D02*
X2817682Y-13198388D01*
X2817682Y-13198388D02*
X2808158Y-13217436D01*
X2808158Y-13217436D02*
X2798634Y-13226960D01*
X2798634Y-13226960D02*
X2779586Y-13236484D01*
X2779586Y-13236484D02*
X2760539Y-13236484D01*
X2760539Y-13236484D02*
X2741491Y-13226960D01*
X2741491Y-13226960D02*
X2731967Y-13217436D01*
X2731967Y-13217436D02*
X2722444Y-13198388D01*
X2722444Y-13198388D02*
X2712920Y-13160293D01*
X2712920Y-13160293D02*
X2712920Y-13112674D01*
X2712920Y-13112674D02*
X2722444Y-13074579D01*
X2722444Y-13074579D02*
X2731967Y-13055531D01*
X2731967Y-13055531D02*
X2741491Y-13046008D01*
X2741491Y-13046008D02*
X2760539Y-13036484D01*
X2912920Y-13236484D02*
X2912920Y-13103150D01*
X2912920Y-13122198D02*
X2922443Y-13112674D01*
X2922443Y-13112674D02*
X2941491Y-13103150D01*
X2941491Y-13103150D02*
X2970063Y-13103150D01*
X2970063Y-13103150D02*
X2989110Y-13112674D01*
X2989110Y-13112674D02*
X2998634Y-13131722D01*
X2998634Y-13131722D02*
X2998634Y-13236484D01*
X2998634Y-13131722D02*
X3008158Y-13112674D01*
X3008158Y-13112674D02*
X3027205Y-13103150D01*
X3027205Y-13103150D02*
X3055777Y-13103150D01*
X3055777Y-13103150D02*
X3074824Y-13112674D01*
X3074824Y-13112674D02*
X3084348Y-13131722D01*
X3084348Y-13131722D02*
X3084348Y-13236484D01*
X3179586Y-13236484D02*
X3179586Y-13103150D01*
X3179586Y-13122198D02*
X3189110Y-13112674D01*
X3189110Y-13112674D02*
X3208158Y-13103150D01*
X3208158Y-13103150D02*
X3236729Y-13103150D01*
X3236729Y-13103150D02*
X3255777Y-13112674D01*
X3255777Y-13112674D02*
X3265301Y-13131722D01*
X3265301Y-13131722D02*
X3265301Y-13236484D01*
X3265301Y-13131722D02*
X3274824Y-13112674D01*
X3274824Y-13112674D02*
X3293872Y-13103150D01*
X3293872Y-13103150D02*
X3322443Y-13103150D01*
X3322443Y-13103150D02*
X3341491Y-13112674D01*
X3341491Y-13112674D02*
X3351015Y-13131722D01*
X3351015Y-13131722D02*
X3351015Y-13236484D01*
X3741491Y-13026960D02*
X3570063Y-13284103D01*
X3998634Y-13036484D02*
X4017682Y-13036484D01*
X4017682Y-13036484D02*
X4036729Y-13046008D01*
X4036729Y-13046008D02*
X4046253Y-13055531D01*
X4046253Y-13055531D02*
X4055777Y-13074579D01*
X4055777Y-13074579D02*
X4065301Y-13112674D01*
X4065301Y-13112674D02*
X4065301Y-13160293D01*
X4065301Y-13160293D02*
X4055777Y-13198388D01*
X4055777Y-13198388D02*
X4046253Y-13217436D01*
X4046253Y-13217436D02*
X4036729Y-13226960D01*
X4036729Y-13226960D02*
X4017682Y-13236484D01*
X4017682Y-13236484D02*
X3998634Y-13236484D01*
X3998634Y-13236484D02*
X3979586Y-13226960D01*
X3979586Y-13226960D02*
X3970063Y-13217436D01*
X3970063Y-13217436D02*
X3960539Y-13198388D01*
X3960539Y-13198388D02*
X3951015Y-13160293D01*
X3951015Y-13160293D02*
X3951015Y-13112674D01*
X3951015Y-13112674D02*
X3960539Y-13074579D01*
X3960539Y-13074579D02*
X3970063Y-13055531D01*
X3970063Y-13055531D02*
X3979586Y-13046008D01*
X3979586Y-13046008D02*
X3998634Y-13036484D01*
X4151015Y-13217436D02*
X4160539Y-13226960D01*
X4160539Y-13226960D02*
X4151015Y-13236484D01*
X4151015Y-13236484D02*
X4141491Y-13226960D01*
X4141491Y-13226960D02*
X4151015Y-13217436D01*
X4151015Y-13217436D02*
X4151015Y-13236484D01*
X4284348Y-13036484D02*
X4303396Y-13036484D01*
X4303396Y-13036484D02*
X4322444Y-13046008D01*
X4322444Y-13046008D02*
X4331968Y-13055531D01*
X4331968Y-13055531D02*
X4341491Y-13074579D01*
X4341491Y-13074579D02*
X4351015Y-13112674D01*
X4351015Y-13112674D02*
X4351015Y-13160293D01*
X4351015Y-13160293D02*
X4341491Y-13198388D01*
X4341491Y-13198388D02*
X4331968Y-13217436D01*
X4331968Y-13217436D02*
X4322444Y-13226960D01*
X4322444Y-13226960D02*
X4303396Y-13236484D01*
X4303396Y-13236484D02*
X4284348Y-13236484D01*
X4284348Y-13236484D02*
X4265301Y-13226960D01*
X4265301Y-13226960D02*
X4255777Y-13217436D01*
X4255777Y-13217436D02*
X4246253Y-13198388D01*
X4246253Y-13198388D02*
X4236729Y-13160293D01*
X4236729Y-13160293D02*
X4236729Y-13112674D01*
X4236729Y-13112674D02*
X4246253Y-13074579D01*
X4246253Y-13074579D02*
X4255777Y-13055531D01*
X4255777Y-13055531D02*
X4265301Y-13046008D01*
X4265301Y-13046008D02*
X4284348Y-13036484D01*
X4427206Y-13055531D02*
X4436729Y-13046008D01*
X4436729Y-13046008D02*
X4455777Y-13036484D01*
X4455777Y-13036484D02*
X4503396Y-13036484D01*
X4503396Y-13036484D02*
X4522444Y-13046008D01*
X4522444Y-13046008D02*
X4531968Y-13055531D01*
X4531968Y-13055531D02*
X4541491Y-13074579D01*
X4541491Y-13074579D02*
X4541491Y-13093627D01*
X4541491Y-13093627D02*
X4531968Y-13122198D01*
X4531968Y-13122198D02*
X4417682Y-13236484D01*
X4417682Y-13236484D02*
X4541491Y-13236484D01*
X4722444Y-13036484D02*
X4627206Y-13036484D01*
X4627206Y-13036484D02*
X4617682Y-13131722D01*
X4617682Y-13131722D02*
X4627206Y-13122198D01*
X4627206Y-13122198D02*
X4646253Y-13112674D01*
X4646253Y-13112674D02*
X4693872Y-13112674D01*
X4693872Y-13112674D02*
X4712920Y-13122198D01*
X4712920Y-13122198D02*
X4722444Y-13131722D01*
X4722444Y-13131722D02*
X4731968Y-13150769D01*
X4731968Y-13150769D02*
X4731968Y-13198388D01*
X4731968Y-13198388D02*
X4722444Y-13217436D01*
X4722444Y-13217436D02*
X4712920Y-13226960D01*
X4712920Y-13226960D02*
X4693872Y-13236484D01*
X4693872Y-13236484D02*
X4646253Y-13236484D01*
X4646253Y-13236484D02*
X4627206Y-13226960D01*
X4627206Y-13226960D02*
X4617682Y-13217436D01*
X4903396Y-13036484D02*
X4865301Y-13036484D01*
X4865301Y-13036484D02*
X4846253Y-13046008D01*
X4846253Y-13046008D02*
X4836729Y-13055531D01*
X4836729Y-13055531D02*
X4817682Y-13084103D01*
X4817682Y-13084103D02*
X4808158Y-13122198D01*
X4808158Y-13122198D02*
X4808158Y-13198388D01*
X4808158Y-13198388D02*
X4817682Y-13217436D01*
X4817682Y-13217436D02*
X4827206Y-13226960D01*
X4827206Y-13226960D02*
X4846253Y-13236484D01*
X4846253Y-13236484D02*
X4884349Y-13236484D01*
X4884349Y-13236484D02*
X4903396Y-13226960D01*
X4903396Y-13226960D02*
X4912920Y-13217436D01*
X4912920Y-13217436D02*
X4922444Y-13198388D01*
X4922444Y-13198388D02*
X4922444Y-13150769D01*
X4922444Y-13150769D02*
X4912920Y-13131722D01*
X4912920Y-13131722D02*
X4903396Y-13122198D01*
X4903396Y-13122198D02*
X4884349Y-13112674D01*
X4884349Y-13112674D02*
X4846253Y-13112674D01*
X4846253Y-13112674D02*
X4827206Y-13122198D01*
X4827206Y-13122198D02*
X4817682Y-13131722D01*
X4817682Y-13131722D02*
X4808158Y-13150769D01*
X4998634Y-13036484D02*
X4998634Y-13074579D01*
X5074825Y-13036484D02*
X5074825Y-13074579D01*
X5370063Y-13312674D02*
X5360539Y-13303150D01*
X5360539Y-13303150D02*
X5341491Y-13274579D01*
X5341491Y-13274579D02*
X5331968Y-13255531D01*
X5331968Y-13255531D02*
X5322444Y-13226960D01*
X5322444Y-13226960D02*
X5312920Y-13179341D01*
X5312920Y-13179341D02*
X5312920Y-13141246D01*
X5312920Y-13141246D02*
X5322444Y-13093627D01*
X5322444Y-13093627D02*
X5331968Y-13065055D01*
X5331968Y-13065055D02*
X5341491Y-13046008D01*
X5341491Y-13046008D02*
X5360539Y-13017436D01*
X5360539Y-13017436D02*
X5370063Y-13007912D01*
X5436730Y-13055531D02*
X5446253Y-13046008D01*
X5446253Y-13046008D02*
X5465301Y-13036484D01*
X5465301Y-13036484D02*
X5512920Y-13036484D01*
X5512920Y-13036484D02*
X5531968Y-13046008D01*
X5531968Y-13046008D02*
X5541491Y-13055531D01*
X5541491Y-13055531D02*
X5551015Y-13074579D01*
X5551015Y-13074579D02*
X5551015Y-13093627D01*
X5551015Y-13093627D02*
X5541491Y-13122198D01*
X5541491Y-13122198D02*
X5427206Y-13236484D01*
X5427206Y-13236484D02*
X5551015Y-13236484D01*
X5789110Y-13236484D02*
X5789110Y-13036484D01*
X5874825Y-13236484D02*
X5874825Y-13131722D01*
X5874825Y-13131722D02*
X5865301Y-13112674D01*
X5865301Y-13112674D02*
X5846253Y-13103150D01*
X5846253Y-13103150D02*
X5817682Y-13103150D01*
X5817682Y-13103150D02*
X5798634Y-13112674D01*
X5798634Y-13112674D02*
X5789110Y-13122198D01*
X5998634Y-13236484D02*
X5979587Y-13226960D01*
X5979587Y-13226960D02*
X5970063Y-13217436D01*
X5970063Y-13217436D02*
X5960539Y-13198388D01*
X5960539Y-13198388D02*
X5960539Y-13141246D01*
X5960539Y-13141246D02*
X5970063Y-13122198D01*
X5970063Y-13122198D02*
X5979587Y-13112674D01*
X5979587Y-13112674D02*
X5998634Y-13103150D01*
X5998634Y-13103150D02*
X6027206Y-13103150D01*
X6027206Y-13103150D02*
X6046253Y-13112674D01*
X6046253Y-13112674D02*
X6055777Y-13122198D01*
X6055777Y-13122198D02*
X6065301Y-13141246D01*
X6065301Y-13141246D02*
X6065301Y-13198388D01*
X6065301Y-13198388D02*
X6055777Y-13217436D01*
X6055777Y-13217436D02*
X6046253Y-13226960D01*
X6046253Y-13226960D02*
X6027206Y-13236484D01*
X6027206Y-13236484D02*
X5998634Y-13236484D01*
X6179587Y-13236484D02*
X6160539Y-13226960D01*
X6160539Y-13226960D02*
X6151015Y-13207912D01*
X6151015Y-13207912D02*
X6151015Y-13036484D01*
X6331968Y-13226960D02*
X6312920Y-13236484D01*
X6312920Y-13236484D02*
X6274825Y-13236484D01*
X6274825Y-13236484D02*
X6255777Y-13226960D01*
X6255777Y-13226960D02*
X6246253Y-13207912D01*
X6246253Y-13207912D02*
X6246253Y-13131722D01*
X6246253Y-13131722D02*
X6255777Y-13112674D01*
X6255777Y-13112674D02*
X6274825Y-13103150D01*
X6274825Y-13103150D02*
X6312920Y-13103150D01*
X6312920Y-13103150D02*
X6331968Y-13112674D01*
X6331968Y-13112674D02*
X6341491Y-13131722D01*
X6341491Y-13131722D02*
X6341491Y-13150769D01*
X6341491Y-13150769D02*
X6246253Y-13169817D01*
X6417682Y-13226960D02*
X6436730Y-13236484D01*
X6436730Y-13236484D02*
X6474825Y-13236484D01*
X6474825Y-13236484D02*
X6493872Y-13226960D01*
X6493872Y-13226960D02*
X6503396Y-13207912D01*
X6503396Y-13207912D02*
X6503396Y-13198388D01*
X6503396Y-13198388D02*
X6493872Y-13179341D01*
X6493872Y-13179341D02*
X6474825Y-13169817D01*
X6474825Y-13169817D02*
X6446253Y-13169817D01*
X6446253Y-13169817D02*
X6427206Y-13160293D01*
X6427206Y-13160293D02*
X6417682Y-13141246D01*
X6417682Y-13141246D02*
X6417682Y-13131722D01*
X6417682Y-13131722D02*
X6427206Y-13112674D01*
X6427206Y-13112674D02*
X6446253Y-13103150D01*
X6446253Y-13103150D02*
X6474825Y-13103150D01*
X6474825Y-13103150D02*
X6493872Y-13112674D01*
X6570063Y-13312674D02*
X6579587Y-13303150D01*
X6579587Y-13303150D02*
X6598634Y-13274579D01*
X6598634Y-13274579D02*
X6608158Y-13255531D01*
X6608158Y-13255531D02*
X6617682Y-13226960D01*
X6617682Y-13226960D02*
X6627206Y-13179341D01*
X6627206Y-13179341D02*
X6627206Y-13141246D01*
X6627206Y-13141246D02*
X6617682Y-13093627D01*
X6617682Y-13093627D02*
X6608158Y-13065055D01*
X6608158Y-13065055D02*
X6598634Y-13046008D01*
X6598634Y-13046008D02*
X6579587Y-13017436D01*
X6579587Y-13017436D02*
X6570063Y-13007912D01*
X6931968Y-13312674D02*
X6922444Y-13303150D01*
X6922444Y-13303150D02*
X6903396Y-13274579D01*
X6903396Y-13274579D02*
X6893872Y-13255531D01*
X6893872Y-13255531D02*
X6884349Y-13226960D01*
X6884349Y-13226960D02*
X6874825Y-13179341D01*
X6874825Y-13179341D02*
X6874825Y-13141246D01*
X6874825Y-13141246D02*
X6884349Y-13093627D01*
X6884349Y-13093627D02*
X6893872Y-13065055D01*
X6893872Y-13065055D02*
X6903396Y-13046008D01*
X6903396Y-13046008D02*
X6922444Y-13017436D01*
X6922444Y-13017436D02*
X6931968Y-13007912D01*
X7008158Y-13103150D02*
X7008158Y-13236484D01*
X7008158Y-13122198D02*
X7017682Y-13112674D01*
X7017682Y-13112674D02*
X7036730Y-13103150D01*
X7036730Y-13103150D02*
X7065301Y-13103150D01*
X7065301Y-13103150D02*
X7084349Y-13112674D01*
X7084349Y-13112674D02*
X7093872Y-13131722D01*
X7093872Y-13131722D02*
X7093872Y-13236484D01*
X7217682Y-13236484D02*
X7198634Y-13226960D01*
X7198634Y-13226960D02*
X7189111Y-13217436D01*
X7189111Y-13217436D02*
X7179587Y-13198388D01*
X7179587Y-13198388D02*
X7179587Y-13141246D01*
X7179587Y-13141246D02*
X7189111Y-13122198D01*
X7189111Y-13122198D02*
X7198634Y-13112674D01*
X7198634Y-13112674D02*
X7217682Y-13103150D01*
X7217682Y-13103150D02*
X7246253Y-13103150D01*
X7246253Y-13103150D02*
X7265301Y-13112674D01*
X7265301Y-13112674D02*
X7274825Y-13122198D01*
X7274825Y-13122198D02*
X7284349Y-13141246D01*
X7284349Y-13141246D02*
X7284349Y-13198388D01*
X7284349Y-13198388D02*
X7274825Y-13217436D01*
X7274825Y-13217436D02*
X7265301Y-13226960D01*
X7265301Y-13226960D02*
X7246253Y-13236484D01*
X7246253Y-13236484D02*
X7217682Y-13236484D01*
X7341492Y-13103150D02*
X7417682Y-13103150D01*
X7370063Y-13036484D02*
X7370063Y-13207912D01*
X7370063Y-13207912D02*
X7379587Y-13226960D01*
X7379587Y-13226960D02*
X7398634Y-13236484D01*
X7398634Y-13236484D02*
X7417682Y-13236484D01*
X7636730Y-13103150D02*
X7636730Y-13303150D01*
X7636730Y-13112674D02*
X7655777Y-13103150D01*
X7655777Y-13103150D02*
X7693873Y-13103150D01*
X7693873Y-13103150D02*
X7712920Y-13112674D01*
X7712920Y-13112674D02*
X7722444Y-13122198D01*
X7722444Y-13122198D02*
X7731968Y-13141246D01*
X7731968Y-13141246D02*
X7731968Y-13198388D01*
X7731968Y-13198388D02*
X7722444Y-13217436D01*
X7722444Y-13217436D02*
X7712920Y-13226960D01*
X7712920Y-13226960D02*
X7693873Y-13236484D01*
X7693873Y-13236484D02*
X7655777Y-13236484D01*
X7655777Y-13236484D02*
X7636730Y-13226960D01*
X7846253Y-13236484D02*
X7827206Y-13226960D01*
X7827206Y-13226960D02*
X7817682Y-13207912D01*
X7817682Y-13207912D02*
X7817682Y-13036484D01*
X8008158Y-13236484D02*
X8008158Y-13131722D01*
X8008158Y-13131722D02*
X7998634Y-13112674D01*
X7998634Y-13112674D02*
X7979587Y-13103150D01*
X7979587Y-13103150D02*
X7941492Y-13103150D01*
X7941492Y-13103150D02*
X7922444Y-13112674D01*
X8008158Y-13226960D02*
X7989111Y-13236484D01*
X7989111Y-13236484D02*
X7941492Y-13236484D01*
X7941492Y-13236484D02*
X7922444Y-13226960D01*
X7922444Y-13226960D02*
X7912920Y-13207912D01*
X7912920Y-13207912D02*
X7912920Y-13188865D01*
X7912920Y-13188865D02*
X7922444Y-13169817D01*
X7922444Y-13169817D02*
X7941492Y-13160293D01*
X7941492Y-13160293D02*
X7989111Y-13160293D01*
X7989111Y-13160293D02*
X8008158Y-13150769D01*
X8074825Y-13103150D02*
X8151015Y-13103150D01*
X8103396Y-13036484D02*
X8103396Y-13207912D01*
X8103396Y-13207912D02*
X8112920Y-13226960D01*
X8112920Y-13226960D02*
X8131968Y-13236484D01*
X8131968Y-13236484D02*
X8151015Y-13236484D01*
X8293873Y-13226960D02*
X8274825Y-13236484D01*
X8274825Y-13236484D02*
X8236730Y-13236484D01*
X8236730Y-13236484D02*
X8217682Y-13226960D01*
X8217682Y-13226960D02*
X8208158Y-13207912D01*
X8208158Y-13207912D02*
X8208158Y-13131722D01*
X8208158Y-13131722D02*
X8217682Y-13112674D01*
X8217682Y-13112674D02*
X8236730Y-13103150D01*
X8236730Y-13103150D02*
X8274825Y-13103150D01*
X8274825Y-13103150D02*
X8293873Y-13112674D01*
X8293873Y-13112674D02*
X8303396Y-13131722D01*
X8303396Y-13131722D02*
X8303396Y-13150769D01*
X8303396Y-13150769D02*
X8208158Y-13169817D01*
X8474825Y-13236484D02*
X8474825Y-13036484D01*
X8474825Y-13226960D02*
X8455777Y-13236484D01*
X8455777Y-13236484D02*
X8417682Y-13236484D01*
X8417682Y-13236484D02*
X8398635Y-13226960D01*
X8398635Y-13226960D02*
X8389111Y-13217436D01*
X8389111Y-13217436D02*
X8379587Y-13198388D01*
X8379587Y-13198388D02*
X8379587Y-13141246D01*
X8379587Y-13141246D02*
X8389111Y-13122198D01*
X8389111Y-13122198D02*
X8398635Y-13112674D01*
X8398635Y-13112674D02*
X8417682Y-13103150D01*
X8417682Y-13103150D02*
X8455777Y-13103150D01*
X8455777Y-13103150D02*
X8474825Y-13112674D01*
X8551016Y-13312674D02*
X8560539Y-13303150D01*
X8560539Y-13303150D02*
X8579587Y-13274579D01*
X8579587Y-13274579D02*
X8589111Y-13255531D01*
X8589111Y-13255531D02*
X8598635Y-13226960D01*
X8598635Y-13226960D02*
X8608158Y-13179341D01*
X8608158Y-13179341D02*
X8608158Y-13141246D01*
X8608158Y-13141246D02*
X8598635Y-13093627D01*
X8598635Y-13093627D02*
X8589111Y-13065055D01*
X8589111Y-13065055D02*
X8579587Y-13046008D01*
X8579587Y-13046008D02*
X8560539Y-13017436D01*
X8560539Y-13017436D02*
X8551016Y-13007912D01*
D13*
X1795000Y-13409000D02*
G75*
G03*
X1795000Y-13409000I-85000J0D01*
G01*
D11*
X2160539Y-13500484D02*
X2046253Y-13500484D01*
X2103396Y-13500484D02*
X2103396Y-13300484D01*
X2103396Y-13300484D02*
X2084348Y-13329055D01*
X2084348Y-13329055D02*
X2065301Y-13348103D01*
X2065301Y-13348103D02*
X2046253Y-13357627D01*
X2246253Y-13481436D02*
X2255777Y-13490960D01*
X2255777Y-13490960D02*
X2246253Y-13500484D01*
X2246253Y-13500484D02*
X2236729Y-13490960D01*
X2236729Y-13490960D02*
X2246253Y-13481436D01*
X2246253Y-13481436D02*
X2246253Y-13500484D01*
X2322444Y-13300484D02*
X2455777Y-13300484D01*
X2455777Y-13300484D02*
X2370063Y-13500484D01*
X2570063Y-13300484D02*
X2589110Y-13300484D01*
X2589110Y-13300484D02*
X2608158Y-13310008D01*
X2608158Y-13310008D02*
X2617682Y-13319531D01*
X2617682Y-13319531D02*
X2627205Y-13338579D01*
X2627205Y-13338579D02*
X2636729Y-13376674D01*
X2636729Y-13376674D02*
X2636729Y-13424293D01*
X2636729Y-13424293D02*
X2627205Y-13462388D01*
X2627205Y-13462388D02*
X2617682Y-13481436D01*
X2617682Y-13481436D02*
X2608158Y-13490960D01*
X2608158Y-13490960D02*
X2589110Y-13500484D01*
X2589110Y-13500484D02*
X2570063Y-13500484D01*
X2570063Y-13500484D02*
X2551015Y-13490960D01*
X2551015Y-13490960D02*
X2541491Y-13481436D01*
X2541491Y-13481436D02*
X2531967Y-13462388D01*
X2531967Y-13462388D02*
X2522444Y-13424293D01*
X2522444Y-13424293D02*
X2522444Y-13376674D01*
X2522444Y-13376674D02*
X2531967Y-13338579D01*
X2531967Y-13338579D02*
X2541491Y-13319531D01*
X2541491Y-13319531D02*
X2551015Y-13310008D01*
X2551015Y-13310008D02*
X2570063Y-13300484D01*
X2760539Y-13300484D02*
X2779586Y-13300484D01*
X2779586Y-13300484D02*
X2798634Y-13310008D01*
X2798634Y-13310008D02*
X2808158Y-13319531D01*
X2808158Y-13319531D02*
X2817682Y-13338579D01*
X2817682Y-13338579D02*
X2827205Y-13376674D01*
X2827205Y-13376674D02*
X2827205Y-13424293D01*
X2827205Y-13424293D02*
X2817682Y-13462388D01*
X2817682Y-13462388D02*
X2808158Y-13481436D01*
X2808158Y-13481436D02*
X2798634Y-13490960D01*
X2798634Y-13490960D02*
X2779586Y-13500484D01*
X2779586Y-13500484D02*
X2760539Y-13500484D01*
X2760539Y-13500484D02*
X2741491Y-13490960D01*
X2741491Y-13490960D02*
X2731967Y-13481436D01*
X2731967Y-13481436D02*
X2722444Y-13462388D01*
X2722444Y-13462388D02*
X2712920Y-13424293D01*
X2712920Y-13424293D02*
X2712920Y-13376674D01*
X2712920Y-13376674D02*
X2722444Y-13338579D01*
X2722444Y-13338579D02*
X2731967Y-13319531D01*
X2731967Y-13319531D02*
X2741491Y-13310008D01*
X2741491Y-13310008D02*
X2760539Y-13300484D01*
X2912920Y-13500484D02*
X2912920Y-13367150D01*
X2912920Y-13386198D02*
X2922443Y-13376674D01*
X2922443Y-13376674D02*
X2941491Y-13367150D01*
X2941491Y-13367150D02*
X2970063Y-13367150D01*
X2970063Y-13367150D02*
X2989110Y-13376674D01*
X2989110Y-13376674D02*
X2998634Y-13395722D01*
X2998634Y-13395722D02*
X2998634Y-13500484D01*
X2998634Y-13395722D02*
X3008158Y-13376674D01*
X3008158Y-13376674D02*
X3027205Y-13367150D01*
X3027205Y-13367150D02*
X3055777Y-13367150D01*
X3055777Y-13367150D02*
X3074824Y-13376674D01*
X3074824Y-13376674D02*
X3084348Y-13395722D01*
X3084348Y-13395722D02*
X3084348Y-13500484D01*
X3179586Y-13500484D02*
X3179586Y-13367150D01*
X3179586Y-13386198D02*
X3189110Y-13376674D01*
X3189110Y-13376674D02*
X3208158Y-13367150D01*
X3208158Y-13367150D02*
X3236729Y-13367150D01*
X3236729Y-13367150D02*
X3255777Y-13376674D01*
X3255777Y-13376674D02*
X3265301Y-13395722D01*
X3265301Y-13395722D02*
X3265301Y-13500484D01*
X3265301Y-13395722D02*
X3274824Y-13376674D01*
X3274824Y-13376674D02*
X3293872Y-13367150D01*
X3293872Y-13367150D02*
X3322443Y-13367150D01*
X3322443Y-13367150D02*
X3341491Y-13376674D01*
X3341491Y-13376674D02*
X3351015Y-13395722D01*
X3351015Y-13395722D02*
X3351015Y-13500484D01*
X3741491Y-13290960D02*
X3570063Y-13548103D01*
X3998634Y-13300484D02*
X4017682Y-13300484D01*
X4017682Y-13300484D02*
X4036729Y-13310008D01*
X4036729Y-13310008D02*
X4046253Y-13319531D01*
X4046253Y-13319531D02*
X4055777Y-13338579D01*
X4055777Y-13338579D02*
X4065301Y-13376674D01*
X4065301Y-13376674D02*
X4065301Y-13424293D01*
X4065301Y-13424293D02*
X4055777Y-13462388D01*
X4055777Y-13462388D02*
X4046253Y-13481436D01*
X4046253Y-13481436D02*
X4036729Y-13490960D01*
X4036729Y-13490960D02*
X4017682Y-13500484D01*
X4017682Y-13500484D02*
X3998634Y-13500484D01*
X3998634Y-13500484D02*
X3979586Y-13490960D01*
X3979586Y-13490960D02*
X3970063Y-13481436D01*
X3970063Y-13481436D02*
X3960539Y-13462388D01*
X3960539Y-13462388D02*
X3951015Y-13424293D01*
X3951015Y-13424293D02*
X3951015Y-13376674D01*
X3951015Y-13376674D02*
X3960539Y-13338579D01*
X3960539Y-13338579D02*
X3970063Y-13319531D01*
X3970063Y-13319531D02*
X3979586Y-13310008D01*
X3979586Y-13310008D02*
X3998634Y-13300484D01*
X4151015Y-13481436D02*
X4160539Y-13490960D01*
X4160539Y-13490960D02*
X4151015Y-13500484D01*
X4151015Y-13500484D02*
X4141491Y-13490960D01*
X4141491Y-13490960D02*
X4151015Y-13481436D01*
X4151015Y-13481436D02*
X4151015Y-13500484D01*
X4284348Y-13300484D02*
X4303396Y-13300484D01*
X4303396Y-13300484D02*
X4322444Y-13310008D01*
X4322444Y-13310008D02*
X4331968Y-13319531D01*
X4331968Y-13319531D02*
X4341491Y-13338579D01*
X4341491Y-13338579D02*
X4351015Y-13376674D01*
X4351015Y-13376674D02*
X4351015Y-13424293D01*
X4351015Y-13424293D02*
X4341491Y-13462388D01*
X4341491Y-13462388D02*
X4331968Y-13481436D01*
X4331968Y-13481436D02*
X4322444Y-13490960D01*
X4322444Y-13490960D02*
X4303396Y-13500484D01*
X4303396Y-13500484D02*
X4284348Y-13500484D01*
X4284348Y-13500484D02*
X4265301Y-13490960D01*
X4265301Y-13490960D02*
X4255777Y-13481436D01*
X4255777Y-13481436D02*
X4246253Y-13462388D01*
X4246253Y-13462388D02*
X4236729Y-13424293D01*
X4236729Y-13424293D02*
X4236729Y-13376674D01*
X4236729Y-13376674D02*
X4246253Y-13338579D01*
X4246253Y-13338579D02*
X4255777Y-13319531D01*
X4255777Y-13319531D02*
X4265301Y-13310008D01*
X4265301Y-13310008D02*
X4284348Y-13300484D01*
X4522444Y-13300484D02*
X4484348Y-13300484D01*
X4484348Y-13300484D02*
X4465301Y-13310008D01*
X4465301Y-13310008D02*
X4455777Y-13319531D01*
X4455777Y-13319531D02*
X4436729Y-13348103D01*
X4436729Y-13348103D02*
X4427206Y-13386198D01*
X4427206Y-13386198D02*
X4427206Y-13462388D01*
X4427206Y-13462388D02*
X4436729Y-13481436D01*
X4436729Y-13481436D02*
X4446253Y-13490960D01*
X4446253Y-13490960D02*
X4465301Y-13500484D01*
X4465301Y-13500484D02*
X4503396Y-13500484D01*
X4503396Y-13500484D02*
X4522444Y-13490960D01*
X4522444Y-13490960D02*
X4531968Y-13481436D01*
X4531968Y-13481436D02*
X4541491Y-13462388D01*
X4541491Y-13462388D02*
X4541491Y-13414769D01*
X4541491Y-13414769D02*
X4531968Y-13395722D01*
X4531968Y-13395722D02*
X4522444Y-13386198D01*
X4522444Y-13386198D02*
X4503396Y-13376674D01*
X4503396Y-13376674D02*
X4465301Y-13376674D01*
X4465301Y-13376674D02*
X4446253Y-13386198D01*
X4446253Y-13386198D02*
X4436729Y-13395722D01*
X4436729Y-13395722D02*
X4427206Y-13414769D01*
X4712920Y-13300484D02*
X4674825Y-13300484D01*
X4674825Y-13300484D02*
X4655777Y-13310008D01*
X4655777Y-13310008D02*
X4646253Y-13319531D01*
X4646253Y-13319531D02*
X4627206Y-13348103D01*
X4627206Y-13348103D02*
X4617682Y-13386198D01*
X4617682Y-13386198D02*
X4617682Y-13462388D01*
X4617682Y-13462388D02*
X4627206Y-13481436D01*
X4627206Y-13481436D02*
X4636729Y-13490960D01*
X4636729Y-13490960D02*
X4655777Y-13500484D01*
X4655777Y-13500484D02*
X4693872Y-13500484D01*
X4693872Y-13500484D02*
X4712920Y-13490960D01*
X4712920Y-13490960D02*
X4722444Y-13481436D01*
X4722444Y-13481436D02*
X4731968Y-13462388D01*
X4731968Y-13462388D02*
X4731968Y-13414769D01*
X4731968Y-13414769D02*
X4722444Y-13395722D01*
X4722444Y-13395722D02*
X4712920Y-13386198D01*
X4712920Y-13386198D02*
X4693872Y-13376674D01*
X4693872Y-13376674D02*
X4655777Y-13376674D01*
X4655777Y-13376674D02*
X4636729Y-13386198D01*
X4636729Y-13386198D02*
X4627206Y-13395722D01*
X4627206Y-13395722D02*
X4617682Y-13414769D01*
X4827206Y-13500484D02*
X4865301Y-13500484D01*
X4865301Y-13500484D02*
X4884349Y-13490960D01*
X4884349Y-13490960D02*
X4893872Y-13481436D01*
X4893872Y-13481436D02*
X4912920Y-13452865D01*
X4912920Y-13452865D02*
X4922444Y-13414769D01*
X4922444Y-13414769D02*
X4922444Y-13338579D01*
X4922444Y-13338579D02*
X4912920Y-13319531D01*
X4912920Y-13319531D02*
X4903396Y-13310008D01*
X4903396Y-13310008D02*
X4884349Y-13300484D01*
X4884349Y-13300484D02*
X4846253Y-13300484D01*
X4846253Y-13300484D02*
X4827206Y-13310008D01*
X4827206Y-13310008D02*
X4817682Y-13319531D01*
X4817682Y-13319531D02*
X4808158Y-13338579D01*
X4808158Y-13338579D02*
X4808158Y-13386198D01*
X4808158Y-13386198D02*
X4817682Y-13405246D01*
X4817682Y-13405246D02*
X4827206Y-13414769D01*
X4827206Y-13414769D02*
X4846253Y-13424293D01*
X4846253Y-13424293D02*
X4884349Y-13424293D01*
X4884349Y-13424293D02*
X4903396Y-13414769D01*
X4903396Y-13414769D02*
X4912920Y-13405246D01*
X4912920Y-13405246D02*
X4922444Y-13386198D01*
X4998634Y-13300484D02*
X4998634Y-13338579D01*
X5074825Y-13300484D02*
X5074825Y-13338579D01*
X5370063Y-13576674D02*
X5360539Y-13567150D01*
X5360539Y-13567150D02*
X5341491Y-13538579D01*
X5341491Y-13538579D02*
X5331968Y-13519531D01*
X5331968Y-13519531D02*
X5322444Y-13490960D01*
X5322444Y-13490960D02*
X5312920Y-13443341D01*
X5312920Y-13443341D02*
X5312920Y-13405246D01*
X5312920Y-13405246D02*
X5322444Y-13357627D01*
X5322444Y-13357627D02*
X5331968Y-13329055D01*
X5331968Y-13329055D02*
X5341491Y-13310008D01*
X5341491Y-13310008D02*
X5360539Y-13281436D01*
X5360539Y-13281436D02*
X5370063Y-13271912D01*
X5531968Y-13367150D02*
X5531968Y-13500484D01*
X5484349Y-13290960D02*
X5436730Y-13433817D01*
X5436730Y-13433817D02*
X5560539Y-13433817D01*
X5674825Y-13300484D02*
X5693872Y-13300484D01*
X5693872Y-13300484D02*
X5712920Y-13310008D01*
X5712920Y-13310008D02*
X5722444Y-13319531D01*
X5722444Y-13319531D02*
X5731968Y-13338579D01*
X5731968Y-13338579D02*
X5741491Y-13376674D01*
X5741491Y-13376674D02*
X5741491Y-13424293D01*
X5741491Y-13424293D02*
X5731968Y-13462388D01*
X5731968Y-13462388D02*
X5722444Y-13481436D01*
X5722444Y-13481436D02*
X5712920Y-13490960D01*
X5712920Y-13490960D02*
X5693872Y-13500484D01*
X5693872Y-13500484D02*
X5674825Y-13500484D01*
X5674825Y-13500484D02*
X5655777Y-13490960D01*
X5655777Y-13490960D02*
X5646253Y-13481436D01*
X5646253Y-13481436D02*
X5636729Y-13462388D01*
X5636729Y-13462388D02*
X5627206Y-13424293D01*
X5627206Y-13424293D02*
X5627206Y-13376674D01*
X5627206Y-13376674D02*
X5636729Y-13338579D01*
X5636729Y-13338579D02*
X5646253Y-13319531D01*
X5646253Y-13319531D02*
X5655777Y-13310008D01*
X5655777Y-13310008D02*
X5674825Y-13300484D01*
X5979587Y-13500484D02*
X5979587Y-13300484D01*
X6065301Y-13500484D02*
X6065301Y-13395722D01*
X6065301Y-13395722D02*
X6055777Y-13376674D01*
X6055777Y-13376674D02*
X6036730Y-13367150D01*
X6036730Y-13367150D02*
X6008158Y-13367150D01*
X6008158Y-13367150D02*
X5989110Y-13376674D01*
X5989110Y-13376674D02*
X5979587Y-13386198D01*
X6189110Y-13500484D02*
X6170063Y-13490960D01*
X6170063Y-13490960D02*
X6160539Y-13481436D01*
X6160539Y-13481436D02*
X6151015Y-13462388D01*
X6151015Y-13462388D02*
X6151015Y-13405246D01*
X6151015Y-13405246D02*
X6160539Y-13386198D01*
X6160539Y-13386198D02*
X6170063Y-13376674D01*
X6170063Y-13376674D02*
X6189110Y-13367150D01*
X6189110Y-13367150D02*
X6217682Y-13367150D01*
X6217682Y-13367150D02*
X6236730Y-13376674D01*
X6236730Y-13376674D02*
X6246253Y-13386198D01*
X6246253Y-13386198D02*
X6255777Y-13405246D01*
X6255777Y-13405246D02*
X6255777Y-13462388D01*
X6255777Y-13462388D02*
X6246253Y-13481436D01*
X6246253Y-13481436D02*
X6236730Y-13490960D01*
X6236730Y-13490960D02*
X6217682Y-13500484D01*
X6217682Y-13500484D02*
X6189110Y-13500484D01*
X6370063Y-13500484D02*
X6351015Y-13490960D01*
X6351015Y-13490960D02*
X6341491Y-13471912D01*
X6341491Y-13471912D02*
X6341491Y-13300484D01*
X6522444Y-13490960D02*
X6503396Y-13500484D01*
X6503396Y-13500484D02*
X6465301Y-13500484D01*
X6465301Y-13500484D02*
X6446253Y-13490960D01*
X6446253Y-13490960D02*
X6436730Y-13471912D01*
X6436730Y-13471912D02*
X6436730Y-13395722D01*
X6436730Y-13395722D02*
X6446253Y-13376674D01*
X6446253Y-13376674D02*
X6465301Y-13367150D01*
X6465301Y-13367150D02*
X6503396Y-13367150D01*
X6503396Y-13367150D02*
X6522444Y-13376674D01*
X6522444Y-13376674D02*
X6531968Y-13395722D01*
X6531968Y-13395722D02*
X6531968Y-13414769D01*
X6531968Y-13414769D02*
X6436730Y-13433817D01*
X6608158Y-13490960D02*
X6627206Y-13500484D01*
X6627206Y-13500484D02*
X6665301Y-13500484D01*
X6665301Y-13500484D02*
X6684349Y-13490960D01*
X6684349Y-13490960D02*
X6693872Y-13471912D01*
X6693872Y-13471912D02*
X6693872Y-13462388D01*
X6693872Y-13462388D02*
X6684349Y-13443341D01*
X6684349Y-13443341D02*
X6665301Y-13433817D01*
X6665301Y-13433817D02*
X6636730Y-13433817D01*
X6636730Y-13433817D02*
X6617682Y-13424293D01*
X6617682Y-13424293D02*
X6608158Y-13405246D01*
X6608158Y-13405246D02*
X6608158Y-13395722D01*
X6608158Y-13395722D02*
X6617682Y-13376674D01*
X6617682Y-13376674D02*
X6636730Y-13367150D01*
X6636730Y-13367150D02*
X6665301Y-13367150D01*
X6665301Y-13367150D02*
X6684349Y-13376674D01*
X6760539Y-13576674D02*
X6770063Y-13567150D01*
X6770063Y-13567150D02*
X6789111Y-13538579D01*
X6789111Y-13538579D02*
X6798634Y-13519531D01*
X6798634Y-13519531D02*
X6808158Y-13490960D01*
X6808158Y-13490960D02*
X6817682Y-13443341D01*
X6817682Y-13443341D02*
X6817682Y-13405246D01*
X6817682Y-13405246D02*
X6808158Y-13357627D01*
X6808158Y-13357627D02*
X6798634Y-13329055D01*
X6798634Y-13329055D02*
X6789111Y-13310008D01*
X6789111Y-13310008D02*
X6770063Y-13281436D01*
X6770063Y-13281436D02*
X6760539Y-13271912D01*
X7122444Y-13576674D02*
X7112920Y-13567150D01*
X7112920Y-13567150D02*
X7093872Y-13538579D01*
X7093872Y-13538579D02*
X7084349Y-13519531D01*
X7084349Y-13519531D02*
X7074825Y-13490960D01*
X7074825Y-13490960D02*
X7065301Y-13443341D01*
X7065301Y-13443341D02*
X7065301Y-13405246D01*
X7065301Y-13405246D02*
X7074825Y-13357627D01*
X7074825Y-13357627D02*
X7084349Y-13329055D01*
X7084349Y-13329055D02*
X7093872Y-13310008D01*
X7093872Y-13310008D02*
X7112920Y-13281436D01*
X7112920Y-13281436D02*
X7122444Y-13271912D01*
X7198634Y-13367150D02*
X7198634Y-13500484D01*
X7198634Y-13386198D02*
X7208158Y-13376674D01*
X7208158Y-13376674D02*
X7227206Y-13367150D01*
X7227206Y-13367150D02*
X7255777Y-13367150D01*
X7255777Y-13367150D02*
X7274825Y-13376674D01*
X7274825Y-13376674D02*
X7284349Y-13395722D01*
X7284349Y-13395722D02*
X7284349Y-13500484D01*
X7408158Y-13500484D02*
X7389111Y-13490960D01*
X7389111Y-13490960D02*
X7379587Y-13481436D01*
X7379587Y-13481436D02*
X7370063Y-13462388D01*
X7370063Y-13462388D02*
X7370063Y-13405246D01*
X7370063Y-13405246D02*
X7379587Y-13386198D01*
X7379587Y-13386198D02*
X7389111Y-13376674D01*
X7389111Y-13376674D02*
X7408158Y-13367150D01*
X7408158Y-13367150D02*
X7436730Y-13367150D01*
X7436730Y-13367150D02*
X7455777Y-13376674D01*
X7455777Y-13376674D02*
X7465301Y-13386198D01*
X7465301Y-13386198D02*
X7474825Y-13405246D01*
X7474825Y-13405246D02*
X7474825Y-13462388D01*
X7474825Y-13462388D02*
X7465301Y-13481436D01*
X7465301Y-13481436D02*
X7455777Y-13490960D01*
X7455777Y-13490960D02*
X7436730Y-13500484D01*
X7436730Y-13500484D02*
X7408158Y-13500484D01*
X7531968Y-13367150D02*
X7608158Y-13367150D01*
X7560539Y-13300484D02*
X7560539Y-13471912D01*
X7560539Y-13471912D02*
X7570063Y-13490960D01*
X7570063Y-13490960D02*
X7589111Y-13500484D01*
X7589111Y-13500484D02*
X7608158Y-13500484D01*
X7827206Y-13367150D02*
X7827206Y-13567150D01*
X7827206Y-13376674D02*
X7846253Y-13367150D01*
X7846253Y-13367150D02*
X7884349Y-13367150D01*
X7884349Y-13367150D02*
X7903396Y-13376674D01*
X7903396Y-13376674D02*
X7912920Y-13386198D01*
X7912920Y-13386198D02*
X7922444Y-13405246D01*
X7922444Y-13405246D02*
X7922444Y-13462388D01*
X7922444Y-13462388D02*
X7912920Y-13481436D01*
X7912920Y-13481436D02*
X7903396Y-13490960D01*
X7903396Y-13490960D02*
X7884349Y-13500484D01*
X7884349Y-13500484D02*
X7846253Y-13500484D01*
X7846253Y-13500484D02*
X7827206Y-13490960D01*
X8036730Y-13500484D02*
X8017682Y-13490960D01*
X8017682Y-13490960D02*
X8008158Y-13471912D01*
X8008158Y-13471912D02*
X8008158Y-13300484D01*
X8198634Y-13500484D02*
X8198634Y-13395722D01*
X8198634Y-13395722D02*
X8189111Y-13376674D01*
X8189111Y-13376674D02*
X8170063Y-13367150D01*
X8170063Y-13367150D02*
X8131968Y-13367150D01*
X8131968Y-13367150D02*
X8112920Y-13376674D01*
X8198634Y-13490960D02*
X8179587Y-13500484D01*
X8179587Y-13500484D02*
X8131968Y-13500484D01*
X8131968Y-13500484D02*
X8112920Y-13490960D01*
X8112920Y-13490960D02*
X8103396Y-13471912D01*
X8103396Y-13471912D02*
X8103396Y-13452865D01*
X8103396Y-13452865D02*
X8112920Y-13433817D01*
X8112920Y-13433817D02*
X8131968Y-13424293D01*
X8131968Y-13424293D02*
X8179587Y-13424293D01*
X8179587Y-13424293D02*
X8198634Y-13414769D01*
X8265301Y-13367150D02*
X8341492Y-13367150D01*
X8293873Y-13300484D02*
X8293873Y-13471912D01*
X8293873Y-13471912D02*
X8303396Y-13490960D01*
X8303396Y-13490960D02*
X8322444Y-13500484D01*
X8322444Y-13500484D02*
X8341492Y-13500484D01*
X8484349Y-13490960D02*
X8465301Y-13500484D01*
X8465301Y-13500484D02*
X8427206Y-13500484D01*
X8427206Y-13500484D02*
X8408158Y-13490960D01*
X8408158Y-13490960D02*
X8398635Y-13471912D01*
X8398635Y-13471912D02*
X8398635Y-13395722D01*
X8398635Y-13395722D02*
X8408158Y-13376674D01*
X8408158Y-13376674D02*
X8427206Y-13367150D01*
X8427206Y-13367150D02*
X8465301Y-13367150D01*
X8465301Y-13367150D02*
X8484349Y-13376674D01*
X8484349Y-13376674D02*
X8493873Y-13395722D01*
X8493873Y-13395722D02*
X8493873Y-13414769D01*
X8493873Y-13414769D02*
X8398635Y-13433817D01*
X8665301Y-13500484D02*
X8665301Y-13300484D01*
X8665301Y-13490960D02*
X8646254Y-13500484D01*
X8646254Y-13500484D02*
X8608158Y-13500484D01*
X8608158Y-13500484D02*
X8589111Y-13490960D01*
X8589111Y-13490960D02*
X8579587Y-13481436D01*
X8579587Y-13481436D02*
X8570063Y-13462388D01*
X8570063Y-13462388D02*
X8570063Y-13405246D01*
X8570063Y-13405246D02*
X8579587Y-13386198D01*
X8579587Y-13386198D02*
X8589111Y-13376674D01*
X8589111Y-13376674D02*
X8608158Y-13367150D01*
X8608158Y-13367150D02*
X8646254Y-13367150D01*
X8646254Y-13367150D02*
X8665301Y-13376674D01*
X8741492Y-13576674D02*
X8751016Y-13567150D01*
X8751016Y-13567150D02*
X8770063Y-13538579D01*
X8770063Y-13538579D02*
X8779587Y-13519531D01*
X8779587Y-13519531D02*
X8789111Y-13490960D01*
X8789111Y-13490960D02*
X8798635Y-13443341D01*
X8798635Y-13443341D02*
X8798635Y-13405246D01*
X8798635Y-13405246D02*
X8789111Y-13357627D01*
X8789111Y-13357627D02*
X8779587Y-13329055D01*
X8779587Y-13329055D02*
X8770063Y-13310008D01*
X8770063Y-13310008D02*
X8751016Y-13281436D01*
X8751016Y-13281436D02*
X8741492Y-13271912D01*
X1695000Y-13599000D02*
X1695000Y-13799000D01*
X1595000Y-13699000D02*
X1795000Y-13699000D01*
X2036729Y-13590484D02*
X2160539Y-13590484D01*
X2160539Y-13590484D02*
X2093872Y-13666674D01*
X2093872Y-13666674D02*
X2122444Y-13666674D01*
X2122444Y-13666674D02*
X2141491Y-13676198D01*
X2141491Y-13676198D02*
X2151015Y-13685722D01*
X2151015Y-13685722D02*
X2160539Y-13704769D01*
X2160539Y-13704769D02*
X2160539Y-13752388D01*
X2160539Y-13752388D02*
X2151015Y-13771436D01*
X2151015Y-13771436D02*
X2141491Y-13780960D01*
X2141491Y-13780960D02*
X2122444Y-13790484D01*
X2122444Y-13790484D02*
X2065301Y-13790484D01*
X2065301Y-13790484D02*
X2046253Y-13780960D01*
X2046253Y-13780960D02*
X2036729Y-13771436D01*
X2246253Y-13771436D02*
X2255777Y-13780960D01*
X2255777Y-13780960D02*
X2246253Y-13790484D01*
X2246253Y-13790484D02*
X2236729Y-13780960D01*
X2236729Y-13780960D02*
X2246253Y-13771436D01*
X2246253Y-13771436D02*
X2246253Y-13790484D01*
X2379586Y-13590484D02*
X2398634Y-13590484D01*
X2398634Y-13590484D02*
X2417682Y-13600008D01*
X2417682Y-13600008D02*
X2427205Y-13609531D01*
X2427205Y-13609531D02*
X2436729Y-13628579D01*
X2436729Y-13628579D02*
X2446253Y-13666674D01*
X2446253Y-13666674D02*
X2446253Y-13714293D01*
X2446253Y-13714293D02*
X2436729Y-13752388D01*
X2436729Y-13752388D02*
X2427205Y-13771436D01*
X2427205Y-13771436D02*
X2417682Y-13780960D01*
X2417682Y-13780960D02*
X2398634Y-13790484D01*
X2398634Y-13790484D02*
X2379586Y-13790484D01*
X2379586Y-13790484D02*
X2360539Y-13780960D01*
X2360539Y-13780960D02*
X2351015Y-13771436D01*
X2351015Y-13771436D02*
X2341491Y-13752388D01*
X2341491Y-13752388D02*
X2331967Y-13714293D01*
X2331967Y-13714293D02*
X2331967Y-13666674D01*
X2331967Y-13666674D02*
X2341491Y-13628579D01*
X2341491Y-13628579D02*
X2351015Y-13609531D01*
X2351015Y-13609531D02*
X2360539Y-13600008D01*
X2360539Y-13600008D02*
X2379586Y-13590484D01*
X2627205Y-13590484D02*
X2531967Y-13590484D01*
X2531967Y-13590484D02*
X2522444Y-13685722D01*
X2522444Y-13685722D02*
X2531967Y-13676198D01*
X2531967Y-13676198D02*
X2551015Y-13666674D01*
X2551015Y-13666674D02*
X2598634Y-13666674D01*
X2598634Y-13666674D02*
X2617682Y-13676198D01*
X2617682Y-13676198D02*
X2627205Y-13685722D01*
X2627205Y-13685722D02*
X2636729Y-13704769D01*
X2636729Y-13704769D02*
X2636729Y-13752388D01*
X2636729Y-13752388D02*
X2627205Y-13771436D01*
X2627205Y-13771436D02*
X2617682Y-13780960D01*
X2617682Y-13780960D02*
X2598634Y-13790484D01*
X2598634Y-13790484D02*
X2551015Y-13790484D01*
X2551015Y-13790484D02*
X2531967Y-13780960D01*
X2531967Y-13780960D02*
X2522444Y-13771436D01*
X2760539Y-13590484D02*
X2779586Y-13590484D01*
X2779586Y-13590484D02*
X2798634Y-13600008D01*
X2798634Y-13600008D02*
X2808158Y-13609531D01*
X2808158Y-13609531D02*
X2817682Y-13628579D01*
X2817682Y-13628579D02*
X2827205Y-13666674D01*
X2827205Y-13666674D02*
X2827205Y-13714293D01*
X2827205Y-13714293D02*
X2817682Y-13752388D01*
X2817682Y-13752388D02*
X2808158Y-13771436D01*
X2808158Y-13771436D02*
X2798634Y-13780960D01*
X2798634Y-13780960D02*
X2779586Y-13790484D01*
X2779586Y-13790484D02*
X2760539Y-13790484D01*
X2760539Y-13790484D02*
X2741491Y-13780960D01*
X2741491Y-13780960D02*
X2731967Y-13771436D01*
X2731967Y-13771436D02*
X2722444Y-13752388D01*
X2722444Y-13752388D02*
X2712920Y-13714293D01*
X2712920Y-13714293D02*
X2712920Y-13666674D01*
X2712920Y-13666674D02*
X2722444Y-13628579D01*
X2722444Y-13628579D02*
X2731967Y-13609531D01*
X2731967Y-13609531D02*
X2741491Y-13600008D01*
X2741491Y-13600008D02*
X2760539Y-13590484D01*
X2912920Y-13790484D02*
X2912920Y-13657150D01*
X2912920Y-13676198D02*
X2922443Y-13666674D01*
X2922443Y-13666674D02*
X2941491Y-13657150D01*
X2941491Y-13657150D02*
X2970063Y-13657150D01*
X2970063Y-13657150D02*
X2989110Y-13666674D01*
X2989110Y-13666674D02*
X2998634Y-13685722D01*
X2998634Y-13685722D02*
X2998634Y-13790484D01*
X2998634Y-13685722D02*
X3008158Y-13666674D01*
X3008158Y-13666674D02*
X3027205Y-13657150D01*
X3027205Y-13657150D02*
X3055777Y-13657150D01*
X3055777Y-13657150D02*
X3074824Y-13666674D01*
X3074824Y-13666674D02*
X3084348Y-13685722D01*
X3084348Y-13685722D02*
X3084348Y-13790484D01*
X3179586Y-13790484D02*
X3179586Y-13657150D01*
X3179586Y-13676198D02*
X3189110Y-13666674D01*
X3189110Y-13666674D02*
X3208158Y-13657150D01*
X3208158Y-13657150D02*
X3236729Y-13657150D01*
X3236729Y-13657150D02*
X3255777Y-13666674D01*
X3255777Y-13666674D02*
X3265301Y-13685722D01*
X3265301Y-13685722D02*
X3265301Y-13790484D01*
X3265301Y-13685722D02*
X3274824Y-13666674D01*
X3274824Y-13666674D02*
X3293872Y-13657150D01*
X3293872Y-13657150D02*
X3322443Y-13657150D01*
X3322443Y-13657150D02*
X3341491Y-13666674D01*
X3341491Y-13666674D02*
X3351015Y-13685722D01*
X3351015Y-13685722D02*
X3351015Y-13790484D01*
X3741491Y-13580960D02*
X3570063Y-13838103D01*
X3998634Y-13590484D02*
X4017682Y-13590484D01*
X4017682Y-13590484D02*
X4036729Y-13600008D01*
X4036729Y-13600008D02*
X4046253Y-13609531D01*
X4046253Y-13609531D02*
X4055777Y-13628579D01*
X4055777Y-13628579D02*
X4065301Y-13666674D01*
X4065301Y-13666674D02*
X4065301Y-13714293D01*
X4065301Y-13714293D02*
X4055777Y-13752388D01*
X4055777Y-13752388D02*
X4046253Y-13771436D01*
X4046253Y-13771436D02*
X4036729Y-13780960D01*
X4036729Y-13780960D02*
X4017682Y-13790484D01*
X4017682Y-13790484D02*
X3998634Y-13790484D01*
X3998634Y-13790484D02*
X3979586Y-13780960D01*
X3979586Y-13780960D02*
X3970063Y-13771436D01*
X3970063Y-13771436D02*
X3960539Y-13752388D01*
X3960539Y-13752388D02*
X3951015Y-13714293D01*
X3951015Y-13714293D02*
X3951015Y-13666674D01*
X3951015Y-13666674D02*
X3960539Y-13628579D01*
X3960539Y-13628579D02*
X3970063Y-13609531D01*
X3970063Y-13609531D02*
X3979586Y-13600008D01*
X3979586Y-13600008D02*
X3998634Y-13590484D01*
X4151015Y-13771436D02*
X4160539Y-13780960D01*
X4160539Y-13780960D02*
X4151015Y-13790484D01*
X4151015Y-13790484D02*
X4141491Y-13780960D01*
X4141491Y-13780960D02*
X4151015Y-13771436D01*
X4151015Y-13771436D02*
X4151015Y-13790484D01*
X4351015Y-13790484D02*
X4236729Y-13790484D01*
X4293872Y-13790484D02*
X4293872Y-13590484D01*
X4293872Y-13590484D02*
X4274825Y-13619055D01*
X4274825Y-13619055D02*
X4255777Y-13638103D01*
X4255777Y-13638103D02*
X4236729Y-13647627D01*
X4427206Y-13609531D02*
X4436729Y-13600008D01*
X4436729Y-13600008D02*
X4455777Y-13590484D01*
X4455777Y-13590484D02*
X4503396Y-13590484D01*
X4503396Y-13590484D02*
X4522444Y-13600008D01*
X4522444Y-13600008D02*
X4531968Y-13609531D01*
X4531968Y-13609531D02*
X4541491Y-13628579D01*
X4541491Y-13628579D02*
X4541491Y-13647627D01*
X4541491Y-13647627D02*
X4531968Y-13676198D01*
X4531968Y-13676198D02*
X4417682Y-13790484D01*
X4417682Y-13790484D02*
X4541491Y-13790484D01*
X4665301Y-13590484D02*
X4684349Y-13590484D01*
X4684349Y-13590484D02*
X4703396Y-13600008D01*
X4703396Y-13600008D02*
X4712920Y-13609531D01*
X4712920Y-13609531D02*
X4722444Y-13628579D01*
X4722444Y-13628579D02*
X4731968Y-13666674D01*
X4731968Y-13666674D02*
X4731968Y-13714293D01*
X4731968Y-13714293D02*
X4722444Y-13752388D01*
X4722444Y-13752388D02*
X4712920Y-13771436D01*
X4712920Y-13771436D02*
X4703396Y-13780960D01*
X4703396Y-13780960D02*
X4684349Y-13790484D01*
X4684349Y-13790484D02*
X4665301Y-13790484D01*
X4665301Y-13790484D02*
X4646253Y-13780960D01*
X4646253Y-13780960D02*
X4636729Y-13771436D01*
X4636729Y-13771436D02*
X4627206Y-13752388D01*
X4627206Y-13752388D02*
X4617682Y-13714293D01*
X4617682Y-13714293D02*
X4617682Y-13666674D01*
X4617682Y-13666674D02*
X4627206Y-13628579D01*
X4627206Y-13628579D02*
X4636729Y-13609531D01*
X4636729Y-13609531D02*
X4646253Y-13600008D01*
X4646253Y-13600008D02*
X4665301Y-13590484D01*
X4922444Y-13790484D02*
X4808158Y-13790484D01*
X4865301Y-13790484D02*
X4865301Y-13590484D01*
X4865301Y-13590484D02*
X4846253Y-13619055D01*
X4846253Y-13619055D02*
X4827206Y-13638103D01*
X4827206Y-13638103D02*
X4808158Y-13647627D01*
X4998634Y-13590484D02*
X4998634Y-13628579D01*
X5074825Y-13590484D02*
X5074825Y-13628579D01*
X5370063Y-13866674D02*
X5360539Y-13857150D01*
X5360539Y-13857150D02*
X5341491Y-13828579D01*
X5341491Y-13828579D02*
X5331968Y-13809531D01*
X5331968Y-13809531D02*
X5322444Y-13780960D01*
X5322444Y-13780960D02*
X5312920Y-13733341D01*
X5312920Y-13733341D02*
X5312920Y-13695246D01*
X5312920Y-13695246D02*
X5322444Y-13647627D01*
X5322444Y-13647627D02*
X5331968Y-13619055D01*
X5331968Y-13619055D02*
X5341491Y-13600008D01*
X5341491Y-13600008D02*
X5360539Y-13571436D01*
X5360539Y-13571436D02*
X5370063Y-13561912D01*
X5474825Y-13676198D02*
X5455777Y-13666674D01*
X5455777Y-13666674D02*
X5446253Y-13657150D01*
X5446253Y-13657150D02*
X5436730Y-13638103D01*
X5436730Y-13638103D02*
X5436730Y-13628579D01*
X5436730Y-13628579D02*
X5446253Y-13609531D01*
X5446253Y-13609531D02*
X5455777Y-13600008D01*
X5455777Y-13600008D02*
X5474825Y-13590484D01*
X5474825Y-13590484D02*
X5512920Y-13590484D01*
X5512920Y-13590484D02*
X5531968Y-13600008D01*
X5531968Y-13600008D02*
X5541491Y-13609531D01*
X5541491Y-13609531D02*
X5551015Y-13628579D01*
X5551015Y-13628579D02*
X5551015Y-13638103D01*
X5551015Y-13638103D02*
X5541491Y-13657150D01*
X5541491Y-13657150D02*
X5531968Y-13666674D01*
X5531968Y-13666674D02*
X5512920Y-13676198D01*
X5512920Y-13676198D02*
X5474825Y-13676198D01*
X5474825Y-13676198D02*
X5455777Y-13685722D01*
X5455777Y-13685722D02*
X5446253Y-13695246D01*
X5446253Y-13695246D02*
X5436730Y-13714293D01*
X5436730Y-13714293D02*
X5436730Y-13752388D01*
X5436730Y-13752388D02*
X5446253Y-13771436D01*
X5446253Y-13771436D02*
X5455777Y-13780960D01*
X5455777Y-13780960D02*
X5474825Y-13790484D01*
X5474825Y-13790484D02*
X5512920Y-13790484D01*
X5512920Y-13790484D02*
X5531968Y-13780960D01*
X5531968Y-13780960D02*
X5541491Y-13771436D01*
X5541491Y-13771436D02*
X5551015Y-13752388D01*
X5551015Y-13752388D02*
X5551015Y-13714293D01*
X5551015Y-13714293D02*
X5541491Y-13695246D01*
X5541491Y-13695246D02*
X5531968Y-13685722D01*
X5531968Y-13685722D02*
X5512920Y-13676198D01*
X5789110Y-13790484D02*
X5789110Y-13590484D01*
X5874825Y-13790484D02*
X5874825Y-13685722D01*
X5874825Y-13685722D02*
X5865301Y-13666674D01*
X5865301Y-13666674D02*
X5846253Y-13657150D01*
X5846253Y-13657150D02*
X5817682Y-13657150D01*
X5817682Y-13657150D02*
X5798634Y-13666674D01*
X5798634Y-13666674D02*
X5789110Y-13676198D01*
X5998634Y-13790484D02*
X5979587Y-13780960D01*
X5979587Y-13780960D02*
X5970063Y-13771436D01*
X5970063Y-13771436D02*
X5960539Y-13752388D01*
X5960539Y-13752388D02*
X5960539Y-13695246D01*
X5960539Y-13695246D02*
X5970063Y-13676198D01*
X5970063Y-13676198D02*
X5979587Y-13666674D01*
X5979587Y-13666674D02*
X5998634Y-13657150D01*
X5998634Y-13657150D02*
X6027206Y-13657150D01*
X6027206Y-13657150D02*
X6046253Y-13666674D01*
X6046253Y-13666674D02*
X6055777Y-13676198D01*
X6055777Y-13676198D02*
X6065301Y-13695246D01*
X6065301Y-13695246D02*
X6065301Y-13752388D01*
X6065301Y-13752388D02*
X6055777Y-13771436D01*
X6055777Y-13771436D02*
X6046253Y-13780960D01*
X6046253Y-13780960D02*
X6027206Y-13790484D01*
X6027206Y-13790484D02*
X5998634Y-13790484D01*
X6179587Y-13790484D02*
X6160539Y-13780960D01*
X6160539Y-13780960D02*
X6151015Y-13761912D01*
X6151015Y-13761912D02*
X6151015Y-13590484D01*
X6331968Y-13780960D02*
X6312920Y-13790484D01*
X6312920Y-13790484D02*
X6274825Y-13790484D01*
X6274825Y-13790484D02*
X6255777Y-13780960D01*
X6255777Y-13780960D02*
X6246253Y-13761912D01*
X6246253Y-13761912D02*
X6246253Y-13685722D01*
X6246253Y-13685722D02*
X6255777Y-13666674D01*
X6255777Y-13666674D02*
X6274825Y-13657150D01*
X6274825Y-13657150D02*
X6312920Y-13657150D01*
X6312920Y-13657150D02*
X6331968Y-13666674D01*
X6331968Y-13666674D02*
X6341491Y-13685722D01*
X6341491Y-13685722D02*
X6341491Y-13704769D01*
X6341491Y-13704769D02*
X6246253Y-13723817D01*
X6417682Y-13780960D02*
X6436730Y-13790484D01*
X6436730Y-13790484D02*
X6474825Y-13790484D01*
X6474825Y-13790484D02*
X6493872Y-13780960D01*
X6493872Y-13780960D02*
X6503396Y-13761912D01*
X6503396Y-13761912D02*
X6503396Y-13752388D01*
X6503396Y-13752388D02*
X6493872Y-13733341D01*
X6493872Y-13733341D02*
X6474825Y-13723817D01*
X6474825Y-13723817D02*
X6446253Y-13723817D01*
X6446253Y-13723817D02*
X6427206Y-13714293D01*
X6427206Y-13714293D02*
X6417682Y-13695246D01*
X6417682Y-13695246D02*
X6417682Y-13685722D01*
X6417682Y-13685722D02*
X6427206Y-13666674D01*
X6427206Y-13666674D02*
X6446253Y-13657150D01*
X6446253Y-13657150D02*
X6474825Y-13657150D01*
X6474825Y-13657150D02*
X6493872Y-13666674D01*
X6570063Y-13866674D02*
X6579587Y-13857150D01*
X6579587Y-13857150D02*
X6598634Y-13828579D01*
X6598634Y-13828579D02*
X6608158Y-13809531D01*
X6608158Y-13809531D02*
X6617682Y-13780960D01*
X6617682Y-13780960D02*
X6627206Y-13733341D01*
X6627206Y-13733341D02*
X6627206Y-13695246D01*
X6627206Y-13695246D02*
X6617682Y-13647627D01*
X6617682Y-13647627D02*
X6608158Y-13619055D01*
X6608158Y-13619055D02*
X6598634Y-13600008D01*
X6598634Y-13600008D02*
X6579587Y-13571436D01*
X6579587Y-13571436D02*
X6570063Y-13561912D01*
X6931968Y-13866674D02*
X6922444Y-13857150D01*
X6922444Y-13857150D02*
X6903396Y-13828579D01*
X6903396Y-13828579D02*
X6893872Y-13809531D01*
X6893872Y-13809531D02*
X6884349Y-13780960D01*
X6884349Y-13780960D02*
X6874825Y-13733341D01*
X6874825Y-13733341D02*
X6874825Y-13695246D01*
X6874825Y-13695246D02*
X6884349Y-13647627D01*
X6884349Y-13647627D02*
X6893872Y-13619055D01*
X6893872Y-13619055D02*
X6903396Y-13600008D01*
X6903396Y-13600008D02*
X6922444Y-13571436D01*
X6922444Y-13571436D02*
X6931968Y-13561912D01*
X7008158Y-13657150D02*
X7008158Y-13790484D01*
X7008158Y-13676198D02*
X7017682Y-13666674D01*
X7017682Y-13666674D02*
X7036730Y-13657150D01*
X7036730Y-13657150D02*
X7065301Y-13657150D01*
X7065301Y-13657150D02*
X7084349Y-13666674D01*
X7084349Y-13666674D02*
X7093872Y-13685722D01*
X7093872Y-13685722D02*
X7093872Y-13790484D01*
X7217682Y-13790484D02*
X7198634Y-13780960D01*
X7198634Y-13780960D02*
X7189111Y-13771436D01*
X7189111Y-13771436D02*
X7179587Y-13752388D01*
X7179587Y-13752388D02*
X7179587Y-13695246D01*
X7179587Y-13695246D02*
X7189111Y-13676198D01*
X7189111Y-13676198D02*
X7198634Y-13666674D01*
X7198634Y-13666674D02*
X7217682Y-13657150D01*
X7217682Y-13657150D02*
X7246253Y-13657150D01*
X7246253Y-13657150D02*
X7265301Y-13666674D01*
X7265301Y-13666674D02*
X7274825Y-13676198D01*
X7274825Y-13676198D02*
X7284349Y-13695246D01*
X7284349Y-13695246D02*
X7284349Y-13752388D01*
X7284349Y-13752388D02*
X7274825Y-13771436D01*
X7274825Y-13771436D02*
X7265301Y-13780960D01*
X7265301Y-13780960D02*
X7246253Y-13790484D01*
X7246253Y-13790484D02*
X7217682Y-13790484D01*
X7341492Y-13657150D02*
X7417682Y-13657150D01*
X7370063Y-13590484D02*
X7370063Y-13761912D01*
X7370063Y-13761912D02*
X7379587Y-13780960D01*
X7379587Y-13780960D02*
X7398634Y-13790484D01*
X7398634Y-13790484D02*
X7417682Y-13790484D01*
X7636730Y-13657150D02*
X7636730Y-13857150D01*
X7636730Y-13666674D02*
X7655777Y-13657150D01*
X7655777Y-13657150D02*
X7693873Y-13657150D01*
X7693873Y-13657150D02*
X7712920Y-13666674D01*
X7712920Y-13666674D02*
X7722444Y-13676198D01*
X7722444Y-13676198D02*
X7731968Y-13695246D01*
X7731968Y-13695246D02*
X7731968Y-13752388D01*
X7731968Y-13752388D02*
X7722444Y-13771436D01*
X7722444Y-13771436D02*
X7712920Y-13780960D01*
X7712920Y-13780960D02*
X7693873Y-13790484D01*
X7693873Y-13790484D02*
X7655777Y-13790484D01*
X7655777Y-13790484D02*
X7636730Y-13780960D01*
X7846253Y-13790484D02*
X7827206Y-13780960D01*
X7827206Y-13780960D02*
X7817682Y-13761912D01*
X7817682Y-13761912D02*
X7817682Y-13590484D01*
X8008158Y-13790484D02*
X8008158Y-13685722D01*
X8008158Y-13685722D02*
X7998634Y-13666674D01*
X7998634Y-13666674D02*
X7979587Y-13657150D01*
X7979587Y-13657150D02*
X7941492Y-13657150D01*
X7941492Y-13657150D02*
X7922444Y-13666674D01*
X8008158Y-13780960D02*
X7989111Y-13790484D01*
X7989111Y-13790484D02*
X7941492Y-13790484D01*
X7941492Y-13790484D02*
X7922444Y-13780960D01*
X7922444Y-13780960D02*
X7912920Y-13761912D01*
X7912920Y-13761912D02*
X7912920Y-13742865D01*
X7912920Y-13742865D02*
X7922444Y-13723817D01*
X7922444Y-13723817D02*
X7941492Y-13714293D01*
X7941492Y-13714293D02*
X7989111Y-13714293D01*
X7989111Y-13714293D02*
X8008158Y-13704769D01*
X8074825Y-13657150D02*
X8151015Y-13657150D01*
X8103396Y-13590484D02*
X8103396Y-13761912D01*
X8103396Y-13761912D02*
X8112920Y-13780960D01*
X8112920Y-13780960D02*
X8131968Y-13790484D01*
X8131968Y-13790484D02*
X8151015Y-13790484D01*
X8293873Y-13780960D02*
X8274825Y-13790484D01*
X8274825Y-13790484D02*
X8236730Y-13790484D01*
X8236730Y-13790484D02*
X8217682Y-13780960D01*
X8217682Y-13780960D02*
X8208158Y-13761912D01*
X8208158Y-13761912D02*
X8208158Y-13685722D01*
X8208158Y-13685722D02*
X8217682Y-13666674D01*
X8217682Y-13666674D02*
X8236730Y-13657150D01*
X8236730Y-13657150D02*
X8274825Y-13657150D01*
X8274825Y-13657150D02*
X8293873Y-13666674D01*
X8293873Y-13666674D02*
X8303396Y-13685722D01*
X8303396Y-13685722D02*
X8303396Y-13704769D01*
X8303396Y-13704769D02*
X8208158Y-13723817D01*
X8474825Y-13790484D02*
X8474825Y-13590484D01*
X8474825Y-13780960D02*
X8455777Y-13790484D01*
X8455777Y-13790484D02*
X8417682Y-13790484D01*
X8417682Y-13790484D02*
X8398635Y-13780960D01*
X8398635Y-13780960D02*
X8389111Y-13771436D01*
X8389111Y-13771436D02*
X8379587Y-13752388D01*
X8379587Y-13752388D02*
X8379587Y-13695246D01*
X8379587Y-13695246D02*
X8389111Y-13676198D01*
X8389111Y-13676198D02*
X8398635Y-13666674D01*
X8398635Y-13666674D02*
X8417682Y-13657150D01*
X8417682Y-13657150D02*
X8455777Y-13657150D01*
X8455777Y-13657150D02*
X8474825Y-13666674D01*
X8551016Y-13866674D02*
X8560539Y-13857150D01*
X8560539Y-13857150D02*
X8579587Y-13828579D01*
X8579587Y-13828579D02*
X8589111Y-13809531D01*
X8589111Y-13809531D02*
X8598635Y-13780960D01*
X8598635Y-13780960D02*
X8608158Y-13733341D01*
X8608158Y-13733341D02*
X8608158Y-13695246D01*
X8608158Y-13695246D02*
X8598635Y-13647627D01*
X8598635Y-13647627D02*
X8589111Y-13619055D01*
X8589111Y-13619055D02*
X8579587Y-13600008D01*
X8579587Y-13600008D02*
X8560539Y-13571436D01*
X8560539Y-13571436D02*
X8551016Y-13561912D01*
X1765711Y-14089711D02*
X1765711Y-13948289D01*
X1624289Y-13948289D01*
X1624289Y-14089711D01*
X1765711Y-14089711D01*
X2036729Y-13910484D02*
X2160539Y-13910484D01*
X2160539Y-13910484D02*
X2093872Y-13986674D01*
X2093872Y-13986674D02*
X2122444Y-13986674D01*
X2122444Y-13986674D02*
X2141491Y-13996198D01*
X2141491Y-13996198D02*
X2151015Y-14005722D01*
X2151015Y-14005722D02*
X2160539Y-14024769D01*
X2160539Y-14024769D02*
X2160539Y-14072388D01*
X2160539Y-14072388D02*
X2151015Y-14091436D01*
X2151015Y-14091436D02*
X2141491Y-14100960D01*
X2141491Y-14100960D02*
X2122444Y-14110484D01*
X2122444Y-14110484D02*
X2065301Y-14110484D01*
X2065301Y-14110484D02*
X2046253Y-14100960D01*
X2046253Y-14100960D02*
X2036729Y-14091436D01*
X2246253Y-14091436D02*
X2255777Y-14100960D01*
X2255777Y-14100960D02*
X2246253Y-14110484D01*
X2246253Y-14110484D02*
X2236729Y-14100960D01*
X2236729Y-14100960D02*
X2246253Y-14091436D01*
X2246253Y-14091436D02*
X2246253Y-14110484D01*
X2331967Y-13929531D02*
X2341491Y-13920008D01*
X2341491Y-13920008D02*
X2360539Y-13910484D01*
X2360539Y-13910484D02*
X2408158Y-13910484D01*
X2408158Y-13910484D02*
X2427205Y-13920008D01*
X2427205Y-13920008D02*
X2436729Y-13929531D01*
X2436729Y-13929531D02*
X2446253Y-13948579D01*
X2446253Y-13948579D02*
X2446253Y-13967627D01*
X2446253Y-13967627D02*
X2436729Y-13996198D01*
X2436729Y-13996198D02*
X2322444Y-14110484D01*
X2322444Y-14110484D02*
X2446253Y-14110484D01*
X2570063Y-13910484D02*
X2589110Y-13910484D01*
X2589110Y-13910484D02*
X2608158Y-13920008D01*
X2608158Y-13920008D02*
X2617682Y-13929531D01*
X2617682Y-13929531D02*
X2627205Y-13948579D01*
X2627205Y-13948579D02*
X2636729Y-13986674D01*
X2636729Y-13986674D02*
X2636729Y-14034293D01*
X2636729Y-14034293D02*
X2627205Y-14072388D01*
X2627205Y-14072388D02*
X2617682Y-14091436D01*
X2617682Y-14091436D02*
X2608158Y-14100960D01*
X2608158Y-14100960D02*
X2589110Y-14110484D01*
X2589110Y-14110484D02*
X2570063Y-14110484D01*
X2570063Y-14110484D02*
X2551015Y-14100960D01*
X2551015Y-14100960D02*
X2541491Y-14091436D01*
X2541491Y-14091436D02*
X2531967Y-14072388D01*
X2531967Y-14072388D02*
X2522444Y-14034293D01*
X2522444Y-14034293D02*
X2522444Y-13986674D01*
X2522444Y-13986674D02*
X2531967Y-13948579D01*
X2531967Y-13948579D02*
X2541491Y-13929531D01*
X2541491Y-13929531D02*
X2551015Y-13920008D01*
X2551015Y-13920008D02*
X2570063Y-13910484D01*
X2760539Y-13910484D02*
X2779586Y-13910484D01*
X2779586Y-13910484D02*
X2798634Y-13920008D01*
X2798634Y-13920008D02*
X2808158Y-13929531D01*
X2808158Y-13929531D02*
X2817682Y-13948579D01*
X2817682Y-13948579D02*
X2827205Y-13986674D01*
X2827205Y-13986674D02*
X2827205Y-14034293D01*
X2827205Y-14034293D02*
X2817682Y-14072388D01*
X2817682Y-14072388D02*
X2808158Y-14091436D01*
X2808158Y-14091436D02*
X2798634Y-14100960D01*
X2798634Y-14100960D02*
X2779586Y-14110484D01*
X2779586Y-14110484D02*
X2760539Y-14110484D01*
X2760539Y-14110484D02*
X2741491Y-14100960D01*
X2741491Y-14100960D02*
X2731967Y-14091436D01*
X2731967Y-14091436D02*
X2722444Y-14072388D01*
X2722444Y-14072388D02*
X2712920Y-14034293D01*
X2712920Y-14034293D02*
X2712920Y-13986674D01*
X2712920Y-13986674D02*
X2722444Y-13948579D01*
X2722444Y-13948579D02*
X2731967Y-13929531D01*
X2731967Y-13929531D02*
X2741491Y-13920008D01*
X2741491Y-13920008D02*
X2760539Y-13910484D01*
X2912920Y-14110484D02*
X2912920Y-13977150D01*
X2912920Y-13996198D02*
X2922443Y-13986674D01*
X2922443Y-13986674D02*
X2941491Y-13977150D01*
X2941491Y-13977150D02*
X2970063Y-13977150D01*
X2970063Y-13977150D02*
X2989110Y-13986674D01*
X2989110Y-13986674D02*
X2998634Y-14005722D01*
X2998634Y-14005722D02*
X2998634Y-14110484D01*
X2998634Y-14005722D02*
X3008158Y-13986674D01*
X3008158Y-13986674D02*
X3027205Y-13977150D01*
X3027205Y-13977150D02*
X3055777Y-13977150D01*
X3055777Y-13977150D02*
X3074824Y-13986674D01*
X3074824Y-13986674D02*
X3084348Y-14005722D01*
X3084348Y-14005722D02*
X3084348Y-14110484D01*
X3179586Y-14110484D02*
X3179586Y-13977150D01*
X3179586Y-13996198D02*
X3189110Y-13986674D01*
X3189110Y-13986674D02*
X3208158Y-13977150D01*
X3208158Y-13977150D02*
X3236729Y-13977150D01*
X3236729Y-13977150D02*
X3255777Y-13986674D01*
X3255777Y-13986674D02*
X3265301Y-14005722D01*
X3265301Y-14005722D02*
X3265301Y-14110484D01*
X3265301Y-14005722D02*
X3274824Y-13986674D01*
X3274824Y-13986674D02*
X3293872Y-13977150D01*
X3293872Y-13977150D02*
X3322443Y-13977150D01*
X3322443Y-13977150D02*
X3341491Y-13986674D01*
X3341491Y-13986674D02*
X3351015Y-14005722D01*
X3351015Y-14005722D02*
X3351015Y-14110484D01*
X3741491Y-13900960D02*
X3570063Y-14158103D01*
X3998634Y-13910484D02*
X4017682Y-13910484D01*
X4017682Y-13910484D02*
X4036729Y-13920008D01*
X4036729Y-13920008D02*
X4046253Y-13929531D01*
X4046253Y-13929531D02*
X4055777Y-13948579D01*
X4055777Y-13948579D02*
X4065301Y-13986674D01*
X4065301Y-13986674D02*
X4065301Y-14034293D01*
X4065301Y-14034293D02*
X4055777Y-14072388D01*
X4055777Y-14072388D02*
X4046253Y-14091436D01*
X4046253Y-14091436D02*
X4036729Y-14100960D01*
X4036729Y-14100960D02*
X4017682Y-14110484D01*
X4017682Y-14110484D02*
X3998634Y-14110484D01*
X3998634Y-14110484D02*
X3979586Y-14100960D01*
X3979586Y-14100960D02*
X3970063Y-14091436D01*
X3970063Y-14091436D02*
X3960539Y-14072388D01*
X3960539Y-14072388D02*
X3951015Y-14034293D01*
X3951015Y-14034293D02*
X3951015Y-13986674D01*
X3951015Y-13986674D02*
X3960539Y-13948579D01*
X3960539Y-13948579D02*
X3970063Y-13929531D01*
X3970063Y-13929531D02*
X3979586Y-13920008D01*
X3979586Y-13920008D02*
X3998634Y-13910484D01*
X4151015Y-14091436D02*
X4160539Y-14100960D01*
X4160539Y-14100960D02*
X4151015Y-14110484D01*
X4151015Y-14110484D02*
X4141491Y-14100960D01*
X4141491Y-14100960D02*
X4151015Y-14091436D01*
X4151015Y-14091436D02*
X4151015Y-14110484D01*
X4351015Y-14110484D02*
X4236729Y-14110484D01*
X4293872Y-14110484D02*
X4293872Y-13910484D01*
X4293872Y-13910484D02*
X4274825Y-13939055D01*
X4274825Y-13939055D02*
X4255777Y-13958103D01*
X4255777Y-13958103D02*
X4236729Y-13967627D01*
X4427206Y-13929531D02*
X4436729Y-13920008D01*
X4436729Y-13920008D02*
X4455777Y-13910484D01*
X4455777Y-13910484D02*
X4503396Y-13910484D01*
X4503396Y-13910484D02*
X4522444Y-13920008D01*
X4522444Y-13920008D02*
X4531968Y-13929531D01*
X4531968Y-13929531D02*
X4541491Y-13948579D01*
X4541491Y-13948579D02*
X4541491Y-13967627D01*
X4541491Y-13967627D02*
X4531968Y-13996198D01*
X4531968Y-13996198D02*
X4417682Y-14110484D01*
X4417682Y-14110484D02*
X4541491Y-14110484D01*
X4712920Y-13910484D02*
X4674825Y-13910484D01*
X4674825Y-13910484D02*
X4655777Y-13920008D01*
X4655777Y-13920008D02*
X4646253Y-13929531D01*
X4646253Y-13929531D02*
X4627206Y-13958103D01*
X4627206Y-13958103D02*
X4617682Y-13996198D01*
X4617682Y-13996198D02*
X4617682Y-14072388D01*
X4617682Y-14072388D02*
X4627206Y-14091436D01*
X4627206Y-14091436D02*
X4636729Y-14100960D01*
X4636729Y-14100960D02*
X4655777Y-14110484D01*
X4655777Y-14110484D02*
X4693872Y-14110484D01*
X4693872Y-14110484D02*
X4712920Y-14100960D01*
X4712920Y-14100960D02*
X4722444Y-14091436D01*
X4722444Y-14091436D02*
X4731968Y-14072388D01*
X4731968Y-14072388D02*
X4731968Y-14024769D01*
X4731968Y-14024769D02*
X4722444Y-14005722D01*
X4722444Y-14005722D02*
X4712920Y-13996198D01*
X4712920Y-13996198D02*
X4693872Y-13986674D01*
X4693872Y-13986674D02*
X4655777Y-13986674D01*
X4655777Y-13986674D02*
X4636729Y-13996198D01*
X4636729Y-13996198D02*
X4627206Y-14005722D01*
X4627206Y-14005722D02*
X4617682Y-14024769D01*
X4855777Y-13910484D02*
X4874825Y-13910484D01*
X4874825Y-13910484D02*
X4893872Y-13920008D01*
X4893872Y-13920008D02*
X4903396Y-13929531D01*
X4903396Y-13929531D02*
X4912920Y-13948579D01*
X4912920Y-13948579D02*
X4922444Y-13986674D01*
X4922444Y-13986674D02*
X4922444Y-14034293D01*
X4922444Y-14034293D02*
X4912920Y-14072388D01*
X4912920Y-14072388D02*
X4903396Y-14091436D01*
X4903396Y-14091436D02*
X4893872Y-14100960D01*
X4893872Y-14100960D02*
X4874825Y-14110484D01*
X4874825Y-14110484D02*
X4855777Y-14110484D01*
X4855777Y-14110484D02*
X4836729Y-14100960D01*
X4836729Y-14100960D02*
X4827206Y-14091436D01*
X4827206Y-14091436D02*
X4817682Y-14072388D01*
X4817682Y-14072388D02*
X4808158Y-14034293D01*
X4808158Y-14034293D02*
X4808158Y-13986674D01*
X4808158Y-13986674D02*
X4817682Y-13948579D01*
X4817682Y-13948579D02*
X4827206Y-13929531D01*
X4827206Y-13929531D02*
X4836729Y-13920008D01*
X4836729Y-13920008D02*
X4855777Y-13910484D01*
X4998634Y-13910484D02*
X4998634Y-13948579D01*
X5074825Y-13910484D02*
X5074825Y-13948579D01*
X5370063Y-14186674D02*
X5360539Y-14177150D01*
X5360539Y-14177150D02*
X5341491Y-14148579D01*
X5341491Y-14148579D02*
X5331968Y-14129531D01*
X5331968Y-14129531D02*
X5322444Y-14100960D01*
X5322444Y-14100960D02*
X5312920Y-14053341D01*
X5312920Y-14053341D02*
X5312920Y-14015246D01*
X5312920Y-14015246D02*
X5322444Y-13967627D01*
X5322444Y-13967627D02*
X5331968Y-13939055D01*
X5331968Y-13939055D02*
X5341491Y-13920008D01*
X5341491Y-13920008D02*
X5360539Y-13891436D01*
X5360539Y-13891436D02*
X5370063Y-13881912D01*
X5531968Y-13977150D02*
X5531968Y-14110484D01*
X5484349Y-13900960D02*
X5436730Y-14043817D01*
X5436730Y-14043817D02*
X5560539Y-14043817D01*
X5789110Y-14110484D02*
X5789110Y-13910484D01*
X5874825Y-14110484D02*
X5874825Y-14005722D01*
X5874825Y-14005722D02*
X5865301Y-13986674D01*
X5865301Y-13986674D02*
X5846253Y-13977150D01*
X5846253Y-13977150D02*
X5817682Y-13977150D01*
X5817682Y-13977150D02*
X5798634Y-13986674D01*
X5798634Y-13986674D02*
X5789110Y-13996198D01*
X5998634Y-14110484D02*
X5979587Y-14100960D01*
X5979587Y-14100960D02*
X5970063Y-14091436D01*
X5970063Y-14091436D02*
X5960539Y-14072388D01*
X5960539Y-14072388D02*
X5960539Y-14015246D01*
X5960539Y-14015246D02*
X5970063Y-13996198D01*
X5970063Y-13996198D02*
X5979587Y-13986674D01*
X5979587Y-13986674D02*
X5998634Y-13977150D01*
X5998634Y-13977150D02*
X6027206Y-13977150D01*
X6027206Y-13977150D02*
X6046253Y-13986674D01*
X6046253Y-13986674D02*
X6055777Y-13996198D01*
X6055777Y-13996198D02*
X6065301Y-14015246D01*
X6065301Y-14015246D02*
X6065301Y-14072388D01*
X6065301Y-14072388D02*
X6055777Y-14091436D01*
X6055777Y-14091436D02*
X6046253Y-14100960D01*
X6046253Y-14100960D02*
X6027206Y-14110484D01*
X6027206Y-14110484D02*
X5998634Y-14110484D01*
X6179587Y-14110484D02*
X6160539Y-14100960D01*
X6160539Y-14100960D02*
X6151015Y-14081912D01*
X6151015Y-14081912D02*
X6151015Y-13910484D01*
X6331968Y-14100960D02*
X6312920Y-14110484D01*
X6312920Y-14110484D02*
X6274825Y-14110484D01*
X6274825Y-14110484D02*
X6255777Y-14100960D01*
X6255777Y-14100960D02*
X6246253Y-14081912D01*
X6246253Y-14081912D02*
X6246253Y-14005722D01*
X6246253Y-14005722D02*
X6255777Y-13986674D01*
X6255777Y-13986674D02*
X6274825Y-13977150D01*
X6274825Y-13977150D02*
X6312920Y-13977150D01*
X6312920Y-13977150D02*
X6331968Y-13986674D01*
X6331968Y-13986674D02*
X6341491Y-14005722D01*
X6341491Y-14005722D02*
X6341491Y-14024769D01*
X6341491Y-14024769D02*
X6246253Y-14043817D01*
X6417682Y-14100960D02*
X6436730Y-14110484D01*
X6436730Y-14110484D02*
X6474825Y-14110484D01*
X6474825Y-14110484D02*
X6493872Y-14100960D01*
X6493872Y-14100960D02*
X6503396Y-14081912D01*
X6503396Y-14081912D02*
X6503396Y-14072388D01*
X6503396Y-14072388D02*
X6493872Y-14053341D01*
X6493872Y-14053341D02*
X6474825Y-14043817D01*
X6474825Y-14043817D02*
X6446253Y-14043817D01*
X6446253Y-14043817D02*
X6427206Y-14034293D01*
X6427206Y-14034293D02*
X6417682Y-14015246D01*
X6417682Y-14015246D02*
X6417682Y-14005722D01*
X6417682Y-14005722D02*
X6427206Y-13986674D01*
X6427206Y-13986674D02*
X6446253Y-13977150D01*
X6446253Y-13977150D02*
X6474825Y-13977150D01*
X6474825Y-13977150D02*
X6493872Y-13986674D01*
X6570063Y-14186674D02*
X6579587Y-14177150D01*
X6579587Y-14177150D02*
X6598634Y-14148579D01*
X6598634Y-14148579D02*
X6608158Y-14129531D01*
X6608158Y-14129531D02*
X6617682Y-14100960D01*
X6617682Y-14100960D02*
X6627206Y-14053341D01*
X6627206Y-14053341D02*
X6627206Y-14015246D01*
X6627206Y-14015246D02*
X6617682Y-13967627D01*
X6617682Y-13967627D02*
X6608158Y-13939055D01*
X6608158Y-13939055D02*
X6598634Y-13920008D01*
X6598634Y-13920008D02*
X6579587Y-13891436D01*
X6579587Y-13891436D02*
X6570063Y-13881912D01*
X6931968Y-14186674D02*
X6922444Y-14177150D01*
X6922444Y-14177150D02*
X6903396Y-14148579D01*
X6903396Y-14148579D02*
X6893872Y-14129531D01*
X6893872Y-14129531D02*
X6884349Y-14100960D01*
X6884349Y-14100960D02*
X6874825Y-14053341D01*
X6874825Y-14053341D02*
X6874825Y-14015246D01*
X6874825Y-14015246D02*
X6884349Y-13967627D01*
X6884349Y-13967627D02*
X6893872Y-13939055D01*
X6893872Y-13939055D02*
X6903396Y-13920008D01*
X6903396Y-13920008D02*
X6922444Y-13891436D01*
X6922444Y-13891436D02*
X6931968Y-13881912D01*
X7008158Y-13977150D02*
X7008158Y-14110484D01*
X7008158Y-13996198D02*
X7017682Y-13986674D01*
X7017682Y-13986674D02*
X7036730Y-13977150D01*
X7036730Y-13977150D02*
X7065301Y-13977150D01*
X7065301Y-13977150D02*
X7084349Y-13986674D01*
X7084349Y-13986674D02*
X7093872Y-14005722D01*
X7093872Y-14005722D02*
X7093872Y-14110484D01*
X7217682Y-14110484D02*
X7198634Y-14100960D01*
X7198634Y-14100960D02*
X7189111Y-14091436D01*
X7189111Y-14091436D02*
X7179587Y-14072388D01*
X7179587Y-14072388D02*
X7179587Y-14015246D01*
X7179587Y-14015246D02*
X7189111Y-13996198D01*
X7189111Y-13996198D02*
X7198634Y-13986674D01*
X7198634Y-13986674D02*
X7217682Y-13977150D01*
X7217682Y-13977150D02*
X7246253Y-13977150D01*
X7246253Y-13977150D02*
X7265301Y-13986674D01*
X7265301Y-13986674D02*
X7274825Y-13996198D01*
X7274825Y-13996198D02*
X7284349Y-14015246D01*
X7284349Y-14015246D02*
X7284349Y-14072388D01*
X7284349Y-14072388D02*
X7274825Y-14091436D01*
X7274825Y-14091436D02*
X7265301Y-14100960D01*
X7265301Y-14100960D02*
X7246253Y-14110484D01*
X7246253Y-14110484D02*
X7217682Y-14110484D01*
X7341492Y-13977150D02*
X7417682Y-13977150D01*
X7370063Y-13910484D02*
X7370063Y-14081912D01*
X7370063Y-14081912D02*
X7379587Y-14100960D01*
X7379587Y-14100960D02*
X7398634Y-14110484D01*
X7398634Y-14110484D02*
X7417682Y-14110484D01*
X7636730Y-13977150D02*
X7636730Y-14177150D01*
X7636730Y-13986674D02*
X7655777Y-13977150D01*
X7655777Y-13977150D02*
X7693873Y-13977150D01*
X7693873Y-13977150D02*
X7712920Y-13986674D01*
X7712920Y-13986674D02*
X7722444Y-13996198D01*
X7722444Y-13996198D02*
X7731968Y-14015246D01*
X7731968Y-14015246D02*
X7731968Y-14072388D01*
X7731968Y-14072388D02*
X7722444Y-14091436D01*
X7722444Y-14091436D02*
X7712920Y-14100960D01*
X7712920Y-14100960D02*
X7693873Y-14110484D01*
X7693873Y-14110484D02*
X7655777Y-14110484D01*
X7655777Y-14110484D02*
X7636730Y-14100960D01*
X7846253Y-14110484D02*
X7827206Y-14100960D01*
X7827206Y-14100960D02*
X7817682Y-14081912D01*
X7817682Y-14081912D02*
X7817682Y-13910484D01*
X8008158Y-14110484D02*
X8008158Y-14005722D01*
X8008158Y-14005722D02*
X7998634Y-13986674D01*
X7998634Y-13986674D02*
X7979587Y-13977150D01*
X7979587Y-13977150D02*
X7941492Y-13977150D01*
X7941492Y-13977150D02*
X7922444Y-13986674D01*
X8008158Y-14100960D02*
X7989111Y-14110484D01*
X7989111Y-14110484D02*
X7941492Y-14110484D01*
X7941492Y-14110484D02*
X7922444Y-14100960D01*
X7922444Y-14100960D02*
X7912920Y-14081912D01*
X7912920Y-14081912D02*
X7912920Y-14062865D01*
X7912920Y-14062865D02*
X7922444Y-14043817D01*
X7922444Y-14043817D02*
X7941492Y-14034293D01*
X7941492Y-14034293D02*
X7989111Y-14034293D01*
X7989111Y-14034293D02*
X8008158Y-14024769D01*
X8074825Y-13977150D02*
X8151015Y-13977150D01*
X8103396Y-13910484D02*
X8103396Y-14081912D01*
X8103396Y-14081912D02*
X8112920Y-14100960D01*
X8112920Y-14100960D02*
X8131968Y-14110484D01*
X8131968Y-14110484D02*
X8151015Y-14110484D01*
X8293873Y-14100960D02*
X8274825Y-14110484D01*
X8274825Y-14110484D02*
X8236730Y-14110484D01*
X8236730Y-14110484D02*
X8217682Y-14100960D01*
X8217682Y-14100960D02*
X8208158Y-14081912D01*
X8208158Y-14081912D02*
X8208158Y-14005722D01*
X8208158Y-14005722D02*
X8217682Y-13986674D01*
X8217682Y-13986674D02*
X8236730Y-13977150D01*
X8236730Y-13977150D02*
X8274825Y-13977150D01*
X8274825Y-13977150D02*
X8293873Y-13986674D01*
X8293873Y-13986674D02*
X8303396Y-14005722D01*
X8303396Y-14005722D02*
X8303396Y-14024769D01*
X8303396Y-14024769D02*
X8208158Y-14043817D01*
X8474825Y-14110484D02*
X8474825Y-13910484D01*
X8474825Y-14100960D02*
X8455777Y-14110484D01*
X8455777Y-14110484D02*
X8417682Y-14110484D01*
X8417682Y-14110484D02*
X8398635Y-14100960D01*
X8398635Y-14100960D02*
X8389111Y-14091436D01*
X8389111Y-14091436D02*
X8379587Y-14072388D01*
X8379587Y-14072388D02*
X8379587Y-14015246D01*
X8379587Y-14015246D02*
X8389111Y-13996198D01*
X8389111Y-13996198D02*
X8398635Y-13986674D01*
X8398635Y-13986674D02*
X8417682Y-13977150D01*
X8417682Y-13977150D02*
X8455777Y-13977150D01*
X8455777Y-13977150D02*
X8474825Y-13986674D01*
X8551016Y-14186674D02*
X8560539Y-14177150D01*
X8560539Y-14177150D02*
X8579587Y-14148579D01*
X8579587Y-14148579D02*
X8589111Y-14129531D01*
X8589111Y-14129531D02*
X8598635Y-14100960D01*
X8598635Y-14100960D02*
X8608158Y-14053341D01*
X8608158Y-14053341D02*
X8608158Y-14015246D01*
X8608158Y-14015246D02*
X8598635Y-13967627D01*
X8598635Y-13967627D02*
X8589111Y-13939055D01*
X8589111Y-13939055D02*
X8579587Y-13920008D01*
X8579587Y-13920008D02*
X8560539Y-13891436D01*
X8560539Y-13891436D02*
X8551016Y-13881912D01*
X1695000Y-14439000D02*
X1795000Y-14339000D01*
X1695000Y-14239000D01*
X1595000Y-14339000D01*
X1695000Y-14439000D01*
X2141491Y-14297150D02*
X2141491Y-14430484D01*
X2093872Y-14220960D02*
X2046253Y-14363817D01*
X2046253Y-14363817D02*
X2170063Y-14363817D01*
X2246253Y-14411436D02*
X2255777Y-14420960D01*
X2255777Y-14420960D02*
X2246253Y-14430484D01*
X2246253Y-14430484D02*
X2236729Y-14420960D01*
X2236729Y-14420960D02*
X2246253Y-14411436D01*
X2246253Y-14411436D02*
X2246253Y-14430484D01*
X2379586Y-14230484D02*
X2398634Y-14230484D01*
X2398634Y-14230484D02*
X2417682Y-14240008D01*
X2417682Y-14240008D02*
X2427205Y-14249531D01*
X2427205Y-14249531D02*
X2436729Y-14268579D01*
X2436729Y-14268579D02*
X2446253Y-14306674D01*
X2446253Y-14306674D02*
X2446253Y-14354293D01*
X2446253Y-14354293D02*
X2436729Y-14392388D01*
X2436729Y-14392388D02*
X2427205Y-14411436D01*
X2427205Y-14411436D02*
X2417682Y-14420960D01*
X2417682Y-14420960D02*
X2398634Y-14430484D01*
X2398634Y-14430484D02*
X2379586Y-14430484D01*
X2379586Y-14430484D02*
X2360539Y-14420960D01*
X2360539Y-14420960D02*
X2351015Y-14411436D01*
X2351015Y-14411436D02*
X2341491Y-14392388D01*
X2341491Y-14392388D02*
X2331967Y-14354293D01*
X2331967Y-14354293D02*
X2331967Y-14306674D01*
X2331967Y-14306674D02*
X2341491Y-14268579D01*
X2341491Y-14268579D02*
X2351015Y-14249531D01*
X2351015Y-14249531D02*
X2360539Y-14240008D01*
X2360539Y-14240008D02*
X2379586Y-14230484D01*
X2570063Y-14230484D02*
X2589110Y-14230484D01*
X2589110Y-14230484D02*
X2608158Y-14240008D01*
X2608158Y-14240008D02*
X2617682Y-14249531D01*
X2617682Y-14249531D02*
X2627205Y-14268579D01*
X2627205Y-14268579D02*
X2636729Y-14306674D01*
X2636729Y-14306674D02*
X2636729Y-14354293D01*
X2636729Y-14354293D02*
X2627205Y-14392388D01*
X2627205Y-14392388D02*
X2617682Y-14411436D01*
X2617682Y-14411436D02*
X2608158Y-14420960D01*
X2608158Y-14420960D02*
X2589110Y-14430484D01*
X2589110Y-14430484D02*
X2570063Y-14430484D01*
X2570063Y-14430484D02*
X2551015Y-14420960D01*
X2551015Y-14420960D02*
X2541491Y-14411436D01*
X2541491Y-14411436D02*
X2531967Y-14392388D01*
X2531967Y-14392388D02*
X2522444Y-14354293D01*
X2522444Y-14354293D02*
X2522444Y-14306674D01*
X2522444Y-14306674D02*
X2531967Y-14268579D01*
X2531967Y-14268579D02*
X2541491Y-14249531D01*
X2541491Y-14249531D02*
X2551015Y-14240008D01*
X2551015Y-14240008D02*
X2570063Y-14230484D01*
X2760539Y-14230484D02*
X2779586Y-14230484D01*
X2779586Y-14230484D02*
X2798634Y-14240008D01*
X2798634Y-14240008D02*
X2808158Y-14249531D01*
X2808158Y-14249531D02*
X2817682Y-14268579D01*
X2817682Y-14268579D02*
X2827205Y-14306674D01*
X2827205Y-14306674D02*
X2827205Y-14354293D01*
X2827205Y-14354293D02*
X2817682Y-14392388D01*
X2817682Y-14392388D02*
X2808158Y-14411436D01*
X2808158Y-14411436D02*
X2798634Y-14420960D01*
X2798634Y-14420960D02*
X2779586Y-14430484D01*
X2779586Y-14430484D02*
X2760539Y-14430484D01*
X2760539Y-14430484D02*
X2741491Y-14420960D01*
X2741491Y-14420960D02*
X2731967Y-14411436D01*
X2731967Y-14411436D02*
X2722444Y-14392388D01*
X2722444Y-14392388D02*
X2712920Y-14354293D01*
X2712920Y-14354293D02*
X2712920Y-14306674D01*
X2712920Y-14306674D02*
X2722444Y-14268579D01*
X2722444Y-14268579D02*
X2731967Y-14249531D01*
X2731967Y-14249531D02*
X2741491Y-14240008D01*
X2741491Y-14240008D02*
X2760539Y-14230484D01*
X2912920Y-14430484D02*
X2912920Y-14297150D01*
X2912920Y-14316198D02*
X2922443Y-14306674D01*
X2922443Y-14306674D02*
X2941491Y-14297150D01*
X2941491Y-14297150D02*
X2970063Y-14297150D01*
X2970063Y-14297150D02*
X2989110Y-14306674D01*
X2989110Y-14306674D02*
X2998634Y-14325722D01*
X2998634Y-14325722D02*
X2998634Y-14430484D01*
X2998634Y-14325722D02*
X3008158Y-14306674D01*
X3008158Y-14306674D02*
X3027205Y-14297150D01*
X3027205Y-14297150D02*
X3055777Y-14297150D01*
X3055777Y-14297150D02*
X3074824Y-14306674D01*
X3074824Y-14306674D02*
X3084348Y-14325722D01*
X3084348Y-14325722D02*
X3084348Y-14430484D01*
X3179586Y-14430484D02*
X3179586Y-14297150D01*
X3179586Y-14316198D02*
X3189110Y-14306674D01*
X3189110Y-14306674D02*
X3208158Y-14297150D01*
X3208158Y-14297150D02*
X3236729Y-14297150D01*
X3236729Y-14297150D02*
X3255777Y-14306674D01*
X3255777Y-14306674D02*
X3265301Y-14325722D01*
X3265301Y-14325722D02*
X3265301Y-14430484D01*
X3265301Y-14325722D02*
X3274824Y-14306674D01*
X3274824Y-14306674D02*
X3293872Y-14297150D01*
X3293872Y-14297150D02*
X3322443Y-14297150D01*
X3322443Y-14297150D02*
X3341491Y-14306674D01*
X3341491Y-14306674D02*
X3351015Y-14325722D01*
X3351015Y-14325722D02*
X3351015Y-14430484D01*
X3741491Y-14220960D02*
X3570063Y-14478103D01*
X3998634Y-14230484D02*
X4017682Y-14230484D01*
X4017682Y-14230484D02*
X4036729Y-14240008D01*
X4036729Y-14240008D02*
X4046253Y-14249531D01*
X4046253Y-14249531D02*
X4055777Y-14268579D01*
X4055777Y-14268579D02*
X4065301Y-14306674D01*
X4065301Y-14306674D02*
X4065301Y-14354293D01*
X4065301Y-14354293D02*
X4055777Y-14392388D01*
X4055777Y-14392388D02*
X4046253Y-14411436D01*
X4046253Y-14411436D02*
X4036729Y-14420960D01*
X4036729Y-14420960D02*
X4017682Y-14430484D01*
X4017682Y-14430484D02*
X3998634Y-14430484D01*
X3998634Y-14430484D02*
X3979586Y-14420960D01*
X3979586Y-14420960D02*
X3970063Y-14411436D01*
X3970063Y-14411436D02*
X3960539Y-14392388D01*
X3960539Y-14392388D02*
X3951015Y-14354293D01*
X3951015Y-14354293D02*
X3951015Y-14306674D01*
X3951015Y-14306674D02*
X3960539Y-14268579D01*
X3960539Y-14268579D02*
X3970063Y-14249531D01*
X3970063Y-14249531D02*
X3979586Y-14240008D01*
X3979586Y-14240008D02*
X3998634Y-14230484D01*
X4151015Y-14411436D02*
X4160539Y-14420960D01*
X4160539Y-14420960D02*
X4151015Y-14430484D01*
X4151015Y-14430484D02*
X4141491Y-14420960D01*
X4141491Y-14420960D02*
X4151015Y-14411436D01*
X4151015Y-14411436D02*
X4151015Y-14430484D01*
X4351015Y-14430484D02*
X4236729Y-14430484D01*
X4293872Y-14430484D02*
X4293872Y-14230484D01*
X4293872Y-14230484D02*
X4274825Y-14259055D01*
X4274825Y-14259055D02*
X4255777Y-14278103D01*
X4255777Y-14278103D02*
X4236729Y-14287627D01*
X4531968Y-14230484D02*
X4436729Y-14230484D01*
X4436729Y-14230484D02*
X4427206Y-14325722D01*
X4427206Y-14325722D02*
X4436729Y-14316198D01*
X4436729Y-14316198D02*
X4455777Y-14306674D01*
X4455777Y-14306674D02*
X4503396Y-14306674D01*
X4503396Y-14306674D02*
X4522444Y-14316198D01*
X4522444Y-14316198D02*
X4531968Y-14325722D01*
X4531968Y-14325722D02*
X4541491Y-14344769D01*
X4541491Y-14344769D02*
X4541491Y-14392388D01*
X4541491Y-14392388D02*
X4531968Y-14411436D01*
X4531968Y-14411436D02*
X4522444Y-14420960D01*
X4522444Y-14420960D02*
X4503396Y-14430484D01*
X4503396Y-14430484D02*
X4455777Y-14430484D01*
X4455777Y-14430484D02*
X4436729Y-14420960D01*
X4436729Y-14420960D02*
X4427206Y-14411436D01*
X4608158Y-14230484D02*
X4741491Y-14230484D01*
X4741491Y-14230484D02*
X4655777Y-14430484D01*
X4912920Y-14230484D02*
X4817682Y-14230484D01*
X4817682Y-14230484D02*
X4808158Y-14325722D01*
X4808158Y-14325722D02*
X4817682Y-14316198D01*
X4817682Y-14316198D02*
X4836729Y-14306674D01*
X4836729Y-14306674D02*
X4884349Y-14306674D01*
X4884349Y-14306674D02*
X4903396Y-14316198D01*
X4903396Y-14316198D02*
X4912920Y-14325722D01*
X4912920Y-14325722D02*
X4922444Y-14344769D01*
X4922444Y-14344769D02*
X4922444Y-14392388D01*
X4922444Y-14392388D02*
X4912920Y-14411436D01*
X4912920Y-14411436D02*
X4903396Y-14420960D01*
X4903396Y-14420960D02*
X4884349Y-14430484D01*
X4884349Y-14430484D02*
X4836729Y-14430484D01*
X4836729Y-14430484D02*
X4817682Y-14420960D01*
X4817682Y-14420960D02*
X4808158Y-14411436D01*
X4998634Y-14230484D02*
X4998634Y-14268579D01*
X5074825Y-14230484D02*
X5074825Y-14268579D01*
X5370063Y-14506674D02*
X5360539Y-14497150D01*
X5360539Y-14497150D02*
X5341491Y-14468579D01*
X5341491Y-14468579D02*
X5331968Y-14449531D01*
X5331968Y-14449531D02*
X5322444Y-14420960D01*
X5322444Y-14420960D02*
X5312920Y-14373341D01*
X5312920Y-14373341D02*
X5312920Y-14335246D01*
X5312920Y-14335246D02*
X5322444Y-14287627D01*
X5322444Y-14287627D02*
X5331968Y-14259055D01*
X5331968Y-14259055D02*
X5341491Y-14240008D01*
X5341491Y-14240008D02*
X5360539Y-14211436D01*
X5360539Y-14211436D02*
X5370063Y-14201912D01*
X5436730Y-14249531D02*
X5446253Y-14240008D01*
X5446253Y-14240008D02*
X5465301Y-14230484D01*
X5465301Y-14230484D02*
X5512920Y-14230484D01*
X5512920Y-14230484D02*
X5531968Y-14240008D01*
X5531968Y-14240008D02*
X5541491Y-14249531D01*
X5541491Y-14249531D02*
X5551015Y-14268579D01*
X5551015Y-14268579D02*
X5551015Y-14287627D01*
X5551015Y-14287627D02*
X5541491Y-14316198D01*
X5541491Y-14316198D02*
X5427206Y-14430484D01*
X5427206Y-14430484D02*
X5551015Y-14430484D01*
X5665301Y-14316198D02*
X5646253Y-14306674D01*
X5646253Y-14306674D02*
X5636729Y-14297150D01*
X5636729Y-14297150D02*
X5627206Y-14278103D01*
X5627206Y-14278103D02*
X5627206Y-14268579D01*
X5627206Y-14268579D02*
X5636729Y-14249531D01*
X5636729Y-14249531D02*
X5646253Y-14240008D01*
X5646253Y-14240008D02*
X5665301Y-14230484D01*
X5665301Y-14230484D02*
X5703396Y-14230484D01*
X5703396Y-14230484D02*
X5722444Y-14240008D01*
X5722444Y-14240008D02*
X5731968Y-14249531D01*
X5731968Y-14249531D02*
X5741491Y-14268579D01*
X5741491Y-14268579D02*
X5741491Y-14278103D01*
X5741491Y-14278103D02*
X5731968Y-14297150D01*
X5731968Y-14297150D02*
X5722444Y-14306674D01*
X5722444Y-14306674D02*
X5703396Y-14316198D01*
X5703396Y-14316198D02*
X5665301Y-14316198D01*
X5665301Y-14316198D02*
X5646253Y-14325722D01*
X5646253Y-14325722D02*
X5636729Y-14335246D01*
X5636729Y-14335246D02*
X5627206Y-14354293D01*
X5627206Y-14354293D02*
X5627206Y-14392388D01*
X5627206Y-14392388D02*
X5636729Y-14411436D01*
X5636729Y-14411436D02*
X5646253Y-14420960D01*
X5646253Y-14420960D02*
X5665301Y-14430484D01*
X5665301Y-14430484D02*
X5703396Y-14430484D01*
X5703396Y-14430484D02*
X5722444Y-14420960D01*
X5722444Y-14420960D02*
X5731968Y-14411436D01*
X5731968Y-14411436D02*
X5741491Y-14392388D01*
X5741491Y-14392388D02*
X5741491Y-14354293D01*
X5741491Y-14354293D02*
X5731968Y-14335246D01*
X5731968Y-14335246D02*
X5722444Y-14325722D01*
X5722444Y-14325722D02*
X5703396Y-14316198D01*
X5979587Y-14430484D02*
X5979587Y-14230484D01*
X6065301Y-14430484D02*
X6065301Y-14325722D01*
X6065301Y-14325722D02*
X6055777Y-14306674D01*
X6055777Y-14306674D02*
X6036730Y-14297150D01*
X6036730Y-14297150D02*
X6008158Y-14297150D01*
X6008158Y-14297150D02*
X5989110Y-14306674D01*
X5989110Y-14306674D02*
X5979587Y-14316198D01*
X6189110Y-14430484D02*
X6170063Y-14420960D01*
X6170063Y-14420960D02*
X6160539Y-14411436D01*
X6160539Y-14411436D02*
X6151015Y-14392388D01*
X6151015Y-14392388D02*
X6151015Y-14335246D01*
X6151015Y-14335246D02*
X6160539Y-14316198D01*
X6160539Y-14316198D02*
X6170063Y-14306674D01*
X6170063Y-14306674D02*
X6189110Y-14297150D01*
X6189110Y-14297150D02*
X6217682Y-14297150D01*
X6217682Y-14297150D02*
X6236730Y-14306674D01*
X6236730Y-14306674D02*
X6246253Y-14316198D01*
X6246253Y-14316198D02*
X6255777Y-14335246D01*
X6255777Y-14335246D02*
X6255777Y-14392388D01*
X6255777Y-14392388D02*
X6246253Y-14411436D01*
X6246253Y-14411436D02*
X6236730Y-14420960D01*
X6236730Y-14420960D02*
X6217682Y-14430484D01*
X6217682Y-14430484D02*
X6189110Y-14430484D01*
X6370063Y-14430484D02*
X6351015Y-14420960D01*
X6351015Y-14420960D02*
X6341491Y-14401912D01*
X6341491Y-14401912D02*
X6341491Y-14230484D01*
X6522444Y-14420960D02*
X6503396Y-14430484D01*
X6503396Y-14430484D02*
X6465301Y-14430484D01*
X6465301Y-14430484D02*
X6446253Y-14420960D01*
X6446253Y-14420960D02*
X6436730Y-14401912D01*
X6436730Y-14401912D02*
X6436730Y-14325722D01*
X6436730Y-14325722D02*
X6446253Y-14306674D01*
X6446253Y-14306674D02*
X6465301Y-14297150D01*
X6465301Y-14297150D02*
X6503396Y-14297150D01*
X6503396Y-14297150D02*
X6522444Y-14306674D01*
X6522444Y-14306674D02*
X6531968Y-14325722D01*
X6531968Y-14325722D02*
X6531968Y-14344769D01*
X6531968Y-14344769D02*
X6436730Y-14363817D01*
X6608158Y-14420960D02*
X6627206Y-14430484D01*
X6627206Y-14430484D02*
X6665301Y-14430484D01*
X6665301Y-14430484D02*
X6684349Y-14420960D01*
X6684349Y-14420960D02*
X6693872Y-14401912D01*
X6693872Y-14401912D02*
X6693872Y-14392388D01*
X6693872Y-14392388D02*
X6684349Y-14373341D01*
X6684349Y-14373341D02*
X6665301Y-14363817D01*
X6665301Y-14363817D02*
X6636730Y-14363817D01*
X6636730Y-14363817D02*
X6617682Y-14354293D01*
X6617682Y-14354293D02*
X6608158Y-14335246D01*
X6608158Y-14335246D02*
X6608158Y-14325722D01*
X6608158Y-14325722D02*
X6617682Y-14306674D01*
X6617682Y-14306674D02*
X6636730Y-14297150D01*
X6636730Y-14297150D02*
X6665301Y-14297150D01*
X6665301Y-14297150D02*
X6684349Y-14306674D01*
X6760539Y-14506674D02*
X6770063Y-14497150D01*
X6770063Y-14497150D02*
X6789111Y-14468579D01*
X6789111Y-14468579D02*
X6798634Y-14449531D01*
X6798634Y-14449531D02*
X6808158Y-14420960D01*
X6808158Y-14420960D02*
X6817682Y-14373341D01*
X6817682Y-14373341D02*
X6817682Y-14335246D01*
X6817682Y-14335246D02*
X6808158Y-14287627D01*
X6808158Y-14287627D02*
X6798634Y-14259055D01*
X6798634Y-14259055D02*
X6789111Y-14240008D01*
X6789111Y-14240008D02*
X6770063Y-14211436D01*
X6770063Y-14211436D02*
X6760539Y-14201912D01*
X7122444Y-14506674D02*
X7112920Y-14497150D01*
X7112920Y-14497150D02*
X7093872Y-14468579D01*
X7093872Y-14468579D02*
X7084349Y-14449531D01*
X7084349Y-14449531D02*
X7074825Y-14420960D01*
X7074825Y-14420960D02*
X7065301Y-14373341D01*
X7065301Y-14373341D02*
X7065301Y-14335246D01*
X7065301Y-14335246D02*
X7074825Y-14287627D01*
X7074825Y-14287627D02*
X7084349Y-14259055D01*
X7084349Y-14259055D02*
X7093872Y-14240008D01*
X7093872Y-14240008D02*
X7112920Y-14211436D01*
X7112920Y-14211436D02*
X7122444Y-14201912D01*
X7198634Y-14297150D02*
X7198634Y-14430484D01*
X7198634Y-14316198D02*
X7208158Y-14306674D01*
X7208158Y-14306674D02*
X7227206Y-14297150D01*
X7227206Y-14297150D02*
X7255777Y-14297150D01*
X7255777Y-14297150D02*
X7274825Y-14306674D01*
X7274825Y-14306674D02*
X7284349Y-14325722D01*
X7284349Y-14325722D02*
X7284349Y-14430484D01*
X7408158Y-14430484D02*
X7389111Y-14420960D01*
X7389111Y-14420960D02*
X7379587Y-14411436D01*
X7379587Y-14411436D02*
X7370063Y-14392388D01*
X7370063Y-14392388D02*
X7370063Y-14335246D01*
X7370063Y-14335246D02*
X7379587Y-14316198D01*
X7379587Y-14316198D02*
X7389111Y-14306674D01*
X7389111Y-14306674D02*
X7408158Y-14297150D01*
X7408158Y-14297150D02*
X7436730Y-14297150D01*
X7436730Y-14297150D02*
X7455777Y-14306674D01*
X7455777Y-14306674D02*
X7465301Y-14316198D01*
X7465301Y-14316198D02*
X7474825Y-14335246D01*
X7474825Y-14335246D02*
X7474825Y-14392388D01*
X7474825Y-14392388D02*
X7465301Y-14411436D01*
X7465301Y-14411436D02*
X7455777Y-14420960D01*
X7455777Y-14420960D02*
X7436730Y-14430484D01*
X7436730Y-14430484D02*
X7408158Y-14430484D01*
X7531968Y-14297150D02*
X7608158Y-14297150D01*
X7560539Y-14230484D02*
X7560539Y-14401912D01*
X7560539Y-14401912D02*
X7570063Y-14420960D01*
X7570063Y-14420960D02*
X7589111Y-14430484D01*
X7589111Y-14430484D02*
X7608158Y-14430484D01*
X7827206Y-14297150D02*
X7827206Y-14497150D01*
X7827206Y-14306674D02*
X7846253Y-14297150D01*
X7846253Y-14297150D02*
X7884349Y-14297150D01*
X7884349Y-14297150D02*
X7903396Y-14306674D01*
X7903396Y-14306674D02*
X7912920Y-14316198D01*
X7912920Y-14316198D02*
X7922444Y-14335246D01*
X7922444Y-14335246D02*
X7922444Y-14392388D01*
X7922444Y-14392388D02*
X7912920Y-14411436D01*
X7912920Y-14411436D02*
X7903396Y-14420960D01*
X7903396Y-14420960D02*
X7884349Y-14430484D01*
X7884349Y-14430484D02*
X7846253Y-14430484D01*
X7846253Y-14430484D02*
X7827206Y-14420960D01*
X8036730Y-14430484D02*
X8017682Y-14420960D01*
X8017682Y-14420960D02*
X8008158Y-14401912D01*
X8008158Y-14401912D02*
X8008158Y-14230484D01*
X8198634Y-14430484D02*
X8198634Y-14325722D01*
X8198634Y-14325722D02*
X8189111Y-14306674D01*
X8189111Y-14306674D02*
X8170063Y-14297150D01*
X8170063Y-14297150D02*
X8131968Y-14297150D01*
X8131968Y-14297150D02*
X8112920Y-14306674D01*
X8198634Y-14420960D02*
X8179587Y-14430484D01*
X8179587Y-14430484D02*
X8131968Y-14430484D01*
X8131968Y-14430484D02*
X8112920Y-14420960D01*
X8112920Y-14420960D02*
X8103396Y-14401912D01*
X8103396Y-14401912D02*
X8103396Y-14382865D01*
X8103396Y-14382865D02*
X8112920Y-14363817D01*
X8112920Y-14363817D02*
X8131968Y-14354293D01*
X8131968Y-14354293D02*
X8179587Y-14354293D01*
X8179587Y-14354293D02*
X8198634Y-14344769D01*
X8265301Y-14297150D02*
X8341492Y-14297150D01*
X8293873Y-14230484D02*
X8293873Y-14401912D01*
X8293873Y-14401912D02*
X8303396Y-14420960D01*
X8303396Y-14420960D02*
X8322444Y-14430484D01*
X8322444Y-14430484D02*
X8341492Y-14430484D01*
X8484349Y-14420960D02*
X8465301Y-14430484D01*
X8465301Y-14430484D02*
X8427206Y-14430484D01*
X8427206Y-14430484D02*
X8408158Y-14420960D01*
X8408158Y-14420960D02*
X8398635Y-14401912D01*
X8398635Y-14401912D02*
X8398635Y-14325722D01*
X8398635Y-14325722D02*
X8408158Y-14306674D01*
X8408158Y-14306674D02*
X8427206Y-14297150D01*
X8427206Y-14297150D02*
X8465301Y-14297150D01*
X8465301Y-14297150D02*
X8484349Y-14306674D01*
X8484349Y-14306674D02*
X8493873Y-14325722D01*
X8493873Y-14325722D02*
X8493873Y-14344769D01*
X8493873Y-14344769D02*
X8398635Y-14363817D01*
X8665301Y-14430484D02*
X8665301Y-14230484D01*
X8665301Y-14420960D02*
X8646254Y-14430484D01*
X8646254Y-14430484D02*
X8608158Y-14430484D01*
X8608158Y-14430484D02*
X8589111Y-14420960D01*
X8589111Y-14420960D02*
X8579587Y-14411436D01*
X8579587Y-14411436D02*
X8570063Y-14392388D01*
X8570063Y-14392388D02*
X8570063Y-14335246D01*
X8570063Y-14335246D02*
X8579587Y-14316198D01*
X8579587Y-14316198D02*
X8589111Y-14306674D01*
X8589111Y-14306674D02*
X8608158Y-14297150D01*
X8608158Y-14297150D02*
X8646254Y-14297150D01*
X8646254Y-14297150D02*
X8665301Y-14306674D01*
X8741492Y-14506674D02*
X8751016Y-14497150D01*
X8751016Y-14497150D02*
X8770063Y-14468579D01*
X8770063Y-14468579D02*
X8779587Y-14449531D01*
X8779587Y-14449531D02*
X8789111Y-14420960D01*
X8789111Y-14420960D02*
X8798635Y-14373341D01*
X8798635Y-14373341D02*
X8798635Y-14335246D01*
X8798635Y-14335246D02*
X8789111Y-14287627D01*
X8789111Y-14287627D02*
X8779587Y-14259055D01*
X8779587Y-14259055D02*
X8770063Y-14240008D01*
X8770063Y-14240008D02*
X8751016Y-14211436D01*
X8751016Y-14211436D02*
X8741492Y-14201912D01*
M02*
