  0
SECTION
  2
HEADER
  9
$ANGBASE
  50
0.0
  9
$ANGDIR
  70
1
  9
$MEASUREMENT
  70
0
  0
ENDSEC
  0
SECTION
  2
TABLES
  0
TABLE
  2
LTYPE
  70
4
  0
LTYPE
  5
40F
  2
CONTINUOUS
  70
0
  3
Solid line
  72
65
  73
0
  40
0.0
  0
LTYPE
  5
410
  2
DASHDOT
 70
0
  3
Dash Dot ____ _ ____ _
 72
65
 73
4
 40
2.0
 49
1.25
 49
-0.25
 49
0.25
 49
-0.25
  0
LTYPE
  5
411
  2
DASHED
 70
0
  3
Dashed __ __ __ __ __
 72
65
 73
2
 40
0.75
 49
0.5
 49
-0.25
  0
LTYPE
  5
43B
  2
DOTTED
 70
0
  3
Dotted .  .  .  .
 72
65
 73
2
 40
0.2
 49
0.0
 49
-0.2
  0
ENDTAB
  0
TABLE
  2
STYLE
  70
4
  0
STYLE
  2
KICAD
  70
0
  40
0
  41
1
  42
1
  50
0
  71
0
  3
isocp.shx
  0
STYLE
  2
KICADB
  70
0
  40
0
  41
1
  42
1
  50
0
  71
0
  3
isocp.shx
  0
STYLE
  2
KICADI
  70
0
  40
0
  41
1
  42
1
  50
15
  71
0
  3
isocp.shx
  0
STYLE
  2
KICADBI
  70
0
  40
0
  41
1
  42
1
  50
15
  71
0
  3
isocp.shx
  0
ENDTAB
  0
TABLE
  2
LAYER
  70
1
  0
LAYER
  2
BLACK
  70
0
  62
7
  6
CONTINUOUS
  0
ENDTAB
  0
ENDSEC
  0
SECTION
  2
ENTITIES
0
LINE
8
BLACK
6
CONTINUOUS
10
10.1575
20
-4.92126
11
0.708661
21
-4.92126
0
LINE
8
BLACK
6
CONTINUOUS
10
0.708661
20
-4.92126
11
0.708661
21
-0.708661
0
LINE
8
BLACK
6
CONTINUOUS
10
10.1575
20
-0.708661
11
10.1575
21
-4.92126
0
LINE
8
BLACK
6
CONTINUOUS
10
0.708661
20
-0.708661
11
10.1575
21
-0.708661
0
LINE
8
BLACK
6
CONTINUOUS
10
1.78543
20
-1.48949
11
1.79724
21
-1.5013
0
LINE
8
BLACK
6
CONTINUOUS
10
1.79724
20
-1.48949
11
1.78543
21
-1.5013
0
LINE
8
BLACK
6
CONTINUOUS
10
1.78543
20
-1.55382
11
1.79724
21
-1.56563
0
LINE
8
BLACK
6
CONTINUOUS
10
1.79724
20
-1.55382
11
1.78543
21
-1.56563
0
LINE
8
BLACK
6
CONTINUOUS
10
2.90635
20
-1.56637
11
2.91816
21
-1.57818
0
LINE
8
BLACK
6
CONTINUOUS
10
2.91816
20
-1.56637
11
2.90635
21
-1.57818
0
LINE
8
BLACK
6
CONTINUOUS
10
2.90748
20
-1.48622
11
2.91929
21
-1.49803
0
LINE
8
BLACK
6
CONTINUOUS
10
2.91929
20
-1.48622
11
2.90748
21
-1.49803
0
LINE
8
BLACK
6
CONTINUOUS
10
2.90748
20
-2.23949
11
2.91929
21
-2.2513
0
LINE
8
BLACK
6
CONTINUOUS
10
2.91929
20
-2.23949
11
2.90748
21
-2.2513
0
LINE
8
BLACK
6
CONTINUOUS
10
2.90748
20
-2.30382
11
2.91929
21
-2.31563
0
LINE
8
BLACK
6
CONTINUOUS
10
2.91929
20
-2.30382
11
2.90748
21
-2.31563
0
LINE
8
BLACK
6
CONTINUOUS
10
4.05709
20
-0.903563
11
4.0689
21
-0.915374
0
LINE
8
BLACK
6
CONTINUOUS
10
4.0689
20
-0.903563
11
4.05709
21
-0.915374
0
LINE
8
BLACK
6
CONTINUOUS
10
4.05709
20
-0.950768
11
4.0689
21
-0.962579
0
LINE
8
BLACK
6
CONTINUOUS
10
4.0689
20
-0.950768
11
4.05709
21
-0.962579
0
LINE
8
BLACK
6
CONTINUOUS
10
4.41535
20
-3.13976
11
4.42717
21
-3.15157
0
LINE
8
BLACK
6
CONTINUOUS
10
4.42717
20
-3.13976
11
4.41535
21
-3.15157
0
LINE
8
BLACK
6
CONTINUOUS
10
4.56104
20
-2.39567
11
4.57285
21
-2.40748
0
LINE
8
BLACK
6
CONTINUOUS
10
4.57285
20
-2.39567
11
4.56104
21
-2.40748
0
LINE
8
BLACK
6
CONTINUOUS
10
4.57679
20
-1.59646
11
4.5886
21
-1.60827
0
LINE
8
BLACK
6
CONTINUOUS
10
4.5886
20
-1.59646
11
4.57679
21
-1.60827
0
LINE
8
BLACK
6
CONTINUOUS
10
4.57679
20
-1.78543
11
4.5886
21
-1.79724
0
LINE
8
BLACK
6
CONTINUOUS
10
4.5886
20
-1.78543
11
4.57679
21
-1.79724
0
LINE
8
BLACK
6
CONTINUOUS
10
4.60039
20
-3.13976
11
4.6122
21
-3.15157
0
LINE
8
BLACK
6
CONTINUOUS
10
4.6122
20
-3.13976
11
4.60039
21
-3.15157
0
LINE
8
BLACK
6
CONTINUOUS
10
4.62404
20
-1.59646
11
4.63585
21
-1.60827
0
LINE
8
BLACK
6
CONTINUOUS
10
4.63585
20
-1.59646
11
4.62404
21
-1.60827
0
LINE
8
BLACK
6
CONTINUOUS
10
4.62404
20
-3.16339
11
4.63585
21
-3.1752
0
LINE
8
BLACK
6
CONTINUOUS
10
4.63585
20
-3.16339
11
4.62404
21
-3.1752
0
LINE
8
BLACK
6
CONTINUOUS
10
4.6467
20
-1.52071
11
4.65851
21
-1.53252
0
LINE
8
BLACK
6
CONTINUOUS
10
4.65851
20
-1.52071
11
4.6467
21
-1.53252
0
LINE
8
BLACK
6
CONTINUOUS
10
4.64764
20
-1.55315
11
4.65945
21
-1.56496
0
LINE
8
BLACK
6
CONTINUOUS
10
4.65945
20
-1.55315
11
4.64764
21
-1.56496
0
LINE
8
BLACK
6
CONTINUOUS
10
4.69486
20
-1.52165
11
4.70667
21
-1.53346
0
LINE
8
BLACK
6
CONTINUOUS
10
4.70667
20
-1.52165
11
4.69486
21
-1.53346
0
LINE
8
BLACK
6
CONTINUOUS
10
4.69486
20
-1.55315
11
4.70667
21
-1.56496
0
LINE
8
BLACK
6
CONTINUOUS
10
4.70667
20
-1.55315
11
4.69486
21
-1.56496
0
LINE
8
BLACK
6
CONTINUOUS
10
4.69486
20
-1.78543
11
4.70667
21
-1.79724
0
LINE
8
BLACK
6
CONTINUOUS
10
4.70667
20
-1.78543
11
4.69486
21
-1.79724
0
LINE
8
BLACK
6
CONTINUOUS
10
4.69488
20
-2.39567
11
4.70669
21
-2.40748
0
LINE
8
BLACK
6
CONTINUOUS
10
4.70669
20
-2.39567
11
4.69488
21
-2.40748
0
LINE
8
BLACK
6
CONTINUOUS
10
4.69488
20
-3.33661
11
4.70669
21
-3.34843
0
LINE
8
BLACK
6
CONTINUOUS
10
4.70669
20
-3.33661
11
4.69488
21
-3.34843
0
LINE
8
BLACK
6
CONTINUOUS
10
4.7185
20
-3.6988
11
4.73031
21
-3.71061
0
LINE
8
BLACK
6
CONTINUOUS
10
4.73031
20
-3.6988
11
4.7185
21
-3.71061
0
LINE
8
BLACK
6
CONTINUOUS
10
4.7185
20
-3.73033
11
4.73031
21
-3.74215
0
LINE
8
BLACK
6
CONTINUOUS
10
4.73031
20
-3.73033
11
4.7185
21
-3.74215
0
LINE
8
BLACK
6
CONTINUOUS
10
4.71852
20
-3.54134
11
4.73033
21
-3.55315
0
LINE
8
BLACK
6
CONTINUOUS
10
4.73033
20
-3.54134
11
4.71852
21
-3.55315
0
LINE
8
BLACK
6
CONTINUOUS
10
4.71852
20
-3.57283
11
4.73033
21
-3.58465
0
LINE
8
BLACK
6
CONTINUOUS
10
4.73033
20
-3.57283
11
4.71852
21
-3.58465
0
LINE
8
BLACK
6
CONTINUOUS
10
4.71852
20
-3.60433
11
4.73033
21
-3.61614
0
LINE
8
BLACK
6
CONTINUOUS
10
4.73033
20
-3.60433
11
4.71852
21
-3.61614
0
LINE
8
BLACK
6
CONTINUOUS
10
4.71852
20
-3.63583
11
4.73033
21
-3.64764
0
LINE
8
BLACK
6
CONTINUOUS
10
4.73033
20
-3.63583
11
4.71852
21
-3.64764
0
LINE
8
BLACK
6
CONTINUOUS
10
4.71852
20
-3.66732
11
4.73033
21
-3.67913
0
LINE
8
BLACK
6
CONTINUOUS
10
4.73033
20
-3.66732
11
4.71852
21
-3.67913
0
LINE
8
BLACK
6
CONTINUOUS
10
4.71852
20
-3.76181
11
4.73033
21
-3.77362
0
LINE
8
BLACK
6
CONTINUOUS
10
4.73033
20
-3.76181
11
4.71852
21
-3.77362
0
LINE
8
BLACK
6
CONTINUOUS
10
4.71852
20
-3.79329
11
4.73033
21
-3.8051
0
LINE
8
BLACK
6
CONTINUOUS
10
4.73033
20
-3.79329
11
4.71852
21
-3.8051
0
LINE
8
BLACK
6
CONTINUOUS
10
4.71852
20
-3.82854
11
4.73033
21
-3.84035
0
LINE
8
BLACK
6
CONTINUOUS
10
4.73033
20
-3.82854
11
4.71852
21
-3.84035
0
LINE
8
BLACK
6
CONTINUOUS
10
4.73425
20
-4.48949
11
4.74606
21
-4.5013
0
LINE
8
BLACK
6
CONTINUOUS
10
4.74606
20
-4.48949
11
4.73425
21
-4.5013
0
LINE
8
BLACK
6
CONTINUOUS
10
4.73425
20
-4.55382
11
4.74606
21
-4.56563
0
LINE
8
BLACK
6
CONTINUOUS
10
4.74606
20
-4.55382
11
4.73425
21
-4.56563
0
LINE
8
BLACK
6
CONTINUOUS
10
4.75394
20
-3.16339
11
4.76575
21
-3.1752
0
LINE
8
BLACK
6
CONTINUOUS
10
4.76575
20
-3.16339
11
4.75394
21
-3.1752
0
LINE
8
BLACK
6
CONTINUOUS
10
4.75543
20
-3.32236
11
4.76724
21
-3.33417
0
LINE
8
BLACK
6
CONTINUOUS
10
4.76724
20
-3.32236
11
4.75543
21
-3.33417
0
LINE
8
BLACK
6
CONTINUOUS
10
4.82565
20
-3.28552
11
4.83746
21
-3.29733
0
LINE
8
BLACK
6
CONTINUOUS
10
4.83746
20
-3.28552
11
4.82565
21
-3.29733
0
LINE
8
BLACK
6
CONTINUOUS
10
4.82692
20
-4.36994
11
4.83873
21
-4.38175
0
LINE
8
BLACK
6
CONTINUOUS
10
4.83873
20
-4.36994
11
4.82692
21
-4.38175
0
LINE
8
BLACK
6
CONTINUOUS
10
4.84791
20
-3.26326
11
4.85972
21
-3.27507
0
LINE
8
BLACK
6
CONTINUOUS
10
4.85972
20
-3.26326
11
4.84791
21
-3.27507
0
LINE
8
BLACK
6
CONTINUOUS
10
4.87596
20
-3.63579
11
4.88778
21
-3.6476
0
LINE
8
BLACK
6
CONTINUOUS
10
4.88778
20
-3.63579
11
4.87596
21
-3.6476
0
LINE
8
BLACK
6
CONTINUOUS
10
4.87596
20
-3.54134
11
4.88778
21
-3.55315
0
LINE
8
BLACK
6
CONTINUOUS
10
4.88778
20
-3.54134
11
4.87596
21
-3.55315
0
LINE
8
BLACK
6
CONTINUOUS
10
4.87596
20
-3.57283
11
4.88778
21
-3.58465
0
LINE
8
BLACK
6
CONTINUOUS
10
4.88778
20
-3.57283
11
4.87596
21
-3.58465
0
LINE
8
BLACK
6
CONTINUOUS
10
4.87596
20
-3.69874
11
4.88778
21
-3.71055
0
LINE
8
BLACK
6
CONTINUOUS
10
4.88778
20
-3.69874
11
4.87596
21
-3.71055
0
LINE
8
BLACK
6
CONTINUOUS
10
4.87596
20
-3.73022
11
4.88778
21
-3.74203
0
LINE
8
BLACK
6
CONTINUOUS
10
4.88778
20
-3.73022
11
4.87596
21
-3.74203
0
LINE
8
BLACK
6
CONTINUOUS
10
4.87596
20
-3.76169
11
4.88778
21
-3.7735
0
LINE
8
BLACK
6
CONTINUOUS
10
4.88778
20
-3.76169
11
4.87596
21
-3.7735
0
LINE
8
BLACK
6
CONTINUOUS
10
4.87596
20
-3.66726
11
4.88778
21
-3.67908
0
LINE
8
BLACK
6
CONTINUOUS
10
4.88778
20
-3.66726
11
4.87596
21
-3.67908
0
LINE
8
BLACK
6
CONTINUOUS
10
4.87599
20
-3.60431
11
4.8878
21
-3.61612
0
LINE
8
BLACK
6
CONTINUOUS
10
4.8878
20
-3.60431
11
4.87599
21
-3.61612
0
LINE
8
BLACK
6
CONTINUOUS
10
4.90354
20
-3.50984
11
4.91535
21
-3.52165
0
LINE
8
BLACK
6
CONTINUOUS
10
4.91535
20
-3.50984
11
4.90354
21
-3.52165
0
LINE
8
BLACK
6
CONTINUOUS
10
4.90354
20
-3.78543
11
4.91535
21
-3.79724
0
LINE
8
BLACK
6
CONTINUOUS
10
4.91535
20
-3.78543
11
4.90354
21
-3.79724
0
LINE
8
BLACK
6
CONTINUOUS
10
4.90812
20
-4.41776
11
4.91993
21
-4.42958
0
LINE
8
BLACK
6
CONTINUOUS
10
4.91993
20
-4.41776
11
4.90812
21
-4.42958
0
LINE
8
BLACK
6
CONTINUOUS
10
4.91471
20
-3.37458
11
4.92652
21
-3.38639
0
LINE
8
BLACK
6
CONTINUOUS
10
4.92652
20
-3.37458
11
4.91471
21
-3.38639
0
LINE
8
BLACK
6
CONTINUOUS
10
4.93696
20
-3.35232
11
4.94878
21
-3.36413
0
LINE
8
BLACK
6
CONTINUOUS
10
4.94878
20
-3.35232
11
4.93696
21
-3.36413
0
LINE
8
BLACK
6
CONTINUOUS
10
5.06102
20
-3.16339
11
5.07283
21
-3.1752
0
LINE
8
BLACK
6
CONTINUOUS
10
5.07283
20
-3.16339
11
5.06102
21
-3.1752
0
LINE
8
BLACK
6
CONTINUOUS
10
5.12402
20
-1.51772
11
5.13583
21
-1.52953
0
LINE
8
BLACK
6
CONTINUOUS
10
5.13583
20
-1.51772
11
5.12402
21
-1.52953
0
LINE
8
BLACK
6
CONTINUOUS
10
5.12418
20
-1.55315
11
5.13599
21
-1.56496
0
LINE
8
BLACK
6
CONTINUOUS
10
5.13599
20
-1.55315
11
5.12418
21
-1.56496
0
LINE
8
BLACK
6
CONTINUOUS
10
5.13189
20
-3.19488
11
5.1437
21
-3.20669
0
LINE
8
BLACK
6
CONTINUOUS
10
5.1437
20
-3.19488
11
5.13189
21
-3.20669
0
LINE
8
BLACK
6
CONTINUOUS
10
5.13189
20
-3.32874
11
5.1437
21
-3.34055
0
LINE
8
BLACK
6
CONTINUOUS
10
5.1437
20
-3.32874
11
5.13189
21
-3.34055
0
LINE
8
BLACK
6
CONTINUOUS
10
5.15551
20
-2.23949
11
5.16732
21
-2.2513
0
LINE
8
BLACK
6
CONTINUOUS
10
5.16732
20
-2.23949
11
5.15551
21
-2.2513
0
LINE
8
BLACK
6
CONTINUOUS
10
5.15635
20
-2.30859
11
5.16816
21
-2.3204
0
LINE
8
BLACK
6
CONTINUOUS
10
5.16816
20
-2.30859
11
5.15635
21
-2.3204
0
LINE
8
BLACK
6
CONTINUOUS
10
5.16337
20
-3.32874
11
5.17518
21
-3.34055
0
LINE
8
BLACK
6
CONTINUOUS
10
5.17518
20
-3.32874
11
5.16337
21
-3.34055
0
LINE
8
BLACK
6
CONTINUOUS
10
5.16337
20
-3.19488
11
5.17518
21
-3.20669
0
LINE
8
BLACK
6
CONTINUOUS
10
5.17518
20
-3.19488
11
5.16337
21
-3.20669
0
LINE
8
BLACK
6
CONTINUOUS
10
5.18851
20
-1.51772
11
5.20032
21
-1.52953
0
LINE
8
BLACK
6
CONTINUOUS
10
5.20032
20
-1.51772
11
5.18851
21
-1.52953
0
LINE
8
BLACK
6
CONTINUOUS
10
5.18851
20
-1.55315
11
5.20032
21
-1.56496
0
LINE
8
BLACK
6
CONTINUOUS
10
5.20032
20
-1.55315
11
5.18851
21
-1.56496
0
LINE
8
BLACK
6
CONTINUOUS
10
5.19484
20
-3.32874
11
5.20665
21
-3.34055
0
LINE
8
BLACK
6
CONTINUOUS
10
5.20665
20
-3.32874
11
5.19484
21
-3.34055
0
LINE
8
BLACK
6
CONTINUOUS
10
5.19488
20
-3.19488
11
5.20669
21
-3.20669
0
LINE
8
BLACK
6
CONTINUOUS
10
5.20669
20
-3.19488
11
5.19488
21
-3.20669
0
LINE
8
BLACK
6
CONTINUOUS
10
5.22632
20
-3.32876
11
5.23813
21
-3.34057
0
LINE
8
BLACK
6
CONTINUOUS
10
5.23813
20
-3.32876
11
5.22632
21
-3.34057
0
LINE
8
BLACK
6
CONTINUOUS
10
5.22636
20
-3.19486
11
5.23817
21
-3.20667
0
LINE
8
BLACK
6
CONTINUOUS
10
5.23817
20
-3.19486
11
5.22636
21
-3.20667
0
LINE
8
BLACK
6
CONTINUOUS
10
5.22638
20
-1.08071
11
5.23819
21
-1.09252
0
LINE
8
BLACK
6
CONTINUOUS
10
5.23819
20
-1.08071
11
5.22638
21
-1.09252
0
LINE
8
BLACK
6
CONTINUOUS
10
5.24213
20
-4.46789
11
5.25394
21
-4.4797
0
LINE
8
BLACK
6
CONTINUOUS
10
5.25394
20
-4.46789
11
5.24213
21
-4.4797
0
LINE
8
BLACK
6
CONTINUOUS
10
5.2578
20
-3.32874
11
5.26961
21
-3.34055
0
LINE
8
BLACK
6
CONTINUOUS
10
5.26961
20
-3.32874
11
5.2578
21
-3.34055
0
LINE
8
BLACK
6
CONTINUOUS
10
5.25984
20
-3.19488
11
5.27165
21
-3.20669
0
LINE
8
BLACK
6
CONTINUOUS
10
5.27165
20
-3.19488
11
5.25984
21
-3.20669
0
LINE
8
BLACK
6
CONTINUOUS
10
5.26181
20
-4.00984
11
5.27362
21
-4.02165
0
LINE
8
BLACK
6
CONTINUOUS
10
5.27362
20
-4.00984
11
5.26181
21
-4.02165
0
LINE
8
BLACK
6
CONTINUOUS
10
5.27756
20
-4.14333
11
5.28937
21
-4.15514
0
LINE
8
BLACK
6
CONTINUOUS
10
5.28937
20
-4.14333
11
5.27756
21
-4.15514
0
LINE
8
BLACK
6
CONTINUOUS
10
5.27756
20
-4.20628
11
5.28937
21
-4.21809
0
LINE
8
BLACK
6
CONTINUOUS
10
5.28937
20
-4.20628
11
5.27756
21
-4.21809
0
LINE
8
BLACK
6
CONTINUOUS
10
5.27955
20
-1.51772
11
5.29136
21
-1.52953
0
LINE
8
BLACK
6
CONTINUOUS
10
5.29136
20
-1.51772
11
5.27955
21
-1.52953
0
LINE
8
BLACK
6
CONTINUOUS
10
5.27955
20
-1.55315
11
5.29136
21
-1.56496
0
LINE
8
BLACK
6
CONTINUOUS
10
5.29136
20
-1.55315
11
5.27955
21
-1.56496
0
LINE
8
BLACK
6
CONTINUOUS
10
5.2953
20
-2.94685
11
5.30711
21
-2.95866
0
LINE
8
BLACK
6
CONTINUOUS
10
5.30711
20
-2.94685
11
5.2953
21
-2.95866
0
LINE
8
BLACK
6
CONTINUOUS
10
5.29531
20
-2.36417
11
5.30713
21
-2.37598
0
LINE
8
BLACK
6
CONTINUOUS
10
5.30713
20
-2.36417
11
5.29531
21
-2.37598
0
LINE
8
BLACK
6
CONTINUOUS
10
5.29531
20
-2.39567
11
5.30713
21
-2.40748
0
LINE
8
BLACK
6
CONTINUOUS
10
5.30713
20
-2.39567
11
5.29531
21
-2.40748
0
LINE
8
BLACK
6
CONTINUOUS
10
5.30118
20
-3.87598
11
5.31299
21
-3.8878
0
LINE
8
BLACK
6
CONTINUOUS
10
5.31299
20
-3.87598
11
5.30118
21
-3.8878
0
LINE
8
BLACK
6
CONTINUOUS
10
5.31892
20
-2.01575
11
5.33073
21
-2.02756
0
LINE
8
BLACK
6
CONTINUOUS
10
5.33073
20
-2.01575
11
5.31892
21
-2.02756
0
LINE
8
BLACK
6
CONTINUOUS
10
5.32569
20
-3.74301
11
5.3375
21
-3.75482
0
LINE
8
BLACK
6
CONTINUOUS
10
5.3375
20
-3.74301
11
5.32569
21
-3.75482
0
LINE
8
BLACK
6
CONTINUOUS
10
5.32675
20
-1.51772
11
5.33856
21
-1.52953
0
LINE
8
BLACK
6
CONTINUOUS
10
5.33856
20
-1.51772
11
5.32675
21
-1.52953
0
LINE
8
BLACK
6
CONTINUOUS
10
5.32675
20
-1.55315
11
5.33856
21
-1.56496
0
LINE
8
BLACK
6
CONTINUOUS
10
5.33856
20
-1.55315
11
5.32675
21
-1.56496
0
LINE
8
BLACK
6
CONTINUOUS
10
5.35827
20
-3.56957
11
5.37008
21
-3.58138
0
LINE
8
BLACK
6
CONTINUOUS
10
5.37008
20
-3.56957
11
5.35827
21
-3.58138
0
LINE
8
BLACK
6
CONTINUOUS
10
5.376
20
-2.18701
11
5.38781
21
-2.19882
0
LINE
8
BLACK
6
CONTINUOUS
10
5.38781
20
-2.18701
11
5.376
21
-2.19882
0
LINE
8
BLACK
6
CONTINUOUS
10
5.37992
20
-3.43504
11
5.39173
21
-3.44685
0
LINE
8
BLACK
6
CONTINUOUS
10
5.39173
20
-3.43504
11
5.37992
21
-3.44685
0
LINE
8
BLACK
6
CONTINUOUS
10
5.37992
20
-3.48622
11
5.39173
21
-3.49803
0
LINE
8
BLACK
6
CONTINUOUS
10
5.39173
20
-3.48622
11
5.37992
21
-3.49803
0
LINE
8
BLACK
6
CONTINUOUS
10
5.37992
20
-3.5374
11
5.39173
21
-3.54921
0
LINE
8
BLACK
6
CONTINUOUS
10
5.39173
20
-3.5374
11
5.37992
21
-3.54921
0
LINE
8
BLACK
6
CONTINUOUS
10
5.38436
20
-4.37011
11
5.39617
21
-4.38192
0
LINE
8
BLACK
6
CONTINUOUS
10
5.39617
20
-4.37011
11
5.38436
21
-4.38192
0
LINE
8
BLACK
6
CONTINUOUS
10
5.38522
20
-4.41929
11
5.39703
21
-4.4311
0
LINE
8
BLACK
6
CONTINUOUS
10
5.39703
20
-4.41929
11
5.38522
21
-4.4311
0
LINE
8
BLACK
6
CONTINUOUS
10
5.38522
20
-4.46789
11
5.39703
21
-4.4797
0
LINE
8
BLACK
6
CONTINUOUS
10
5.39703
20
-4.46789
11
5.38522
21
-4.4797
0
LINE
8
BLACK
6
CONTINUOUS
10
5.38632
20
-1.1378
11
5.39813
21
-1.14961
0
LINE
8
BLACK
6
CONTINUOUS
10
5.39813
20
-1.1378
11
5.38632
21
-1.14961
0
LINE
8
BLACK
6
CONTINUOUS
10
5.3878
20
-0.931102
11
5.39961
21
-0.942913
0
LINE
8
BLACK
6
CONTINUOUS
10
5.39961
20
-0.931102
11
5.3878
21
-0.942913
0
LINE
8
BLACK
6
CONTINUOUS
10
5.3878
20
-4.01772
11
5.39961
21
-4.02953
0
LINE
8
BLACK
6
CONTINUOUS
10
5.39961
20
-4.01772
11
5.3878
21
-4.02953
0
LINE
8
BLACK
6
CONTINUOUS
10
5.38976
20
-1.70472
11
5.40157
21
-1.71654
0
LINE
8
BLACK
6
CONTINUOUS
10
5.40157
20
-1.70472
11
5.38976
21
-1.71654
0
LINE
8
BLACK
6
CONTINUOUS
10
5.39094
20
-3.80236
11
5.40276
21
-3.81417
0
LINE
8
BLACK
6
CONTINUOUS
10
5.40276
20
-3.80236
11
5.39094
21
-3.81417
0
LINE
8
BLACK
6
CONTINUOUS
10
5.39764
20
-1.07677
11
5.40945
21
-1.08858
0
LINE
8
BLACK
6
CONTINUOUS
10
5.40945
20
-1.07677
11
5.39764
21
-1.08858
0
LINE
8
BLACK
6
CONTINUOUS
10
5.39961
20
-1.82087
11
5.41142
21
-1.83268
0
LINE
8
BLACK
6
CONTINUOUS
10
5.41142
20
-1.82087
11
5.39961
21
-1.83268
0
LINE
8
BLACK
6
CONTINUOUS
10
5.42325
20
-2.64179
11
5.43506
21
-2.6536
0
LINE
8
BLACK
6
CONTINUOUS
10
5.43506
20
-2.64179
11
5.42325
21
-2.6536
0
LINE
8
BLACK
6
CONTINUOUS
10
5.42448
20
-3.74338
11
5.43629
21
-3.75519
0
LINE
8
BLACK
6
CONTINUOUS
10
5.43629
20
-3.74338
11
5.42448
21
-3.75519
0
LINE
8
BLACK
6
CONTINUOUS
10
5.4311
20
-3.43504
11
5.44291
21
-3.44685
0
LINE
8
BLACK
6
CONTINUOUS
10
5.44291
20
-3.43504
11
5.4311
21
-3.44685
0
LINE
8
BLACK
6
CONTINUOUS
10
5.4311
20
-3.48622
11
5.44291
21
-3.49803
0
LINE
8
BLACK
6
CONTINUOUS
10
5.44291
20
-3.48622
11
5.4311
21
-3.49803
0
LINE
8
BLACK
6
CONTINUOUS
10
5.4311
20
-3.5374
11
5.44291
21
-3.54921
0
LINE
8
BLACK
6
CONTINUOUS
10
5.44291
20
-3.5374
11
5.4311
21
-3.54921
0
LINE
8
BLACK
6
CONTINUOUS
10
5.44683
20
-3.31984
11
5.45864
21
-3.33165
0
LINE
8
BLACK
6
CONTINUOUS
10
5.45864
20
-3.31984
11
5.44683
21
-3.33165
0
LINE
8
BLACK
6
CONTINUOUS
10
5.44687
20
-1.89179
11
5.45868
21
-1.9036
0
LINE
8
BLACK
6
CONTINUOUS
10
5.45868
20
-1.89179
11
5.44687
21
-1.9036
0
LINE
8
BLACK
6
CONTINUOUS
10
5.44687
20
-3.2311
11
5.45868
21
-3.24291
0
LINE
8
BLACK
6
CONTINUOUS
10
5.45868
20
-3.2311
11
5.44687
21
-3.24291
0
LINE
8
BLACK
6
CONTINUOUS
10
5.45472
20
-3.56957
11
5.46654
21
-3.58138
0
LINE
8
BLACK
6
CONTINUOUS
10
5.46654
20
-3.56957
11
5.45472
21
-3.58138
0
LINE
8
BLACK
6
CONTINUOUS
10
5.45669
20
-1.07677
11
5.4685
21
-1.08858
0
LINE
8
BLACK
6
CONTINUOUS
10
5.4685
20
-1.07677
11
5.45669
21
-1.08858
0
LINE
8
BLACK
6
CONTINUOUS
10
5.4626
20
-3.39961
11
5.47441
21
-3.41142
0
LINE
8
BLACK
6
CONTINUOUS
10
5.47441
20
-3.39961
11
5.4626
21
-3.41142
0
LINE
8
BLACK
6
CONTINUOUS
10
5.46654
20
-0.931102
11
5.47835
21
-0.942913
0
LINE
8
BLACK
6
CONTINUOUS
10
5.47835
20
-0.931102
11
5.46654
21
-0.942913
0
LINE
8
BLACK
6
CONTINUOUS
10
5.47244
20
-1.70472
11
5.48425
21
-1.71654
0
LINE
8
BLACK
6
CONTINUOUS
10
5.48425
20
-1.70472
11
5.47244
21
-1.71654
0
LINE
8
BLACK
6
CONTINUOUS
10
5.47835
20
-3.86811
11
5.49016
21
-3.87992
0
LINE
8
BLACK
6
CONTINUOUS
10
5.49016
20
-3.86811
11
5.47835
21
-3.87992
0
LINE
8
BLACK
6
CONTINUOUS
10
5.48228
20
-3.43504
11
5.49409
21
-3.44685
0
LINE
8
BLACK
6
CONTINUOUS
10
5.49409
20
-3.43504
11
5.48228
21
-3.44685
0
LINE
8
BLACK
6
CONTINUOUS
10
5.48228
20
-3.48622
11
5.49409
21
-3.49803
0
LINE
8
BLACK
6
CONTINUOUS
10
5.49409
20
-3.48622
11
5.48228
21
-3.49803
0
LINE
8
BLACK
6
CONTINUOUS
10
5.48228
20
-3.5374
11
5.49409
21
-3.54921
0
LINE
8
BLACK
6
CONTINUOUS
10
5.49409
20
-3.5374
11
5.48228
21
-3.54921
0
LINE
8
BLACK
6
CONTINUOUS
10
5.48841
20
-3.71282
11
5.50022
21
-3.72463
0
LINE
8
BLACK
6
CONTINUOUS
10
5.50022
20
-3.71282
11
5.48841
21
-3.72463
0
LINE
8
BLACK
6
CONTINUOUS
10
5.51772
20
-3.68701
11
5.52953
21
-3.69882
0
LINE
8
BLACK
6
CONTINUOUS
10
5.52953
20
-3.68701
11
5.51772
21
-3.69882
0
LINE
8
BLACK
6
CONTINUOUS
10
5.52557
20
-1.82087
11
5.53738
21
-1.83268
0
LINE
8
BLACK
6
CONTINUOUS
10
5.53738
20
-1.82087
11
5.52557
21
-1.83268
0
LINE
8
BLACK
6
CONTINUOUS
10
5.52557
20
-1.89179
11
5.53738
21
-1.9036
0
LINE
8
BLACK
6
CONTINUOUS
10
5.53738
20
-1.89179
11
5.52557
21
-1.9036
0
LINE
8
BLACK
6
CONTINUOUS
10
5.52557
20
-2.01575
11
5.53738
21
-2.02756
0
LINE
8
BLACK
6
CONTINUOUS
10
5.53738
20
-2.01575
11
5.52557
21
-2.02756
0
LINE
8
BLACK
6
CONTINUOUS
10
5.52557
20
-2.18701
11
5.53738
21
-2.19882
0
LINE
8
BLACK
6
CONTINUOUS
10
5.53738
20
-2.18701
11
5.52557
21
-2.19882
0
LINE
8
BLACK
6
CONTINUOUS
10
5.52557
20
-2.64179
11
5.53738
21
-2.6536
0
LINE
8
BLACK
6
CONTINUOUS
10
5.53738
20
-2.64179
11
5.52557
21
-2.6536
0
LINE
8
BLACK
6
CONTINUOUS
10
5.52557
20
-2.94685
11
5.53738
21
-2.95866
0
LINE
8
BLACK
6
CONTINUOUS
10
5.53738
20
-2.94685
11
5.52557
21
-2.95866
0
LINE
8
BLACK
6
CONTINUOUS
10
5.53346
20
-2.36417
11
5.54528
21
-2.37598
0
LINE
8
BLACK
6
CONTINUOUS
10
5.54528
20
-2.36417
11
5.53346
21
-2.37598
0
LINE
8
BLACK
6
CONTINUOUS
10
5.53346
20
-2.39565
11
5.54528
21
-2.40746
0
LINE
8
BLACK
6
CONTINUOUS
10
5.54528
20
-2.39565
11
5.53346
21
-2.40746
0
LINE
8
BLACK
6
CONTINUOUS
10
5.53346
20
-3.16339
11
5.54528
21
-3.1752
0
LINE
8
BLACK
6
CONTINUOUS
10
5.54528
20
-3.16339
11
5.53346
21
-3.1752
0
LINE
8
BLACK
6
CONTINUOUS
10
5.58071
20
-3.84449
11
5.59252
21
-3.8563
0
LINE
8
BLACK
6
CONTINUOUS
10
5.59252
20
-3.84449
11
5.58071
21
-3.8563
0
LINE
8
BLACK
6
CONTINUOUS
10
5.60433
20
-3.52559
11
5.61614
21
-3.5374
0
LINE
8
BLACK
6
CONTINUOUS
10
5.61614
20
-3.52559
11
5.60433
21
-3.5374
0
LINE
8
BLACK
6
CONTINUOUS
10
5.6062
20
-3.2315
11
5.61801
21
-3.24331
0
LINE
8
BLACK
6
CONTINUOUS
10
5.61801
20
-3.2315
11
5.6062
21
-3.24331
0
LINE
8
BLACK
6
CONTINUOUS
10
5.62795
20
-1.08071
11
5.63976
21
-1.09252
0
LINE
8
BLACK
6
CONTINUOUS
10
5.63976
20
-1.08071
11
5.62795
21
-1.09252
0
LINE
8
BLACK
6
CONTINUOUS
10
5.69764
20
-4.2185
11
5.70945
21
-4.23031
0
LINE
8
BLACK
6
CONTINUOUS
10
5.70945
20
-4.2185
11
5.69764
21
-4.23031
0
LINE
8
BLACK
6
CONTINUOUS
10
5.72638
20
-1.51772
11
5.73819
21
-1.52953
0
LINE
8
BLACK
6
CONTINUOUS
10
5.73819
20
-1.51772
11
5.72638
21
-1.52953
0
LINE
8
BLACK
6
CONTINUOUS
10
5.72638
20
-1.55315
11
5.73819
21
-1.56496
0
LINE
8
BLACK
6
CONTINUOUS
10
5.73819
20
-1.55315
11
5.72638
21
-1.56496
0
LINE
8
BLACK
6
CONTINUOUS
10
5.83268
20
-3.82087
11
5.84449
21
-3.83268
0
LINE
8
BLACK
6
CONTINUOUS
10
5.84449
20
-3.82087
11
5.83268
21
-3.83268
0
LINE
8
BLACK
6
CONTINUOUS
10
5.87717
20
-4.2185
11
5.88898
21
-4.23031
0
LINE
8
BLACK
6
CONTINUOUS
10
5.88898
20
-4.2185
11
5.87717
21
-4.23031
0
LINE
8
BLACK
6
CONTINUOUS
10
5.88386
20
-2.99016
11
5.89567
21
-3.00197
0
LINE
8
BLACK
6
CONTINUOUS
10
5.89567
20
-2.99016
11
5.88386
21
-3.00197
0
LINE
8
BLACK
6
CONTINUOUS
10
5.88516
20
-3.05579
11
5.89697
21
-3.0676
0
LINE
8
BLACK
6
CONTINUOUS
10
5.89697
20
-3.05579
11
5.88516
21
-3.0676
0
LINE
8
BLACK
6
CONTINUOUS
10
5.90635
20
-2.30889
11
5.91816
21
-2.3207
0
LINE
8
BLACK
6
CONTINUOUS
10
5.91816
20
-2.30889
11
5.90635
21
-2.3207
0
LINE
8
BLACK
6
CONTINUOUS
10
5.90748
20
-2.23949
11
5.91929
21
-2.2513
0
LINE
8
BLACK
6
CONTINUOUS
10
5.91929
20
-2.23949
11
5.90748
21
-2.2513
0
LINE
8
BLACK
6
CONTINUOUS
10
5.91142
20
-4.14262
11
5.92323
21
-4.15443
0
LINE
8
BLACK
6
CONTINUOUS
10
5.92323
20
-4.14262
11
5.91142
21
-4.15443
0
LINE
8
BLACK
6
CONTINUOUS
10
5.91211
20
-3.27598
11
5.92392
21
-3.2878
0
LINE
8
BLACK
6
CONTINUOUS
10
5.92392
20
-3.27598
11
5.91211
21
-3.2878
0
LINE
8
BLACK
6
CONTINUOUS
10
5.91575
20
-4.32638
11
5.92756
21
-4.33819
0
LINE
8
BLACK
6
CONTINUOUS
10
5.92756
20
-4.32638
11
5.91575
21
-4.33819
0
LINE
8
BLACK
6
CONTINUOUS
10
5.93898
20
-1.51772
11
5.95079
21
-1.52953
0
LINE
8
BLACK
6
CONTINUOUS
10
5.95079
20
-1.51772
11
5.93898
21
-1.52953
0
LINE
8
BLACK
6
CONTINUOUS
10
5.93898
20
-1.55315
11
5.95079
21
-1.56496
0
LINE
8
BLACK
6
CONTINUOUS
10
5.95079
20
-1.55315
11
5.93898
21
-1.56496
0
LINE
8
BLACK
6
CONTINUOUS
10
5.97047
20
-3.8248
11
5.98228
21
-3.83661
0
LINE
8
BLACK
6
CONTINUOUS
10
5.98228
20
-3.8248
11
5.97047
21
-3.83661
0
LINE
8
BLACK
6
CONTINUOUS
10
5.97047
20
-4.13976
11
5.98228
21
-4.15157
0
LINE
8
BLACK
6
CONTINUOUS
10
5.98228
20
-4.13976
11
5.97047
21
-4.15157
0
LINE
8
BLACK
6
CONTINUOUS
10
5.97047
20
-4.21457
11
5.98228
21
-4.22638
0
LINE
8
BLACK
6
CONTINUOUS
10
5.98228
20
-4.21457
11
5.97047
21
-4.22638
0
LINE
8
BLACK
6
CONTINUOUS
10
6.20276
20
-2.68671
11
6.21457
21
-2.69852
0
LINE
8
BLACK
6
CONTINUOUS
10
6.21457
20
-2.68671
11
6.20276
21
-2.69852
0
LINE
8
BLACK
6
CONTINUOUS
10
6.20276
20
-3.13978
11
6.21457
21
-3.15159
0
LINE
8
BLACK
6
CONTINUOUS
10
6.21457
20
-3.13978
11
6.20276
21
-3.15159
0
LINE
8
BLACK
6
CONTINUOUS
10
6.20278
20
-2.73391
11
6.21459
21
-2.74572
0
LINE
8
BLACK
6
CONTINUOUS
10
6.21459
20
-2.73391
11
6.20278
21
-2.74572
0
LINE
8
BLACK
6
CONTINUOUS
10
6.20278
20
-3.18699
11
6.21459
21
-3.1988
0
LINE
8
BLACK
6
CONTINUOUS
10
6.21459
20
-3.18699
11
6.20278
21
-3.1988
0
LINE
8
BLACK
6
CONTINUOUS
10
6.23425
20
-2.68671
11
6.24606
21
-2.69852
0
LINE
8
BLACK
6
CONTINUOUS
10
6.24606
20
-2.68671
11
6.23425
21
-2.69852
0
LINE
8
BLACK
6
CONTINUOUS
10
6.23425
20
-2.73391
11
6.24606
21
-2.74572
0
LINE
8
BLACK
6
CONTINUOUS
10
6.24606
20
-2.73391
11
6.23425
21
-2.74572
0
LINE
8
BLACK
6
CONTINUOUS
10
6.23425
20
-3.13978
11
6.24606
21
-3.15159
0
LINE
8
BLACK
6
CONTINUOUS
10
6.24606
20
-3.13978
11
6.23425
21
-3.15159
0
LINE
8
BLACK
6
CONTINUOUS
10
6.23425
20
-3.18699
11
6.24606
21
-3.1988
0
LINE
8
BLACK
6
CONTINUOUS
10
6.24606
20
-3.18699
11
6.23425
21
-3.1988
0
LINE
8
BLACK
6
CONTINUOUS
10
8.15551
20
-1.47638
11
8.16732
21
-1.48819
0
LINE
8
BLACK
6
CONTINUOUS
10
8.16732
20
-1.47638
11
8.15551
21
-1.48819
0
LINE
8
BLACK
6
CONTINUOUS
10
8.15635
20
-1.55692
11
8.16816
21
-1.56873
0
LINE
8
BLACK
6
CONTINUOUS
10
8.16816
20
-1.55692
11
8.15635
21
-1.56873
0
LINE
8
BLACK
6
CONTINUOUS
10
8.15748
20
-2.23713
11
8.16929
21
-2.24894
0
LINE
8
BLACK
6
CONTINUOUS
10
8.16929
20
-2.23713
11
8.15748
21
-2.24894
0
LINE
8
BLACK
6
CONTINUOUS
10
8.15748
20
-2.30146
11
8.16929
21
-2.31327
0
LINE
8
BLACK
6
CONTINUOUS
10
8.16929
20
-2.30146
11
8.15748
21
-2.31327
0
CIRCLE
8
BLACK
10
5.26299
20
-0.815945
40
0.011811
0
LINE
8
BLACK
6
CONTINUOUS
10
5.2748
20
-0.831693
11
5.2748
21
-0.800197
0
ARC
8
BLACK
10
5.26299
20
-0.800197
40
0.011811
50
360
51
540
0
LINE
8
BLACK
6
CONTINUOUS
10
5.25118
20
-0.800197
11
5.25118
21
-0.831693
0
ARC
8
BLACK
10
5.26299
20
-0.831693
40
0.011811
50
180
51
360
0
CIRCLE
8
BLACK
10
5.26299
20
-0.980512
40
0.011811
0
LINE
8
BLACK
6
CONTINUOUS
10
5.2748
20
-1.00217
11
5.2748
21
-0.958858
0
ARC
8
BLACK
10
5.26299
20
-0.958858
40
0.011811
50
360
51
540
0
LINE
8
BLACK
6
CONTINUOUS
10
5.25118
20
-0.958858
11
5.25118
21
-1.00217
0
ARC
8
BLACK
10
5.26299
20
-1.00217
40
0.011811
50
180
51
360
0
CIRCLE
8
BLACK
10
5.60315
20
-0.815945
40
0.011811
0
LINE
8
BLACK
6
CONTINUOUS
10
5.61496
20
-0.831693
11
5.61496
21
-0.800197
0
ARC
8
BLACK
10
5.60315
20
-0.800197
40
0.011811
50
360
51
540
0
LINE
8
BLACK
6
CONTINUOUS
10
5.59134
20
-0.800197
11
5.59134
21
-0.831693
0
ARC
8
BLACK
10
5.60315
20
-0.831693
40
0.011811
50
180
51
360
0
CIRCLE
8
BLACK
10
5.60315
20
-0.980512
40
0.011811
0
LINE
8
BLACK
6
CONTINUOUS
10
5.61496
20
-1.00217
11
5.61496
21
-0.958858
0
ARC
8
BLACK
10
5.60315
20
-0.958858
40
0.011811
50
360
51
540
0
LINE
8
BLACK
6
CONTINUOUS
10
5.59134
20
-0.958858
11
5.59134
21
-1.00217
0
ARC
8
BLACK
10
5.60315
20
-1.00217
40
0.011811
50
180
51
360
0
LINE
8
BLACK
6
CONTINUOUS
10
5.36594
20
-4.67795
11
5.36594
21
-4.71732
0
LINE
8
BLACK
6
CONTINUOUS
10
5.34626
20
-4.69764
11
5.38563
21
-4.69764
0
LINE
8
BLACK
6
CONTINUOUS
10
5.36594
20
-4.77795
11
5.36594
21
-4.81732
0
LINE
8
BLACK
6
CONTINUOUS
10
5.34626
20
-4.79764
11
5.38563
21
-4.79764
0
LINE
8
BLACK
6
CONTINUOUS
10
5.50807
20
-4.67795
11
5.50807
21
-4.71732
0
LINE
8
BLACK
6
CONTINUOUS
10
5.48839
20
-4.69764
11
5.52776
21
-4.69764
0
LINE
8
BLACK
6
CONTINUOUS
10
5.50807
20
-4.77795
11
5.50807
21
-4.81732
0
LINE
8
BLACK
6
CONTINUOUS
10
5.48839
20
-4.79764
11
5.52776
21
-4.79764
0
LINE
8
BLACK
6
CONTINUOUS
10
1.18313
20
-3.48709
11
1.18313
21
-3.44534
0
LINE
8
BLACK
6
CONTINUOUS
10
1.18313
20
-3.44534
11
1.14137
21
-3.44534
0
LINE
8
BLACK
6
CONTINUOUS
10
1.14137
20
-3.44534
11
1.14137
21
-3.48709
0
LINE
8
BLACK
6
CONTINUOUS
10
1.14137
20
-3.48709
11
1.18313
21
-3.48709
0
LINE
8
BLACK
6
CONTINUOUS
10
1.43313
20
-3.38709
11
1.43313
21
-3.34534
0
LINE
8
BLACK
6
CONTINUOUS
10
1.43313
20
-3.34534
11
1.39137
21
-3.34534
0
LINE
8
BLACK
6
CONTINUOUS
10
1.39137
20
-3.34534
11
1.39137
21
-3.38709
0
LINE
8
BLACK
6
CONTINUOUS
10
1.39137
20
-3.38709
11
1.43313
21
-3.38709
0
LINE
8
BLACK
6
CONTINUOUS
10
1.55813
20
-1.23709
11
1.55813
21
-1.19534
0
LINE
8
BLACK
6
CONTINUOUS
10
1.55813
20
-1.19534
11
1.51637
21
-1.19534
0
LINE
8
BLACK
6
CONTINUOUS
10
1.51637
20
-1.19534
11
1.51637
21
-1.23709
0
LINE
8
BLACK
6
CONTINUOUS
10
1.51637
20
-1.23709
11
1.55813
21
-1.23709
0
LINE
8
BLACK
6
CONTINUOUS
10
1.80813
20
-1.13709
11
1.80813
21
-1.09534
0
LINE
8
BLACK
6
CONTINUOUS
10
1.80813
20
-1.09534
11
1.76637
21
-1.09534
0
LINE
8
BLACK
6
CONTINUOUS
10
1.76637
20
-1.09534
11
1.76637
21
-1.13709
0
LINE
8
BLACK
6
CONTINUOUS
10
1.76637
20
-1.13709
11
1.80813
21
-1.13709
0
LINE
8
BLACK
6
CONTINUOUS
10
1.93313
20
-1.98709
11
1.93313
21
-1.94534
0
LINE
8
BLACK
6
CONTINUOUS
10
1.93313
20
-1.94534
11
1.89137
21
-1.94534
0
LINE
8
BLACK
6
CONTINUOUS
10
1.89137
20
-1.94534
11
1.89137
21
-1.98709
0
LINE
8
BLACK
6
CONTINUOUS
10
1.89137
20
-1.98709
11
1.93313
21
-1.98709
0
LINE
8
BLACK
6
CONTINUOUS
10
2.18313
20
-1.88709
11
2.18313
21
-1.84534
0
LINE
8
BLACK
6
CONTINUOUS
10
2.18313
20
-1.84534
11
2.14137
21
-1.84534
0
LINE
8
BLACK
6
CONTINUOUS
10
2.14137
20
-1.84534
11
2.14137
21
-1.88709
0
LINE
8
BLACK
6
CONTINUOUS
10
2.14137
20
-1.88709
11
2.18313
21
-1.88709
0
LINE
8
BLACK
6
CONTINUOUS
10
2.68313
20
-1.23709
11
2.68313
21
-1.19534
0
LINE
8
BLACK
6
CONTINUOUS
10
2.68313
20
-1.19534
11
2.64137
21
-1.19534
0
LINE
8
BLACK
6
CONTINUOUS
10
2.64137
20
-1.19534
11
2.64137
21
-1.23709
0
LINE
8
BLACK
6
CONTINUOUS
10
2.64137
20
-1.23709
11
2.68313
21
-1.23709
0
LINE
8
BLACK
6
CONTINUOUS
10
2.68313
20
-1.98709
11
2.68313
21
-1.94534
0
LINE
8
BLACK
6
CONTINUOUS
10
2.68313
20
-1.94534
11
2.64137
21
-1.94534
0
LINE
8
BLACK
6
CONTINUOUS
10
2.64137
20
-1.94534
11
2.64137
21
-1.98709
0
LINE
8
BLACK
6
CONTINUOUS
10
2.64137
20
-1.98709
11
2.68313
21
-1.98709
0
LINE
8
BLACK
6
CONTINUOUS
10
2.68313
20
-2.73709
11
2.68313
21
-2.69534
0
LINE
8
BLACK
6
CONTINUOUS
10
2.68313
20
-2.69534
11
2.64137
21
-2.69534
0
LINE
8
BLACK
6
CONTINUOUS
10
2.64137
20
-2.69534
11
2.64137
21
-2.73709
0
LINE
8
BLACK
6
CONTINUOUS
10
2.64137
20
-2.73709
11
2.68313
21
-2.73709
0
LINE
8
BLACK
6
CONTINUOUS
10
2.93313
20
-1.13709
11
2.93313
21
-1.09534
0
LINE
8
BLACK
6
CONTINUOUS
10
2.93313
20
-1.09534
11
2.89137
21
-1.09534
0
LINE
8
BLACK
6
CONTINUOUS
10
2.89137
20
-1.09534
11
2.89137
21
-1.13709
0
LINE
8
BLACK
6
CONTINUOUS
10
2.89137
20
-1.13709
11
2.93313
21
-1.13709
0
LINE
8
BLACK
6
CONTINUOUS
10
2.93313
20
-1.88709
11
2.93313
21
-1.84534
0
LINE
8
BLACK
6
CONTINUOUS
10
2.93313
20
-1.84534
11
2.89137
21
-1.84534
0
LINE
8
BLACK
6
CONTINUOUS
10
2.89137
20
-1.84534
11
2.89137
21
-1.88709
0
LINE
8
BLACK
6
CONTINUOUS
10
2.89137
20
-1.88709
11
2.93313
21
-1.88709
0
LINE
8
BLACK
6
CONTINUOUS
10
2.93313
20
-2.63709
11
2.93313
21
-2.59534
0
LINE
8
BLACK
6
CONTINUOUS
10
2.93313
20
-2.59534
11
2.89137
21
-2.59534
0
LINE
8
BLACK
6
CONTINUOUS
10
2.89137
20
-2.59534
11
2.89137
21
-2.63709
0
LINE
8
BLACK
6
CONTINUOUS
10
2.89137
20
-2.63709
11
2.93313
21
-2.63709
0
LINE
8
BLACK
6
CONTINUOUS
10
3.43313
20
-1.98709
11
3.43313
21
-1.94534
0
LINE
8
BLACK
6
CONTINUOUS
10
3.43313
20
-1.94534
11
3.39137
21
-1.94534
0
LINE
8
BLACK
6
CONTINUOUS
10
3.39137
20
-1.94534
11
3.39137
21
-1.98709
0
LINE
8
BLACK
6
CONTINUOUS
10
3.39137
20
-1.98709
11
3.43313
21
-1.98709
0
LINE
8
BLACK
6
CONTINUOUS
10
3.68313
20
-1.88709
11
3.68313
21
-1.84534
0
LINE
8
BLACK
6
CONTINUOUS
10
3.68313
20
-1.84534
11
3.64137
21
-1.84534
0
LINE
8
BLACK
6
CONTINUOUS
10
3.64137
20
-1.84534
11
3.64137
21
-1.88709
0
LINE
8
BLACK
6
CONTINUOUS
10
3.64137
20
-1.88709
11
3.68313
21
-1.88709
0
LINE
8
BLACK
6
CONTINUOUS
10
3.80813
20
-4.23709
11
3.80813
21
-4.19534
0
LINE
8
BLACK
6
CONTINUOUS
10
3.80813
20
-4.19534
11
3.76637
21
-4.19534
0
LINE
8
BLACK
6
CONTINUOUS
10
3.76637
20
-4.19534
11
3.76637
21
-4.23709
0
LINE
8
BLACK
6
CONTINUOUS
10
3.76637
20
-4.23709
11
3.80813
21
-4.23709
0
LINE
8
BLACK
6
CONTINUOUS
10
4.05813
20
-4.13709
11
4.05813
21
-4.09534
0
LINE
8
BLACK
6
CONTINUOUS
10
4.05813
20
-4.09534
11
4.01637
21
-4.09534
0
LINE
8
BLACK
6
CONTINUOUS
10
4.01637
20
-4.09534
11
4.01637
21
-4.13709
0
LINE
8
BLACK
6
CONTINUOUS
10
4.01637
20
-4.13709
11
4.05813
21
-4.13709
0
LINE
8
BLACK
6
CONTINUOUS
10
4.93313
20
-1.98709
11
4.93313
21
-1.94534
0
LINE
8
BLACK
6
CONTINUOUS
10
4.93313
20
-1.94534
11
4.89137
21
-1.94534
0
LINE
8
BLACK
6
CONTINUOUS
10
4.89137
20
-1.94534
11
4.89137
21
-1.98709
0
LINE
8
BLACK
6
CONTINUOUS
10
4.89137
20
-1.98709
11
4.93313
21
-1.98709
0
LINE
8
BLACK
6
CONTINUOUS
10
4.93313
20
-2.73709
11
4.93313
21
-2.69534
0
LINE
8
BLACK
6
CONTINUOUS
10
4.93313
20
-2.69534
11
4.89137
21
-2.69534
0
LINE
8
BLACK
6
CONTINUOUS
10
4.89137
20
-2.69534
11
4.89137
21
-2.73709
0
LINE
8
BLACK
6
CONTINUOUS
10
4.89137
20
-2.73709
11
4.93313
21
-2.73709
0
LINE
8
BLACK
6
CONTINUOUS
10
5.18313
20
-1.88709
11
5.18313
21
-1.84534
0
LINE
8
BLACK
6
CONTINUOUS
10
5.18313
20
-1.84534
11
5.14137
21
-1.84534
0
LINE
8
BLACK
6
CONTINUOUS
10
5.14137
20
-1.84534
11
5.14137
21
-1.88709
0
LINE
8
BLACK
6
CONTINUOUS
10
5.14137
20
-1.88709
11
5.18313
21
-1.88709
0
LINE
8
BLACK
6
CONTINUOUS
10
5.18313
20
-2.63709
11
5.18313
21
-2.59534
0
LINE
8
BLACK
6
CONTINUOUS
10
5.18313
20
-2.59534
11
5.14137
21
-2.59534
0
LINE
8
BLACK
6
CONTINUOUS
10
5.14137
20
-2.59534
11
5.14137
21
-2.63709
0
LINE
8
BLACK
6
CONTINUOUS
10
5.14137
20
-2.63709
11
5.18313
21
-2.63709
0
LINE
8
BLACK
6
CONTINUOUS
10
5.68313
20
-1.98709
11
5.68313
21
-1.94534
0
LINE
8
BLACK
6
CONTINUOUS
10
5.68313
20
-1.94534
11
5.64137
21
-1.94534
0
LINE
8
BLACK
6
CONTINUOUS
10
5.64137
20
-1.94534
11
5.64137
21
-1.98709
0
LINE
8
BLACK
6
CONTINUOUS
10
5.64137
20
-1.98709
11
5.68313
21
-1.98709
0
LINE
8
BLACK
6
CONTINUOUS
10
5.68313
20
-2.73709
11
5.68313
21
-2.69534
0
LINE
8
BLACK
6
CONTINUOUS
10
5.68313
20
-2.69534
11
5.64137
21
-2.69534
0
LINE
8
BLACK
6
CONTINUOUS
10
5.64137
20
-2.69534
11
5.64137
21
-2.73709
0
LINE
8
BLACK
6
CONTINUOUS
10
5.64137
20
-2.73709
11
5.68313
21
-2.73709
0
LINE
8
BLACK
6
CONTINUOUS
10
5.93313
20
-1.88709
11
5.93313
21
-1.84534
0
LINE
8
BLACK
6
CONTINUOUS
10
5.93313
20
-1.84534
11
5.89137
21
-1.84534
0
LINE
8
BLACK
6
CONTINUOUS
10
5.89137
20
-1.84534
11
5.89137
21
-1.88709
0
LINE
8
BLACK
6
CONTINUOUS
10
5.89137
20
-1.88709
11
5.93313
21
-1.88709
0
LINE
8
BLACK
6
CONTINUOUS
10
5.93313
20
-2.63709
11
5.93313
21
-2.59534
0
LINE
8
BLACK
6
CONTINUOUS
10
5.93313
20
-2.59534
11
5.89137
21
-2.59534
0
LINE
8
BLACK
6
CONTINUOUS
10
5.89137
20
-2.59534
11
5.89137
21
-2.63709
0
LINE
8
BLACK
6
CONTINUOUS
10
5.89137
20
-2.63709
11
5.93313
21
-2.63709
0
LINE
8
BLACK
6
CONTINUOUS
10
6.80813
20
-4.23709
11
6.80813
21
-4.19534
0
LINE
8
BLACK
6
CONTINUOUS
10
6.80813
20
-4.19534
11
6.76637
21
-4.19534
0
LINE
8
BLACK
6
CONTINUOUS
10
6.76637
20
-4.19534
11
6.76637
21
-4.23709
0
LINE
8
BLACK
6
CONTINUOUS
10
6.76637
20
-4.23709
11
6.80813
21
-4.23709
0
LINE
8
BLACK
6
CONTINUOUS
10
7.05813
20
-4.13709
11
7.05813
21
-4.09534
0
LINE
8
BLACK
6
CONTINUOUS
10
7.05813
20
-4.09534
11
7.01637
21
-4.09534
0
LINE
8
BLACK
6
CONTINUOUS
10
7.01637
20
-4.09534
11
7.01637
21
-4.13709
0
LINE
8
BLACK
6
CONTINUOUS
10
7.01637
20
-4.13709
11
7.05813
21
-4.13709
0
LINE
8
BLACK
6
CONTINUOUS
10
7.18313
20
-1.98709
11
7.18313
21
-1.94534
0
LINE
8
BLACK
6
CONTINUOUS
10
7.18313
20
-1.94534
11
7.14137
21
-1.94534
0
LINE
8
BLACK
6
CONTINUOUS
10
7.14137
20
-1.94534
11
7.14137
21
-1.98709
0
LINE
8
BLACK
6
CONTINUOUS
10
7.14137
20
-1.98709
11
7.18313
21
-1.98709
0
LINE
8
BLACK
6
CONTINUOUS
10
7.43313
20
-1.88709
11
7.43313
21
-1.84534
0
LINE
8
BLACK
6
CONTINUOUS
10
7.43313
20
-1.84534
11
7.39137
21
-1.84534
0
LINE
8
BLACK
6
CONTINUOUS
10
7.39137
20
-1.84534
11
7.39137
21
-1.88709
0
LINE
8
BLACK
6
CONTINUOUS
10
7.39137
20
-1.88709
11
7.43313
21
-1.88709
0
LINE
8
BLACK
6
CONTINUOUS
10
7.93313
20
-1.23709
11
7.93313
21
-1.19534
0
LINE
8
BLACK
6
CONTINUOUS
10
7.93313
20
-1.19534
11
7.89137
21
-1.19534
0
LINE
8
BLACK
6
CONTINUOUS
10
7.89137
20
-1.19534
11
7.89137
21
-1.23709
0
LINE
8
BLACK
6
CONTINUOUS
10
7.89137
20
-1.23709
11
7.93313
21
-1.23709
0
LINE
8
BLACK
6
CONTINUOUS
10
7.93313
20
-1.98709
11
7.93313
21
-1.94534
0
LINE
8
BLACK
6
CONTINUOUS
10
7.93313
20
-1.94534
11
7.89137
21
-1.94534
0
LINE
8
BLACK
6
CONTINUOUS
10
7.89137
20
-1.94534
11
7.89137
21
-1.98709
0
LINE
8
BLACK
6
CONTINUOUS
10
7.89137
20
-1.98709
11
7.93313
21
-1.98709
0
LINE
8
BLACK
6
CONTINUOUS
10
7.93313
20
-2.73709
11
7.93313
21
-2.69534
0
LINE
8
BLACK
6
CONTINUOUS
10
7.93313
20
-2.69534
11
7.89137
21
-2.69534
0
LINE
8
BLACK
6
CONTINUOUS
10
7.89137
20
-2.69534
11
7.89137
21
-2.73709
0
LINE
8
BLACK
6
CONTINUOUS
10
7.89137
20
-2.73709
11
7.93313
21
-2.73709
0
LINE
8
BLACK
6
CONTINUOUS
10
8.18313
20
-1.13709
11
8.18313
21
-1.09534
0
LINE
8
BLACK
6
CONTINUOUS
10
8.18313
20
-1.09534
11
8.14137
21
-1.09534
0
LINE
8
BLACK
6
CONTINUOUS
10
8.14137
20
-1.09534
11
8.14137
21
-1.13709
0
LINE
8
BLACK
6
CONTINUOUS
10
8.14137
20
-1.13709
11
8.18313
21
-1.13709
0
LINE
8
BLACK
6
CONTINUOUS
10
8.18313
20
-1.88709
11
8.18313
21
-1.84534
0
LINE
8
BLACK
6
CONTINUOUS
10
8.18313
20
-1.84534
11
8.14137
21
-1.84534
0
LINE
8
BLACK
6
CONTINUOUS
10
8.14137
20
-1.84534
11
8.14137
21
-1.88709
0
LINE
8
BLACK
6
CONTINUOUS
10
8.14137
20
-1.88709
11
8.18313
21
-1.88709
0
LINE
8
BLACK
6
CONTINUOUS
10
8.18313
20
-2.63709
11
8.18313
21
-2.59534
0
LINE
8
BLACK
6
CONTINUOUS
10
8.18313
20
-2.59534
11
8.14137
21
-2.59534
0
LINE
8
BLACK
6
CONTINUOUS
10
8.14137
20
-2.59534
11
8.14137
21
-2.63709
0
LINE
8
BLACK
6
CONTINUOUS
10
8.14137
20
-2.63709
11
8.18313
21
-2.63709
0
LINE
8
BLACK
6
CONTINUOUS
10
8.68313
20
-1.98709
11
8.68313
21
-1.94534
0
LINE
8
BLACK
6
CONTINUOUS
10
8.68313
20
-1.94534
11
8.64137
21
-1.94534
0
LINE
8
BLACK
6
CONTINUOUS
10
8.64137
20
-1.94534
11
8.64137
21
-1.98709
0
LINE
8
BLACK
6
CONTINUOUS
10
8.64137
20
-1.98709
11
8.68313
21
-1.98709
0
LINE
8
BLACK
6
CONTINUOUS
10
8.93313
20
-1.88709
11
8.93313
21
-1.84534
0
LINE
8
BLACK
6
CONTINUOUS
10
8.93313
20
-1.84534
11
8.89137
21
-1.84534
0
LINE
8
BLACK
6
CONTINUOUS
10
8.89137
20
-1.84534
11
8.89137
21
-1.88709
0
LINE
8
BLACK
6
CONTINUOUS
10
8.89137
20
-1.88709
11
8.93313
21
-1.88709
0
LINE
8
BLACK
6
CONTINUOUS
10
9.05813
20
-1.23709
11
9.05813
21
-1.19534
0
LINE
8
BLACK
6
CONTINUOUS
10
9.05813
20
-1.19534
11
9.01637
21
-1.19534
0
LINE
8
BLACK
6
CONTINUOUS
10
9.01637
20
-1.19534
11
9.01637
21
-1.23709
0
LINE
8
BLACK
6
CONTINUOUS
10
9.01637
20
-1.23709
11
9.05813
21
-1.23709
0
LINE
8
BLACK
6
CONTINUOUS
10
9.30813
20
-1.13709
11
9.30813
21
-1.09534
0
LINE
8
BLACK
6
CONTINUOUS
10
9.30813
20
-1.09534
11
9.26637
21
-1.09534
0
LINE
8
BLACK
6
CONTINUOUS
10
9.26637
20
-1.09534
11
9.26637
21
-1.13709
0
LINE
8
BLACK
6
CONTINUOUS
10
9.26637
20
-1.13709
11
9.30813
21
-1.13709
0
LINE
8
BLACK
6
CONTINUOUS
10
9.43313
20
-3.48709
11
9.43313
21
-3.44534
0
LINE
8
BLACK
6
CONTINUOUS
10
9.43313
20
-3.44534
11
9.39137
21
-3.44534
0
LINE
8
BLACK
6
CONTINUOUS
10
9.39137
20
-3.44534
11
9.39137
21
-3.48709
0
LINE
8
BLACK
6
CONTINUOUS
10
9.39137
20
-3.48709
11
9.43313
21
-3.48709
0
LINE
8
BLACK
6
CONTINUOUS
10
9.68313
20
-3.38709
11
9.68313
21
-3.34534
0
LINE
8
BLACK
6
CONTINUOUS
10
9.68313
20
-3.34534
11
9.64137
21
-3.34534
0
LINE
8
BLACK
6
CONTINUOUS
10
9.64137
20
-3.34534
11
9.64137
21
-3.38709
0
LINE
8
BLACK
6
CONTINUOUS
10
9.64137
20
-3.38709
11
9.68313
21
-3.38709
0
LINE
8
BLACK
6
CONTINUOUS
10
0.809361
20
-5.04586
11
0.809361
21
-4.96712
0
LINE
8
BLACK
6
CONTINUOUS
10
0.809361
20
-4.96712
11
0.828109
21
-4.96712
0
LINE
8
BLACK
6
CONTINUOUS
10
0.828109
20
-4.96712
11
0.839357
21
-4.97087
0
LINE
8
BLACK
6
CONTINUOUS
10
0.839357
20
-4.97087
11
0.846856
21
-4.97837
0
LINE
8
BLACK
6
CONTINUOUS
10
0.846856
20
-4.97837
11
0.850606
21
-4.98587
0
LINE
8
BLACK
6
CONTINUOUS
10
0.850606
20
-4.98587
11
0.854355
21
-5.00087
0
LINE
8
BLACK
6
CONTINUOUS
10
0.854355
20
-5.00087
11
0.854355
21
-5.01211
0
LINE
8
BLACK
6
CONTINUOUS
10
0.854355
20
-5.01211
11
0.850606
21
-5.02711
0
LINE
8
BLACK
6
CONTINUOUS
10
0.850606
20
-5.02711
11
0.846856
21
-5.03461
0
LINE
8
BLACK
6
CONTINUOUS
10
0.846856
20
-5.03461
11
0.839357
21
-5.04211
0
LINE
8
BLACK
6
CONTINUOUS
10
0.839357
20
-5.04211
11
0.828109
21
-5.04586
0
LINE
8
BLACK
6
CONTINUOUS
10
0.828109
20
-5.04586
11
0.809361
21
-5.04586
0
LINE
8
BLACK
6
CONTINUOUS
10
0.888101
20
-5.04586
11
0.888101
21
-4.99337
0
LINE
8
BLACK
6
CONTINUOUS
10
0.888101
20
-5.00836
11
0.891851
21
-5.00087
0
LINE
8
BLACK
6
CONTINUOUS
10
0.891851
20
-5.00087
11
0.8956
21
-4.99712
0
LINE
8
BLACK
6
CONTINUOUS
10
0.8956
20
-4.99712
11
0.903099
21
-4.99337
0
LINE
8
BLACK
6
CONTINUOUS
10
0.903099
20
-4.99337
11
0.910598
21
-4.99337
0
LINE
8
BLACK
6
CONTINUOUS
10
0.936845
20
-5.04586
11
0.936845
21
-4.99337
0
LINE
8
BLACK
6
CONTINUOUS
10
0.936845
20
-4.96712
11
0.933095
21
-4.97087
0
LINE
8
BLACK
6
CONTINUOUS
10
0.933095
20
-4.97087
11
0.936845
21
-4.97462
0
LINE
8
BLACK
6
CONTINUOUS
10
0.936845
20
-4.97462
11
0.940595
21
-4.97087
0
LINE
8
BLACK
6
CONTINUOUS
10
0.940595
20
-4.97087
11
0.936845
21
-4.96712
0
LINE
8
BLACK
6
CONTINUOUS
10
0.936845
20
-4.96712
11
0.936845
21
-4.97462
0
LINE
8
BLACK
6
CONTINUOUS
10
0.985589
20
-5.04586
11
0.97809
21
-5.04211
0
LINE
8
BLACK
6
CONTINUOUS
10
0.97809
20
-5.04211
11
0.97434
21
-5.03461
0
LINE
8
BLACK
6
CONTINUOUS
10
0.97434
20
-5.03461
11
0.97434
21
-4.96712
0
LINE
8
BLACK
6
CONTINUOUS
10
1.02683
20
-5.04586
11
1.01933
21
-5.04211
0
LINE
8
BLACK
6
CONTINUOUS
10
1.01933
20
-5.04211
11
1.01559
21
-5.03461
0
LINE
8
BLACK
6
CONTINUOUS
10
1.01559
20
-5.03461
11
1.01559
21
-4.96712
0
LINE
8
BLACK
6
CONTINUOUS
10
1.11682
20
-5.04586
11
1.11682
21
-4.96712
0
LINE
8
BLACK
6
CONTINUOUS
10
1.11682
20
-4.96712
11
1.14307
21
-5.02336
0
LINE
8
BLACK
6
CONTINUOUS
10
1.14307
20
-5.02336
11
1.16932
21
-4.96712
0
LINE
8
BLACK
6
CONTINUOUS
10
1.16932
20
-4.96712
11
1.16932
21
-5.04586
0
LINE
8
BLACK
6
CONTINUOUS
10
1.24056
20
-5.04586
11
1.24056
21
-5.00461
0
LINE
8
BLACK
6
CONTINUOUS
10
1.24056
20
-5.00461
11
1.23681
21
-4.99712
0
LINE
8
BLACK
6
CONTINUOUS
10
1.23681
20
-4.99712
11
1.22931
21
-4.99337
0
LINE
8
BLACK
6
CONTINUOUS
10
1.22931
20
-4.99337
11
1.21431
21
-4.99337
0
LINE
8
BLACK
6
CONTINUOUS
10
1.21431
20
-4.99337
11
1.20681
21
-4.99712
0
LINE
8
BLACK
6
CONTINUOUS
10
1.24056
20
-5.04211
11
1.23306
21
-5.04586
0
LINE
8
BLACK
6
CONTINUOUS
10
1.23306
20
-5.04586
11
1.21431
21
-5.04586
0
LINE
8
BLACK
6
CONTINUOUS
10
1.21431
20
-5.04586
11
1.20681
21
-5.04211
0
LINE
8
BLACK
6
CONTINUOUS
10
1.20681
20
-5.04211
11
1.20306
21
-5.03461
0
LINE
8
BLACK
6
CONTINUOUS
10
1.20306
20
-5.03461
11
1.20306
21
-5.02711
0
LINE
8
BLACK
6
CONTINUOUS
10
1.20306
20
-5.02711
11
1.20681
21
-5.01961
0
LINE
8
BLACK
6
CONTINUOUS
10
1.20681
20
-5.01961
11
1.21431
21
-5.01586
0
LINE
8
BLACK
6
CONTINUOUS
10
1.21431
20
-5.01586
11
1.23306
21
-5.01586
0
LINE
8
BLACK
6
CONTINUOUS
10
1.23306
20
-5.01586
11
1.24056
21
-5.01211
0
LINE
8
BLACK
6
CONTINUOUS
10
1.27805
20
-4.99337
11
1.27805
21
-5.07211
0
LINE
8
BLACK
6
CONTINUOUS
10
1.27805
20
-4.99712
11
1.28555
21
-4.99337
0
LINE
8
BLACK
6
CONTINUOUS
10
1.28555
20
-4.99337
11
1.30055
21
-4.99337
0
LINE
8
BLACK
6
CONTINUOUS
10
1.30055
20
-4.99337
11
1.30805
21
-4.99712
0
LINE
8
BLACK
6
CONTINUOUS
10
1.30805
20
-4.99712
11
1.3118
21
-5.00087
0
LINE
8
BLACK
6
CONTINUOUS
10
1.3118
20
-5.00087
11
1.31555
21
-5.00836
0
LINE
8
BLACK
6
CONTINUOUS
10
1.31555
20
-5.00836
11
1.31555
21
-5.03086
0
LINE
8
BLACK
6
CONTINUOUS
10
1.31555
20
-5.03086
11
1.3118
21
-5.03836
0
LINE
8
BLACK
6
CONTINUOUS
10
1.3118
20
-5.03836
11
1.30805
21
-5.04211
0
LINE
8
BLACK
6
CONTINUOUS
10
1.30805
20
-5.04211
11
1.30055
21
-5.04586
0
LINE
8
BLACK
6
CONTINUOUS
10
1.30055
20
-5.04586
11
1.28555
21
-5.04586
0
LINE
8
BLACK
6
CONTINUOUS
10
1.28555
20
-5.04586
11
1.27805
21
-5.04211
0
LINE
8
BLACK
6
CONTINUOUS
10
1.34929
20
-5.03836
11
1.35304
21
-5.04211
0
LINE
8
BLACK
6
CONTINUOUS
10
1.35304
20
-5.04211
11
1.34929
21
-5.04586
0
LINE
8
BLACK
6
CONTINUOUS
10
1.34929
20
-5.04586
11
1.34554
21
-5.04211
0
LINE
8
BLACK
6
CONTINUOUS
10
1.34554
20
-5.04211
11
1.34929
21
-5.03836
0
LINE
8
BLACK
6
CONTINUOUS
10
1.34929
20
-5.03836
11
1.34929
21
-5.04586
0
LINE
8
BLACK
6
CONTINUOUS
10
1.34929
20
-4.99712
11
1.35304
21
-5.00087
0
LINE
8
BLACK
6
CONTINUOUS
10
1.35304
20
-5.00087
11
1.34929
21
-5.00461
0
LINE
8
BLACK
6
CONTINUOUS
10
1.34929
20
-5.00461
11
1.34554
21
-5.00087
0
LINE
8
BLACK
6
CONTINUOUS
10
1.34554
20
-5.00087
11
1.34929
21
-4.99712
0
LINE
8
BLACK
6
CONTINUOUS
10
1.34929
20
-4.99712
11
1.34929
21
-5.00461
0
LINE
8
BLACK
6
CONTINUOUS
10
0.694882
20
-5.16929
11
0.706693
21
-5.1811
0
LINE
8
BLACK
6
CONTINUOUS
10
0.706693
20
-5.16929
11
0.694882
21
-5.1811
0
LINE
8
BLACK
6
CONTINUOUS
10
0.824359
20
-5.13247
11
0.831858
21
-5.13247
0
LINE
8
BLACK
6
CONTINUOUS
10
0.831858
20
-5.13247
11
0.839357
21
-5.13622
0
LINE
8
BLACK
6
CONTINUOUS
10
0.839357
20
-5.13622
11
0.843107
21
-5.13997
0
LINE
8
BLACK
6
CONTINUOUS
10
0.843107
20
-5.13997
11
0.846856
21
-5.14747
0
LINE
8
BLACK
6
CONTINUOUS
10
0.846856
20
-5.14747
11
0.850606
21
-5.16247
0
LINE
8
BLACK
6
CONTINUOUS
10
0.850606
20
-5.16247
11
0.850606
21
-5.18122
0
LINE
8
BLACK
6
CONTINUOUS
10
0.850606
20
-5.18122
11
0.846856
21
-5.19622
0
LINE
8
BLACK
6
CONTINUOUS
10
0.846856
20
-5.19622
11
0.843107
21
-5.20371
0
LINE
8
BLACK
6
CONTINUOUS
10
0.843107
20
-5.20371
11
0.839357
21
-5.20746
0
LINE
8
BLACK
6
CONTINUOUS
10
0.839357
20
-5.20746
11
0.831858
21
-5.21121
0
LINE
8
BLACK
6
CONTINUOUS
10
0.831858
20
-5.21121
11
0.824359
21
-5.21121
0
LINE
8
BLACK
6
CONTINUOUS
10
0.824359
20
-5.21121
11
0.81686
21
-5.20746
0
LINE
8
BLACK
6
CONTINUOUS
10
0.81686
20
-5.20746
11
0.81311
21
-5.20371
0
LINE
8
BLACK
6
CONTINUOUS
10
0.81311
20
-5.20371
11
0.809361
21
-5.19622
0
LINE
8
BLACK
6
CONTINUOUS
10
0.809361
20
-5.19622
11
0.805611
21
-5.18122
0
LINE
8
BLACK
6
CONTINUOUS
10
0.805611
20
-5.18122
11
0.805611
21
-5.16247
0
LINE
8
BLACK
6
CONTINUOUS
10
0.805611
20
-5.16247
11
0.809361
21
-5.14747
0
LINE
8
BLACK
6
CONTINUOUS
10
0.809361
20
-5.14747
11
0.81311
21
-5.13997
0
LINE
8
BLACK
6
CONTINUOUS
10
0.81311
20
-5.13997
11
0.81686
21
-5.13622
0
LINE
8
BLACK
6
CONTINUOUS
10
0.81686
20
-5.13622
11
0.824359
21
-5.13247
0
LINE
8
BLACK
6
CONTINUOUS
10
0.884352
20
-5.20371
11
0.888101
21
-5.20746
0
LINE
8
BLACK
6
CONTINUOUS
10
0.888101
20
-5.20746
11
0.884352
21
-5.21121
0
LINE
8
BLACK
6
CONTINUOUS
10
0.884352
20
-5.21121
11
0.880602
21
-5.20746
0
LINE
8
BLACK
6
CONTINUOUS
10
0.880602
20
-5.20746
11
0.884352
21
-5.20371
0
LINE
8
BLACK
6
CONTINUOUS
10
0.884352
20
-5.20371
11
0.884352
21
-5.21121
0
LINE
8
BLACK
6
CONTINUOUS
10
0.914348
20
-5.13247
11
0.963092
21
-5.13247
0
LINE
8
BLACK
6
CONTINUOUS
10
0.963092
20
-5.13247
11
0.936845
21
-5.16247
0
LINE
8
BLACK
6
CONTINUOUS
10
0.936845
20
-5.16247
11
0.948094
21
-5.16247
0
LINE
8
BLACK
6
CONTINUOUS
10
0.948094
20
-5.16247
11
0.955593
21
-5.16622
0
LINE
8
BLACK
6
CONTINUOUS
10
0.955593
20
-5.16622
11
0.959342
21
-5.16997
0
LINE
8
BLACK
6
CONTINUOUS
10
0.959342
20
-5.16997
11
0.963092
21
-5.17747
0
LINE
8
BLACK
6
CONTINUOUS
10
0.963092
20
-5.17747
11
0.963092
21
-5.19622
0
LINE
8
BLACK
6
CONTINUOUS
10
0.963092
20
-5.19622
11
0.959342
21
-5.20371
0
LINE
8
BLACK
6
CONTINUOUS
10
0.959342
20
-5.20371
11
0.955593
21
-5.20746
0
LINE
8
BLACK
6
CONTINUOUS
10
0.955593
20
-5.20746
11
0.948094
21
-5.21121
0
LINE
8
BLACK
6
CONTINUOUS
10
0.948094
20
-5.21121
11
0.925596
21
-5.21121
0
LINE
8
BLACK
6
CONTINUOUS
10
0.925596
20
-5.21121
11
0.918097
21
-5.20746
0
LINE
8
BLACK
6
CONTINUOUS
10
0.918097
20
-5.20746
11
0.914348
21
-5.20371
0
LINE
8
BLACK
6
CONTINUOUS
10
1.01184
20
-5.13247
11
1.01933
21
-5.13247
0
LINE
8
BLACK
6
CONTINUOUS
10
1.01933
20
-5.13247
11
1.02683
21
-5.13622
0
LINE
8
BLACK
6
CONTINUOUS
10
1.02683
20
-5.13622
11
1.03058
21
-5.13997
0
LINE
8
BLACK
6
CONTINUOUS
10
1.03058
20
-5.13997
11
1.03433
21
-5.14747
0
LINE
8
BLACK
6
CONTINUOUS
10
1.03433
20
-5.14747
11
1.03808
21
-5.16247
0
LINE
8
BLACK
6
CONTINUOUS
10
1.03808
20
-5.16247
11
1.03808
21
-5.18122
0
LINE
8
BLACK
6
CONTINUOUS
10
1.03808
20
-5.18122
11
1.03433
21
-5.19622
0
LINE
8
BLACK
6
CONTINUOUS
10
1.03433
20
-5.19622
11
1.03058
21
-5.20371
0
LINE
8
BLACK
6
CONTINUOUS
10
1.03058
20
-5.20371
11
1.02683
21
-5.20746
0
LINE
8
BLACK
6
CONTINUOUS
10
1.02683
20
-5.20746
11
1.01933
21
-5.21121
0
LINE
8
BLACK
6
CONTINUOUS
10
1.01933
20
-5.21121
11
1.01184
21
-5.21121
0
LINE
8
BLACK
6
CONTINUOUS
10
1.01184
20
-5.21121
11
1.00434
21
-5.20746
0
LINE
8
BLACK
6
CONTINUOUS
10
1.00434
20
-5.20746
11
1.00059
21
-5.20371
0
LINE
8
BLACK
6
CONTINUOUS
10
1.00059
20
-5.20371
11
0.996838
21
-5.19622
0
LINE
8
BLACK
6
CONTINUOUS
10
0.996838
20
-5.19622
11
0.993088
21
-5.18122
0
LINE
8
BLACK
6
CONTINUOUS
10
0.993088
20
-5.18122
11
0.993088
21
-5.16247
0
LINE
8
BLACK
6
CONTINUOUS
10
0.993088
20
-5.16247
11
0.996838
21
-5.14747
0
LINE
8
BLACK
6
CONTINUOUS
10
0.996838
20
-5.14747
11
1.00059
21
-5.13997
0
LINE
8
BLACK
6
CONTINUOUS
10
1.00059
20
-5.13997
11
1.00434
21
-5.13622
0
LINE
8
BLACK
6
CONTINUOUS
10
1.00434
20
-5.13622
11
1.01184
21
-5.13247
0
LINE
8
BLACK
6
CONTINUOUS
10
1.08683
20
-5.13247
11
1.09433
21
-5.13247
0
LINE
8
BLACK
6
CONTINUOUS
10
1.09433
20
-5.13247
11
1.10182
21
-5.13622
0
LINE
8
BLACK
6
CONTINUOUS
10
1.10182
20
-5.13622
11
1.10557
21
-5.13997
0
LINE
8
BLACK
6
CONTINUOUS
10
1.10557
20
-5.13997
11
1.10932
21
-5.14747
0
LINE
8
BLACK
6
CONTINUOUS
10
1.10932
20
-5.14747
11
1.11307
21
-5.16247
0
LINE
8
BLACK
6
CONTINUOUS
10
1.11307
20
-5.16247
11
1.11307
21
-5.18122
0
LINE
8
BLACK
6
CONTINUOUS
10
1.11307
20
-5.18122
11
1.10932
21
-5.19622
0
LINE
8
BLACK
6
CONTINUOUS
10
1.10932
20
-5.19622
11
1.10557
21
-5.20371
0
LINE
8
BLACK
6
CONTINUOUS
10
1.10557
20
-5.20371
11
1.10182
21
-5.20746
0
LINE
8
BLACK
6
CONTINUOUS
10
1.10182
20
-5.20746
11
1.09433
21
-5.21121
0
LINE
8
BLACK
6
CONTINUOUS
10
1.09433
20
-5.21121
11
1.08683
21
-5.21121
0
LINE
8
BLACK
6
CONTINUOUS
10
1.08683
20
-5.21121
11
1.07933
21
-5.20746
0
LINE
8
BLACK
6
CONTINUOUS
10
1.07933
20
-5.20746
11
1.07558
21
-5.20371
0
LINE
8
BLACK
6
CONTINUOUS
10
1.07558
20
-5.20371
11
1.07183
21
-5.19622
0
LINE
8
BLACK
6
CONTINUOUS
10
1.07183
20
-5.19622
11
1.06808
21
-5.18122
0
LINE
8
BLACK
6
CONTINUOUS
10
1.06808
20
-5.18122
11
1.06808
21
-5.16247
0
LINE
8
BLACK
6
CONTINUOUS
10
1.06808
20
-5.16247
11
1.07183
21
-5.14747
0
LINE
8
BLACK
6
CONTINUOUS
10
1.07183
20
-5.14747
11
1.07558
21
-5.13997
0
LINE
8
BLACK
6
CONTINUOUS
10
1.07558
20
-5.13997
11
1.07933
21
-5.13622
0
LINE
8
BLACK
6
CONTINUOUS
10
1.07933
20
-5.13622
11
1.08683
21
-5.13247
0
LINE
8
BLACK
6
CONTINUOUS
10
1.14682
20
-5.21121
11
1.14682
21
-5.15872
0
LINE
8
BLACK
6
CONTINUOUS
10
1.14682
20
-5.16622
11
1.15057
21
-5.16247
0
LINE
8
BLACK
6
CONTINUOUS
10
1.15057
20
-5.16247
11
1.15807
21
-5.15872
0
LINE
8
BLACK
6
CONTINUOUS
10
1.15807
20
-5.15872
11
1.16932
21
-5.15872
0
LINE
8
BLACK
6
CONTINUOUS
10
1.16932
20
-5.15872
11
1.17682
21
-5.16247
0
LINE
8
BLACK
6
CONTINUOUS
10
1.17682
20
-5.16247
11
1.18056
21
-5.16997
0
LINE
8
BLACK
6
CONTINUOUS
10
1.18056
20
-5.16997
11
1.18056
21
-5.21121
0
LINE
8
BLACK
6
CONTINUOUS
10
1.18056
20
-5.16997
11
1.18431
21
-5.16247
0
LINE
8
BLACK
6
CONTINUOUS
10
1.18431
20
-5.16247
11
1.19181
21
-5.15872
0
LINE
8
BLACK
6
CONTINUOUS
10
1.19181
20
-5.15872
11
1.20306
21
-5.15872
0
LINE
8
BLACK
6
CONTINUOUS
10
1.20306
20
-5.15872
11
1.21056
21
-5.16247
0
LINE
8
BLACK
6
CONTINUOUS
10
1.21056
20
-5.16247
11
1.21431
21
-5.16997
0
LINE
8
BLACK
6
CONTINUOUS
10
1.21431
20
-5.16997
11
1.21431
21
-5.21121
0
LINE
8
BLACK
6
CONTINUOUS
10
1.25181
20
-5.21121
11
1.25181
21
-5.15872
0
LINE
8
BLACK
6
CONTINUOUS
10
1.25181
20
-5.16622
11
1.25556
21
-5.16247
0
LINE
8
BLACK
6
CONTINUOUS
10
1.25556
20
-5.16247
11
1.26305
21
-5.15872
0
LINE
8
BLACK
6
CONTINUOUS
10
1.26305
20
-5.15872
11
1.2743
21
-5.15872
0
LINE
8
BLACK
6
CONTINUOUS
10
1.2743
20
-5.15872
11
1.2818
21
-5.16247
0
LINE
8
BLACK
6
CONTINUOUS
10
1.2818
20
-5.16247
11
1.28555
21
-5.16997
0
LINE
8
BLACK
6
CONTINUOUS
10
1.28555
20
-5.16997
11
1.28555
21
-5.21121
0
LINE
8
BLACK
6
CONTINUOUS
10
1.28555
20
-5.16997
11
1.2893
21
-5.16247
0
LINE
8
BLACK
6
CONTINUOUS
10
1.2893
20
-5.16247
11
1.2968
21
-5.15872
0
LINE
8
BLACK
6
CONTINUOUS
10
1.2968
20
-5.15872
11
1.30805
21
-5.15872
0
LINE
8
BLACK
6
CONTINUOUS
10
1.30805
20
-5.15872
11
1.31555
21
-5.16247
0
LINE
8
BLACK
6
CONTINUOUS
10
1.31555
20
-5.16247
11
1.3193
21
-5.16997
0
LINE
8
BLACK
6
CONTINUOUS
10
1.3193
20
-5.16997
11
1.3193
21
-5.21121
0
LINE
8
BLACK
6
CONTINUOUS
10
1.47303
20
-5.12872
11
1.40554
21
-5.22996
0
LINE
8
BLACK
6
CONTINUOUS
10
1.57427
20
-5.13247
11
1.58176
21
-5.13247
0
LINE
8
BLACK
6
CONTINUOUS
10
1.58176
20
-5.13247
11
1.58926
21
-5.13622
0
LINE
8
BLACK
6
CONTINUOUS
10
1.58926
20
-5.13622
11
1.59301
21
-5.13997
0
LINE
8
BLACK
6
CONTINUOUS
10
1.59301
20
-5.13997
11
1.59676
21
-5.14747
0
LINE
8
BLACK
6
CONTINUOUS
10
1.59676
20
-5.14747
11
1.60051
21
-5.16247
0
LINE
8
BLACK
6
CONTINUOUS
10
1.60051
20
-5.16247
11
1.60051
21
-5.18122
0
LINE
8
BLACK
6
CONTINUOUS
10
1.60051
20
-5.18122
11
1.59676
21
-5.19622
0
LINE
8
BLACK
6
CONTINUOUS
10
1.59676
20
-5.19622
11
1.59301
21
-5.20371
0
LINE
8
BLACK
6
CONTINUOUS
10
1.59301
20
-5.20371
11
1.58926
21
-5.20746
0
LINE
8
BLACK
6
CONTINUOUS
10
1.58926
20
-5.20746
11
1.58176
21
-5.21121
0
LINE
8
BLACK
6
CONTINUOUS
10
1.58176
20
-5.21121
11
1.57427
21
-5.21121
0
LINE
8
BLACK
6
CONTINUOUS
10
1.57427
20
-5.21121
11
1.56677
21
-5.20746
0
LINE
8
BLACK
6
CONTINUOUS
10
1.56677
20
-5.20746
11
1.56302
21
-5.20371
0
LINE
8
BLACK
6
CONTINUOUS
10
1.56302
20
-5.20371
11
1.55927
21
-5.19622
0
LINE
8
BLACK
6
CONTINUOUS
10
1.55927
20
-5.19622
11
1.55552
21
-5.18122
0
LINE
8
BLACK
6
CONTINUOUS
10
1.55552
20
-5.18122
11
1.55552
21
-5.16247
0
LINE
8
BLACK
6
CONTINUOUS
10
1.55552
20
-5.16247
11
1.55927
21
-5.14747
0
LINE
8
BLACK
6
CONTINUOUS
10
1.55927
20
-5.14747
11
1.56302
21
-5.13997
0
LINE
8
BLACK
6
CONTINUOUS
10
1.56302
20
-5.13997
11
1.56677
21
-5.13622
0
LINE
8
BLACK
6
CONTINUOUS
10
1.56677
20
-5.13622
11
1.57427
21
-5.13247
0
LINE
8
BLACK
6
CONTINUOUS
10
1.63426
20
-5.20371
11
1.63801
21
-5.20746
0
LINE
8
BLACK
6
CONTINUOUS
10
1.63801
20
-5.20746
11
1.63426
21
-5.21121
0
LINE
8
BLACK
6
CONTINUOUS
10
1.63426
20
-5.21121
11
1.63051
21
-5.20746
0
LINE
8
BLACK
6
CONTINUOUS
10
1.63051
20
-5.20746
11
1.63426
21
-5.20371
0
LINE
8
BLACK
6
CONTINUOUS
10
1.63426
20
-5.20371
11
1.63426
21
-5.21121
0
LINE
8
BLACK
6
CONTINUOUS
10
1.68675
20
-5.13247
11
1.69425
21
-5.13247
0
LINE
8
BLACK
6
CONTINUOUS
10
1.69425
20
-5.13247
11
1.70175
21
-5.13622
0
LINE
8
BLACK
6
CONTINUOUS
10
1.70175
20
-5.13622
11
1.7055
21
-5.13997
0
LINE
8
BLACK
6
CONTINUOUS
10
1.7055
20
-5.13997
11
1.70925
21
-5.14747
0
LINE
8
BLACK
6
CONTINUOUS
10
1.70925
20
-5.14747
11
1.713
21
-5.16247
0
LINE
8
BLACK
6
CONTINUOUS
10
1.713
20
-5.16247
11
1.713
21
-5.18122
0
LINE
8
BLACK
6
CONTINUOUS
10
1.713
20
-5.18122
11
1.70925
21
-5.19622
0
LINE
8
BLACK
6
CONTINUOUS
10
1.70925
20
-5.19622
11
1.7055
21
-5.20371
0
LINE
8
BLACK
6
CONTINUOUS
10
1.7055
20
-5.20371
11
1.70175
21
-5.20746
0
LINE
8
BLACK
6
CONTINUOUS
10
1.70175
20
-5.20746
11
1.69425
21
-5.21121
0
LINE
8
BLACK
6
CONTINUOUS
10
1.69425
20
-5.21121
11
1.68675
21
-5.21121
0
LINE
8
BLACK
6
CONTINUOUS
10
1.68675
20
-5.21121
11
1.67925
21
-5.20746
0
LINE
8
BLACK
6
CONTINUOUS
10
1.67925
20
-5.20746
11
1.6755
21
-5.20371
0
LINE
8
BLACK
6
CONTINUOUS
10
1.6755
20
-5.20371
11
1.67175
21
-5.19622
0
LINE
8
BLACK
6
CONTINUOUS
10
1.67175
20
-5.19622
11
1.668
21
-5.18122
0
LINE
8
BLACK
6
CONTINUOUS
10
1.668
20
-5.18122
11
1.668
21
-5.16247
0
LINE
8
BLACK
6
CONTINUOUS
10
1.668
20
-5.16247
11
1.67175
21
-5.14747
0
LINE
8
BLACK
6
CONTINUOUS
10
1.67175
20
-5.14747
11
1.6755
21
-5.13997
0
LINE
8
BLACK
6
CONTINUOUS
10
1.6755
20
-5.13997
11
1.67925
21
-5.13622
0
LINE
8
BLACK
6
CONTINUOUS
10
1.67925
20
-5.13622
11
1.68675
21
-5.13247
0
LINE
8
BLACK
6
CONTINUOUS
10
1.78799
20
-5.21121
11
1.74299
21
-5.21121
0
LINE
8
BLACK
6
CONTINUOUS
10
1.76549
20
-5.21121
11
1.76549
21
-5.13247
0
LINE
8
BLACK
6
CONTINUOUS
10
1.76549
20
-5.13247
11
1.75799
21
-5.14372
0
LINE
8
BLACK
6
CONTINUOUS
10
1.75799
20
-5.14372
11
1.75049
21
-5.15122
0
LINE
8
BLACK
6
CONTINUOUS
10
1.75049
20
-5.15122
11
1.74299
21
-5.15497
0
LINE
8
BLACK
6
CONTINUOUS
10
1.86298
20
-5.21121
11
1.81798
21
-5.21121
0
LINE
8
BLACK
6
CONTINUOUS
10
1.84048
20
-5.21121
11
1.84048
21
-5.13247
0
LINE
8
BLACK
6
CONTINUOUS
10
1.84048
20
-5.13247
11
1.83298
21
-5.14372
0
LINE
8
BLACK
6
CONTINUOUS
10
1.83298
20
-5.14372
11
1.82548
21
-5.15122
0
LINE
8
BLACK
6
CONTINUOUS
10
1.82548
20
-5.15122
11
1.81798
21
-5.15497
0
LINE
8
BLACK
6
CONTINUOUS
10
1.90797
20
-5.16622
11
1.90047
21
-5.16247
0
LINE
8
BLACK
6
CONTINUOUS
10
1.90047
20
-5.16247
11
1.89673
21
-5.15872
0
LINE
8
BLACK
6
CONTINUOUS
10
1.89673
20
-5.15872
11
1.89298
21
-5.15122
0
LINE
8
BLACK
6
CONTINUOUS
10
1.89298
20
-5.15122
11
1.89298
21
-5.14747
0
LINE
8
BLACK
6
CONTINUOUS
10
1.89298
20
-5.14747
11
1.89673
21
-5.13997
0
LINE
8
BLACK
6
CONTINUOUS
10
1.89673
20
-5.13997
11
1.90047
21
-5.13622
0
LINE
8
BLACK
6
CONTINUOUS
10
1.90047
20
-5.13622
11
1.90797
21
-5.13247
0
LINE
8
BLACK
6
CONTINUOUS
10
1.90797
20
-5.13247
11
1.92297
21
-5.13247
0
LINE
8
BLACK
6
CONTINUOUS
10
1.92297
20
-5.13247
11
1.93047
21
-5.13622
0
LINE
8
BLACK
6
CONTINUOUS
10
1.93047
20
-5.13622
11
1.93422
21
-5.13997
0
LINE
8
BLACK
6
CONTINUOUS
10
1.93422
20
-5.13997
11
1.93797
21
-5.14747
0
LINE
8
BLACK
6
CONTINUOUS
10
1.93797
20
-5.14747
11
1.93797
21
-5.15122
0
LINE
8
BLACK
6
CONTINUOUS
10
1.93797
20
-5.15122
11
1.93422
21
-5.15872
0
LINE
8
BLACK
6
CONTINUOUS
10
1.93422
20
-5.15872
11
1.93047
21
-5.16247
0
LINE
8
BLACK
6
CONTINUOUS
10
1.93047
20
-5.16247
11
1.92297
21
-5.16622
0
LINE
8
BLACK
6
CONTINUOUS
10
1.92297
20
-5.16622
11
1.90797
21
-5.16622
0
LINE
8
BLACK
6
CONTINUOUS
10
1.90797
20
-5.16622
11
1.90047
21
-5.16997
0
LINE
8
BLACK
6
CONTINUOUS
10
1.90047
20
-5.16997
11
1.89673
21
-5.17372
0
LINE
8
BLACK
6
CONTINUOUS
10
1.89673
20
-5.17372
11
1.89298
21
-5.18122
0
LINE
8
BLACK
6
CONTINUOUS
10
1.89298
20
-5.18122
11
1.89298
21
-5.19622
0
LINE
8
BLACK
6
CONTINUOUS
10
1.89298
20
-5.19622
11
1.89673
21
-5.20371
0
LINE
8
BLACK
6
CONTINUOUS
10
1.89673
20
-5.20371
11
1.90047
21
-5.20746
0
LINE
8
BLACK
6
CONTINUOUS
10
1.90047
20
-5.20746
11
1.90797
21
-5.21121
0
LINE
8
BLACK
6
CONTINUOUS
10
1.90797
20
-5.21121
11
1.92297
21
-5.21121
0
LINE
8
BLACK
6
CONTINUOUS
10
1.92297
20
-5.21121
11
1.93047
21
-5.20746
0
LINE
8
BLACK
6
CONTINUOUS
10
1.93047
20
-5.20746
11
1.93422
21
-5.20371
0
LINE
8
BLACK
6
CONTINUOUS
10
1.93422
20
-5.20371
11
1.93797
21
-5.19622
0
LINE
8
BLACK
6
CONTINUOUS
10
1.93797
20
-5.19622
11
1.93797
21
-5.18122
0
LINE
8
BLACK
6
CONTINUOUS
10
1.93797
20
-5.18122
11
1.93422
21
-5.17372
0
LINE
8
BLACK
6
CONTINUOUS
10
1.93422
20
-5.17372
11
1.93047
21
-5.16997
0
LINE
8
BLACK
6
CONTINUOUS
10
1.93047
20
-5.16997
11
1.92297
21
-5.16622
0
LINE
8
BLACK
6
CONTINUOUS
10
1.96797
20
-5.13247
11
1.96797
21
-5.14747
0
LINE
8
BLACK
6
CONTINUOUS
10
1.99796
20
-5.13247
11
1.99796
21
-5.14747
0
LINE
8
BLACK
6
CONTINUOUS
10
2.1142
20
-5.24121
11
2.11045
21
-5.23746
0
LINE
8
BLACK
6
CONTINUOUS
10
2.11045
20
-5.23746
11
2.10295
21
-5.22621
0
LINE
8
BLACK
6
CONTINUOUS
10
2.10295
20
-5.22621
11
2.0992
21
-5.21871
0
LINE
8
BLACK
6
CONTINUOUS
10
2.0992
20
-5.21871
11
2.09545
21
-5.20746
0
LINE
8
BLACK
6
CONTINUOUS
10
2.09545
20
-5.20746
11
2.0917
21
-5.18872
0
LINE
8
BLACK
6
CONTINUOUS
10
2.0917
20
-5.18872
11
2.0917
21
-5.17372
0
LINE
8
BLACK
6
CONTINUOUS
10
2.0917
20
-5.17372
11
2.09545
21
-5.15497
0
LINE
8
BLACK
6
CONTINUOUS
10
2.09545
20
-5.15497
11
2.0992
21
-5.14372
0
LINE
8
BLACK
6
CONTINUOUS
10
2.0992
20
-5.14372
11
2.10295
21
-5.13622
0
LINE
8
BLACK
6
CONTINUOUS
10
2.10295
20
-5.13622
11
2.11045
21
-5.12497
0
LINE
8
BLACK
6
CONTINUOUS
10
2.11045
20
-5.12497
11
2.1142
21
-5.12123
0
LINE
8
BLACK
6
CONTINUOUS
10
2.18544
20
-5.21121
11
2.14044
21
-5.21121
0
LINE
8
BLACK
6
CONTINUOUS
10
2.16294
20
-5.21121
11
2.16294
21
-5.13247
0
LINE
8
BLACK
6
CONTINUOUS
10
2.16294
20
-5.13247
11
2.15544
21
-5.14372
0
LINE
8
BLACK
6
CONTINUOUS
10
2.15544
20
-5.14372
11
2.14794
21
-5.15122
0
LINE
8
BLACK
6
CONTINUOUS
10
2.14794
20
-5.15122
11
2.14044
21
-5.15497
0
LINE
8
BLACK
6
CONTINUOUS
10
2.25293
20
-5.13247
11
2.23793
21
-5.13247
0
LINE
8
BLACK
6
CONTINUOUS
10
2.23793
20
-5.13247
11
2.23043
21
-5.13622
0
LINE
8
BLACK
6
CONTINUOUS
10
2.23043
20
-5.13622
11
2.22668
21
-5.13997
0
LINE
8
BLACK
6
CONTINUOUS
10
2.22668
20
-5.13997
11
2.21918
21
-5.15122
0
LINE
8
BLACK
6
CONTINUOUS
10
2.21918
20
-5.15122
11
2.21544
21
-5.16622
0
LINE
8
BLACK
6
CONTINUOUS
10
2.21544
20
-5.16622
11
2.21544
21
-5.19622
0
LINE
8
BLACK
6
CONTINUOUS
10
2.21544
20
-5.19622
11
2.21918
21
-5.20371
0
LINE
8
BLACK
6
CONTINUOUS
10
2.21918
20
-5.20371
11
2.22293
21
-5.20746
0
LINE
8
BLACK
6
CONTINUOUS
10
2.22293
20
-5.20746
11
2.23043
21
-5.21121
0
LINE
8
BLACK
6
CONTINUOUS
10
2.23043
20
-5.21121
11
2.24543
21
-5.21121
0
LINE
8
BLACK
6
CONTINUOUS
10
2.24543
20
-5.21121
11
2.25293
21
-5.20746
0
LINE
8
BLACK
6
CONTINUOUS
10
2.25293
20
-5.20746
11
2.25668
21
-5.20371
0
LINE
8
BLACK
6
CONTINUOUS
10
2.25668
20
-5.20371
11
2.26043
21
-5.19622
0
LINE
8
BLACK
6
CONTINUOUS
10
2.26043
20
-5.19622
11
2.26043
21
-5.17747
0
LINE
8
BLACK
6
CONTINUOUS
10
2.26043
20
-5.17747
11
2.25668
21
-5.16997
0
LINE
8
BLACK
6
CONTINUOUS
10
2.25668
20
-5.16997
11
2.25293
21
-5.16622
0
LINE
8
BLACK
6
CONTINUOUS
10
2.25293
20
-5.16622
11
2.24543
21
-5.16247
0
LINE
8
BLACK
6
CONTINUOUS
10
2.24543
20
-5.16247
11
2.23043
21
-5.16247
0
LINE
8
BLACK
6
CONTINUOUS
10
2.23043
20
-5.16247
11
2.22293
21
-5.16622
0
LINE
8
BLACK
6
CONTINUOUS
10
2.22293
20
-5.16622
11
2.21918
21
-5.16997
0
LINE
8
BLACK
6
CONTINUOUS
10
2.21918
20
-5.16997
11
2.21544
21
-5.17747
0
LINE
8
BLACK
6
CONTINUOUS
10
2.30917
20
-5.13247
11
2.31667
21
-5.13247
0
LINE
8
BLACK
6
CONTINUOUS
10
2.31667
20
-5.13247
11
2.32417
21
-5.13622
0
LINE
8
BLACK
6
CONTINUOUS
10
2.32417
20
-5.13622
11
2.32792
21
-5.13997
0
LINE
8
BLACK
6
CONTINUOUS
10
2.32792
20
-5.13997
11
2.33167
21
-5.14747
0
LINE
8
BLACK
6
CONTINUOUS
10
2.33167
20
-5.14747
11
2.33542
21
-5.16247
0
LINE
8
BLACK
6
CONTINUOUS
10
2.33542
20
-5.16247
11
2.33542
21
-5.18122
0
LINE
8
BLACK
6
CONTINUOUS
10
2.33542
20
-5.18122
11
2.33167
21
-5.19622
0
LINE
8
BLACK
6
CONTINUOUS
10
2.33167
20
-5.19622
11
2.32792
21
-5.20371
0
LINE
8
BLACK
6
CONTINUOUS
10
2.32792
20
-5.20371
11
2.32417
21
-5.20746
0
LINE
8
BLACK
6
CONTINUOUS
10
2.32417
20
-5.20746
11
2.31667
21
-5.21121
0
LINE
8
BLACK
6
CONTINUOUS
10
2.31667
20
-5.21121
11
2.30917
21
-5.21121
0
LINE
8
BLACK
6
CONTINUOUS
10
2.30917
20
-5.21121
11
2.30167
21
-5.20746
0
LINE
8
BLACK
6
CONTINUOUS
10
2.30167
20
-5.20746
11
2.29792
21
-5.20371
0
LINE
8
BLACK
6
CONTINUOUS
10
2.29792
20
-5.20371
11
2.29418
21
-5.19622
0
LINE
8
BLACK
6
CONTINUOUS
10
2.29418
20
-5.19622
11
2.29043
21
-5.18122
0
LINE
8
BLACK
6
CONTINUOUS
10
2.29043
20
-5.18122
11
2.29043
21
-5.16247
0
LINE
8
BLACK
6
CONTINUOUS
10
2.29043
20
-5.16247
11
2.29418
21
-5.14747
0
LINE
8
BLACK
6
CONTINUOUS
10
2.29418
20
-5.14747
11
2.29792
21
-5.13997
0
LINE
8
BLACK
6
CONTINUOUS
10
2.29792
20
-5.13997
11
2.30167
21
-5.13622
0
LINE
8
BLACK
6
CONTINUOUS
10
2.30167
20
-5.13622
11
2.30917
21
-5.13247
0
LINE
8
BLACK
6
CONTINUOUS
10
2.42916
20
-5.21121
11
2.42916
21
-5.13247
0
LINE
8
BLACK
6
CONTINUOUS
10
2.4629
20
-5.21121
11
2.4629
21
-5.16997
0
LINE
8
BLACK
6
CONTINUOUS
10
2.4629
20
-5.16997
11
2.45915
21
-5.16247
0
LINE
8
BLACK
6
CONTINUOUS
10
2.45915
20
-5.16247
11
2.45166
21
-5.15872
0
LINE
8
BLACK
6
CONTINUOUS
10
2.45166
20
-5.15872
11
2.44041
21
-5.15872
0
LINE
8
BLACK
6
CONTINUOUS
10
2.44041
20
-5.15872
11
2.43291
21
-5.16247
0
LINE
8
BLACK
6
CONTINUOUS
10
2.43291
20
-5.16247
11
2.42916
21
-5.16622
0
LINE
8
BLACK
6
CONTINUOUS
10
2.51165
20
-5.21121
11
2.50415
21
-5.20746
0
LINE
8
BLACK
6
CONTINUOUS
10
2.50415
20
-5.20746
11
2.5004
21
-5.20371
0
LINE
8
BLACK
6
CONTINUOUS
10
2.5004
20
-5.20371
11
2.49665
21
-5.19622
0
LINE
8
BLACK
6
CONTINUOUS
10
2.49665
20
-5.19622
11
2.49665
21
-5.17372
0
LINE
8
BLACK
6
CONTINUOUS
10
2.49665
20
-5.17372
11
2.5004
21
-5.16622
0
LINE
8
BLACK
6
CONTINUOUS
10
2.5004
20
-5.16622
11
2.50415
21
-5.16247
0
LINE
8
BLACK
6
CONTINUOUS
10
2.50415
20
-5.16247
11
2.51165
21
-5.15872
0
LINE
8
BLACK
6
CONTINUOUS
10
2.51165
20
-5.15872
11
2.5229
21
-5.15872
0
LINE
8
BLACK
6
CONTINUOUS
10
2.5229
20
-5.15872
11
2.5304
21
-5.16247
0
LINE
8
BLACK
6
CONTINUOUS
10
2.5304
20
-5.16247
11
2.53415
21
-5.16622
0
LINE
8
BLACK
6
CONTINUOUS
10
2.53415
20
-5.16622
11
2.5379
21
-5.17372
0
LINE
8
BLACK
6
CONTINUOUS
10
2.5379
20
-5.17372
11
2.5379
21
-5.19622
0
LINE
8
BLACK
6
CONTINUOUS
10
2.5379
20
-5.19622
11
2.53415
21
-5.20371
0
LINE
8
BLACK
6
CONTINUOUS
10
2.53415
20
-5.20371
11
2.5304
21
-5.20746
0
LINE
8
BLACK
6
CONTINUOUS
10
2.5304
20
-5.20746
11
2.5229
21
-5.21121
0
LINE
8
BLACK
6
CONTINUOUS
10
2.5229
20
-5.21121
11
2.51165
21
-5.21121
0
LINE
8
BLACK
6
CONTINUOUS
10
2.58289
20
-5.21121
11
2.57539
21
-5.20746
0
LINE
8
BLACK
6
CONTINUOUS
10
2.57539
20
-5.20746
11
2.57164
21
-5.19997
0
LINE
8
BLACK
6
CONTINUOUS
10
2.57164
20
-5.19997
11
2.57164
21
-5.13247
0
LINE
8
BLACK
6
CONTINUOUS
10
2.64288
20
-5.20746
11
2.63538
21
-5.21121
0
LINE
8
BLACK
6
CONTINUOUS
10
2.63538
20
-5.21121
11
2.62038
21
-5.21121
0
LINE
8
BLACK
6
CONTINUOUS
10
2.62038
20
-5.21121
11
2.61289
21
-5.20746
0
LINE
8
BLACK
6
CONTINUOUS
10
2.61289
20
-5.20746
11
2.60914
21
-5.19997
0
LINE
8
BLACK
6
CONTINUOUS
10
2.60914
20
-5.19997
11
2.60914
21
-5.16997
0
LINE
8
BLACK
6
CONTINUOUS
10
2.60914
20
-5.16997
11
2.61289
21
-5.16247
0
LINE
8
BLACK
6
CONTINUOUS
10
2.61289
20
-5.16247
11
2.62038
21
-5.15872
0
LINE
8
BLACK
6
CONTINUOUS
10
2.62038
20
-5.15872
11
2.63538
21
-5.15872
0
LINE
8
BLACK
6
CONTINUOUS
10
2.63538
20
-5.15872
11
2.64288
21
-5.16247
0
LINE
8
BLACK
6
CONTINUOUS
10
2.64288
20
-5.16247
11
2.64663
21
-5.16997
0
LINE
8
BLACK
6
CONTINUOUS
10
2.64663
20
-5.16997
11
2.64663
21
-5.17747
0
LINE
8
BLACK
6
CONTINUOUS
10
2.64663
20
-5.17747
11
2.60914
21
-5.18497
0
LINE
8
BLACK
6
CONTINUOUS
10
2.67663
20
-5.20746
11
2.68413
21
-5.21121
0
LINE
8
BLACK
6
CONTINUOUS
10
2.68413
20
-5.21121
11
2.69912
21
-5.21121
0
LINE
8
BLACK
6
CONTINUOUS
10
2.69912
20
-5.21121
11
2.70662
21
-5.20746
0
LINE
8
BLACK
6
CONTINUOUS
10
2.70662
20
-5.20746
11
2.71037
21
-5.19997
0
LINE
8
BLACK
6
CONTINUOUS
10
2.71037
20
-5.19997
11
2.71037
21
-5.19622
0
LINE
8
BLACK
6
CONTINUOUS
10
2.71037
20
-5.19622
11
2.70662
21
-5.18872
0
LINE
8
BLACK
6
CONTINUOUS
10
2.70662
20
-5.18872
11
2.69912
21
-5.18497
0
LINE
8
BLACK
6
CONTINUOUS
10
2.69912
20
-5.18497
11
2.68788
21
-5.18497
0
LINE
8
BLACK
6
CONTINUOUS
10
2.68788
20
-5.18497
11
2.68038
21
-5.18122
0
LINE
8
BLACK
6
CONTINUOUS
10
2.68038
20
-5.18122
11
2.67663
21
-5.17372
0
LINE
8
BLACK
6
CONTINUOUS
10
2.67663
20
-5.17372
11
2.67663
21
-5.16997
0
LINE
8
BLACK
6
CONTINUOUS
10
2.67663
20
-5.16997
11
2.68038
21
-5.16247
0
LINE
8
BLACK
6
CONTINUOUS
10
2.68038
20
-5.16247
11
2.68788
21
-5.15872
0
LINE
8
BLACK
6
CONTINUOUS
10
2.68788
20
-5.15872
11
2.69912
21
-5.15872
0
LINE
8
BLACK
6
CONTINUOUS
10
2.69912
20
-5.15872
11
2.70662
21
-5.16247
0
LINE
8
BLACK
6
CONTINUOUS
10
2.73662
20
-5.24121
11
2.74037
21
-5.23746
0
LINE
8
BLACK
6
CONTINUOUS
10
2.74037
20
-5.23746
11
2.74787
21
-5.22621
0
LINE
8
BLACK
6
CONTINUOUS
10
2.74787
20
-5.22621
11
2.75162
21
-5.21871
0
LINE
8
BLACK
6
CONTINUOUS
10
2.75162
20
-5.21871
11
2.75537
21
-5.20746
0
LINE
8
BLACK
6
CONTINUOUS
10
2.75537
20
-5.20746
11
2.75912
21
-5.18872
0
LINE
8
BLACK
6
CONTINUOUS
10
2.75912
20
-5.18872
11
2.75912
21
-5.17372
0
LINE
8
BLACK
6
CONTINUOUS
10
2.75912
20
-5.17372
11
2.75537
21
-5.15497
0
LINE
8
BLACK
6
CONTINUOUS
10
2.75537
20
-5.15497
11
2.75162
21
-5.14372
0
LINE
8
BLACK
6
CONTINUOUS
10
2.75162
20
-5.14372
11
2.74787
21
-5.13622
0
LINE
8
BLACK
6
CONTINUOUS
10
2.74787
20
-5.13622
11
2.74037
21
-5.12497
0
LINE
8
BLACK
6
CONTINUOUS
10
2.74037
20
-5.12497
11
2.73662
21
-5.12123
0
CIRCLE
8
BLACK
10
0.694882
20
-5.27913
40
0.011811
0
LINE
8
BLACK
6
CONTINUOUS
10
0.824359
20
-5.23641
11
0.831858
21
-5.23641
0
LINE
8
BLACK
6
CONTINUOUS
10
0.831858
20
-5.23641
11
0.839357
21
-5.24016
0
LINE
8
BLACK
6
CONTINUOUS
10
0.839357
20
-5.24016
11
0.843107
21
-5.24391
0
LINE
8
BLACK
6
CONTINUOUS
10
0.843107
20
-5.24391
11
0.846856
21
-5.25141
0
LINE
8
BLACK
6
CONTINUOUS
10
0.846856
20
-5.25141
11
0.850606
21
-5.26641
0
LINE
8
BLACK
6
CONTINUOUS
10
0.850606
20
-5.26641
11
0.850606
21
-5.28515
0
LINE
8
BLACK
6
CONTINUOUS
10
0.850606
20
-5.28515
11
0.846856
21
-5.30015
0
LINE
8
BLACK
6
CONTINUOUS
10
0.846856
20
-5.30015
11
0.843107
21
-5.30765
0
LINE
8
BLACK
6
CONTINUOUS
10
0.843107
20
-5.30765
11
0.839357
21
-5.3114
0
LINE
8
BLACK
6
CONTINUOUS
10
0.839357
20
-5.3114
11
0.831858
21
-5.31515
0
LINE
8
BLACK
6
CONTINUOUS
10
0.831858
20
-5.31515
11
0.824359
21
-5.31515
0
LINE
8
BLACK
6
CONTINUOUS
10
0.824359
20
-5.31515
11
0.81686
21
-5.3114
0
LINE
8
BLACK
6
CONTINUOUS
10
0.81686
20
-5.3114
11
0.81311
21
-5.30765
0
LINE
8
BLACK
6
CONTINUOUS
10
0.81311
20
-5.30765
11
0.809361
21
-5.30015
0
LINE
8
BLACK
6
CONTINUOUS
10
0.809361
20
-5.30015
11
0.805611
21
-5.28515
0
LINE
8
BLACK
6
CONTINUOUS
10
0.805611
20
-5.28515
11
0.805611
21
-5.26641
0
LINE
8
BLACK
6
CONTINUOUS
10
0.805611
20
-5.26641
11
0.809361
21
-5.25141
0
LINE
8
BLACK
6
CONTINUOUS
10
0.809361
20
-5.25141
11
0.81311
21
-5.24391
0
LINE
8
BLACK
6
CONTINUOUS
10
0.81311
20
-5.24391
11
0.81686
21
-5.24016
0
LINE
8
BLACK
6
CONTINUOUS
10
0.81686
20
-5.24016
11
0.824359
21
-5.23641
0
LINE
8
BLACK
6
CONTINUOUS
10
0.884352
20
-5.30765
11
0.888101
21
-5.3114
0
LINE
8
BLACK
6
CONTINUOUS
10
0.888101
20
-5.3114
11
0.884352
21
-5.31515
0
LINE
8
BLACK
6
CONTINUOUS
10
0.884352
20
-5.31515
11
0.880602
21
-5.3114
0
LINE
8
BLACK
6
CONTINUOUS
10
0.880602
20
-5.3114
11
0.884352
21
-5.30765
0
LINE
8
BLACK
6
CONTINUOUS
10
0.884352
20
-5.30765
11
0.884352
21
-5.31515
0
LINE
8
BLACK
6
CONTINUOUS
10
0.955593
20
-5.23641
11
0.940595
21
-5.23641
0
LINE
8
BLACK
6
CONTINUOUS
10
0.940595
20
-5.23641
11
0.933095
21
-5.24016
0
LINE
8
BLACK
6
CONTINUOUS
10
0.933095
20
-5.24016
11
0.929346
21
-5.24391
0
LINE
8
BLACK
6
CONTINUOUS
10
0.929346
20
-5.24391
11
0.921847
21
-5.25516
0
LINE
8
BLACK
6
CONTINUOUS
10
0.921847
20
-5.25516
11
0.918097
21
-5.27016
0
LINE
8
BLACK
6
CONTINUOUS
10
0.918097
20
-5.27016
11
0.918097
21
-5.30015
0
LINE
8
BLACK
6
CONTINUOUS
10
0.918097
20
-5.30015
11
0.921847
21
-5.30765
0
LINE
8
BLACK
6
CONTINUOUS
10
0.921847
20
-5.30765
11
0.925596
21
-5.3114
0
LINE
8
BLACK
6
CONTINUOUS
10
0.925596
20
-5.3114
11
0.933095
21
-5.31515
0
LINE
8
BLACK
6
CONTINUOUS
10
0.933095
20
-5.31515
11
0.948094
21
-5.31515
0
LINE
8
BLACK
6
CONTINUOUS
10
0.948094
20
-5.31515
11
0.955593
21
-5.3114
0
LINE
8
BLACK
6
CONTINUOUS
10
0.955593
20
-5.3114
11
0.959342
21
-5.30765
0
LINE
8
BLACK
6
CONTINUOUS
10
0.959342
20
-5.30765
11
0.963092
21
-5.30015
0
LINE
8
BLACK
6
CONTINUOUS
10
0.963092
20
-5.30015
11
0.963092
21
-5.28141
0
LINE
8
BLACK
6
CONTINUOUS
10
0.963092
20
-5.28141
11
0.959342
21
-5.27391
0
LINE
8
BLACK
6
CONTINUOUS
10
0.959342
20
-5.27391
11
0.955593
21
-5.27016
0
LINE
8
BLACK
6
CONTINUOUS
10
0.955593
20
-5.27016
11
0.948094
21
-5.26641
0
LINE
8
BLACK
6
CONTINUOUS
10
0.948094
20
-5.26641
11
0.933095
21
-5.26641
0
LINE
8
BLACK
6
CONTINUOUS
10
0.933095
20
-5.26641
11
0.925596
21
-5.27016
0
LINE
8
BLACK
6
CONTINUOUS
10
0.925596
20
-5.27016
11
0.921847
21
-5.27391
0
LINE
8
BLACK
6
CONTINUOUS
10
0.921847
20
-5.27391
11
0.918097
21
-5.28141
0
LINE
8
BLACK
6
CONTINUOUS
10
1.01184
20
-5.23641
11
1.01933
21
-5.23641
0
LINE
8
BLACK
6
CONTINUOUS
10
1.01933
20
-5.23641
11
1.02683
21
-5.24016
0
LINE
8
BLACK
6
CONTINUOUS
10
1.02683
20
-5.24016
11
1.03058
21
-5.24391
0
LINE
8
BLACK
6
CONTINUOUS
10
1.03058
20
-5.24391
11
1.03433
21
-5.25141
0
LINE
8
BLACK
6
CONTINUOUS
10
1.03433
20
-5.25141
11
1.03808
21
-5.26641
0
LINE
8
BLACK
6
CONTINUOUS
10
1.03808
20
-5.26641
11
1.03808
21
-5.28515
0
LINE
8
BLACK
6
CONTINUOUS
10
1.03808
20
-5.28515
11
1.03433
21
-5.30015
0
LINE
8
BLACK
6
CONTINUOUS
10
1.03433
20
-5.30015
11
1.03058
21
-5.30765
0
LINE
8
BLACK
6
CONTINUOUS
10
1.03058
20
-5.30765
11
1.02683
21
-5.3114
0
LINE
8
BLACK
6
CONTINUOUS
10
1.02683
20
-5.3114
11
1.01933
21
-5.31515
0
LINE
8
BLACK
6
CONTINUOUS
10
1.01933
20
-5.31515
11
1.01184
21
-5.31515
0
LINE
8
BLACK
6
CONTINUOUS
10
1.01184
20
-5.31515
11
1.00434
21
-5.3114
0
LINE
8
BLACK
6
CONTINUOUS
10
1.00434
20
-5.3114
11
1.00059
21
-5.30765
0
LINE
8
BLACK
6
CONTINUOUS
10
1.00059
20
-5.30765
11
0.996838
21
-5.30015
0
LINE
8
BLACK
6
CONTINUOUS
10
0.996838
20
-5.30015
11
0.993088
21
-5.28515
0
LINE
8
BLACK
6
CONTINUOUS
10
0.993088
20
-5.28515
11
0.993088
21
-5.26641
0
LINE
8
BLACK
6
CONTINUOUS
10
0.993088
20
-5.26641
11
0.996838
21
-5.25141
0
LINE
8
BLACK
6
CONTINUOUS
10
0.996838
20
-5.25141
11
1.00059
21
-5.24391
0
LINE
8
BLACK
6
CONTINUOUS
10
1.00059
20
-5.24391
11
1.00434
21
-5.24016
0
LINE
8
BLACK
6
CONTINUOUS
10
1.00434
20
-5.24016
11
1.01184
21
-5.23641
0
LINE
8
BLACK
6
CONTINUOUS
10
1.08683
20
-5.23641
11
1.09433
21
-5.23641
0
LINE
8
BLACK
6
CONTINUOUS
10
1.09433
20
-5.23641
11
1.10182
21
-5.24016
0
LINE
8
BLACK
6
CONTINUOUS
10
1.10182
20
-5.24016
11
1.10557
21
-5.24391
0
LINE
8
BLACK
6
CONTINUOUS
10
1.10557
20
-5.24391
11
1.10932
21
-5.25141
0
LINE
8
BLACK
6
CONTINUOUS
10
1.10932
20
-5.25141
11
1.11307
21
-5.26641
0
LINE
8
BLACK
6
CONTINUOUS
10
1.11307
20
-5.26641
11
1.11307
21
-5.28515
0
LINE
8
BLACK
6
CONTINUOUS
10
1.11307
20
-5.28515
11
1.10932
21
-5.30015
0
LINE
8
BLACK
6
CONTINUOUS
10
1.10932
20
-5.30015
11
1.10557
21
-5.30765
0
LINE
8
BLACK
6
CONTINUOUS
10
1.10557
20
-5.30765
11
1.10182
21
-5.3114
0
LINE
8
BLACK
6
CONTINUOUS
10
1.10182
20
-5.3114
11
1.09433
21
-5.31515
0
LINE
8
BLACK
6
CONTINUOUS
10
1.09433
20
-5.31515
11
1.08683
21
-5.31515
0
LINE
8
BLACK
6
CONTINUOUS
10
1.08683
20
-5.31515
11
1.07933
21
-5.3114
0
LINE
8
BLACK
6
CONTINUOUS
10
1.07933
20
-5.3114
11
1.07558
21
-5.30765
0
LINE
8
BLACK
6
CONTINUOUS
10
1.07558
20
-5.30765
11
1.07183
21
-5.30015
0
LINE
8
BLACK
6
CONTINUOUS
10
1.07183
20
-5.30015
11
1.06808
21
-5.28515
0
LINE
8
BLACK
6
CONTINUOUS
10
1.06808
20
-5.28515
11
1.06808
21
-5.26641
0
LINE
8
BLACK
6
CONTINUOUS
10
1.06808
20
-5.26641
11
1.07183
21
-5.25141
0
LINE
8
BLACK
6
CONTINUOUS
10
1.07183
20
-5.25141
11
1.07558
21
-5.24391
0
LINE
8
BLACK
6
CONTINUOUS
10
1.07558
20
-5.24391
11
1.07933
21
-5.24016
0
LINE
8
BLACK
6
CONTINUOUS
10
1.07933
20
-5.24016
11
1.08683
21
-5.23641
0
LINE
8
BLACK
6
CONTINUOUS
10
1.14682
20
-5.31515
11
1.14682
21
-5.26266
0
LINE
8
BLACK
6
CONTINUOUS
10
1.14682
20
-5.27016
11
1.15057
21
-5.26641
0
LINE
8
BLACK
6
CONTINUOUS
10
1.15057
20
-5.26641
11
1.15807
21
-5.26266
0
LINE
8
BLACK
6
CONTINUOUS
10
1.15807
20
-5.26266
11
1.16932
21
-5.26266
0
LINE
8
BLACK
6
CONTINUOUS
10
1.16932
20
-5.26266
11
1.17682
21
-5.26641
0
LINE
8
BLACK
6
CONTINUOUS
10
1.17682
20
-5.26641
11
1.18056
21
-5.27391
0
LINE
8
BLACK
6
CONTINUOUS
10
1.18056
20
-5.27391
11
1.18056
21
-5.31515
0
LINE
8
BLACK
6
CONTINUOUS
10
1.18056
20
-5.27391
11
1.18431
21
-5.26641
0
LINE
8
BLACK
6
CONTINUOUS
10
1.18431
20
-5.26641
11
1.19181
21
-5.26266
0
LINE
8
BLACK
6
CONTINUOUS
10
1.19181
20
-5.26266
11
1.20306
21
-5.26266
0
LINE
8
BLACK
6
CONTINUOUS
10
1.20306
20
-5.26266
11
1.21056
21
-5.26641
0
LINE
8
BLACK
6
CONTINUOUS
10
1.21056
20
-5.26641
11
1.21431
21
-5.27391
0
LINE
8
BLACK
6
CONTINUOUS
10
1.21431
20
-5.27391
11
1.21431
21
-5.31515
0
LINE
8
BLACK
6
CONTINUOUS
10
1.25181
20
-5.31515
11
1.25181
21
-5.26266
0
LINE
8
BLACK
6
CONTINUOUS
10
1.25181
20
-5.27016
11
1.25556
21
-5.26641
0
LINE
8
BLACK
6
CONTINUOUS
10
1.25556
20
-5.26641
11
1.26305
21
-5.26266
0
LINE
8
BLACK
6
CONTINUOUS
10
1.26305
20
-5.26266
11
1.2743
21
-5.26266
0
LINE
8
BLACK
6
CONTINUOUS
10
1.2743
20
-5.26266
11
1.2818
21
-5.26641
0
LINE
8
BLACK
6
CONTINUOUS
10
1.2818
20
-5.26641
11
1.28555
21
-5.27391
0
LINE
8
BLACK
6
CONTINUOUS
10
1.28555
20
-5.27391
11
1.28555
21
-5.31515
0
LINE
8
BLACK
6
CONTINUOUS
10
1.28555
20
-5.27391
11
1.2893
21
-5.26641
0
LINE
8
BLACK
6
CONTINUOUS
10
1.2893
20
-5.26641
11
1.2968
21
-5.26266
0
LINE
8
BLACK
6
CONTINUOUS
10
1.2968
20
-5.26266
11
1.30805
21
-5.26266
0
LINE
8
BLACK
6
CONTINUOUS
10
1.30805
20
-5.26266
11
1.31555
21
-5.26641
0
LINE
8
BLACK
6
CONTINUOUS
10
1.31555
20
-5.26641
11
1.3193
21
-5.27391
0
LINE
8
BLACK
6
CONTINUOUS
10
1.3193
20
-5.27391
11
1.3193
21
-5.31515
0
LINE
8
BLACK
6
CONTINUOUS
10
1.47303
20
-5.23266
11
1.40554
21
-5.3339
0
LINE
8
BLACK
6
CONTINUOUS
10
1.57427
20
-5.23641
11
1.58176
21
-5.23641
0
LINE
8
BLACK
6
CONTINUOUS
10
1.58176
20
-5.23641
11
1.58926
21
-5.24016
0
LINE
8
BLACK
6
CONTINUOUS
10
1.58926
20
-5.24016
11
1.59301
21
-5.24391
0
LINE
8
BLACK
6
CONTINUOUS
10
1.59301
20
-5.24391
11
1.59676
21
-5.25141
0
LINE
8
BLACK
6
CONTINUOUS
10
1.59676
20
-5.25141
11
1.60051
21
-5.26641
0
LINE
8
BLACK
6
CONTINUOUS
10
1.60051
20
-5.26641
11
1.60051
21
-5.28515
0
LINE
8
BLACK
6
CONTINUOUS
10
1.60051
20
-5.28515
11
1.59676
21
-5.30015
0
LINE
8
BLACK
6
CONTINUOUS
10
1.59676
20
-5.30015
11
1.59301
21
-5.30765
0
LINE
8
BLACK
6
CONTINUOUS
10
1.59301
20
-5.30765
11
1.58926
21
-5.3114
0
LINE
8
BLACK
6
CONTINUOUS
10
1.58926
20
-5.3114
11
1.58176
21
-5.31515
0
LINE
8
BLACK
6
CONTINUOUS
10
1.58176
20
-5.31515
11
1.57427
21
-5.31515
0
LINE
8
BLACK
6
CONTINUOUS
10
1.57427
20
-5.31515
11
1.56677
21
-5.3114
0
LINE
8
BLACK
6
CONTINUOUS
10
1.56677
20
-5.3114
11
1.56302
21
-5.30765
0
LINE
8
BLACK
6
CONTINUOUS
10
1.56302
20
-5.30765
11
1.55927
21
-5.30015
0
LINE
8
BLACK
6
CONTINUOUS
10
1.55927
20
-5.30015
11
1.55552
21
-5.28515
0
LINE
8
BLACK
6
CONTINUOUS
10
1.55552
20
-5.28515
11
1.55552
21
-5.26641
0
LINE
8
BLACK
6
CONTINUOUS
10
1.55552
20
-5.26641
11
1.55927
21
-5.25141
0
LINE
8
BLACK
6
CONTINUOUS
10
1.55927
20
-5.25141
11
1.56302
21
-5.24391
0
LINE
8
BLACK
6
CONTINUOUS
10
1.56302
20
-5.24391
11
1.56677
21
-5.24016
0
LINE
8
BLACK
6
CONTINUOUS
10
1.56677
20
-5.24016
11
1.57427
21
-5.23641
0
LINE
8
BLACK
6
CONTINUOUS
10
1.63426
20
-5.30765
11
1.63801
21
-5.3114
0
LINE
8
BLACK
6
CONTINUOUS
10
1.63801
20
-5.3114
11
1.63426
21
-5.31515
0
LINE
8
BLACK
6
CONTINUOUS
10
1.63426
20
-5.31515
11
1.63051
21
-5.3114
0
LINE
8
BLACK
6
CONTINUOUS
10
1.63051
20
-5.3114
11
1.63426
21
-5.30765
0
LINE
8
BLACK
6
CONTINUOUS
10
1.63426
20
-5.30765
11
1.63426
21
-5.31515
0
LINE
8
BLACK
6
CONTINUOUS
10
1.68675
20
-5.23641
11
1.69425
21
-5.23641
0
LINE
8
BLACK
6
CONTINUOUS
10
1.69425
20
-5.23641
11
1.70175
21
-5.24016
0
LINE
8
BLACK
6
CONTINUOUS
10
1.70175
20
-5.24016
11
1.7055
21
-5.24391
0
LINE
8
BLACK
6
CONTINUOUS
10
1.7055
20
-5.24391
11
1.70925
21
-5.25141
0
LINE
8
BLACK
6
CONTINUOUS
10
1.70925
20
-5.25141
11
1.713
21
-5.26641
0
LINE
8
BLACK
6
CONTINUOUS
10
1.713
20
-5.26641
11
1.713
21
-5.28515
0
LINE
8
BLACK
6
CONTINUOUS
10
1.713
20
-5.28515
11
1.70925
21
-5.30015
0
LINE
8
BLACK
6
CONTINUOUS
10
1.70925
20
-5.30015
11
1.7055
21
-5.30765
0
LINE
8
BLACK
6
CONTINUOUS
10
1.7055
20
-5.30765
11
1.70175
21
-5.3114
0
LINE
8
BLACK
6
CONTINUOUS
10
1.70175
20
-5.3114
11
1.69425
21
-5.31515
0
LINE
8
BLACK
6
CONTINUOUS
10
1.69425
20
-5.31515
11
1.68675
21
-5.31515
0
LINE
8
BLACK
6
CONTINUOUS
10
1.68675
20
-5.31515
11
1.67925
21
-5.3114
0
LINE
8
BLACK
6
CONTINUOUS
10
1.67925
20
-5.3114
11
1.6755
21
-5.30765
0
LINE
8
BLACK
6
CONTINUOUS
10
1.6755
20
-5.30765
11
1.67175
21
-5.30015
0
LINE
8
BLACK
6
CONTINUOUS
10
1.67175
20
-5.30015
11
1.668
21
-5.28515
0
LINE
8
BLACK
6
CONTINUOUS
10
1.668
20
-5.28515
11
1.668
21
-5.26641
0
LINE
8
BLACK
6
CONTINUOUS
10
1.668
20
-5.26641
11
1.67175
21
-5.25141
0
LINE
8
BLACK
6
CONTINUOUS
10
1.67175
20
-5.25141
11
1.6755
21
-5.24391
0
LINE
8
BLACK
6
CONTINUOUS
10
1.6755
20
-5.24391
11
1.67925
21
-5.24016
0
LINE
8
BLACK
6
CONTINUOUS
10
1.67925
20
-5.24016
11
1.68675
21
-5.23641
0
LINE
8
BLACK
6
CONTINUOUS
10
1.74299
20
-5.24391
11
1.74674
21
-5.24016
0
LINE
8
BLACK
6
CONTINUOUS
10
1.74674
20
-5.24016
11
1.75424
21
-5.23641
0
LINE
8
BLACK
6
CONTINUOUS
10
1.75424
20
-5.23641
11
1.77299
21
-5.23641
0
LINE
8
BLACK
6
CONTINUOUS
10
1.77299
20
-5.23641
11
1.78049
21
-5.24016
0
LINE
8
BLACK
6
CONTINUOUS
10
1.78049
20
-5.24016
11
1.78424
21
-5.24391
0
LINE
8
BLACK
6
CONTINUOUS
10
1.78424
20
-5.24391
11
1.78799
21
-5.25141
0
LINE
8
BLACK
6
CONTINUOUS
10
1.78799
20
-5.25141
11
1.78799
21
-5.25891
0
LINE
8
BLACK
6
CONTINUOUS
10
1.78799
20
-5.25891
11
1.78424
21
-5.27016
0
LINE
8
BLACK
6
CONTINUOUS
10
1.78424
20
-5.27016
11
1.73924
21
-5.31515
0
LINE
8
BLACK
6
CONTINUOUS
10
1.73924
20
-5.31515
11
1.78799
21
-5.31515
0
LINE
8
BLACK
6
CONTINUOUS
10
1.81424
20
-5.23641
11
1.86298
21
-5.23641
0
LINE
8
BLACK
6
CONTINUOUS
10
1.86298
20
-5.23641
11
1.83673
21
-5.26641
0
LINE
8
BLACK
6
CONTINUOUS
10
1.83673
20
-5.26641
11
1.84798
21
-5.26641
0
LINE
8
BLACK
6
CONTINUOUS
10
1.84798
20
-5.26641
11
1.85548
21
-5.27016
0
LINE
8
BLACK
6
CONTINUOUS
10
1.85548
20
-5.27016
11
1.85923
21
-5.27391
0
LINE
8
BLACK
6
CONTINUOUS
10
1.85923
20
-5.27391
11
1.86298
21
-5.28141
0
LINE
8
BLACK
6
CONTINUOUS
10
1.86298
20
-5.28141
11
1.86298
21
-5.30015
0
LINE
8
BLACK
6
CONTINUOUS
10
1.86298
20
-5.30015
11
1.85923
21
-5.30765
0
LINE
8
BLACK
6
CONTINUOUS
10
1.85923
20
-5.30765
11
1.85548
21
-5.3114
0
LINE
8
BLACK
6
CONTINUOUS
10
1.85548
20
-5.3114
11
1.84798
21
-5.31515
0
LINE
8
BLACK
6
CONTINUOUS
10
1.84798
20
-5.31515
11
1.82548
21
-5.31515
0
LINE
8
BLACK
6
CONTINUOUS
10
1.82548
20
-5.31515
11
1.81798
21
-5.3114
0
LINE
8
BLACK
6
CONTINUOUS
10
1.81798
20
-5.3114
11
1.81424
21
-5.30765
0
LINE
8
BLACK
6
CONTINUOUS
10
1.93047
20
-5.23641
11
1.91547
21
-5.23641
0
LINE
8
BLACK
6
CONTINUOUS
10
1.91547
20
-5.23641
11
1.90797
21
-5.24016
0
LINE
8
BLACK
6
CONTINUOUS
10
1.90797
20
-5.24016
11
1.90422
21
-5.24391
0
LINE
8
BLACK
6
CONTINUOUS
10
1.90422
20
-5.24391
11
1.89673
21
-5.25516
0
LINE
8
BLACK
6
CONTINUOUS
10
1.89673
20
-5.25516
11
1.89298
21
-5.27016
0
LINE
8
BLACK
6
CONTINUOUS
10
1.89298
20
-5.27016
11
1.89298
21
-5.30015
0
LINE
8
BLACK
6
CONTINUOUS
10
1.89298
20
-5.30015
11
1.89673
21
-5.30765
0
LINE
8
BLACK
6
CONTINUOUS
10
1.89673
20
-5.30765
11
1.90047
21
-5.3114
0
LINE
8
BLACK
6
CONTINUOUS
10
1.90047
20
-5.3114
11
1.90797
21
-5.31515
0
LINE
8
BLACK
6
CONTINUOUS
10
1.90797
20
-5.31515
11
1.92297
21
-5.31515
0
LINE
8
BLACK
6
CONTINUOUS
10
1.92297
20
-5.31515
11
1.93047
21
-5.3114
0
LINE
8
BLACK
6
CONTINUOUS
10
1.93047
20
-5.3114
11
1.93422
21
-5.30765
0
LINE
8
BLACK
6
CONTINUOUS
10
1.93422
20
-5.30765
11
1.93797
21
-5.30015
0
LINE
8
BLACK
6
CONTINUOUS
10
1.93797
20
-5.30015
11
1.93797
21
-5.28141
0
LINE
8
BLACK
6
CONTINUOUS
10
1.93797
20
-5.28141
11
1.93422
21
-5.27391
0
LINE
8
BLACK
6
CONTINUOUS
10
1.93422
20
-5.27391
11
1.93047
21
-5.27016
0
LINE
8
BLACK
6
CONTINUOUS
10
1.93047
20
-5.27016
11
1.92297
21
-5.26641
0
LINE
8
BLACK
6
CONTINUOUS
10
1.92297
20
-5.26641
11
1.90797
21
-5.26641
0
LINE
8
BLACK
6
CONTINUOUS
10
1.90797
20
-5.26641
11
1.90047
21
-5.27016
0
LINE
8
BLACK
6
CONTINUOUS
10
1.90047
20
-5.27016
11
1.89673
21
-5.27391
0
LINE
8
BLACK
6
CONTINUOUS
10
1.89673
20
-5.27391
11
1.89298
21
-5.28141
0
LINE
8
BLACK
6
CONTINUOUS
10
1.96797
20
-5.23641
11
1.96797
21
-5.25141
0
LINE
8
BLACK
6
CONTINUOUS
10
1.99796
20
-5.23641
11
1.99796
21
-5.25141
0
LINE
8
BLACK
6
CONTINUOUS
10
2.1142
20
-5.34515
11
2.11045
21
-5.3414
0
LINE
8
BLACK
6
CONTINUOUS
10
2.11045
20
-5.3414
11
2.10295
21
-5.33015
0
LINE
8
BLACK
6
CONTINUOUS
10
2.10295
20
-5.33015
11
2.0992
21
-5.32265
0
LINE
8
BLACK
6
CONTINUOUS
10
2.0992
20
-5.32265
11
2.09545
21
-5.3114
0
LINE
8
BLACK
6
CONTINUOUS
10
2.09545
20
-5.3114
11
2.0917
21
-5.29265
0
LINE
8
BLACK
6
CONTINUOUS
10
2.0917
20
-5.29265
11
2.0917
21
-5.27766
0
LINE
8
BLACK
6
CONTINUOUS
10
2.0917
20
-5.27766
11
2.09545
21
-5.25891
0
LINE
8
BLACK
6
CONTINUOUS
10
2.09545
20
-5.25891
11
2.0992
21
-5.24766
0
LINE
8
BLACK
6
CONTINUOUS
10
2.0992
20
-5.24766
11
2.10295
21
-5.24016
0
LINE
8
BLACK
6
CONTINUOUS
10
2.10295
20
-5.24016
11
2.11045
21
-5.22891
0
LINE
8
BLACK
6
CONTINUOUS
10
2.11045
20
-5.22891
11
2.1142
21
-5.22516
0
LINE
8
BLACK
6
CONTINUOUS
10
2.15919
20
-5.23641
11
2.16669
21
-5.23641
0
LINE
8
BLACK
6
CONTINUOUS
10
2.16669
20
-5.23641
11
2.17419
21
-5.24016
0
LINE
8
BLACK
6
CONTINUOUS
10
2.17419
20
-5.24016
11
2.17794
21
-5.24391
0
LINE
8
BLACK
6
CONTINUOUS
10
2.17794
20
-5.24391
11
2.18169
21
-5.25141
0
LINE
8
BLACK
6
CONTINUOUS
10
2.18169
20
-5.25141
11
2.18544
21
-5.26641
0
LINE
8
BLACK
6
CONTINUOUS
10
2.18544
20
-5.26641
11
2.18544
21
-5.28515
0
LINE
8
BLACK
6
CONTINUOUS
10
2.18544
20
-5.28515
11
2.18169
21
-5.30015
0
LINE
8
BLACK
6
CONTINUOUS
10
2.18169
20
-5.30015
11
2.17794
21
-5.30765
0
LINE
8
BLACK
6
CONTINUOUS
10
2.17794
20
-5.30765
11
2.17419
21
-5.3114
0
LINE
8
BLACK
6
CONTINUOUS
10
2.17419
20
-5.3114
11
2.16669
21
-5.31515
0
LINE
8
BLACK
6
CONTINUOUS
10
2.16669
20
-5.31515
11
2.15919
21
-5.31515
0
LINE
8
BLACK
6
CONTINUOUS
10
2.15919
20
-5.31515
11
2.15169
21
-5.3114
0
LINE
8
BLACK
6
CONTINUOUS
10
2.15169
20
-5.3114
11
2.14794
21
-5.30765
0
LINE
8
BLACK
6
CONTINUOUS
10
2.14794
20
-5.30765
11
2.14419
21
-5.30015
0
LINE
8
BLACK
6
CONTINUOUS
10
2.14419
20
-5.30015
11
2.14044
21
-5.28515
0
LINE
8
BLACK
6
CONTINUOUS
10
2.14044
20
-5.28515
11
2.14044
21
-5.26641
0
LINE
8
BLACK
6
CONTINUOUS
10
2.14044
20
-5.26641
11
2.14419
21
-5.25141
0
LINE
8
BLACK
6
CONTINUOUS
10
2.14419
20
-5.25141
11
2.14794
21
-5.24391
0
LINE
8
BLACK
6
CONTINUOUS
10
2.14794
20
-5.24391
11
2.15169
21
-5.24016
0
LINE
8
BLACK
6
CONTINUOUS
10
2.15169
20
-5.24016
11
2.15919
21
-5.23641
0
LINE
8
BLACK
6
CONTINUOUS
10
2.27918
20
-5.31515
11
2.27918
21
-5.23641
0
LINE
8
BLACK
6
CONTINUOUS
10
2.31292
20
-5.31515
11
2.31292
21
-5.27391
0
LINE
8
BLACK
6
CONTINUOUS
10
2.31292
20
-5.27391
11
2.30917
21
-5.26641
0
LINE
8
BLACK
6
CONTINUOUS
10
2.30917
20
-5.26641
11
2.30167
21
-5.26266
0
LINE
8
BLACK
6
CONTINUOUS
10
2.30167
20
-5.26266
11
2.29043
21
-5.26266
0
LINE
8
BLACK
6
CONTINUOUS
10
2.29043
20
-5.26266
11
2.28293
21
-5.26641
0
LINE
8
BLACK
6
CONTINUOUS
10
2.28293
20
-5.26641
11
2.27918
21
-5.27016
0
LINE
8
BLACK
6
CONTINUOUS
10
2.36167
20
-5.31515
11
2.35417
21
-5.3114
0
LINE
8
BLACK
6
CONTINUOUS
10
2.35417
20
-5.3114
11
2.35042
21
-5.30765
0
LINE
8
BLACK
6
CONTINUOUS
10
2.35042
20
-5.30765
11
2.34667
21
-5.30015
0
LINE
8
BLACK
6
CONTINUOUS
10
2.34667
20
-5.30015
11
2.34667
21
-5.27766
0
LINE
8
BLACK
6
CONTINUOUS
10
2.34667
20
-5.27766
11
2.35042
21
-5.27016
0
LINE
8
BLACK
6
CONTINUOUS
10
2.35042
20
-5.27016
11
2.35417
21
-5.26641
0
LINE
8
BLACK
6
CONTINUOUS
10
2.35417
20
-5.26641
11
2.36167
21
-5.26266
0
LINE
8
BLACK
6
CONTINUOUS
10
2.36167
20
-5.26266
11
2.37292
21
-5.26266
0
LINE
8
BLACK
6
CONTINUOUS
10
2.37292
20
-5.26266
11
2.38041
21
-5.26641
0
LINE
8
BLACK
6
CONTINUOUS
10
2.38041
20
-5.26641
11
2.38416
21
-5.27016
0
LINE
8
BLACK
6
CONTINUOUS
10
2.38416
20
-5.27016
11
2.38791
21
-5.27766
0
LINE
8
BLACK
6
CONTINUOUS
10
2.38791
20
-5.27766
11
2.38791
21
-5.30015
0
LINE
8
BLACK
6
CONTINUOUS
10
2.38791
20
-5.30015
11
2.38416
21
-5.30765
0
LINE
8
BLACK
6
CONTINUOUS
10
2.38416
20
-5.30765
11
2.38041
21
-5.3114
0
LINE
8
BLACK
6
CONTINUOUS
10
2.38041
20
-5.3114
11
2.37292
21
-5.31515
0
LINE
8
BLACK
6
CONTINUOUS
10
2.37292
20
-5.31515
11
2.36167
21
-5.31515
0
LINE
8
BLACK
6
CONTINUOUS
10
2.43291
20
-5.31515
11
2.42541
21
-5.3114
0
LINE
8
BLACK
6
CONTINUOUS
10
2.42541
20
-5.3114
11
2.42166
21
-5.3039
0
LINE
8
BLACK
6
CONTINUOUS
10
2.42166
20
-5.3039
11
2.42166
21
-5.23641
0
LINE
8
BLACK
6
CONTINUOUS
10
2.4929
20
-5.3114
11
2.4854
21
-5.31515
0
LINE
8
BLACK
6
CONTINUOUS
10
2.4854
20
-5.31515
11
2.4704
21
-5.31515
0
LINE
8
BLACK
6
CONTINUOUS
10
2.4704
20
-5.31515
11
2.4629
21
-5.3114
0
LINE
8
BLACK
6
CONTINUOUS
10
2.4629
20
-5.3114
11
2.45915
21
-5.3039
0
LINE
8
BLACK
6
CONTINUOUS
10
2.45915
20
-5.3039
11
2.45915
21
-5.27391
0
LINE
8
BLACK
6
CONTINUOUS
10
2.45915
20
-5.27391
11
2.4629
21
-5.26641
0
LINE
8
BLACK
6
CONTINUOUS
10
2.4629
20
-5.26641
11
2.4704
21
-5.26266
0
LINE
8
BLACK
6
CONTINUOUS
10
2.4704
20
-5.26266
11
2.4854
21
-5.26266
0
LINE
8
BLACK
6
CONTINUOUS
10
2.4854
20
-5.26266
11
2.4929
21
-5.26641
0
LINE
8
BLACK
6
CONTINUOUS
10
2.4929
20
-5.26641
11
2.49665
21
-5.27391
0
LINE
8
BLACK
6
CONTINUOUS
10
2.49665
20
-5.27391
11
2.49665
21
-5.28141
0
LINE
8
BLACK
6
CONTINUOUS
10
2.49665
20
-5.28141
11
2.45915
21
-5.2889
0
LINE
8
BLACK
6
CONTINUOUS
10
2.52665
20
-5.3114
11
2.53415
21
-5.31515
0
LINE
8
BLACK
6
CONTINUOUS
10
2.53415
20
-5.31515
11
2.54914
21
-5.31515
0
LINE
8
BLACK
6
CONTINUOUS
10
2.54914
20
-5.31515
11
2.55664
21
-5.3114
0
LINE
8
BLACK
6
CONTINUOUS
10
2.55664
20
-5.3114
11
2.56039
21
-5.3039
0
LINE
8
BLACK
6
CONTINUOUS
10
2.56039
20
-5.3039
11
2.56039
21
-5.30015
0
LINE
8
BLACK
6
CONTINUOUS
10
2.56039
20
-5.30015
11
2.55664
21
-5.29265
0
LINE
8
BLACK
6
CONTINUOUS
10
2.55664
20
-5.29265
11
2.54914
21
-5.2889
0
LINE
8
BLACK
6
CONTINUOUS
10
2.54914
20
-5.2889
11
2.5379
21
-5.2889
0
LINE
8
BLACK
6
CONTINUOUS
10
2.5379
20
-5.2889
11
2.5304
21
-5.28515
0
LINE
8
BLACK
6
CONTINUOUS
10
2.5304
20
-5.28515
11
2.52665
21
-5.27766
0
LINE
8
BLACK
6
CONTINUOUS
10
2.52665
20
-5.27766
11
2.52665
21
-5.27391
0
LINE
8
BLACK
6
CONTINUOUS
10
2.52665
20
-5.27391
11
2.5304
21
-5.26641
0
LINE
8
BLACK
6
CONTINUOUS
10
2.5304
20
-5.26641
11
2.5379
21
-5.26266
0
LINE
8
BLACK
6
CONTINUOUS
10
2.5379
20
-5.26266
11
2.54914
21
-5.26266
0
LINE
8
BLACK
6
CONTINUOUS
10
2.54914
20
-5.26266
11
2.55664
21
-5.26641
0
LINE
8
BLACK
6
CONTINUOUS
10
2.65413
20
-5.28515
11
2.71412
21
-5.28515
0
LINE
8
BLACK
6
CONTINUOUS
10
2.68413
20
-5.31515
11
2.68413
21
-5.25516
0
LINE
8
BLACK
6
CONTINUOUS
10
2.84536
20
-5.26266
11
2.84536
21
-5.31515
0
LINE
8
BLACK
6
CONTINUOUS
10
2.82661
20
-5.23266
11
2.80786
21
-5.2889
0
LINE
8
BLACK
6
CONTINUOUS
10
2.80786
20
-5.2889
11
2.85661
21
-5.2889
0
LINE
8
BLACK
6
CONTINUOUS
10
2.94284
20
-5.3114
11
2.95034
21
-5.31515
0
LINE
8
BLACK
6
CONTINUOUS
10
2.95034
20
-5.31515
11
2.96534
21
-5.31515
0
LINE
8
BLACK
6
CONTINUOUS
10
2.96534
20
-5.31515
11
2.97284
21
-5.3114
0
LINE
8
BLACK
6
CONTINUOUS
10
2.97284
20
-5.3114
11
2.97659
21
-5.3039
0
LINE
8
BLACK
6
CONTINUOUS
10
2.97659
20
-5.3039
11
2.97659
21
-5.30015
0
LINE
8
BLACK
6
CONTINUOUS
10
2.97659
20
-5.30015
11
2.97284
21
-5.29265
0
LINE
8
BLACK
6
CONTINUOUS
10
2.97284
20
-5.29265
11
2.96534
21
-5.2889
0
LINE
8
BLACK
6
CONTINUOUS
10
2.96534
20
-5.2889
11
2.95409
21
-5.2889
0
LINE
8
BLACK
6
CONTINUOUS
10
2.95409
20
-5.2889
11
2.94659
21
-5.28515
0
LINE
8
BLACK
6
CONTINUOUS
10
2.94659
20
-5.28515
11
2.94284
21
-5.27766
0
LINE
8
BLACK
6
CONTINUOUS
10
2.94284
20
-5.27766
11
2.94284
21
-5.27391
0
LINE
8
BLACK
6
CONTINUOUS
10
2.94284
20
-5.27391
11
2.94659
21
-5.26641
0
LINE
8
BLACK
6
CONTINUOUS
10
2.94659
20
-5.26641
11
2.95409
21
-5.26266
0
LINE
8
BLACK
6
CONTINUOUS
10
2.95409
20
-5.26266
11
2.96534
21
-5.26266
0
LINE
8
BLACK
6
CONTINUOUS
10
2.96534
20
-5.26266
11
2.97284
21
-5.26641
0
LINE
8
BLACK
6
CONTINUOUS
10
3.02158
20
-5.31515
11
3.01409
21
-5.3114
0
LINE
8
BLACK
6
CONTINUOUS
10
3.01409
20
-5.3114
11
3.01034
21
-5.3039
0
LINE
8
BLACK
6
CONTINUOUS
10
3.01034
20
-5.3039
11
3.01034
21
-5.23641
0
LINE
8
BLACK
6
CONTINUOUS
10
3.06283
20
-5.31515
11
3.05533
21
-5.3114
0
LINE
8
BLACK
6
CONTINUOUS
10
3.05533
20
-5.3114
11
3.05158
21
-5.30765
0
LINE
8
BLACK
6
CONTINUOUS
10
3.05158
20
-5.30765
11
3.04783
21
-5.30015
0
LINE
8
BLACK
6
CONTINUOUS
10
3.04783
20
-5.30015
11
3.04783
21
-5.27766
0
LINE
8
BLACK
6
CONTINUOUS
10
3.04783
20
-5.27766
11
3.05158
21
-5.27016
0
LINE
8
BLACK
6
CONTINUOUS
10
3.05158
20
-5.27016
11
3.05533
21
-5.26641
0
LINE
8
BLACK
6
CONTINUOUS
10
3.05533
20
-5.26641
11
3.06283
21
-5.26266
0
LINE
8
BLACK
6
CONTINUOUS
10
3.06283
20
-5.26266
11
3.07408
21
-5.26266
0
LINE
8
BLACK
6
CONTINUOUS
10
3.07408
20
-5.26266
11
3.08158
21
-5.26641
0
LINE
8
BLACK
6
CONTINUOUS
10
3.08158
20
-5.26641
11
3.08533
21
-5.27016
0
LINE
8
BLACK
6
CONTINUOUS
10
3.08533
20
-5.27016
11
3.08908
21
-5.27766
0
LINE
8
BLACK
6
CONTINUOUS
10
3.08908
20
-5.27766
11
3.08908
21
-5.30015
0
LINE
8
BLACK
6
CONTINUOUS
10
3.08908
20
-5.30015
11
3.08533
21
-5.30765
0
LINE
8
BLACK
6
CONTINUOUS
10
3.08533
20
-5.30765
11
3.08158
21
-5.3114
0
LINE
8
BLACK
6
CONTINUOUS
10
3.08158
20
-5.3114
11
3.07408
21
-5.31515
0
LINE
8
BLACK
6
CONTINUOUS
10
3.07408
20
-5.31515
11
3.06283
21
-5.31515
0
LINE
8
BLACK
6
CONTINUOUS
10
3.11157
20
-5.26266
11
3.14157
21
-5.26266
0
LINE
8
BLACK
6
CONTINUOUS
10
3.12282
20
-5.23641
11
3.12282
21
-5.3039
0
LINE
8
BLACK
6
CONTINUOUS
10
3.12282
20
-5.3039
11
3.12657
21
-5.3114
0
LINE
8
BLACK
6
CONTINUOUS
10
3.12657
20
-5.3114
11
3.13407
21
-5.31515
0
LINE
8
BLACK
6
CONTINUOUS
10
3.13407
20
-5.31515
11
3.14157
21
-5.31515
0
LINE
8
BLACK
6
CONTINUOUS
10
3.16407
20
-5.3114
11
3.17157
21
-5.31515
0
LINE
8
BLACK
6
CONTINUOUS
10
3.17157
20
-5.31515
11
3.18656
21
-5.31515
0
LINE
8
BLACK
6
CONTINUOUS
10
3.18656
20
-5.31515
11
3.19406
21
-5.3114
0
LINE
8
BLACK
6
CONTINUOUS
10
3.19406
20
-5.3114
11
3.19781
21
-5.3039
0
LINE
8
BLACK
6
CONTINUOUS
10
3.19781
20
-5.3039
11
3.19781
21
-5.30015
0
LINE
8
BLACK
6
CONTINUOUS
10
3.19781
20
-5.30015
11
3.19406
21
-5.29265
0
LINE
8
BLACK
6
CONTINUOUS
10
3.19406
20
-5.29265
11
3.18656
21
-5.2889
0
LINE
8
BLACK
6
CONTINUOUS
10
3.18656
20
-5.2889
11
3.17532
21
-5.2889
0
LINE
8
BLACK
6
CONTINUOUS
10
3.17532
20
-5.2889
11
3.16782
21
-5.28515
0
LINE
8
BLACK
6
CONTINUOUS
10
3.16782
20
-5.28515
11
3.16407
21
-5.27766
0
LINE
8
BLACK
6
CONTINUOUS
10
3.16407
20
-5.27766
11
3.16407
21
-5.27391
0
LINE
8
BLACK
6
CONTINUOUS
10
3.16407
20
-5.27391
11
3.16782
21
-5.26641
0
LINE
8
BLACK
6
CONTINUOUS
10
3.16782
20
-5.26641
11
3.17532
21
-5.26266
0
LINE
8
BLACK
6
CONTINUOUS
10
3.17532
20
-5.26266
11
3.18656
21
-5.26266
0
LINE
8
BLACK
6
CONTINUOUS
10
3.18656
20
-5.26266
11
3.19406
21
-5.26641
0
LINE
8
BLACK
6
CONTINUOUS
10
3.22406
20
-5.34515
11
3.22781
21
-5.3414
0
LINE
8
BLACK
6
CONTINUOUS
10
3.22781
20
-5.3414
11
3.23531
21
-5.33015
0
LINE
8
BLACK
6
CONTINUOUS
10
3.23531
20
-5.33015
11
3.23906
21
-5.32265
0
LINE
8
BLACK
6
CONTINUOUS
10
3.23906
20
-5.32265
11
3.24281
21
-5.3114
0
LINE
8
BLACK
6
CONTINUOUS
10
3.24281
20
-5.3114
11
3.24656
21
-5.29265
0
LINE
8
BLACK
6
CONTINUOUS
10
3.24656
20
-5.29265
11
3.24656
21
-5.27766
0
LINE
8
BLACK
6
CONTINUOUS
10
3.24656
20
-5.27766
11
3.24281
21
-5.25891
0
LINE
8
BLACK
6
CONTINUOUS
10
3.24281
20
-5.25891
11
3.23906
21
-5.24766
0
LINE
8
BLACK
6
CONTINUOUS
10
3.23906
20
-5.24766
11
3.23531
21
-5.24016
0
LINE
8
BLACK
6
CONTINUOUS
10
3.23531
20
-5.24016
11
3.22781
21
-5.22891
0
LINE
8
BLACK
6
CONTINUOUS
10
3.22781
20
-5.22891
11
3.22406
21
-5.22516
0
LINE
8
BLACK
6
CONTINUOUS
10
0.687008
20
-5.36339
11
0.687008
21
-5.40276
0
LINE
8
BLACK
6
CONTINUOUS
10
0.667323
20
-5.38307
11
0.706693
21
-5.38307
0
LINE
8
BLACK
6
CONTINUOUS
10
0.850606
20
-5.41909
11
0.805611
21
-5.41909
0
LINE
8
BLACK
6
CONTINUOUS
10
0.828109
20
-5.41909
11
0.828109
21
-5.34035
0
LINE
8
BLACK
6
CONTINUOUS
10
0.828109
20
-5.34035
11
0.82061
21
-5.3516
0
LINE
8
BLACK
6
CONTINUOUS
10
0.82061
20
-5.3516
11
0.81311
21
-5.3591
0
LINE
8
BLACK
6
CONTINUOUS
10
0.81311
20
-5.3591
11
0.805611
21
-5.36285
0
LINE
8
BLACK
6
CONTINUOUS
10
0.884352
20
-5.41159
11
0.888101
21
-5.41534
0
LINE
8
BLACK
6
CONTINUOUS
10
0.888101
20
-5.41534
11
0.884352
21
-5.41909
0
LINE
8
BLACK
6
CONTINUOUS
10
0.884352
20
-5.41909
11
0.880602
21
-5.41534
0
LINE
8
BLACK
6
CONTINUOUS
10
0.880602
20
-5.41534
11
0.884352
21
-5.41159
0
LINE
8
BLACK
6
CONTINUOUS
10
0.884352
20
-5.41159
11
0.884352
21
-5.41909
0
LINE
8
BLACK
6
CONTINUOUS
10
0.936845
20
-5.34035
11
0.944344
21
-5.34035
0
LINE
8
BLACK
6
CONTINUOUS
10
0.944344
20
-5.34035
11
0.951843
21
-5.3441
0
LINE
8
BLACK
6
CONTINUOUS
10
0.951843
20
-5.3441
11
0.955593
21
-5.34785
0
LINE
8
BLACK
6
CONTINUOUS
10
0.955593
20
-5.34785
11
0.959342
21
-5.35535
0
LINE
8
BLACK
6
CONTINUOUS
10
0.959342
20
-5.35535
11
0.963092
21
-5.37034
0
LINE
8
BLACK
6
CONTINUOUS
10
0.963092
20
-5.37034
11
0.963092
21
-5.38909
0
LINE
8
BLACK
6
CONTINUOUS
10
0.963092
20
-5.38909
11
0.959342
21
-5.40409
0
LINE
8
BLACK
6
CONTINUOUS
10
0.959342
20
-5.40409
11
0.955593
21
-5.41159
0
LINE
8
BLACK
6
CONTINUOUS
10
0.955593
20
-5.41159
11
0.951843
21
-5.41534
0
LINE
8
BLACK
6
CONTINUOUS
10
0.951843
20
-5.41534
11
0.944344
21
-5.41909
0
LINE
8
BLACK
6
CONTINUOUS
10
0.944344
20
-5.41909
11
0.936845
21
-5.41909
0
LINE
8
BLACK
6
CONTINUOUS
10
0.936845
20
-5.41909
11
0.929346
21
-5.41534
0
LINE
8
BLACK
6
CONTINUOUS
10
0.929346
20
-5.41534
11
0.925596
21
-5.41159
0
LINE
8
BLACK
6
CONTINUOUS
10
0.925596
20
-5.41159
11
0.921847
21
-5.40409
0
LINE
8
BLACK
6
CONTINUOUS
10
0.921847
20
-5.40409
11
0.918097
21
-5.38909
0
LINE
8
BLACK
6
CONTINUOUS
10
0.918097
20
-5.38909
11
0.918097
21
-5.37034
0
LINE
8
BLACK
6
CONTINUOUS
10
0.918097
20
-5.37034
11
0.921847
21
-5.35535
0
LINE
8
BLACK
6
CONTINUOUS
10
0.921847
20
-5.35535
11
0.925596
21
-5.34785
0
LINE
8
BLACK
6
CONTINUOUS
10
0.925596
20
-5.34785
11
0.929346
21
-5.3441
0
LINE
8
BLACK
6
CONTINUOUS
10
0.929346
20
-5.3441
11
0.936845
21
-5.34035
0
LINE
8
BLACK
6
CONTINUOUS
10
1.01184
20
-5.34035
11
1.01933
21
-5.34035
0
LINE
8
BLACK
6
CONTINUOUS
10
1.01933
20
-5.34035
11
1.02683
21
-5.3441
0
LINE
8
BLACK
6
CONTINUOUS
10
1.02683
20
-5.3441
11
1.03058
21
-5.34785
0
LINE
8
BLACK
6
CONTINUOUS
10
1.03058
20
-5.34785
11
1.03433
21
-5.35535
0
LINE
8
BLACK
6
CONTINUOUS
10
1.03433
20
-5.35535
11
1.03808
21
-5.37034
0
LINE
8
BLACK
6
CONTINUOUS
10
1.03808
20
-5.37034
11
1.03808
21
-5.38909
0
LINE
8
BLACK
6
CONTINUOUS
10
1.03808
20
-5.38909
11
1.03433
21
-5.40409
0
LINE
8
BLACK
6
CONTINUOUS
10
1.03433
20
-5.40409
11
1.03058
21
-5.41159
0
LINE
8
BLACK
6
CONTINUOUS
10
1.03058
20
-5.41159
11
1.02683
21
-5.41534
0
LINE
8
BLACK
6
CONTINUOUS
10
1.02683
20
-5.41534
11
1.01933
21
-5.41909
0
LINE
8
BLACK
6
CONTINUOUS
10
1.01933
20
-5.41909
11
1.01184
21
-5.41909
0
LINE
8
BLACK
6
CONTINUOUS
10
1.01184
20
-5.41909
11
1.00434
21
-5.41534
0
LINE
8
BLACK
6
CONTINUOUS
10
1.00434
20
-5.41534
11
1.00059
21
-5.41159
0
LINE
8
BLACK
6
CONTINUOUS
10
1.00059
20
-5.41159
11
0.996838
21
-5.40409
0
LINE
8
BLACK
6
CONTINUOUS
10
0.996838
20
-5.40409
11
0.993088
21
-5.38909
0
LINE
8
BLACK
6
CONTINUOUS
10
0.993088
20
-5.38909
11
0.993088
21
-5.37034
0
LINE
8
BLACK
6
CONTINUOUS
10
0.993088
20
-5.37034
11
0.996838
21
-5.35535
0
LINE
8
BLACK
6
CONTINUOUS
10
0.996838
20
-5.35535
11
1.00059
21
-5.34785
0
LINE
8
BLACK
6
CONTINUOUS
10
1.00059
20
-5.34785
11
1.00434
21
-5.3441
0
LINE
8
BLACK
6
CONTINUOUS
10
1.00434
20
-5.3441
11
1.01184
21
-5.34035
0
LINE
8
BLACK
6
CONTINUOUS
10
1.08683
20
-5.34035
11
1.09433
21
-5.34035
0
LINE
8
BLACK
6
CONTINUOUS
10
1.09433
20
-5.34035
11
1.10182
21
-5.3441
0
LINE
8
BLACK
6
CONTINUOUS
10
1.10182
20
-5.3441
11
1.10557
21
-5.34785
0
LINE
8
BLACK
6
CONTINUOUS
10
1.10557
20
-5.34785
11
1.10932
21
-5.35535
0
LINE
8
BLACK
6
CONTINUOUS
10
1.10932
20
-5.35535
11
1.11307
21
-5.37034
0
LINE
8
BLACK
6
CONTINUOUS
10
1.11307
20
-5.37034
11
1.11307
21
-5.38909
0
LINE
8
BLACK
6
CONTINUOUS
10
1.11307
20
-5.38909
11
1.10932
21
-5.40409
0
LINE
8
BLACK
6
CONTINUOUS
10
1.10932
20
-5.40409
11
1.10557
21
-5.41159
0
LINE
8
BLACK
6
CONTINUOUS
10
1.10557
20
-5.41159
11
1.10182
21
-5.41534
0
LINE
8
BLACK
6
CONTINUOUS
10
1.10182
20
-5.41534
11
1.09433
21
-5.41909
0
LINE
8
BLACK
6
CONTINUOUS
10
1.09433
20
-5.41909
11
1.08683
21
-5.41909
0
LINE
8
BLACK
6
CONTINUOUS
10
1.08683
20
-5.41909
11
1.07933
21
-5.41534
0
LINE
8
BLACK
6
CONTINUOUS
10
1.07933
20
-5.41534
11
1.07558
21
-5.41159
0
LINE
8
BLACK
6
CONTINUOUS
10
1.07558
20
-5.41159
11
1.07183
21
-5.40409
0
LINE
8
BLACK
6
CONTINUOUS
10
1.07183
20
-5.40409
11
1.06808
21
-5.38909
0
LINE
8
BLACK
6
CONTINUOUS
10
1.06808
20
-5.38909
11
1.06808
21
-5.37034
0
LINE
8
BLACK
6
CONTINUOUS
10
1.06808
20
-5.37034
11
1.07183
21
-5.35535
0
LINE
8
BLACK
6
CONTINUOUS
10
1.07183
20
-5.35535
11
1.07558
21
-5.34785
0
LINE
8
BLACK
6
CONTINUOUS
10
1.07558
20
-5.34785
11
1.07933
21
-5.3441
0
LINE
8
BLACK
6
CONTINUOUS
10
1.07933
20
-5.3441
11
1.08683
21
-5.34035
0
LINE
8
BLACK
6
CONTINUOUS
10
1.14682
20
-5.41909
11
1.14682
21
-5.36659
0
LINE
8
BLACK
6
CONTINUOUS
10
1.14682
20
-5.37409
11
1.15057
21
-5.37034
0
LINE
8
BLACK
6
CONTINUOUS
10
1.15057
20
-5.37034
11
1.15807
21
-5.36659
0
LINE
8
BLACK
6
CONTINUOUS
10
1.15807
20
-5.36659
11
1.16932
21
-5.36659
0
LINE
8
BLACK
6
CONTINUOUS
10
1.16932
20
-5.36659
11
1.17682
21
-5.37034
0
LINE
8
BLACK
6
CONTINUOUS
10
1.17682
20
-5.37034
11
1.18056
21
-5.37784
0
LINE
8
BLACK
6
CONTINUOUS
10
1.18056
20
-5.37784
11
1.18056
21
-5.41909
0
LINE
8
BLACK
6
CONTINUOUS
10
1.18056
20
-5.37784
11
1.18431
21
-5.37034
0
LINE
8
BLACK
6
CONTINUOUS
10
1.18431
20
-5.37034
11
1.19181
21
-5.36659
0
LINE
8
BLACK
6
CONTINUOUS
10
1.19181
20
-5.36659
11
1.20306
21
-5.36659
0
LINE
8
BLACK
6
CONTINUOUS
10
1.20306
20
-5.36659
11
1.21056
21
-5.37034
0
LINE
8
BLACK
6
CONTINUOUS
10
1.21056
20
-5.37034
11
1.21431
21
-5.37784
0
LINE
8
BLACK
6
CONTINUOUS
10
1.21431
20
-5.37784
11
1.21431
21
-5.41909
0
LINE
8
BLACK
6
CONTINUOUS
10
1.25181
20
-5.41909
11
1.25181
21
-5.36659
0
LINE
8
BLACK
6
CONTINUOUS
10
1.25181
20
-5.37409
11
1.25556
21
-5.37034
0
LINE
8
BLACK
6
CONTINUOUS
10
1.25556
20
-5.37034
11
1.26305
21
-5.36659
0
LINE
8
BLACK
6
CONTINUOUS
10
1.26305
20
-5.36659
11
1.2743
21
-5.36659
0
LINE
8
BLACK
6
CONTINUOUS
10
1.2743
20
-5.36659
11
1.2818
21
-5.37034
0
LINE
8
BLACK
6
CONTINUOUS
10
1.2818
20
-5.37034
11
1.28555
21
-5.37784
0
LINE
8
BLACK
6
CONTINUOUS
10
1.28555
20
-5.37784
11
1.28555
21
-5.41909
0
LINE
8
BLACK
6
CONTINUOUS
10
1.28555
20
-5.37784
11
1.2893
21
-5.37034
0
LINE
8
BLACK
6
CONTINUOUS
10
1.2893
20
-5.37034
11
1.2968
21
-5.36659
0
LINE
8
BLACK
6
CONTINUOUS
10
1.2968
20
-5.36659
11
1.30805
21
-5.36659
0
LINE
8
BLACK
6
CONTINUOUS
10
1.30805
20
-5.36659
11
1.31555
21
-5.37034
0
LINE
8
BLACK
6
CONTINUOUS
10
1.31555
20
-5.37034
11
1.3193
21
-5.37784
0
LINE
8
BLACK
6
CONTINUOUS
10
1.3193
20
-5.37784
11
1.3193
21
-5.41909
0
LINE
8
BLACK
6
CONTINUOUS
10
1.47303
20
-5.3366
11
1.40554
21
-5.43784
0
LINE
8
BLACK
6
CONTINUOUS
10
1.57427
20
-5.34035
11
1.58176
21
-5.34035
0
LINE
8
BLACK
6
CONTINUOUS
10
1.58176
20
-5.34035
11
1.58926
21
-5.3441
0
LINE
8
BLACK
6
CONTINUOUS
10
1.58926
20
-5.3441
11
1.59301
21
-5.34785
0
LINE
8
BLACK
6
CONTINUOUS
10
1.59301
20
-5.34785
11
1.59676
21
-5.35535
0
LINE
8
BLACK
6
CONTINUOUS
10
1.59676
20
-5.35535
11
1.60051
21
-5.37034
0
LINE
8
BLACK
6
CONTINUOUS
10
1.60051
20
-5.37034
11
1.60051
21
-5.38909
0
LINE
8
BLACK
6
CONTINUOUS
10
1.60051
20
-5.38909
11
1.59676
21
-5.40409
0
LINE
8
BLACK
6
CONTINUOUS
10
1.59676
20
-5.40409
11
1.59301
21
-5.41159
0
LINE
8
BLACK
6
CONTINUOUS
10
1.59301
20
-5.41159
11
1.58926
21
-5.41534
0
LINE
8
BLACK
6
CONTINUOUS
10
1.58926
20
-5.41534
11
1.58176
21
-5.41909
0
LINE
8
BLACK
6
CONTINUOUS
10
1.58176
20
-5.41909
11
1.57427
21
-5.41909
0
LINE
8
BLACK
6
CONTINUOUS
10
1.57427
20
-5.41909
11
1.56677
21
-5.41534
0
LINE
8
BLACK
6
CONTINUOUS
10
1.56677
20
-5.41534
11
1.56302
21
-5.41159
0
LINE
8
BLACK
6
CONTINUOUS
10
1.56302
20
-5.41159
11
1.55927
21
-5.40409
0
LINE
8
BLACK
6
CONTINUOUS
10
1.55927
20
-5.40409
11
1.55552
21
-5.38909
0
LINE
8
BLACK
6
CONTINUOUS
10
1.55552
20
-5.38909
11
1.55552
21
-5.37034
0
LINE
8
BLACK
6
CONTINUOUS
10
1.55552
20
-5.37034
11
1.55927
21
-5.35535
0
LINE
8
BLACK
6
CONTINUOUS
10
1.55927
20
-5.35535
11
1.56302
21
-5.34785
0
LINE
8
BLACK
6
CONTINUOUS
10
1.56302
20
-5.34785
11
1.56677
21
-5.3441
0
LINE
8
BLACK
6
CONTINUOUS
10
1.56677
20
-5.3441
11
1.57427
21
-5.34035
0
LINE
8
BLACK
6
CONTINUOUS
10
1.63426
20
-5.41159
11
1.63801
21
-5.41534
0
LINE
8
BLACK
6
CONTINUOUS
10
1.63801
20
-5.41534
11
1.63426
21
-5.41909
0
LINE
8
BLACK
6
CONTINUOUS
10
1.63426
20
-5.41909
11
1.63051
21
-5.41534
0
LINE
8
BLACK
6
CONTINUOUS
10
1.63051
20
-5.41534
11
1.63426
21
-5.41159
0
LINE
8
BLACK
6
CONTINUOUS
10
1.63426
20
-5.41159
11
1.63426
21
-5.41909
0
LINE
8
BLACK
6
CONTINUOUS
10
1.68675
20
-5.34035
11
1.69425
21
-5.34035
0
LINE
8
BLACK
6
CONTINUOUS
10
1.69425
20
-5.34035
11
1.70175
21
-5.3441
0
LINE
8
BLACK
6
CONTINUOUS
10
1.70175
20
-5.3441
11
1.7055
21
-5.34785
0
LINE
8
BLACK
6
CONTINUOUS
10
1.7055
20
-5.34785
11
1.70925
21
-5.35535
0
LINE
8
BLACK
6
CONTINUOUS
10
1.70925
20
-5.35535
11
1.713
21
-5.37034
0
LINE
8
BLACK
6
CONTINUOUS
10
1.713
20
-5.37034
11
1.713
21
-5.38909
0
LINE
8
BLACK
6
CONTINUOUS
10
1.713
20
-5.38909
11
1.70925
21
-5.40409
0
LINE
8
BLACK
6
CONTINUOUS
10
1.70925
20
-5.40409
11
1.7055
21
-5.41159
0
LINE
8
BLACK
6
CONTINUOUS
10
1.7055
20
-5.41159
11
1.70175
21
-5.41534
0
LINE
8
BLACK
6
CONTINUOUS
10
1.70175
20
-5.41534
11
1.69425
21
-5.41909
0
LINE
8
BLACK
6
CONTINUOUS
10
1.69425
20
-5.41909
11
1.68675
21
-5.41909
0
LINE
8
BLACK
6
CONTINUOUS
10
1.68675
20
-5.41909
11
1.67925
21
-5.41534
0
LINE
8
BLACK
6
CONTINUOUS
10
1.67925
20
-5.41534
11
1.6755
21
-5.41159
0
LINE
8
BLACK
6
CONTINUOUS
10
1.6755
20
-5.41159
11
1.67175
21
-5.40409
0
LINE
8
BLACK
6
CONTINUOUS
10
1.67175
20
-5.40409
11
1.668
21
-5.38909
0
LINE
8
BLACK
6
CONTINUOUS
10
1.668
20
-5.38909
11
1.668
21
-5.37034
0
LINE
8
BLACK
6
CONTINUOUS
10
1.668
20
-5.37034
11
1.67175
21
-5.35535
0
LINE
8
BLACK
6
CONTINUOUS
10
1.67175
20
-5.35535
11
1.6755
21
-5.34785
0
LINE
8
BLACK
6
CONTINUOUS
10
1.6755
20
-5.34785
11
1.67925
21
-5.3441
0
LINE
8
BLACK
6
CONTINUOUS
10
1.67925
20
-5.3441
11
1.68675
21
-5.34035
0
LINE
8
BLACK
6
CONTINUOUS
10
1.73924
20
-5.34035
11
1.78799
21
-5.34035
0
LINE
8
BLACK
6
CONTINUOUS
10
1.78799
20
-5.34035
11
1.76174
21
-5.37034
0
LINE
8
BLACK
6
CONTINUOUS
10
1.76174
20
-5.37034
11
1.77299
21
-5.37034
0
LINE
8
BLACK
6
CONTINUOUS
10
1.77299
20
-5.37034
11
1.78049
21
-5.37409
0
LINE
8
BLACK
6
CONTINUOUS
10
1.78049
20
-5.37409
11
1.78424
21
-5.37784
0
LINE
8
BLACK
6
CONTINUOUS
10
1.78424
20
-5.37784
11
1.78799
21
-5.38534
0
LINE
8
BLACK
6
CONTINUOUS
10
1.78799
20
-5.38534
11
1.78799
21
-5.40409
0
LINE
8
BLACK
6
CONTINUOUS
10
1.78799
20
-5.40409
11
1.78424
21
-5.41159
0
LINE
8
BLACK
6
CONTINUOUS
10
1.78424
20
-5.41159
11
1.78049
21
-5.41534
0
LINE
8
BLACK
6
CONTINUOUS
10
1.78049
20
-5.41534
11
1.77299
21
-5.41909
0
LINE
8
BLACK
6
CONTINUOUS
10
1.77299
20
-5.41909
11
1.75049
21
-5.41909
0
LINE
8
BLACK
6
CONTINUOUS
10
1.75049
20
-5.41909
11
1.74299
21
-5.41534
0
LINE
8
BLACK
6
CONTINUOUS
10
1.74299
20
-5.41534
11
1.73924
21
-5.41159
0
LINE
8
BLACK
6
CONTINUOUS
10
1.82548
20
-5.41909
11
1.84048
21
-5.41909
0
LINE
8
BLACK
6
CONTINUOUS
10
1.84048
20
-5.41909
11
1.84798
21
-5.41534
0
LINE
8
BLACK
6
CONTINUOUS
10
1.84798
20
-5.41534
11
1.85173
21
-5.41159
0
LINE
8
BLACK
6
CONTINUOUS
10
1.85173
20
-5.41159
11
1.85923
21
-5.40034
0
LINE
8
BLACK
6
CONTINUOUS
10
1.85923
20
-5.40034
11
1.86298
21
-5.38534
0
LINE
8
BLACK
6
CONTINUOUS
10
1.86298
20
-5.38534
11
1.86298
21
-5.35535
0
LINE
8
BLACK
6
CONTINUOUS
10
1.86298
20
-5.35535
11
1.85923
21
-5.34785
0
LINE
8
BLACK
6
CONTINUOUS
10
1.85923
20
-5.34785
11
1.85548
21
-5.3441
0
LINE
8
BLACK
6
CONTINUOUS
10
1.85548
20
-5.3441
11
1.84798
21
-5.34035
0
LINE
8
BLACK
6
CONTINUOUS
10
1.84798
20
-5.34035
11
1.83298
21
-5.34035
0
LINE
8
BLACK
6
CONTINUOUS
10
1.83298
20
-5.34035
11
1.82548
21
-5.3441
0
LINE
8
BLACK
6
CONTINUOUS
10
1.82548
20
-5.3441
11
1.82173
21
-5.34785
0
LINE
8
BLACK
6
CONTINUOUS
10
1.82173
20
-5.34785
11
1.81798
21
-5.35535
0
LINE
8
BLACK
6
CONTINUOUS
10
1.81798
20
-5.35535
11
1.81798
21
-5.37409
0
LINE
8
BLACK
6
CONTINUOUS
10
1.81798
20
-5.37409
11
1.82173
21
-5.38159
0
LINE
8
BLACK
6
CONTINUOUS
10
1.82173
20
-5.38159
11
1.82548
21
-5.38534
0
LINE
8
BLACK
6
CONTINUOUS
10
1.82548
20
-5.38534
11
1.83298
21
-5.38909
0
LINE
8
BLACK
6
CONTINUOUS
10
1.83298
20
-5.38909
11
1.84798
21
-5.38909
0
LINE
8
BLACK
6
CONTINUOUS
10
1.84798
20
-5.38909
11
1.85548
21
-5.38534
0
LINE
8
BLACK
6
CONTINUOUS
10
1.85548
20
-5.38534
11
1.85923
21
-5.38159
0
LINE
8
BLACK
6
CONTINUOUS
10
1.85923
20
-5.38159
11
1.86298
21
-5.37409
0
LINE
8
BLACK
6
CONTINUOUS
10
1.93047
20
-5.36659
11
1.93047
21
-5.41909
0
LINE
8
BLACK
6
CONTINUOUS
10
1.91172
20
-5.3366
11
1.89298
21
-5.39284
0
LINE
8
BLACK
6
CONTINUOUS
10
1.89298
20
-5.39284
11
1.94172
21
-5.39284
0
LINE
8
BLACK
6
CONTINUOUS
10
1.96797
20
-5.34035
11
1.96797
21
-5.35535
0
LINE
8
BLACK
6
CONTINUOUS
10
1.99796
20
-5.34035
11
1.99796
21
-5.35535
0
LINE
8
BLACK
6
CONTINUOUS
10
2.1142
20
-5.44908
11
2.11045
21
-5.44533
0
LINE
8
BLACK
6
CONTINUOUS
10
2.11045
20
-5.44533
11
2.10295
21
-5.43409
0
LINE
8
BLACK
6
CONTINUOUS
10
2.10295
20
-5.43409
11
2.0992
21
-5.42659
0
LINE
8
BLACK
6
CONTINUOUS
10
2.0992
20
-5.42659
11
2.09545
21
-5.41534
0
LINE
8
BLACK
6
CONTINUOUS
10
2.09545
20
-5.41534
11
2.0917
21
-5.39659
0
LINE
8
BLACK
6
CONTINUOUS
10
2.0917
20
-5.39659
11
2.0917
21
-5.38159
0
LINE
8
BLACK
6
CONTINUOUS
10
2.0917
20
-5.38159
11
2.09545
21
-5.36285
0
LINE
8
BLACK
6
CONTINUOUS
10
2.09545
20
-5.36285
11
2.0992
21
-5.3516
0
LINE
8
BLACK
6
CONTINUOUS
10
2.0992
20
-5.3516
11
2.10295
21
-5.3441
0
LINE
8
BLACK
6
CONTINUOUS
10
2.10295
20
-5.3441
11
2.11045
21
-5.33285
0
LINE
8
BLACK
6
CONTINUOUS
10
2.11045
20
-5.33285
11
2.1142
21
-5.3291
0
LINE
8
BLACK
6
CONTINUOUS
10
2.17794
20
-5.36659
11
2.17794
21
-5.41909
0
LINE
8
BLACK
6
CONTINUOUS
10
2.15919
20
-5.3366
11
2.14044
21
-5.39284
0
LINE
8
BLACK
6
CONTINUOUS
10
2.14044
20
-5.39284
11
2.18919
21
-5.39284
0
LINE
8
BLACK
6
CONTINUOUS
10
2.27918
20
-5.41909
11
2.27918
21
-5.34035
0
LINE
8
BLACK
6
CONTINUOUS
10
2.31292
20
-5.41909
11
2.31292
21
-5.37784
0
LINE
8
BLACK
6
CONTINUOUS
10
2.31292
20
-5.37784
11
2.30917
21
-5.37034
0
LINE
8
BLACK
6
CONTINUOUS
10
2.30917
20
-5.37034
11
2.30167
21
-5.36659
0
LINE
8
BLACK
6
CONTINUOUS
10
2.30167
20
-5.36659
11
2.29043
21
-5.36659
0
LINE
8
BLACK
6
CONTINUOUS
10
2.29043
20
-5.36659
11
2.28293
21
-5.37034
0
LINE
8
BLACK
6
CONTINUOUS
10
2.28293
20
-5.37034
11
2.27918
21
-5.37409
0
LINE
8
BLACK
6
CONTINUOUS
10
2.36167
20
-5.41909
11
2.35417
21
-5.41534
0
LINE
8
BLACK
6
CONTINUOUS
10
2.35417
20
-5.41534
11
2.35042
21
-5.41159
0
LINE
8
BLACK
6
CONTINUOUS
10
2.35042
20
-5.41159
11
2.34667
21
-5.40409
0
LINE
8
BLACK
6
CONTINUOUS
10
2.34667
20
-5.40409
11
2.34667
21
-5.38159
0
LINE
8
BLACK
6
CONTINUOUS
10
2.34667
20
-5.38159
11
2.35042
21
-5.37409
0
LINE
8
BLACK
6
CONTINUOUS
10
2.35042
20
-5.37409
11
2.35417
21
-5.37034
0
LINE
8
BLACK
6
CONTINUOUS
10
2.35417
20
-5.37034
11
2.36167
21
-5.36659
0
LINE
8
BLACK
6
CONTINUOUS
10
2.36167
20
-5.36659
11
2.37292
21
-5.36659
0
LINE
8
BLACK
6
CONTINUOUS
10
2.37292
20
-5.36659
11
2.38041
21
-5.37034
0
LINE
8
BLACK
6
CONTINUOUS
10
2.38041
20
-5.37034
11
2.38416
21
-5.37409
0
LINE
8
BLACK
6
CONTINUOUS
10
2.38416
20
-5.37409
11
2.38791
21
-5.38159
0
LINE
8
BLACK
6
CONTINUOUS
10
2.38791
20
-5.38159
11
2.38791
21
-5.40409
0
LINE
8
BLACK
6
CONTINUOUS
10
2.38791
20
-5.40409
11
2.38416
21
-5.41159
0
LINE
8
BLACK
6
CONTINUOUS
10
2.38416
20
-5.41159
11
2.38041
21
-5.41534
0
LINE
8
BLACK
6
CONTINUOUS
10
2.38041
20
-5.41534
11
2.37292
21
-5.41909
0
LINE
8
BLACK
6
CONTINUOUS
10
2.37292
20
-5.41909
11
2.36167
21
-5.41909
0
LINE
8
BLACK
6
CONTINUOUS
10
2.43291
20
-5.41909
11
2.42541
21
-5.41534
0
LINE
8
BLACK
6
CONTINUOUS
10
2.42541
20
-5.41534
11
2.42166
21
-5.40784
0
LINE
8
BLACK
6
CONTINUOUS
10
2.42166
20
-5.40784
11
2.42166
21
-5.34035
0
LINE
8
BLACK
6
CONTINUOUS
10
2.4929
20
-5.41534
11
2.4854
21
-5.41909
0
LINE
8
BLACK
6
CONTINUOUS
10
2.4854
20
-5.41909
11
2.4704
21
-5.41909
0
LINE
8
BLACK
6
CONTINUOUS
10
2.4704
20
-5.41909
11
2.4629
21
-5.41534
0
LINE
8
BLACK
6
CONTINUOUS
10
2.4629
20
-5.41534
11
2.45915
21
-5.40784
0
LINE
8
BLACK
6
CONTINUOUS
10
2.45915
20
-5.40784
11
2.45915
21
-5.37784
0
LINE
8
BLACK
6
CONTINUOUS
10
2.45915
20
-5.37784
11
2.4629
21
-5.37034
0
LINE
8
BLACK
6
CONTINUOUS
10
2.4629
20
-5.37034
11
2.4704
21
-5.36659
0
LINE
8
BLACK
6
CONTINUOUS
10
2.4704
20
-5.36659
11
2.4854
21
-5.36659
0
LINE
8
BLACK
6
CONTINUOUS
10
2.4854
20
-5.36659
11
2.4929
21
-5.37034
0
LINE
8
BLACK
6
CONTINUOUS
10
2.4929
20
-5.37034
11
2.49665
21
-5.37784
0
LINE
8
BLACK
6
CONTINUOUS
10
2.49665
20
-5.37784
11
2.49665
21
-5.38534
0
LINE
8
BLACK
6
CONTINUOUS
10
2.49665
20
-5.38534
11
2.45915
21
-5.39284
0
LINE
8
BLACK
6
CONTINUOUS
10
2.52665
20
-5.41534
11
2.53415
21
-5.41909
0
LINE
8
BLACK
6
CONTINUOUS
10
2.53415
20
-5.41909
11
2.54914
21
-5.41909
0
LINE
8
BLACK
6
CONTINUOUS
10
2.54914
20
-5.41909
11
2.55664
21
-5.41534
0
LINE
8
BLACK
6
CONTINUOUS
10
2.55664
20
-5.41534
11
2.56039
21
-5.40784
0
LINE
8
BLACK
6
CONTINUOUS
10
2.56039
20
-5.40784
11
2.56039
21
-5.40409
0
LINE
8
BLACK
6
CONTINUOUS
10
2.56039
20
-5.40409
11
2.55664
21
-5.39659
0
LINE
8
BLACK
6
CONTINUOUS
10
2.55664
20
-5.39659
11
2.54914
21
-5.39284
0
LINE
8
BLACK
6
CONTINUOUS
10
2.54914
20
-5.39284
11
2.5379
21
-5.39284
0
LINE
8
BLACK
6
CONTINUOUS
10
2.5379
20
-5.39284
11
2.5304
21
-5.38909
0
LINE
8
BLACK
6
CONTINUOUS
10
2.5304
20
-5.38909
11
2.52665
21
-5.38159
0
LINE
8
BLACK
6
CONTINUOUS
10
2.52665
20
-5.38159
11
2.52665
21
-5.37784
0
LINE
8
BLACK
6
CONTINUOUS
10
2.52665
20
-5.37784
11
2.5304
21
-5.37034
0
LINE
8
BLACK
6
CONTINUOUS
10
2.5304
20
-5.37034
11
2.5379
21
-5.36659
0
LINE
8
BLACK
6
CONTINUOUS
10
2.5379
20
-5.36659
11
2.54914
21
-5.36659
0
LINE
8
BLACK
6
CONTINUOUS
10
2.54914
20
-5.36659
11
2.55664
21
-5.37034
0
LINE
8
BLACK
6
CONTINUOUS
10
2.58664
20
-5.44908
11
2.59039
21
-5.44533
0
LINE
8
BLACK
6
CONTINUOUS
10
2.59039
20
-5.44533
11
2.59789
21
-5.43409
0
LINE
8
BLACK
6
CONTINUOUS
10
2.59789
20
-5.43409
11
2.60164
21
-5.42659
0
LINE
8
BLACK
6
CONTINUOUS
10
2.60164
20
-5.42659
11
2.60539
21
-5.41534
0
LINE
8
BLACK
6
CONTINUOUS
10
2.60539
20
-5.41534
11
2.60914
21
-5.39659
0
LINE
8
BLACK
6
CONTINUOUS
10
2.60914
20
-5.39659
11
2.60914
21
-5.38159
0
LINE
8
BLACK
6
CONTINUOUS
10
2.60914
20
-5.38159
11
2.60539
21
-5.36285
0
LINE
8
BLACK
6
CONTINUOUS
10
2.60539
20
-5.36285
11
2.60164
21
-5.3516
0
LINE
8
BLACK
6
CONTINUOUS
10
2.60164
20
-5.3516
11
2.59789
21
-5.3441
0
LINE
8
BLACK
6
CONTINUOUS
10
2.59789
20
-5.3441
11
2.59039
21
-5.33285
0
LINE
8
BLACK
6
CONTINUOUS
10
2.59039
20
-5.33285
11
2.58664
21
-5.3291
0
LINE
8
BLACK
6
CONTINUOUS
10
0.698045
20
-5.50789
11
0.698045
21
-5.46613
0
LINE
8
BLACK
6
CONTINUOUS
10
0.698045
20
-5.46613
11
0.656286
21
-5.46613
0
LINE
8
BLACK
6
CONTINUOUS
10
0.656286
20
-5.46613
11
0.656286
21
-5.50789
0
LINE
8
BLACK
6
CONTINUOUS
10
0.656286
20
-5.50789
11
0.698045
21
-5.50789
0
LINE
8
BLACK
6
CONTINUOUS
10
0.850606
20
-5.52303
11
0.805611
21
-5.52303
0
LINE
8
BLACK
6
CONTINUOUS
10
0.828109
20
-5.52303
11
0.828109
21
-5.44428
0
LINE
8
BLACK
6
CONTINUOUS
10
0.828109
20
-5.44428
11
0.82061
21
-5.45553
0
LINE
8
BLACK
6
CONTINUOUS
10
0.82061
20
-5.45553
11
0.81311
21
-5.46303
0
LINE
8
BLACK
6
CONTINUOUS
10
0.81311
20
-5.46303
11
0.805611
21
-5.46678
0
LINE
8
BLACK
6
CONTINUOUS
10
0.884352
20
-5.51553
11
0.888101
21
-5.51928
0
LINE
8
BLACK
6
CONTINUOUS
10
0.888101
20
-5.51928
11
0.884352
21
-5.52303
0
LINE
8
BLACK
6
CONTINUOUS
10
0.884352
20
-5.52303
11
0.880602
21
-5.51928
0
LINE
8
BLACK
6
CONTINUOUS
10
0.880602
20
-5.51928
11
0.884352
21
-5.51553
0
LINE
8
BLACK
6
CONTINUOUS
10
0.884352
20
-5.51553
11
0.884352
21
-5.52303
0
LINE
8
BLACK
6
CONTINUOUS
10
0.959342
20
-5.44428
11
0.921847
21
-5.44428
0
LINE
8
BLACK
6
CONTINUOUS
10
0.921847
20
-5.44428
11
0.918097
21
-5.48178
0
LINE
8
BLACK
6
CONTINUOUS
10
0.918097
20
-5.48178
11
0.921847
21
-5.47803
0
LINE
8
BLACK
6
CONTINUOUS
10
0.921847
20
-5.47803
11
0.929346
21
-5.47428
0
LINE
8
BLACK
6
CONTINUOUS
10
0.929346
20
-5.47428
11
0.948094
21
-5.47428
0
LINE
8
BLACK
6
CONTINUOUS
10
0.948094
20
-5.47428
11
0.955593
21
-5.47803
0
LINE
8
BLACK
6
CONTINUOUS
10
0.955593
20
-5.47803
11
0.959342
21
-5.48178
0
LINE
8
BLACK
6
CONTINUOUS
10
0.959342
20
-5.48178
11
0.963092
21
-5.48928
0
LINE
8
BLACK
6
CONTINUOUS
10
0.963092
20
-5.48928
11
0.963092
21
-5.50803
0
LINE
8
BLACK
6
CONTINUOUS
10
0.963092
20
-5.50803
11
0.959342
21
-5.51553
0
LINE
8
BLACK
6
CONTINUOUS
10
0.959342
20
-5.51553
11
0.955593
21
-5.51928
0
LINE
8
BLACK
6
CONTINUOUS
10
0.955593
20
-5.51928
11
0.948094
21
-5.52303
0
LINE
8
BLACK
6
CONTINUOUS
10
0.948094
20
-5.52303
11
0.929346
21
-5.52303
0
LINE
8
BLACK
6
CONTINUOUS
10
0.929346
20
-5.52303
11
0.921847
21
-5.51928
0
LINE
8
BLACK
6
CONTINUOUS
10
0.921847
20
-5.51928
11
0.918097
21
-5.51553
0
LINE
8
BLACK
6
CONTINUOUS
10
1.01184
20
-5.44428
11
1.01933
21
-5.44428
0
LINE
8
BLACK
6
CONTINUOUS
10
1.01933
20
-5.44428
11
1.02683
21
-5.44803
0
LINE
8
BLACK
6
CONTINUOUS
10
1.02683
20
-5.44803
11
1.03058
21
-5.45178
0
LINE
8
BLACK
6
CONTINUOUS
10
1.03058
20
-5.45178
11
1.03433
21
-5.45928
0
LINE
8
BLACK
6
CONTINUOUS
10
1.03433
20
-5.45928
11
1.03808
21
-5.47428
0
LINE
8
BLACK
6
CONTINUOUS
10
1.03808
20
-5.47428
11
1.03808
21
-5.49303
0
LINE
8
BLACK
6
CONTINUOUS
10
1.03808
20
-5.49303
11
1.03433
21
-5.50803
0
LINE
8
BLACK
6
CONTINUOUS
10
1.03433
20
-5.50803
11
1.03058
21
-5.51553
0
LINE
8
BLACK
6
CONTINUOUS
10
1.03058
20
-5.51553
11
1.02683
21
-5.51928
0
LINE
8
BLACK
6
CONTINUOUS
10
1.02683
20
-5.51928
11
1.01933
21
-5.52303
0
LINE
8
BLACK
6
CONTINUOUS
10
1.01933
20
-5.52303
11
1.01184
21
-5.52303
0
LINE
8
BLACK
6
CONTINUOUS
10
1.01184
20
-5.52303
11
1.00434
21
-5.51928
0
LINE
8
BLACK
6
CONTINUOUS
10
1.00434
20
-5.51928
11
1.00059
21
-5.51553
0
LINE
8
BLACK
6
CONTINUOUS
10
1.00059
20
-5.51553
11
0.996838
21
-5.50803
0
LINE
8
BLACK
6
CONTINUOUS
10
0.996838
20
-5.50803
11
0.993088
21
-5.49303
0
LINE
8
BLACK
6
CONTINUOUS
10
0.993088
20
-5.49303
11
0.993088
21
-5.47428
0
LINE
8
BLACK
6
CONTINUOUS
10
0.993088
20
-5.47428
11
0.996838
21
-5.45928
0
LINE
8
BLACK
6
CONTINUOUS
10
0.996838
20
-5.45928
11
1.00059
21
-5.45178
0
LINE
8
BLACK
6
CONTINUOUS
10
1.00059
20
-5.45178
11
1.00434
21
-5.44803
0
LINE
8
BLACK
6
CONTINUOUS
10
1.00434
20
-5.44803
11
1.01184
21
-5.44428
0
LINE
8
BLACK
6
CONTINUOUS
10
1.08683
20
-5.44428
11
1.09433
21
-5.44428
0
LINE
8
BLACK
6
CONTINUOUS
10
1.09433
20
-5.44428
11
1.10182
21
-5.44803
0
LINE
8
BLACK
6
CONTINUOUS
10
1.10182
20
-5.44803
11
1.10557
21
-5.45178
0
LINE
8
BLACK
6
CONTINUOUS
10
1.10557
20
-5.45178
11
1.10932
21
-5.45928
0
LINE
8
BLACK
6
CONTINUOUS
10
1.10932
20
-5.45928
11
1.11307
21
-5.47428
0
LINE
8
BLACK
6
CONTINUOUS
10
1.11307
20
-5.47428
11
1.11307
21
-5.49303
0
LINE
8
BLACK
6
CONTINUOUS
10
1.11307
20
-5.49303
11
1.10932
21
-5.50803
0
LINE
8
BLACK
6
CONTINUOUS
10
1.10932
20
-5.50803
11
1.10557
21
-5.51553
0
LINE
8
BLACK
6
CONTINUOUS
10
1.10557
20
-5.51553
11
1.10182
21
-5.51928
0
LINE
8
BLACK
6
CONTINUOUS
10
1.10182
20
-5.51928
11
1.09433
21
-5.52303
0
LINE
8
BLACK
6
CONTINUOUS
10
1.09433
20
-5.52303
11
1.08683
21
-5.52303
0
LINE
8
BLACK
6
CONTINUOUS
10
1.08683
20
-5.52303
11
1.07933
21
-5.51928
0
LINE
8
BLACK
6
CONTINUOUS
10
1.07933
20
-5.51928
11
1.07558
21
-5.51553
0
LINE
8
BLACK
6
CONTINUOUS
10
1.07558
20
-5.51553
11
1.07183
21
-5.50803
0
LINE
8
BLACK
6
CONTINUOUS
10
1.07183
20
-5.50803
11
1.06808
21
-5.49303
0
LINE
8
BLACK
6
CONTINUOUS
10
1.06808
20
-5.49303
11
1.06808
21
-5.47428
0
LINE
8
BLACK
6
CONTINUOUS
10
1.06808
20
-5.47428
11
1.07183
21
-5.45928
0
LINE
8
BLACK
6
CONTINUOUS
10
1.07183
20
-5.45928
11
1.07558
21
-5.45178
0
LINE
8
BLACK
6
CONTINUOUS
10
1.07558
20
-5.45178
11
1.07933
21
-5.44803
0
LINE
8
BLACK
6
CONTINUOUS
10
1.07933
20
-5.44803
11
1.08683
21
-5.44428
0
LINE
8
BLACK
6
CONTINUOUS
10
1.14682
20
-5.52303
11
1.14682
21
-5.47053
0
LINE
8
BLACK
6
CONTINUOUS
10
1.14682
20
-5.47803
11
1.15057
21
-5.47428
0
LINE
8
BLACK
6
CONTINUOUS
10
1.15057
20
-5.47428
11
1.15807
21
-5.47053
0
LINE
8
BLACK
6
CONTINUOUS
10
1.15807
20
-5.47053
11
1.16932
21
-5.47053
0
LINE
8
BLACK
6
CONTINUOUS
10
1.16932
20
-5.47053
11
1.17682
21
-5.47428
0
LINE
8
BLACK
6
CONTINUOUS
10
1.17682
20
-5.47428
11
1.18056
21
-5.48178
0
LINE
8
BLACK
6
CONTINUOUS
10
1.18056
20
-5.48178
11
1.18056
21
-5.52303
0
LINE
8
BLACK
6
CONTINUOUS
10
1.18056
20
-5.48178
11
1.18431
21
-5.47428
0
LINE
8
BLACK
6
CONTINUOUS
10
1.18431
20
-5.47428
11
1.19181
21
-5.47053
0
LINE
8
BLACK
6
CONTINUOUS
10
1.19181
20
-5.47053
11
1.20306
21
-5.47053
0
LINE
8
BLACK
6
CONTINUOUS
10
1.20306
20
-5.47053
11
1.21056
21
-5.47428
0
LINE
8
BLACK
6
CONTINUOUS
10
1.21056
20
-5.47428
11
1.21431
21
-5.48178
0
LINE
8
BLACK
6
CONTINUOUS
10
1.21431
20
-5.48178
11
1.21431
21
-5.52303
0
LINE
8
BLACK
6
CONTINUOUS
10
1.25181
20
-5.52303
11
1.25181
21
-5.47053
0
LINE
8
BLACK
6
CONTINUOUS
10
1.25181
20
-5.47803
11
1.25556
21
-5.47428
0
LINE
8
BLACK
6
CONTINUOUS
10
1.25556
20
-5.47428
11
1.26305
21
-5.47053
0
LINE
8
BLACK
6
CONTINUOUS
10
1.26305
20
-5.47053
11
1.2743
21
-5.47053
0
LINE
8
BLACK
6
CONTINUOUS
10
1.2743
20
-5.47053
11
1.2818
21
-5.47428
0
LINE
8
BLACK
6
CONTINUOUS
10
1.2818
20
-5.47428
11
1.28555
21
-5.48178
0
LINE
8
BLACK
6
CONTINUOUS
10
1.28555
20
-5.48178
11
1.28555
21
-5.52303
0
LINE
8
BLACK
6
CONTINUOUS
10
1.28555
20
-5.48178
11
1.2893
21
-5.47428
0
LINE
8
BLACK
6
CONTINUOUS
10
1.2893
20
-5.47428
11
1.2968
21
-5.47053
0
LINE
8
BLACK
6
CONTINUOUS
10
1.2968
20
-5.47053
11
1.30805
21
-5.47053
0
LINE
8
BLACK
6
CONTINUOUS
10
1.30805
20
-5.47053
11
1.31555
21
-5.47428
0
LINE
8
BLACK
6
CONTINUOUS
10
1.31555
20
-5.47428
11
1.3193
21
-5.48178
0
LINE
8
BLACK
6
CONTINUOUS
10
1.3193
20
-5.48178
11
1.3193
21
-5.52303
0
LINE
8
BLACK
6
CONTINUOUS
10
1.47303
20
-5.44054
11
1.40554
21
-5.54177
0
LINE
8
BLACK
6
CONTINUOUS
10
1.57427
20
-5.44428
11
1.58176
21
-5.44428
0
LINE
8
BLACK
6
CONTINUOUS
10
1.58176
20
-5.44428
11
1.58926
21
-5.44803
0
LINE
8
BLACK
6
CONTINUOUS
10
1.58926
20
-5.44803
11
1.59301
21
-5.45178
0
LINE
8
BLACK
6
CONTINUOUS
10
1.59301
20
-5.45178
11
1.59676
21
-5.45928
0
LINE
8
BLACK
6
CONTINUOUS
10
1.59676
20
-5.45928
11
1.60051
21
-5.47428
0
LINE
8
BLACK
6
CONTINUOUS
10
1.60051
20
-5.47428
11
1.60051
21
-5.49303
0
LINE
8
BLACK
6
CONTINUOUS
10
1.60051
20
-5.49303
11
1.59676
21
-5.50803
0
LINE
8
BLACK
6
CONTINUOUS
10
1.59676
20
-5.50803
11
1.59301
21
-5.51553
0
LINE
8
BLACK
6
CONTINUOUS
10
1.59301
20
-5.51553
11
1.58926
21
-5.51928
0
LINE
8
BLACK
6
CONTINUOUS
10
1.58926
20
-5.51928
11
1.58176
21
-5.52303
0
LINE
8
BLACK
6
CONTINUOUS
10
1.58176
20
-5.52303
11
1.57427
21
-5.52303
0
LINE
8
BLACK
6
CONTINUOUS
10
1.57427
20
-5.52303
11
1.56677
21
-5.51928
0
LINE
8
BLACK
6
CONTINUOUS
10
1.56677
20
-5.51928
11
1.56302
21
-5.51553
0
LINE
8
BLACK
6
CONTINUOUS
10
1.56302
20
-5.51553
11
1.55927
21
-5.50803
0
LINE
8
BLACK
6
CONTINUOUS
10
1.55927
20
-5.50803
11
1.55552
21
-5.49303
0
LINE
8
BLACK
6
CONTINUOUS
10
1.55552
20
-5.49303
11
1.55552
21
-5.47428
0
LINE
8
BLACK
6
CONTINUOUS
10
1.55552
20
-5.47428
11
1.55927
21
-5.45928
0
LINE
8
BLACK
6
CONTINUOUS
10
1.55927
20
-5.45928
11
1.56302
21
-5.45178
0
LINE
8
BLACK
6
CONTINUOUS
10
1.56302
20
-5.45178
11
1.56677
21
-5.44803
0
LINE
8
BLACK
6
CONTINUOUS
10
1.56677
20
-5.44803
11
1.57427
21
-5.44428
0
LINE
8
BLACK
6
CONTINUOUS
10
1.63426
20
-5.51553
11
1.63801
21
-5.51928
0
LINE
8
BLACK
6
CONTINUOUS
10
1.63801
20
-5.51928
11
1.63426
21
-5.52303
0
LINE
8
BLACK
6
CONTINUOUS
10
1.63426
20
-5.52303
11
1.63051
21
-5.51928
0
LINE
8
BLACK
6
CONTINUOUS
10
1.63051
20
-5.51928
11
1.63426
21
-5.51553
0
LINE
8
BLACK
6
CONTINUOUS
10
1.63426
20
-5.51553
11
1.63426
21
-5.52303
0
LINE
8
BLACK
6
CONTINUOUS
10
1.68675
20
-5.44428
11
1.69425
21
-5.44428
0
LINE
8
BLACK
6
CONTINUOUS
10
1.69425
20
-5.44428
11
1.70175
21
-5.44803
0
LINE
8
BLACK
6
CONTINUOUS
10
1.70175
20
-5.44803
11
1.7055
21
-5.45178
0
LINE
8
BLACK
6
CONTINUOUS
10
1.7055
20
-5.45178
11
1.70925
21
-5.45928
0
LINE
8
BLACK
6
CONTINUOUS
10
1.70925
20
-5.45928
11
1.713
21
-5.47428
0
LINE
8
BLACK
6
CONTINUOUS
10
1.713
20
-5.47428
11
1.713
21
-5.49303
0
LINE
8
BLACK
6
CONTINUOUS
10
1.713
20
-5.49303
11
1.70925
21
-5.50803
0
LINE
8
BLACK
6
CONTINUOUS
10
1.70925
20
-5.50803
11
1.7055
21
-5.51553
0
LINE
8
BLACK
6
CONTINUOUS
10
1.7055
20
-5.51553
11
1.70175
21
-5.51928
0
LINE
8
BLACK
6
CONTINUOUS
10
1.70175
20
-5.51928
11
1.69425
21
-5.52303
0
LINE
8
BLACK
6
CONTINUOUS
10
1.69425
20
-5.52303
11
1.68675
21
-5.52303
0
LINE
8
BLACK
6
CONTINUOUS
10
1.68675
20
-5.52303
11
1.67925
21
-5.51928
0
LINE
8
BLACK
6
CONTINUOUS
10
1.67925
20
-5.51928
11
1.6755
21
-5.51553
0
LINE
8
BLACK
6
CONTINUOUS
10
1.6755
20
-5.51553
11
1.67175
21
-5.50803
0
LINE
8
BLACK
6
CONTINUOUS
10
1.67175
20
-5.50803
11
1.668
21
-5.49303
0
LINE
8
BLACK
6
CONTINUOUS
10
1.668
20
-5.49303
11
1.668
21
-5.47428
0
LINE
8
BLACK
6
CONTINUOUS
10
1.668
20
-5.47428
11
1.67175
21
-5.45928
0
LINE
8
BLACK
6
CONTINUOUS
10
1.67175
20
-5.45928
11
1.6755
21
-5.45178
0
LINE
8
BLACK
6
CONTINUOUS
10
1.6755
20
-5.45178
11
1.67925
21
-5.44803
0
LINE
8
BLACK
6
CONTINUOUS
10
1.67925
20
-5.44803
11
1.68675
21
-5.44428
0
LINE
8
BLACK
6
CONTINUOUS
10
1.78424
20
-5.44428
11
1.74674
21
-5.44428
0
LINE
8
BLACK
6
CONTINUOUS
10
1.74674
20
-5.44428
11
1.74299
21
-5.48178
0
LINE
8
BLACK
6
CONTINUOUS
10
1.74299
20
-5.48178
11
1.74674
21
-5.47803
0
LINE
8
BLACK
6
CONTINUOUS
10
1.74674
20
-5.47803
11
1.75424
21
-5.47428
0
LINE
8
BLACK
6
CONTINUOUS
10
1.75424
20
-5.47428
11
1.77299
21
-5.47428
0
LINE
8
BLACK
6
CONTINUOUS
10
1.77299
20
-5.47428
11
1.78049
21
-5.47803
0
LINE
8
BLACK
6
CONTINUOUS
10
1.78049
20
-5.47803
11
1.78424
21
-5.48178
0
LINE
8
BLACK
6
CONTINUOUS
10
1.78424
20
-5.48178
11
1.78799
21
-5.48928
0
LINE
8
BLACK
6
CONTINUOUS
10
1.78799
20
-5.48928
11
1.78799
21
-5.50803
0
LINE
8
BLACK
6
CONTINUOUS
10
1.78799
20
-5.50803
11
1.78424
21
-5.51553
0
LINE
8
BLACK
6
CONTINUOUS
10
1.78424
20
-5.51553
11
1.78049
21
-5.51928
0
LINE
8
BLACK
6
CONTINUOUS
10
1.78049
20
-5.51928
11
1.77299
21
-5.52303
0
LINE
8
BLACK
6
CONTINUOUS
10
1.77299
20
-5.52303
11
1.75424
21
-5.52303
0
LINE
8
BLACK
6
CONTINUOUS
10
1.75424
20
-5.52303
11
1.74674
21
-5.51928
0
LINE
8
BLACK
6
CONTINUOUS
10
1.74674
20
-5.51928
11
1.74299
21
-5.51553
0
LINE
8
BLACK
6
CONTINUOUS
10
1.82548
20
-5.52303
11
1.84048
21
-5.52303
0
LINE
8
BLACK
6
CONTINUOUS
10
1.84048
20
-5.52303
11
1.84798
21
-5.51928
0
LINE
8
BLACK
6
CONTINUOUS
10
1.84798
20
-5.51928
11
1.85173
21
-5.51553
0
LINE
8
BLACK
6
CONTINUOUS
10
1.85173
20
-5.51553
11
1.85923
21
-5.50428
0
LINE
8
BLACK
6
CONTINUOUS
10
1.85923
20
-5.50428
11
1.86298
21
-5.48928
0
LINE
8
BLACK
6
CONTINUOUS
10
1.86298
20
-5.48928
11
1.86298
21
-5.45928
0
LINE
8
BLACK
6
CONTINUOUS
10
1.86298
20
-5.45928
11
1.85923
21
-5.45178
0
LINE
8
BLACK
6
CONTINUOUS
10
1.85923
20
-5.45178
11
1.85548
21
-5.44803
0
LINE
8
BLACK
6
CONTINUOUS
10
1.85548
20
-5.44803
11
1.84798
21
-5.44428
0
LINE
8
BLACK
6
CONTINUOUS
10
1.84798
20
-5.44428
11
1.83298
21
-5.44428
0
LINE
8
BLACK
6
CONTINUOUS
10
1.83298
20
-5.44428
11
1.82548
21
-5.44803
0
LINE
8
BLACK
6
CONTINUOUS
10
1.82548
20
-5.44803
11
1.82173
21
-5.45178
0
LINE
8
BLACK
6
CONTINUOUS
10
1.82173
20
-5.45178
11
1.81798
21
-5.45928
0
LINE
8
BLACK
6
CONTINUOUS
10
1.81798
20
-5.45928
11
1.81798
21
-5.47803
0
LINE
8
BLACK
6
CONTINUOUS
10
1.81798
20
-5.47803
11
1.82173
21
-5.48553
0
LINE
8
BLACK
6
CONTINUOUS
10
1.82173
20
-5.48553
11
1.82548
21
-5.48928
0
LINE
8
BLACK
6
CONTINUOUS
10
1.82548
20
-5.48928
11
1.83298
21
-5.49303
0
LINE
8
BLACK
6
CONTINUOUS
10
1.83298
20
-5.49303
11
1.84798
21
-5.49303
0
LINE
8
BLACK
6
CONTINUOUS
10
1.84798
20
-5.49303
11
1.85548
21
-5.48928
0
LINE
8
BLACK
6
CONTINUOUS
10
1.85548
20
-5.48928
11
1.85923
21
-5.48553
0
LINE
8
BLACK
6
CONTINUOUS
10
1.85923
20
-5.48553
11
1.86298
21
-5.47803
0
LINE
8
BLACK
6
CONTINUOUS
10
1.93797
20
-5.52303
11
1.89298
21
-5.52303
0
LINE
8
BLACK
6
CONTINUOUS
10
1.91547
20
-5.52303
11
1.91547
21
-5.44428
0
LINE
8
BLACK
6
CONTINUOUS
10
1.91547
20
-5.44428
11
1.90797
21
-5.45553
0
LINE
8
BLACK
6
CONTINUOUS
10
1.90797
20
-5.45553
11
1.90047
21
-5.46303
0
LINE
8
BLACK
6
CONTINUOUS
10
1.90047
20
-5.46303
11
1.89298
21
-5.46678
0
LINE
8
BLACK
6
CONTINUOUS
10
1.96797
20
-5.44428
11
1.96797
21
-5.45928
0
LINE
8
BLACK
6
CONTINUOUS
10
1.99796
20
-5.44428
11
1.99796
21
-5.45928
0
LINE
8
BLACK
6
CONTINUOUS
10
2.1142
20
-5.55302
11
2.11045
21
-5.54927
0
LINE
8
BLACK
6
CONTINUOUS
10
2.11045
20
-5.54927
11
2.10295
21
-5.53802
0
LINE
8
BLACK
6
CONTINUOUS
10
2.10295
20
-5.53802
11
2.0992
21
-5.53052
0
LINE
8
BLACK
6
CONTINUOUS
10
2.0992
20
-5.53052
11
2.09545
21
-5.51928
0
LINE
8
BLACK
6
CONTINUOUS
10
2.09545
20
-5.51928
11
2.0917
21
-5.50053
0
LINE
8
BLACK
6
CONTINUOUS
10
2.0917
20
-5.50053
11
2.0917
21
-5.48553
0
LINE
8
BLACK
6
CONTINUOUS
10
2.0917
20
-5.48553
11
2.09545
21
-5.46678
0
LINE
8
BLACK
6
CONTINUOUS
10
2.09545
20
-5.46678
11
2.0992
21
-5.45553
0
LINE
8
BLACK
6
CONTINUOUS
10
2.0992
20
-5.45553
11
2.10295
21
-5.44803
0
LINE
8
BLACK
6
CONTINUOUS
10
2.10295
20
-5.44803
11
2.11045
21
-5.43679
0
LINE
8
BLACK
6
CONTINUOUS
10
2.11045
20
-5.43679
11
2.1142
21
-5.43304
0
LINE
8
BLACK
6
CONTINUOUS
10
2.17794
20
-5.47053
11
2.17794
21
-5.52303
0
LINE
8
BLACK
6
CONTINUOUS
10
2.15919
20
-5.44054
11
2.14044
21
-5.49678
0
LINE
8
BLACK
6
CONTINUOUS
10
2.14044
20
-5.49678
11
2.18919
21
-5.49678
0
LINE
8
BLACK
6
CONTINUOUS
10
2.23418
20
-5.44428
11
2.24168
21
-5.44428
0
LINE
8
BLACK
6
CONTINUOUS
10
2.24168
20
-5.44428
11
2.24918
21
-5.44803
0
LINE
8
BLACK
6
CONTINUOUS
10
2.24918
20
-5.44803
11
2.25293
21
-5.45178
0
LINE
8
BLACK
6
CONTINUOUS
10
2.25293
20
-5.45178
11
2.25668
21
-5.45928
0
LINE
8
BLACK
6
CONTINUOUS
10
2.25668
20
-5.45928
11
2.26043
21
-5.47428
0
LINE
8
BLACK
6
CONTINUOUS
10
2.26043
20
-5.47428
11
2.26043
21
-5.49303
0
LINE
8
BLACK
6
CONTINUOUS
10
2.26043
20
-5.49303
11
2.25668
21
-5.50803
0
LINE
8
BLACK
6
CONTINUOUS
10
2.25668
20
-5.50803
11
2.25293
21
-5.51553
0
LINE
8
BLACK
6
CONTINUOUS
10
2.25293
20
-5.51553
11
2.24918
21
-5.51928
0
LINE
8
BLACK
6
CONTINUOUS
10
2.24918
20
-5.51928
11
2.24168
21
-5.52303
0
LINE
8
BLACK
6
CONTINUOUS
10
2.24168
20
-5.52303
11
2.23418
21
-5.52303
0
LINE
8
BLACK
6
CONTINUOUS
10
2.23418
20
-5.52303
11
2.22668
21
-5.51928
0
LINE
8
BLACK
6
CONTINUOUS
10
2.22668
20
-5.51928
11
2.22293
21
-5.51553
0
LINE
8
BLACK
6
CONTINUOUS
10
2.22293
20
-5.51553
11
2.21918
21
-5.50803
0
LINE
8
BLACK
6
CONTINUOUS
10
2.21918
20
-5.50803
11
2.21544
21
-5.49303
0
LINE
8
BLACK
6
CONTINUOUS
10
2.21544
20
-5.49303
11
2.21544
21
-5.47428
0
LINE
8
BLACK
6
CONTINUOUS
10
2.21544
20
-5.47428
11
2.21918
21
-5.45928
0
LINE
8
BLACK
6
CONTINUOUS
10
2.21918
20
-5.45928
11
2.22293
21
-5.45178
0
LINE
8
BLACK
6
CONTINUOUS
10
2.22293
20
-5.45178
11
2.22668
21
-5.44803
0
LINE
8
BLACK
6
CONTINUOUS
10
2.22668
20
-5.44803
11
2.23418
21
-5.44428
0
LINE
8
BLACK
6
CONTINUOUS
10
2.35417
20
-5.52303
11
2.35417
21
-5.44428
0
LINE
8
BLACK
6
CONTINUOUS
10
2.38791
20
-5.52303
11
2.38791
21
-5.48178
0
LINE
8
BLACK
6
CONTINUOUS
10
2.38791
20
-5.48178
11
2.38416
21
-5.47428
0
LINE
8
BLACK
6
CONTINUOUS
10
2.38416
20
-5.47428
11
2.37667
21
-5.47053
0
LINE
8
BLACK
6
CONTINUOUS
10
2.37667
20
-5.47053
11
2.36542
21
-5.47053
0
LINE
8
BLACK
6
CONTINUOUS
10
2.36542
20
-5.47053
11
2.35792
21
-5.47428
0
LINE
8
BLACK
6
CONTINUOUS
10
2.35792
20
-5.47428
11
2.35417
21
-5.47803
0
LINE
8
BLACK
6
CONTINUOUS
10
2.43666
20
-5.52303
11
2.42916
21
-5.51928
0
LINE
8
BLACK
6
CONTINUOUS
10
2.42916
20
-5.51928
11
2.42541
21
-5.51553
0
LINE
8
BLACK
6
CONTINUOUS
10
2.42541
20
-5.51553
11
2.42166
21
-5.50803
0
LINE
8
BLACK
6
CONTINUOUS
10
2.42166
20
-5.50803
11
2.42166
21
-5.48553
0
LINE
8
BLACK
6
CONTINUOUS
10
2.42166
20
-5.48553
11
2.42541
21
-5.47803
0
LINE
8
BLACK
6
CONTINUOUS
10
2.42541
20
-5.47803
11
2.42916
21
-5.47428
0
LINE
8
BLACK
6
CONTINUOUS
10
2.42916
20
-5.47428
11
2.43666
21
-5.47053
0
LINE
8
BLACK
6
CONTINUOUS
10
2.43666
20
-5.47053
11
2.44791
21
-5.47053
0
LINE
8
BLACK
6
CONTINUOUS
10
2.44791
20
-5.47053
11
2.45541
21
-5.47428
0
LINE
8
BLACK
6
CONTINUOUS
10
2.45541
20
-5.47428
11
2.45915
21
-5.47803
0
LINE
8
BLACK
6
CONTINUOUS
10
2.45915
20
-5.47803
11
2.4629
21
-5.48553
0
LINE
8
BLACK
6
CONTINUOUS
10
2.4629
20
-5.48553
11
2.4629
21
-5.50803
0
LINE
8
BLACK
6
CONTINUOUS
10
2.4629
20
-5.50803
11
2.45915
21
-5.51553
0
LINE
8
BLACK
6
CONTINUOUS
10
2.45915
20
-5.51553
11
2.45541
21
-5.51928
0
LINE
8
BLACK
6
CONTINUOUS
10
2.45541
20
-5.51928
11
2.44791
21
-5.52303
0
LINE
8
BLACK
6
CONTINUOUS
10
2.44791
20
-5.52303
11
2.43666
21
-5.52303
0
LINE
8
BLACK
6
CONTINUOUS
10
2.5079
20
-5.52303
11
2.5004
21
-5.51928
0
LINE
8
BLACK
6
CONTINUOUS
10
2.5004
20
-5.51928
11
2.49665
21
-5.51178
0
LINE
8
BLACK
6
CONTINUOUS
10
2.49665
20
-5.51178
11
2.49665
21
-5.44428
0
LINE
8
BLACK
6
CONTINUOUS
10
2.56789
20
-5.51928
11
2.56039
21
-5.52303
0
LINE
8
BLACK
6
CONTINUOUS
10
2.56039
20
-5.52303
11
2.54539
21
-5.52303
0
LINE
8
BLACK
6
CONTINUOUS
10
2.54539
20
-5.52303
11
2.5379
21
-5.51928
0
LINE
8
BLACK
6
CONTINUOUS
10
2.5379
20
-5.51928
11
2.53415
21
-5.51178
0
LINE
8
BLACK
6
CONTINUOUS
10
2.53415
20
-5.51178
11
2.53415
21
-5.48178
0
LINE
8
BLACK
6
CONTINUOUS
10
2.53415
20
-5.48178
11
2.5379
21
-5.47428
0
LINE
8
BLACK
6
CONTINUOUS
10
2.5379
20
-5.47428
11
2.54539
21
-5.47053
0
LINE
8
BLACK
6
CONTINUOUS
10
2.54539
20
-5.47053
11
2.56039
21
-5.47053
0
LINE
8
BLACK
6
CONTINUOUS
10
2.56039
20
-5.47053
11
2.56789
21
-5.47428
0
LINE
8
BLACK
6
CONTINUOUS
10
2.56789
20
-5.47428
11
2.57164
21
-5.48178
0
LINE
8
BLACK
6
CONTINUOUS
10
2.57164
20
-5.48178
11
2.57164
21
-5.48928
0
LINE
8
BLACK
6
CONTINUOUS
10
2.57164
20
-5.48928
11
2.53415
21
-5.49678
0
LINE
8
BLACK
6
CONTINUOUS
10
2.60164
20
-5.51928
11
2.60914
21
-5.52303
0
LINE
8
BLACK
6
CONTINUOUS
10
2.60914
20
-5.52303
11
2.62413
21
-5.52303
0
LINE
8
BLACK
6
CONTINUOUS
10
2.62413
20
-5.52303
11
2.63163
21
-5.51928
0
LINE
8
BLACK
6
CONTINUOUS
10
2.63163
20
-5.51928
11
2.63538
21
-5.51178
0
LINE
8
BLACK
6
CONTINUOUS
10
2.63538
20
-5.51178
11
2.63538
21
-5.50803
0
LINE
8
BLACK
6
CONTINUOUS
10
2.63538
20
-5.50803
11
2.63163
21
-5.50053
0
LINE
8
BLACK
6
CONTINUOUS
10
2.63163
20
-5.50053
11
2.62413
21
-5.49678
0
LINE
8
BLACK
6
CONTINUOUS
10
2.62413
20
-5.49678
11
2.61289
21
-5.49678
0
LINE
8
BLACK
6
CONTINUOUS
10
2.61289
20
-5.49678
11
2.60539
21
-5.49303
0
LINE
8
BLACK
6
CONTINUOUS
10
2.60539
20
-5.49303
11
2.60164
21
-5.48553
0
LINE
8
BLACK
6
CONTINUOUS
10
2.60164
20
-5.48553
11
2.60164
21
-5.48178
0
LINE
8
BLACK
6
CONTINUOUS
10
2.60164
20
-5.48178
11
2.60539
21
-5.47428
0
LINE
8
BLACK
6
CONTINUOUS
10
2.60539
20
-5.47428
11
2.61289
21
-5.47053
0
LINE
8
BLACK
6
CONTINUOUS
10
2.61289
20
-5.47053
11
2.62413
21
-5.47053
0
LINE
8
BLACK
6
CONTINUOUS
10
2.62413
20
-5.47053
11
2.63163
21
-5.47428
0
LINE
8
BLACK
6
CONTINUOUS
10
2.66163
20
-5.55302
11
2.66538
21
-5.54927
0
LINE
8
BLACK
6
CONTINUOUS
10
2.66538
20
-5.54927
11
2.67288
21
-5.53802
0
LINE
8
BLACK
6
CONTINUOUS
10
2.67288
20
-5.53802
11
2.67663
21
-5.53052
0
LINE
8
BLACK
6
CONTINUOUS
10
2.67663
20
-5.53052
11
2.68038
21
-5.51928
0
LINE
8
BLACK
6
CONTINUOUS
10
2.68038
20
-5.51928
11
2.68413
21
-5.50053
0
LINE
8
BLACK
6
CONTINUOUS
10
2.68413
20
-5.50053
11
2.68413
21
-5.48553
0
LINE
8
BLACK
6
CONTINUOUS
10
2.68413
20
-5.48553
11
2.68038
21
-5.46678
0
LINE
8
BLACK
6
CONTINUOUS
10
2.68038
20
-5.46678
11
2.67663
21
-5.45553
0
LINE
8
BLACK
6
CONTINUOUS
10
2.67663
20
-5.45553
11
2.67288
21
-5.44803
0
LINE
8
BLACK
6
CONTINUOUS
10
2.67288
20
-5.44803
11
2.66538
21
-5.43679
0
LINE
8
BLACK
6
CONTINUOUS
10
2.66538
20
-5.43679
11
2.66163
21
-5.43304
  0
ENDSEC
  0
EOF
