%TF.GenerationSoftware,KiCad,Pcbnew,7.0.7*%
%TF.CreationDate,2023-10-06T06:03:54+09:00*%
%TF.ProjectId,Sixtar-Switch,53697874-6172-42d5-9377-697463682e6b,rev?*%
%TF.SameCoordinates,Original*%
%TF.FileFunction,Soldermask,Top*%
%TF.FilePolarity,Negative*%
%FSLAX46Y46*%
G04 Gerber Fmt 4.6, Leading zero omitted, Abs format (unit mm)*
G04 Created by KiCad (PCBNEW 7.0.7) date 2023-10-06 06:03:54*
%MOMM*%
%LPD*%
G01*
G04 APERTURE LIST*
G04 Aperture macros list*
%AMRoundRect*
0 Rectangle with rounded corners*
0 $1 Rounding radius*
0 $2 $3 $4 $5 $6 $7 $8 $9 X,Y pos of 4 corners*
0 Add a 4 corners polygon primitive as box body*
4,1,4,$2,$3,$4,$5,$6,$7,$8,$9,$2,$3,0*
0 Add four circle primitives for the rounded corners*
1,1,$1+$1,$2,$3*
1,1,$1+$1,$4,$5*
1,1,$1+$1,$6,$7*
1,1,$1+$1,$8,$9*
0 Add four rect primitives between the rounded corners*
20,1,$1+$1,$2,$3,$4,$5,0*
20,1,$1+$1,$4,$5,$6,$7,0*
20,1,$1+$1,$6,$7,$8,$9,0*
20,1,$1+$1,$8,$9,$2,$3,0*%
G04 Aperture macros list end*
%ADD10C,0.650000*%
%ADD11R,0.600000X1.150000*%
%ADD12R,0.300000X1.150000*%
%ADD13O,1.000000X2.100000*%
%ADD14O,1.000000X1.800000*%
%ADD15RoundRect,0.050000X-0.387500X-0.050000X0.387500X-0.050000X0.387500X0.050000X-0.387500X0.050000X0*%
%ADD16RoundRect,0.050000X-0.050000X-0.387500X0.050000X-0.387500X0.050000X0.387500X-0.050000X0.387500X0*%
%ADD17R,3.200000X3.200000*%
%ADD18R,1.700000X1.700000*%
%ADD19O,1.700000X1.700000*%
%ADD20C,3.050000*%
%ADD21C,4.000000*%
%ADD22C,1.700000*%
%ADD23C,2.200000*%
%ADD24C,3.200000*%
%ADD25RoundRect,0.250000X0.475000X-0.337500X0.475000X0.337500X-0.475000X0.337500X-0.475000X-0.337500X0*%
%ADD26RoundRect,0.250000X-0.350000X-0.450000X0.350000X-0.450000X0.350000X0.450000X-0.350000X0.450000X0*%
%ADD27RoundRect,0.250000X-0.337500X-0.475000X0.337500X-0.475000X0.337500X0.475000X-0.337500X0.475000X0*%
%ADD28R,2.000000X1.500000*%
%ADD29R,2.000000X3.800000*%
%ADD30RoundRect,0.150000X-0.650000X-0.150000X0.650000X-0.150000X0.650000X0.150000X-0.650000X0.150000X0*%
G04 APERTURE END LIST*
D10*
%TO.C,J1*%
X140890000Y-24405000D03*
X135110000Y-24405000D03*
D11*
X141200000Y-25480000D03*
X140400000Y-25480000D03*
D12*
X139250000Y-25480000D03*
X138250000Y-25480000D03*
X137750000Y-25480000D03*
X136750000Y-25480000D03*
D11*
X135600000Y-25480000D03*
X134800000Y-25480000D03*
X134800000Y-25480000D03*
X135600000Y-25480000D03*
D12*
X136250000Y-25480000D03*
X137250000Y-25480000D03*
X138750000Y-25480000D03*
X139750000Y-25480000D03*
D11*
X140400000Y-25480000D03*
X141200000Y-25480000D03*
D13*
X142320000Y-24905000D03*
D14*
X142320000Y-20725000D03*
D13*
X133680000Y-24905000D03*
D14*
X133680000Y-20725000D03*
%TD*%
D15*
%TO.C,U3*%
X134662500Y-86100000D03*
X134662500Y-86500000D03*
X134662500Y-86900000D03*
X134662500Y-87300000D03*
X134662500Y-87700000D03*
X134662500Y-88100000D03*
X134662500Y-88500000D03*
X134662500Y-88900000D03*
X134662500Y-89300000D03*
X134662500Y-89700000D03*
X134662500Y-90100000D03*
X134662500Y-90500000D03*
X134662500Y-90900000D03*
X134662500Y-91300000D03*
D16*
X135500000Y-92137500D03*
X135900000Y-92137500D03*
X136300000Y-92137500D03*
X136700000Y-92137500D03*
X137100000Y-92137500D03*
X137500000Y-92137500D03*
X137900000Y-92137500D03*
X138300000Y-92137500D03*
X138700000Y-92137500D03*
X139100000Y-92137500D03*
X139500000Y-92137500D03*
X139900000Y-92137500D03*
X140300000Y-92137500D03*
X140700000Y-92137500D03*
D15*
X141537500Y-91300000D03*
X141537500Y-90900000D03*
X141537500Y-90500000D03*
X141537500Y-90100000D03*
X141537500Y-89700000D03*
X141537500Y-89300000D03*
X141537500Y-88900000D03*
X141537500Y-88500000D03*
X141537500Y-88100000D03*
X141537500Y-87700000D03*
X141537500Y-87300000D03*
X141537500Y-86900000D03*
X141537500Y-86500000D03*
X141537500Y-86100000D03*
D16*
X140700000Y-85262500D03*
X140300000Y-85262500D03*
X139900000Y-85262500D03*
X139500000Y-85262500D03*
X139100000Y-85262500D03*
X138700000Y-85262500D03*
X138300000Y-85262500D03*
X137900000Y-85262500D03*
X137500000Y-85262500D03*
X137100000Y-85262500D03*
X136700000Y-85262500D03*
X136300000Y-85262500D03*
X135900000Y-85262500D03*
X135500000Y-85262500D03*
D17*
X138100000Y-88700000D03*
%TD*%
D18*
%TO.C,RESET_SW1*%
X136295000Y-121860000D03*
D19*
X136295000Y-119320000D03*
%TD*%
D20*
%TO.C,SW1*%
X30956250Y-26431875D03*
D21*
X30956250Y-41671875D03*
D22*
X37776250Y-33431875D03*
D21*
X42856250Y-33431875D03*
D22*
X47936250Y-33431875D03*
D20*
X54756250Y-26431875D03*
D21*
X54756250Y-41671875D03*
D23*
X45396250Y-28351875D03*
X39046250Y-30891875D03*
%TD*%
D22*
%TO.C,SW8*%
X123501250Y-52481875D03*
D21*
X128581250Y-52481875D03*
D22*
X133661250Y-52481875D03*
D23*
X131121250Y-47401875D03*
X124771250Y-49941875D03*
%TD*%
D24*
%TO.C,H1*%
X22000000Y-22000000D03*
%TD*%
D22*
%TO.C,SW14*%
X123501250Y-71531875D03*
D21*
X128581250Y-71531875D03*
D22*
X133661250Y-71531875D03*
D23*
X131121250Y-66451875D03*
X124771250Y-68991875D03*
%TD*%
D25*
%TO.C,C2*%
X144630000Y-37437500D03*
X144630000Y-35362500D03*
%TD*%
D22*
%TO.C,SW16*%
X199701250Y-71531875D03*
D21*
X204781250Y-71531875D03*
D22*
X209861250Y-71531875D03*
D23*
X207321250Y-66451875D03*
X200971250Y-68991875D03*
%TD*%
D26*
%TO.C,R10*%
X142600000Y-118500000D03*
X144600000Y-118500000D03*
%TD*%
D22*
%TO.C,SW18*%
X237801250Y-90581875D03*
D21*
X242881250Y-90581875D03*
D22*
X247961250Y-90581875D03*
D23*
X245421250Y-85501875D03*
X239071250Y-88041875D03*
%TD*%
D22*
%TO.C,SW7*%
X85401250Y-52481875D03*
D21*
X90481250Y-52481875D03*
D22*
X95561250Y-52481875D03*
D23*
X93021250Y-47401875D03*
X86671250Y-49941875D03*
%TD*%
D24*
%TO.C,H2*%
X254000000Y-23000000D03*
%TD*%
D27*
%TO.C,C4*%
X143952500Y-110520000D03*
X146027500Y-110520000D03*
%TD*%
D22*
%TO.C,SW3*%
X199701250Y-33431875D03*
D21*
X204781250Y-33431875D03*
D22*
X209861250Y-33431875D03*
D23*
X207321250Y-28351875D03*
X200971250Y-30891875D03*
%TD*%
D28*
%TO.C,U1*%
X141150000Y-37550000D03*
X141150000Y-35250000D03*
D29*
X134850000Y-35250000D03*
D28*
X141150000Y-32950000D03*
%TD*%
D20*
%TO.C,SW19*%
X88106250Y-102631875D03*
D21*
X88106250Y-117871875D03*
D22*
X94926250Y-109631875D03*
D21*
X100006250Y-109631875D03*
D22*
X105086250Y-109631875D03*
D20*
X111906250Y-102631875D03*
D21*
X111906250Y-117871875D03*
D23*
X102546250Y-104551875D03*
X96196250Y-107091875D03*
%TD*%
D22*
%TO.C,SW17*%
X28251250Y-90581875D03*
D21*
X33331250Y-90581875D03*
D22*
X38411250Y-90581875D03*
D23*
X35871250Y-85501875D03*
X29521250Y-88041875D03*
%TD*%
D22*
%TO.C,SW13*%
X66351250Y-71531875D03*
D21*
X71431250Y-71531875D03*
D22*
X76511250Y-71531875D03*
D23*
X73971250Y-66451875D03*
X67621250Y-68991875D03*
%TD*%
D22*
%TO.C,SW10*%
X180651250Y-52481875D03*
D21*
X185731250Y-52481875D03*
D22*
X190811250Y-52481875D03*
D23*
X188271250Y-47401875D03*
X181921250Y-49941875D03*
%TD*%
D22*
%TO.C,SW9*%
X142551250Y-52481875D03*
D21*
X147631250Y-52481875D03*
D22*
X152711250Y-52481875D03*
D23*
X150171250Y-47401875D03*
X143821250Y-49941875D03*
%TD*%
D25*
%TO.C,C3*%
X131500000Y-37437500D03*
X131500000Y-35362500D03*
%TD*%
D30*
%TO.C,U2*%
X134800000Y-110495000D03*
X134800000Y-111765000D03*
X134800000Y-113035000D03*
X134800000Y-114305000D03*
X142000000Y-114305000D03*
X142000000Y-113035000D03*
X142000000Y-111765000D03*
X142000000Y-110495000D03*
%TD*%
D20*
%TO.C,SW20*%
X164306250Y-102631875D03*
D21*
X164306250Y-117871875D03*
D22*
X171126250Y-109631875D03*
D21*
X176206250Y-109631875D03*
D22*
X181286250Y-109631875D03*
D20*
X188106250Y-102631875D03*
D21*
X188106250Y-117871875D03*
D23*
X178746250Y-104551875D03*
X172396250Y-107091875D03*
%TD*%
D26*
%TO.C,R9*%
X134600000Y-108550000D03*
X136600000Y-108550000D03*
%TD*%
D22*
%TO.C,SW2*%
X66351250Y-33431875D03*
D21*
X71431250Y-33431875D03*
D22*
X76511250Y-33431875D03*
D23*
X73971250Y-28351875D03*
X67621250Y-30891875D03*
%TD*%
D22*
%TO.C,SW11*%
X199701250Y-52481875D03*
D21*
X204781250Y-52481875D03*
D22*
X209861250Y-52481875D03*
D23*
X207321250Y-47401875D03*
X200971250Y-49941875D03*
%TD*%
D27*
%TO.C,C1*%
X136962500Y-29050000D03*
X139037500Y-29050000D03*
%TD*%
D22*
%TO.C,SW6*%
X66351250Y-52481875D03*
D21*
X71431250Y-52481875D03*
D22*
X76511250Y-52481875D03*
D23*
X73971250Y-47401875D03*
X67621250Y-49941875D03*
%TD*%
D22*
%TO.C,SW5*%
X47301250Y-52481875D03*
D21*
X52381250Y-52481875D03*
D22*
X57461250Y-52481875D03*
D23*
X54921250Y-47401875D03*
X48571250Y-49941875D03*
%TD*%
D22*
%TO.C,SW15*%
X142551250Y-71531875D03*
D21*
X147631250Y-71531875D03*
D22*
X152711250Y-71531875D03*
D23*
X150171250Y-66451875D03*
X143821250Y-68991875D03*
%TD*%
D24*
%TO.C,H3*%
X22000000Y-121000000D03*
%TD*%
D20*
%TO.C,SW4*%
X221456250Y-26431875D03*
D21*
X221456250Y-41671875D03*
D22*
X228276250Y-33431875D03*
D21*
X233356250Y-33431875D03*
D22*
X238436250Y-33431875D03*
D20*
X245256250Y-26431875D03*
D21*
X245256250Y-41671875D03*
D23*
X235896250Y-28351875D03*
X229546250Y-30891875D03*
%TD*%
D24*
%TO.C,H4*%
X254000000Y-121000000D03*
%TD*%
D18*
%TO.C,BOOT_SW1*%
X139905000Y-121860000D03*
D19*
X139905000Y-119320000D03*
%TD*%
D22*
%TO.C,SW12*%
X218751250Y-52481875D03*
D21*
X223831250Y-52481875D03*
D22*
X228911250Y-52481875D03*
D23*
X226371250Y-47401875D03*
X220021250Y-49941875D03*
%TD*%
M02*
