<?xml version="1.0" standalone="no"?>
 <!DOCTYPE svg PUBLIC "-//W3C//DTD SVG 1.1//EN" 
 "http://www.w3.org/Graphics/SVG/1.1/DTD/svg11.dtd"> 
<svg
  xmlns:svg="http://www.w3.org/2000/svg"
  xmlns="http://www.w3.org/2000/svg"
  xmlns:xlink="http://www.w3.org/1999/xlink"
  version="1.1"
  width="297.0022mm" height="210.0072mm" viewBox="0.0000 0.0000 297.0022 210.0072">
<title>SVG Image created as Sixtar-Switch-PTH-drl_map.svg date 2023/10/06 06:04:11 </title>
  <desc>Image generated by PCBNEW </desc>
<g style="fill:#000000; fill-opacity:1.0000;stroke:#000000; stroke-opacity:1.0000;
stroke-linecap:round; stroke-linejoin:round;"
 transform="translate(0 0) scale(1 1)">
</g>
<g style="fill:#000000; fill-opacity:0.0; 
stroke:#000000; stroke-width:0.0000; stroke-opacity:1; 
stroke-linecap:round; stroke-linejoin:round;">
</g>
<g style="fill:#000000; fill-opacity:0.0; 
stroke:#000000; stroke-width:0.1083; stroke-opacity:1; 
stroke-linecap:round; stroke-linejoin:round;">
<path d="M278.4779 120.9502
L18.5243 120.9502
" />
<path d="M18.5243 120.9502
L18.5243 5.0542
" />
<path d="M278.4779 5.0542
L278.4779 120.9502
" />
<path d="M18.5243 5.0542
L278.4779 5.0542
" />
</g>
<g style="fill:#000000; fill-opacity:0.0; 
stroke:#000000; stroke-width:0.2166; stroke-opacity:1; 
stroke-linecap:round; stroke-linejoin:round;">
</g>
<g style="fill:#000000; fill-opacity:0.0; 
stroke:#000000; stroke-width:0.0325; stroke-opacity:1; 
stroke-linecap:round; stroke-linejoin:round;">
<path d="M48.1482 26.5361
L48.4731 26.8610
" />
<path d="M48.4731 26.5361
L48.1482 26.8610
" />
<path d="M48.1482 28.3059
L48.4731 28.6309
" />
<path d="M48.4731 28.3059
L48.1482 28.6309
" />
<path d="M78.9865 28.6512
L79.3115 28.9761
" />
<path d="M79.3115 28.6512
L78.9865 28.9761
" />
<path d="M79.0177 26.4462
L79.3426 26.7711
" />
<path d="M79.3426 26.4462
L79.0177 26.7711
" />
<path d="M79.0177 47.1699
L79.3426 47.4948
" />
<path d="M79.3426 47.1699
L79.0177 47.4948
" />
<path d="M79.0177 48.9397
L79.3426 49.2647
" />
<path d="M79.3426 48.9397
L79.0177 49.2647
" />
<path d="M110.6453 10.4162
L110.9703 10.7412
" />
<path d="M110.9703 10.4162
L110.6453 10.7412
" />
<path d="M110.6453 11.7149
L110.9703 12.0399
" />
<path d="M110.9703 11.7149
L110.6453 12.0399
" />
<path d="M120.5019 71.9381
L120.8269 72.2630
" />
<path d="M120.8269 71.9381
L120.5019 72.2630
" />
<path d="M124.5101 51.4667
L124.8350 51.7917
" />
<path d="M124.8350 51.4667
L124.5101 51.7917
" />
<path d="M124.9433 29.4790
L125.2683 29.8039
" />
<path d="M125.2683 29.4790
L124.9433 29.8039
" />
<path d="M124.9433 34.6780
L125.2683 35.0030
" />
<path d="M125.2683 34.6780
L124.9433 35.0030
" />
<path d="M125.5927 71.9381
L125.9176 72.2630
" />
<path d="M125.9176 71.9381
L125.5927 72.2630
" />
<path d="M126.2431 29.4790
L126.5681 29.8039
" />
<path d="M126.5681 29.4790
L126.2431 29.8039
" />
<path d="M126.2431 72.5880
L126.5681 72.9129
" />
<path d="M126.5681 72.5880
L126.2431 72.9129
" />
<path d="M126.8666 27.3950
L127.1916 27.7200
" />
<path d="M127.1916 27.3950
L126.8666 27.7200
" />
<path d="M126.8925 28.2875
L127.2174 28.6125
" />
<path d="M127.2174 28.2875
L126.8925 28.6125
" />
<path d="M128.1917 27.4210
L128.5166 27.7459
" />
<path d="M128.5166 27.4210
L128.1917 27.7459
" />
<path d="M128.1917 28.2875
L128.5166 28.6125
" />
<path d="M128.5166 28.2875
L128.1917 28.6125
" />
<path d="M128.1917 34.6780
L128.5166 35.0030
" />
<path d="M128.5166 34.6780
L128.1917 35.0030
" />
<path d="M128.1922 51.4667
L128.5172 51.7917
" />
<path d="M128.5172 51.4667
L128.1922 51.7917
" />
<path d="M128.1922 77.3538
L128.5172 77.6787
" />
<path d="M128.5172 77.3538
L128.1922 77.6787
" />
<path d="M128.8420 87.3181
L129.1670 87.6431
" />
<path d="M129.1670 87.3181
L128.8420 87.6431
" />
<path d="M128.8420 88.1857
L129.1670 88.5107
" />
<path d="M129.1670 88.1857
L128.8420 88.5107
" />
<path d="M128.8426 82.9861
L129.1676 83.3110
" />
<path d="M129.1676 82.9861
L128.8426 83.3110
" />
<path d="M128.8426 83.8526
L129.1676 84.1776
" />
<path d="M129.1676 83.8526
L128.8426 84.1776
" />
<path d="M128.8426 84.7191
L129.1676 85.0441
" />
<path d="M129.1676 84.7191
L128.8426 85.0441
" />
<path d="M128.8426 85.5856
L129.1676 85.9106
" />
<path d="M129.1676 85.5856
L128.8426 85.9106
" />
<path d="M128.8426 86.4521
L129.1676 86.7771
" />
<path d="M129.1676 86.4521
L128.8426 86.7771
" />
<path d="M128.8426 89.0517
L129.1676 89.3766
" />
<path d="M129.1676 89.0517
L128.8426 89.3766
" />
<path d="M128.8426 89.9177
L129.1676 90.2426
" />
<path d="M129.1676 89.9177
L128.8426 90.2426
" />
<path d="M128.8426 90.8876
L129.1676 91.2125
" />
<path d="M129.1676 90.8876
L128.8426 91.2125
" />
<path d="M129.2754 109.0714
L129.6003 109.3963
" />
<path d="M129.6003 109.0714
L129.2754 109.3963
" />
<path d="M129.2754 110.8412
L129.6003 111.1662
" />
<path d="M129.6003 110.8412
L129.2754 111.1662
" />
<path d="M129.8169 72.5880
L130.1419 72.9129
" />
<path d="M130.1419 72.5880
L129.8169 72.9129
" />
<path d="M129.8580 76.9616
L130.1830 77.2866
" />
<path d="M130.1830 76.9616
L129.8580 77.2866
" />
<path d="M131.7899 75.9481
L132.1149 76.2730
" />
<path d="M132.1149 75.9481
L131.7899 76.2730
" />
<path d="M131.8247 105.7822
L132.1496 106.1072
" />
<path d="M132.1496 105.7822
L131.8247 106.1072
" />
<path d="M132.4022 75.3357
L132.7272 75.6607
" />
<path d="M132.7272 75.3357
L132.4022 75.6607
" />
<path d="M133.1741 85.5846
L133.4991 85.9095
" />
<path d="M133.4991 85.5846
L133.1741 85.9095
" />
<path d="M133.1741 82.9861
L133.4991 83.3110
" />
<path d="M133.4991 82.9861
L133.1741 83.3110
" />
<path d="M133.1741 83.8526
L133.4991 84.1776
" />
<path d="M133.4991 83.8526
L133.1741 84.1776
" />
<path d="M133.1741 87.3165
L133.4991 87.6414
" />
<path d="M133.4991 87.3165
L133.1741 87.6414
" />
<path d="M133.1741 88.1825
L133.4991 88.5074
" />
<path d="M133.4991 88.1825
L133.1741 88.5074
" />
<path d="M133.1741 89.0484
L133.4991 89.3734
" />
<path d="M133.4991 89.0484
L133.1741 89.3734
" />
<path d="M133.1741 86.4505
L133.4991 86.7755
" />
<path d="M133.4991 86.4505
L133.1741 86.7755
" />
<path d="M133.1747 84.7186
L133.4997 85.0435
" />
<path d="M133.4997 84.7186
L133.1747 85.0435
" />
<path d="M133.9329 82.1196
L134.2578 82.4445
" />
<path d="M134.2578 82.1196
L133.9329 82.4445
" />
<path d="M133.9329 89.7016
L134.2578 90.0265
" />
<path d="M134.2578 89.7016
L133.9329 90.0265
" />
<path d="M134.0589 107.0981
L134.3838 107.4231
" />
<path d="M134.3838 107.0981
L134.0589 107.4231
" />
<path d="M134.2400 78.3982
L134.5650 78.7231
" />
<path d="M134.5650 78.3982
L134.2400 78.7231
" />
<path d="M134.8524 77.7858
L135.1773 78.1108
" />
<path d="M135.1773 77.7858
L134.8524 78.1108
" />
<path d="M138.2654 72.5880
L138.5904 72.9129
" />
<path d="M138.5904 72.5880
L138.2654 72.9129
" />
<path d="M139.9984 27.3127
L140.3234 27.6376
" />
<path d="M140.3234 27.3127
L139.9984 27.6376
" />
<path d="M140.0031 28.2875
L140.3280 28.6125
" />
<path d="M140.3280 28.2875
L140.0031 28.6125
" />
<path d="M140.2151 73.4545
L140.5400 73.7794
" />
<path d="M140.5400 73.4545
L140.2151 73.7794
" />
<path d="M140.2151 77.1371
L140.5400 77.4621
" />
<path d="M140.5400 77.1371
L140.2151 77.4621
" />
<path d="M140.8650 47.1699
L141.1899 47.4948
" />
<path d="M141.1899 47.1699
L140.8650 47.4948
" />
<path d="M140.8880 49.0711
L141.2129 49.3960
" />
<path d="M141.2129 49.0711
L140.8880 49.3960
" />
<path d="M141.0810 77.1371
L141.4060 77.4621
" />
<path d="M141.4060 77.1371
L141.0810 77.4621
" />
<path d="M141.0811 73.4545
L141.4060 73.7794
" />
<path d="M141.4060 73.4545
L141.0811 73.7794
" />
<path d="M141.7729 27.3127
L142.0978 27.6376
" />
<path d="M142.0978 27.3127
L141.7729 27.6376
" />
<path d="M141.7729 28.2875
L142.0978 28.6125
" />
<path d="M142.0978 28.2875
L141.7729 28.6125
" />
<path d="M141.9470 77.1371
L142.2720 77.4621
" />
<path d="M142.2720 77.1371
L141.9470 77.4621
" />
<path d="M141.9481 73.4545
L142.2730 73.7794
" />
<path d="M142.2730 73.4545
L141.9481 73.7794
" />
<path d="M142.8130 77.1378
L143.1379 77.4627
" />
<path d="M143.1379 77.1378
L142.8130 77.4627
" />
<path d="M142.8141 73.4539
L143.1390 73.7789
" />
<path d="M143.1390 73.4539
L142.8141 73.7789
" />
<path d="M142.8146 15.2898
L143.1396 15.6148
" />
<path d="M143.1396 15.2898
L142.8146 15.6148
" />
<path d="M143.2479 108.4773
L143.5728 108.8022
" />
<path d="M143.5728 108.4773
L143.2479 108.8022
" />
<path d="M143.6790 77.1371
L144.0039 77.4621
" />
<path d="M144.0039 77.1371
L143.6790 77.4621
" />
<path d="M143.7353 73.4545
L144.0602 73.7794
" />
<path d="M144.0602 73.4545
L143.7353 73.7794
" />
<path d="M143.7894 95.8755
L144.1144 96.2004
" />
<path d="M144.1144 95.8755
L143.7894 96.2004
" />
<path d="M144.2227 99.5479
L144.5476 99.8728
" />
<path d="M144.5476 99.5479
L144.2227 99.8728
" />
<path d="M144.2227 101.2798
L144.5476 101.6047
" />
<path d="M144.5476 101.2798
L144.2227 101.6047
" />
<path d="M144.2774 27.3127
L144.6023 27.6376
" />
<path d="M144.6023 27.3127
L144.2774 27.6376
" />
<path d="M144.2774 28.2875
L144.6023 28.6125
" />
<path d="M144.6023 28.2875
L144.2774 28.6125
" />
<path d="M144.7107 66.6307
L145.0356 66.9556
" />
<path d="M145.0356 66.6307
L144.7107 66.9556
" />
<path d="M144.7112 50.6002
L145.0361 50.9251
" />
<path d="M145.0361 50.6002
L144.7112 50.9251
" />
<path d="M144.7112 51.4667
L145.0361 51.7917
" />
<path d="M145.0361 51.4667
L144.7112 51.7917
" />
<path d="M144.8726 92.1928
L145.1975 92.5177
" />
<path d="M145.1975 92.1928
L144.8726 92.5177
" />
<path d="M145.3605 41.0144
L145.6855 41.3394
" />
<path d="M145.6855 41.0144
L145.3605 41.3394
" />
<path d="M145.5468 88.5344
L145.8717 88.8594
" />
<path d="M145.8717 88.5344
L145.5468 88.8594
" />
<path d="M145.5761 27.3127
L145.9010 27.6376
" />
<path d="M145.9010 27.3127
L145.5761 27.6376
" />
<path d="M145.5761 28.2875
L145.9010 28.6125
" />
<path d="M145.9010 28.2875
L145.5761 28.6125
" />
<path d="M146.4431 83.7627
L146.7681 84.0877
" />
<path d="M146.7681 83.7627
L146.4431 84.0877
" />
<path d="M146.9311 45.7261
L147.2560 46.0510
" />
<path d="M147.2560 45.7261
L146.9311 46.0510
" />
<path d="M147.0389 80.0616
L147.3638 80.3866
" />
<path d="M147.3638 80.0616
L147.0389 80.3866
" />
<path d="M147.0389 81.4697
L147.3638 81.7946
" />
<path d="M147.3638 81.4697
L147.0389 81.7946
" />
<path d="M147.0389 82.8778
L147.3638 83.2027
" />
<path d="M147.3638 82.8778
L147.0389 83.2027
" />
<path d="M147.1608 105.7870
L147.4858 106.1119
" />
<path d="M147.4858 105.7870
L147.1608 106.1119
" />
<path d="M147.1845 107.1401
L147.5095 107.4651
" />
<path d="M147.5095 107.1401
L147.1845 107.4651
" />
<path d="M147.1845 108.4773
L147.5095 108.8022
" />
<path d="M147.5095 108.4773
L147.1845 108.8022
" />
<path d="M147.2149 16.8604
L147.5398 17.1853
" />
<path d="M147.5398 16.8604
L147.2149 17.1853
" />
<path d="M147.2555 11.1739
L147.5804 11.4988
" />
<path d="M147.5804 11.1739
L147.2555 11.4988
" />
<path d="M147.2555 96.0921
L147.5804 96.4170
" />
<path d="M147.5804 96.0921
L147.2555 96.4170
" />
<path d="M147.3096 32.4576
L147.6346 32.7825
" />
<path d="M147.6346 32.4576
L147.3096 32.7825
" />
<path d="M147.3421 90.1673
L147.6671 90.4923
" />
<path d="M147.6671 90.1673
L147.3421 90.4923
" />
<path d="M147.5263 15.1815
L147.8512 15.5065
" />
<path d="M147.8512 15.1815
L147.5263 15.5065
" />
<path d="M147.5804 35.6529
L147.9054 35.9778
" />
<path d="M147.9054 35.6529
L147.5804 35.9778
" />
<path d="M148.2309 58.2378
L148.5558 58.5628
" />
<path d="M148.5558 58.2378
L148.2309 58.5628
" />
<path d="M148.2647 88.5445
L148.5897 88.8694
" />
<path d="M148.5897 88.5445
L148.2647 88.8694
" />
<path d="M148.4469 80.0616
L148.7719 80.3866
" />
<path d="M148.7719 80.0616
L148.4469 80.3866
" />
<path d="M148.4469 81.4697
L148.7719 81.7946
" />
<path d="M148.7719 81.4697
L148.4469 81.7946
" />
<path d="M148.4469 82.8778
L148.7719 83.2027
" />
<path d="M148.7719 82.8778
L148.4469 83.2027
" />
<path d="M148.8797 76.8923
L149.2046 77.2172
" />
<path d="M149.2046 76.8923
L148.8797 77.2172
" />
<path d="M148.8807 37.6040
L149.2057 37.9290
" />
<path d="M149.2057 37.6040
L148.8807 37.9290
" />
<path d="M148.8807 74.4510
L149.2057 74.7759
" />
<path d="M149.2057 74.4510
L148.8807 74.7759
" />
<path d="M149.0968 83.7627
L149.4218 84.0877
" />
<path d="M149.4218 83.7627
L149.0968 84.0877
" />
<path d="M149.1510 15.1815
L149.4759 15.5065
" />
<path d="M149.4759 15.1815
L149.1510 15.5065
" />
<path d="M149.3135 79.0868
L149.6384 79.4117
" />
<path d="M149.6384 79.0868
L149.3135 79.4117
" />
<path d="M149.4218 11.1739
L149.7467 11.4988
" />
<path d="M149.7467 11.1739
L149.4218 11.4988
" />
<path d="M149.5842 32.4576
L149.9092 32.7825
" />
<path d="M149.9092 32.4576
L149.5842 32.7825
" />
<path d="M149.7467 91.9762
L150.0717 92.3011
" />
<path d="M150.0717 91.9762
L149.7467 92.3011
" />
<path d="M149.8550 80.0616
L150.1800 80.3866
" />
<path d="M150.1800 80.0616
L149.8550 80.3866
" />
<path d="M149.8550 81.4697
L150.1800 81.7946
" />
<path d="M150.1800 81.4697
L149.8550 81.7946
" />
<path d="M149.8550 82.8778
L150.1800 83.2027
" />
<path d="M150.1800 82.8778
L149.8550 83.2027
" />
<path d="M150.0236 87.7039
L150.3486 88.0288
" />
<path d="M150.3486 87.7039
L150.0236 88.0288
" />
<path d="M150.8299 86.9937
L151.1548 87.3187
" />
<path d="M151.1548 86.9937
L150.8299 87.3187
" />
<path d="M151.0459 35.6529
L151.3709 35.9778
" />
<path d="M151.3709 35.6529
L151.0459 35.9778
" />
<path d="M151.0459 37.6040
L151.3709 37.9290
" />
<path d="M151.3709 37.6040
L151.0459 37.9290
" />
<path d="M151.0459 41.0144
L151.3709 41.3394
" />
<path d="M151.3709 41.0144
L151.0459 41.3394
" />
<path d="M151.0459 45.7261
L151.3709 46.0510
" />
<path d="M151.3709 45.7261
L151.0459 46.0510
" />
<path d="M151.0459 58.2378
L151.3709 58.5628
" />
<path d="M151.3709 58.2378
L151.0459 58.5628
" />
<path d="M151.0459 66.6307
L151.3709 66.9556
" />
<path d="M151.3709 66.6307
L151.0459 66.9556
" />
<path d="M151.2631 50.6002
L151.5880 50.9251
" />
<path d="M151.5880 50.6002
L151.2631 50.9251
" />
<path d="M151.2631 51.4662
L151.5880 51.7911
" />
<path d="M151.5880 51.4662
L151.2631 51.7911
" />
<path d="M151.2631 72.5880
L151.5880 72.9129
" />
<path d="M151.5880 72.5880
L151.2631 72.9129
" />
<path d="M152.5629 91.3263
L152.8878 91.6512
" />
<path d="M152.8878 91.3263
L152.5629 91.6512
" />
<path d="M153.2128 82.5528
L153.5377 82.8778
" />
<path d="M153.5377 82.5528
L153.2128 82.8778
" />
<path d="M153.2642 74.4618
L153.5892 74.7867
" />
<path d="M153.5892 74.4618
L153.2642 74.7867
" />
<path d="M153.8626 15.2898
L154.1876 15.6148
" />
<path d="M154.1876 15.2898
L153.8626 15.6148
" />
<path d="M155.7798 101.6161
L156.1047 101.9411
" />
<path d="M156.1047 101.6161
L155.7798 101.9411
" />
<path d="M156.5705 27.3127
L156.8954 27.6376
" />
<path d="M156.8954 27.3127
L156.5705 27.6376
" />
<path d="M156.5705 28.2875
L156.8954 28.6125
" />
<path d="M156.8954 28.2875
L156.5705 28.6125
" />
<path d="M159.4950 90.6764
L159.8199 91.0013
" />
<path d="M159.8199 90.6764
L159.4950 91.0013
" />
<path d="M160.7189 101.6161
L161.0439 101.9411
" />
<path d="M161.0439 101.6161
L160.7189 101.9411
" />
<path d="M160.9031 67.8221
L161.2280 68.1471
" />
<path d="M161.2280 67.8221
L160.9031 68.1471
" />
<path d="M160.9388 69.6277
L161.2637 69.9527
" />
<path d="M161.2637 69.6277
L160.9388 69.9527
" />
<path d="M161.5218 49.0792
L161.8467 49.4041
" />
<path d="M161.8467 49.0792
L161.5218 49.4041
" />
<path d="M161.5529 47.1699
L161.8779 47.4948
" />
<path d="M161.8779 47.1699
L161.5529 47.4948
" />
<path d="M161.6613 99.5284
L161.9862 99.8533
" />
<path d="M161.9862 99.5284
L161.6613 99.8533
" />
<path d="M161.6802 75.6857
L162.0052 76.0107
" />
<path d="M162.0052 75.6857
L161.6802 76.0107
" />
<path d="M161.7804 104.5839
L162.1053 104.9089
" />
<path d="M162.1053 104.5839
L161.7804 104.9089
" />
<path d="M162.4195 27.3127
L162.7444 27.6376
" />
<path d="M162.7444 27.3127
L162.4195 27.6376
" />
<path d="M162.4195 28.2875
L162.7444 28.6125
" />
<path d="M162.7444 28.2875
L162.4195 28.6125
" />
<path d="M163.2860 90.7847
L163.6109 91.1096
" />
<path d="M163.6109 90.7847
L163.2860 91.1096
" />
<path d="M163.2860 99.4498
L163.6109 99.7748
" />
<path d="M163.6109 99.4498
L163.2860 99.7748
" />
<path d="M163.2860 101.5078
L163.6109 101.8327
" />
<path d="M163.6109 101.5078
L163.2860 101.8327
" />
<path d="M169.6765 59.4737
L170.0014 59.7986
" />
<path d="M170.0014 59.4737
L169.6765 59.7986
" />
<path d="M169.6765 71.9386
L170.0014 72.2636
" />
<path d="M170.0014 71.9386
L169.6765 72.2636
" />
<path d="M169.6770 60.7724
L170.0020 61.0973
" />
<path d="M170.0020 60.7724
L169.6770 61.0973
" />
<path d="M169.6770 73.2373
L170.0020 73.5622
" />
<path d="M170.0020 73.2373
L169.6770 73.5622
" />
<path d="M170.5430 59.4737
L170.8679 59.7986
" />
<path d="M170.8679 59.4737
L170.5430 59.7986
" />
<path d="M170.5430 60.7724
L170.8679 61.0973
" />
<path d="M170.8679 60.7724
L170.5430 61.0973
" />
<path d="M170.5430 71.9386
L170.8679 72.2636
" />
<path d="M170.8679 71.9386
L170.5430 72.2636
" />
<path d="M170.5430 73.2373
L170.8679 73.5622
" />
<path d="M170.8679 73.2373
L170.5430 73.5622
" />
<path d="M223.4002 26.1754
L223.7252 26.5003
" />
<path d="M223.7252 26.1754
L223.4002 26.5003
" />
<path d="M223.4233 28.3912
L223.7482 28.7162
" />
<path d="M223.7482 28.3912
L223.4233 28.7162
" />
<path d="M223.4544 47.1049
L223.7793 47.4299
" />
<path d="M223.7793 47.1049
L223.4544 47.4299
" />
<path d="M223.4544 48.8748
L223.7793 49.1997
" />
<path d="M223.7793 48.8748
L223.4544 49.1997
" />
</g>
<g style="fill:#000000; fill-opacity:0.0; 
stroke:#000000; stroke-width:0.0650; stroke-opacity:1; 
stroke-linecap:round; stroke-linejoin:round;">
<circle cx="143.8219" cy="8.0057" r="0.3249" /> 
</g>
<g style="fill:#000000; fill-opacity:0.0; 
stroke:#000000; stroke-width:0.2166; stroke-opacity:1; 
stroke-linecap:round; stroke-linejoin:round;">
<path d="M144.1469 8.4390
L144.1469 7.5725
" />
<path d="M144.1469 7.5725 A0.3249 0.3249 0.0 0 0 143.4970 7.5725" />
<path d="M143.4970 7.5725
L143.4970 8.4390
" />
<path d="M143.4970 8.4390 A0.3249 0.3249 0.0 0 0 144.1469 8.4390" />
</g>
<g style="fill:#000000; fill-opacity:0.0; 
stroke:#000000; stroke-width:0.0650; stroke-opacity:1; 
stroke-linecap:round; stroke-linejoin:round;">
<circle cx="143.8219" cy="12.5332" r="0.3249" /> 
</g>
<g style="fill:#000000; fill-opacity:0.0; 
stroke:#000000; stroke-width:0.2166; stroke-opacity:1; 
stroke-linecap:round; stroke-linejoin:round;">
<path d="M144.1469 13.1290
L144.1469 11.9375
" />
<path d="M144.1469 11.9375 A0.3249 0.3249 0.0 0 0 143.4970 11.9375" />
<path d="M143.4970 11.9375
L143.4970 13.1290
" />
<path d="M143.4970 13.1290 A0.3249 0.3249 0.0 0 0 144.1469 13.1290" />
</g>
<g style="fill:#000000; fill-opacity:0.0; 
stroke:#000000; stroke-width:0.0650; stroke-opacity:1; 
stroke-linecap:round; stroke-linejoin:round;">
<circle cx="153.1803" cy="8.0057" r="0.3249" /> 
</g>
<g style="fill:#000000; fill-opacity:0.0; 
stroke:#000000; stroke-width:0.2166; stroke-opacity:1; 
stroke-linecap:round; stroke-linejoin:round;">
<path d="M153.5052 8.4390
L153.5052 7.5725
" />
<path d="M153.5052 7.5725 A0.3249 0.3249 0.0 0 0 152.8553 7.5725" />
<path d="M152.8553 7.5725
L152.8553 8.4390
" />
<path d="M152.8553 8.4390 A0.3249 0.3249 0.0 0 0 153.5052 8.4390" />
</g>
<g style="fill:#000000; fill-opacity:0.0; 
stroke:#000000; stroke-width:0.0650; stroke-opacity:1; 
stroke-linecap:round; stroke-linejoin:round;">
<circle cx="153.1803" cy="12.5332" r="0.3249" /> 
</g>
<g style="fill:#000000; fill-opacity:0.0; 
stroke:#000000; stroke-width:0.2166; stroke-opacity:1; 
stroke-linecap:round; stroke-linejoin:round;">
<path d="M153.5052 13.1290
L153.5052 11.9375
" />
<path d="M153.5052 11.9375 A0.3249 0.3249 0.0 0 0 152.8553 11.9375" />
<path d="M152.8553 11.9375
L152.8553 13.1290
" />
<path d="M152.8553 13.1290 A0.3249 0.3249 0.0 0 0 153.5052 13.1290" />
</g>
<g style="fill:#000000; fill-opacity:0.0; 
stroke:#000000; stroke-width:0.1083; stroke-opacity:1; 
stroke-linecap:round; stroke-linejoin:round;">
<path d="M146.6543 114.2564
L146.6543 115.3395
" />
<path d="M146.1128 114.7979
L147.1959 114.7979
" />
<path d="M146.6543 117.0075
L146.6543 118.0907
" />
<path d="M146.1128 117.5491
L147.1959 117.5491
" />
<path d="M150.5645 114.2564
L150.5645 115.3395
" />
<path d="M150.0229 114.7979
L151.1061 114.7979
" />
<path d="M150.5645 117.0075
L150.5645 118.0907
" />
<path d="M150.0229 117.5491
L151.1061 117.5491
" />
</g>
<g style="fill:#000000; fill-opacity:0.0; 
stroke:#000000; stroke-width:0.1625; stroke-opacity:1; 
stroke-linecap:round; stroke-linejoin:round;">
<path style="fill:#000000; fill-opacity:0.0; 
stroke:#000000; stroke-width:0.1625; stroke-opacity:1; 
stroke-linecap:round; stroke-linejoin:round;fill:none"
d="M 31.5778,81.4938
31.5778,80.3449
30.4290,80.3449
30.4290,81.4938
Z" /> 
<path style="fill:#000000; fill-opacity:0.0; 
stroke:#000000; stroke-width:0.1625; stroke-opacity:1; 
stroke-linecap:round; stroke-linejoin:round;fill:none"
d="M 38.4558,78.7426
38.4558,77.5937
37.3069,77.5937
37.3069,78.7426
Z" /> 
<path style="fill:#000000; fill-opacity:0.0; 
stroke:#000000; stroke-width:0.1625; stroke-opacity:1; 
stroke-linecap:round; stroke-linejoin:round;fill:none"
d="M 41.8947,19.5923
41.8947,18.4434
40.7459,18.4434
40.7459,19.5923
Z" /> 
<path style="fill:#000000; fill-opacity:0.0; 
stroke:#000000; stroke-width:0.1625; stroke-opacity:1; 
stroke-linecap:round; stroke-linejoin:round;fill:none"
d="M 48.7727,16.8411
48.7727,15.6923
47.6238,15.6923
47.6238,16.8411
Z" /> 
<path style="fill:#000000; fill-opacity:0.0; 
stroke:#000000; stroke-width:0.1625; stroke-opacity:1; 
stroke-linecap:round; stroke-linejoin:round;fill:none"
d="M 52.2116,40.2261
52.2116,39.0773
51.0628,39.0773
51.0628,40.2261
Z" /> 
<path style="fill:#000000; fill-opacity:0.0; 
stroke:#000000; stroke-width:0.1625; stroke-opacity:1; 
stroke-linecap:round; stroke-linejoin:round;fill:none"
d="M 59.0896,37.4749
59.0896,36.3261
57.9407,36.3261
57.9407,37.4749
Z" /> 
<path style="fill:#000000; fill-opacity:0.0; 
stroke:#000000; stroke-width:0.1625; stroke-opacity:1; 
stroke-linecap:round; stroke-linejoin:round;fill:none"
d="M 72.8455,19.5923
72.8455,18.4434
71.6966,18.4434
71.6966,19.5923
Z" /> 
<path style="fill:#000000; fill-opacity:0.0; 
stroke:#000000; stroke-width:0.1625; stroke-opacity:1; 
stroke-linecap:round; stroke-linejoin:round;fill:none"
d="M 72.8455,40.2261
72.8455,39.0773
71.6966,39.0773
71.6966,40.2261
Z" /> 
<path style="fill:#000000; fill-opacity:0.0; 
stroke:#000000; stroke-width:0.1625; stroke-opacity:1; 
stroke-linecap:round; stroke-linejoin:round;fill:none"
d="M 72.8455,60.8599
72.8455,59.7111
71.6966,59.7111
71.6966,60.8599
Z" /> 
<path style="fill:#000000; fill-opacity:0.0; 
stroke:#000000; stroke-width:0.1625; stroke-opacity:1; 
stroke-linecap:round; stroke-linejoin:round;fill:none"
d="M 79.7234,16.8411
79.7234,15.6923
78.5746,15.6923
78.5746,16.8411
Z" /> 
<path style="fill:#000000; fill-opacity:0.0; 
stroke:#000000; stroke-width:0.1625; stroke-opacity:1; 
stroke-linecap:round; stroke-linejoin:round;fill:none"
d="M 79.7234,37.4749
79.7234,36.3261
78.5746,36.3261
78.5746,37.4749
Z" /> 
<path style="fill:#000000; fill-opacity:0.0; 
stroke:#000000; stroke-width:0.1625; stroke-opacity:1; 
stroke-linecap:round; stroke-linejoin:round;fill:none"
d="M 79.7234,58.1088
79.7234,56.9599
78.5746,56.9599
78.5746,58.1088
Z" /> 
<path style="fill:#000000; fill-opacity:0.0; 
stroke:#000000; stroke-width:0.1625; stroke-opacity:1; 
stroke-linecap:round; stroke-linejoin:round;fill:none"
d="M 93.4793,40.2261
93.4793,39.0773
92.3304,39.0773
92.3304,40.2261
Z" /> 
<path style="fill:#000000; fill-opacity:0.0; 
stroke:#000000; stroke-width:0.1625; stroke-opacity:1; 
stroke-linecap:round; stroke-linejoin:round;fill:none"
d="M 100.3572,37.4749
100.3572,36.3261
99.2084,36.3261
99.2084,37.4749
Z" /> 
<path style="fill:#000000; fill-opacity:0.0; 
stroke:#000000; stroke-width:0.1625; stroke-opacity:1; 
stroke-linecap:round; stroke-linejoin:round;fill:none"
d="M 103.7962,102.1276
103.7962,100.9787
102.6473,100.9787
102.6473,102.1276
Z" /> 
<path style="fill:#000000; fill-opacity:0.0; 
stroke:#000000; stroke-width:0.1625; stroke-opacity:1; 
stroke-linecap:round; stroke-linejoin:round;fill:none"
d="M 110.6741,99.3764
110.6741,98.2275
109.5253,98.2275
109.5253,99.3764
Z" /> 
<path style="fill:#000000; fill-opacity:0.0; 
stroke:#000000; stroke-width:0.1625; stroke-opacity:1; 
stroke-linecap:round; stroke-linejoin:round;fill:none"
d="M 134.7469,40.2261
134.7469,39.0773
133.5981,39.0773
133.5981,40.2261
Z" /> 
<path style="fill:#000000; fill-opacity:0.0; 
stroke:#000000; stroke-width:0.1625; stroke-opacity:1; 
stroke-linecap:round; stroke-linejoin:round;fill:none"
d="M 134.7469,60.8599
134.7469,59.7111
133.5981,59.7111
133.5981,60.8599
Z" /> 
<path style="fill:#000000; fill-opacity:0.0; 
stroke:#000000; stroke-width:0.1625; stroke-opacity:1; 
stroke-linecap:round; stroke-linejoin:round;fill:none"
d="M 141.6249,37.4749
141.6249,36.3261
140.4760,36.3261
140.4760,37.4749
Z" /> 
<path style="fill:#000000; fill-opacity:0.0; 
stroke:#000000; stroke-width:0.1625; stroke-opacity:1; 
stroke-linecap:round; stroke-linejoin:round;fill:none"
d="M 141.6249,58.1088
141.6249,56.9599
140.4760,56.9599
140.4760,58.1088
Z" /> 
<path style="fill:#000000; fill-opacity:0.0; 
stroke:#000000; stroke-width:0.1625; stroke-opacity:1; 
stroke-linecap:round; stroke-linejoin:round;fill:none"
d="M 155.3808,40.2261
155.3808,39.0773
154.2319,39.0773
154.2319,40.2261
Z" /> 
<path style="fill:#000000; fill-opacity:0.0; 
stroke:#000000; stroke-width:0.1625; stroke-opacity:1; 
stroke-linecap:round; stroke-linejoin:round;fill:none"
d="M 155.3808,60.8599
155.3808,59.7111
154.2319,59.7111
154.2319,60.8599
Z" /> 
<path style="fill:#000000; fill-opacity:0.0; 
stroke:#000000; stroke-width:0.1625; stroke-opacity:1; 
stroke-linecap:round; stroke-linejoin:round;fill:none"
d="M 162.2587,37.4749
162.2587,36.3261
161.1098,36.3261
161.1098,37.4749
Z" /> 
<path style="fill:#000000; fill-opacity:0.0; 
stroke:#000000; stroke-width:0.1625; stroke-opacity:1; 
stroke-linecap:round; stroke-linejoin:round;fill:none"
d="M 162.2587,58.1088
162.2587,56.9599
161.1098,56.9599
161.1098,58.1088
Z" /> 
<path style="fill:#000000; fill-opacity:0.0; 
stroke:#000000; stroke-width:0.1625; stroke-opacity:1; 
stroke-linecap:round; stroke-linejoin:round;fill:none"
d="M 186.3315,102.1276
186.3315,100.9787
185.1826,100.9787
185.1826,102.1276
Z" /> 
<path style="fill:#000000; fill-opacity:0.0; 
stroke:#000000; stroke-width:0.1625; stroke-opacity:1; 
stroke-linecap:round; stroke-linejoin:round;fill:none"
d="M 193.2094,99.3764
193.2094,98.2275
192.0606,98.2275
192.0606,99.3764
Z" /> 
<path style="fill:#000000; fill-opacity:0.0; 
stroke:#000000; stroke-width:0.1625; stroke-opacity:1; 
stroke-linecap:round; stroke-linejoin:round;fill:none"
d="M 196.6484,40.2261
196.6484,39.0773
195.4995,39.0773
195.4995,40.2261
Z" /> 
<path style="fill:#000000; fill-opacity:0.0; 
stroke:#000000; stroke-width:0.1625; stroke-opacity:1; 
stroke-linecap:round; stroke-linejoin:round;fill:none"
d="M 203.5263,37.4749
203.5263,36.3261
202.3775,36.3261
202.3775,37.4749
Z" /> 
<path style="fill:#000000; fill-opacity:0.0; 
stroke:#000000; stroke-width:0.1625; stroke-opacity:1; 
stroke-linecap:round; stroke-linejoin:round;fill:none"
d="M 217.2822,19.5923
217.2822,18.4434
216.1334,18.4434
216.1334,19.5923
Z" /> 
<path style="fill:#000000; fill-opacity:0.0; 
stroke:#000000; stroke-width:0.1625; stroke-opacity:1; 
stroke-linecap:round; stroke-linejoin:round;fill:none"
d="M 217.2822,40.2261
217.2822,39.0773
216.1334,39.0773
216.1334,40.2261
Z" /> 
<path style="fill:#000000; fill-opacity:0.0; 
stroke:#000000; stroke-width:0.1625; stroke-opacity:1; 
stroke-linecap:round; stroke-linejoin:round;fill:none"
d="M 217.2822,60.8599
217.2822,59.7111
216.1334,59.7111
216.1334,60.8599
Z" /> 
<path style="fill:#000000; fill-opacity:0.0; 
stroke:#000000; stroke-width:0.1625; stroke-opacity:1; 
stroke-linecap:round; stroke-linejoin:round;fill:none"
d="M 224.1602,16.8411
224.1602,15.6923
223.0113,15.6923
223.0113,16.8411
Z" /> 
<path style="fill:#000000; fill-opacity:0.0; 
stroke:#000000; stroke-width:0.1625; stroke-opacity:1; 
stroke-linecap:round; stroke-linejoin:round;fill:none"
d="M 224.1602,37.4749
224.1602,36.3261
223.0113,36.3261
223.0113,37.4749
Z" /> 
<path style="fill:#000000; fill-opacity:0.0; 
stroke:#000000; stroke-width:0.1625; stroke-opacity:1; 
stroke-linecap:round; stroke-linejoin:round;fill:none"
d="M 224.1602,58.1088
224.1602,56.9599
223.0113,56.9599
223.0113,58.1088
Z" /> 
<path style="fill:#000000; fill-opacity:0.0; 
stroke:#000000; stroke-width:0.1625; stroke-opacity:1; 
stroke-linecap:round; stroke-linejoin:round;fill:none"
d="M 237.9160,40.2261
237.9160,39.0773
236.7672,39.0773
236.7672,40.2261
Z" /> 
<path style="fill:#000000; fill-opacity:0.0; 
stroke:#000000; stroke-width:0.1625; stroke-opacity:1; 
stroke-linecap:round; stroke-linejoin:round;fill:none"
d="M 244.7940,37.4749
244.7940,36.3261
243.6451,36.3261
243.6451,37.4749
Z" /> 
<path style="fill:#000000; fill-opacity:0.0; 
stroke:#000000; stroke-width:0.1625; stroke-opacity:1; 
stroke-linecap:round; stroke-linejoin:round;fill:none"
d="M 248.2330,19.5923
248.2330,18.4434
247.0841,18.4434
247.0841,19.5923
Z" /> 
<path style="fill:#000000; fill-opacity:0.0; 
stroke:#000000; stroke-width:0.1625; stroke-opacity:1; 
stroke-linecap:round; stroke-linejoin:round;fill:none"
d="M 255.1109,16.8411
255.1109,15.6923
253.9620,15.6923
253.9620,16.8411
Z" /> 
<path style="fill:#000000; fill-opacity:0.0; 
stroke:#000000; stroke-width:0.1625; stroke-opacity:1; 
stroke-linecap:round; stroke-linejoin:round;fill:none"
d="M 258.5499,81.4938
258.5499,80.3449
257.4010,80.3449
257.4010,81.4938
Z" /> 
<path style="fill:#000000; fill-opacity:0.0; 
stroke:#000000; stroke-width:0.1625; stroke-opacity:1; 
stroke-linecap:round; stroke-linejoin:round;fill:none"
d="M 265.4278,78.7426
265.4278,77.5937
264.2790,77.5937
264.2790,78.7426
Z" /> 
</g>
<g style="fill:#000000; fill-opacity:0.0; 
stroke:#000000; stroke-width:0.2166; stroke-opacity:1; 
stroke-linecap:round; stroke-linejoin:round;">
</g>
<g style="fill:#000000; fill-opacity:0.0; 
stroke:#000000; stroke-width:0.2000; stroke-opacity:1; 
stroke-linecap:round; stroke-linejoin:round;">
<text x="20.4701" y="124.2043"
textLength="14.8667" font-size="2.6667" lengthAdjust="spacingAndGlyphs"
text-anchor="start" opacity="0">Drill Map:</text>
<g class="stroked-text"><desc>Drill Map:</desc>
<path d="M21.0779 124.1192
L21.0779 122.1192
" />
<path d="M21.0779 122.1192
L21.5541 122.1192
" />
<path d="M21.5541 122.1192
L21.8398 122.2144
" />
<path d="M21.8398 122.2144
L22.0303 122.4049
" />
<path d="M22.0303 122.4049
L22.1255 122.5953
" />
<path d="M22.1255 122.5953
L22.2207 122.9763
" />
<path d="M22.2207 122.9763
L22.2207 123.2620
" />
<path d="M22.2207 123.2620
L22.1255 123.6430
" />
<path d="M22.1255 123.6430
L22.0303 123.8334
" />
<path d="M22.0303 123.8334
L21.8398 124.0239
" />
<path d="M21.8398 124.0239
L21.5541 124.1192
" />
<path d="M21.5541 124.1192
L21.0779 124.1192
" />
<path d="M23.0779 124.1192
L23.0779 122.7858
" />
<path d="M23.0779 123.1668
L23.1731 122.9763
" />
<path d="M23.1731 122.9763
L23.2684 122.8811
" />
<path d="M23.2684 122.8811
L23.4588 122.7858
" />
<path d="M23.4588 122.7858
L23.6493 122.7858
" />
<path d="M24.3160 124.1192
L24.3160 122.7858
" />
<path d="M24.3160 122.1192
L24.2207 122.2144
" />
<path d="M24.2207 122.2144
L24.3160 122.3096
" />
<path d="M24.3160 122.3096
L24.4112 122.2144
" />
<path d="M24.4112 122.2144
L24.3160 122.1192
" />
<path d="M24.3160 122.1192
L24.3160 122.3096
" />
<path d="M25.5541 124.1192
L25.3636 124.0239
" />
<path d="M25.3636 124.0239
L25.2684 123.8334
" />
<path d="M25.2684 123.8334
L25.2684 122.1192
" />
<path d="M26.6017 124.1192
L26.4112 124.0239
" />
<path d="M26.4112 124.0239
L26.3160 123.8334
" />
<path d="M26.3160 123.8334
L26.3160 122.1192
" />
<path d="M28.8874 124.1192
L28.8874 122.1192
" />
<path d="M28.8874 122.1192
L29.5541 123.5477
" />
<path d="M29.5541 123.5477
L30.2207 122.1192
" />
<path d="M30.2207 122.1192
L30.2207 124.1192
" />
<path d="M32.0303 124.1192
L32.0303 123.0715
" />
<path d="M32.0303 123.0715
L31.9350 122.8811
" />
<path d="M31.9350 122.8811
L31.7445 122.7858
" />
<path d="M31.7445 122.7858
L31.3636 122.7858
" />
<path d="M31.3636 122.7858
L31.1731 122.8811
" />
<path d="M32.0303 124.0239
L31.8398 124.1192
" />
<path d="M31.8398 124.1192
L31.3636 124.1192
" />
<path d="M31.3636 124.1192
L31.1731 124.0239
" />
<path d="M31.1731 124.0239
L31.0779 123.8334
" />
<path d="M31.0779 123.8334
L31.0779 123.6430
" />
<path d="M31.0779 123.6430
L31.1731 123.4525
" />
<path d="M31.1731 123.4525
L31.3636 123.3573
" />
<path d="M31.3636 123.3573
L31.8398 123.3573
" />
<path d="M31.8398 123.3573
L32.0303 123.2620
" />
<path d="M32.9826 122.7858
L32.9826 124.7858
" />
<path d="M32.9826 122.8811
L33.1731 122.7858
" />
<path d="M33.1731 122.7858
L33.5541 122.7858
" />
<path d="M33.5541 122.7858
L33.7445 122.8811
" />
<path d="M33.7445 122.8811
L33.8398 122.9763
" />
<path d="M33.8398 122.9763
L33.9350 123.1668
" />
<path d="M33.9350 123.1668
L33.9350 123.7382
" />
<path d="M33.9350 123.7382
L33.8398 123.9287
" />
<path d="M33.8398 123.9287
L33.7445 124.0239
" />
<path d="M33.7445 124.0239
L33.5541 124.1192
" />
<path d="M33.5541 124.1192
L33.1731 124.1192
" />
<path d="M33.1731 124.1192
L32.9826 124.0239
" />
<path d="M34.7922 123.9287
L34.8874 124.0239
" />
<path d="M34.8874 124.0239
L34.7922 124.1192
" />
<path d="M34.7922 124.1192
L34.6969 124.0239
" />
<path d="M34.6969 124.0239
L34.7922 123.9287
" />
<path d="M34.7922 123.9287
L34.7922 124.1192
" />
<path d="M34.7922 122.8811
L34.8874 122.9763
" />
<path d="M34.8874 122.9763
L34.7922 123.0715
" />
<path d="M34.7922 123.0715
L34.6969 122.9763
" />
<path d="M34.6969 122.9763
L34.7922 122.8811
" />
<path d="M34.7922 122.8811
L34.7922 123.0715
" />
</g></g>
<g style="fill:#000000; fill-opacity:0.0; 
stroke:#000000; stroke-width:0.0325; stroke-opacity:1; 
stroke-linecap:round; stroke-linejoin:round;">
<path d="M18.1452 127.2418
L18.4701 127.5668
" />
<path d="M18.4701 127.2418
L18.1452 127.5668
" />
</g>
<g style="fill:#000000; fill-opacity:0.0; 
stroke:#000000; stroke-width:0.2166; stroke-opacity:1; 
stroke-linecap:round; stroke-linejoin:round;">
</g>
<g style="fill:#000000; fill-opacity:0.0; 
stroke:#000000; stroke-width:0.2000; stroke-opacity:1; 
stroke-linecap:round; stroke-linejoin:round;">
<text x="20.4701" y="128.4043"
textLength="50.6762" font-size="2.6667" lengthAdjust="spacingAndGlyphs"
text-anchor="start" opacity="0">0.300mm / 0.0118" (160 holes)</text>
<g class="stroked-text"><desc>0.300mm / 0.0118" (160 holes)</desc>
<path d="M21.4588 126.3192
L21.6493 126.3192
" />
<path d="M21.6493 126.3192
L21.8398 126.4144
" />
<path d="M21.8398 126.4144
L21.9350 126.5096
" />
<path d="M21.9350 126.5096
L22.0303 126.7001
" />
<path d="M22.0303 126.7001
L22.1255 127.0811
" />
<path d="M22.1255 127.0811
L22.1255 127.5573
" />
<path d="M22.1255 127.5573
L22.0303 127.9382
" />
<path d="M22.0303 127.9382
L21.9350 128.1287
" />
<path d="M21.9350 128.1287
L21.8398 128.2239
" />
<path d="M21.8398 128.2239
L21.6493 128.3192
" />
<path d="M21.6493 128.3192
L21.4588 128.3192
" />
<path d="M21.4588 128.3192
L21.2684 128.2239
" />
<path d="M21.2684 128.2239
L21.1731 128.1287
" />
<path d="M21.1731 128.1287
L21.0779 127.9382
" />
<path d="M21.0779 127.9382
L20.9826 127.5573
" />
<path d="M20.9826 127.5573
L20.9826 127.0811
" />
<path d="M20.9826 127.0811
L21.0779 126.7001
" />
<path d="M21.0779 126.7001
L21.1731 126.5096
" />
<path d="M21.1731 126.5096
L21.2684 126.4144
" />
<path d="M21.2684 126.4144
L21.4588 126.3192
" />
<path d="M22.9826 128.1287
L23.0779 128.2239
" />
<path d="M23.0779 128.2239
L22.9826 128.3192
" />
<path d="M22.9826 128.3192
L22.8874 128.2239
" />
<path d="M22.8874 128.2239
L22.9826 128.1287
" />
<path d="M22.9826 128.1287
L22.9826 128.3192
" />
<path d="M23.7445 126.3192
L24.9826 126.3192
" />
<path d="M24.9826 126.3192
L24.3160 127.0811
" />
<path d="M24.3160 127.0811
L24.6017 127.0811
" />
<path d="M24.6017 127.0811
L24.7922 127.1763
" />
<path d="M24.7922 127.1763
L24.8874 127.2715
" />
<path d="M24.8874 127.2715
L24.9826 127.4620
" />
<path d="M24.9826 127.4620
L24.9826 127.9382
" />
<path d="M24.9826 127.9382
L24.8874 128.1287
" />
<path d="M24.8874 128.1287
L24.7922 128.2239
" />
<path d="M24.7922 128.2239
L24.6017 128.3192
" />
<path d="M24.6017 128.3192
L24.0303 128.3192
" />
<path d="M24.0303 128.3192
L23.8398 128.2239
" />
<path d="M23.8398 128.2239
L23.7445 128.1287
" />
<path d="M26.2207 126.3192
L26.4112 126.3192
" />
<path d="M26.4112 126.3192
L26.6017 126.4144
" />
<path d="M26.6017 126.4144
L26.6969 126.5096
" />
<path d="M26.6969 126.5096
L26.7922 126.7001
" />
<path d="M26.7922 126.7001
L26.8874 127.0811
" />
<path d="M26.8874 127.0811
L26.8874 127.5573
" />
<path d="M26.8874 127.5573
L26.7922 127.9382
" />
<path d="M26.7922 127.9382
L26.6969 128.1287
" />
<path d="M26.6969 128.1287
L26.6017 128.2239
" />
<path d="M26.6017 128.2239
L26.4112 128.3192
" />
<path d="M26.4112 128.3192
L26.2207 128.3192
" />
<path d="M26.2207 128.3192
L26.0303 128.2239
" />
<path d="M26.0303 128.2239
L25.9350 128.1287
" />
<path d="M25.9350 128.1287
L25.8398 127.9382
" />
<path d="M25.8398 127.9382
L25.7445 127.5573
" />
<path d="M25.7445 127.5573
L25.7445 127.0811
" />
<path d="M25.7445 127.0811
L25.8398 126.7001
" />
<path d="M25.8398 126.7001
L25.9350 126.5096
" />
<path d="M25.9350 126.5096
L26.0303 126.4144
" />
<path d="M26.0303 126.4144
L26.2207 126.3192
" />
<path d="M28.1255 126.3192
L28.3160 126.3192
" />
<path d="M28.3160 126.3192
L28.5065 126.4144
" />
<path d="M28.5065 126.4144
L28.6017 126.5096
" />
<path d="M28.6017 126.5096
L28.6969 126.7001
" />
<path d="M28.6969 126.7001
L28.7922 127.0811
" />
<path d="M28.7922 127.0811
L28.7922 127.5573
" />
<path d="M28.7922 127.5573
L28.6969 127.9382
" />
<path d="M28.6969 127.9382
L28.6017 128.1287
" />
<path d="M28.6017 128.1287
L28.5065 128.2239
" />
<path d="M28.5065 128.2239
L28.3160 128.3192
" />
<path d="M28.3160 128.3192
L28.1255 128.3192
" />
<path d="M28.1255 128.3192
L27.9350 128.2239
" />
<path d="M27.9350 128.2239
L27.8398 128.1287
" />
<path d="M27.8398 128.1287
L27.7445 127.9382
" />
<path d="M27.7445 127.9382
L27.6493 127.5573
" />
<path d="M27.6493 127.5573
L27.6493 127.0811
" />
<path d="M27.6493 127.0811
L27.7445 126.7001
" />
<path d="M27.7445 126.7001
L27.8398 126.5096
" />
<path d="M27.8398 126.5096
L27.9350 126.4144
" />
<path d="M27.9350 126.4144
L28.1255 126.3192
" />
<path d="M29.6493 128.3192
L29.6493 126.9858
" />
<path d="M29.6493 127.1763
L29.7445 127.0811
" />
<path d="M29.7445 127.0811
L29.9350 126.9858
" />
<path d="M29.9350 126.9858
L30.2207 126.9858
" />
<path d="M30.2207 126.9858
L30.4112 127.0811
" />
<path d="M30.4112 127.0811
L30.5065 127.2715
" />
<path d="M30.5065 127.2715
L30.5065 128.3192
" />
<path d="M30.5065 127.2715
L30.6017 127.0811
" />
<path d="M30.6017 127.0811
L30.7922 126.9858
" />
<path d="M30.7922 126.9858
L31.0779 126.9858
" />
<path d="M31.0779 126.9858
L31.2684 127.0811
" />
<path d="M31.2684 127.0811
L31.3636 127.2715
" />
<path d="M31.3636 127.2715
L31.3636 128.3192
" />
<path d="M32.3160 128.3192
L32.3160 126.9858
" />
<path d="M32.3160 127.1763
L32.4112 127.0811
" />
<path d="M32.4112 127.0811
L32.6017 126.9858
" />
<path d="M32.6017 126.9858
L32.8874 126.9858
" />
<path d="M32.8874 126.9858
L33.0779 127.0811
" />
<path d="M33.0779 127.0811
L33.1731 127.2715
" />
<path d="M33.1731 127.2715
L33.1731 128.3192
" />
<path d="M33.1731 127.2715
L33.2684 127.0811
" />
<path d="M33.2684 127.0811
L33.4588 126.9858
" />
<path d="M33.4588 126.9858
L33.7445 126.9858
" />
<path d="M33.7445 126.9858
L33.9350 127.0811
" />
<path d="M33.9350 127.0811
L34.0303 127.2715
" />
<path d="M34.0303 127.2715
L34.0303 128.3192
" />
<path d="M37.9350 126.2239
L36.2207 128.7953
" />
<path d="M40.5065 126.3192
L40.6969 126.3192
" />
<path d="M40.6969 126.3192
L40.8874 126.4144
" />
<path d="M40.8874 126.4144
L40.9826 126.5096
" />
<path d="M40.9826 126.5096
L41.0779 126.7001
" />
<path d="M41.0779 126.7001
L41.1731 127.0811
" />
<path d="M41.1731 127.0811
L41.1731 127.5573
" />
<path d="M41.1731 127.5573
L41.0779 127.9382
" />
<path d="M41.0779 127.9382
L40.9826 128.1287
" />
<path d="M40.9826 128.1287
L40.8874 128.2239
" />
<path d="M40.8874 128.2239
L40.6969 128.3192
" />
<path d="M40.6969 128.3192
L40.5065 128.3192
" />
<path d="M40.5065 128.3192
L40.3160 128.2239
" />
<path d="M40.3160 128.2239
L40.2207 128.1287
" />
<path d="M40.2207 128.1287
L40.1255 127.9382
" />
<path d="M40.1255 127.9382
L40.0303 127.5573
" />
<path d="M40.0303 127.5573
L40.0303 127.0811
" />
<path d="M40.0303 127.0811
L40.1255 126.7001
" />
<path d="M40.1255 126.7001
L40.2207 126.5096
" />
<path d="M40.2207 126.5096
L40.3160 126.4144
" />
<path d="M40.3160 126.4144
L40.5065 126.3192
" />
<path d="M42.0303 128.1287
L42.1255 128.2239
" />
<path d="M42.1255 128.2239
L42.0303 128.3192
" />
<path d="M42.0303 128.3192
L41.9350 128.2239
" />
<path d="M41.9350 128.2239
L42.0303 128.1287
" />
<path d="M42.0303 128.1287
L42.0303 128.3192
" />
<path d="M43.3636 126.3192
L43.5541 126.3192
" />
<path d="M43.5541 126.3192
L43.7445 126.4144
" />
<path d="M43.7445 126.4144
L43.8398 126.5096
" />
<path d="M43.8398 126.5096
L43.9350 126.7001
" />
<path d="M43.9350 126.7001
L44.0303 127.0811
" />
<path d="M44.0303 127.0811
L44.0303 127.5573
" />
<path d="M44.0303 127.5573
L43.9350 127.9382
" />
<path d="M43.9350 127.9382
L43.8398 128.1287
" />
<path d="M43.8398 128.1287
L43.7445 128.2239
" />
<path d="M43.7445 128.2239
L43.5541 128.3192
" />
<path d="M43.5541 128.3192
L43.3636 128.3192
" />
<path d="M43.3636 128.3192
L43.1731 128.2239
" />
<path d="M43.1731 128.2239
L43.0779 128.1287
" />
<path d="M43.0779 128.1287
L42.9826 127.9382
" />
<path d="M42.9826 127.9382
L42.8874 127.5573
" />
<path d="M42.8874 127.5573
L42.8874 127.0811
" />
<path d="M42.8874 127.0811
L42.9826 126.7001
" />
<path d="M42.9826 126.7001
L43.0779 126.5096
" />
<path d="M43.0779 126.5096
L43.1731 126.4144
" />
<path d="M43.1731 126.4144
L43.3636 126.3192
" />
<path d="M45.9350 128.3192
L44.7922 128.3192
" />
<path d="M45.3636 128.3192
L45.3636 126.3192
" />
<path d="M45.3636 126.3192
L45.1731 126.6049
" />
<path d="M45.1731 126.6049
L44.9826 126.7953
" />
<path d="M44.9826 126.7953
L44.7922 126.8906
" />
<path d="M47.8398 128.3192
L46.6969 128.3192
" />
<path d="M47.2684 128.3192
L47.2684 126.3192
" />
<path d="M47.2684 126.3192
L47.0779 126.6049
" />
<path d="M47.0779 126.6049
L46.8874 126.7953
" />
<path d="M46.8874 126.7953
L46.6969 126.8906
" />
<path d="M48.9826 127.1763
L48.7922 127.0811
" />
<path d="M48.7922 127.0811
L48.6969 126.9858
" />
<path d="M48.6969 126.9858
L48.6017 126.7953
" />
<path d="M48.6017 126.7953
L48.6017 126.7001
" />
<path d="M48.6017 126.7001
L48.6969 126.5096
" />
<path d="M48.6969 126.5096
L48.7922 126.4144
" />
<path d="M48.7922 126.4144
L48.9826 126.3192
" />
<path d="M48.9826 126.3192
L49.3636 126.3192
" />
<path d="M49.3636 126.3192
L49.5541 126.4144
" />
<path d="M49.5541 126.4144
L49.6493 126.5096
" />
<path d="M49.6493 126.5096
L49.7445 126.7001
" />
<path d="M49.7445 126.7001
L49.7445 126.7953
" />
<path d="M49.7445 126.7953
L49.6493 126.9858
" />
<path d="M49.6493 126.9858
L49.5541 127.0811
" />
<path d="M49.5541 127.0811
L49.3636 127.1763
" />
<path d="M49.3636 127.1763
L48.9826 127.1763
" />
<path d="M48.9826 127.1763
L48.7922 127.2715
" />
<path d="M48.7922 127.2715
L48.6969 127.3668
" />
<path d="M48.6969 127.3668
L48.6017 127.5573
" />
<path d="M48.6017 127.5573
L48.6017 127.9382
" />
<path d="M48.6017 127.9382
L48.6969 128.1287
" />
<path d="M48.6969 128.1287
L48.7922 128.2239
" />
<path d="M48.7922 128.2239
L48.9826 128.3192
" />
<path d="M48.9826 128.3192
L49.3636 128.3192
" />
<path d="M49.3636 128.3192
L49.5541 128.2239
" />
<path d="M49.5541 128.2239
L49.6493 128.1287
" />
<path d="M49.6493 128.1287
L49.7445 127.9382
" />
<path d="M49.7445 127.9382
L49.7445 127.5573
" />
<path d="M49.7445 127.5573
L49.6493 127.3668
" />
<path d="M49.6493 127.3668
L49.5541 127.2715
" />
<path d="M49.5541 127.2715
L49.3636 127.1763
" />
<path d="M50.5065 126.3192
L50.5065 126.7001
" />
<path d="M51.2684 126.3192
L51.2684 126.7001
" />
<path d="M54.2207 129.0811
L54.1255 128.9858
" />
<path d="M54.1255 128.9858
L53.9350 128.7001
" />
<path d="M53.9350 128.7001
L53.8398 128.5096
" />
<path d="M53.8398 128.5096
L53.7445 128.2239
" />
<path d="M53.7445 128.2239
L53.6493 127.7477
" />
<path d="M53.6493 127.7477
L53.6493 127.3668
" />
<path d="M53.6493 127.3668
L53.7445 126.8906
" />
<path d="M53.7445 126.8906
L53.8398 126.6049
" />
<path d="M53.8398 126.6049
L53.9350 126.4144
" />
<path d="M53.9350 126.4144
L54.1255 126.1287
" />
<path d="M54.1255 126.1287
L54.2207 126.0334
" />
<path d="M56.0303 128.3192
L54.8874 128.3192
" />
<path d="M55.4588 128.3192
L55.4588 126.3192
" />
<path d="M55.4588 126.3192
L55.2684 126.6049
" />
<path d="M55.2684 126.6049
L55.0779 126.7953
" />
<path d="M55.0779 126.7953
L54.8874 126.8906
" />
<path d="M57.7445 126.3192
L57.3636 126.3192
" />
<path d="M57.3636 126.3192
L57.1731 126.4144
" />
<path d="M57.1731 126.4144
L57.0779 126.5096
" />
<path d="M57.0779 126.5096
L56.8874 126.7953
" />
<path d="M56.8874 126.7953
L56.7922 127.1763
" />
<path d="M56.7922 127.1763
L56.7922 127.9382
" />
<path d="M56.7922 127.9382
L56.8874 128.1287
" />
<path d="M56.8874 128.1287
L56.9826 128.2239
" />
<path d="M56.9826 128.2239
L57.1731 128.3192
" />
<path d="M57.1731 128.3192
L57.5541 128.3192
" />
<path d="M57.5541 128.3192
L57.7445 128.2239
" />
<path d="M57.7445 128.2239
L57.8398 128.1287
" />
<path d="M57.8398 128.1287
L57.9350 127.9382
" />
<path d="M57.9350 127.9382
L57.9350 127.4620
" />
<path d="M57.9350 127.4620
L57.8398 127.2715
" />
<path d="M57.8398 127.2715
L57.7445 127.1763
" />
<path d="M57.7445 127.1763
L57.5541 127.0811
" />
<path d="M57.5541 127.0811
L57.1731 127.0811
" />
<path d="M57.1731 127.0811
L56.9826 127.1763
" />
<path d="M56.9826 127.1763
L56.8874 127.2715
" />
<path d="M56.8874 127.2715
L56.7922 127.4620
" />
<path d="M59.1731 126.3192
L59.3636 126.3192
" />
<path d="M59.3636 126.3192
L59.5541 126.4144
" />
<path d="M59.5541 126.4144
L59.6493 126.5096
" />
<path d="M59.6493 126.5096
L59.7445 126.7001
" />
<path d="M59.7445 126.7001
L59.8398 127.0811
" />
<path d="M59.8398 127.0811
L59.8398 127.5573
" />
<path d="M59.8398 127.5573
L59.7445 127.9382
" />
<path d="M59.7445 127.9382
L59.6493 128.1287
" />
<path d="M59.6493 128.1287
L59.5541 128.2239
" />
<path d="M59.5541 128.2239
L59.3636 128.3192
" />
<path d="M59.3636 128.3192
L59.1731 128.3192
" />
<path d="M59.1731 128.3192
L58.9826 128.2239
" />
<path d="M58.9826 128.2239
L58.8874 128.1287
" />
<path d="M58.8874 128.1287
L58.7922 127.9382
" />
<path d="M58.7922 127.9382
L58.6969 127.5573
" />
<path d="M58.6969 127.5573
L58.6969 127.0811
" />
<path d="M58.6969 127.0811
L58.7922 126.7001
" />
<path d="M58.7922 126.7001
L58.8874 126.5096
" />
<path d="M58.8874 126.5096
L58.9826 126.4144
" />
<path d="M58.9826 126.4144
L59.1731 126.3192
" />
<path d="M62.2207 128.3192
L62.2207 126.3192
" />
<path d="M63.0779 128.3192
L63.0779 127.2715
" />
<path d="M63.0779 127.2715
L62.9826 127.0811
" />
<path d="M62.9826 127.0811
L62.7922 126.9858
" />
<path d="M62.7922 126.9858
L62.5065 126.9858
" />
<path d="M62.5065 126.9858
L62.3160 127.0811
" />
<path d="M62.3160 127.0811
L62.2207 127.1763
" />
<path d="M64.3160 128.3192
L64.1255 128.2239
" />
<path d="M64.1255 128.2239
L64.0303 128.1287
" />
<path d="M64.0303 128.1287
L63.9350 127.9382
" />
<path d="M63.9350 127.9382
L63.9350 127.3668
" />
<path d="M63.9350 127.3668
L64.0303 127.1763
" />
<path d="M64.0303 127.1763
L64.1255 127.0811
" />
<path d="M64.1255 127.0811
L64.3160 126.9858
" />
<path d="M64.3160 126.9858
L64.6017 126.9858
" />
<path d="M64.6017 126.9858
L64.7922 127.0811
" />
<path d="M64.7922 127.0811
L64.8874 127.1763
" />
<path d="M64.8874 127.1763
L64.9826 127.3668
" />
<path d="M64.9826 127.3668
L64.9826 127.9382
" />
<path d="M64.9826 127.9382
L64.8874 128.1287
" />
<path d="M64.8874 128.1287
L64.7922 128.2239
" />
<path d="M64.7922 128.2239
L64.6017 128.3192
" />
<path d="M64.6017 128.3192
L64.3160 128.3192
" />
<path d="M66.1255 128.3192
L65.9350 128.2239
" />
<path d="M65.9350 128.2239
L65.8398 128.0334
" />
<path d="M65.8398 128.0334
L65.8398 126.3192
" />
<path d="M67.6493 128.2239
L67.4588 128.3192
" />
<path d="M67.4588 128.3192
L67.0779 128.3192
" />
<path d="M67.0779 128.3192
L66.8874 128.2239
" />
<path d="M66.8874 128.2239
L66.7922 128.0334
" />
<path d="M66.7922 128.0334
L66.7922 127.2715
" />
<path d="M66.7922 127.2715
L66.8874 127.0811
" />
<path d="M66.8874 127.0811
L67.0779 126.9858
" />
<path d="M67.0779 126.9858
L67.4588 126.9858
" />
<path d="M67.4588 126.9858
L67.6493 127.0811
" />
<path d="M67.6493 127.0811
L67.7445 127.2715
" />
<path d="M67.7445 127.2715
L67.7445 127.4620
" />
<path d="M67.7445 127.4620
L66.7922 127.6525
" />
<path d="M68.5064 128.2239
L68.6969 128.3192
" />
<path d="M68.6969 128.3192
L69.0779 128.3192
" />
<path d="M69.0779 128.3192
L69.2684 128.2239
" />
<path d="M69.2684 128.2239
L69.3636 128.0334
" />
<path d="M69.3636 128.0334
L69.3636 127.9382
" />
<path d="M69.3636 127.9382
L69.2684 127.7477
" />
<path d="M69.2684 127.7477
L69.0779 127.6525
" />
<path d="M69.0779 127.6525
L68.7922 127.6525
" />
<path d="M68.7922 127.6525
L68.6017 127.5573
" />
<path d="M68.6017 127.5573
L68.5064 127.3668
" />
<path d="M68.5064 127.3668
L68.5064 127.2715
" />
<path d="M68.5064 127.2715
L68.6017 127.0811
" />
<path d="M68.6017 127.0811
L68.7922 126.9858
" />
<path d="M68.7922 126.9858
L69.0779 126.9858
" />
<path d="M69.0779 126.9858
L69.2684 127.0811
" />
<path d="M70.0303 129.0811
L70.1255 128.9858
" />
<path d="M70.1255 128.9858
L70.3160 128.7001
" />
<path d="M70.3160 128.7001
L70.4112 128.5096
" />
<path d="M70.4112 128.5096
L70.5064 128.2239
" />
<path d="M70.5064 128.2239
L70.6017 127.7477
" />
<path d="M70.6017 127.7477
L70.6017 127.3668
" />
<path d="M70.6017 127.3668
L70.5064 126.8906
" />
<path d="M70.5064 126.8906
L70.4112 126.6049
" />
<path d="M70.4112 126.6049
L70.3160 126.4144
" />
<path d="M70.3160 126.4144
L70.1255 126.1287
" />
<path d="M70.1255 126.1287
L70.0303 126.0334
" />
</g></g>
<g style="fill:#000000; fill-opacity:0.0; 
stroke:#000000; stroke-width:0.0650; stroke-opacity:1; 
stroke-linecap:round; stroke-linejoin:round;">
<circle cx="18.1452" cy="130.0443" r="0.3249" /> 
</g>
<g style="fill:#000000; fill-opacity:0.0; 
stroke:#000000; stroke-width:0.2166; stroke-opacity:1; 
stroke-linecap:round; stroke-linejoin:round;">
</g>
<g style="fill:#000000; fill-opacity:0.0; 
stroke:#000000; stroke-width:0.2000; stroke-opacity:1; 
stroke-linecap:round; stroke-linejoin:round;">
<text x="20.4701" y="131.0443"
textLength="63.0571" font-size="2.6667" lengthAdjust="spacingAndGlyphs"
text-anchor="start" opacity="0">0.600mm / 0.0236" (0 holes + 4 slots)</text>
<g class="stroked-text"><desc>0.600mm / 0.0236" (0 holes + 4 slots)</desc>
<path d="M21.4588 128.9592
L21.6493 128.9592
" />
<path d="M21.6493 128.9592
L21.8398 129.0544
" />
<path d="M21.8398 129.0544
L21.9350 129.1496
" />
<path d="M21.9350 129.1496
L22.0303 129.3401
" />
<path d="M22.0303 129.3401
L22.1255 129.7211
" />
<path d="M22.1255 129.7211
L22.1255 130.1973
" />
<path d="M22.1255 130.1973
L22.0303 130.5782
" />
<path d="M22.0303 130.5782
L21.9350 130.7687
" />
<path d="M21.9350 130.7687
L21.8398 130.8639
" />
<path d="M21.8398 130.8639
L21.6493 130.9592
" />
<path d="M21.6493 130.9592
L21.4588 130.9592
" />
<path d="M21.4588 130.9592
L21.2684 130.8639
" />
<path d="M21.2684 130.8639
L21.1731 130.7687
" />
<path d="M21.1731 130.7687
L21.0779 130.5782
" />
<path d="M21.0779 130.5782
L20.9826 130.1973
" />
<path d="M20.9826 130.1973
L20.9826 129.7211
" />
<path d="M20.9826 129.7211
L21.0779 129.3401
" />
<path d="M21.0779 129.3401
L21.1731 129.1496
" />
<path d="M21.1731 129.1496
L21.2684 129.0544
" />
<path d="M21.2684 129.0544
L21.4588 128.9592
" />
<path d="M22.9826 130.7687
L23.0779 130.8639
" />
<path d="M23.0779 130.8639
L22.9826 130.9592
" />
<path d="M22.9826 130.9592
L22.8874 130.8639
" />
<path d="M22.8874 130.8639
L22.9826 130.7687
" />
<path d="M22.9826 130.7687
L22.9826 130.9592
" />
<path d="M24.7922 128.9592
L24.4112 128.9592
" />
<path d="M24.4112 128.9592
L24.2207 129.0544
" />
<path d="M24.2207 129.0544
L24.1255 129.1496
" />
<path d="M24.1255 129.1496
L23.9350 129.4353
" />
<path d="M23.9350 129.4353
L23.8398 129.8163
" />
<path d="M23.8398 129.8163
L23.8398 130.5782
" />
<path d="M23.8398 130.5782
L23.9350 130.7687
" />
<path d="M23.9350 130.7687
L24.0303 130.8639
" />
<path d="M24.0303 130.8639
L24.2207 130.9592
" />
<path d="M24.2207 130.9592
L24.6017 130.9592
" />
<path d="M24.6017 130.9592
L24.7922 130.8639
" />
<path d="M24.7922 130.8639
L24.8874 130.7687
" />
<path d="M24.8874 130.7687
L24.9826 130.5782
" />
<path d="M24.9826 130.5782
L24.9826 130.1020
" />
<path d="M24.9826 130.1020
L24.8874 129.9115
" />
<path d="M24.8874 129.9115
L24.7922 129.8163
" />
<path d="M24.7922 129.8163
L24.6017 129.7211
" />
<path d="M24.6017 129.7211
L24.2207 129.7211
" />
<path d="M24.2207 129.7211
L24.0303 129.8163
" />
<path d="M24.0303 129.8163
L23.9350 129.9115
" />
<path d="M23.9350 129.9115
L23.8398 130.1020
" />
<path d="M26.2207 128.9592
L26.4112 128.9592
" />
<path d="M26.4112 128.9592
L26.6017 129.0544
" />
<path d="M26.6017 129.0544
L26.6969 129.1496
" />
<path d="M26.6969 129.1496
L26.7922 129.3401
" />
<path d="M26.7922 129.3401
L26.8874 129.7211
" />
<path d="M26.8874 129.7211
L26.8874 130.1973
" />
<path d="M26.8874 130.1973
L26.7922 130.5782
" />
<path d="M26.7922 130.5782
L26.6969 130.7687
" />
<path d="M26.6969 130.7687
L26.6017 130.8639
" />
<path d="M26.6017 130.8639
L26.4112 130.9592
" />
<path d="M26.4112 130.9592
L26.2207 130.9592
" />
<path d="M26.2207 130.9592
L26.0303 130.8639
" />
<path d="M26.0303 130.8639
L25.9350 130.7687
" />
<path d="M25.9350 130.7687
L25.8398 130.5782
" />
<path d="M25.8398 130.5782
L25.7445 130.1973
" />
<path d="M25.7445 130.1973
L25.7445 129.7211
" />
<path d="M25.7445 129.7211
L25.8398 129.3401
" />
<path d="M25.8398 129.3401
L25.9350 129.1496
" />
<path d="M25.9350 129.1496
L26.0303 129.0544
" />
<path d="M26.0303 129.0544
L26.2207 128.9592
" />
<path d="M28.1255 128.9592
L28.3160 128.9592
" />
<path d="M28.3160 128.9592
L28.5065 129.0544
" />
<path d="M28.5065 129.0544
L28.6017 129.1496
" />
<path d="M28.6017 129.1496
L28.6969 129.3401
" />
<path d="M28.6969 129.3401
L28.7922 129.7211
" />
<path d="M28.7922 129.7211
L28.7922 130.1973
" />
<path d="M28.7922 130.1973
L28.6969 130.5782
" />
<path d="M28.6969 130.5782
L28.6017 130.7687
" />
<path d="M28.6017 130.7687
L28.5065 130.8639
" />
<path d="M28.5065 130.8639
L28.3160 130.9592
" />
<path d="M28.3160 130.9592
L28.1255 130.9592
" />
<path d="M28.1255 130.9592
L27.9350 130.8639
" />
<path d="M27.9350 130.8639
L27.8398 130.7687
" />
<path d="M27.8398 130.7687
L27.7445 130.5782
" />
<path d="M27.7445 130.5782
L27.6493 130.1973
" />
<path d="M27.6493 130.1973
L27.6493 129.7211
" />
<path d="M27.6493 129.7211
L27.7445 129.3401
" />
<path d="M27.7445 129.3401
L27.8398 129.1496
" />
<path d="M27.8398 129.1496
L27.9350 129.0544
" />
<path d="M27.9350 129.0544
L28.1255 128.9592
" />
<path d="M29.6493 130.9592
L29.6493 129.6258
" />
<path d="M29.6493 129.8163
L29.7445 129.7211
" />
<path d="M29.7445 129.7211
L29.9350 129.6258
" />
<path d="M29.9350 129.6258
L30.2207 129.6258
" />
<path d="M30.2207 129.6258
L30.4112 129.7211
" />
<path d="M30.4112 129.7211
L30.5065 129.9115
" />
<path d="M30.5065 129.9115
L30.5065 130.9592
" />
<path d="M30.5065 129.9115
L30.6017 129.7211
" />
<path d="M30.6017 129.7211
L30.7922 129.6258
" />
<path d="M30.7922 129.6258
L31.0779 129.6258
" />
<path d="M31.0779 129.6258
L31.2684 129.7211
" />
<path d="M31.2684 129.7211
L31.3636 129.9115
" />
<path d="M31.3636 129.9115
L31.3636 130.9592
" />
<path d="M32.3160 130.9592
L32.3160 129.6258
" />
<path d="M32.3160 129.8163
L32.4112 129.7211
" />
<path d="M32.4112 129.7211
L32.6017 129.6258
" />
<path d="M32.6017 129.6258
L32.8874 129.6258
" />
<path d="M32.8874 129.6258
L33.0779 129.7211
" />
<path d="M33.0779 129.7211
L33.1731 129.9115
" />
<path d="M33.1731 129.9115
L33.1731 130.9592
" />
<path d="M33.1731 129.9115
L33.2684 129.7211
" />
<path d="M33.2684 129.7211
L33.4588 129.6258
" />
<path d="M33.4588 129.6258
L33.7445 129.6258
" />
<path d="M33.7445 129.6258
L33.9350 129.7211
" />
<path d="M33.9350 129.7211
L34.0303 129.9115
" />
<path d="M34.0303 129.9115
L34.0303 130.9592
" />
<path d="M37.9350 128.8639
L36.2207 131.4353
" />
<path d="M40.5065 128.9592
L40.6969 128.9592
" />
<path d="M40.6969 128.9592
L40.8874 129.0544
" />
<path d="M40.8874 129.0544
L40.9826 129.1496
" />
<path d="M40.9826 129.1496
L41.0779 129.3401
" />
<path d="M41.0779 129.3401
L41.1731 129.7211
" />
<path d="M41.1731 129.7211
L41.1731 130.1973
" />
<path d="M41.1731 130.1973
L41.0779 130.5782
" />
<path d="M41.0779 130.5782
L40.9826 130.7687
" />
<path d="M40.9826 130.7687
L40.8874 130.8639
" />
<path d="M40.8874 130.8639
L40.6969 130.9592
" />
<path d="M40.6969 130.9592
L40.5065 130.9592
" />
<path d="M40.5065 130.9592
L40.3160 130.8639
" />
<path d="M40.3160 130.8639
L40.2207 130.7687
" />
<path d="M40.2207 130.7687
L40.1255 130.5782
" />
<path d="M40.1255 130.5782
L40.0303 130.1973
" />
<path d="M40.0303 130.1973
L40.0303 129.7211
" />
<path d="M40.0303 129.7211
L40.1255 129.3401
" />
<path d="M40.1255 129.3401
L40.2207 129.1496
" />
<path d="M40.2207 129.1496
L40.3160 129.0544
" />
<path d="M40.3160 129.0544
L40.5065 128.9592
" />
<path d="M42.0303 130.7687
L42.1255 130.8639
" />
<path d="M42.1255 130.8639
L42.0303 130.9592
" />
<path d="M42.0303 130.9592
L41.9350 130.8639
" />
<path d="M41.9350 130.8639
L42.0303 130.7687
" />
<path d="M42.0303 130.7687
L42.0303 130.9592
" />
<path d="M43.3636 128.9592
L43.5541 128.9592
" />
<path d="M43.5541 128.9592
L43.7445 129.0544
" />
<path d="M43.7445 129.0544
L43.8398 129.1496
" />
<path d="M43.8398 129.1496
L43.9350 129.3401
" />
<path d="M43.9350 129.3401
L44.0303 129.7211
" />
<path d="M44.0303 129.7211
L44.0303 130.1973
" />
<path d="M44.0303 130.1973
L43.9350 130.5782
" />
<path d="M43.9350 130.5782
L43.8398 130.7687
" />
<path d="M43.8398 130.7687
L43.7445 130.8639
" />
<path d="M43.7445 130.8639
L43.5541 130.9592
" />
<path d="M43.5541 130.9592
L43.3636 130.9592
" />
<path d="M43.3636 130.9592
L43.1731 130.8639
" />
<path d="M43.1731 130.8639
L43.0779 130.7687
" />
<path d="M43.0779 130.7687
L42.9826 130.5782
" />
<path d="M42.9826 130.5782
L42.8874 130.1973
" />
<path d="M42.8874 130.1973
L42.8874 129.7211
" />
<path d="M42.8874 129.7211
L42.9826 129.3401
" />
<path d="M42.9826 129.3401
L43.0779 129.1496
" />
<path d="M43.0779 129.1496
L43.1731 129.0544
" />
<path d="M43.1731 129.0544
L43.3636 128.9592
" />
<path d="M44.7922 129.1496
L44.8874 129.0544
" />
<path d="M44.8874 129.0544
L45.0779 128.9592
" />
<path d="M45.0779 128.9592
L45.5541 128.9592
" />
<path d="M45.5541 128.9592
L45.7445 129.0544
" />
<path d="M45.7445 129.0544
L45.8398 129.1496
" />
<path d="M45.8398 129.1496
L45.9350 129.3401
" />
<path d="M45.9350 129.3401
L45.9350 129.5306
" />
<path d="M45.9350 129.5306
L45.8398 129.8163
" />
<path d="M45.8398 129.8163
L44.6969 130.9592
" />
<path d="M44.6969 130.9592
L45.9350 130.9592
" />
<path d="M46.6017 128.9592
L47.8398 128.9592
" />
<path d="M47.8398 128.9592
L47.1731 129.7211
" />
<path d="M47.1731 129.7211
L47.4588 129.7211
" />
<path d="M47.4588 129.7211
L47.6493 129.8163
" />
<path d="M47.6493 129.8163
L47.7445 129.9115
" />
<path d="M47.7445 129.9115
L47.8398 130.1020
" />
<path d="M47.8398 130.1020
L47.8398 130.5782
" />
<path d="M47.8398 130.5782
L47.7445 130.7687
" />
<path d="M47.7445 130.7687
L47.6493 130.8639
" />
<path d="M47.6493 130.8639
L47.4588 130.9592
" />
<path d="M47.4588 130.9592
L46.8874 130.9592
" />
<path d="M46.8874 130.9592
L46.6969 130.8639
" />
<path d="M46.6969 130.8639
L46.6017 130.7687
" />
<path d="M49.5541 128.9592
L49.1731 128.9592
" />
<path d="M49.1731 128.9592
L48.9826 129.0544
" />
<path d="M48.9826 129.0544
L48.8874 129.1496
" />
<path d="M48.8874 129.1496
L48.6969 129.4353
" />
<path d="M48.6969 129.4353
L48.6017 129.8163
" />
<path d="M48.6017 129.8163
L48.6017 130.5782
" />
<path d="M48.6017 130.5782
L48.6969 130.7687
" />
<path d="M48.6969 130.7687
L48.7922 130.8639
" />
<path d="M48.7922 130.8639
L48.9826 130.9592
" />
<path d="M48.9826 130.9592
L49.3636 130.9592
" />
<path d="M49.3636 130.9592
L49.5541 130.8639
" />
<path d="M49.5541 130.8639
L49.6493 130.7687
" />
<path d="M49.6493 130.7687
L49.7445 130.5782
" />
<path d="M49.7445 130.5782
L49.7445 130.1020
" />
<path d="M49.7445 130.1020
L49.6493 129.9115
" />
<path d="M49.6493 129.9115
L49.5541 129.8163
" />
<path d="M49.5541 129.8163
L49.3636 129.7211
" />
<path d="M49.3636 129.7211
L48.9826 129.7211
" />
<path d="M48.9826 129.7211
L48.7922 129.8163
" />
<path d="M48.7922 129.8163
L48.6969 129.9115
" />
<path d="M48.6969 129.9115
L48.6017 130.1020
" />
<path d="M50.5065 128.9592
L50.5065 129.3401
" />
<path d="M51.2684 128.9592
L51.2684 129.3401
" />
<path d="M54.2207 131.7211
L54.1255 131.6258
" />
<path d="M54.1255 131.6258
L53.9350 131.3401
" />
<path d="M53.9350 131.3401
L53.8398 131.1496
" />
<path d="M53.8398 131.1496
L53.7445 130.8639
" />
<path d="M53.7445 130.8639
L53.6493 130.3877
" />
<path d="M53.6493 130.3877
L53.6493 130.0068
" />
<path d="M53.6493 130.0068
L53.7445 129.5306
" />
<path d="M53.7445 129.5306
L53.8398 129.2449
" />
<path d="M53.8398 129.2449
L53.9350 129.0544
" />
<path d="M53.9350 129.0544
L54.1255 128.7687
" />
<path d="M54.1255 128.7687
L54.2207 128.6734
" />
<path d="M55.3636 128.9592
L55.5541 128.9592
" />
<path d="M55.5541 128.9592
L55.7445 129.0544
" />
<path d="M55.7445 129.0544
L55.8398 129.1496
" />
<path d="M55.8398 129.1496
L55.9350 129.3401
" />
<path d="M55.9350 129.3401
L56.0303 129.7211
" />
<path d="M56.0303 129.7211
L56.0303 130.1973
" />
<path d="M56.0303 130.1973
L55.9350 130.5782
" />
<path d="M55.9350 130.5782
L55.8398 130.7687
" />
<path d="M55.8398 130.7687
L55.7445 130.8639
" />
<path d="M55.7445 130.8639
L55.5541 130.9592
" />
<path d="M55.5541 130.9592
L55.3636 130.9592
" />
<path d="M55.3636 130.9592
L55.1731 130.8639
" />
<path d="M55.1731 130.8639
L55.0779 130.7687
" />
<path d="M55.0779 130.7687
L54.9826 130.5782
" />
<path d="M54.9826 130.5782
L54.8874 130.1973
" />
<path d="M54.8874 130.1973
L54.8874 129.7211
" />
<path d="M54.8874 129.7211
L54.9826 129.3401
" />
<path d="M54.9826 129.3401
L55.0779 129.1496
" />
<path d="M55.0779 129.1496
L55.1731 129.0544
" />
<path d="M55.1731 129.0544
L55.3636 128.9592
" />
<path d="M58.4112 130.9592
L58.4112 128.9592
" />
<path d="M59.2684 130.9592
L59.2684 129.9115
" />
<path d="M59.2684 129.9115
L59.1731 129.7211
" />
<path d="M59.1731 129.7211
L58.9826 129.6258
" />
<path d="M58.9826 129.6258
L58.6969 129.6258
" />
<path d="M58.6969 129.6258
L58.5065 129.7211
" />
<path d="M58.5065 129.7211
L58.4112 129.8163
" />
<path d="M60.5065 130.9592
L60.3160 130.8639
" />
<path d="M60.3160 130.8639
L60.2207 130.7687
" />
<path d="M60.2207 130.7687
L60.1255 130.5782
" />
<path d="M60.1255 130.5782
L60.1255 130.0068
" />
<path d="M60.1255 130.0068
L60.2207 129.8163
" />
<path d="M60.2207 129.8163
L60.3160 129.7211
" />
<path d="M60.3160 129.7211
L60.5065 129.6258
" />
<path d="M60.5065 129.6258
L60.7922 129.6258
" />
<path d="M60.7922 129.6258
L60.9826 129.7211
" />
<path d="M60.9826 129.7211
L61.0779 129.8163
" />
<path d="M61.0779 129.8163
L61.1731 130.0068
" />
<path d="M61.1731 130.0068
L61.1731 130.5782
" />
<path d="M61.1731 130.5782
L61.0779 130.7687
" />
<path d="M61.0779 130.7687
L60.9826 130.8639
" />
<path d="M60.9826 130.8639
L60.7922 130.9592
" />
<path d="M60.7922 130.9592
L60.5065 130.9592
" />
<path d="M62.3160 130.9592
L62.1255 130.8639
" />
<path d="M62.1255 130.8639
L62.0303 130.6734
" />
<path d="M62.0303 130.6734
L62.0303 128.9592
" />
<path d="M63.8398 130.8639
L63.6493 130.9592
" />
<path d="M63.6493 130.9592
L63.2684 130.9592
" />
<path d="M63.2684 130.9592
L63.0779 130.8639
" />
<path d="M63.0779 130.8639
L62.9826 130.6734
" />
<path d="M62.9826 130.6734
L62.9826 129.9115
" />
<path d="M62.9826 129.9115
L63.0779 129.7211
" />
<path d="M63.0779 129.7211
L63.2684 129.6258
" />
<path d="M63.2684 129.6258
L63.6493 129.6258
" />
<path d="M63.6493 129.6258
L63.8398 129.7211
" />
<path d="M63.8398 129.7211
L63.9350 129.9115
" />
<path d="M63.9350 129.9115
L63.9350 130.1020
" />
<path d="M63.9350 130.1020
L62.9826 130.2925
" />
<path d="M64.6969 130.8639
L64.8874 130.9592
" />
<path d="M64.8874 130.9592
L65.2684 130.9592
" />
<path d="M65.2684 130.9592
L65.4588 130.8639
" />
<path d="M65.4588 130.8639
L65.5541 130.6734
" />
<path d="M65.5541 130.6734
L65.5541 130.5782
" />
<path d="M65.5541 130.5782
L65.4588 130.3877
" />
<path d="M65.4588 130.3877
L65.2684 130.2925
" />
<path d="M65.2684 130.2925
L64.9826 130.2925
" />
<path d="M64.9826 130.2925
L64.7922 130.1973
" />
<path d="M64.7922 130.1973
L64.6969 130.0068
" />
<path d="M64.6969 130.0068
L64.6969 129.9115
" />
<path d="M64.6969 129.9115
L64.7922 129.7211
" />
<path d="M64.7922 129.7211
L64.9826 129.6258
" />
<path d="M64.9826 129.6258
L65.2684 129.6258
" />
<path d="M65.2684 129.6258
L65.4588 129.7211
" />
<path d="M67.9350 130.1973
L69.4588 130.1973
" />
<path d="M68.6969 130.9592
L68.6969 129.4353
" />
<path d="M72.7922 129.6258
L72.7922 130.9592
" />
<path d="M72.3160 128.8639
L71.8398 130.2925
" />
<path d="M71.8398 130.2925
L73.0779 130.2925
" />
<path d="M75.2684 130.8639
L75.4588 130.9592
" />
<path d="M75.4588 130.9592
L75.8398 130.9592
" />
<path d="M75.8398 130.9592
L76.0303 130.8639
" />
<path d="M76.0303 130.8639
L76.1255 130.6734
" />
<path d="M76.1255 130.6734
L76.1255 130.5782
" />
<path d="M76.1255 130.5782
L76.0303 130.3877
" />
<path d="M76.0303 130.3877
L75.8398 130.2925
" />
<path d="M75.8398 130.2925
L75.5541 130.2925
" />
<path d="M75.5541 130.2925
L75.3636 130.1973
" />
<path d="M75.3636 130.1973
L75.2684 130.0068
" />
<path d="M75.2684 130.0068
L75.2684 129.9115
" />
<path d="M75.2684 129.9115
L75.3636 129.7211
" />
<path d="M75.3636 129.7211
L75.5541 129.6258
" />
<path d="M75.5541 129.6258
L75.8398 129.6258
" />
<path d="M75.8398 129.6258
L76.0303 129.7211
" />
<path d="M77.2684 130.9592
L77.0779 130.8639
" />
<path d="M77.0779 130.8639
L76.9826 130.6734
" />
<path d="M76.9826 130.6734
L76.9826 128.9592
" />
<path d="M78.3160 130.9592
L78.1255 130.8639
" />
<path d="M78.1255 130.8639
L78.0303 130.7687
" />
<path d="M78.0303 130.7687
L77.9350 130.5782
" />
<path d="M77.9350 130.5782
L77.9350 130.0068
" />
<path d="M77.9350 130.0068
L78.0303 129.8163
" />
<path d="M78.0303 129.8163
L78.1255 129.7211
" />
<path d="M78.1255 129.7211
L78.3160 129.6258
" />
<path d="M78.3160 129.6258
L78.6017 129.6258
" />
<path d="M78.6017 129.6258
L78.7922 129.7211
" />
<path d="M78.7922 129.7211
L78.8874 129.8163
" />
<path d="M78.8874 129.8163
L78.9826 130.0068
" />
<path d="M78.9826 130.0068
L78.9826 130.5782
" />
<path d="M78.9826 130.5782
L78.8874 130.7687
" />
<path d="M78.8874 130.7687
L78.7922 130.8639
" />
<path d="M78.7922 130.8639
L78.6017 130.9592
" />
<path d="M78.6017 130.9592
L78.3160 130.9592
" />
<path d="M79.5541 129.6258
L80.3160 129.6258
" />
<path d="M79.8398 128.9592
L79.8398 130.6734
" />
<path d="M79.8398 130.6734
L79.9350 130.8639
" />
<path d="M79.9350 130.8639
L80.1255 130.9592
" />
<path d="M80.1255 130.9592
L80.3160 130.9592
" />
<path d="M80.8874 130.8639
L81.0779 130.9592
" />
<path d="M81.0779 130.9592
L81.4588 130.9592
" />
<path d="M81.4588 130.9592
L81.6493 130.8639
" />
<path d="M81.6493 130.8639
L81.7445 130.6734
" />
<path d="M81.7445 130.6734
L81.7445 130.5782
" />
<path d="M81.7445 130.5782
L81.6493 130.3877
" />
<path d="M81.6493 130.3877
L81.4588 130.2925
" />
<path d="M81.4588 130.2925
L81.1731 130.2925
" />
<path d="M81.1731 130.2925
L80.9826 130.1973
" />
<path d="M80.9826 130.1973
L80.8874 130.0068
" />
<path d="M80.8874 130.0068
L80.8874 129.9115
" />
<path d="M80.8874 129.9115
L80.9826 129.7211
" />
<path d="M80.9826 129.7211
L81.1731 129.6258
" />
<path d="M81.1731 129.6258
L81.4588 129.6258
" />
<path d="M81.4588 129.6258
L81.6493 129.7211
" />
<path d="M82.4112 131.7211
L82.5064 131.6258
" />
<path d="M82.5064 131.6258
L82.6969 131.3401
" />
<path d="M82.6969 131.3401
L82.7922 131.1496
" />
<path d="M82.7922 131.1496
L82.8874 130.8639
" />
<path d="M82.8874 130.8639
L82.9826 130.3877
" />
<path d="M82.9826 130.3877
L82.9826 130.0068
" />
<path d="M82.9826 130.0068
L82.8874 129.5306
" />
<path d="M82.8874 129.5306
L82.7922 129.2449
" />
<path d="M82.7922 129.2449
L82.6969 129.0544
" />
<path d="M82.6969 129.0544
L82.5064 128.7687
" />
<path d="M82.5064 128.7687
L82.4112 128.6734
" />
</g></g>
<g style="fill:#000000; fill-opacity:0.0; 
stroke:#000000; stroke-width:0.1083; stroke-opacity:1; 
stroke-linecap:round; stroke-linejoin:round;">
<path d="M17.9285 132.1427
L17.9285 133.2259
" />
<path d="M17.3870 132.6843
L18.4701 132.6843
" />
</g>
<g style="fill:#000000; fill-opacity:0.0; 
stroke:#000000; stroke-width:0.2166; stroke-opacity:1; 
stroke-linecap:round; stroke-linejoin:round;">
</g>
<g style="fill:#000000; fill-opacity:0.0; 
stroke:#000000; stroke-width:0.2000; stroke-opacity:1; 
stroke-linecap:round; stroke-linejoin:round;">
<text x="20.4701" y="133.6843"
textLength="46.8667" font-size="2.6667" lengthAdjust="spacingAndGlyphs"
text-anchor="start" opacity="0">1.000mm / 0.0394" (4 holes)</text>
<g class="stroked-text"><desc>1.000mm / 0.0394" (4 holes)</desc>
<path d="M22.1255 133.5992
L20.9826 133.5992
" />
<path d="M21.5541 133.5992
L21.5541 131.5992
" />
<path d="M21.5541 131.5992
L21.3636 131.8849
" />
<path d="M21.3636 131.8849
L21.1731 132.0753
" />
<path d="M21.1731 132.0753
L20.9826 132.1706
" />
<path d="M22.9826 133.4087
L23.0779 133.5039
" />
<path d="M23.0779 133.5039
L22.9826 133.5992
" />
<path d="M22.9826 133.5992
L22.8874 133.5039
" />
<path d="M22.8874 133.5039
L22.9826 133.4087
" />
<path d="M22.9826 133.4087
L22.9826 133.5992
" />
<path d="M24.3160 131.5992
L24.5065 131.5992
" />
<path d="M24.5065 131.5992
L24.6969 131.6944
" />
<path d="M24.6969 131.6944
L24.7922 131.7896
" />
<path d="M24.7922 131.7896
L24.8874 131.9801
" />
<path d="M24.8874 131.9801
L24.9826 132.3611
" />
<path d="M24.9826 132.3611
L24.9826 132.8373
" />
<path d="M24.9826 132.8373
L24.8874 133.2182
" />
<path d="M24.8874 133.2182
L24.7922 133.4087
" />
<path d="M24.7922 133.4087
L24.6969 133.5039
" />
<path d="M24.6969 133.5039
L24.5065 133.5992
" />
<path d="M24.5065 133.5992
L24.3160 133.5992
" />
<path d="M24.3160 133.5992
L24.1255 133.5039
" />
<path d="M24.1255 133.5039
L24.0303 133.4087
" />
<path d="M24.0303 133.4087
L23.9350 133.2182
" />
<path d="M23.9350 133.2182
L23.8398 132.8373
" />
<path d="M23.8398 132.8373
L23.8398 132.3611
" />
<path d="M23.8398 132.3611
L23.9350 131.9801
" />
<path d="M23.9350 131.9801
L24.0303 131.7896
" />
<path d="M24.0303 131.7896
L24.1255 131.6944
" />
<path d="M24.1255 131.6944
L24.3160 131.5992
" />
<path d="M26.2207 131.5992
L26.4112 131.5992
" />
<path d="M26.4112 131.5992
L26.6017 131.6944
" />
<path d="M26.6017 131.6944
L26.6969 131.7896
" />
<path d="M26.6969 131.7896
L26.7922 131.9801
" />
<path d="M26.7922 131.9801
L26.8874 132.3611
" />
<path d="M26.8874 132.3611
L26.8874 132.8373
" />
<path d="M26.8874 132.8373
L26.7922 133.2182
" />
<path d="M26.7922 133.2182
L26.6969 133.4087
" />
<path d="M26.6969 133.4087
L26.6017 133.5039
" />
<path d="M26.6017 133.5039
L26.4112 133.5992
" />
<path d="M26.4112 133.5992
L26.2207 133.5992
" />
<path d="M26.2207 133.5992
L26.0303 133.5039
" />
<path d="M26.0303 133.5039
L25.9350 133.4087
" />
<path d="M25.9350 133.4087
L25.8398 133.2182
" />
<path d="M25.8398 133.2182
L25.7445 132.8373
" />
<path d="M25.7445 132.8373
L25.7445 132.3611
" />
<path d="M25.7445 132.3611
L25.8398 131.9801
" />
<path d="M25.8398 131.9801
L25.9350 131.7896
" />
<path d="M25.9350 131.7896
L26.0303 131.6944
" />
<path d="M26.0303 131.6944
L26.2207 131.5992
" />
<path d="M28.1255 131.5992
L28.3160 131.5992
" />
<path d="M28.3160 131.5992
L28.5065 131.6944
" />
<path d="M28.5065 131.6944
L28.6017 131.7896
" />
<path d="M28.6017 131.7896
L28.6969 131.9801
" />
<path d="M28.6969 131.9801
L28.7922 132.3611
" />
<path d="M28.7922 132.3611
L28.7922 132.8373
" />
<path d="M28.7922 132.8373
L28.6969 133.2182
" />
<path d="M28.6969 133.2182
L28.6017 133.4087
" />
<path d="M28.6017 133.4087
L28.5065 133.5039
" />
<path d="M28.5065 133.5039
L28.3160 133.5992
" />
<path d="M28.3160 133.5992
L28.1255 133.5992
" />
<path d="M28.1255 133.5992
L27.9350 133.5039
" />
<path d="M27.9350 133.5039
L27.8398 133.4087
" />
<path d="M27.8398 133.4087
L27.7445 133.2182
" />
<path d="M27.7445 133.2182
L27.6493 132.8373
" />
<path d="M27.6493 132.8373
L27.6493 132.3611
" />
<path d="M27.6493 132.3611
L27.7445 131.9801
" />
<path d="M27.7445 131.9801
L27.8398 131.7896
" />
<path d="M27.8398 131.7896
L27.9350 131.6944
" />
<path d="M27.9350 131.6944
L28.1255 131.5992
" />
<path d="M29.6493 133.5992
L29.6493 132.2658
" />
<path d="M29.6493 132.4563
L29.7445 132.3611
" />
<path d="M29.7445 132.3611
L29.9350 132.2658
" />
<path d="M29.9350 132.2658
L30.2207 132.2658
" />
<path d="M30.2207 132.2658
L30.4112 132.3611
" />
<path d="M30.4112 132.3611
L30.5065 132.5515
" />
<path d="M30.5065 132.5515
L30.5065 133.5992
" />
<path d="M30.5065 132.5515
L30.6017 132.3611
" />
<path d="M30.6017 132.3611
L30.7922 132.2658
" />
<path d="M30.7922 132.2658
L31.0779 132.2658
" />
<path d="M31.0779 132.2658
L31.2684 132.3611
" />
<path d="M31.2684 132.3611
L31.3636 132.5515
" />
<path d="M31.3636 132.5515
L31.3636 133.5992
" />
<path d="M32.3160 133.5992
L32.3160 132.2658
" />
<path d="M32.3160 132.4563
L32.4112 132.3611
" />
<path d="M32.4112 132.3611
L32.6017 132.2658
" />
<path d="M32.6017 132.2658
L32.8874 132.2658
" />
<path d="M32.8874 132.2658
L33.0779 132.3611
" />
<path d="M33.0779 132.3611
L33.1731 132.5515
" />
<path d="M33.1731 132.5515
L33.1731 133.5992
" />
<path d="M33.1731 132.5515
L33.2684 132.3611
" />
<path d="M33.2684 132.3611
L33.4588 132.2658
" />
<path d="M33.4588 132.2658
L33.7445 132.2658
" />
<path d="M33.7445 132.2658
L33.9350 132.3611
" />
<path d="M33.9350 132.3611
L34.0303 132.5515
" />
<path d="M34.0303 132.5515
L34.0303 133.5992
" />
<path d="M37.9350 131.5039
L36.2207 134.0753
" />
<path d="M40.5065 131.5992
L40.6969 131.5992
" />
<path d="M40.6969 131.5992
L40.8874 131.6944
" />
<path d="M40.8874 131.6944
L40.9826 131.7896
" />
<path d="M40.9826 131.7896
L41.0779 131.9801
" />
<path d="M41.0779 131.9801
L41.1731 132.3611
" />
<path d="M41.1731 132.3611
L41.1731 132.8373
" />
<path d="M41.1731 132.8373
L41.0779 133.2182
" />
<path d="M41.0779 133.2182
L40.9826 133.4087
" />
<path d="M40.9826 133.4087
L40.8874 133.5039
" />
<path d="M40.8874 133.5039
L40.6969 133.5992
" />
<path d="M40.6969 133.5992
L40.5065 133.5992
" />
<path d="M40.5065 133.5992
L40.3160 133.5039
" />
<path d="M40.3160 133.5039
L40.2207 133.4087
" />
<path d="M40.2207 133.4087
L40.1255 133.2182
" />
<path d="M40.1255 133.2182
L40.0303 132.8373
" />
<path d="M40.0303 132.8373
L40.0303 132.3611
" />
<path d="M40.0303 132.3611
L40.1255 131.9801
" />
<path d="M40.1255 131.9801
L40.2207 131.7896
" />
<path d="M40.2207 131.7896
L40.3160 131.6944
" />
<path d="M40.3160 131.6944
L40.5065 131.5992
" />
<path d="M42.0303 133.4087
L42.1255 133.5039
" />
<path d="M42.1255 133.5039
L42.0303 133.5992
" />
<path d="M42.0303 133.5992
L41.9350 133.5039
" />
<path d="M41.9350 133.5039
L42.0303 133.4087
" />
<path d="M42.0303 133.4087
L42.0303 133.5992
" />
<path d="M43.3636 131.5992
L43.5541 131.5992
" />
<path d="M43.5541 131.5992
L43.7445 131.6944
" />
<path d="M43.7445 131.6944
L43.8398 131.7896
" />
<path d="M43.8398 131.7896
L43.9350 131.9801
" />
<path d="M43.9350 131.9801
L44.0303 132.3611
" />
<path d="M44.0303 132.3611
L44.0303 132.8373
" />
<path d="M44.0303 132.8373
L43.9350 133.2182
" />
<path d="M43.9350 133.2182
L43.8398 133.4087
" />
<path d="M43.8398 133.4087
L43.7445 133.5039
" />
<path d="M43.7445 133.5039
L43.5541 133.5992
" />
<path d="M43.5541 133.5992
L43.3636 133.5992
" />
<path d="M43.3636 133.5992
L43.1731 133.5039
" />
<path d="M43.1731 133.5039
L43.0779 133.4087
" />
<path d="M43.0779 133.4087
L42.9826 133.2182
" />
<path d="M42.9826 133.2182
L42.8874 132.8373
" />
<path d="M42.8874 132.8373
L42.8874 132.3611
" />
<path d="M42.8874 132.3611
L42.9826 131.9801
" />
<path d="M42.9826 131.9801
L43.0779 131.7896
" />
<path d="M43.0779 131.7896
L43.1731 131.6944
" />
<path d="M43.1731 131.6944
L43.3636 131.5992
" />
<path d="M44.6969 131.5992
L45.9350 131.5992
" />
<path d="M45.9350 131.5992
L45.2684 132.3611
" />
<path d="M45.2684 132.3611
L45.5541 132.3611
" />
<path d="M45.5541 132.3611
L45.7445 132.4563
" />
<path d="M45.7445 132.4563
L45.8398 132.5515
" />
<path d="M45.8398 132.5515
L45.9350 132.7420
" />
<path d="M45.9350 132.7420
L45.9350 133.2182
" />
<path d="M45.9350 133.2182
L45.8398 133.4087
" />
<path d="M45.8398 133.4087
L45.7445 133.5039
" />
<path d="M45.7445 133.5039
L45.5541 133.5992
" />
<path d="M45.5541 133.5992
L44.9826 133.5992
" />
<path d="M44.9826 133.5992
L44.7922 133.5039
" />
<path d="M44.7922 133.5039
L44.6969 133.4087
" />
<path d="M46.8874 133.5992
L47.2684 133.5992
" />
<path d="M47.2684 133.5992
L47.4588 133.5039
" />
<path d="M47.4588 133.5039
L47.5541 133.4087
" />
<path d="M47.5541 133.4087
L47.7445 133.1230
" />
<path d="M47.7445 133.1230
L47.8398 132.7420
" />
<path d="M47.8398 132.7420
L47.8398 131.9801
" />
<path d="M47.8398 131.9801
L47.7445 131.7896
" />
<path d="M47.7445 131.7896
L47.6493 131.6944
" />
<path d="M47.6493 131.6944
L47.4588 131.5992
" />
<path d="M47.4588 131.5992
L47.0779 131.5992
" />
<path d="M47.0779 131.5992
L46.8874 131.6944
" />
<path d="M46.8874 131.6944
L46.7922 131.7896
" />
<path d="M46.7922 131.7896
L46.6969 131.9801
" />
<path d="M46.6969 131.9801
L46.6969 132.4563
" />
<path d="M46.6969 132.4563
L46.7922 132.6468
" />
<path d="M46.7922 132.6468
L46.8874 132.7420
" />
<path d="M46.8874 132.7420
L47.0779 132.8373
" />
<path d="M47.0779 132.8373
L47.4588 132.8373
" />
<path d="M47.4588 132.8373
L47.6493 132.7420
" />
<path d="M47.6493 132.7420
L47.7445 132.6468
" />
<path d="M47.7445 132.6468
L47.8398 132.4563
" />
<path d="M49.5541 132.2658
L49.5541 133.5992
" />
<path d="M49.0779 131.5039
L48.6017 132.9325
" />
<path d="M48.6017 132.9325
L49.8398 132.9325
" />
<path d="M50.5065 131.5992
L50.5065 131.9801
" />
<path d="M51.2684 131.5992
L51.2684 131.9801
" />
<path d="M54.2207 134.3611
L54.1255 134.2658
" />
<path d="M54.1255 134.2658
L53.9350 133.9801
" />
<path d="M53.9350 133.9801
L53.8398 133.7896
" />
<path d="M53.8398 133.7896
L53.7445 133.5039
" />
<path d="M53.7445 133.5039
L53.6493 133.0277
" />
<path d="M53.6493 133.0277
L53.6493 132.6468
" />
<path d="M53.6493 132.6468
L53.7445 132.1706
" />
<path d="M53.7445 132.1706
L53.8398 131.8849
" />
<path d="M53.8398 131.8849
L53.9350 131.6944
" />
<path d="M53.9350 131.6944
L54.1255 131.4087
" />
<path d="M54.1255 131.4087
L54.2207 131.3134
" />
<path d="M55.8398 132.2658
L55.8398 133.5992
" />
<path d="M55.3636 131.5039
L54.8874 132.9325
" />
<path d="M54.8874 132.9325
L56.1255 132.9325
" />
<path d="M58.4112 133.5992
L58.4112 131.5992
" />
<path d="M59.2684 133.5992
L59.2684 132.5515
" />
<path d="M59.2684 132.5515
L59.1731 132.3611
" />
<path d="M59.1731 132.3611
L58.9826 132.2658
" />
<path d="M58.9826 132.2658
L58.6969 132.2658
" />
<path d="M58.6969 132.2658
L58.5065 132.3611
" />
<path d="M58.5065 132.3611
L58.4112 132.4563
" />
<path d="M60.5065 133.5992
L60.3160 133.5039
" />
<path d="M60.3160 133.5039
L60.2207 133.4087
" />
<path d="M60.2207 133.4087
L60.1255 133.2182
" />
<path d="M60.1255 133.2182
L60.1255 132.6468
" />
<path d="M60.1255 132.6468
L60.2207 132.4563
" />
<path d="M60.2207 132.4563
L60.3160 132.3611
" />
<path d="M60.3160 132.3611
L60.5065 132.2658
" />
<path d="M60.5065 132.2658
L60.7922 132.2658
" />
<path d="M60.7922 132.2658
L60.9826 132.3611
" />
<path d="M60.9826 132.3611
L61.0779 132.4563
" />
<path d="M61.0779 132.4563
L61.1731 132.6468
" />
<path d="M61.1731 132.6468
L61.1731 133.2182
" />
<path d="M61.1731 133.2182
L61.0779 133.4087
" />
<path d="M61.0779 133.4087
L60.9826 133.5039
" />
<path d="M60.9826 133.5039
L60.7922 133.5992
" />
<path d="M60.7922 133.5992
L60.5065 133.5992
" />
<path d="M62.3160 133.5992
L62.1255 133.5039
" />
<path d="M62.1255 133.5039
L62.0303 133.3134
" />
<path d="M62.0303 133.3134
L62.0303 131.5992
" />
<path d="M63.8398 133.5039
L63.6493 133.5992
" />
<path d="M63.6493 133.5992
L63.2684 133.5992
" />
<path d="M63.2684 133.5992
L63.0779 133.5039
" />
<path d="M63.0779 133.5039
L62.9826 133.3134
" />
<path d="M62.9826 133.3134
L62.9826 132.5515
" />
<path d="M62.9826 132.5515
L63.0779 132.3611
" />
<path d="M63.0779 132.3611
L63.2684 132.2658
" />
<path d="M63.2684 132.2658
L63.6493 132.2658
" />
<path d="M63.6493 132.2658
L63.8398 132.3611
" />
<path d="M63.8398 132.3611
L63.9350 132.5515
" />
<path d="M63.9350 132.5515
L63.9350 132.7420
" />
<path d="M63.9350 132.7420
L62.9826 132.9325
" />
<path d="M64.6969 133.5039
L64.8874 133.5992
" />
<path d="M64.8874 133.5992
L65.2684 133.5992
" />
<path d="M65.2684 133.5992
L65.4588 133.5039
" />
<path d="M65.4588 133.5039
L65.5541 133.3134
" />
<path d="M65.5541 133.3134
L65.5541 133.2182
" />
<path d="M65.5541 133.2182
L65.4588 133.0277
" />
<path d="M65.4588 133.0277
L65.2684 132.9325
" />
<path d="M65.2684 132.9325
L64.9826 132.9325
" />
<path d="M64.9826 132.9325
L64.7922 132.8373
" />
<path d="M64.7922 132.8373
L64.6969 132.6468
" />
<path d="M64.6969 132.6468
L64.6969 132.5515
" />
<path d="M64.6969 132.5515
L64.7922 132.3611
" />
<path d="M64.7922 132.3611
L64.9826 132.2658
" />
<path d="M64.9826 132.2658
L65.2684 132.2658
" />
<path d="M65.2684 132.2658
L65.4588 132.3611
" />
<path d="M66.2207 134.3611
L66.3160 134.2658
" />
<path d="M66.3160 134.2658
L66.5064 133.9801
" />
<path d="M66.5064 133.9801
L66.6017 133.7896
" />
<path d="M66.6017 133.7896
L66.6969 133.5039
" />
<path d="M66.6969 133.5039
L66.7922 133.0277
" />
<path d="M66.7922 133.0277
L66.7922 132.6468
" />
<path d="M66.7922 132.6468
L66.6969 132.1706
" />
<path d="M66.6969 132.1706
L66.6017 131.8849
" />
<path d="M66.6017 131.8849
L66.5064 131.6944
" />
<path d="M66.5064 131.6944
L66.3160 131.4087
" />
<path d="M66.3160 131.4087
L66.2207 131.3134
" />
</g></g>
<g style="fill:#000000; fill-opacity:0.0; 
stroke:#000000; stroke-width:0.1625; stroke-opacity:1; 
stroke-linecap:round; stroke-linejoin:round;">
<path style="fill:#000000; fill-opacity:0.0; 
stroke:#000000; stroke-width:0.1625; stroke-opacity:1; 
stroke-linecap:round; stroke-linejoin:round;fill:none"
d="M 18.2322,135.8987
18.2322,134.7499
17.0833,134.7499
17.0833,135.8987
Z" /> 
</g>
<g style="fill:#000000; fill-opacity:0.0; 
stroke:#000000; stroke-width:0.2166; stroke-opacity:1; 
stroke-linecap:round; stroke-linejoin:round;">
</g>
<g style="fill:#000000; fill-opacity:0.0; 
stroke:#000000; stroke-width:0.2000; stroke-opacity:1; 
stroke-linecap:round; stroke-linejoin:round;">
<text x="20.4701" y="136.3243"
textLength="48.7714" font-size="2.6667" lengthAdjust="spacingAndGlyphs"
text-anchor="start" opacity="0">1.500mm / 0.0591" (40 holes)</text>
<g class="stroked-text"><desc>1.500mm / 0.0591" (40 holes)</desc>
<path d="M22.1255 136.2392
L20.9826 136.2392
" />
<path d="M21.5541 136.2392
L21.5541 134.2392
" />
<path d="M21.5541 134.2392
L21.3636 134.5249
" />
<path d="M21.3636 134.5249
L21.1731 134.7153
" />
<path d="M21.1731 134.7153
L20.9826 134.8106
" />
<path d="M22.9826 136.0487
L23.0779 136.1439
" />
<path d="M23.0779 136.1439
L22.9826 136.2392
" />
<path d="M22.9826 136.2392
L22.8874 136.1439
" />
<path d="M22.8874 136.1439
L22.9826 136.0487
" />
<path d="M22.9826 136.0487
L22.9826 136.2392
" />
<path d="M24.8874 134.2392
L23.9350 134.2392
" />
<path d="M23.9350 134.2392
L23.8398 135.1915
" />
<path d="M23.8398 135.1915
L23.9350 135.0963
" />
<path d="M23.9350 135.0963
L24.1255 135.0011
" />
<path d="M24.1255 135.0011
L24.6017 135.0011
" />
<path d="M24.6017 135.0011
L24.7922 135.0963
" />
<path d="M24.7922 135.0963
L24.8874 135.1915
" />
<path d="M24.8874 135.1915
L24.9826 135.3820
" />
<path d="M24.9826 135.3820
L24.9826 135.8582
" />
<path d="M24.9826 135.8582
L24.8874 136.0487
" />
<path d="M24.8874 136.0487
L24.7922 136.1439
" />
<path d="M24.7922 136.1439
L24.6017 136.2392
" />
<path d="M24.6017 136.2392
L24.1255 136.2392
" />
<path d="M24.1255 136.2392
L23.9350 136.1439
" />
<path d="M23.9350 136.1439
L23.8398 136.0487
" />
<path d="M26.2207 134.2392
L26.4112 134.2392
" />
<path d="M26.4112 134.2392
L26.6017 134.3344
" />
<path d="M26.6017 134.3344
L26.6969 134.4296
" />
<path d="M26.6969 134.4296
L26.7922 134.6201
" />
<path d="M26.7922 134.6201
L26.8874 135.0011
" />
<path d="M26.8874 135.0011
L26.8874 135.4773
" />
<path d="M26.8874 135.4773
L26.7922 135.8582
" />
<path d="M26.7922 135.8582
L26.6969 136.0487
" />
<path d="M26.6969 136.0487
L26.6017 136.1439
" />
<path d="M26.6017 136.1439
L26.4112 136.2392
" />
<path d="M26.4112 136.2392
L26.2207 136.2392
" />
<path d="M26.2207 136.2392
L26.0303 136.1439
" />
<path d="M26.0303 136.1439
L25.9350 136.0487
" />
<path d="M25.9350 136.0487
L25.8398 135.8582
" />
<path d="M25.8398 135.8582
L25.7445 135.4773
" />
<path d="M25.7445 135.4773
L25.7445 135.0011
" />
<path d="M25.7445 135.0011
L25.8398 134.6201
" />
<path d="M25.8398 134.6201
L25.9350 134.4296
" />
<path d="M25.9350 134.4296
L26.0303 134.3344
" />
<path d="M26.0303 134.3344
L26.2207 134.2392
" />
<path d="M28.1255 134.2392
L28.3160 134.2392
" />
<path d="M28.3160 134.2392
L28.5065 134.3344
" />
<path d="M28.5065 134.3344
L28.6017 134.4296
" />
<path d="M28.6017 134.4296
L28.6969 134.6201
" />
<path d="M28.6969 134.6201
L28.7922 135.0011
" />
<path d="M28.7922 135.0011
L28.7922 135.4773
" />
<path d="M28.7922 135.4773
L28.6969 135.8582
" />
<path d="M28.6969 135.8582
L28.6017 136.0487
" />
<path d="M28.6017 136.0487
L28.5065 136.1439
" />
<path d="M28.5065 136.1439
L28.3160 136.2392
" />
<path d="M28.3160 136.2392
L28.1255 136.2392
" />
<path d="M28.1255 136.2392
L27.9350 136.1439
" />
<path d="M27.9350 136.1439
L27.8398 136.0487
" />
<path d="M27.8398 136.0487
L27.7445 135.8582
" />
<path d="M27.7445 135.8582
L27.6493 135.4773
" />
<path d="M27.6493 135.4773
L27.6493 135.0011
" />
<path d="M27.6493 135.0011
L27.7445 134.6201
" />
<path d="M27.7445 134.6201
L27.8398 134.4296
" />
<path d="M27.8398 134.4296
L27.9350 134.3344
" />
<path d="M27.9350 134.3344
L28.1255 134.2392
" />
<path d="M29.6493 136.2392
L29.6493 134.9058
" />
<path d="M29.6493 135.0963
L29.7445 135.0011
" />
<path d="M29.7445 135.0011
L29.9350 134.9058
" />
<path d="M29.9350 134.9058
L30.2207 134.9058
" />
<path d="M30.2207 134.9058
L30.4112 135.0011
" />
<path d="M30.4112 135.0011
L30.5065 135.1915
" />
<path d="M30.5065 135.1915
L30.5065 136.2392
" />
<path d="M30.5065 135.1915
L30.6017 135.0011
" />
<path d="M30.6017 135.0011
L30.7922 134.9058
" />
<path d="M30.7922 134.9058
L31.0779 134.9058
" />
<path d="M31.0779 134.9058
L31.2684 135.0011
" />
<path d="M31.2684 135.0011
L31.3636 135.1915
" />
<path d="M31.3636 135.1915
L31.3636 136.2392
" />
<path d="M32.3160 136.2392
L32.3160 134.9058
" />
<path d="M32.3160 135.0963
L32.4112 135.0011
" />
<path d="M32.4112 135.0011
L32.6017 134.9058
" />
<path d="M32.6017 134.9058
L32.8874 134.9058
" />
<path d="M32.8874 134.9058
L33.0779 135.0011
" />
<path d="M33.0779 135.0011
L33.1731 135.1915
" />
<path d="M33.1731 135.1915
L33.1731 136.2392
" />
<path d="M33.1731 135.1915
L33.2684 135.0011
" />
<path d="M33.2684 135.0011
L33.4588 134.9058
" />
<path d="M33.4588 134.9058
L33.7445 134.9058
" />
<path d="M33.7445 134.9058
L33.9350 135.0011
" />
<path d="M33.9350 135.0011
L34.0303 135.1915
" />
<path d="M34.0303 135.1915
L34.0303 136.2392
" />
<path d="M37.9350 134.1439
L36.2207 136.7153
" />
<path d="M40.5065 134.2392
L40.6969 134.2392
" />
<path d="M40.6969 134.2392
L40.8874 134.3344
" />
<path d="M40.8874 134.3344
L40.9826 134.4296
" />
<path d="M40.9826 134.4296
L41.0779 134.6201
" />
<path d="M41.0779 134.6201
L41.1731 135.0011
" />
<path d="M41.1731 135.0011
L41.1731 135.4773
" />
<path d="M41.1731 135.4773
L41.0779 135.8582
" />
<path d="M41.0779 135.8582
L40.9826 136.0487
" />
<path d="M40.9826 136.0487
L40.8874 136.1439
" />
<path d="M40.8874 136.1439
L40.6969 136.2392
" />
<path d="M40.6969 136.2392
L40.5065 136.2392
" />
<path d="M40.5065 136.2392
L40.3160 136.1439
" />
<path d="M40.3160 136.1439
L40.2207 136.0487
" />
<path d="M40.2207 136.0487
L40.1255 135.8582
" />
<path d="M40.1255 135.8582
L40.0303 135.4773
" />
<path d="M40.0303 135.4773
L40.0303 135.0011
" />
<path d="M40.0303 135.0011
L40.1255 134.6201
" />
<path d="M40.1255 134.6201
L40.2207 134.4296
" />
<path d="M40.2207 134.4296
L40.3160 134.3344
" />
<path d="M40.3160 134.3344
L40.5065 134.2392
" />
<path d="M42.0303 136.0487
L42.1255 136.1439
" />
<path d="M42.1255 136.1439
L42.0303 136.2392
" />
<path d="M42.0303 136.2392
L41.9350 136.1439
" />
<path d="M41.9350 136.1439
L42.0303 136.0487
" />
<path d="M42.0303 136.0487
L42.0303 136.2392
" />
<path d="M43.3636 134.2392
L43.5541 134.2392
" />
<path d="M43.5541 134.2392
L43.7445 134.3344
" />
<path d="M43.7445 134.3344
L43.8398 134.4296
" />
<path d="M43.8398 134.4296
L43.9350 134.6201
" />
<path d="M43.9350 134.6201
L44.0303 135.0011
" />
<path d="M44.0303 135.0011
L44.0303 135.4773
" />
<path d="M44.0303 135.4773
L43.9350 135.8582
" />
<path d="M43.9350 135.8582
L43.8398 136.0487
" />
<path d="M43.8398 136.0487
L43.7445 136.1439
" />
<path d="M43.7445 136.1439
L43.5541 136.2392
" />
<path d="M43.5541 136.2392
L43.3636 136.2392
" />
<path d="M43.3636 136.2392
L43.1731 136.1439
" />
<path d="M43.1731 136.1439
L43.0779 136.0487
" />
<path d="M43.0779 136.0487
L42.9826 135.8582
" />
<path d="M42.9826 135.8582
L42.8874 135.4773
" />
<path d="M42.8874 135.4773
L42.8874 135.0011
" />
<path d="M42.8874 135.0011
L42.9826 134.6201
" />
<path d="M42.9826 134.6201
L43.0779 134.4296
" />
<path d="M43.0779 134.4296
L43.1731 134.3344
" />
<path d="M43.1731 134.3344
L43.3636 134.2392
" />
<path d="M45.8398 134.2392
L44.8874 134.2392
" />
<path d="M44.8874 134.2392
L44.7922 135.1915
" />
<path d="M44.7922 135.1915
L44.8874 135.0963
" />
<path d="M44.8874 135.0963
L45.0779 135.0011
" />
<path d="M45.0779 135.0011
L45.5541 135.0011
" />
<path d="M45.5541 135.0011
L45.7445 135.0963
" />
<path d="M45.7445 135.0963
L45.8398 135.1915
" />
<path d="M45.8398 135.1915
L45.9350 135.3820
" />
<path d="M45.9350 135.3820
L45.9350 135.8582
" />
<path d="M45.9350 135.8582
L45.8398 136.0487
" />
<path d="M45.8398 136.0487
L45.7445 136.1439
" />
<path d="M45.7445 136.1439
L45.5541 136.2392
" />
<path d="M45.5541 136.2392
L45.0779 136.2392
" />
<path d="M45.0779 136.2392
L44.8874 136.1439
" />
<path d="M44.8874 136.1439
L44.7922 136.0487
" />
<path d="M46.8874 136.2392
L47.2684 136.2392
" />
<path d="M47.2684 136.2392
L47.4588 136.1439
" />
<path d="M47.4588 136.1439
L47.5541 136.0487
" />
<path d="M47.5541 136.0487
L47.7445 135.7630
" />
<path d="M47.7445 135.7630
L47.8398 135.3820
" />
<path d="M47.8398 135.3820
L47.8398 134.6201
" />
<path d="M47.8398 134.6201
L47.7445 134.4296
" />
<path d="M47.7445 134.4296
L47.6493 134.3344
" />
<path d="M47.6493 134.3344
L47.4588 134.2392
" />
<path d="M47.4588 134.2392
L47.0779 134.2392
" />
<path d="M47.0779 134.2392
L46.8874 134.3344
" />
<path d="M46.8874 134.3344
L46.7922 134.4296
" />
<path d="M46.7922 134.4296
L46.6969 134.6201
" />
<path d="M46.6969 134.6201
L46.6969 135.0963
" />
<path d="M46.6969 135.0963
L46.7922 135.2868
" />
<path d="M46.7922 135.2868
L46.8874 135.3820
" />
<path d="M46.8874 135.3820
L47.0779 135.4773
" />
<path d="M47.0779 135.4773
L47.4588 135.4773
" />
<path d="M47.4588 135.4773
L47.6493 135.3820
" />
<path d="M47.6493 135.3820
L47.7445 135.2868
" />
<path d="M47.7445 135.2868
L47.8398 135.0963
" />
<path d="M49.7445 136.2392
L48.6017 136.2392
" />
<path d="M49.1731 136.2392
L49.1731 134.2392
" />
<path d="M49.1731 134.2392
L48.9826 134.5249
" />
<path d="M48.9826 134.5249
L48.7922 134.7153
" />
<path d="M48.7922 134.7153
L48.6017 134.8106
" />
<path d="M50.5065 134.2392
L50.5065 134.6201
" />
<path d="M51.2684 134.2392
L51.2684 134.6201
" />
<path d="M54.2207 137.0011
L54.1255 136.9058
" />
<path d="M54.1255 136.9058
L53.9350 136.6201
" />
<path d="M53.9350 136.6201
L53.8398 136.4296
" />
<path d="M53.8398 136.4296
L53.7445 136.1439
" />
<path d="M53.7445 136.1439
L53.6493 135.6677
" />
<path d="M53.6493 135.6677
L53.6493 135.2868
" />
<path d="M53.6493 135.2868
L53.7445 134.8106
" />
<path d="M53.7445 134.8106
L53.8398 134.5249
" />
<path d="M53.8398 134.5249
L53.9350 134.3344
" />
<path d="M53.9350 134.3344
L54.1255 134.0487
" />
<path d="M54.1255 134.0487
L54.2207 133.9534
" />
<path d="M55.8398 134.9058
L55.8398 136.2392
" />
<path d="M55.3636 134.1439
L54.8874 135.5725
" />
<path d="M54.8874 135.5725
L56.1255 135.5725
" />
<path d="M57.2684 134.2392
L57.4588 134.2392
" />
<path d="M57.4588 134.2392
L57.6493 134.3344
" />
<path d="M57.6493 134.3344
L57.7445 134.4296
" />
<path d="M57.7445 134.4296
L57.8398 134.6201
" />
<path d="M57.8398 134.6201
L57.9350 135.0011
" />
<path d="M57.9350 135.0011
L57.9350 135.4773
" />
<path d="M57.9350 135.4773
L57.8398 135.8582
" />
<path d="M57.8398 135.8582
L57.7445 136.0487
" />
<path d="M57.7445 136.0487
L57.6493 136.1439
" />
<path d="M57.6493 136.1439
L57.4588 136.2392
" />
<path d="M57.4588 136.2392
L57.2684 136.2392
" />
<path d="M57.2684 136.2392
L57.0779 136.1439
" />
<path d="M57.0779 136.1439
L56.9826 136.0487
" />
<path d="M56.9826 136.0487
L56.8874 135.8582
" />
<path d="M56.8874 135.8582
L56.7922 135.4773
" />
<path d="M56.7922 135.4773
L56.7922 135.0011
" />
<path d="M56.7922 135.0011
L56.8874 134.6201
" />
<path d="M56.8874 134.6201
L56.9826 134.4296
" />
<path d="M56.9826 134.4296
L57.0779 134.3344
" />
<path d="M57.0779 134.3344
L57.2684 134.2392
" />
<path d="M60.3160 136.2392
L60.3160 134.2392
" />
<path d="M61.1731 136.2392
L61.1731 135.1915
" />
<path d="M61.1731 135.1915
L61.0779 135.0011
" />
<path d="M61.0779 135.0011
L60.8874 134.9058
" />
<path d="M60.8874 134.9058
L60.6017 134.9058
" />
<path d="M60.6017 134.9058
L60.4112 135.0011
" />
<path d="M60.4112 135.0011
L60.3160 135.0963
" />
<path d="M62.4112 136.2392
L62.2207 136.1439
" />
<path d="M62.2207 136.1439
L62.1255 136.0487
" />
<path d="M62.1255 136.0487
L62.0303 135.8582
" />
<path d="M62.0303 135.8582
L62.0303 135.2868
" />
<path d="M62.0303 135.2868
L62.1255 135.0963
" />
<path d="M62.1255 135.0963
L62.2207 135.0011
" />
<path d="M62.2207 135.0011
L62.4112 134.9058
" />
<path d="M62.4112 134.9058
L62.6969 134.9058
" />
<path d="M62.6969 134.9058
L62.8874 135.0011
" />
<path d="M62.8874 135.0011
L62.9826 135.0963
" />
<path d="M62.9826 135.0963
L63.0779 135.2868
" />
<path d="M63.0779 135.2868
L63.0779 135.8582
" />
<path d="M63.0779 135.8582
L62.9826 136.0487
" />
<path d="M62.9826 136.0487
L62.8874 136.1439
" />
<path d="M62.8874 136.1439
L62.6969 136.2392
" />
<path d="M62.6969 136.2392
L62.4112 136.2392
" />
<path d="M64.2207 136.2392
L64.0303 136.1439
" />
<path d="M64.0303 136.1439
L63.9350 135.9534
" />
<path d="M63.9350 135.9534
L63.9350 134.2392
" />
<path d="M65.7445 136.1439
L65.5541 136.2392
" />
<path d="M65.5541 136.2392
L65.1731 136.2392
" />
<path d="M65.1731 136.2392
L64.9826 136.1439
" />
<path d="M64.9826 136.1439
L64.8874 135.9534
" />
<path d="M64.8874 135.9534
L64.8874 135.1915
" />
<path d="M64.8874 135.1915
L64.9826 135.0011
" />
<path d="M64.9826 135.0011
L65.1731 134.9058
" />
<path d="M65.1731 134.9058
L65.5541 134.9058
" />
<path d="M65.5541 134.9058
L65.7445 135.0011
" />
<path d="M65.7445 135.0011
L65.8398 135.1915
" />
<path d="M65.8398 135.1915
L65.8398 135.3820
" />
<path d="M65.8398 135.3820
L64.8874 135.5725
" />
<path d="M66.6017 136.1439
L66.7922 136.2392
" />
<path d="M66.7922 136.2392
L67.1731 136.2392
" />
<path d="M67.1731 136.2392
L67.3636 136.1439
" />
<path d="M67.3636 136.1439
L67.4588 135.9534
" />
<path d="M67.4588 135.9534
L67.4588 135.8582
" />
<path d="M67.4588 135.8582
L67.3636 135.6677
" />
<path d="M67.3636 135.6677
L67.1731 135.5725
" />
<path d="M67.1731 135.5725
L66.8874 135.5725
" />
<path d="M66.8874 135.5725
L66.6969 135.4773
" />
<path d="M66.6969 135.4773
L66.6017 135.2868
" />
<path d="M66.6017 135.2868
L66.6017 135.1915
" />
<path d="M66.6017 135.1915
L66.6969 135.0011
" />
<path d="M66.6969 135.0011
L66.8874 134.9058
" />
<path d="M66.8874 134.9058
L67.1731 134.9058
" />
<path d="M67.1731 134.9058
L67.3636 135.0011
" />
<path d="M68.1255 137.0011
L68.2207 136.9058
" />
<path d="M68.2207 136.9058
L68.4112 136.6201
" />
<path d="M68.4112 136.6201
L68.5064 136.4296
" />
<path d="M68.5064 136.4296
L68.6017 136.1439
" />
<path d="M68.6017 136.1439
L68.6969 135.6677
" />
<path d="M68.6969 135.6677
L68.6969 135.2868
" />
<path d="M68.6969 135.2868
L68.6017 134.8106
" />
<path d="M68.6017 134.8106
L68.5064 134.5249
" />
<path d="M68.5064 134.5249
L68.4112 134.3344
" />
<path d="M68.4112 134.3344
L68.2207 134.0487
" />
<path d="M68.2207 134.0487
L68.1255 133.9534
" />
</g></g> 
</svg>
