M48
; DRILL file {KiCad 7.0.7} date Wed Oct  4 19:01:06 2023
; FORMAT={-:-/ absolute / inch / decimal}
; #@! TF.CreationDate,2023-10-04T19:01:06+09:00
; #@! TF.GenerationSoftware,Kicad,Pcbnew,7.0.7
; #@! TF.FileFunction,Plated,1,2,PTH
FMAT,2
INCH
; #@! TA.AperFunction,Plated,PTH,ViaDrill
T1C0.0020
; #@! TA.AperFunction,Plated,PTH,ViaDrill
T2C0.0039
; #@! TA.AperFunction,Plated,PTH,ViaDrill
T3C0.0157
; #@! TA.AperFunction,Plated,PTH,ComponentDrill
T4C0.0236
; #@! TA.AperFunction,Plated,PTH,ComponentDrill
T5C0.0394
; #@! TA.AperFunction,Plated,PTH,ComponentDrill
T6C0.0591
%
G90
G05
T1
X5.3016Y-3.5315
X5.3976Y-3.6272
X5.4291Y-3.3051
X5.4291Y-3.3568
X5.4291Y-3.7933
X5.4449Y-3.6276
X5.4476Y-3.5878
X5.4606Y-3.6276
X5.4736Y-3.5878
X5.5079Y-3.3043
X5.5079Y-3.3568
X5.5394Y-3.3051
X5.5723Y-3.5315
T2
X4.0166Y-3.5138
X4.0599Y-3.5138
X4.6339Y-2.8976
X4.6339Y-2.937
X4.6713Y-1.7341
X4.7106Y-1.6762
X4.9528Y-3.4862
X4.9528Y-3.5275
X4.9723Y-3.4862
X4.9724Y-3.5275
X4.988Y-3.4863
X4.9961Y-3.5275
X5.0075Y-3.4863
X5.0158Y-3.5275
X5.0269Y-3.4863
X5.038Y-3.5279
X5.0464Y-3.4863
X5.0571Y-3.5275
X5.0658Y-3.4863
X5.0825Y-3.4863
X5.0993Y-3.4862
X5.1161Y-3.75
X5.1162Y-3.6988
X5.1162Y-3.7146
X5.1162Y-3.7303
X5.1162Y-3.7815
X5.1162Y-3.7657
X5.1181Y-3.6201
X5.1187Y-3.4863
X5.13Y-3.6673
X5.1437Y-3.5
X5.1437Y-3.4055
X5.1437Y-3.4213
X5.1437Y-3.437
X5.1437Y-3.4528
X5.1437Y-3.4685
X5.1437Y-3.4843
X5.1437Y-3.5157
X5.2303Y-3.5157
X5.2303Y-3.4055
X5.2303Y-3.4213
X5.2303Y-3.4528
X5.2303Y-3.4685
X5.2303Y-3.4843
X5.2303Y-3.5472
X5.2303Y-3.5787
X5.2303Y-3.5945
X5.2303Y-3.6673
X5.2303Y-3.6831
X5.2303Y-3.6988
X5.2303Y-3.7145
X5.2303Y-3.7657
X5.2303Y-3.7815
X5.2303Y-3.5
X5.2303Y-3.563
X5.2303Y-3.7303
X5.2303Y-3.75
X5.2303Y-3.437
X5.3071Y-4.5984
X5.311Y-2.9134
X5.3111Y-2.9605
X5.3387Y-2.7794
X5.3535Y-2.7942
X5.3564Y-2.7579
X5.3639Y-3.86
X5.3666Y-2.8073
X5.3702Y-2.772
X5.3801Y-2.8207
X5.3839Y-3.6992
X5.3839Y-3.7187
X5.3839Y-3.7381
X5.3839Y-3.6798
X5.3839Y-2.7857
X5.389Y-3.885
X5.3948Y-2.8355
X5.3958Y-2.7976
X5.408Y-2.511
X5.4095Y-2.8113
X5.4115Y-2.8542
X5.4233Y-2.7165
X5.4233Y-2.8251
X5.4351Y-2.4826
X5.437Y-2.5234
X5.4489Y-2.4963
X5.4489Y-3.0789
X5.4489Y-3.0946
X5.4489Y-3.1103
X5.4626Y-1.8248
X5.4626Y-2.0512
X5.4626Y-2.4016
X5.5059Y-1.8248
X5.5059Y-2.0512
X5.5059Y-2.4016
X5.5059Y-2.7165
X5.5059Y-3.0787
X5.5059Y-3.0945
X5.5059Y-3.1102
X5.5216Y-3.7263
X5.5216Y-3.6791
X5.5216Y-3.6949
X5.5217Y-3.7106
X5.6732Y-4.6122
X5.6734Y-1.651
X5.6831Y-1.6634
X5.6976Y-1.6267
X5.7081Y-1.6384
X5.7638Y-4.6122
T3
X2.4374Y-1.8377
X2.4374Y-1.8947
X2.4374Y-2.5877
X2.4374Y-2.6447
X2.8837Y-2.2756
X2.9408Y-2.274
X5.0859Y-3.0272
X5.1337Y-2.2756
X5.1437Y-4.4006
X5.1555Y-4.4415
X5.1654Y-3.0284
X5.1908Y-2.2756
X5.2254Y-4.5
X5.2929Y-4.011
X5.3051Y-1.0472
X5.3072Y-3.9362
X5.3819Y-0.937
X5.3889Y-3.9362
X5.3929Y-4.011
X5.3957Y-1.7106
X5.4032Y-1.0542
X5.4308Y-1.477
X5.4311Y-1.3878
X5.436Y-1.8377
X5.436Y-1.8947
X5.437Y-3.4921
X5.4409Y-4.2106
X5.4626Y-1.0551
X5.4783Y-1.7106
X5.4843Y-0.937
X5.4963Y-4.3031
X5.4966Y-4.2402
X5.5335Y-4.4006
X5.5335Y-4.4478
X5.5335Y-4.5
X5.561Y-1.0472
X5.6121Y-3.2374
X5.628Y-4.2106
X5.6674Y-4.3512
X5.8837Y-2.2756
X5.9083Y-3.0276
X5.918Y-3.2819
X5.9408Y-2.2756
X5.9876Y-3.0262
X8.1337Y-1.5291
X8.1337Y-2.2748
X8.1908Y-2.2748
X8.1957Y-1.5283
X8.4374Y-1.8947
X8.439Y-1.8377
T5
X5.3659Y-4.6976
X5.3659Y-4.7976
X5.5081Y-4.6976
X5.5081Y-4.7976
T6
X1.1623Y-3.4662
X1.4123Y-3.3662
X1.5373Y-1.2162
X1.7873Y-1.1162
X1.9123Y-1.9662
X2.1623Y-1.8662
X2.6623Y-1.2162
X2.6623Y-1.9662
X2.6623Y-2.7162
X2.9123Y-1.1162
X2.9123Y-1.8662
X2.9123Y-2.6162
X3.4123Y-1.9662
X3.6623Y-1.8662
X3.7873Y-4.2162
X4.0373Y-4.1162
X4.9123Y-1.9662
X4.9123Y-2.7162
X5.1623Y-1.8662
X5.1623Y-2.6162
X5.6623Y-1.9662
X5.6623Y-2.7162
X5.9123Y-1.8662
X5.9123Y-2.6162
X6.7873Y-4.2162
X7.0373Y-4.1162
X7.1623Y-1.9662
X7.4123Y-1.8662
X7.9123Y-1.2162
X7.9123Y-1.9662
X7.9123Y-2.7162
X8.1623Y-1.1162
X8.1623Y-1.8662
X8.1623Y-2.6162
X8.6623Y-1.9662
X8.9123Y-1.8662
X9.0373Y-1.2162
X9.2873Y-1.1162
X9.4123Y-3.4662
X9.6623Y-3.3662
T4
G00X5.263Y-0.8278
M15
G01X5.263Y-0.8041
M16
G05
G00X5.263Y-1.0022
M15
G01X5.263Y-0.9589
M16
G05
G00X5.6031Y-0.8278
M15
G01X5.6031Y-0.8041
M16
G05
G00X5.6031Y-1.0022
M15
G01X5.6031Y-0.9589
M16
G05
T0
M30
