%TF.GenerationSoftware,KiCad,Pcbnew,7.0.7*%
%TF.CreationDate,2023-10-04T19:00:40+09:00*%
%TF.ProjectId,Sixtar-Switch,53697874-6172-42d5-9377-697463682e6b,rev?*%
%TF.SameCoordinates,Original*%
%TF.FileFunction,Paste,Bot*%
%TF.FilePolarity,Positive*%
%FSLAX46Y46*%
G04 Gerber Fmt 4.6, Leading zero omitted, Abs format (unit mm)*
G04 Created by KiCad (PCBNEW 7.0.7) date 2023-10-04 19:00:40*
%MOMM*%
%LPD*%
G01*
G04 APERTURE LIST*
G04 Aperture macros list*
%AMRoundRect*
0 Rectangle with rounded corners*
0 $1 Rounding radius*
0 $2 $3 $4 $5 $6 $7 $8 $9 X,Y pos of 4 corners*
0 Add a 4 corners polygon primitive as box body*
4,1,4,$2,$3,$4,$5,$6,$7,$8,$9,$2,$3,0*
0 Add four circle primitives for the rounded corners*
1,1,$1+$1,$2,$3*
1,1,$1+$1,$4,$5*
1,1,$1+$1,$6,$7*
1,1,$1+$1,$8,$9*
0 Add four rect primitives between the rounded corners*
20,1,$1+$1,$2,$3,$4,$5,0*
20,1,$1+$1,$4,$5,$6,$7,0*
20,1,$1+$1,$6,$7,$8,$9,0*
20,1,$1+$1,$8,$9,$2,$3,0*%
G04 Aperture macros list end*
%ADD10RoundRect,0.250000X0.337500X0.475000X-0.337500X0.475000X-0.337500X-0.475000X0.337500X-0.475000X0*%
%ADD11RoundRect,0.250000X-0.450000X0.350000X-0.450000X-0.350000X0.450000X-0.350000X0.450000X0.350000X0*%
%ADD12RoundRect,0.250000X0.450000X-0.350000X0.450000X0.350000X-0.450000X0.350000X-0.450000X-0.350000X0*%
%ADD13RoundRect,0.250000X-0.337500X-0.475000X0.337500X-0.475000X0.337500X0.475000X-0.337500X0.475000X0*%
%ADD14R,2.000000X2.400000*%
%ADD15RoundRect,0.250000X0.350000X0.450000X-0.350000X0.450000X-0.350000X-0.450000X0.350000X-0.450000X0*%
G04 APERTURE END LIST*
D10*
%TO.C,C12*%
X150317500Y-93360000D03*
X148242500Y-93360000D03*
%TD*%
%TO.C,C10*%
X150317500Y-89360000D03*
X148242500Y-89360000D03*
%TD*%
%TO.C,C5*%
X129290238Y-83360000D03*
X127215238Y-83360000D03*
%TD*%
%TO.C,C8*%
X150317500Y-85360000D03*
X148242500Y-85360000D03*
%TD*%
%TO.C,C9*%
X150317500Y-87360000D03*
X148242500Y-87360000D03*
%TD*%
%TO.C,C15*%
X142547500Y-82230000D03*
X140472500Y-82230000D03*
%TD*%
D11*
%TO.C,R5*%
X139150000Y-43450000D03*
X139150000Y-41450000D03*
%TD*%
D10*
%TO.C,C7*%
X150317500Y-83360000D03*
X148242500Y-83360000D03*
%TD*%
D11*
%TO.C,R6*%
X137050000Y-43450000D03*
X137050000Y-41450000D03*
%TD*%
D10*
%TO.C,C14*%
X138707500Y-82220000D03*
X136632500Y-82220000D03*
%TD*%
%TO.C,C11*%
X150317500Y-91360000D03*
X148242500Y-91360000D03*
%TD*%
%TO.C,C13*%
X150317500Y-95360000D03*
X148242500Y-95360000D03*
%TD*%
%TO.C,C6*%
X127215238Y-85340000D03*
X129290238Y-85340000D03*
%TD*%
D12*
%TO.C,R27*%
X86600000Y-57800000D03*
X86600000Y-55800000D03*
%TD*%
%TO.C,R1*%
X181920000Y-57790000D03*
X181920000Y-55790000D03*
%TD*%
D10*
%TO.C,C16*%
X136877500Y-99980000D03*
X134802500Y-99980000D03*
%TD*%
D12*
%TO.C,R19*%
X239000000Y-95900000D03*
X239000000Y-93900000D03*
%TD*%
%TO.C,R15*%
X124600000Y-76900000D03*
X124600000Y-74900000D03*
%TD*%
%TO.C,R26*%
X48500000Y-57800000D03*
X48500000Y-55800000D03*
%TD*%
%TO.C,R23*%
X229550000Y-38800000D03*
X229550000Y-36800000D03*
%TD*%
%TO.C,R2*%
X139300000Y-23800000D03*
X139300000Y-21800000D03*
%TD*%
%TO.C,R25*%
X67500000Y-76900000D03*
X67500000Y-74900000D03*
%TD*%
%TO.C,R16*%
X143700000Y-76900000D03*
X143700000Y-74900000D03*
%TD*%
%TO.C,R18*%
X200970000Y-38800000D03*
X200970000Y-36800000D03*
%TD*%
%TO.C,R22*%
X39040000Y-38800000D03*
X39040000Y-36800000D03*
%TD*%
%TO.C,R8*%
X200970000Y-57790000D03*
X200970000Y-55790000D03*
%TD*%
%TO.C,R12*%
X143820000Y-57800000D03*
X143820000Y-55800000D03*
%TD*%
%TO.C,R21*%
X29400000Y-95900000D03*
X29400000Y-93900000D03*
%TD*%
%TO.C,R3*%
X136700000Y-23800000D03*
X136700000Y-21800000D03*
%TD*%
%TO.C,R13*%
X96100000Y-115000000D03*
X96100000Y-113000000D03*
%TD*%
%TO.C,R24*%
X67500000Y-57800000D03*
X67500000Y-55800000D03*
%TD*%
%TO.C,R4*%
X200900000Y-76900000D03*
X200900000Y-74900000D03*
%TD*%
%TO.C,R11*%
X124760000Y-57800000D03*
X124760000Y-55800000D03*
%TD*%
%TO.C,R17*%
X67630000Y-38790000D03*
X67630000Y-36790000D03*
%TD*%
D13*
%TO.C,C17*%
X139322500Y-99980000D03*
X141397500Y-99980000D03*
%TD*%
D12*
%TO.C,R7*%
X220020000Y-57780000D03*
X220020000Y-55780000D03*
%TD*%
%TO.C,R14*%
X172300000Y-115000000D03*
X172300000Y-113000000D03*
%TD*%
D14*
%TO.C,Y1*%
X139860000Y-104490000D03*
X136160000Y-104490000D03*
%TD*%
D15*
%TO.C,R20*%
X139080000Y-96730000D03*
X137080000Y-96730000D03*
%TD*%
M02*
