%TF.GenerationSoftware,KiCad,Pcbnew,7.0.7*%
%TF.CreationDate,2023-10-06T06:04:08+09:00*%
%TF.ProjectId,Sixtar-Switch,53697874-6172-42d5-9377-697463682e6b,rev?*%
%TF.SameCoordinates,Original*%
%TF.FileFunction,Drillmap*%
%TF.FilePolarity,Positive*%
%FSLAX45Y45*%
G04 Gerber Fmt 4.5, Leading zero omitted, Abs format (unit mm)*
G04 Created by KiCad (PCBNEW 7.0.7) date 2023-10-06 06:04:08*
%MOMM*%
%LPD*%
G01*
G04 APERTURE LIST*
%ADD10C,0.100000*%
%ADD11C,0.200000*%
%ADD12C,0.030000*%
%ADD13C,0.060000*%
%ADD14C,0.150000*%
G04 APERTURE END LIST*
D10*
X25800000Y-12500000D02*
X1800000Y-12500000D01*
X1800000Y-12500000D02*
X1800000Y-1800000D01*
X25800000Y-1800000D02*
X25800000Y-12500000D01*
X1800000Y-1800000D02*
X25800000Y-1800000D01*
D11*
D12*
X4535000Y-3783300D02*
X4565000Y-3813300D01*
X4565000Y-3783300D02*
X4535000Y-3813300D01*
X4535000Y-3946700D02*
X4565000Y-3976700D01*
X4565000Y-3946700D02*
X4535000Y-3976700D01*
X7382125Y-3978575D02*
X7412125Y-4008575D01*
X7412125Y-3978575D02*
X7382125Y-4008575D01*
X7385000Y-3775000D02*
X7415000Y-3805000D01*
X7415000Y-3775000D02*
X7385000Y-3805000D01*
X7385000Y-5688300D02*
X7415000Y-5718300D01*
X7415000Y-5688300D02*
X7385000Y-5718300D01*
X7385000Y-5851700D02*
X7415000Y-5881700D01*
X7415000Y-5851700D02*
X7385000Y-5881700D01*
X10305000Y-2295050D02*
X10335000Y-2325050D01*
X10335000Y-2295050D02*
X10305000Y-2325050D01*
X10305000Y-2414950D02*
X10335000Y-2444950D01*
X10335000Y-2414950D02*
X10305000Y-2444950D01*
X11215000Y-7975000D02*
X11245000Y-8005000D01*
X11245000Y-7975000D02*
X11215000Y-8005000D01*
X11585050Y-6085000D02*
X11615050Y-6115000D01*
X11615050Y-6085000D02*
X11585050Y-6115000D01*
X11625050Y-4055000D02*
X11655050Y-4085000D01*
X11655050Y-4055000D02*
X11625050Y-4085000D01*
X11625050Y-4535000D02*
X11655050Y-4565000D01*
X11655050Y-4535000D02*
X11625050Y-4565000D01*
X11685000Y-7975000D02*
X11715000Y-8005000D01*
X11715000Y-7975000D02*
X11685000Y-8005000D01*
X11745050Y-4055000D02*
X11775050Y-4085000D01*
X11775050Y-4055000D02*
X11745050Y-4085000D01*
X11745050Y-8035000D02*
X11775050Y-8065000D01*
X11775050Y-8035000D02*
X11745050Y-8065000D01*
X11802617Y-3862600D02*
X11832617Y-3892600D01*
X11832617Y-3862600D02*
X11802617Y-3892600D01*
X11805000Y-3945000D02*
X11835000Y-3975000D01*
X11835000Y-3945000D02*
X11805000Y-3975000D01*
X11924950Y-3865000D02*
X11954950Y-3895000D01*
X11954950Y-3865000D02*
X11924950Y-3895000D01*
X11924950Y-3945000D02*
X11954950Y-3975000D01*
X11954950Y-3945000D02*
X11924950Y-3975000D01*
X11924950Y-4535000D02*
X11954950Y-4565000D01*
X11954950Y-4535000D02*
X11924950Y-4565000D01*
X11925000Y-6085000D02*
X11955000Y-6115000D01*
X11955000Y-6085000D02*
X11925000Y-6115000D01*
X11925000Y-8475000D02*
X11955000Y-8505000D01*
X11955000Y-8475000D02*
X11925000Y-8505000D01*
X11984993Y-9394950D02*
X12014993Y-9424950D01*
X12014993Y-9394950D02*
X11984993Y-9424950D01*
X11984993Y-9475050D02*
X12014993Y-9505050D01*
X12014993Y-9475050D02*
X11984993Y-9505050D01*
X11985050Y-8995000D02*
X12015050Y-9025000D01*
X12015050Y-8995000D02*
X11985050Y-9025000D01*
X11985050Y-9075000D02*
X12015050Y-9105000D01*
X12015050Y-9075000D02*
X11985050Y-9105000D01*
X11985050Y-9155000D02*
X12015050Y-9185000D01*
X12015050Y-9155000D02*
X11985050Y-9185000D01*
X11985050Y-9235000D02*
X12015050Y-9265000D01*
X12015050Y-9235000D02*
X11985050Y-9265000D01*
X11985050Y-9315000D02*
X12015050Y-9345000D01*
X12015050Y-9315000D02*
X11985050Y-9345000D01*
X11985050Y-9555000D02*
X12015050Y-9585000D01*
X12015050Y-9555000D02*
X11985050Y-9585000D01*
X11985050Y-9634950D02*
X12015050Y-9664950D01*
X12015050Y-9634950D02*
X11985050Y-9664950D01*
X11985050Y-9724496D02*
X12015050Y-9754496D01*
X12015050Y-9724496D02*
X11985050Y-9754496D01*
X12025000Y-11403300D02*
X12055000Y-11433300D01*
X12055000Y-11403300D02*
X12025000Y-11433300D01*
X12025000Y-11566700D02*
X12055000Y-11596700D01*
X12055000Y-11566700D02*
X12025000Y-11596700D01*
X12075000Y-8035000D02*
X12105000Y-8065000D01*
X12105000Y-8035000D02*
X12075000Y-8065000D01*
X12078796Y-8438796D02*
X12108796Y-8468796D01*
X12108796Y-8438796D02*
X12078796Y-8468796D01*
X12257154Y-8345221D02*
X12287154Y-8375221D01*
X12287154Y-8345221D02*
X12257154Y-8375221D01*
X12260365Y-11099635D02*
X12290365Y-11129635D01*
X12290365Y-11099635D02*
X12260365Y-11129635D01*
X12313687Y-8288687D02*
X12343687Y-8318687D01*
X12343687Y-8288687D02*
X12313687Y-8318687D01*
X12384949Y-9234900D02*
X12414949Y-9264900D01*
X12414949Y-9234900D02*
X12384949Y-9264900D01*
X12384950Y-8995000D02*
X12414950Y-9025000D01*
X12414950Y-8995000D02*
X12384950Y-9025000D01*
X12384950Y-9075000D02*
X12414950Y-9105000D01*
X12414950Y-9075000D02*
X12384950Y-9105000D01*
X12384950Y-9394801D02*
X12414950Y-9424801D01*
X12414950Y-9394801D02*
X12384950Y-9424801D01*
X12384950Y-9474751D02*
X12414950Y-9504751D01*
X12414950Y-9474751D02*
X12384950Y-9504751D01*
X12384950Y-9554701D02*
X12414950Y-9584701D01*
X12414950Y-9554701D02*
X12384950Y-9584701D01*
X12384950Y-9314851D02*
X12414950Y-9344851D01*
X12414950Y-9314851D02*
X12384950Y-9344851D01*
X12385007Y-9154950D02*
X12415007Y-9184950D01*
X12415007Y-9154950D02*
X12385007Y-9184950D01*
X12455000Y-8915000D02*
X12485000Y-8945000D01*
X12485000Y-8915000D02*
X12455000Y-8945000D01*
X12455000Y-9615000D02*
X12485000Y-9645000D01*
X12485000Y-9615000D02*
X12455000Y-9645000D01*
X12466634Y-11221122D02*
X12496634Y-11251122D01*
X12496634Y-11221122D02*
X12466634Y-11251122D01*
X12483358Y-8571425D02*
X12513358Y-8601425D01*
X12513358Y-8571425D02*
X12483358Y-8601425D01*
X12539891Y-8514891D02*
X12569891Y-8544891D01*
X12569891Y-8514891D02*
X12539891Y-8544891D01*
X12855000Y-8035000D02*
X12885000Y-8065000D01*
X12885000Y-8035000D02*
X12855000Y-8065000D01*
X13015000Y-3855000D02*
X13045000Y-3885000D01*
X13045000Y-3855000D02*
X13015000Y-3885000D01*
X13015425Y-3945000D02*
X13045425Y-3975000D01*
X13045425Y-3945000D02*
X13015425Y-3975000D01*
X13035000Y-8115000D02*
X13065000Y-8145000D01*
X13065000Y-8115000D02*
X13035000Y-8145000D01*
X13035000Y-8455000D02*
X13065000Y-8485000D01*
X13065000Y-8455000D02*
X13035000Y-8485000D01*
X13095000Y-5688300D02*
X13125000Y-5718300D01*
X13125000Y-5688300D02*
X13095000Y-5718300D01*
X13097125Y-5863825D02*
X13127125Y-5893825D01*
X13127125Y-5863825D02*
X13097125Y-5893825D01*
X13114950Y-8455000D02*
X13144950Y-8485000D01*
X13144950Y-8455000D02*
X13114950Y-8485000D01*
X13114950Y-8115000D02*
X13144950Y-8145000D01*
X13144950Y-8115000D02*
X13114950Y-8145000D01*
X13178825Y-3855000D02*
X13208825Y-3885000D01*
X13208825Y-3855000D02*
X13178825Y-3885000D01*
X13178825Y-3945000D02*
X13208825Y-3975000D01*
X13208825Y-3945000D02*
X13178825Y-3975000D01*
X13194900Y-8454998D02*
X13224900Y-8484998D01*
X13224900Y-8454998D02*
X13194900Y-8484998D01*
X13195000Y-8115000D02*
X13225000Y-8145000D01*
X13225000Y-8115000D02*
X13195000Y-8145000D01*
X13274851Y-8455057D02*
X13304851Y-8485057D01*
X13304851Y-8455057D02*
X13274851Y-8485057D01*
X13274950Y-8114950D02*
X13304950Y-8144950D01*
X13304950Y-8114950D02*
X13274950Y-8144950D01*
X13275000Y-2745000D02*
X13305000Y-2775000D01*
X13305000Y-2745000D02*
X13275000Y-2775000D01*
X13315000Y-11348450D02*
X13345000Y-11378450D01*
X13345000Y-11348450D02*
X13315000Y-11378450D01*
X13354801Y-8455000D02*
X13384801Y-8485000D01*
X13384801Y-8455000D02*
X13354801Y-8485000D01*
X13360000Y-8115000D02*
X13390000Y-8145000D01*
X13390000Y-8115000D02*
X13360000Y-8145000D01*
X13365000Y-10185000D02*
X13395000Y-10215000D01*
X13395000Y-10185000D02*
X13365000Y-10215000D01*
X13405000Y-10524050D02*
X13435000Y-10554050D01*
X13435000Y-10524050D02*
X13405000Y-10554050D01*
X13405000Y-10683950D02*
X13435000Y-10713950D01*
X13435000Y-10683950D02*
X13405000Y-10713950D01*
X13410050Y-3855000D02*
X13440050Y-3885000D01*
X13440050Y-3855000D02*
X13410050Y-3885000D01*
X13410050Y-3945000D02*
X13440050Y-3975000D01*
X13440050Y-3945000D02*
X13410050Y-3975000D01*
X13450050Y-7485000D02*
X13480050Y-7515000D01*
X13480050Y-7485000D02*
X13450050Y-7515000D01*
X13450100Y-6005000D02*
X13480100Y-6035000D01*
X13480100Y-6005000D02*
X13450100Y-6035000D01*
X13450100Y-6085000D02*
X13480100Y-6115000D01*
X13480100Y-6085000D02*
X13450100Y-6115000D01*
X13465000Y-9845000D02*
X13495000Y-9875000D01*
X13495000Y-9845000D02*
X13465000Y-9875000D01*
X13510050Y-5120000D02*
X13540050Y-5150000D01*
X13540050Y-5120000D02*
X13510050Y-5150000D01*
X13527244Y-9507244D02*
X13557244Y-9537244D01*
X13557244Y-9507244D02*
X13527244Y-9537244D01*
X13529950Y-3855000D02*
X13559950Y-3885000D01*
X13559950Y-3855000D02*
X13529950Y-3885000D01*
X13529950Y-3945000D02*
X13559950Y-3975000D01*
X13559950Y-3945000D02*
X13529950Y-3975000D01*
X13610000Y-9066700D02*
X13640000Y-9096700D01*
X13640000Y-9066700D02*
X13610000Y-9096700D01*
X13655050Y-5555000D02*
X13685050Y-5585000D01*
X13685050Y-5555000D02*
X13655050Y-5585000D01*
X13665000Y-8725000D02*
X13695000Y-8755000D01*
X13695000Y-8725000D02*
X13665000Y-8755000D01*
X13665000Y-8855000D02*
X13695000Y-8885000D01*
X13695000Y-8855000D02*
X13665000Y-8885000D01*
X13665000Y-8985000D02*
X13695000Y-9015000D01*
X13695000Y-8985000D02*
X13665000Y-9015000D01*
X13676262Y-11100071D02*
X13706262Y-11130071D01*
X13706262Y-11100071D02*
X13676262Y-11130071D01*
X13678450Y-11225000D02*
X13708450Y-11255000D01*
X13708450Y-11225000D02*
X13678450Y-11255000D01*
X13678450Y-11348450D02*
X13708450Y-11378450D01*
X13708450Y-11348450D02*
X13678450Y-11378450D01*
X13681250Y-2890000D02*
X13711250Y-2920000D01*
X13711250Y-2890000D02*
X13681250Y-2920000D01*
X13685000Y-2365000D02*
X13715000Y-2395000D01*
X13715000Y-2365000D02*
X13685000Y-2395000D01*
X13685000Y-10205000D02*
X13715000Y-10235000D01*
X13715000Y-10205000D02*
X13685000Y-10235000D01*
X13690000Y-4330000D02*
X13720000Y-4360000D01*
X13720000Y-4330000D02*
X13690000Y-4360000D01*
X13693000Y-9658000D02*
X13723000Y-9688000D01*
X13723000Y-9658000D02*
X13693000Y-9688000D01*
X13710000Y-2735000D02*
X13740000Y-2765000D01*
X13740000Y-2735000D02*
X13710000Y-2765000D01*
X13715000Y-4625000D02*
X13745000Y-4655000D01*
X13745000Y-4625000D02*
X13715000Y-4655000D01*
X13775050Y-6710137D02*
X13805050Y-6740137D01*
X13805050Y-6710137D02*
X13775050Y-6740137D01*
X13778175Y-9508175D02*
X13808175Y-9538175D01*
X13808175Y-9508175D02*
X13778175Y-9538175D01*
X13795000Y-8725000D02*
X13825000Y-8755000D01*
X13825000Y-8725000D02*
X13795000Y-8755000D01*
X13795000Y-8855000D02*
X13825000Y-8885000D01*
X13825000Y-8855000D02*
X13795000Y-8885000D01*
X13795000Y-8985000D02*
X13825000Y-9015000D01*
X13825000Y-8985000D02*
X13795000Y-9015000D01*
X13834950Y-8432391D02*
X13864950Y-8462391D01*
X13864950Y-8432391D02*
X13834950Y-8462391D01*
X13835050Y-4805138D02*
X13865050Y-4835138D01*
X13865050Y-4805138D02*
X13835050Y-4835138D01*
X13835050Y-8207000D02*
X13865050Y-8237000D01*
X13865050Y-8207000D02*
X13835050Y-8237000D01*
X13855000Y-9066700D02*
X13885000Y-9096700D01*
X13885000Y-9066700D02*
X13855000Y-9096700D01*
X13860000Y-2735000D02*
X13890000Y-2765000D01*
X13890000Y-2735000D02*
X13860000Y-2765000D01*
X13875000Y-8635000D02*
X13905000Y-8665000D01*
X13905000Y-8635000D02*
X13875000Y-8665000D01*
X13885000Y-2365000D02*
X13915000Y-2395000D01*
X13915000Y-2365000D02*
X13885000Y-2395000D01*
X13900000Y-4330000D02*
X13930000Y-4360000D01*
X13930000Y-4330000D02*
X13900000Y-4360000D01*
X13915000Y-9825000D02*
X13945000Y-9855000D01*
X13945000Y-9825000D02*
X13915000Y-9855000D01*
X13925000Y-8725000D02*
X13955000Y-8755000D01*
X13955000Y-8725000D02*
X13925000Y-8755000D01*
X13925000Y-8855000D02*
X13955000Y-8885000D01*
X13955000Y-8855000D02*
X13925000Y-8885000D01*
X13925000Y-8985000D02*
X13955000Y-9015000D01*
X13955000Y-8985000D02*
X13925000Y-9015000D01*
X13940566Y-9430567D02*
X13970566Y-9460567D01*
X13970566Y-9430567D02*
X13940566Y-9460567D01*
X14015000Y-9365000D02*
X14045000Y-9395000D01*
X14045000Y-9365000D02*
X14015000Y-9395000D01*
X14034950Y-4625000D02*
X14064950Y-4655000D01*
X14064950Y-4625000D02*
X14034950Y-4655000D01*
X14034950Y-4805138D02*
X14064950Y-4835138D01*
X14064950Y-4805138D02*
X14034950Y-4835138D01*
X14034950Y-5120000D02*
X14064950Y-5150000D01*
X14064950Y-5120000D02*
X14034950Y-5150000D01*
X14034950Y-5555000D02*
X14064950Y-5585000D01*
X14064950Y-5555000D02*
X14034950Y-5585000D01*
X14034950Y-6710137D02*
X14064950Y-6740137D01*
X14064950Y-6710137D02*
X14034950Y-6740137D01*
X14034950Y-7485000D02*
X14064950Y-7515000D01*
X14064950Y-7485000D02*
X14034950Y-7515000D01*
X14055000Y-6005000D02*
X14085000Y-6035000D01*
X14085000Y-6005000D02*
X14055000Y-6035000D01*
X14055000Y-6084950D02*
X14085000Y-6114950D01*
X14085000Y-6084950D02*
X14055000Y-6114950D01*
X14055000Y-8035000D02*
X14085000Y-8065000D01*
X14085000Y-8035000D02*
X14055000Y-8065000D01*
X14175000Y-9765000D02*
X14205000Y-9795000D01*
X14205000Y-9765000D02*
X14175000Y-9795000D01*
X14235000Y-8955000D02*
X14265000Y-8985000D01*
X14265000Y-8955000D02*
X14235000Y-8985000D01*
X14239750Y-8208000D02*
X14269750Y-8238000D01*
X14269750Y-8208000D02*
X14239750Y-8238000D01*
X14295000Y-2745000D02*
X14325000Y-2775000D01*
X14325000Y-2745000D02*
X14295000Y-2775000D01*
X14472000Y-10715000D02*
X14502000Y-10745000D01*
X14502000Y-10715000D02*
X14472000Y-10745000D01*
X14545000Y-3855000D02*
X14575000Y-3885000D01*
X14575000Y-3855000D02*
X14545000Y-3885000D01*
X14545000Y-3945000D02*
X14575000Y-3975000D01*
X14575000Y-3945000D02*
X14545000Y-3975000D01*
X14815000Y-9705000D02*
X14845000Y-9735000D01*
X14845000Y-9705000D02*
X14815000Y-9735000D01*
X14928000Y-10715000D02*
X14958000Y-10745000D01*
X14958000Y-10715000D02*
X14928000Y-10745000D01*
X14945000Y-7595000D02*
X14975000Y-7625000D01*
X14975000Y-7595000D02*
X14945000Y-7625000D01*
X14948300Y-7761700D02*
X14978300Y-7791700D01*
X14978300Y-7761700D02*
X14948300Y-7791700D01*
X15002125Y-5864575D02*
X15032125Y-5894575D01*
X15032125Y-5864575D02*
X15002125Y-5894575D01*
X15005000Y-5688300D02*
X15035000Y-5718300D01*
X15035000Y-5688300D02*
X15005000Y-5718300D01*
X15015000Y-10522250D02*
X15045000Y-10552250D01*
X15045000Y-10522250D02*
X15015000Y-10552250D01*
X15016750Y-8321000D02*
X15046750Y-8351000D01*
X15046750Y-8321000D02*
X15016750Y-8351000D01*
X15026000Y-10989000D02*
X15056000Y-11019000D01*
X15056000Y-10989000D02*
X15026000Y-11019000D01*
X15085000Y-3855000D02*
X15115000Y-3885000D01*
X15115000Y-3855000D02*
X15085000Y-3885000D01*
X15085000Y-3945000D02*
X15115000Y-3975000D01*
X15115000Y-3945000D02*
X15085000Y-3975000D01*
X15165000Y-9715000D02*
X15195000Y-9745000D01*
X15195000Y-9715000D02*
X15165000Y-9745000D01*
X15165000Y-10515000D02*
X15195000Y-10545000D01*
X15195000Y-10515000D02*
X15165000Y-10545000D01*
X15165000Y-10705000D02*
X15195000Y-10735000D01*
X15195000Y-10705000D02*
X15165000Y-10735000D01*
X15755000Y-6824237D02*
X15785000Y-6854237D01*
X15785000Y-6824237D02*
X15755000Y-6854237D01*
X15755000Y-7975050D02*
X15785000Y-8005050D01*
X15785000Y-7975050D02*
X15755000Y-8005050D01*
X15755050Y-6944137D02*
X15785050Y-6974137D01*
X15785050Y-6944137D02*
X15755050Y-6974137D01*
X15755050Y-8094950D02*
X15785050Y-8124950D01*
X15785050Y-8094950D02*
X15755050Y-8124950D01*
X15835000Y-6824237D02*
X15865000Y-6854237D01*
X15865000Y-6824237D02*
X15835000Y-6854237D01*
X15835000Y-6944137D02*
X15865000Y-6974137D01*
X15865000Y-6944137D02*
X15835000Y-6974137D01*
X15835000Y-7975050D02*
X15865000Y-8005050D01*
X15865000Y-7975050D02*
X15835000Y-8005050D01*
X15835000Y-8094950D02*
X15865000Y-8124950D01*
X15865000Y-8094950D02*
X15835000Y-8124950D01*
X20715000Y-3750000D02*
X20745000Y-3780000D01*
X20745000Y-3750000D02*
X20715000Y-3780000D01*
X20717125Y-3954575D02*
X20747125Y-3984575D01*
X20747125Y-3954575D02*
X20717125Y-3984575D01*
X20720000Y-5682300D02*
X20750000Y-5712300D01*
X20750000Y-5682300D02*
X20720000Y-5712300D01*
X20720000Y-5845700D02*
X20750000Y-5875700D01*
X20750000Y-5845700D02*
X20720000Y-5875700D01*
D13*
X13398000Y-2072500D02*
G75*
G03*
X13398000Y-2072500I-30000J0D01*
G01*
D11*
X13398000Y-2112500D02*
X13398000Y-2032500D01*
X13398000Y-2032500D02*
G75*
G03*
X13338000Y-2032500I-30000J0D01*
G01*
X13338000Y-2032500D02*
X13338000Y-2112500D01*
X13338000Y-2112500D02*
G75*
G03*
X13398000Y-2112500I30000J0D01*
G01*
D13*
X13398000Y-2490500D02*
G75*
G03*
X13398000Y-2490500I-30000J0D01*
G01*
D11*
X13398000Y-2545500D02*
X13398000Y-2435500D01*
X13398000Y-2435500D02*
G75*
G03*
X13338000Y-2435500I-30000J0D01*
G01*
X13338000Y-2435500D02*
X13338000Y-2545500D01*
X13338000Y-2545500D02*
G75*
G03*
X13398000Y-2545500I30000J0D01*
G01*
D13*
X14262000Y-2072500D02*
G75*
G03*
X14262000Y-2072500I-30000J0D01*
G01*
D11*
X14262000Y-2112500D02*
X14262000Y-2032500D01*
X14262000Y-2032500D02*
G75*
G03*
X14202000Y-2032500I-30000J0D01*
G01*
X14202000Y-2032500D02*
X14202000Y-2112500D01*
X14202000Y-2112500D02*
G75*
G03*
X14262000Y-2112500I30000J0D01*
G01*
D13*
X14262000Y-2490500D02*
G75*
G03*
X14262000Y-2490500I-30000J0D01*
G01*
D11*
X14262000Y-2545500D02*
X14262000Y-2435500D01*
X14262000Y-2435500D02*
G75*
G03*
X14202000Y-2435500I-30000J0D01*
G01*
X14202000Y-2435500D02*
X14202000Y-2545500D01*
X14202000Y-2545500D02*
G75*
G03*
X14262000Y-2545500I30000J0D01*
G01*
D10*
X13629500Y-11882000D02*
X13629500Y-11982000D01*
X13579500Y-11932000D02*
X13679500Y-11932000D01*
X13629500Y-12136000D02*
X13629500Y-12236000D01*
X13579500Y-12186000D02*
X13679500Y-12186000D01*
X13990500Y-11882000D02*
X13990500Y-11982000D01*
X13940500Y-11932000D02*
X14040500Y-11932000D01*
X13990500Y-12136000D02*
X13990500Y-12236000D01*
X13940500Y-12186000D02*
X14040500Y-12186000D01*
D14*
X3005158Y-8857221D02*
X3005158Y-8751154D01*
X2899091Y-8751154D01*
X2899091Y-8857221D01*
X3005158Y-8857221D01*
X3640158Y-8603221D02*
X3640158Y-8497154D01*
X3534091Y-8497154D01*
X3534091Y-8603221D01*
X3640158Y-8603221D01*
X3957658Y-3142221D02*
X3957658Y-3036154D01*
X3851591Y-3036154D01*
X3851591Y-3142221D01*
X3957658Y-3142221D01*
X4592659Y-2888221D02*
X4592659Y-2782154D01*
X4486592Y-2782154D01*
X4486592Y-2888221D01*
X4592659Y-2888221D01*
X4910159Y-5047221D02*
X4910159Y-4941154D01*
X4804092Y-4941154D01*
X4804092Y-5047221D01*
X4910159Y-5047221D01*
X5545159Y-4793221D02*
X5545159Y-4687154D01*
X5439092Y-4687154D01*
X5439092Y-4793221D01*
X5545159Y-4793221D01*
X6815158Y-3142221D02*
X6815158Y-3036154D01*
X6709091Y-3036154D01*
X6709091Y-3142221D01*
X6815158Y-3142221D01*
X6815158Y-5047221D02*
X6815158Y-4941154D01*
X6709091Y-4941154D01*
X6709091Y-5047221D01*
X6815158Y-5047221D01*
X6815158Y-6952221D02*
X6815158Y-6846154D01*
X6709091Y-6846154D01*
X6709091Y-6952221D01*
X6815158Y-6952221D01*
X7450158Y-2888221D02*
X7450158Y-2782154D01*
X7344091Y-2782154D01*
X7344091Y-2888221D01*
X7450158Y-2888221D01*
X7450158Y-4793221D02*
X7450158Y-4687154D01*
X7344091Y-4687154D01*
X7344091Y-4793221D01*
X7450158Y-4793221D01*
X7450158Y-6698221D02*
X7450158Y-6592154D01*
X7344091Y-6592154D01*
X7344091Y-6698221D01*
X7450158Y-6698221D01*
X8720159Y-5047221D02*
X8720159Y-4941154D01*
X8614092Y-4941154D01*
X8614092Y-5047221D01*
X8720159Y-5047221D01*
X9355159Y-4793221D02*
X9355159Y-4687154D01*
X9249092Y-4687154D01*
X9249092Y-4793221D01*
X9355159Y-4793221D01*
X9672659Y-10762221D02*
X9672659Y-10656154D01*
X9566592Y-10656154D01*
X9566592Y-10762221D01*
X9672659Y-10762221D01*
X10307659Y-10508221D02*
X10307659Y-10402154D01*
X10201592Y-10402154D01*
X10201592Y-10508221D01*
X10307659Y-10508221D01*
X12530158Y-5047221D02*
X12530158Y-4941154D01*
X12424091Y-4941154D01*
X12424091Y-5047221D01*
X12530158Y-5047221D01*
X12530158Y-6952221D02*
X12530158Y-6846154D01*
X12424091Y-6846154D01*
X12424091Y-6952221D01*
X12530158Y-6952221D01*
X13165158Y-4793221D02*
X13165158Y-4687154D01*
X13059091Y-4687154D01*
X13059091Y-4793221D01*
X13165158Y-4793221D01*
X13165158Y-6698221D02*
X13165158Y-6592154D01*
X13059091Y-6592154D01*
X13059091Y-6698221D01*
X13165158Y-6698221D01*
X14435158Y-5047221D02*
X14435158Y-4941154D01*
X14329091Y-4941154D01*
X14329091Y-5047221D01*
X14435158Y-5047221D01*
X14435158Y-6952221D02*
X14435158Y-6846154D01*
X14329091Y-6846154D01*
X14329091Y-6952221D01*
X14435158Y-6952221D01*
X15070158Y-4793221D02*
X15070158Y-4687154D01*
X14964091Y-4687154D01*
X14964091Y-4793221D01*
X15070158Y-4793221D01*
X15070158Y-6698221D02*
X15070158Y-6592154D01*
X14964091Y-6592154D01*
X14964091Y-6698221D01*
X15070158Y-6698221D01*
X17292659Y-10762221D02*
X17292659Y-10656154D01*
X17186592Y-10656154D01*
X17186592Y-10762221D01*
X17292659Y-10762221D01*
X17927659Y-10508221D02*
X17927659Y-10402154D01*
X17821592Y-10402154D01*
X17821592Y-10508221D01*
X17927659Y-10508221D01*
X18245159Y-5047221D02*
X18245159Y-4941154D01*
X18139092Y-4941154D01*
X18139092Y-5047221D01*
X18245159Y-5047221D01*
X18880159Y-4793221D02*
X18880159Y-4687154D01*
X18774092Y-4687154D01*
X18774092Y-4793221D01*
X18880159Y-4793221D01*
X20150159Y-3142221D02*
X20150159Y-3036154D01*
X20044092Y-3036154D01*
X20044092Y-3142221D01*
X20150159Y-3142221D01*
X20150159Y-5047221D02*
X20150159Y-4941154D01*
X20044092Y-4941154D01*
X20044092Y-5047221D01*
X20150159Y-5047221D01*
X20150159Y-6952221D02*
X20150159Y-6846154D01*
X20044092Y-6846154D01*
X20044092Y-6952221D01*
X20150159Y-6952221D01*
X20785159Y-2888221D02*
X20785159Y-2782154D01*
X20679092Y-2782154D01*
X20679092Y-2888221D01*
X20785159Y-2888221D01*
X20785159Y-4793221D02*
X20785159Y-4687154D01*
X20679092Y-4687154D01*
X20679092Y-4793221D01*
X20785159Y-4793221D01*
X20785159Y-6698221D02*
X20785159Y-6592154D01*
X20679092Y-6592154D01*
X20679092Y-6698221D01*
X20785159Y-6698221D01*
X22055159Y-5047221D02*
X22055159Y-4941154D01*
X21949092Y-4941154D01*
X21949092Y-5047221D01*
X22055159Y-5047221D01*
X22690158Y-4793221D02*
X22690158Y-4687154D01*
X22584091Y-4687154D01*
X22584091Y-4793221D01*
X22690158Y-4793221D01*
X23007658Y-3142221D02*
X23007658Y-3036154D01*
X22901591Y-3036154D01*
X22901591Y-3142221D01*
X23007658Y-3142221D01*
X23642658Y-2888221D02*
X23642658Y-2782154D01*
X23536591Y-2782154D01*
X23536591Y-2888221D01*
X23642658Y-2888221D01*
X23960158Y-8857221D02*
X23960158Y-8751154D01*
X23854091Y-8751154D01*
X23854091Y-8857221D01*
X23960158Y-8857221D01*
X24595158Y-8603221D02*
X24595158Y-8497154D01*
X24489091Y-8497154D01*
X24489091Y-8603221D01*
X24595158Y-8603221D01*
D11*
X2055777Y-12816484D02*
X2055777Y-12616484D01*
X2055777Y-12616484D02*
X2103396Y-12616484D01*
X2103396Y-12616484D02*
X2131967Y-12626008D01*
X2131967Y-12626008D02*
X2151015Y-12645055D01*
X2151015Y-12645055D02*
X2160539Y-12664103D01*
X2160539Y-12664103D02*
X2170063Y-12702198D01*
X2170063Y-12702198D02*
X2170063Y-12730769D01*
X2170063Y-12730769D02*
X2160539Y-12768865D01*
X2160539Y-12768865D02*
X2151015Y-12787912D01*
X2151015Y-12787912D02*
X2131967Y-12806960D01*
X2131967Y-12806960D02*
X2103396Y-12816484D01*
X2103396Y-12816484D02*
X2055777Y-12816484D01*
X2255777Y-12816484D02*
X2255777Y-12683150D01*
X2255777Y-12721246D02*
X2265301Y-12702198D01*
X2265301Y-12702198D02*
X2274824Y-12692674D01*
X2274824Y-12692674D02*
X2293872Y-12683150D01*
X2293872Y-12683150D02*
X2312920Y-12683150D01*
X2379586Y-12816484D02*
X2379586Y-12683150D01*
X2379586Y-12616484D02*
X2370063Y-12626008D01*
X2370063Y-12626008D02*
X2379586Y-12635531D01*
X2379586Y-12635531D02*
X2389110Y-12626008D01*
X2389110Y-12626008D02*
X2379586Y-12616484D01*
X2379586Y-12616484D02*
X2379586Y-12635531D01*
X2503396Y-12816484D02*
X2484348Y-12806960D01*
X2484348Y-12806960D02*
X2474824Y-12787912D01*
X2474824Y-12787912D02*
X2474824Y-12616484D01*
X2608158Y-12816484D02*
X2589110Y-12806960D01*
X2589110Y-12806960D02*
X2579586Y-12787912D01*
X2579586Y-12787912D02*
X2579586Y-12616484D01*
X2836729Y-12816484D02*
X2836729Y-12616484D01*
X2836729Y-12616484D02*
X2903396Y-12759341D01*
X2903396Y-12759341D02*
X2970062Y-12616484D01*
X2970062Y-12616484D02*
X2970062Y-12816484D01*
X3151015Y-12816484D02*
X3151015Y-12711722D01*
X3151015Y-12711722D02*
X3141491Y-12692674D01*
X3141491Y-12692674D02*
X3122443Y-12683150D01*
X3122443Y-12683150D02*
X3084348Y-12683150D01*
X3084348Y-12683150D02*
X3065301Y-12692674D01*
X3151015Y-12806960D02*
X3131967Y-12816484D01*
X3131967Y-12816484D02*
X3084348Y-12816484D01*
X3084348Y-12816484D02*
X3065301Y-12806960D01*
X3065301Y-12806960D02*
X3055777Y-12787912D01*
X3055777Y-12787912D02*
X3055777Y-12768865D01*
X3055777Y-12768865D02*
X3065301Y-12749817D01*
X3065301Y-12749817D02*
X3084348Y-12740293D01*
X3084348Y-12740293D02*
X3131967Y-12740293D01*
X3131967Y-12740293D02*
X3151015Y-12730769D01*
X3246253Y-12683150D02*
X3246253Y-12883150D01*
X3246253Y-12692674D02*
X3265301Y-12683150D01*
X3265301Y-12683150D02*
X3303396Y-12683150D01*
X3303396Y-12683150D02*
X3322443Y-12692674D01*
X3322443Y-12692674D02*
X3331967Y-12702198D01*
X3331967Y-12702198D02*
X3341491Y-12721246D01*
X3341491Y-12721246D02*
X3341491Y-12778388D01*
X3341491Y-12778388D02*
X3331967Y-12797436D01*
X3331967Y-12797436D02*
X3322443Y-12806960D01*
X3322443Y-12806960D02*
X3303396Y-12816484D01*
X3303396Y-12816484D02*
X3265301Y-12816484D01*
X3265301Y-12816484D02*
X3246253Y-12806960D01*
X3427205Y-12797436D02*
X3436729Y-12806960D01*
X3436729Y-12806960D02*
X3427205Y-12816484D01*
X3427205Y-12816484D02*
X3417682Y-12806960D01*
X3417682Y-12806960D02*
X3427205Y-12797436D01*
X3427205Y-12797436D02*
X3427205Y-12816484D01*
X3427205Y-12692674D02*
X3436729Y-12702198D01*
X3436729Y-12702198D02*
X3427205Y-12711722D01*
X3427205Y-12711722D02*
X3417682Y-12702198D01*
X3417682Y-12702198D02*
X3427205Y-12692674D01*
X3427205Y-12692674D02*
X3427205Y-12711722D01*
D12*
X1765000Y-13130000D02*
X1795000Y-13160000D01*
X1795000Y-13130000D02*
X1765000Y-13160000D01*
D11*
X2093872Y-13036484D02*
X2112920Y-13036484D01*
X2112920Y-13036484D02*
X2131967Y-13046008D01*
X2131967Y-13046008D02*
X2141491Y-13055531D01*
X2141491Y-13055531D02*
X2151015Y-13074579D01*
X2151015Y-13074579D02*
X2160539Y-13112674D01*
X2160539Y-13112674D02*
X2160539Y-13160293D01*
X2160539Y-13160293D02*
X2151015Y-13198388D01*
X2151015Y-13198388D02*
X2141491Y-13217436D01*
X2141491Y-13217436D02*
X2131967Y-13226960D01*
X2131967Y-13226960D02*
X2112920Y-13236484D01*
X2112920Y-13236484D02*
X2093872Y-13236484D01*
X2093872Y-13236484D02*
X2074824Y-13226960D01*
X2074824Y-13226960D02*
X2065301Y-13217436D01*
X2065301Y-13217436D02*
X2055777Y-13198388D01*
X2055777Y-13198388D02*
X2046253Y-13160293D01*
X2046253Y-13160293D02*
X2046253Y-13112674D01*
X2046253Y-13112674D02*
X2055777Y-13074579D01*
X2055777Y-13074579D02*
X2065301Y-13055531D01*
X2065301Y-13055531D02*
X2074824Y-13046008D01*
X2074824Y-13046008D02*
X2093872Y-13036484D01*
X2246253Y-13217436D02*
X2255777Y-13226960D01*
X2255777Y-13226960D02*
X2246253Y-13236484D01*
X2246253Y-13236484D02*
X2236729Y-13226960D01*
X2236729Y-13226960D02*
X2246253Y-13217436D01*
X2246253Y-13217436D02*
X2246253Y-13236484D01*
X2322444Y-13036484D02*
X2446253Y-13036484D01*
X2446253Y-13036484D02*
X2379586Y-13112674D01*
X2379586Y-13112674D02*
X2408158Y-13112674D01*
X2408158Y-13112674D02*
X2427205Y-13122198D01*
X2427205Y-13122198D02*
X2436729Y-13131722D01*
X2436729Y-13131722D02*
X2446253Y-13150769D01*
X2446253Y-13150769D02*
X2446253Y-13198388D01*
X2446253Y-13198388D02*
X2436729Y-13217436D01*
X2436729Y-13217436D02*
X2427205Y-13226960D01*
X2427205Y-13226960D02*
X2408158Y-13236484D01*
X2408158Y-13236484D02*
X2351015Y-13236484D01*
X2351015Y-13236484D02*
X2331967Y-13226960D01*
X2331967Y-13226960D02*
X2322444Y-13217436D01*
X2570063Y-13036484D02*
X2589110Y-13036484D01*
X2589110Y-13036484D02*
X2608158Y-13046008D01*
X2608158Y-13046008D02*
X2617682Y-13055531D01*
X2617682Y-13055531D02*
X2627205Y-13074579D01*
X2627205Y-13074579D02*
X2636729Y-13112674D01*
X2636729Y-13112674D02*
X2636729Y-13160293D01*
X2636729Y-13160293D02*
X2627205Y-13198388D01*
X2627205Y-13198388D02*
X2617682Y-13217436D01*
X2617682Y-13217436D02*
X2608158Y-13226960D01*
X2608158Y-13226960D02*
X2589110Y-13236484D01*
X2589110Y-13236484D02*
X2570063Y-13236484D01*
X2570063Y-13236484D02*
X2551015Y-13226960D01*
X2551015Y-13226960D02*
X2541491Y-13217436D01*
X2541491Y-13217436D02*
X2531967Y-13198388D01*
X2531967Y-13198388D02*
X2522444Y-13160293D01*
X2522444Y-13160293D02*
X2522444Y-13112674D01*
X2522444Y-13112674D02*
X2531967Y-13074579D01*
X2531967Y-13074579D02*
X2541491Y-13055531D01*
X2541491Y-13055531D02*
X2551015Y-13046008D01*
X2551015Y-13046008D02*
X2570063Y-13036484D01*
X2760539Y-13036484D02*
X2779586Y-13036484D01*
X2779586Y-13036484D02*
X2798634Y-13046008D01*
X2798634Y-13046008D02*
X2808158Y-13055531D01*
X2808158Y-13055531D02*
X2817682Y-13074579D01*
X2817682Y-13074579D02*
X2827205Y-13112674D01*
X2827205Y-13112674D02*
X2827205Y-13160293D01*
X2827205Y-13160293D02*
X2817682Y-13198388D01*
X2817682Y-13198388D02*
X2808158Y-13217436D01*
X2808158Y-13217436D02*
X2798634Y-13226960D01*
X2798634Y-13226960D02*
X2779586Y-13236484D01*
X2779586Y-13236484D02*
X2760539Y-13236484D01*
X2760539Y-13236484D02*
X2741491Y-13226960D01*
X2741491Y-13226960D02*
X2731967Y-13217436D01*
X2731967Y-13217436D02*
X2722444Y-13198388D01*
X2722444Y-13198388D02*
X2712920Y-13160293D01*
X2712920Y-13160293D02*
X2712920Y-13112674D01*
X2712920Y-13112674D02*
X2722444Y-13074579D01*
X2722444Y-13074579D02*
X2731967Y-13055531D01*
X2731967Y-13055531D02*
X2741491Y-13046008D01*
X2741491Y-13046008D02*
X2760539Y-13036484D01*
X2912920Y-13236484D02*
X2912920Y-13103150D01*
X2912920Y-13122198D02*
X2922443Y-13112674D01*
X2922443Y-13112674D02*
X2941491Y-13103150D01*
X2941491Y-13103150D02*
X2970063Y-13103150D01*
X2970063Y-13103150D02*
X2989110Y-13112674D01*
X2989110Y-13112674D02*
X2998634Y-13131722D01*
X2998634Y-13131722D02*
X2998634Y-13236484D01*
X2998634Y-13131722D02*
X3008158Y-13112674D01*
X3008158Y-13112674D02*
X3027205Y-13103150D01*
X3027205Y-13103150D02*
X3055777Y-13103150D01*
X3055777Y-13103150D02*
X3074824Y-13112674D01*
X3074824Y-13112674D02*
X3084348Y-13131722D01*
X3084348Y-13131722D02*
X3084348Y-13236484D01*
X3179586Y-13236484D02*
X3179586Y-13103150D01*
X3179586Y-13122198D02*
X3189110Y-13112674D01*
X3189110Y-13112674D02*
X3208158Y-13103150D01*
X3208158Y-13103150D02*
X3236729Y-13103150D01*
X3236729Y-13103150D02*
X3255777Y-13112674D01*
X3255777Y-13112674D02*
X3265301Y-13131722D01*
X3265301Y-13131722D02*
X3265301Y-13236484D01*
X3265301Y-13131722D02*
X3274824Y-13112674D01*
X3274824Y-13112674D02*
X3293872Y-13103150D01*
X3293872Y-13103150D02*
X3322443Y-13103150D01*
X3322443Y-13103150D02*
X3341491Y-13112674D01*
X3341491Y-13112674D02*
X3351015Y-13131722D01*
X3351015Y-13131722D02*
X3351015Y-13236484D01*
X3741491Y-13026960D02*
X3570063Y-13284103D01*
X3998634Y-13036484D02*
X4017682Y-13036484D01*
X4017682Y-13036484D02*
X4036729Y-13046008D01*
X4036729Y-13046008D02*
X4046253Y-13055531D01*
X4046253Y-13055531D02*
X4055777Y-13074579D01*
X4055777Y-13074579D02*
X4065301Y-13112674D01*
X4065301Y-13112674D02*
X4065301Y-13160293D01*
X4065301Y-13160293D02*
X4055777Y-13198388D01*
X4055777Y-13198388D02*
X4046253Y-13217436D01*
X4046253Y-13217436D02*
X4036729Y-13226960D01*
X4036729Y-13226960D02*
X4017682Y-13236484D01*
X4017682Y-13236484D02*
X3998634Y-13236484D01*
X3998634Y-13236484D02*
X3979586Y-13226960D01*
X3979586Y-13226960D02*
X3970063Y-13217436D01*
X3970063Y-13217436D02*
X3960539Y-13198388D01*
X3960539Y-13198388D02*
X3951015Y-13160293D01*
X3951015Y-13160293D02*
X3951015Y-13112674D01*
X3951015Y-13112674D02*
X3960539Y-13074579D01*
X3960539Y-13074579D02*
X3970063Y-13055531D01*
X3970063Y-13055531D02*
X3979586Y-13046008D01*
X3979586Y-13046008D02*
X3998634Y-13036484D01*
X4151015Y-13217436D02*
X4160539Y-13226960D01*
X4160539Y-13226960D02*
X4151015Y-13236484D01*
X4151015Y-13236484D02*
X4141491Y-13226960D01*
X4141491Y-13226960D02*
X4151015Y-13217436D01*
X4151015Y-13217436D02*
X4151015Y-13236484D01*
X4284348Y-13036484D02*
X4303396Y-13036484D01*
X4303396Y-13036484D02*
X4322444Y-13046008D01*
X4322444Y-13046008D02*
X4331968Y-13055531D01*
X4331968Y-13055531D02*
X4341491Y-13074579D01*
X4341491Y-13074579D02*
X4351015Y-13112674D01*
X4351015Y-13112674D02*
X4351015Y-13160293D01*
X4351015Y-13160293D02*
X4341491Y-13198388D01*
X4341491Y-13198388D02*
X4331968Y-13217436D01*
X4331968Y-13217436D02*
X4322444Y-13226960D01*
X4322444Y-13226960D02*
X4303396Y-13236484D01*
X4303396Y-13236484D02*
X4284348Y-13236484D01*
X4284348Y-13236484D02*
X4265301Y-13226960D01*
X4265301Y-13226960D02*
X4255777Y-13217436D01*
X4255777Y-13217436D02*
X4246253Y-13198388D01*
X4246253Y-13198388D02*
X4236729Y-13160293D01*
X4236729Y-13160293D02*
X4236729Y-13112674D01*
X4236729Y-13112674D02*
X4246253Y-13074579D01*
X4246253Y-13074579D02*
X4255777Y-13055531D01*
X4255777Y-13055531D02*
X4265301Y-13046008D01*
X4265301Y-13046008D02*
X4284348Y-13036484D01*
X4541491Y-13236484D02*
X4427206Y-13236484D01*
X4484348Y-13236484D02*
X4484348Y-13036484D01*
X4484348Y-13036484D02*
X4465301Y-13065055D01*
X4465301Y-13065055D02*
X4446253Y-13084103D01*
X4446253Y-13084103D02*
X4427206Y-13093627D01*
X4731968Y-13236484D02*
X4617682Y-13236484D01*
X4674825Y-13236484D02*
X4674825Y-13036484D01*
X4674825Y-13036484D02*
X4655777Y-13065055D01*
X4655777Y-13065055D02*
X4636729Y-13084103D01*
X4636729Y-13084103D02*
X4617682Y-13093627D01*
X4846253Y-13122198D02*
X4827206Y-13112674D01*
X4827206Y-13112674D02*
X4817682Y-13103150D01*
X4817682Y-13103150D02*
X4808158Y-13084103D01*
X4808158Y-13084103D02*
X4808158Y-13074579D01*
X4808158Y-13074579D02*
X4817682Y-13055531D01*
X4817682Y-13055531D02*
X4827206Y-13046008D01*
X4827206Y-13046008D02*
X4846253Y-13036484D01*
X4846253Y-13036484D02*
X4884349Y-13036484D01*
X4884349Y-13036484D02*
X4903396Y-13046008D01*
X4903396Y-13046008D02*
X4912920Y-13055531D01*
X4912920Y-13055531D02*
X4922444Y-13074579D01*
X4922444Y-13074579D02*
X4922444Y-13084103D01*
X4922444Y-13084103D02*
X4912920Y-13103150D01*
X4912920Y-13103150D02*
X4903396Y-13112674D01*
X4903396Y-13112674D02*
X4884349Y-13122198D01*
X4884349Y-13122198D02*
X4846253Y-13122198D01*
X4846253Y-13122198D02*
X4827206Y-13131722D01*
X4827206Y-13131722D02*
X4817682Y-13141246D01*
X4817682Y-13141246D02*
X4808158Y-13160293D01*
X4808158Y-13160293D02*
X4808158Y-13198388D01*
X4808158Y-13198388D02*
X4817682Y-13217436D01*
X4817682Y-13217436D02*
X4827206Y-13226960D01*
X4827206Y-13226960D02*
X4846253Y-13236484D01*
X4846253Y-13236484D02*
X4884349Y-13236484D01*
X4884349Y-13236484D02*
X4903396Y-13226960D01*
X4903396Y-13226960D02*
X4912920Y-13217436D01*
X4912920Y-13217436D02*
X4922444Y-13198388D01*
X4922444Y-13198388D02*
X4922444Y-13160293D01*
X4922444Y-13160293D02*
X4912920Y-13141246D01*
X4912920Y-13141246D02*
X4903396Y-13131722D01*
X4903396Y-13131722D02*
X4884349Y-13122198D01*
X4998634Y-13036484D02*
X4998634Y-13074579D01*
X5074825Y-13036484D02*
X5074825Y-13074579D01*
X5370063Y-13312674D02*
X5360539Y-13303150D01*
X5360539Y-13303150D02*
X5341491Y-13274579D01*
X5341491Y-13274579D02*
X5331968Y-13255531D01*
X5331968Y-13255531D02*
X5322444Y-13226960D01*
X5322444Y-13226960D02*
X5312920Y-13179341D01*
X5312920Y-13179341D02*
X5312920Y-13141246D01*
X5312920Y-13141246D02*
X5322444Y-13093627D01*
X5322444Y-13093627D02*
X5331968Y-13065055D01*
X5331968Y-13065055D02*
X5341491Y-13046008D01*
X5341491Y-13046008D02*
X5360539Y-13017436D01*
X5360539Y-13017436D02*
X5370063Y-13007912D01*
X5551015Y-13236484D02*
X5436730Y-13236484D01*
X5493872Y-13236484D02*
X5493872Y-13036484D01*
X5493872Y-13036484D02*
X5474825Y-13065055D01*
X5474825Y-13065055D02*
X5455777Y-13084103D01*
X5455777Y-13084103D02*
X5436730Y-13093627D01*
X5722444Y-13036484D02*
X5684348Y-13036484D01*
X5684348Y-13036484D02*
X5665301Y-13046008D01*
X5665301Y-13046008D02*
X5655777Y-13055531D01*
X5655777Y-13055531D02*
X5636729Y-13084103D01*
X5636729Y-13084103D02*
X5627206Y-13122198D01*
X5627206Y-13122198D02*
X5627206Y-13198388D01*
X5627206Y-13198388D02*
X5636729Y-13217436D01*
X5636729Y-13217436D02*
X5646253Y-13226960D01*
X5646253Y-13226960D02*
X5665301Y-13236484D01*
X5665301Y-13236484D02*
X5703396Y-13236484D01*
X5703396Y-13236484D02*
X5722444Y-13226960D01*
X5722444Y-13226960D02*
X5731968Y-13217436D01*
X5731968Y-13217436D02*
X5741491Y-13198388D01*
X5741491Y-13198388D02*
X5741491Y-13150769D01*
X5741491Y-13150769D02*
X5731968Y-13131722D01*
X5731968Y-13131722D02*
X5722444Y-13122198D01*
X5722444Y-13122198D02*
X5703396Y-13112674D01*
X5703396Y-13112674D02*
X5665301Y-13112674D01*
X5665301Y-13112674D02*
X5646253Y-13122198D01*
X5646253Y-13122198D02*
X5636729Y-13131722D01*
X5636729Y-13131722D02*
X5627206Y-13150769D01*
X5865301Y-13036484D02*
X5884349Y-13036484D01*
X5884349Y-13036484D02*
X5903396Y-13046008D01*
X5903396Y-13046008D02*
X5912920Y-13055531D01*
X5912920Y-13055531D02*
X5922444Y-13074579D01*
X5922444Y-13074579D02*
X5931968Y-13112674D01*
X5931968Y-13112674D02*
X5931968Y-13160293D01*
X5931968Y-13160293D02*
X5922444Y-13198388D01*
X5922444Y-13198388D02*
X5912920Y-13217436D01*
X5912920Y-13217436D02*
X5903396Y-13226960D01*
X5903396Y-13226960D02*
X5884349Y-13236484D01*
X5884349Y-13236484D02*
X5865301Y-13236484D01*
X5865301Y-13236484D02*
X5846253Y-13226960D01*
X5846253Y-13226960D02*
X5836729Y-13217436D01*
X5836729Y-13217436D02*
X5827206Y-13198388D01*
X5827206Y-13198388D02*
X5817682Y-13160293D01*
X5817682Y-13160293D02*
X5817682Y-13112674D01*
X5817682Y-13112674D02*
X5827206Y-13074579D01*
X5827206Y-13074579D02*
X5836729Y-13055531D01*
X5836729Y-13055531D02*
X5846253Y-13046008D01*
X5846253Y-13046008D02*
X5865301Y-13036484D01*
X6170063Y-13236484D02*
X6170063Y-13036484D01*
X6255777Y-13236484D02*
X6255777Y-13131722D01*
X6255777Y-13131722D02*
X6246253Y-13112674D01*
X6246253Y-13112674D02*
X6227206Y-13103150D01*
X6227206Y-13103150D02*
X6198634Y-13103150D01*
X6198634Y-13103150D02*
X6179587Y-13112674D01*
X6179587Y-13112674D02*
X6170063Y-13122198D01*
X6379587Y-13236484D02*
X6360539Y-13226960D01*
X6360539Y-13226960D02*
X6351015Y-13217436D01*
X6351015Y-13217436D02*
X6341491Y-13198388D01*
X6341491Y-13198388D02*
X6341491Y-13141246D01*
X6341491Y-13141246D02*
X6351015Y-13122198D01*
X6351015Y-13122198D02*
X6360539Y-13112674D01*
X6360539Y-13112674D02*
X6379587Y-13103150D01*
X6379587Y-13103150D02*
X6408158Y-13103150D01*
X6408158Y-13103150D02*
X6427206Y-13112674D01*
X6427206Y-13112674D02*
X6436730Y-13122198D01*
X6436730Y-13122198D02*
X6446253Y-13141246D01*
X6446253Y-13141246D02*
X6446253Y-13198388D01*
X6446253Y-13198388D02*
X6436730Y-13217436D01*
X6436730Y-13217436D02*
X6427206Y-13226960D01*
X6427206Y-13226960D02*
X6408158Y-13236484D01*
X6408158Y-13236484D02*
X6379587Y-13236484D01*
X6560539Y-13236484D02*
X6541491Y-13226960D01*
X6541491Y-13226960D02*
X6531968Y-13207912D01*
X6531968Y-13207912D02*
X6531968Y-13036484D01*
X6712920Y-13226960D02*
X6693872Y-13236484D01*
X6693872Y-13236484D02*
X6655777Y-13236484D01*
X6655777Y-13236484D02*
X6636730Y-13226960D01*
X6636730Y-13226960D02*
X6627206Y-13207912D01*
X6627206Y-13207912D02*
X6627206Y-13131722D01*
X6627206Y-13131722D02*
X6636730Y-13112674D01*
X6636730Y-13112674D02*
X6655777Y-13103150D01*
X6655777Y-13103150D02*
X6693872Y-13103150D01*
X6693872Y-13103150D02*
X6712920Y-13112674D01*
X6712920Y-13112674D02*
X6722444Y-13131722D01*
X6722444Y-13131722D02*
X6722444Y-13150769D01*
X6722444Y-13150769D02*
X6627206Y-13169817D01*
X6798634Y-13226960D02*
X6817682Y-13236484D01*
X6817682Y-13236484D02*
X6855777Y-13236484D01*
X6855777Y-13236484D02*
X6874825Y-13226960D01*
X6874825Y-13226960D02*
X6884349Y-13207912D01*
X6884349Y-13207912D02*
X6884349Y-13198388D01*
X6884349Y-13198388D02*
X6874825Y-13179341D01*
X6874825Y-13179341D02*
X6855777Y-13169817D01*
X6855777Y-13169817D02*
X6827206Y-13169817D01*
X6827206Y-13169817D02*
X6808158Y-13160293D01*
X6808158Y-13160293D02*
X6798634Y-13141246D01*
X6798634Y-13141246D02*
X6798634Y-13131722D01*
X6798634Y-13131722D02*
X6808158Y-13112674D01*
X6808158Y-13112674D02*
X6827206Y-13103150D01*
X6827206Y-13103150D02*
X6855777Y-13103150D01*
X6855777Y-13103150D02*
X6874825Y-13112674D01*
X6951015Y-13312674D02*
X6960539Y-13303150D01*
X6960539Y-13303150D02*
X6979587Y-13274579D01*
X6979587Y-13274579D02*
X6989111Y-13255531D01*
X6989111Y-13255531D02*
X6998634Y-13226960D01*
X6998634Y-13226960D02*
X7008158Y-13179341D01*
X7008158Y-13179341D02*
X7008158Y-13141246D01*
X7008158Y-13141246D02*
X6998634Y-13093627D01*
X6998634Y-13093627D02*
X6989111Y-13065055D01*
X6989111Y-13065055D02*
X6979587Y-13046008D01*
X6979587Y-13046008D02*
X6960539Y-13017436D01*
X6960539Y-13017436D02*
X6951015Y-13007912D01*
D13*
X1795000Y-13409000D02*
G75*
G03*
X1795000Y-13409000I-30000J0D01*
G01*
D11*
X2093872Y-13300484D02*
X2112920Y-13300484D01*
X2112920Y-13300484D02*
X2131967Y-13310008D01*
X2131967Y-13310008D02*
X2141491Y-13319531D01*
X2141491Y-13319531D02*
X2151015Y-13338579D01*
X2151015Y-13338579D02*
X2160539Y-13376674D01*
X2160539Y-13376674D02*
X2160539Y-13424293D01*
X2160539Y-13424293D02*
X2151015Y-13462388D01*
X2151015Y-13462388D02*
X2141491Y-13481436D01*
X2141491Y-13481436D02*
X2131967Y-13490960D01*
X2131967Y-13490960D02*
X2112920Y-13500484D01*
X2112920Y-13500484D02*
X2093872Y-13500484D01*
X2093872Y-13500484D02*
X2074824Y-13490960D01*
X2074824Y-13490960D02*
X2065301Y-13481436D01*
X2065301Y-13481436D02*
X2055777Y-13462388D01*
X2055777Y-13462388D02*
X2046253Y-13424293D01*
X2046253Y-13424293D02*
X2046253Y-13376674D01*
X2046253Y-13376674D02*
X2055777Y-13338579D01*
X2055777Y-13338579D02*
X2065301Y-13319531D01*
X2065301Y-13319531D02*
X2074824Y-13310008D01*
X2074824Y-13310008D02*
X2093872Y-13300484D01*
X2246253Y-13481436D02*
X2255777Y-13490960D01*
X2255777Y-13490960D02*
X2246253Y-13500484D01*
X2246253Y-13500484D02*
X2236729Y-13490960D01*
X2236729Y-13490960D02*
X2246253Y-13481436D01*
X2246253Y-13481436D02*
X2246253Y-13500484D01*
X2427205Y-13300484D02*
X2389110Y-13300484D01*
X2389110Y-13300484D02*
X2370063Y-13310008D01*
X2370063Y-13310008D02*
X2360539Y-13319531D01*
X2360539Y-13319531D02*
X2341491Y-13348103D01*
X2341491Y-13348103D02*
X2331967Y-13386198D01*
X2331967Y-13386198D02*
X2331967Y-13462388D01*
X2331967Y-13462388D02*
X2341491Y-13481436D01*
X2341491Y-13481436D02*
X2351015Y-13490960D01*
X2351015Y-13490960D02*
X2370063Y-13500484D01*
X2370063Y-13500484D02*
X2408158Y-13500484D01*
X2408158Y-13500484D02*
X2427205Y-13490960D01*
X2427205Y-13490960D02*
X2436729Y-13481436D01*
X2436729Y-13481436D02*
X2446253Y-13462388D01*
X2446253Y-13462388D02*
X2446253Y-13414769D01*
X2446253Y-13414769D02*
X2436729Y-13395722D01*
X2436729Y-13395722D02*
X2427205Y-13386198D01*
X2427205Y-13386198D02*
X2408158Y-13376674D01*
X2408158Y-13376674D02*
X2370063Y-13376674D01*
X2370063Y-13376674D02*
X2351015Y-13386198D01*
X2351015Y-13386198D02*
X2341491Y-13395722D01*
X2341491Y-13395722D02*
X2331967Y-13414769D01*
X2570063Y-13300484D02*
X2589110Y-13300484D01*
X2589110Y-13300484D02*
X2608158Y-13310008D01*
X2608158Y-13310008D02*
X2617682Y-13319531D01*
X2617682Y-13319531D02*
X2627205Y-13338579D01*
X2627205Y-13338579D02*
X2636729Y-13376674D01*
X2636729Y-13376674D02*
X2636729Y-13424293D01*
X2636729Y-13424293D02*
X2627205Y-13462388D01*
X2627205Y-13462388D02*
X2617682Y-13481436D01*
X2617682Y-13481436D02*
X2608158Y-13490960D01*
X2608158Y-13490960D02*
X2589110Y-13500484D01*
X2589110Y-13500484D02*
X2570063Y-13500484D01*
X2570063Y-13500484D02*
X2551015Y-13490960D01*
X2551015Y-13490960D02*
X2541491Y-13481436D01*
X2541491Y-13481436D02*
X2531967Y-13462388D01*
X2531967Y-13462388D02*
X2522444Y-13424293D01*
X2522444Y-13424293D02*
X2522444Y-13376674D01*
X2522444Y-13376674D02*
X2531967Y-13338579D01*
X2531967Y-13338579D02*
X2541491Y-13319531D01*
X2541491Y-13319531D02*
X2551015Y-13310008D01*
X2551015Y-13310008D02*
X2570063Y-13300484D01*
X2760539Y-13300484D02*
X2779586Y-13300484D01*
X2779586Y-13300484D02*
X2798634Y-13310008D01*
X2798634Y-13310008D02*
X2808158Y-13319531D01*
X2808158Y-13319531D02*
X2817682Y-13338579D01*
X2817682Y-13338579D02*
X2827205Y-13376674D01*
X2827205Y-13376674D02*
X2827205Y-13424293D01*
X2827205Y-13424293D02*
X2817682Y-13462388D01*
X2817682Y-13462388D02*
X2808158Y-13481436D01*
X2808158Y-13481436D02*
X2798634Y-13490960D01*
X2798634Y-13490960D02*
X2779586Y-13500484D01*
X2779586Y-13500484D02*
X2760539Y-13500484D01*
X2760539Y-13500484D02*
X2741491Y-13490960D01*
X2741491Y-13490960D02*
X2731967Y-13481436D01*
X2731967Y-13481436D02*
X2722444Y-13462388D01*
X2722444Y-13462388D02*
X2712920Y-13424293D01*
X2712920Y-13424293D02*
X2712920Y-13376674D01*
X2712920Y-13376674D02*
X2722444Y-13338579D01*
X2722444Y-13338579D02*
X2731967Y-13319531D01*
X2731967Y-13319531D02*
X2741491Y-13310008D01*
X2741491Y-13310008D02*
X2760539Y-13300484D01*
X2912920Y-13500484D02*
X2912920Y-13367150D01*
X2912920Y-13386198D02*
X2922443Y-13376674D01*
X2922443Y-13376674D02*
X2941491Y-13367150D01*
X2941491Y-13367150D02*
X2970063Y-13367150D01*
X2970063Y-13367150D02*
X2989110Y-13376674D01*
X2989110Y-13376674D02*
X2998634Y-13395722D01*
X2998634Y-13395722D02*
X2998634Y-13500484D01*
X2998634Y-13395722D02*
X3008158Y-13376674D01*
X3008158Y-13376674D02*
X3027205Y-13367150D01*
X3027205Y-13367150D02*
X3055777Y-13367150D01*
X3055777Y-13367150D02*
X3074824Y-13376674D01*
X3074824Y-13376674D02*
X3084348Y-13395722D01*
X3084348Y-13395722D02*
X3084348Y-13500484D01*
X3179586Y-13500484D02*
X3179586Y-13367150D01*
X3179586Y-13386198D02*
X3189110Y-13376674D01*
X3189110Y-13376674D02*
X3208158Y-13367150D01*
X3208158Y-13367150D02*
X3236729Y-13367150D01*
X3236729Y-13367150D02*
X3255777Y-13376674D01*
X3255777Y-13376674D02*
X3265301Y-13395722D01*
X3265301Y-13395722D02*
X3265301Y-13500484D01*
X3265301Y-13395722D02*
X3274824Y-13376674D01*
X3274824Y-13376674D02*
X3293872Y-13367150D01*
X3293872Y-13367150D02*
X3322443Y-13367150D01*
X3322443Y-13367150D02*
X3341491Y-13376674D01*
X3341491Y-13376674D02*
X3351015Y-13395722D01*
X3351015Y-13395722D02*
X3351015Y-13500484D01*
X3741491Y-13290960D02*
X3570063Y-13548103D01*
X3998634Y-13300484D02*
X4017682Y-13300484D01*
X4017682Y-13300484D02*
X4036729Y-13310008D01*
X4036729Y-13310008D02*
X4046253Y-13319531D01*
X4046253Y-13319531D02*
X4055777Y-13338579D01*
X4055777Y-13338579D02*
X4065301Y-13376674D01*
X4065301Y-13376674D02*
X4065301Y-13424293D01*
X4065301Y-13424293D02*
X4055777Y-13462388D01*
X4055777Y-13462388D02*
X4046253Y-13481436D01*
X4046253Y-13481436D02*
X4036729Y-13490960D01*
X4036729Y-13490960D02*
X4017682Y-13500484D01*
X4017682Y-13500484D02*
X3998634Y-13500484D01*
X3998634Y-13500484D02*
X3979586Y-13490960D01*
X3979586Y-13490960D02*
X3970063Y-13481436D01*
X3970063Y-13481436D02*
X3960539Y-13462388D01*
X3960539Y-13462388D02*
X3951015Y-13424293D01*
X3951015Y-13424293D02*
X3951015Y-13376674D01*
X3951015Y-13376674D02*
X3960539Y-13338579D01*
X3960539Y-13338579D02*
X3970063Y-13319531D01*
X3970063Y-13319531D02*
X3979586Y-13310008D01*
X3979586Y-13310008D02*
X3998634Y-13300484D01*
X4151015Y-13481436D02*
X4160539Y-13490960D01*
X4160539Y-13490960D02*
X4151015Y-13500484D01*
X4151015Y-13500484D02*
X4141491Y-13490960D01*
X4141491Y-13490960D02*
X4151015Y-13481436D01*
X4151015Y-13481436D02*
X4151015Y-13500484D01*
X4284348Y-13300484D02*
X4303396Y-13300484D01*
X4303396Y-13300484D02*
X4322444Y-13310008D01*
X4322444Y-13310008D02*
X4331968Y-13319531D01*
X4331968Y-13319531D02*
X4341491Y-13338579D01*
X4341491Y-13338579D02*
X4351015Y-13376674D01*
X4351015Y-13376674D02*
X4351015Y-13424293D01*
X4351015Y-13424293D02*
X4341491Y-13462388D01*
X4341491Y-13462388D02*
X4331968Y-13481436D01*
X4331968Y-13481436D02*
X4322444Y-13490960D01*
X4322444Y-13490960D02*
X4303396Y-13500484D01*
X4303396Y-13500484D02*
X4284348Y-13500484D01*
X4284348Y-13500484D02*
X4265301Y-13490960D01*
X4265301Y-13490960D02*
X4255777Y-13481436D01*
X4255777Y-13481436D02*
X4246253Y-13462388D01*
X4246253Y-13462388D02*
X4236729Y-13424293D01*
X4236729Y-13424293D02*
X4236729Y-13376674D01*
X4236729Y-13376674D02*
X4246253Y-13338579D01*
X4246253Y-13338579D02*
X4255777Y-13319531D01*
X4255777Y-13319531D02*
X4265301Y-13310008D01*
X4265301Y-13310008D02*
X4284348Y-13300484D01*
X4427206Y-13319531D02*
X4436729Y-13310008D01*
X4436729Y-13310008D02*
X4455777Y-13300484D01*
X4455777Y-13300484D02*
X4503396Y-13300484D01*
X4503396Y-13300484D02*
X4522444Y-13310008D01*
X4522444Y-13310008D02*
X4531968Y-13319531D01*
X4531968Y-13319531D02*
X4541491Y-13338579D01*
X4541491Y-13338579D02*
X4541491Y-13357627D01*
X4541491Y-13357627D02*
X4531968Y-13386198D01*
X4531968Y-13386198D02*
X4417682Y-13500484D01*
X4417682Y-13500484D02*
X4541491Y-13500484D01*
X4608158Y-13300484D02*
X4731968Y-13300484D01*
X4731968Y-13300484D02*
X4665301Y-13376674D01*
X4665301Y-13376674D02*
X4693872Y-13376674D01*
X4693872Y-13376674D02*
X4712920Y-13386198D01*
X4712920Y-13386198D02*
X4722444Y-13395722D01*
X4722444Y-13395722D02*
X4731968Y-13414769D01*
X4731968Y-13414769D02*
X4731968Y-13462388D01*
X4731968Y-13462388D02*
X4722444Y-13481436D01*
X4722444Y-13481436D02*
X4712920Y-13490960D01*
X4712920Y-13490960D02*
X4693872Y-13500484D01*
X4693872Y-13500484D02*
X4636729Y-13500484D01*
X4636729Y-13500484D02*
X4617682Y-13490960D01*
X4617682Y-13490960D02*
X4608158Y-13481436D01*
X4903396Y-13300484D02*
X4865301Y-13300484D01*
X4865301Y-13300484D02*
X4846253Y-13310008D01*
X4846253Y-13310008D02*
X4836729Y-13319531D01*
X4836729Y-13319531D02*
X4817682Y-13348103D01*
X4817682Y-13348103D02*
X4808158Y-13386198D01*
X4808158Y-13386198D02*
X4808158Y-13462388D01*
X4808158Y-13462388D02*
X4817682Y-13481436D01*
X4817682Y-13481436D02*
X4827206Y-13490960D01*
X4827206Y-13490960D02*
X4846253Y-13500484D01*
X4846253Y-13500484D02*
X4884349Y-13500484D01*
X4884349Y-13500484D02*
X4903396Y-13490960D01*
X4903396Y-13490960D02*
X4912920Y-13481436D01*
X4912920Y-13481436D02*
X4922444Y-13462388D01*
X4922444Y-13462388D02*
X4922444Y-13414769D01*
X4922444Y-13414769D02*
X4912920Y-13395722D01*
X4912920Y-13395722D02*
X4903396Y-13386198D01*
X4903396Y-13386198D02*
X4884349Y-13376674D01*
X4884349Y-13376674D02*
X4846253Y-13376674D01*
X4846253Y-13376674D02*
X4827206Y-13386198D01*
X4827206Y-13386198D02*
X4817682Y-13395722D01*
X4817682Y-13395722D02*
X4808158Y-13414769D01*
X4998634Y-13300484D02*
X4998634Y-13338579D01*
X5074825Y-13300484D02*
X5074825Y-13338579D01*
X5370063Y-13576674D02*
X5360539Y-13567150D01*
X5360539Y-13567150D02*
X5341491Y-13538579D01*
X5341491Y-13538579D02*
X5331968Y-13519531D01*
X5331968Y-13519531D02*
X5322444Y-13490960D01*
X5322444Y-13490960D02*
X5312920Y-13443341D01*
X5312920Y-13443341D02*
X5312920Y-13405246D01*
X5312920Y-13405246D02*
X5322444Y-13357627D01*
X5322444Y-13357627D02*
X5331968Y-13329055D01*
X5331968Y-13329055D02*
X5341491Y-13310008D01*
X5341491Y-13310008D02*
X5360539Y-13281436D01*
X5360539Y-13281436D02*
X5370063Y-13271912D01*
X5484349Y-13300484D02*
X5503396Y-13300484D01*
X5503396Y-13300484D02*
X5522444Y-13310008D01*
X5522444Y-13310008D02*
X5531968Y-13319531D01*
X5531968Y-13319531D02*
X5541491Y-13338579D01*
X5541491Y-13338579D02*
X5551015Y-13376674D01*
X5551015Y-13376674D02*
X5551015Y-13424293D01*
X5551015Y-13424293D02*
X5541491Y-13462388D01*
X5541491Y-13462388D02*
X5531968Y-13481436D01*
X5531968Y-13481436D02*
X5522444Y-13490960D01*
X5522444Y-13490960D02*
X5503396Y-13500484D01*
X5503396Y-13500484D02*
X5484349Y-13500484D01*
X5484349Y-13500484D02*
X5465301Y-13490960D01*
X5465301Y-13490960D02*
X5455777Y-13481436D01*
X5455777Y-13481436D02*
X5446253Y-13462388D01*
X5446253Y-13462388D02*
X5436730Y-13424293D01*
X5436730Y-13424293D02*
X5436730Y-13376674D01*
X5436730Y-13376674D02*
X5446253Y-13338579D01*
X5446253Y-13338579D02*
X5455777Y-13319531D01*
X5455777Y-13319531D02*
X5465301Y-13310008D01*
X5465301Y-13310008D02*
X5484349Y-13300484D01*
X5789110Y-13500484D02*
X5789110Y-13300484D01*
X5874825Y-13500484D02*
X5874825Y-13395722D01*
X5874825Y-13395722D02*
X5865301Y-13376674D01*
X5865301Y-13376674D02*
X5846253Y-13367150D01*
X5846253Y-13367150D02*
X5817682Y-13367150D01*
X5817682Y-13367150D02*
X5798634Y-13376674D01*
X5798634Y-13376674D02*
X5789110Y-13386198D01*
X5998634Y-13500484D02*
X5979587Y-13490960D01*
X5979587Y-13490960D02*
X5970063Y-13481436D01*
X5970063Y-13481436D02*
X5960539Y-13462388D01*
X5960539Y-13462388D02*
X5960539Y-13405246D01*
X5960539Y-13405246D02*
X5970063Y-13386198D01*
X5970063Y-13386198D02*
X5979587Y-13376674D01*
X5979587Y-13376674D02*
X5998634Y-13367150D01*
X5998634Y-13367150D02*
X6027206Y-13367150D01*
X6027206Y-13367150D02*
X6046253Y-13376674D01*
X6046253Y-13376674D02*
X6055777Y-13386198D01*
X6055777Y-13386198D02*
X6065301Y-13405246D01*
X6065301Y-13405246D02*
X6065301Y-13462388D01*
X6065301Y-13462388D02*
X6055777Y-13481436D01*
X6055777Y-13481436D02*
X6046253Y-13490960D01*
X6046253Y-13490960D02*
X6027206Y-13500484D01*
X6027206Y-13500484D02*
X5998634Y-13500484D01*
X6179587Y-13500484D02*
X6160539Y-13490960D01*
X6160539Y-13490960D02*
X6151015Y-13471912D01*
X6151015Y-13471912D02*
X6151015Y-13300484D01*
X6331968Y-13490960D02*
X6312920Y-13500484D01*
X6312920Y-13500484D02*
X6274825Y-13500484D01*
X6274825Y-13500484D02*
X6255777Y-13490960D01*
X6255777Y-13490960D02*
X6246253Y-13471912D01*
X6246253Y-13471912D02*
X6246253Y-13395722D01*
X6246253Y-13395722D02*
X6255777Y-13376674D01*
X6255777Y-13376674D02*
X6274825Y-13367150D01*
X6274825Y-13367150D02*
X6312920Y-13367150D01*
X6312920Y-13367150D02*
X6331968Y-13376674D01*
X6331968Y-13376674D02*
X6341491Y-13395722D01*
X6341491Y-13395722D02*
X6341491Y-13414769D01*
X6341491Y-13414769D02*
X6246253Y-13433817D01*
X6417682Y-13490960D02*
X6436730Y-13500484D01*
X6436730Y-13500484D02*
X6474825Y-13500484D01*
X6474825Y-13500484D02*
X6493872Y-13490960D01*
X6493872Y-13490960D02*
X6503396Y-13471912D01*
X6503396Y-13471912D02*
X6503396Y-13462388D01*
X6503396Y-13462388D02*
X6493872Y-13443341D01*
X6493872Y-13443341D02*
X6474825Y-13433817D01*
X6474825Y-13433817D02*
X6446253Y-13433817D01*
X6446253Y-13433817D02*
X6427206Y-13424293D01*
X6427206Y-13424293D02*
X6417682Y-13405246D01*
X6417682Y-13405246D02*
X6417682Y-13395722D01*
X6417682Y-13395722D02*
X6427206Y-13376674D01*
X6427206Y-13376674D02*
X6446253Y-13367150D01*
X6446253Y-13367150D02*
X6474825Y-13367150D01*
X6474825Y-13367150D02*
X6493872Y-13376674D01*
X6741492Y-13424293D02*
X6893873Y-13424293D01*
X6817682Y-13500484D02*
X6817682Y-13348103D01*
X7227206Y-13367150D02*
X7227206Y-13500484D01*
X7179587Y-13290960D02*
X7131968Y-13433817D01*
X7131968Y-13433817D02*
X7255777Y-13433817D01*
X7474825Y-13490960D02*
X7493873Y-13500484D01*
X7493873Y-13500484D02*
X7531968Y-13500484D01*
X7531968Y-13500484D02*
X7551015Y-13490960D01*
X7551015Y-13490960D02*
X7560539Y-13471912D01*
X7560539Y-13471912D02*
X7560539Y-13462388D01*
X7560539Y-13462388D02*
X7551015Y-13443341D01*
X7551015Y-13443341D02*
X7531968Y-13433817D01*
X7531968Y-13433817D02*
X7503396Y-13433817D01*
X7503396Y-13433817D02*
X7484349Y-13424293D01*
X7484349Y-13424293D02*
X7474825Y-13405246D01*
X7474825Y-13405246D02*
X7474825Y-13395722D01*
X7474825Y-13395722D02*
X7484349Y-13376674D01*
X7484349Y-13376674D02*
X7503396Y-13367150D01*
X7503396Y-13367150D02*
X7531968Y-13367150D01*
X7531968Y-13367150D02*
X7551015Y-13376674D01*
X7674825Y-13500484D02*
X7655777Y-13490960D01*
X7655777Y-13490960D02*
X7646254Y-13471912D01*
X7646254Y-13471912D02*
X7646254Y-13300484D01*
X7779587Y-13500484D02*
X7760539Y-13490960D01*
X7760539Y-13490960D02*
X7751015Y-13481436D01*
X7751015Y-13481436D02*
X7741492Y-13462388D01*
X7741492Y-13462388D02*
X7741492Y-13405246D01*
X7741492Y-13405246D02*
X7751015Y-13386198D01*
X7751015Y-13386198D02*
X7760539Y-13376674D01*
X7760539Y-13376674D02*
X7779587Y-13367150D01*
X7779587Y-13367150D02*
X7808158Y-13367150D01*
X7808158Y-13367150D02*
X7827206Y-13376674D01*
X7827206Y-13376674D02*
X7836730Y-13386198D01*
X7836730Y-13386198D02*
X7846254Y-13405246D01*
X7846254Y-13405246D02*
X7846254Y-13462388D01*
X7846254Y-13462388D02*
X7836730Y-13481436D01*
X7836730Y-13481436D02*
X7827206Y-13490960D01*
X7827206Y-13490960D02*
X7808158Y-13500484D01*
X7808158Y-13500484D02*
X7779587Y-13500484D01*
X7903396Y-13367150D02*
X7979587Y-13367150D01*
X7931968Y-13300484D02*
X7931968Y-13471912D01*
X7931968Y-13471912D02*
X7941492Y-13490960D01*
X7941492Y-13490960D02*
X7960539Y-13500484D01*
X7960539Y-13500484D02*
X7979587Y-13500484D01*
X8036730Y-13490960D02*
X8055777Y-13500484D01*
X8055777Y-13500484D02*
X8093873Y-13500484D01*
X8093873Y-13500484D02*
X8112920Y-13490960D01*
X8112920Y-13490960D02*
X8122444Y-13471912D01*
X8122444Y-13471912D02*
X8122444Y-13462388D01*
X8122444Y-13462388D02*
X8112920Y-13443341D01*
X8112920Y-13443341D02*
X8093873Y-13433817D01*
X8093873Y-13433817D02*
X8065301Y-13433817D01*
X8065301Y-13433817D02*
X8046254Y-13424293D01*
X8046254Y-13424293D02*
X8036730Y-13405246D01*
X8036730Y-13405246D02*
X8036730Y-13395722D01*
X8036730Y-13395722D02*
X8046254Y-13376674D01*
X8046254Y-13376674D02*
X8065301Y-13367150D01*
X8065301Y-13367150D02*
X8093873Y-13367150D01*
X8093873Y-13367150D02*
X8112920Y-13376674D01*
X8189111Y-13576674D02*
X8198635Y-13567150D01*
X8198635Y-13567150D02*
X8217682Y-13538579D01*
X8217682Y-13538579D02*
X8227206Y-13519531D01*
X8227206Y-13519531D02*
X8236730Y-13490960D01*
X8236730Y-13490960D02*
X8246254Y-13443341D01*
X8246254Y-13443341D02*
X8246254Y-13405246D01*
X8246254Y-13405246D02*
X8236730Y-13357627D01*
X8236730Y-13357627D02*
X8227206Y-13329055D01*
X8227206Y-13329055D02*
X8217682Y-13310008D01*
X8217682Y-13310008D02*
X8198635Y-13281436D01*
X8198635Y-13281436D02*
X8189111Y-13271912D01*
D10*
X1745000Y-13623000D02*
X1745000Y-13723000D01*
X1695000Y-13673000D02*
X1795000Y-13673000D01*
D11*
X2160539Y-13764484D02*
X2046253Y-13764484D01*
X2103396Y-13764484D02*
X2103396Y-13564484D01*
X2103396Y-13564484D02*
X2084348Y-13593055D01*
X2084348Y-13593055D02*
X2065301Y-13612103D01*
X2065301Y-13612103D02*
X2046253Y-13621627D01*
X2246253Y-13745436D02*
X2255777Y-13754960D01*
X2255777Y-13754960D02*
X2246253Y-13764484D01*
X2246253Y-13764484D02*
X2236729Y-13754960D01*
X2236729Y-13754960D02*
X2246253Y-13745436D01*
X2246253Y-13745436D02*
X2246253Y-13764484D01*
X2379586Y-13564484D02*
X2398634Y-13564484D01*
X2398634Y-13564484D02*
X2417682Y-13574008D01*
X2417682Y-13574008D02*
X2427205Y-13583531D01*
X2427205Y-13583531D02*
X2436729Y-13602579D01*
X2436729Y-13602579D02*
X2446253Y-13640674D01*
X2446253Y-13640674D02*
X2446253Y-13688293D01*
X2446253Y-13688293D02*
X2436729Y-13726388D01*
X2436729Y-13726388D02*
X2427205Y-13745436D01*
X2427205Y-13745436D02*
X2417682Y-13754960D01*
X2417682Y-13754960D02*
X2398634Y-13764484D01*
X2398634Y-13764484D02*
X2379586Y-13764484D01*
X2379586Y-13764484D02*
X2360539Y-13754960D01*
X2360539Y-13754960D02*
X2351015Y-13745436D01*
X2351015Y-13745436D02*
X2341491Y-13726388D01*
X2341491Y-13726388D02*
X2331967Y-13688293D01*
X2331967Y-13688293D02*
X2331967Y-13640674D01*
X2331967Y-13640674D02*
X2341491Y-13602579D01*
X2341491Y-13602579D02*
X2351015Y-13583531D01*
X2351015Y-13583531D02*
X2360539Y-13574008D01*
X2360539Y-13574008D02*
X2379586Y-13564484D01*
X2570063Y-13564484D02*
X2589110Y-13564484D01*
X2589110Y-13564484D02*
X2608158Y-13574008D01*
X2608158Y-13574008D02*
X2617682Y-13583531D01*
X2617682Y-13583531D02*
X2627205Y-13602579D01*
X2627205Y-13602579D02*
X2636729Y-13640674D01*
X2636729Y-13640674D02*
X2636729Y-13688293D01*
X2636729Y-13688293D02*
X2627205Y-13726388D01*
X2627205Y-13726388D02*
X2617682Y-13745436D01*
X2617682Y-13745436D02*
X2608158Y-13754960D01*
X2608158Y-13754960D02*
X2589110Y-13764484D01*
X2589110Y-13764484D02*
X2570063Y-13764484D01*
X2570063Y-13764484D02*
X2551015Y-13754960D01*
X2551015Y-13754960D02*
X2541491Y-13745436D01*
X2541491Y-13745436D02*
X2531967Y-13726388D01*
X2531967Y-13726388D02*
X2522444Y-13688293D01*
X2522444Y-13688293D02*
X2522444Y-13640674D01*
X2522444Y-13640674D02*
X2531967Y-13602579D01*
X2531967Y-13602579D02*
X2541491Y-13583531D01*
X2541491Y-13583531D02*
X2551015Y-13574008D01*
X2551015Y-13574008D02*
X2570063Y-13564484D01*
X2760539Y-13564484D02*
X2779586Y-13564484D01*
X2779586Y-13564484D02*
X2798634Y-13574008D01*
X2798634Y-13574008D02*
X2808158Y-13583531D01*
X2808158Y-13583531D02*
X2817682Y-13602579D01*
X2817682Y-13602579D02*
X2827205Y-13640674D01*
X2827205Y-13640674D02*
X2827205Y-13688293D01*
X2827205Y-13688293D02*
X2817682Y-13726388D01*
X2817682Y-13726388D02*
X2808158Y-13745436D01*
X2808158Y-13745436D02*
X2798634Y-13754960D01*
X2798634Y-13754960D02*
X2779586Y-13764484D01*
X2779586Y-13764484D02*
X2760539Y-13764484D01*
X2760539Y-13764484D02*
X2741491Y-13754960D01*
X2741491Y-13754960D02*
X2731967Y-13745436D01*
X2731967Y-13745436D02*
X2722444Y-13726388D01*
X2722444Y-13726388D02*
X2712920Y-13688293D01*
X2712920Y-13688293D02*
X2712920Y-13640674D01*
X2712920Y-13640674D02*
X2722444Y-13602579D01*
X2722444Y-13602579D02*
X2731967Y-13583531D01*
X2731967Y-13583531D02*
X2741491Y-13574008D01*
X2741491Y-13574008D02*
X2760539Y-13564484D01*
X2912920Y-13764484D02*
X2912920Y-13631150D01*
X2912920Y-13650198D02*
X2922443Y-13640674D01*
X2922443Y-13640674D02*
X2941491Y-13631150D01*
X2941491Y-13631150D02*
X2970063Y-13631150D01*
X2970063Y-13631150D02*
X2989110Y-13640674D01*
X2989110Y-13640674D02*
X2998634Y-13659722D01*
X2998634Y-13659722D02*
X2998634Y-13764484D01*
X2998634Y-13659722D02*
X3008158Y-13640674D01*
X3008158Y-13640674D02*
X3027205Y-13631150D01*
X3027205Y-13631150D02*
X3055777Y-13631150D01*
X3055777Y-13631150D02*
X3074824Y-13640674D01*
X3074824Y-13640674D02*
X3084348Y-13659722D01*
X3084348Y-13659722D02*
X3084348Y-13764484D01*
X3179586Y-13764484D02*
X3179586Y-13631150D01*
X3179586Y-13650198D02*
X3189110Y-13640674D01*
X3189110Y-13640674D02*
X3208158Y-13631150D01*
X3208158Y-13631150D02*
X3236729Y-13631150D01*
X3236729Y-13631150D02*
X3255777Y-13640674D01*
X3255777Y-13640674D02*
X3265301Y-13659722D01*
X3265301Y-13659722D02*
X3265301Y-13764484D01*
X3265301Y-13659722D02*
X3274824Y-13640674D01*
X3274824Y-13640674D02*
X3293872Y-13631150D01*
X3293872Y-13631150D02*
X3322443Y-13631150D01*
X3322443Y-13631150D02*
X3341491Y-13640674D01*
X3341491Y-13640674D02*
X3351015Y-13659722D01*
X3351015Y-13659722D02*
X3351015Y-13764484D01*
X3741491Y-13554960D02*
X3570063Y-13812103D01*
X3998634Y-13564484D02*
X4017682Y-13564484D01*
X4017682Y-13564484D02*
X4036729Y-13574008D01*
X4036729Y-13574008D02*
X4046253Y-13583531D01*
X4046253Y-13583531D02*
X4055777Y-13602579D01*
X4055777Y-13602579D02*
X4065301Y-13640674D01*
X4065301Y-13640674D02*
X4065301Y-13688293D01*
X4065301Y-13688293D02*
X4055777Y-13726388D01*
X4055777Y-13726388D02*
X4046253Y-13745436D01*
X4046253Y-13745436D02*
X4036729Y-13754960D01*
X4036729Y-13754960D02*
X4017682Y-13764484D01*
X4017682Y-13764484D02*
X3998634Y-13764484D01*
X3998634Y-13764484D02*
X3979586Y-13754960D01*
X3979586Y-13754960D02*
X3970063Y-13745436D01*
X3970063Y-13745436D02*
X3960539Y-13726388D01*
X3960539Y-13726388D02*
X3951015Y-13688293D01*
X3951015Y-13688293D02*
X3951015Y-13640674D01*
X3951015Y-13640674D02*
X3960539Y-13602579D01*
X3960539Y-13602579D02*
X3970063Y-13583531D01*
X3970063Y-13583531D02*
X3979586Y-13574008D01*
X3979586Y-13574008D02*
X3998634Y-13564484D01*
X4151015Y-13745436D02*
X4160539Y-13754960D01*
X4160539Y-13754960D02*
X4151015Y-13764484D01*
X4151015Y-13764484D02*
X4141491Y-13754960D01*
X4141491Y-13754960D02*
X4151015Y-13745436D01*
X4151015Y-13745436D02*
X4151015Y-13764484D01*
X4284348Y-13564484D02*
X4303396Y-13564484D01*
X4303396Y-13564484D02*
X4322444Y-13574008D01*
X4322444Y-13574008D02*
X4331968Y-13583531D01*
X4331968Y-13583531D02*
X4341491Y-13602579D01*
X4341491Y-13602579D02*
X4351015Y-13640674D01*
X4351015Y-13640674D02*
X4351015Y-13688293D01*
X4351015Y-13688293D02*
X4341491Y-13726388D01*
X4341491Y-13726388D02*
X4331968Y-13745436D01*
X4331968Y-13745436D02*
X4322444Y-13754960D01*
X4322444Y-13754960D02*
X4303396Y-13764484D01*
X4303396Y-13764484D02*
X4284348Y-13764484D01*
X4284348Y-13764484D02*
X4265301Y-13754960D01*
X4265301Y-13754960D02*
X4255777Y-13745436D01*
X4255777Y-13745436D02*
X4246253Y-13726388D01*
X4246253Y-13726388D02*
X4236729Y-13688293D01*
X4236729Y-13688293D02*
X4236729Y-13640674D01*
X4236729Y-13640674D02*
X4246253Y-13602579D01*
X4246253Y-13602579D02*
X4255777Y-13583531D01*
X4255777Y-13583531D02*
X4265301Y-13574008D01*
X4265301Y-13574008D02*
X4284348Y-13564484D01*
X4417682Y-13564484D02*
X4541491Y-13564484D01*
X4541491Y-13564484D02*
X4474825Y-13640674D01*
X4474825Y-13640674D02*
X4503396Y-13640674D01*
X4503396Y-13640674D02*
X4522444Y-13650198D01*
X4522444Y-13650198D02*
X4531968Y-13659722D01*
X4531968Y-13659722D02*
X4541491Y-13678769D01*
X4541491Y-13678769D02*
X4541491Y-13726388D01*
X4541491Y-13726388D02*
X4531968Y-13745436D01*
X4531968Y-13745436D02*
X4522444Y-13754960D01*
X4522444Y-13754960D02*
X4503396Y-13764484D01*
X4503396Y-13764484D02*
X4446253Y-13764484D01*
X4446253Y-13764484D02*
X4427206Y-13754960D01*
X4427206Y-13754960D02*
X4417682Y-13745436D01*
X4636729Y-13764484D02*
X4674825Y-13764484D01*
X4674825Y-13764484D02*
X4693872Y-13754960D01*
X4693872Y-13754960D02*
X4703396Y-13745436D01*
X4703396Y-13745436D02*
X4722444Y-13716865D01*
X4722444Y-13716865D02*
X4731968Y-13678769D01*
X4731968Y-13678769D02*
X4731968Y-13602579D01*
X4731968Y-13602579D02*
X4722444Y-13583531D01*
X4722444Y-13583531D02*
X4712920Y-13574008D01*
X4712920Y-13574008D02*
X4693872Y-13564484D01*
X4693872Y-13564484D02*
X4655777Y-13564484D01*
X4655777Y-13564484D02*
X4636729Y-13574008D01*
X4636729Y-13574008D02*
X4627206Y-13583531D01*
X4627206Y-13583531D02*
X4617682Y-13602579D01*
X4617682Y-13602579D02*
X4617682Y-13650198D01*
X4617682Y-13650198D02*
X4627206Y-13669246D01*
X4627206Y-13669246D02*
X4636729Y-13678769D01*
X4636729Y-13678769D02*
X4655777Y-13688293D01*
X4655777Y-13688293D02*
X4693872Y-13688293D01*
X4693872Y-13688293D02*
X4712920Y-13678769D01*
X4712920Y-13678769D02*
X4722444Y-13669246D01*
X4722444Y-13669246D02*
X4731968Y-13650198D01*
X4903396Y-13631150D02*
X4903396Y-13764484D01*
X4855777Y-13554960D02*
X4808158Y-13697817D01*
X4808158Y-13697817D02*
X4931968Y-13697817D01*
X4998634Y-13564484D02*
X4998634Y-13602579D01*
X5074825Y-13564484D02*
X5074825Y-13602579D01*
X5370063Y-13840674D02*
X5360539Y-13831150D01*
X5360539Y-13831150D02*
X5341491Y-13802579D01*
X5341491Y-13802579D02*
X5331968Y-13783531D01*
X5331968Y-13783531D02*
X5322444Y-13754960D01*
X5322444Y-13754960D02*
X5312920Y-13707341D01*
X5312920Y-13707341D02*
X5312920Y-13669246D01*
X5312920Y-13669246D02*
X5322444Y-13621627D01*
X5322444Y-13621627D02*
X5331968Y-13593055D01*
X5331968Y-13593055D02*
X5341491Y-13574008D01*
X5341491Y-13574008D02*
X5360539Y-13545436D01*
X5360539Y-13545436D02*
X5370063Y-13535912D01*
X5531968Y-13631150D02*
X5531968Y-13764484D01*
X5484349Y-13554960D02*
X5436730Y-13697817D01*
X5436730Y-13697817D02*
X5560539Y-13697817D01*
X5789110Y-13764484D02*
X5789110Y-13564484D01*
X5874825Y-13764484D02*
X5874825Y-13659722D01*
X5874825Y-13659722D02*
X5865301Y-13640674D01*
X5865301Y-13640674D02*
X5846253Y-13631150D01*
X5846253Y-13631150D02*
X5817682Y-13631150D01*
X5817682Y-13631150D02*
X5798634Y-13640674D01*
X5798634Y-13640674D02*
X5789110Y-13650198D01*
X5998634Y-13764484D02*
X5979587Y-13754960D01*
X5979587Y-13754960D02*
X5970063Y-13745436D01*
X5970063Y-13745436D02*
X5960539Y-13726388D01*
X5960539Y-13726388D02*
X5960539Y-13669246D01*
X5960539Y-13669246D02*
X5970063Y-13650198D01*
X5970063Y-13650198D02*
X5979587Y-13640674D01*
X5979587Y-13640674D02*
X5998634Y-13631150D01*
X5998634Y-13631150D02*
X6027206Y-13631150D01*
X6027206Y-13631150D02*
X6046253Y-13640674D01*
X6046253Y-13640674D02*
X6055777Y-13650198D01*
X6055777Y-13650198D02*
X6065301Y-13669246D01*
X6065301Y-13669246D02*
X6065301Y-13726388D01*
X6065301Y-13726388D02*
X6055777Y-13745436D01*
X6055777Y-13745436D02*
X6046253Y-13754960D01*
X6046253Y-13754960D02*
X6027206Y-13764484D01*
X6027206Y-13764484D02*
X5998634Y-13764484D01*
X6179587Y-13764484D02*
X6160539Y-13754960D01*
X6160539Y-13754960D02*
X6151015Y-13735912D01*
X6151015Y-13735912D02*
X6151015Y-13564484D01*
X6331968Y-13754960D02*
X6312920Y-13764484D01*
X6312920Y-13764484D02*
X6274825Y-13764484D01*
X6274825Y-13764484D02*
X6255777Y-13754960D01*
X6255777Y-13754960D02*
X6246253Y-13735912D01*
X6246253Y-13735912D02*
X6246253Y-13659722D01*
X6246253Y-13659722D02*
X6255777Y-13640674D01*
X6255777Y-13640674D02*
X6274825Y-13631150D01*
X6274825Y-13631150D02*
X6312920Y-13631150D01*
X6312920Y-13631150D02*
X6331968Y-13640674D01*
X6331968Y-13640674D02*
X6341491Y-13659722D01*
X6341491Y-13659722D02*
X6341491Y-13678769D01*
X6341491Y-13678769D02*
X6246253Y-13697817D01*
X6417682Y-13754960D02*
X6436730Y-13764484D01*
X6436730Y-13764484D02*
X6474825Y-13764484D01*
X6474825Y-13764484D02*
X6493872Y-13754960D01*
X6493872Y-13754960D02*
X6503396Y-13735912D01*
X6503396Y-13735912D02*
X6503396Y-13726388D01*
X6503396Y-13726388D02*
X6493872Y-13707341D01*
X6493872Y-13707341D02*
X6474825Y-13697817D01*
X6474825Y-13697817D02*
X6446253Y-13697817D01*
X6446253Y-13697817D02*
X6427206Y-13688293D01*
X6427206Y-13688293D02*
X6417682Y-13669246D01*
X6417682Y-13669246D02*
X6417682Y-13659722D01*
X6417682Y-13659722D02*
X6427206Y-13640674D01*
X6427206Y-13640674D02*
X6446253Y-13631150D01*
X6446253Y-13631150D02*
X6474825Y-13631150D01*
X6474825Y-13631150D02*
X6493872Y-13640674D01*
X6570063Y-13840674D02*
X6579587Y-13831150D01*
X6579587Y-13831150D02*
X6598634Y-13802579D01*
X6598634Y-13802579D02*
X6608158Y-13783531D01*
X6608158Y-13783531D02*
X6617682Y-13754960D01*
X6617682Y-13754960D02*
X6627206Y-13707341D01*
X6627206Y-13707341D02*
X6627206Y-13669246D01*
X6627206Y-13669246D02*
X6617682Y-13621627D01*
X6617682Y-13621627D02*
X6608158Y-13593055D01*
X6608158Y-13593055D02*
X6598634Y-13574008D01*
X6598634Y-13574008D02*
X6579587Y-13545436D01*
X6579587Y-13545436D02*
X6570063Y-13535912D01*
D14*
X1773033Y-13990033D02*
X1773033Y-13883966D01*
X1666966Y-13883966D01*
X1666966Y-13990033D01*
X1773033Y-13990033D01*
D11*
X2160539Y-14028484D02*
X2046253Y-14028484D01*
X2103396Y-14028484D02*
X2103396Y-13828484D01*
X2103396Y-13828484D02*
X2084348Y-13857055D01*
X2084348Y-13857055D02*
X2065301Y-13876103D01*
X2065301Y-13876103D02*
X2046253Y-13885627D01*
X2246253Y-14009436D02*
X2255777Y-14018960D01*
X2255777Y-14018960D02*
X2246253Y-14028484D01*
X2246253Y-14028484D02*
X2236729Y-14018960D01*
X2236729Y-14018960D02*
X2246253Y-14009436D01*
X2246253Y-14009436D02*
X2246253Y-14028484D01*
X2436729Y-13828484D02*
X2341491Y-13828484D01*
X2341491Y-13828484D02*
X2331967Y-13923722D01*
X2331967Y-13923722D02*
X2341491Y-13914198D01*
X2341491Y-13914198D02*
X2360539Y-13904674D01*
X2360539Y-13904674D02*
X2408158Y-13904674D01*
X2408158Y-13904674D02*
X2427205Y-13914198D01*
X2427205Y-13914198D02*
X2436729Y-13923722D01*
X2436729Y-13923722D02*
X2446253Y-13942769D01*
X2446253Y-13942769D02*
X2446253Y-13990388D01*
X2446253Y-13990388D02*
X2436729Y-14009436D01*
X2436729Y-14009436D02*
X2427205Y-14018960D01*
X2427205Y-14018960D02*
X2408158Y-14028484D01*
X2408158Y-14028484D02*
X2360539Y-14028484D01*
X2360539Y-14028484D02*
X2341491Y-14018960D01*
X2341491Y-14018960D02*
X2331967Y-14009436D01*
X2570063Y-13828484D02*
X2589110Y-13828484D01*
X2589110Y-13828484D02*
X2608158Y-13838008D01*
X2608158Y-13838008D02*
X2617682Y-13847531D01*
X2617682Y-13847531D02*
X2627205Y-13866579D01*
X2627205Y-13866579D02*
X2636729Y-13904674D01*
X2636729Y-13904674D02*
X2636729Y-13952293D01*
X2636729Y-13952293D02*
X2627205Y-13990388D01*
X2627205Y-13990388D02*
X2617682Y-14009436D01*
X2617682Y-14009436D02*
X2608158Y-14018960D01*
X2608158Y-14018960D02*
X2589110Y-14028484D01*
X2589110Y-14028484D02*
X2570063Y-14028484D01*
X2570063Y-14028484D02*
X2551015Y-14018960D01*
X2551015Y-14018960D02*
X2541491Y-14009436D01*
X2541491Y-14009436D02*
X2531967Y-13990388D01*
X2531967Y-13990388D02*
X2522444Y-13952293D01*
X2522444Y-13952293D02*
X2522444Y-13904674D01*
X2522444Y-13904674D02*
X2531967Y-13866579D01*
X2531967Y-13866579D02*
X2541491Y-13847531D01*
X2541491Y-13847531D02*
X2551015Y-13838008D01*
X2551015Y-13838008D02*
X2570063Y-13828484D01*
X2760539Y-13828484D02*
X2779586Y-13828484D01*
X2779586Y-13828484D02*
X2798634Y-13838008D01*
X2798634Y-13838008D02*
X2808158Y-13847531D01*
X2808158Y-13847531D02*
X2817682Y-13866579D01*
X2817682Y-13866579D02*
X2827205Y-13904674D01*
X2827205Y-13904674D02*
X2827205Y-13952293D01*
X2827205Y-13952293D02*
X2817682Y-13990388D01*
X2817682Y-13990388D02*
X2808158Y-14009436D01*
X2808158Y-14009436D02*
X2798634Y-14018960D01*
X2798634Y-14018960D02*
X2779586Y-14028484D01*
X2779586Y-14028484D02*
X2760539Y-14028484D01*
X2760539Y-14028484D02*
X2741491Y-14018960D01*
X2741491Y-14018960D02*
X2731967Y-14009436D01*
X2731967Y-14009436D02*
X2722444Y-13990388D01*
X2722444Y-13990388D02*
X2712920Y-13952293D01*
X2712920Y-13952293D02*
X2712920Y-13904674D01*
X2712920Y-13904674D02*
X2722444Y-13866579D01*
X2722444Y-13866579D02*
X2731967Y-13847531D01*
X2731967Y-13847531D02*
X2741491Y-13838008D01*
X2741491Y-13838008D02*
X2760539Y-13828484D01*
X2912920Y-14028484D02*
X2912920Y-13895150D01*
X2912920Y-13914198D02*
X2922443Y-13904674D01*
X2922443Y-13904674D02*
X2941491Y-13895150D01*
X2941491Y-13895150D02*
X2970063Y-13895150D01*
X2970063Y-13895150D02*
X2989110Y-13904674D01*
X2989110Y-13904674D02*
X2998634Y-13923722D01*
X2998634Y-13923722D02*
X2998634Y-14028484D01*
X2998634Y-13923722D02*
X3008158Y-13904674D01*
X3008158Y-13904674D02*
X3027205Y-13895150D01*
X3027205Y-13895150D02*
X3055777Y-13895150D01*
X3055777Y-13895150D02*
X3074824Y-13904674D01*
X3074824Y-13904674D02*
X3084348Y-13923722D01*
X3084348Y-13923722D02*
X3084348Y-14028484D01*
X3179586Y-14028484D02*
X3179586Y-13895150D01*
X3179586Y-13914198D02*
X3189110Y-13904674D01*
X3189110Y-13904674D02*
X3208158Y-13895150D01*
X3208158Y-13895150D02*
X3236729Y-13895150D01*
X3236729Y-13895150D02*
X3255777Y-13904674D01*
X3255777Y-13904674D02*
X3265301Y-13923722D01*
X3265301Y-13923722D02*
X3265301Y-14028484D01*
X3265301Y-13923722D02*
X3274824Y-13904674D01*
X3274824Y-13904674D02*
X3293872Y-13895150D01*
X3293872Y-13895150D02*
X3322443Y-13895150D01*
X3322443Y-13895150D02*
X3341491Y-13904674D01*
X3341491Y-13904674D02*
X3351015Y-13923722D01*
X3351015Y-13923722D02*
X3351015Y-14028484D01*
X3741491Y-13818960D02*
X3570063Y-14076103D01*
X3998634Y-13828484D02*
X4017682Y-13828484D01*
X4017682Y-13828484D02*
X4036729Y-13838008D01*
X4036729Y-13838008D02*
X4046253Y-13847531D01*
X4046253Y-13847531D02*
X4055777Y-13866579D01*
X4055777Y-13866579D02*
X4065301Y-13904674D01*
X4065301Y-13904674D02*
X4065301Y-13952293D01*
X4065301Y-13952293D02*
X4055777Y-13990388D01*
X4055777Y-13990388D02*
X4046253Y-14009436D01*
X4046253Y-14009436D02*
X4036729Y-14018960D01*
X4036729Y-14018960D02*
X4017682Y-14028484D01*
X4017682Y-14028484D02*
X3998634Y-14028484D01*
X3998634Y-14028484D02*
X3979586Y-14018960D01*
X3979586Y-14018960D02*
X3970063Y-14009436D01*
X3970063Y-14009436D02*
X3960539Y-13990388D01*
X3960539Y-13990388D02*
X3951015Y-13952293D01*
X3951015Y-13952293D02*
X3951015Y-13904674D01*
X3951015Y-13904674D02*
X3960539Y-13866579D01*
X3960539Y-13866579D02*
X3970063Y-13847531D01*
X3970063Y-13847531D02*
X3979586Y-13838008D01*
X3979586Y-13838008D02*
X3998634Y-13828484D01*
X4151015Y-14009436D02*
X4160539Y-14018960D01*
X4160539Y-14018960D02*
X4151015Y-14028484D01*
X4151015Y-14028484D02*
X4141491Y-14018960D01*
X4141491Y-14018960D02*
X4151015Y-14009436D01*
X4151015Y-14009436D02*
X4151015Y-14028484D01*
X4284348Y-13828484D02*
X4303396Y-13828484D01*
X4303396Y-13828484D02*
X4322444Y-13838008D01*
X4322444Y-13838008D02*
X4331968Y-13847531D01*
X4331968Y-13847531D02*
X4341491Y-13866579D01*
X4341491Y-13866579D02*
X4351015Y-13904674D01*
X4351015Y-13904674D02*
X4351015Y-13952293D01*
X4351015Y-13952293D02*
X4341491Y-13990388D01*
X4341491Y-13990388D02*
X4331968Y-14009436D01*
X4331968Y-14009436D02*
X4322444Y-14018960D01*
X4322444Y-14018960D02*
X4303396Y-14028484D01*
X4303396Y-14028484D02*
X4284348Y-14028484D01*
X4284348Y-14028484D02*
X4265301Y-14018960D01*
X4265301Y-14018960D02*
X4255777Y-14009436D01*
X4255777Y-14009436D02*
X4246253Y-13990388D01*
X4246253Y-13990388D02*
X4236729Y-13952293D01*
X4236729Y-13952293D02*
X4236729Y-13904674D01*
X4236729Y-13904674D02*
X4246253Y-13866579D01*
X4246253Y-13866579D02*
X4255777Y-13847531D01*
X4255777Y-13847531D02*
X4265301Y-13838008D01*
X4265301Y-13838008D02*
X4284348Y-13828484D01*
X4531968Y-13828484D02*
X4436729Y-13828484D01*
X4436729Y-13828484D02*
X4427206Y-13923722D01*
X4427206Y-13923722D02*
X4436729Y-13914198D01*
X4436729Y-13914198D02*
X4455777Y-13904674D01*
X4455777Y-13904674D02*
X4503396Y-13904674D01*
X4503396Y-13904674D02*
X4522444Y-13914198D01*
X4522444Y-13914198D02*
X4531968Y-13923722D01*
X4531968Y-13923722D02*
X4541491Y-13942769D01*
X4541491Y-13942769D02*
X4541491Y-13990388D01*
X4541491Y-13990388D02*
X4531968Y-14009436D01*
X4531968Y-14009436D02*
X4522444Y-14018960D01*
X4522444Y-14018960D02*
X4503396Y-14028484D01*
X4503396Y-14028484D02*
X4455777Y-14028484D01*
X4455777Y-14028484D02*
X4436729Y-14018960D01*
X4436729Y-14018960D02*
X4427206Y-14009436D01*
X4636729Y-14028484D02*
X4674825Y-14028484D01*
X4674825Y-14028484D02*
X4693872Y-14018960D01*
X4693872Y-14018960D02*
X4703396Y-14009436D01*
X4703396Y-14009436D02*
X4722444Y-13980865D01*
X4722444Y-13980865D02*
X4731968Y-13942769D01*
X4731968Y-13942769D02*
X4731968Y-13866579D01*
X4731968Y-13866579D02*
X4722444Y-13847531D01*
X4722444Y-13847531D02*
X4712920Y-13838008D01*
X4712920Y-13838008D02*
X4693872Y-13828484D01*
X4693872Y-13828484D02*
X4655777Y-13828484D01*
X4655777Y-13828484D02*
X4636729Y-13838008D01*
X4636729Y-13838008D02*
X4627206Y-13847531D01*
X4627206Y-13847531D02*
X4617682Y-13866579D01*
X4617682Y-13866579D02*
X4617682Y-13914198D01*
X4617682Y-13914198D02*
X4627206Y-13933246D01*
X4627206Y-13933246D02*
X4636729Y-13942769D01*
X4636729Y-13942769D02*
X4655777Y-13952293D01*
X4655777Y-13952293D02*
X4693872Y-13952293D01*
X4693872Y-13952293D02*
X4712920Y-13942769D01*
X4712920Y-13942769D02*
X4722444Y-13933246D01*
X4722444Y-13933246D02*
X4731968Y-13914198D01*
X4922444Y-14028484D02*
X4808158Y-14028484D01*
X4865301Y-14028484D02*
X4865301Y-13828484D01*
X4865301Y-13828484D02*
X4846253Y-13857055D01*
X4846253Y-13857055D02*
X4827206Y-13876103D01*
X4827206Y-13876103D02*
X4808158Y-13885627D01*
X4998634Y-13828484D02*
X4998634Y-13866579D01*
X5074825Y-13828484D02*
X5074825Y-13866579D01*
X5370063Y-14104674D02*
X5360539Y-14095150D01*
X5360539Y-14095150D02*
X5341491Y-14066579D01*
X5341491Y-14066579D02*
X5331968Y-14047531D01*
X5331968Y-14047531D02*
X5322444Y-14018960D01*
X5322444Y-14018960D02*
X5312920Y-13971341D01*
X5312920Y-13971341D02*
X5312920Y-13933246D01*
X5312920Y-13933246D02*
X5322444Y-13885627D01*
X5322444Y-13885627D02*
X5331968Y-13857055D01*
X5331968Y-13857055D02*
X5341491Y-13838008D01*
X5341491Y-13838008D02*
X5360539Y-13809436D01*
X5360539Y-13809436D02*
X5370063Y-13799912D01*
X5531968Y-13895150D02*
X5531968Y-14028484D01*
X5484349Y-13818960D02*
X5436730Y-13961817D01*
X5436730Y-13961817D02*
X5560539Y-13961817D01*
X5674825Y-13828484D02*
X5693872Y-13828484D01*
X5693872Y-13828484D02*
X5712920Y-13838008D01*
X5712920Y-13838008D02*
X5722444Y-13847531D01*
X5722444Y-13847531D02*
X5731968Y-13866579D01*
X5731968Y-13866579D02*
X5741491Y-13904674D01*
X5741491Y-13904674D02*
X5741491Y-13952293D01*
X5741491Y-13952293D02*
X5731968Y-13990388D01*
X5731968Y-13990388D02*
X5722444Y-14009436D01*
X5722444Y-14009436D02*
X5712920Y-14018960D01*
X5712920Y-14018960D02*
X5693872Y-14028484D01*
X5693872Y-14028484D02*
X5674825Y-14028484D01*
X5674825Y-14028484D02*
X5655777Y-14018960D01*
X5655777Y-14018960D02*
X5646253Y-14009436D01*
X5646253Y-14009436D02*
X5636729Y-13990388D01*
X5636729Y-13990388D02*
X5627206Y-13952293D01*
X5627206Y-13952293D02*
X5627206Y-13904674D01*
X5627206Y-13904674D02*
X5636729Y-13866579D01*
X5636729Y-13866579D02*
X5646253Y-13847531D01*
X5646253Y-13847531D02*
X5655777Y-13838008D01*
X5655777Y-13838008D02*
X5674825Y-13828484D01*
X5979587Y-14028484D02*
X5979587Y-13828484D01*
X6065301Y-14028484D02*
X6065301Y-13923722D01*
X6065301Y-13923722D02*
X6055777Y-13904674D01*
X6055777Y-13904674D02*
X6036730Y-13895150D01*
X6036730Y-13895150D02*
X6008158Y-13895150D01*
X6008158Y-13895150D02*
X5989110Y-13904674D01*
X5989110Y-13904674D02*
X5979587Y-13914198D01*
X6189110Y-14028484D02*
X6170063Y-14018960D01*
X6170063Y-14018960D02*
X6160539Y-14009436D01*
X6160539Y-14009436D02*
X6151015Y-13990388D01*
X6151015Y-13990388D02*
X6151015Y-13933246D01*
X6151015Y-13933246D02*
X6160539Y-13914198D01*
X6160539Y-13914198D02*
X6170063Y-13904674D01*
X6170063Y-13904674D02*
X6189110Y-13895150D01*
X6189110Y-13895150D02*
X6217682Y-13895150D01*
X6217682Y-13895150D02*
X6236730Y-13904674D01*
X6236730Y-13904674D02*
X6246253Y-13914198D01*
X6246253Y-13914198D02*
X6255777Y-13933246D01*
X6255777Y-13933246D02*
X6255777Y-13990388D01*
X6255777Y-13990388D02*
X6246253Y-14009436D01*
X6246253Y-14009436D02*
X6236730Y-14018960D01*
X6236730Y-14018960D02*
X6217682Y-14028484D01*
X6217682Y-14028484D02*
X6189110Y-14028484D01*
X6370063Y-14028484D02*
X6351015Y-14018960D01*
X6351015Y-14018960D02*
X6341491Y-13999912D01*
X6341491Y-13999912D02*
X6341491Y-13828484D01*
X6522444Y-14018960D02*
X6503396Y-14028484D01*
X6503396Y-14028484D02*
X6465301Y-14028484D01*
X6465301Y-14028484D02*
X6446253Y-14018960D01*
X6446253Y-14018960D02*
X6436730Y-13999912D01*
X6436730Y-13999912D02*
X6436730Y-13923722D01*
X6436730Y-13923722D02*
X6446253Y-13904674D01*
X6446253Y-13904674D02*
X6465301Y-13895150D01*
X6465301Y-13895150D02*
X6503396Y-13895150D01*
X6503396Y-13895150D02*
X6522444Y-13904674D01*
X6522444Y-13904674D02*
X6531968Y-13923722D01*
X6531968Y-13923722D02*
X6531968Y-13942769D01*
X6531968Y-13942769D02*
X6436730Y-13961817D01*
X6608158Y-14018960D02*
X6627206Y-14028484D01*
X6627206Y-14028484D02*
X6665301Y-14028484D01*
X6665301Y-14028484D02*
X6684349Y-14018960D01*
X6684349Y-14018960D02*
X6693872Y-13999912D01*
X6693872Y-13999912D02*
X6693872Y-13990388D01*
X6693872Y-13990388D02*
X6684349Y-13971341D01*
X6684349Y-13971341D02*
X6665301Y-13961817D01*
X6665301Y-13961817D02*
X6636730Y-13961817D01*
X6636730Y-13961817D02*
X6617682Y-13952293D01*
X6617682Y-13952293D02*
X6608158Y-13933246D01*
X6608158Y-13933246D02*
X6608158Y-13923722D01*
X6608158Y-13923722D02*
X6617682Y-13904674D01*
X6617682Y-13904674D02*
X6636730Y-13895150D01*
X6636730Y-13895150D02*
X6665301Y-13895150D01*
X6665301Y-13895150D02*
X6684349Y-13904674D01*
X6760539Y-14104674D02*
X6770063Y-14095150D01*
X6770063Y-14095150D02*
X6789111Y-14066579D01*
X6789111Y-14066579D02*
X6798634Y-14047531D01*
X6798634Y-14047531D02*
X6808158Y-14018960D01*
X6808158Y-14018960D02*
X6817682Y-13971341D01*
X6817682Y-13971341D02*
X6817682Y-13933246D01*
X6817682Y-13933246D02*
X6808158Y-13885627D01*
X6808158Y-13885627D02*
X6798634Y-13857055D01*
X6798634Y-13857055D02*
X6789111Y-13838008D01*
X6789111Y-13838008D02*
X6770063Y-13809436D01*
X6770063Y-13809436D02*
X6760539Y-13799912D01*
M02*
