%TF.GenerationSoftware,KiCad,Pcbnew,7.0.7*%
%TF.CreationDate,2023-10-04T19:00:40+09:00*%
%TF.ProjectId,Sixtar-Switch,53697874-6172-42d5-9377-697463682e6b,rev?*%
%TF.SameCoordinates,Original*%
%TF.FileFunction,AssemblyDrawing,Top*%
%FSLAX46Y46*%
G04 Gerber Fmt 4.6, Leading zero omitted, Abs format (unit mm)*
G04 Created by KiCad (PCBNEW 7.0.7) date 2023-10-04 19:00:40*
%MOMM*%
%LPD*%
G01*
G04 APERTURE LIST*
%ADD10C,0.150000*%
%ADD11C,0.080000*%
%ADD12C,0.120000*%
%ADD13C,0.100000*%
G04 APERTURE END LIST*
D10*
X240214285Y-121454819D02*
X240214285Y-120454819D01*
X240214285Y-120454819D02*
X240547618Y-121169104D01*
X240547618Y-121169104D02*
X240880951Y-120454819D01*
X240880951Y-120454819D02*
X240880951Y-121454819D01*
X241499999Y-121454819D02*
X241404761Y-121407200D01*
X241404761Y-121407200D02*
X241357142Y-121359580D01*
X241357142Y-121359580D02*
X241309523Y-121264342D01*
X241309523Y-121264342D02*
X241309523Y-120978628D01*
X241309523Y-120978628D02*
X241357142Y-120883390D01*
X241357142Y-120883390D02*
X241404761Y-120835771D01*
X241404761Y-120835771D02*
X241499999Y-120788152D01*
X241499999Y-120788152D02*
X241642856Y-120788152D01*
X241642856Y-120788152D02*
X241738094Y-120835771D01*
X241738094Y-120835771D02*
X241785713Y-120883390D01*
X241785713Y-120883390D02*
X241833332Y-120978628D01*
X241833332Y-120978628D02*
X241833332Y-121264342D01*
X241833332Y-121264342D02*
X241785713Y-121359580D01*
X241785713Y-121359580D02*
X241738094Y-121407200D01*
X241738094Y-121407200D02*
X241642856Y-121454819D01*
X241642856Y-121454819D02*
X241499999Y-121454819D01*
X242690475Y-120788152D02*
X242690475Y-121454819D01*
X242261904Y-120788152D02*
X242261904Y-121311961D01*
X242261904Y-121311961D02*
X242309523Y-121407200D01*
X242309523Y-121407200D02*
X242404761Y-121454819D01*
X242404761Y-121454819D02*
X242547618Y-121454819D01*
X242547618Y-121454819D02*
X242642856Y-121407200D01*
X242642856Y-121407200D02*
X242690475Y-121359580D01*
X243166666Y-120788152D02*
X243166666Y-121454819D01*
X243166666Y-120883390D02*
X243214285Y-120835771D01*
X243214285Y-120835771D02*
X243309523Y-120788152D01*
X243309523Y-120788152D02*
X243452380Y-120788152D01*
X243452380Y-120788152D02*
X243547618Y-120835771D01*
X243547618Y-120835771D02*
X243595237Y-120931009D01*
X243595237Y-120931009D02*
X243595237Y-121454819D01*
X243928571Y-120788152D02*
X244309523Y-120788152D01*
X244071428Y-120454819D02*
X244071428Y-121311961D01*
X244071428Y-121311961D02*
X244119047Y-121407200D01*
X244119047Y-121407200D02*
X244214285Y-121454819D01*
X244214285Y-121454819D02*
X244309523Y-121454819D01*
X244642857Y-121454819D02*
X244642857Y-120788152D01*
X244642857Y-120454819D02*
X244595238Y-120502438D01*
X244595238Y-120502438D02*
X244642857Y-120550057D01*
X244642857Y-120550057D02*
X244690476Y-120502438D01*
X244690476Y-120502438D02*
X244642857Y-120454819D01*
X244642857Y-120454819D02*
X244642857Y-120550057D01*
X245119047Y-120788152D02*
X245119047Y-121454819D01*
X245119047Y-120883390D02*
X245166666Y-120835771D01*
X245166666Y-120835771D02*
X245261904Y-120788152D01*
X245261904Y-120788152D02*
X245404761Y-120788152D01*
X245404761Y-120788152D02*
X245499999Y-120835771D01*
X245499999Y-120835771D02*
X245547618Y-120931009D01*
X245547618Y-120931009D02*
X245547618Y-121454819D01*
X246452380Y-120788152D02*
X246452380Y-121597676D01*
X246452380Y-121597676D02*
X246404761Y-121692914D01*
X246404761Y-121692914D02*
X246357142Y-121740533D01*
X246357142Y-121740533D02*
X246261904Y-121788152D01*
X246261904Y-121788152D02*
X246119047Y-121788152D01*
X246119047Y-121788152D02*
X246023809Y-121740533D01*
X246452380Y-121407200D02*
X246357142Y-121454819D01*
X246357142Y-121454819D02*
X246166666Y-121454819D01*
X246166666Y-121454819D02*
X246071428Y-121407200D01*
X246071428Y-121407200D02*
X246023809Y-121359580D01*
X246023809Y-121359580D02*
X245976190Y-121264342D01*
X245976190Y-121264342D02*
X245976190Y-120978628D01*
X245976190Y-120978628D02*
X246023809Y-120883390D01*
X246023809Y-120883390D02*
X246071428Y-120835771D01*
X246071428Y-120835771D02*
X246166666Y-120788152D01*
X246166666Y-120788152D02*
X246357142Y-120788152D01*
X246357142Y-120788152D02*
X246452380Y-120835771D01*
X246928571Y-121454819D02*
X246928571Y-120454819D01*
X246928571Y-120931009D02*
X247499999Y-120931009D01*
X247499999Y-121454819D02*
X247499999Y-120454819D01*
X248119047Y-121454819D02*
X248023809Y-121407200D01*
X248023809Y-121407200D02*
X247976190Y-121359580D01*
X247976190Y-121359580D02*
X247928571Y-121264342D01*
X247928571Y-121264342D02*
X247928571Y-120978628D01*
X247928571Y-120978628D02*
X247976190Y-120883390D01*
X247976190Y-120883390D02*
X248023809Y-120835771D01*
X248023809Y-120835771D02*
X248119047Y-120788152D01*
X248119047Y-120788152D02*
X248261904Y-120788152D01*
X248261904Y-120788152D02*
X248357142Y-120835771D01*
X248357142Y-120835771D02*
X248404761Y-120883390D01*
X248404761Y-120883390D02*
X248452380Y-120978628D01*
X248452380Y-120978628D02*
X248452380Y-121264342D01*
X248452380Y-121264342D02*
X248404761Y-121359580D01*
X248404761Y-121359580D02*
X248357142Y-121407200D01*
X248357142Y-121407200D02*
X248261904Y-121454819D01*
X248261904Y-121454819D02*
X248119047Y-121454819D01*
X249023809Y-121454819D02*
X248928571Y-121407200D01*
X248928571Y-121407200D02*
X248880952Y-121311961D01*
X248880952Y-121311961D02*
X248880952Y-120454819D01*
X249785714Y-121407200D02*
X249690476Y-121454819D01*
X249690476Y-121454819D02*
X249500000Y-121454819D01*
X249500000Y-121454819D02*
X249404762Y-121407200D01*
X249404762Y-121407200D02*
X249357143Y-121311961D01*
X249357143Y-121311961D02*
X249357143Y-120931009D01*
X249357143Y-120931009D02*
X249404762Y-120835771D01*
X249404762Y-120835771D02*
X249500000Y-120788152D01*
X249500000Y-120788152D02*
X249690476Y-120788152D01*
X249690476Y-120788152D02*
X249785714Y-120835771D01*
X249785714Y-120835771D02*
X249833333Y-120931009D01*
X249833333Y-120931009D02*
X249833333Y-121026247D01*
X249833333Y-121026247D02*
X249357143Y-121121485D01*
X253238095Y-121454819D02*
X253238095Y-120454819D01*
X253238095Y-120931009D02*
X253809523Y-120931009D01*
X253809523Y-121454819D02*
X253809523Y-120454819D01*
X254714285Y-120788152D02*
X254714285Y-121454819D01*
X254476190Y-120407200D02*
X254238095Y-121121485D01*
X254238095Y-121121485D02*
X254857142Y-121121485D01*
X26214285Y-121454819D02*
X26214285Y-120454819D01*
X26214285Y-120454819D02*
X26547618Y-121169104D01*
X26547618Y-121169104D02*
X26880951Y-120454819D01*
X26880951Y-120454819D02*
X26880951Y-121454819D01*
X27499999Y-121454819D02*
X27404761Y-121407200D01*
X27404761Y-121407200D02*
X27357142Y-121359580D01*
X27357142Y-121359580D02*
X27309523Y-121264342D01*
X27309523Y-121264342D02*
X27309523Y-120978628D01*
X27309523Y-120978628D02*
X27357142Y-120883390D01*
X27357142Y-120883390D02*
X27404761Y-120835771D01*
X27404761Y-120835771D02*
X27499999Y-120788152D01*
X27499999Y-120788152D02*
X27642856Y-120788152D01*
X27642856Y-120788152D02*
X27738094Y-120835771D01*
X27738094Y-120835771D02*
X27785713Y-120883390D01*
X27785713Y-120883390D02*
X27833332Y-120978628D01*
X27833332Y-120978628D02*
X27833332Y-121264342D01*
X27833332Y-121264342D02*
X27785713Y-121359580D01*
X27785713Y-121359580D02*
X27738094Y-121407200D01*
X27738094Y-121407200D02*
X27642856Y-121454819D01*
X27642856Y-121454819D02*
X27499999Y-121454819D01*
X28690475Y-120788152D02*
X28690475Y-121454819D01*
X28261904Y-120788152D02*
X28261904Y-121311961D01*
X28261904Y-121311961D02*
X28309523Y-121407200D01*
X28309523Y-121407200D02*
X28404761Y-121454819D01*
X28404761Y-121454819D02*
X28547618Y-121454819D01*
X28547618Y-121454819D02*
X28642856Y-121407200D01*
X28642856Y-121407200D02*
X28690475Y-121359580D01*
X29166666Y-120788152D02*
X29166666Y-121454819D01*
X29166666Y-120883390D02*
X29214285Y-120835771D01*
X29214285Y-120835771D02*
X29309523Y-120788152D01*
X29309523Y-120788152D02*
X29452380Y-120788152D01*
X29452380Y-120788152D02*
X29547618Y-120835771D01*
X29547618Y-120835771D02*
X29595237Y-120931009D01*
X29595237Y-120931009D02*
X29595237Y-121454819D01*
X29928571Y-120788152D02*
X30309523Y-120788152D01*
X30071428Y-120454819D02*
X30071428Y-121311961D01*
X30071428Y-121311961D02*
X30119047Y-121407200D01*
X30119047Y-121407200D02*
X30214285Y-121454819D01*
X30214285Y-121454819D02*
X30309523Y-121454819D01*
X30642857Y-121454819D02*
X30642857Y-120788152D01*
X30642857Y-120454819D02*
X30595238Y-120502438D01*
X30595238Y-120502438D02*
X30642857Y-120550057D01*
X30642857Y-120550057D02*
X30690476Y-120502438D01*
X30690476Y-120502438D02*
X30642857Y-120454819D01*
X30642857Y-120454819D02*
X30642857Y-120550057D01*
X31119047Y-120788152D02*
X31119047Y-121454819D01*
X31119047Y-120883390D02*
X31166666Y-120835771D01*
X31166666Y-120835771D02*
X31261904Y-120788152D01*
X31261904Y-120788152D02*
X31404761Y-120788152D01*
X31404761Y-120788152D02*
X31499999Y-120835771D01*
X31499999Y-120835771D02*
X31547618Y-120931009D01*
X31547618Y-120931009D02*
X31547618Y-121454819D01*
X32452380Y-120788152D02*
X32452380Y-121597676D01*
X32452380Y-121597676D02*
X32404761Y-121692914D01*
X32404761Y-121692914D02*
X32357142Y-121740533D01*
X32357142Y-121740533D02*
X32261904Y-121788152D01*
X32261904Y-121788152D02*
X32119047Y-121788152D01*
X32119047Y-121788152D02*
X32023809Y-121740533D01*
X32452380Y-121407200D02*
X32357142Y-121454819D01*
X32357142Y-121454819D02*
X32166666Y-121454819D01*
X32166666Y-121454819D02*
X32071428Y-121407200D01*
X32071428Y-121407200D02*
X32023809Y-121359580D01*
X32023809Y-121359580D02*
X31976190Y-121264342D01*
X31976190Y-121264342D02*
X31976190Y-120978628D01*
X31976190Y-120978628D02*
X32023809Y-120883390D01*
X32023809Y-120883390D02*
X32071428Y-120835771D01*
X32071428Y-120835771D02*
X32166666Y-120788152D01*
X32166666Y-120788152D02*
X32357142Y-120788152D01*
X32357142Y-120788152D02*
X32452380Y-120835771D01*
X32928571Y-121454819D02*
X32928571Y-120454819D01*
X32928571Y-120931009D02*
X33499999Y-120931009D01*
X33499999Y-121454819D02*
X33499999Y-120454819D01*
X34119047Y-121454819D02*
X34023809Y-121407200D01*
X34023809Y-121407200D02*
X33976190Y-121359580D01*
X33976190Y-121359580D02*
X33928571Y-121264342D01*
X33928571Y-121264342D02*
X33928571Y-120978628D01*
X33928571Y-120978628D02*
X33976190Y-120883390D01*
X33976190Y-120883390D02*
X34023809Y-120835771D01*
X34023809Y-120835771D02*
X34119047Y-120788152D01*
X34119047Y-120788152D02*
X34261904Y-120788152D01*
X34261904Y-120788152D02*
X34357142Y-120835771D01*
X34357142Y-120835771D02*
X34404761Y-120883390D01*
X34404761Y-120883390D02*
X34452380Y-120978628D01*
X34452380Y-120978628D02*
X34452380Y-121264342D01*
X34452380Y-121264342D02*
X34404761Y-121359580D01*
X34404761Y-121359580D02*
X34357142Y-121407200D01*
X34357142Y-121407200D02*
X34261904Y-121454819D01*
X34261904Y-121454819D02*
X34119047Y-121454819D01*
X35023809Y-121454819D02*
X34928571Y-121407200D01*
X34928571Y-121407200D02*
X34880952Y-121311961D01*
X34880952Y-121311961D02*
X34880952Y-120454819D01*
X35785714Y-121407200D02*
X35690476Y-121454819D01*
X35690476Y-121454819D02*
X35500000Y-121454819D01*
X35500000Y-121454819D02*
X35404762Y-121407200D01*
X35404762Y-121407200D02*
X35357143Y-121311961D01*
X35357143Y-121311961D02*
X35357143Y-120931009D01*
X35357143Y-120931009D02*
X35404762Y-120835771D01*
X35404762Y-120835771D02*
X35500000Y-120788152D01*
X35500000Y-120788152D02*
X35690476Y-120788152D01*
X35690476Y-120788152D02*
X35785714Y-120835771D01*
X35785714Y-120835771D02*
X35833333Y-120931009D01*
X35833333Y-120931009D02*
X35833333Y-121026247D01*
X35833333Y-121026247D02*
X35357143Y-121121485D01*
X21238095Y-121454819D02*
X21238095Y-120454819D01*
X21238095Y-120931009D02*
X21809523Y-120931009D01*
X21809523Y-121454819D02*
X21809523Y-120454819D01*
X22190476Y-120454819D02*
X22809523Y-120454819D01*
X22809523Y-120454819D02*
X22476190Y-120835771D01*
X22476190Y-120835771D02*
X22619047Y-120835771D01*
X22619047Y-120835771D02*
X22714285Y-120883390D01*
X22714285Y-120883390D02*
X22761904Y-120931009D01*
X22761904Y-120931009D02*
X22809523Y-121026247D01*
X22809523Y-121026247D02*
X22809523Y-121264342D01*
X22809523Y-121264342D02*
X22761904Y-121359580D01*
X22761904Y-121359580D02*
X22714285Y-121407200D01*
X22714285Y-121407200D02*
X22619047Y-121454819D01*
X22619047Y-121454819D02*
X22333333Y-121454819D01*
X22333333Y-121454819D02*
X22238095Y-121407200D01*
X22238095Y-121407200D02*
X22190476Y-121359580D01*
X240214285Y-23454819D02*
X240214285Y-22454819D01*
X240214285Y-22454819D02*
X240547618Y-23169104D01*
X240547618Y-23169104D02*
X240880951Y-22454819D01*
X240880951Y-22454819D02*
X240880951Y-23454819D01*
X241499999Y-23454819D02*
X241404761Y-23407200D01*
X241404761Y-23407200D02*
X241357142Y-23359580D01*
X241357142Y-23359580D02*
X241309523Y-23264342D01*
X241309523Y-23264342D02*
X241309523Y-22978628D01*
X241309523Y-22978628D02*
X241357142Y-22883390D01*
X241357142Y-22883390D02*
X241404761Y-22835771D01*
X241404761Y-22835771D02*
X241499999Y-22788152D01*
X241499999Y-22788152D02*
X241642856Y-22788152D01*
X241642856Y-22788152D02*
X241738094Y-22835771D01*
X241738094Y-22835771D02*
X241785713Y-22883390D01*
X241785713Y-22883390D02*
X241833332Y-22978628D01*
X241833332Y-22978628D02*
X241833332Y-23264342D01*
X241833332Y-23264342D02*
X241785713Y-23359580D01*
X241785713Y-23359580D02*
X241738094Y-23407200D01*
X241738094Y-23407200D02*
X241642856Y-23454819D01*
X241642856Y-23454819D02*
X241499999Y-23454819D01*
X242690475Y-22788152D02*
X242690475Y-23454819D01*
X242261904Y-22788152D02*
X242261904Y-23311961D01*
X242261904Y-23311961D02*
X242309523Y-23407200D01*
X242309523Y-23407200D02*
X242404761Y-23454819D01*
X242404761Y-23454819D02*
X242547618Y-23454819D01*
X242547618Y-23454819D02*
X242642856Y-23407200D01*
X242642856Y-23407200D02*
X242690475Y-23359580D01*
X243166666Y-22788152D02*
X243166666Y-23454819D01*
X243166666Y-22883390D02*
X243214285Y-22835771D01*
X243214285Y-22835771D02*
X243309523Y-22788152D01*
X243309523Y-22788152D02*
X243452380Y-22788152D01*
X243452380Y-22788152D02*
X243547618Y-22835771D01*
X243547618Y-22835771D02*
X243595237Y-22931009D01*
X243595237Y-22931009D02*
X243595237Y-23454819D01*
X243928571Y-22788152D02*
X244309523Y-22788152D01*
X244071428Y-22454819D02*
X244071428Y-23311961D01*
X244071428Y-23311961D02*
X244119047Y-23407200D01*
X244119047Y-23407200D02*
X244214285Y-23454819D01*
X244214285Y-23454819D02*
X244309523Y-23454819D01*
X244642857Y-23454819D02*
X244642857Y-22788152D01*
X244642857Y-22454819D02*
X244595238Y-22502438D01*
X244595238Y-22502438D02*
X244642857Y-22550057D01*
X244642857Y-22550057D02*
X244690476Y-22502438D01*
X244690476Y-22502438D02*
X244642857Y-22454819D01*
X244642857Y-22454819D02*
X244642857Y-22550057D01*
X245119047Y-22788152D02*
X245119047Y-23454819D01*
X245119047Y-22883390D02*
X245166666Y-22835771D01*
X245166666Y-22835771D02*
X245261904Y-22788152D01*
X245261904Y-22788152D02*
X245404761Y-22788152D01*
X245404761Y-22788152D02*
X245499999Y-22835771D01*
X245499999Y-22835771D02*
X245547618Y-22931009D01*
X245547618Y-22931009D02*
X245547618Y-23454819D01*
X246452380Y-22788152D02*
X246452380Y-23597676D01*
X246452380Y-23597676D02*
X246404761Y-23692914D01*
X246404761Y-23692914D02*
X246357142Y-23740533D01*
X246357142Y-23740533D02*
X246261904Y-23788152D01*
X246261904Y-23788152D02*
X246119047Y-23788152D01*
X246119047Y-23788152D02*
X246023809Y-23740533D01*
X246452380Y-23407200D02*
X246357142Y-23454819D01*
X246357142Y-23454819D02*
X246166666Y-23454819D01*
X246166666Y-23454819D02*
X246071428Y-23407200D01*
X246071428Y-23407200D02*
X246023809Y-23359580D01*
X246023809Y-23359580D02*
X245976190Y-23264342D01*
X245976190Y-23264342D02*
X245976190Y-22978628D01*
X245976190Y-22978628D02*
X246023809Y-22883390D01*
X246023809Y-22883390D02*
X246071428Y-22835771D01*
X246071428Y-22835771D02*
X246166666Y-22788152D01*
X246166666Y-22788152D02*
X246357142Y-22788152D01*
X246357142Y-22788152D02*
X246452380Y-22835771D01*
X246928571Y-23454819D02*
X246928571Y-22454819D01*
X246928571Y-22931009D02*
X247499999Y-22931009D01*
X247499999Y-23454819D02*
X247499999Y-22454819D01*
X248119047Y-23454819D02*
X248023809Y-23407200D01*
X248023809Y-23407200D02*
X247976190Y-23359580D01*
X247976190Y-23359580D02*
X247928571Y-23264342D01*
X247928571Y-23264342D02*
X247928571Y-22978628D01*
X247928571Y-22978628D02*
X247976190Y-22883390D01*
X247976190Y-22883390D02*
X248023809Y-22835771D01*
X248023809Y-22835771D02*
X248119047Y-22788152D01*
X248119047Y-22788152D02*
X248261904Y-22788152D01*
X248261904Y-22788152D02*
X248357142Y-22835771D01*
X248357142Y-22835771D02*
X248404761Y-22883390D01*
X248404761Y-22883390D02*
X248452380Y-22978628D01*
X248452380Y-22978628D02*
X248452380Y-23264342D01*
X248452380Y-23264342D02*
X248404761Y-23359580D01*
X248404761Y-23359580D02*
X248357142Y-23407200D01*
X248357142Y-23407200D02*
X248261904Y-23454819D01*
X248261904Y-23454819D02*
X248119047Y-23454819D01*
X249023809Y-23454819D02*
X248928571Y-23407200D01*
X248928571Y-23407200D02*
X248880952Y-23311961D01*
X248880952Y-23311961D02*
X248880952Y-22454819D01*
X249785714Y-23407200D02*
X249690476Y-23454819D01*
X249690476Y-23454819D02*
X249500000Y-23454819D01*
X249500000Y-23454819D02*
X249404762Y-23407200D01*
X249404762Y-23407200D02*
X249357143Y-23311961D01*
X249357143Y-23311961D02*
X249357143Y-22931009D01*
X249357143Y-22931009D02*
X249404762Y-22835771D01*
X249404762Y-22835771D02*
X249500000Y-22788152D01*
X249500000Y-22788152D02*
X249690476Y-22788152D01*
X249690476Y-22788152D02*
X249785714Y-22835771D01*
X249785714Y-22835771D02*
X249833333Y-22931009D01*
X249833333Y-22931009D02*
X249833333Y-23026247D01*
X249833333Y-23026247D02*
X249357143Y-23121485D01*
X253238095Y-23454819D02*
X253238095Y-22454819D01*
X253238095Y-22931009D02*
X253809523Y-22931009D01*
X253809523Y-23454819D02*
X253809523Y-22454819D01*
X254238095Y-22550057D02*
X254285714Y-22502438D01*
X254285714Y-22502438D02*
X254380952Y-22454819D01*
X254380952Y-22454819D02*
X254619047Y-22454819D01*
X254619047Y-22454819D02*
X254714285Y-22502438D01*
X254714285Y-22502438D02*
X254761904Y-22550057D01*
X254761904Y-22550057D02*
X254809523Y-22645295D01*
X254809523Y-22645295D02*
X254809523Y-22740533D01*
X254809523Y-22740533D02*
X254761904Y-22883390D01*
X254761904Y-22883390D02*
X254190476Y-23454819D01*
X254190476Y-23454819D02*
X254809523Y-23454819D01*
X26214285Y-22454819D02*
X26214285Y-21454819D01*
X26214285Y-21454819D02*
X26547618Y-22169104D01*
X26547618Y-22169104D02*
X26880951Y-21454819D01*
X26880951Y-21454819D02*
X26880951Y-22454819D01*
X27499999Y-22454819D02*
X27404761Y-22407200D01*
X27404761Y-22407200D02*
X27357142Y-22359580D01*
X27357142Y-22359580D02*
X27309523Y-22264342D01*
X27309523Y-22264342D02*
X27309523Y-21978628D01*
X27309523Y-21978628D02*
X27357142Y-21883390D01*
X27357142Y-21883390D02*
X27404761Y-21835771D01*
X27404761Y-21835771D02*
X27499999Y-21788152D01*
X27499999Y-21788152D02*
X27642856Y-21788152D01*
X27642856Y-21788152D02*
X27738094Y-21835771D01*
X27738094Y-21835771D02*
X27785713Y-21883390D01*
X27785713Y-21883390D02*
X27833332Y-21978628D01*
X27833332Y-21978628D02*
X27833332Y-22264342D01*
X27833332Y-22264342D02*
X27785713Y-22359580D01*
X27785713Y-22359580D02*
X27738094Y-22407200D01*
X27738094Y-22407200D02*
X27642856Y-22454819D01*
X27642856Y-22454819D02*
X27499999Y-22454819D01*
X28690475Y-21788152D02*
X28690475Y-22454819D01*
X28261904Y-21788152D02*
X28261904Y-22311961D01*
X28261904Y-22311961D02*
X28309523Y-22407200D01*
X28309523Y-22407200D02*
X28404761Y-22454819D01*
X28404761Y-22454819D02*
X28547618Y-22454819D01*
X28547618Y-22454819D02*
X28642856Y-22407200D01*
X28642856Y-22407200D02*
X28690475Y-22359580D01*
X29166666Y-21788152D02*
X29166666Y-22454819D01*
X29166666Y-21883390D02*
X29214285Y-21835771D01*
X29214285Y-21835771D02*
X29309523Y-21788152D01*
X29309523Y-21788152D02*
X29452380Y-21788152D01*
X29452380Y-21788152D02*
X29547618Y-21835771D01*
X29547618Y-21835771D02*
X29595237Y-21931009D01*
X29595237Y-21931009D02*
X29595237Y-22454819D01*
X29928571Y-21788152D02*
X30309523Y-21788152D01*
X30071428Y-21454819D02*
X30071428Y-22311961D01*
X30071428Y-22311961D02*
X30119047Y-22407200D01*
X30119047Y-22407200D02*
X30214285Y-22454819D01*
X30214285Y-22454819D02*
X30309523Y-22454819D01*
X30642857Y-22454819D02*
X30642857Y-21788152D01*
X30642857Y-21454819D02*
X30595238Y-21502438D01*
X30595238Y-21502438D02*
X30642857Y-21550057D01*
X30642857Y-21550057D02*
X30690476Y-21502438D01*
X30690476Y-21502438D02*
X30642857Y-21454819D01*
X30642857Y-21454819D02*
X30642857Y-21550057D01*
X31119047Y-21788152D02*
X31119047Y-22454819D01*
X31119047Y-21883390D02*
X31166666Y-21835771D01*
X31166666Y-21835771D02*
X31261904Y-21788152D01*
X31261904Y-21788152D02*
X31404761Y-21788152D01*
X31404761Y-21788152D02*
X31499999Y-21835771D01*
X31499999Y-21835771D02*
X31547618Y-21931009D01*
X31547618Y-21931009D02*
X31547618Y-22454819D01*
X32452380Y-21788152D02*
X32452380Y-22597676D01*
X32452380Y-22597676D02*
X32404761Y-22692914D01*
X32404761Y-22692914D02*
X32357142Y-22740533D01*
X32357142Y-22740533D02*
X32261904Y-22788152D01*
X32261904Y-22788152D02*
X32119047Y-22788152D01*
X32119047Y-22788152D02*
X32023809Y-22740533D01*
X32452380Y-22407200D02*
X32357142Y-22454819D01*
X32357142Y-22454819D02*
X32166666Y-22454819D01*
X32166666Y-22454819D02*
X32071428Y-22407200D01*
X32071428Y-22407200D02*
X32023809Y-22359580D01*
X32023809Y-22359580D02*
X31976190Y-22264342D01*
X31976190Y-22264342D02*
X31976190Y-21978628D01*
X31976190Y-21978628D02*
X32023809Y-21883390D01*
X32023809Y-21883390D02*
X32071428Y-21835771D01*
X32071428Y-21835771D02*
X32166666Y-21788152D01*
X32166666Y-21788152D02*
X32357142Y-21788152D01*
X32357142Y-21788152D02*
X32452380Y-21835771D01*
X32928571Y-22454819D02*
X32928571Y-21454819D01*
X32928571Y-21931009D02*
X33499999Y-21931009D01*
X33499999Y-22454819D02*
X33499999Y-21454819D01*
X34119047Y-22454819D02*
X34023809Y-22407200D01*
X34023809Y-22407200D02*
X33976190Y-22359580D01*
X33976190Y-22359580D02*
X33928571Y-22264342D01*
X33928571Y-22264342D02*
X33928571Y-21978628D01*
X33928571Y-21978628D02*
X33976190Y-21883390D01*
X33976190Y-21883390D02*
X34023809Y-21835771D01*
X34023809Y-21835771D02*
X34119047Y-21788152D01*
X34119047Y-21788152D02*
X34261904Y-21788152D01*
X34261904Y-21788152D02*
X34357142Y-21835771D01*
X34357142Y-21835771D02*
X34404761Y-21883390D01*
X34404761Y-21883390D02*
X34452380Y-21978628D01*
X34452380Y-21978628D02*
X34452380Y-22264342D01*
X34452380Y-22264342D02*
X34404761Y-22359580D01*
X34404761Y-22359580D02*
X34357142Y-22407200D01*
X34357142Y-22407200D02*
X34261904Y-22454819D01*
X34261904Y-22454819D02*
X34119047Y-22454819D01*
X35023809Y-22454819D02*
X34928571Y-22407200D01*
X34928571Y-22407200D02*
X34880952Y-22311961D01*
X34880952Y-22311961D02*
X34880952Y-21454819D01*
X35785714Y-22407200D02*
X35690476Y-22454819D01*
X35690476Y-22454819D02*
X35500000Y-22454819D01*
X35500000Y-22454819D02*
X35404762Y-22407200D01*
X35404762Y-22407200D02*
X35357143Y-22311961D01*
X35357143Y-22311961D02*
X35357143Y-21931009D01*
X35357143Y-21931009D02*
X35404762Y-21835771D01*
X35404762Y-21835771D02*
X35500000Y-21788152D01*
X35500000Y-21788152D02*
X35690476Y-21788152D01*
X35690476Y-21788152D02*
X35785714Y-21835771D01*
X35785714Y-21835771D02*
X35833333Y-21931009D01*
X35833333Y-21931009D02*
X35833333Y-22026247D01*
X35833333Y-22026247D02*
X35357143Y-22121485D01*
X21238095Y-22454819D02*
X21238095Y-21454819D01*
X21238095Y-21931009D02*
X21809523Y-21931009D01*
X21809523Y-22454819D02*
X21809523Y-21454819D01*
X22809523Y-22454819D02*
X22238095Y-22454819D01*
X22523809Y-22454819D02*
X22523809Y-21454819D01*
X22523809Y-21454819D02*
X22428571Y-21597676D01*
X22428571Y-21597676D02*
X22333333Y-21692914D01*
X22333333Y-21692914D02*
X22238095Y-21740533D01*
X97815774Y-117960694D02*
X97815774Y-116960694D01*
X98387202Y-117960694D02*
X97958631Y-117389265D01*
X98387202Y-116960694D02*
X97815774Y-117532122D01*
X98815774Y-117436884D02*
X99149107Y-117436884D01*
X99291964Y-117960694D02*
X98815774Y-117960694D01*
X98815774Y-117960694D02*
X98815774Y-116960694D01*
X98815774Y-116960694D02*
X99291964Y-116960694D01*
X99911012Y-117484503D02*
X99911012Y-117960694D01*
X99577679Y-116960694D02*
X99911012Y-117484503D01*
X99911012Y-117484503D02*
X100244345Y-116960694D01*
X100530060Y-117913075D02*
X100672917Y-117960694D01*
X100672917Y-117960694D02*
X100911012Y-117960694D01*
X100911012Y-117960694D02*
X101006250Y-117913075D01*
X101006250Y-117913075D02*
X101053869Y-117865455D01*
X101053869Y-117865455D02*
X101101488Y-117770217D01*
X101101488Y-117770217D02*
X101101488Y-117674979D01*
X101101488Y-117674979D02*
X101053869Y-117579741D01*
X101053869Y-117579741D02*
X101006250Y-117532122D01*
X101006250Y-117532122D02*
X100911012Y-117484503D01*
X100911012Y-117484503D02*
X100720536Y-117436884D01*
X100720536Y-117436884D02*
X100625298Y-117389265D01*
X100625298Y-117389265D02*
X100577679Y-117341646D01*
X100577679Y-117341646D02*
X100530060Y-117246408D01*
X100530060Y-117246408D02*
X100530060Y-117151170D01*
X100530060Y-117151170D02*
X100577679Y-117055932D01*
X100577679Y-117055932D02*
X100625298Y-117008313D01*
X100625298Y-117008313D02*
X100720536Y-116960694D01*
X100720536Y-116960694D02*
X100958631Y-116960694D01*
X100958631Y-116960694D02*
X101101488Y-117008313D01*
X101434822Y-116960694D02*
X101672917Y-117960694D01*
X101672917Y-117960694D02*
X101863393Y-117246408D01*
X101863393Y-117246408D02*
X102053869Y-117960694D01*
X102053869Y-117960694D02*
X102291965Y-116960694D01*
X98196726Y-102165075D02*
X98339583Y-102212694D01*
X98339583Y-102212694D02*
X98577678Y-102212694D01*
X98577678Y-102212694D02*
X98672916Y-102165075D01*
X98672916Y-102165075D02*
X98720535Y-102117455D01*
X98720535Y-102117455D02*
X98768154Y-102022217D01*
X98768154Y-102022217D02*
X98768154Y-101926979D01*
X98768154Y-101926979D02*
X98720535Y-101831741D01*
X98720535Y-101831741D02*
X98672916Y-101784122D01*
X98672916Y-101784122D02*
X98577678Y-101736503D01*
X98577678Y-101736503D02*
X98387202Y-101688884D01*
X98387202Y-101688884D02*
X98291964Y-101641265D01*
X98291964Y-101641265D02*
X98244345Y-101593646D01*
X98244345Y-101593646D02*
X98196726Y-101498408D01*
X98196726Y-101498408D02*
X98196726Y-101403170D01*
X98196726Y-101403170D02*
X98244345Y-101307932D01*
X98244345Y-101307932D02*
X98291964Y-101260313D01*
X98291964Y-101260313D02*
X98387202Y-101212694D01*
X98387202Y-101212694D02*
X98625297Y-101212694D01*
X98625297Y-101212694D02*
X98768154Y-101260313D01*
X99101488Y-101212694D02*
X99339583Y-102212694D01*
X99339583Y-102212694D02*
X99530059Y-101498408D01*
X99530059Y-101498408D02*
X99720535Y-102212694D01*
X99720535Y-102212694D02*
X99958631Y-101212694D01*
X100863392Y-102212694D02*
X100291964Y-102212694D01*
X100577678Y-102212694D02*
X100577678Y-101212694D01*
X100577678Y-101212694D02*
X100482440Y-101355551D01*
X100482440Y-101355551D02*
X100387202Y-101450789D01*
X100387202Y-101450789D02*
X100291964Y-101498408D01*
X101339583Y-102212694D02*
X101530059Y-102212694D01*
X101530059Y-102212694D02*
X101625297Y-102165075D01*
X101625297Y-102165075D02*
X101672916Y-102117455D01*
X101672916Y-102117455D02*
X101768154Y-101974598D01*
X101768154Y-101974598D02*
X101815773Y-101784122D01*
X101815773Y-101784122D02*
X101815773Y-101403170D01*
X101815773Y-101403170D02*
X101768154Y-101307932D01*
X101768154Y-101307932D02*
X101720535Y-101260313D01*
X101720535Y-101260313D02*
X101625297Y-101212694D01*
X101625297Y-101212694D02*
X101434821Y-101212694D01*
X101434821Y-101212694D02*
X101339583Y-101260313D01*
X101339583Y-101260313D02*
X101291964Y-101307932D01*
X101291964Y-101307932D02*
X101244345Y-101403170D01*
X101244345Y-101403170D02*
X101244345Y-101641265D01*
X101244345Y-101641265D02*
X101291964Y-101736503D01*
X101291964Y-101736503D02*
X101339583Y-101784122D01*
X101339583Y-101784122D02*
X101434821Y-101831741D01*
X101434821Y-101831741D02*
X101625297Y-101831741D01*
X101625297Y-101831741D02*
X101720535Y-101784122D01*
X101720535Y-101784122D02*
X101768154Y-101736503D01*
X101768154Y-101736503D02*
X101815773Y-101641265D01*
X136004761Y-93974819D02*
X135671428Y-93498628D01*
X135433333Y-93974819D02*
X135433333Y-92974819D01*
X135433333Y-92974819D02*
X135814285Y-92974819D01*
X135814285Y-92974819D02*
X135909523Y-93022438D01*
X135909523Y-93022438D02*
X135957142Y-93070057D01*
X135957142Y-93070057D02*
X136004761Y-93165295D01*
X136004761Y-93165295D02*
X136004761Y-93308152D01*
X136004761Y-93308152D02*
X135957142Y-93403390D01*
X135957142Y-93403390D02*
X135909523Y-93451009D01*
X135909523Y-93451009D02*
X135814285Y-93498628D01*
X135814285Y-93498628D02*
X135433333Y-93498628D01*
X136433333Y-93974819D02*
X136433333Y-92974819D01*
X136433333Y-92974819D02*
X136814285Y-92974819D01*
X136814285Y-92974819D02*
X136909523Y-93022438D01*
X136909523Y-93022438D02*
X136957142Y-93070057D01*
X136957142Y-93070057D02*
X137004761Y-93165295D01*
X137004761Y-93165295D02*
X137004761Y-93308152D01*
X137004761Y-93308152D02*
X136957142Y-93403390D01*
X136957142Y-93403390D02*
X136909523Y-93451009D01*
X136909523Y-93451009D02*
X136814285Y-93498628D01*
X136814285Y-93498628D02*
X136433333Y-93498628D01*
X137385714Y-93070057D02*
X137433333Y-93022438D01*
X137433333Y-93022438D02*
X137528571Y-92974819D01*
X137528571Y-92974819D02*
X137766666Y-92974819D01*
X137766666Y-92974819D02*
X137861904Y-93022438D01*
X137861904Y-93022438D02*
X137909523Y-93070057D01*
X137909523Y-93070057D02*
X137957142Y-93165295D01*
X137957142Y-93165295D02*
X137957142Y-93260533D01*
X137957142Y-93260533D02*
X137909523Y-93403390D01*
X137909523Y-93403390D02*
X137338095Y-93974819D01*
X137338095Y-93974819D02*
X137957142Y-93974819D01*
X138576190Y-92974819D02*
X138671428Y-92974819D01*
X138671428Y-92974819D02*
X138766666Y-93022438D01*
X138766666Y-93022438D02*
X138814285Y-93070057D01*
X138814285Y-93070057D02*
X138861904Y-93165295D01*
X138861904Y-93165295D02*
X138909523Y-93355771D01*
X138909523Y-93355771D02*
X138909523Y-93593866D01*
X138909523Y-93593866D02*
X138861904Y-93784342D01*
X138861904Y-93784342D02*
X138814285Y-93879580D01*
X138814285Y-93879580D02*
X138766666Y-93927200D01*
X138766666Y-93927200D02*
X138671428Y-93974819D01*
X138671428Y-93974819D02*
X138576190Y-93974819D01*
X138576190Y-93974819D02*
X138480952Y-93927200D01*
X138480952Y-93927200D02*
X138433333Y-93879580D01*
X138433333Y-93879580D02*
X138385714Y-93784342D01*
X138385714Y-93784342D02*
X138338095Y-93593866D01*
X138338095Y-93593866D02*
X138338095Y-93355771D01*
X138338095Y-93355771D02*
X138385714Y-93165295D01*
X138385714Y-93165295D02*
X138433333Y-93070057D01*
X138433333Y-93070057D02*
X138480952Y-93022438D01*
X138480952Y-93022438D02*
X138576190Y-92974819D01*
X139766666Y-93308152D02*
X139766666Y-93974819D01*
X139528571Y-92927200D02*
X139290476Y-93641485D01*
X139290476Y-93641485D02*
X139909523Y-93641485D01*
X140480952Y-92974819D02*
X140576190Y-92974819D01*
X140576190Y-92974819D02*
X140671428Y-93022438D01*
X140671428Y-93022438D02*
X140719047Y-93070057D01*
X140719047Y-93070057D02*
X140766666Y-93165295D01*
X140766666Y-93165295D02*
X140814285Y-93355771D01*
X140814285Y-93355771D02*
X140814285Y-93593866D01*
X140814285Y-93593866D02*
X140766666Y-93784342D01*
X140766666Y-93784342D02*
X140719047Y-93879580D01*
X140719047Y-93879580D02*
X140671428Y-93927200D01*
X140671428Y-93927200D02*
X140576190Y-93974819D01*
X140576190Y-93974819D02*
X140480952Y-93974819D01*
X140480952Y-93974819D02*
X140385714Y-93927200D01*
X140385714Y-93927200D02*
X140338095Y-93879580D01*
X140338095Y-93879580D02*
X140290476Y-93784342D01*
X140290476Y-93784342D02*
X140242857Y-93593866D01*
X140242857Y-93593866D02*
X140242857Y-93355771D01*
X140242857Y-93355771D02*
X140290476Y-93165295D01*
X140290476Y-93165295D02*
X140338095Y-93070057D01*
X140338095Y-93070057D02*
X140385714Y-93022438D01*
X140385714Y-93022438D02*
X140480952Y-92974819D01*
X137338095Y-88154819D02*
X137338095Y-88964342D01*
X137338095Y-88964342D02*
X137385714Y-89059580D01*
X137385714Y-89059580D02*
X137433333Y-89107200D01*
X137433333Y-89107200D02*
X137528571Y-89154819D01*
X137528571Y-89154819D02*
X137719047Y-89154819D01*
X137719047Y-89154819D02*
X137814285Y-89107200D01*
X137814285Y-89107200D02*
X137861904Y-89059580D01*
X137861904Y-89059580D02*
X137909523Y-88964342D01*
X137909523Y-88964342D02*
X137909523Y-88154819D01*
X138290476Y-88154819D02*
X138909523Y-88154819D01*
X138909523Y-88154819D02*
X138576190Y-88535771D01*
X138576190Y-88535771D02*
X138719047Y-88535771D01*
X138719047Y-88535771D02*
X138814285Y-88583390D01*
X138814285Y-88583390D02*
X138861904Y-88631009D01*
X138861904Y-88631009D02*
X138909523Y-88726247D01*
X138909523Y-88726247D02*
X138909523Y-88964342D01*
X138909523Y-88964342D02*
X138861904Y-89059580D01*
X138861904Y-89059580D02*
X138814285Y-89107200D01*
X138814285Y-89107200D02*
X138719047Y-89154819D01*
X138719047Y-89154819D02*
X138433333Y-89154819D01*
X138433333Y-89154819D02*
X138338095Y-89107200D01*
X138338095Y-89107200D02*
X138290476Y-89059580D01*
X40665774Y-41760694D02*
X40665774Y-40760694D01*
X41237202Y-41760694D02*
X40808631Y-41189265D01*
X41237202Y-40760694D02*
X40665774Y-41332122D01*
X41665774Y-41236884D02*
X41999107Y-41236884D01*
X42141964Y-41760694D02*
X41665774Y-41760694D01*
X41665774Y-41760694D02*
X41665774Y-40760694D01*
X41665774Y-40760694D02*
X42141964Y-40760694D01*
X42761012Y-41284503D02*
X42761012Y-41760694D01*
X42427679Y-40760694D02*
X42761012Y-41284503D01*
X42761012Y-41284503D02*
X43094345Y-40760694D01*
X43380060Y-41713075D02*
X43522917Y-41760694D01*
X43522917Y-41760694D02*
X43761012Y-41760694D01*
X43761012Y-41760694D02*
X43856250Y-41713075D01*
X43856250Y-41713075D02*
X43903869Y-41665455D01*
X43903869Y-41665455D02*
X43951488Y-41570217D01*
X43951488Y-41570217D02*
X43951488Y-41474979D01*
X43951488Y-41474979D02*
X43903869Y-41379741D01*
X43903869Y-41379741D02*
X43856250Y-41332122D01*
X43856250Y-41332122D02*
X43761012Y-41284503D01*
X43761012Y-41284503D02*
X43570536Y-41236884D01*
X43570536Y-41236884D02*
X43475298Y-41189265D01*
X43475298Y-41189265D02*
X43427679Y-41141646D01*
X43427679Y-41141646D02*
X43380060Y-41046408D01*
X43380060Y-41046408D02*
X43380060Y-40951170D01*
X43380060Y-40951170D02*
X43427679Y-40855932D01*
X43427679Y-40855932D02*
X43475298Y-40808313D01*
X43475298Y-40808313D02*
X43570536Y-40760694D01*
X43570536Y-40760694D02*
X43808631Y-40760694D01*
X43808631Y-40760694D02*
X43951488Y-40808313D01*
X44284822Y-40760694D02*
X44522917Y-41760694D01*
X44522917Y-41760694D02*
X44713393Y-41046408D01*
X44713393Y-41046408D02*
X44903869Y-41760694D01*
X44903869Y-41760694D02*
X45141965Y-40760694D01*
X41522917Y-25965075D02*
X41665774Y-26012694D01*
X41665774Y-26012694D02*
X41903869Y-26012694D01*
X41903869Y-26012694D02*
X41999107Y-25965075D01*
X41999107Y-25965075D02*
X42046726Y-25917455D01*
X42046726Y-25917455D02*
X42094345Y-25822217D01*
X42094345Y-25822217D02*
X42094345Y-25726979D01*
X42094345Y-25726979D02*
X42046726Y-25631741D01*
X42046726Y-25631741D02*
X41999107Y-25584122D01*
X41999107Y-25584122D02*
X41903869Y-25536503D01*
X41903869Y-25536503D02*
X41713393Y-25488884D01*
X41713393Y-25488884D02*
X41618155Y-25441265D01*
X41618155Y-25441265D02*
X41570536Y-25393646D01*
X41570536Y-25393646D02*
X41522917Y-25298408D01*
X41522917Y-25298408D02*
X41522917Y-25203170D01*
X41522917Y-25203170D02*
X41570536Y-25107932D01*
X41570536Y-25107932D02*
X41618155Y-25060313D01*
X41618155Y-25060313D02*
X41713393Y-25012694D01*
X41713393Y-25012694D02*
X41951488Y-25012694D01*
X41951488Y-25012694D02*
X42094345Y-25060313D01*
X42427679Y-25012694D02*
X42665774Y-26012694D01*
X42665774Y-26012694D02*
X42856250Y-25298408D01*
X42856250Y-25298408D02*
X43046726Y-26012694D01*
X43046726Y-26012694D02*
X43284822Y-25012694D01*
X44189583Y-26012694D02*
X43618155Y-26012694D01*
X43903869Y-26012694D02*
X43903869Y-25012694D01*
X43903869Y-25012694D02*
X43808631Y-25155551D01*
X43808631Y-25155551D02*
X43713393Y-25250789D01*
X43713393Y-25250789D02*
X43618155Y-25298408D01*
X126390774Y-60810694D02*
X126390774Y-59810694D01*
X126962202Y-60810694D02*
X126533631Y-60239265D01*
X126962202Y-59810694D02*
X126390774Y-60382122D01*
X127390774Y-60286884D02*
X127724107Y-60286884D01*
X127866964Y-60810694D02*
X127390774Y-60810694D01*
X127390774Y-60810694D02*
X127390774Y-59810694D01*
X127390774Y-59810694D02*
X127866964Y-59810694D01*
X128486012Y-60334503D02*
X128486012Y-60810694D01*
X128152679Y-59810694D02*
X128486012Y-60334503D01*
X128486012Y-60334503D02*
X128819345Y-59810694D01*
X129105060Y-60763075D02*
X129247917Y-60810694D01*
X129247917Y-60810694D02*
X129486012Y-60810694D01*
X129486012Y-60810694D02*
X129581250Y-60763075D01*
X129581250Y-60763075D02*
X129628869Y-60715455D01*
X129628869Y-60715455D02*
X129676488Y-60620217D01*
X129676488Y-60620217D02*
X129676488Y-60524979D01*
X129676488Y-60524979D02*
X129628869Y-60429741D01*
X129628869Y-60429741D02*
X129581250Y-60382122D01*
X129581250Y-60382122D02*
X129486012Y-60334503D01*
X129486012Y-60334503D02*
X129295536Y-60286884D01*
X129295536Y-60286884D02*
X129200298Y-60239265D01*
X129200298Y-60239265D02*
X129152679Y-60191646D01*
X129152679Y-60191646D02*
X129105060Y-60096408D01*
X129105060Y-60096408D02*
X129105060Y-60001170D01*
X129105060Y-60001170D02*
X129152679Y-59905932D01*
X129152679Y-59905932D02*
X129200298Y-59858313D01*
X129200298Y-59858313D02*
X129295536Y-59810694D01*
X129295536Y-59810694D02*
X129533631Y-59810694D01*
X129533631Y-59810694D02*
X129676488Y-59858313D01*
X130009822Y-59810694D02*
X130247917Y-60810694D01*
X130247917Y-60810694D02*
X130438393Y-60096408D01*
X130438393Y-60096408D02*
X130628869Y-60810694D01*
X130628869Y-60810694D02*
X130866965Y-59810694D01*
X127247917Y-45015075D02*
X127390774Y-45062694D01*
X127390774Y-45062694D02*
X127628869Y-45062694D01*
X127628869Y-45062694D02*
X127724107Y-45015075D01*
X127724107Y-45015075D02*
X127771726Y-44967455D01*
X127771726Y-44967455D02*
X127819345Y-44872217D01*
X127819345Y-44872217D02*
X127819345Y-44776979D01*
X127819345Y-44776979D02*
X127771726Y-44681741D01*
X127771726Y-44681741D02*
X127724107Y-44634122D01*
X127724107Y-44634122D02*
X127628869Y-44586503D01*
X127628869Y-44586503D02*
X127438393Y-44538884D01*
X127438393Y-44538884D02*
X127343155Y-44491265D01*
X127343155Y-44491265D02*
X127295536Y-44443646D01*
X127295536Y-44443646D02*
X127247917Y-44348408D01*
X127247917Y-44348408D02*
X127247917Y-44253170D01*
X127247917Y-44253170D02*
X127295536Y-44157932D01*
X127295536Y-44157932D02*
X127343155Y-44110313D01*
X127343155Y-44110313D02*
X127438393Y-44062694D01*
X127438393Y-44062694D02*
X127676488Y-44062694D01*
X127676488Y-44062694D02*
X127819345Y-44110313D01*
X128152679Y-44062694D02*
X128390774Y-45062694D01*
X128390774Y-45062694D02*
X128581250Y-44348408D01*
X128581250Y-44348408D02*
X128771726Y-45062694D01*
X128771726Y-45062694D02*
X129009822Y-44062694D01*
X129533631Y-44491265D02*
X129438393Y-44443646D01*
X129438393Y-44443646D02*
X129390774Y-44396027D01*
X129390774Y-44396027D02*
X129343155Y-44300789D01*
X129343155Y-44300789D02*
X129343155Y-44253170D01*
X129343155Y-44253170D02*
X129390774Y-44157932D01*
X129390774Y-44157932D02*
X129438393Y-44110313D01*
X129438393Y-44110313D02*
X129533631Y-44062694D01*
X129533631Y-44062694D02*
X129724107Y-44062694D01*
X129724107Y-44062694D02*
X129819345Y-44110313D01*
X129819345Y-44110313D02*
X129866964Y-44157932D01*
X129866964Y-44157932D02*
X129914583Y-44253170D01*
X129914583Y-44253170D02*
X129914583Y-44300789D01*
X129914583Y-44300789D02*
X129866964Y-44396027D01*
X129866964Y-44396027D02*
X129819345Y-44443646D01*
X129819345Y-44443646D02*
X129724107Y-44491265D01*
X129724107Y-44491265D02*
X129533631Y-44491265D01*
X129533631Y-44491265D02*
X129438393Y-44538884D01*
X129438393Y-44538884D02*
X129390774Y-44586503D01*
X129390774Y-44586503D02*
X129343155Y-44681741D01*
X129343155Y-44681741D02*
X129343155Y-44872217D01*
X129343155Y-44872217D02*
X129390774Y-44967455D01*
X129390774Y-44967455D02*
X129438393Y-45015075D01*
X129438393Y-45015075D02*
X129533631Y-45062694D01*
X129533631Y-45062694D02*
X129724107Y-45062694D01*
X129724107Y-45062694D02*
X129819345Y-45015075D01*
X129819345Y-45015075D02*
X129866964Y-44967455D01*
X129866964Y-44967455D02*
X129914583Y-44872217D01*
X129914583Y-44872217D02*
X129914583Y-44681741D01*
X129914583Y-44681741D02*
X129866964Y-44586503D01*
X129866964Y-44586503D02*
X129819345Y-44538884D01*
X129819345Y-44538884D02*
X129724107Y-44491265D01*
X126390774Y-79860694D02*
X126390774Y-78860694D01*
X126962202Y-79860694D02*
X126533631Y-79289265D01*
X126962202Y-78860694D02*
X126390774Y-79432122D01*
X127390774Y-79336884D02*
X127724107Y-79336884D01*
X127866964Y-79860694D02*
X127390774Y-79860694D01*
X127390774Y-79860694D02*
X127390774Y-78860694D01*
X127390774Y-78860694D02*
X127866964Y-78860694D01*
X128486012Y-79384503D02*
X128486012Y-79860694D01*
X128152679Y-78860694D02*
X128486012Y-79384503D01*
X128486012Y-79384503D02*
X128819345Y-78860694D01*
X129105060Y-79813075D02*
X129247917Y-79860694D01*
X129247917Y-79860694D02*
X129486012Y-79860694D01*
X129486012Y-79860694D02*
X129581250Y-79813075D01*
X129581250Y-79813075D02*
X129628869Y-79765455D01*
X129628869Y-79765455D02*
X129676488Y-79670217D01*
X129676488Y-79670217D02*
X129676488Y-79574979D01*
X129676488Y-79574979D02*
X129628869Y-79479741D01*
X129628869Y-79479741D02*
X129581250Y-79432122D01*
X129581250Y-79432122D02*
X129486012Y-79384503D01*
X129486012Y-79384503D02*
X129295536Y-79336884D01*
X129295536Y-79336884D02*
X129200298Y-79289265D01*
X129200298Y-79289265D02*
X129152679Y-79241646D01*
X129152679Y-79241646D02*
X129105060Y-79146408D01*
X129105060Y-79146408D02*
X129105060Y-79051170D01*
X129105060Y-79051170D02*
X129152679Y-78955932D01*
X129152679Y-78955932D02*
X129200298Y-78908313D01*
X129200298Y-78908313D02*
X129295536Y-78860694D01*
X129295536Y-78860694D02*
X129533631Y-78860694D01*
X129533631Y-78860694D02*
X129676488Y-78908313D01*
X130009822Y-78860694D02*
X130247917Y-79860694D01*
X130247917Y-79860694D02*
X130438393Y-79146408D01*
X130438393Y-79146408D02*
X130628869Y-79860694D01*
X130628869Y-79860694D02*
X130866965Y-78860694D01*
X126771726Y-64065075D02*
X126914583Y-64112694D01*
X126914583Y-64112694D02*
X127152678Y-64112694D01*
X127152678Y-64112694D02*
X127247916Y-64065075D01*
X127247916Y-64065075D02*
X127295535Y-64017455D01*
X127295535Y-64017455D02*
X127343154Y-63922217D01*
X127343154Y-63922217D02*
X127343154Y-63826979D01*
X127343154Y-63826979D02*
X127295535Y-63731741D01*
X127295535Y-63731741D02*
X127247916Y-63684122D01*
X127247916Y-63684122D02*
X127152678Y-63636503D01*
X127152678Y-63636503D02*
X126962202Y-63588884D01*
X126962202Y-63588884D02*
X126866964Y-63541265D01*
X126866964Y-63541265D02*
X126819345Y-63493646D01*
X126819345Y-63493646D02*
X126771726Y-63398408D01*
X126771726Y-63398408D02*
X126771726Y-63303170D01*
X126771726Y-63303170D02*
X126819345Y-63207932D01*
X126819345Y-63207932D02*
X126866964Y-63160313D01*
X126866964Y-63160313D02*
X126962202Y-63112694D01*
X126962202Y-63112694D02*
X127200297Y-63112694D01*
X127200297Y-63112694D02*
X127343154Y-63160313D01*
X127676488Y-63112694D02*
X127914583Y-64112694D01*
X127914583Y-64112694D02*
X128105059Y-63398408D01*
X128105059Y-63398408D02*
X128295535Y-64112694D01*
X128295535Y-64112694D02*
X128533631Y-63112694D01*
X129438392Y-64112694D02*
X128866964Y-64112694D01*
X129152678Y-64112694D02*
X129152678Y-63112694D01*
X129152678Y-63112694D02*
X129057440Y-63255551D01*
X129057440Y-63255551D02*
X128962202Y-63350789D01*
X128962202Y-63350789D02*
X128866964Y-63398408D01*
X130295535Y-63446027D02*
X130295535Y-64112694D01*
X130057440Y-63065075D02*
X129819345Y-63779360D01*
X129819345Y-63779360D02*
X130438392Y-63779360D01*
X145084819Y-33942857D02*
X145084819Y-34514285D01*
X145084819Y-34228571D02*
X144084819Y-34228571D01*
X144084819Y-34228571D02*
X144227676Y-34323809D01*
X144227676Y-34323809D02*
X144322914Y-34419047D01*
X144322914Y-34419047D02*
X144370533Y-34514285D01*
X144084819Y-33323809D02*
X144084819Y-33228571D01*
X144084819Y-33228571D02*
X144132438Y-33133333D01*
X144132438Y-33133333D02*
X144180057Y-33085714D01*
X144180057Y-33085714D02*
X144275295Y-33038095D01*
X144275295Y-33038095D02*
X144465771Y-32990476D01*
X144465771Y-32990476D02*
X144703866Y-32990476D01*
X144703866Y-32990476D02*
X144894342Y-33038095D01*
X144894342Y-33038095D02*
X144989580Y-33085714D01*
X144989580Y-33085714D02*
X145037200Y-33133333D01*
X145037200Y-33133333D02*
X145084819Y-33228571D01*
X145084819Y-33228571D02*
X145084819Y-33323809D01*
X145084819Y-33323809D02*
X145037200Y-33419047D01*
X145037200Y-33419047D02*
X144989580Y-33466666D01*
X144989580Y-33466666D02*
X144894342Y-33514285D01*
X144894342Y-33514285D02*
X144703866Y-33561904D01*
X144703866Y-33561904D02*
X144465771Y-33561904D01*
X144465771Y-33561904D02*
X144275295Y-33514285D01*
X144275295Y-33514285D02*
X144180057Y-33466666D01*
X144180057Y-33466666D02*
X144132438Y-33419047D01*
X144132438Y-33419047D02*
X144084819Y-33323809D01*
X144418152Y-32133333D02*
X145084819Y-32133333D01*
X144418152Y-32561904D02*
X144941961Y-32561904D01*
X144941961Y-32561904D02*
X145037200Y-32514285D01*
X145037200Y-32514285D02*
X145084819Y-32419047D01*
X145084819Y-32419047D02*
X145084819Y-32276190D01*
X145084819Y-32276190D02*
X145037200Y-32180952D01*
X145037200Y-32180952D02*
X144989580Y-32133333D01*
D11*
X144809530Y-36593333D02*
X144833340Y-36617142D01*
X144833340Y-36617142D02*
X144857149Y-36688571D01*
X144857149Y-36688571D02*
X144857149Y-36736190D01*
X144857149Y-36736190D02*
X144833340Y-36807618D01*
X144833340Y-36807618D02*
X144785720Y-36855237D01*
X144785720Y-36855237D02*
X144738101Y-36879047D01*
X144738101Y-36879047D02*
X144642863Y-36902856D01*
X144642863Y-36902856D02*
X144571435Y-36902856D01*
X144571435Y-36902856D02*
X144476197Y-36879047D01*
X144476197Y-36879047D02*
X144428578Y-36855237D01*
X144428578Y-36855237D02*
X144380959Y-36807618D01*
X144380959Y-36807618D02*
X144357149Y-36736190D01*
X144357149Y-36736190D02*
X144357149Y-36688571D01*
X144357149Y-36688571D02*
X144380959Y-36617142D01*
X144380959Y-36617142D02*
X144404768Y-36593333D01*
X144404768Y-36402856D02*
X144380959Y-36379047D01*
X144380959Y-36379047D02*
X144357149Y-36331428D01*
X144357149Y-36331428D02*
X144357149Y-36212380D01*
X144357149Y-36212380D02*
X144380959Y-36164761D01*
X144380959Y-36164761D02*
X144404768Y-36140952D01*
X144404768Y-36140952D02*
X144452387Y-36117142D01*
X144452387Y-36117142D02*
X144500006Y-36117142D01*
X144500006Y-36117142D02*
X144571435Y-36140952D01*
X144571435Y-36140952D02*
X144857149Y-36426666D01*
X144857149Y-36426666D02*
X144857149Y-36117142D01*
D10*
X202590774Y-79860694D02*
X202590774Y-78860694D01*
X203162202Y-79860694D02*
X202733631Y-79289265D01*
X203162202Y-78860694D02*
X202590774Y-79432122D01*
X203590774Y-79336884D02*
X203924107Y-79336884D01*
X204066964Y-79860694D02*
X203590774Y-79860694D01*
X203590774Y-79860694D02*
X203590774Y-78860694D01*
X203590774Y-78860694D02*
X204066964Y-78860694D01*
X204686012Y-79384503D02*
X204686012Y-79860694D01*
X204352679Y-78860694D02*
X204686012Y-79384503D01*
X204686012Y-79384503D02*
X205019345Y-78860694D01*
X205305060Y-79813075D02*
X205447917Y-79860694D01*
X205447917Y-79860694D02*
X205686012Y-79860694D01*
X205686012Y-79860694D02*
X205781250Y-79813075D01*
X205781250Y-79813075D02*
X205828869Y-79765455D01*
X205828869Y-79765455D02*
X205876488Y-79670217D01*
X205876488Y-79670217D02*
X205876488Y-79574979D01*
X205876488Y-79574979D02*
X205828869Y-79479741D01*
X205828869Y-79479741D02*
X205781250Y-79432122D01*
X205781250Y-79432122D02*
X205686012Y-79384503D01*
X205686012Y-79384503D02*
X205495536Y-79336884D01*
X205495536Y-79336884D02*
X205400298Y-79289265D01*
X205400298Y-79289265D02*
X205352679Y-79241646D01*
X205352679Y-79241646D02*
X205305060Y-79146408D01*
X205305060Y-79146408D02*
X205305060Y-79051170D01*
X205305060Y-79051170D02*
X205352679Y-78955932D01*
X205352679Y-78955932D02*
X205400298Y-78908313D01*
X205400298Y-78908313D02*
X205495536Y-78860694D01*
X205495536Y-78860694D02*
X205733631Y-78860694D01*
X205733631Y-78860694D02*
X205876488Y-78908313D01*
X206209822Y-78860694D02*
X206447917Y-79860694D01*
X206447917Y-79860694D02*
X206638393Y-79146408D01*
X206638393Y-79146408D02*
X206828869Y-79860694D01*
X206828869Y-79860694D02*
X207066965Y-78860694D01*
X202971726Y-64065075D02*
X203114583Y-64112694D01*
X203114583Y-64112694D02*
X203352678Y-64112694D01*
X203352678Y-64112694D02*
X203447916Y-64065075D01*
X203447916Y-64065075D02*
X203495535Y-64017455D01*
X203495535Y-64017455D02*
X203543154Y-63922217D01*
X203543154Y-63922217D02*
X203543154Y-63826979D01*
X203543154Y-63826979D02*
X203495535Y-63731741D01*
X203495535Y-63731741D02*
X203447916Y-63684122D01*
X203447916Y-63684122D02*
X203352678Y-63636503D01*
X203352678Y-63636503D02*
X203162202Y-63588884D01*
X203162202Y-63588884D02*
X203066964Y-63541265D01*
X203066964Y-63541265D02*
X203019345Y-63493646D01*
X203019345Y-63493646D02*
X202971726Y-63398408D01*
X202971726Y-63398408D02*
X202971726Y-63303170D01*
X202971726Y-63303170D02*
X203019345Y-63207932D01*
X203019345Y-63207932D02*
X203066964Y-63160313D01*
X203066964Y-63160313D02*
X203162202Y-63112694D01*
X203162202Y-63112694D02*
X203400297Y-63112694D01*
X203400297Y-63112694D02*
X203543154Y-63160313D01*
X203876488Y-63112694D02*
X204114583Y-64112694D01*
X204114583Y-64112694D02*
X204305059Y-63398408D01*
X204305059Y-63398408D02*
X204495535Y-64112694D01*
X204495535Y-64112694D02*
X204733631Y-63112694D01*
X205638392Y-64112694D02*
X205066964Y-64112694D01*
X205352678Y-64112694D02*
X205352678Y-63112694D01*
X205352678Y-63112694D02*
X205257440Y-63255551D01*
X205257440Y-63255551D02*
X205162202Y-63350789D01*
X205162202Y-63350789D02*
X205066964Y-63398408D01*
X206495535Y-63112694D02*
X206305059Y-63112694D01*
X206305059Y-63112694D02*
X206209821Y-63160313D01*
X206209821Y-63160313D02*
X206162202Y-63207932D01*
X206162202Y-63207932D02*
X206066964Y-63350789D01*
X206066964Y-63350789D02*
X206019345Y-63541265D01*
X206019345Y-63541265D02*
X206019345Y-63922217D01*
X206019345Y-63922217D02*
X206066964Y-64017455D01*
X206066964Y-64017455D02*
X206114583Y-64065075D01*
X206114583Y-64065075D02*
X206209821Y-64112694D01*
X206209821Y-64112694D02*
X206400297Y-64112694D01*
X206400297Y-64112694D02*
X206495535Y-64065075D01*
X206495535Y-64065075D02*
X206543154Y-64017455D01*
X206543154Y-64017455D02*
X206590773Y-63922217D01*
X206590773Y-63922217D02*
X206590773Y-63684122D01*
X206590773Y-63684122D02*
X206543154Y-63588884D01*
X206543154Y-63588884D02*
X206495535Y-63541265D01*
X206495535Y-63541265D02*
X206400297Y-63493646D01*
X206400297Y-63493646D02*
X206209821Y-63493646D01*
X206209821Y-63493646D02*
X206114583Y-63541265D01*
X206114583Y-63541265D02*
X206066964Y-63588884D01*
X206066964Y-63588884D02*
X206019345Y-63684122D01*
X240690774Y-98910694D02*
X240690774Y-97910694D01*
X241262202Y-98910694D02*
X240833631Y-98339265D01*
X241262202Y-97910694D02*
X240690774Y-98482122D01*
X241690774Y-98386884D02*
X242024107Y-98386884D01*
X242166964Y-98910694D02*
X241690774Y-98910694D01*
X241690774Y-98910694D02*
X241690774Y-97910694D01*
X241690774Y-97910694D02*
X242166964Y-97910694D01*
X242786012Y-98434503D02*
X242786012Y-98910694D01*
X242452679Y-97910694D02*
X242786012Y-98434503D01*
X242786012Y-98434503D02*
X243119345Y-97910694D01*
X243405060Y-98863075D02*
X243547917Y-98910694D01*
X243547917Y-98910694D02*
X243786012Y-98910694D01*
X243786012Y-98910694D02*
X243881250Y-98863075D01*
X243881250Y-98863075D02*
X243928869Y-98815455D01*
X243928869Y-98815455D02*
X243976488Y-98720217D01*
X243976488Y-98720217D02*
X243976488Y-98624979D01*
X243976488Y-98624979D02*
X243928869Y-98529741D01*
X243928869Y-98529741D02*
X243881250Y-98482122D01*
X243881250Y-98482122D02*
X243786012Y-98434503D01*
X243786012Y-98434503D02*
X243595536Y-98386884D01*
X243595536Y-98386884D02*
X243500298Y-98339265D01*
X243500298Y-98339265D02*
X243452679Y-98291646D01*
X243452679Y-98291646D02*
X243405060Y-98196408D01*
X243405060Y-98196408D02*
X243405060Y-98101170D01*
X243405060Y-98101170D02*
X243452679Y-98005932D01*
X243452679Y-98005932D02*
X243500298Y-97958313D01*
X243500298Y-97958313D02*
X243595536Y-97910694D01*
X243595536Y-97910694D02*
X243833631Y-97910694D01*
X243833631Y-97910694D02*
X243976488Y-97958313D01*
X244309822Y-97910694D02*
X244547917Y-98910694D01*
X244547917Y-98910694D02*
X244738393Y-98196408D01*
X244738393Y-98196408D02*
X244928869Y-98910694D01*
X244928869Y-98910694D02*
X245166965Y-97910694D01*
X241071726Y-83115075D02*
X241214583Y-83162694D01*
X241214583Y-83162694D02*
X241452678Y-83162694D01*
X241452678Y-83162694D02*
X241547916Y-83115075D01*
X241547916Y-83115075D02*
X241595535Y-83067455D01*
X241595535Y-83067455D02*
X241643154Y-82972217D01*
X241643154Y-82972217D02*
X241643154Y-82876979D01*
X241643154Y-82876979D02*
X241595535Y-82781741D01*
X241595535Y-82781741D02*
X241547916Y-82734122D01*
X241547916Y-82734122D02*
X241452678Y-82686503D01*
X241452678Y-82686503D02*
X241262202Y-82638884D01*
X241262202Y-82638884D02*
X241166964Y-82591265D01*
X241166964Y-82591265D02*
X241119345Y-82543646D01*
X241119345Y-82543646D02*
X241071726Y-82448408D01*
X241071726Y-82448408D02*
X241071726Y-82353170D01*
X241071726Y-82353170D02*
X241119345Y-82257932D01*
X241119345Y-82257932D02*
X241166964Y-82210313D01*
X241166964Y-82210313D02*
X241262202Y-82162694D01*
X241262202Y-82162694D02*
X241500297Y-82162694D01*
X241500297Y-82162694D02*
X241643154Y-82210313D01*
X241976488Y-82162694D02*
X242214583Y-83162694D01*
X242214583Y-83162694D02*
X242405059Y-82448408D01*
X242405059Y-82448408D02*
X242595535Y-83162694D01*
X242595535Y-83162694D02*
X242833631Y-82162694D01*
X243738392Y-83162694D02*
X243166964Y-83162694D01*
X243452678Y-83162694D02*
X243452678Y-82162694D01*
X243452678Y-82162694D02*
X243357440Y-82305551D01*
X243357440Y-82305551D02*
X243262202Y-82400789D01*
X243262202Y-82400789D02*
X243166964Y-82448408D01*
X244309821Y-82591265D02*
X244214583Y-82543646D01*
X244214583Y-82543646D02*
X244166964Y-82496027D01*
X244166964Y-82496027D02*
X244119345Y-82400789D01*
X244119345Y-82400789D02*
X244119345Y-82353170D01*
X244119345Y-82353170D02*
X244166964Y-82257932D01*
X244166964Y-82257932D02*
X244214583Y-82210313D01*
X244214583Y-82210313D02*
X244309821Y-82162694D01*
X244309821Y-82162694D02*
X244500297Y-82162694D01*
X244500297Y-82162694D02*
X244595535Y-82210313D01*
X244595535Y-82210313D02*
X244643154Y-82257932D01*
X244643154Y-82257932D02*
X244690773Y-82353170D01*
X244690773Y-82353170D02*
X244690773Y-82400789D01*
X244690773Y-82400789D02*
X244643154Y-82496027D01*
X244643154Y-82496027D02*
X244595535Y-82543646D01*
X244595535Y-82543646D02*
X244500297Y-82591265D01*
X244500297Y-82591265D02*
X244309821Y-82591265D01*
X244309821Y-82591265D02*
X244214583Y-82638884D01*
X244214583Y-82638884D02*
X244166964Y-82686503D01*
X244166964Y-82686503D02*
X244119345Y-82781741D01*
X244119345Y-82781741D02*
X244119345Y-82972217D01*
X244119345Y-82972217D02*
X244166964Y-83067455D01*
X244166964Y-83067455D02*
X244214583Y-83115075D01*
X244214583Y-83115075D02*
X244309821Y-83162694D01*
X244309821Y-83162694D02*
X244500297Y-83162694D01*
X244500297Y-83162694D02*
X244595535Y-83115075D01*
X244595535Y-83115075D02*
X244643154Y-83067455D01*
X244643154Y-83067455D02*
X244690773Y-82972217D01*
X244690773Y-82972217D02*
X244690773Y-82781741D01*
X244690773Y-82781741D02*
X244643154Y-82686503D01*
X244643154Y-82686503D02*
X244595535Y-82638884D01*
X244595535Y-82638884D02*
X244500297Y-82591265D01*
X88290774Y-60810694D02*
X88290774Y-59810694D01*
X88862202Y-60810694D02*
X88433631Y-60239265D01*
X88862202Y-59810694D02*
X88290774Y-60382122D01*
X89290774Y-60286884D02*
X89624107Y-60286884D01*
X89766964Y-60810694D02*
X89290774Y-60810694D01*
X89290774Y-60810694D02*
X89290774Y-59810694D01*
X89290774Y-59810694D02*
X89766964Y-59810694D01*
X90386012Y-60334503D02*
X90386012Y-60810694D01*
X90052679Y-59810694D02*
X90386012Y-60334503D01*
X90386012Y-60334503D02*
X90719345Y-59810694D01*
X91005060Y-60763075D02*
X91147917Y-60810694D01*
X91147917Y-60810694D02*
X91386012Y-60810694D01*
X91386012Y-60810694D02*
X91481250Y-60763075D01*
X91481250Y-60763075D02*
X91528869Y-60715455D01*
X91528869Y-60715455D02*
X91576488Y-60620217D01*
X91576488Y-60620217D02*
X91576488Y-60524979D01*
X91576488Y-60524979D02*
X91528869Y-60429741D01*
X91528869Y-60429741D02*
X91481250Y-60382122D01*
X91481250Y-60382122D02*
X91386012Y-60334503D01*
X91386012Y-60334503D02*
X91195536Y-60286884D01*
X91195536Y-60286884D02*
X91100298Y-60239265D01*
X91100298Y-60239265D02*
X91052679Y-60191646D01*
X91052679Y-60191646D02*
X91005060Y-60096408D01*
X91005060Y-60096408D02*
X91005060Y-60001170D01*
X91005060Y-60001170D02*
X91052679Y-59905932D01*
X91052679Y-59905932D02*
X91100298Y-59858313D01*
X91100298Y-59858313D02*
X91195536Y-59810694D01*
X91195536Y-59810694D02*
X91433631Y-59810694D01*
X91433631Y-59810694D02*
X91576488Y-59858313D01*
X91909822Y-59810694D02*
X92147917Y-60810694D01*
X92147917Y-60810694D02*
X92338393Y-60096408D01*
X92338393Y-60096408D02*
X92528869Y-60810694D01*
X92528869Y-60810694D02*
X92766965Y-59810694D01*
X89147917Y-45015075D02*
X89290774Y-45062694D01*
X89290774Y-45062694D02*
X89528869Y-45062694D01*
X89528869Y-45062694D02*
X89624107Y-45015075D01*
X89624107Y-45015075D02*
X89671726Y-44967455D01*
X89671726Y-44967455D02*
X89719345Y-44872217D01*
X89719345Y-44872217D02*
X89719345Y-44776979D01*
X89719345Y-44776979D02*
X89671726Y-44681741D01*
X89671726Y-44681741D02*
X89624107Y-44634122D01*
X89624107Y-44634122D02*
X89528869Y-44586503D01*
X89528869Y-44586503D02*
X89338393Y-44538884D01*
X89338393Y-44538884D02*
X89243155Y-44491265D01*
X89243155Y-44491265D02*
X89195536Y-44443646D01*
X89195536Y-44443646D02*
X89147917Y-44348408D01*
X89147917Y-44348408D02*
X89147917Y-44253170D01*
X89147917Y-44253170D02*
X89195536Y-44157932D01*
X89195536Y-44157932D02*
X89243155Y-44110313D01*
X89243155Y-44110313D02*
X89338393Y-44062694D01*
X89338393Y-44062694D02*
X89576488Y-44062694D01*
X89576488Y-44062694D02*
X89719345Y-44110313D01*
X90052679Y-44062694D02*
X90290774Y-45062694D01*
X90290774Y-45062694D02*
X90481250Y-44348408D01*
X90481250Y-44348408D02*
X90671726Y-45062694D01*
X90671726Y-45062694D02*
X90909822Y-44062694D01*
X91195536Y-44062694D02*
X91862202Y-44062694D01*
X91862202Y-44062694D02*
X91433631Y-45062694D01*
X143870952Y-112654819D02*
X143299524Y-112654819D01*
X143585238Y-112654819D02*
X143585238Y-111654819D01*
X143585238Y-111654819D02*
X143490000Y-111797676D01*
X143490000Y-111797676D02*
X143394762Y-111892914D01*
X143394762Y-111892914D02*
X143299524Y-111940533D01*
X144490000Y-111654819D02*
X144585238Y-111654819D01*
X144585238Y-111654819D02*
X144680476Y-111702438D01*
X144680476Y-111702438D02*
X144728095Y-111750057D01*
X144728095Y-111750057D02*
X144775714Y-111845295D01*
X144775714Y-111845295D02*
X144823333Y-112035771D01*
X144823333Y-112035771D02*
X144823333Y-112273866D01*
X144823333Y-112273866D02*
X144775714Y-112464342D01*
X144775714Y-112464342D02*
X144728095Y-112559580D01*
X144728095Y-112559580D02*
X144680476Y-112607200D01*
X144680476Y-112607200D02*
X144585238Y-112654819D01*
X144585238Y-112654819D02*
X144490000Y-112654819D01*
X144490000Y-112654819D02*
X144394762Y-112607200D01*
X144394762Y-112607200D02*
X144347143Y-112559580D01*
X144347143Y-112559580D02*
X144299524Y-112464342D01*
X144299524Y-112464342D02*
X144251905Y-112273866D01*
X144251905Y-112273866D02*
X144251905Y-112035771D01*
X144251905Y-112035771D02*
X144299524Y-111845295D01*
X144299524Y-111845295D02*
X144347143Y-111750057D01*
X144347143Y-111750057D02*
X144394762Y-111702438D01*
X144394762Y-111702438D02*
X144490000Y-111654819D01*
X145442381Y-111654819D02*
X145537619Y-111654819D01*
X145537619Y-111654819D02*
X145632857Y-111702438D01*
X145632857Y-111702438D02*
X145680476Y-111750057D01*
X145680476Y-111750057D02*
X145728095Y-111845295D01*
X145728095Y-111845295D02*
X145775714Y-112035771D01*
X145775714Y-112035771D02*
X145775714Y-112273866D01*
X145775714Y-112273866D02*
X145728095Y-112464342D01*
X145728095Y-112464342D02*
X145680476Y-112559580D01*
X145680476Y-112559580D02*
X145632857Y-112607200D01*
X145632857Y-112607200D02*
X145537619Y-112654819D01*
X145537619Y-112654819D02*
X145442381Y-112654819D01*
X145442381Y-112654819D02*
X145347143Y-112607200D01*
X145347143Y-112607200D02*
X145299524Y-112559580D01*
X145299524Y-112559580D02*
X145251905Y-112464342D01*
X145251905Y-112464342D02*
X145204286Y-112273866D01*
X145204286Y-112273866D02*
X145204286Y-112035771D01*
X145204286Y-112035771D02*
X145251905Y-111845295D01*
X145251905Y-111845295D02*
X145299524Y-111750057D01*
X145299524Y-111750057D02*
X145347143Y-111702438D01*
X145347143Y-111702438D02*
X145442381Y-111654819D01*
X146204286Y-111988152D02*
X146204286Y-112654819D01*
X146204286Y-112083390D02*
X146251905Y-112035771D01*
X146251905Y-112035771D02*
X146347143Y-111988152D01*
X146347143Y-111988152D02*
X146490000Y-111988152D01*
X146490000Y-111988152D02*
X146585238Y-112035771D01*
X146585238Y-112035771D02*
X146632857Y-112131009D01*
X146632857Y-112131009D02*
X146632857Y-112654819D01*
D11*
X144906666Y-110699530D02*
X144882857Y-110723340D01*
X144882857Y-110723340D02*
X144811428Y-110747149D01*
X144811428Y-110747149D02*
X144763809Y-110747149D01*
X144763809Y-110747149D02*
X144692381Y-110723340D01*
X144692381Y-110723340D02*
X144644762Y-110675720D01*
X144644762Y-110675720D02*
X144620952Y-110628101D01*
X144620952Y-110628101D02*
X144597143Y-110532863D01*
X144597143Y-110532863D02*
X144597143Y-110461435D01*
X144597143Y-110461435D02*
X144620952Y-110366197D01*
X144620952Y-110366197D02*
X144644762Y-110318578D01*
X144644762Y-110318578D02*
X144692381Y-110270959D01*
X144692381Y-110270959D02*
X144763809Y-110247149D01*
X144763809Y-110247149D02*
X144811428Y-110247149D01*
X144811428Y-110247149D02*
X144882857Y-110270959D01*
X144882857Y-110270959D02*
X144906666Y-110294768D01*
X145335238Y-110413816D02*
X145335238Y-110747149D01*
X145216190Y-110223340D02*
X145097143Y-110580482D01*
X145097143Y-110580482D02*
X145406666Y-110580482D01*
D10*
X202590774Y-41760694D02*
X202590774Y-40760694D01*
X203162202Y-41760694D02*
X202733631Y-41189265D01*
X203162202Y-40760694D02*
X202590774Y-41332122D01*
X203590774Y-41236884D02*
X203924107Y-41236884D01*
X204066964Y-41760694D02*
X203590774Y-41760694D01*
X203590774Y-41760694D02*
X203590774Y-40760694D01*
X203590774Y-40760694D02*
X204066964Y-40760694D01*
X204686012Y-41284503D02*
X204686012Y-41760694D01*
X204352679Y-40760694D02*
X204686012Y-41284503D01*
X204686012Y-41284503D02*
X205019345Y-40760694D01*
X205305060Y-41713075D02*
X205447917Y-41760694D01*
X205447917Y-41760694D02*
X205686012Y-41760694D01*
X205686012Y-41760694D02*
X205781250Y-41713075D01*
X205781250Y-41713075D02*
X205828869Y-41665455D01*
X205828869Y-41665455D02*
X205876488Y-41570217D01*
X205876488Y-41570217D02*
X205876488Y-41474979D01*
X205876488Y-41474979D02*
X205828869Y-41379741D01*
X205828869Y-41379741D02*
X205781250Y-41332122D01*
X205781250Y-41332122D02*
X205686012Y-41284503D01*
X205686012Y-41284503D02*
X205495536Y-41236884D01*
X205495536Y-41236884D02*
X205400298Y-41189265D01*
X205400298Y-41189265D02*
X205352679Y-41141646D01*
X205352679Y-41141646D02*
X205305060Y-41046408D01*
X205305060Y-41046408D02*
X205305060Y-40951170D01*
X205305060Y-40951170D02*
X205352679Y-40855932D01*
X205352679Y-40855932D02*
X205400298Y-40808313D01*
X205400298Y-40808313D02*
X205495536Y-40760694D01*
X205495536Y-40760694D02*
X205733631Y-40760694D01*
X205733631Y-40760694D02*
X205876488Y-40808313D01*
X206209822Y-40760694D02*
X206447917Y-41760694D01*
X206447917Y-41760694D02*
X206638393Y-41046408D01*
X206638393Y-41046408D02*
X206828869Y-41760694D01*
X206828869Y-41760694D02*
X207066965Y-40760694D01*
X203447917Y-25965075D02*
X203590774Y-26012694D01*
X203590774Y-26012694D02*
X203828869Y-26012694D01*
X203828869Y-26012694D02*
X203924107Y-25965075D01*
X203924107Y-25965075D02*
X203971726Y-25917455D01*
X203971726Y-25917455D02*
X204019345Y-25822217D01*
X204019345Y-25822217D02*
X204019345Y-25726979D01*
X204019345Y-25726979D02*
X203971726Y-25631741D01*
X203971726Y-25631741D02*
X203924107Y-25584122D01*
X203924107Y-25584122D02*
X203828869Y-25536503D01*
X203828869Y-25536503D02*
X203638393Y-25488884D01*
X203638393Y-25488884D02*
X203543155Y-25441265D01*
X203543155Y-25441265D02*
X203495536Y-25393646D01*
X203495536Y-25393646D02*
X203447917Y-25298408D01*
X203447917Y-25298408D02*
X203447917Y-25203170D01*
X203447917Y-25203170D02*
X203495536Y-25107932D01*
X203495536Y-25107932D02*
X203543155Y-25060313D01*
X203543155Y-25060313D02*
X203638393Y-25012694D01*
X203638393Y-25012694D02*
X203876488Y-25012694D01*
X203876488Y-25012694D02*
X204019345Y-25060313D01*
X204352679Y-25012694D02*
X204590774Y-26012694D01*
X204590774Y-26012694D02*
X204781250Y-25298408D01*
X204781250Y-25298408D02*
X204971726Y-26012694D01*
X204971726Y-26012694D02*
X205209822Y-25012694D01*
X205495536Y-25012694D02*
X206114583Y-25012694D01*
X206114583Y-25012694D02*
X205781250Y-25393646D01*
X205781250Y-25393646D02*
X205924107Y-25393646D01*
X205924107Y-25393646D02*
X206019345Y-25441265D01*
X206019345Y-25441265D02*
X206066964Y-25488884D01*
X206066964Y-25488884D02*
X206114583Y-25584122D01*
X206114583Y-25584122D02*
X206114583Y-25822217D01*
X206114583Y-25822217D02*
X206066964Y-25917455D01*
X206066964Y-25917455D02*
X206019345Y-25965075D01*
X206019345Y-25965075D02*
X205924107Y-26012694D01*
X205924107Y-26012694D02*
X205638393Y-26012694D01*
X205638393Y-26012694D02*
X205543155Y-25965075D01*
X205543155Y-25965075D02*
X205495536Y-25917455D01*
X133000000Y-30919104D02*
X133476190Y-30919104D01*
X132904762Y-31204819D02*
X133238095Y-30204819D01*
X133238095Y-30204819D02*
X133571428Y-31204819D01*
X133904762Y-31204819D02*
X133904762Y-30204819D01*
X133904762Y-30204819D02*
X134238095Y-30919104D01*
X134238095Y-30919104D02*
X134571428Y-30204819D01*
X134571428Y-30204819D02*
X134571428Y-31204819D01*
X135000000Y-31157200D02*
X135142857Y-31204819D01*
X135142857Y-31204819D02*
X135380952Y-31204819D01*
X135380952Y-31204819D02*
X135476190Y-31157200D01*
X135476190Y-31157200D02*
X135523809Y-31109580D01*
X135523809Y-31109580D02*
X135571428Y-31014342D01*
X135571428Y-31014342D02*
X135571428Y-30919104D01*
X135571428Y-30919104D02*
X135523809Y-30823866D01*
X135523809Y-30823866D02*
X135476190Y-30776247D01*
X135476190Y-30776247D02*
X135380952Y-30728628D01*
X135380952Y-30728628D02*
X135190476Y-30681009D01*
X135190476Y-30681009D02*
X135095238Y-30633390D01*
X135095238Y-30633390D02*
X135047619Y-30585771D01*
X135047619Y-30585771D02*
X135000000Y-30490533D01*
X135000000Y-30490533D02*
X135000000Y-30395295D01*
X135000000Y-30395295D02*
X135047619Y-30300057D01*
X135047619Y-30300057D02*
X135095238Y-30252438D01*
X135095238Y-30252438D02*
X135190476Y-30204819D01*
X135190476Y-30204819D02*
X135428571Y-30204819D01*
X135428571Y-30204819D02*
X135571428Y-30252438D01*
X136523809Y-31204819D02*
X135952381Y-31204819D01*
X136238095Y-31204819D02*
X136238095Y-30204819D01*
X136238095Y-30204819D02*
X136142857Y-30347676D01*
X136142857Y-30347676D02*
X136047619Y-30442914D01*
X136047619Y-30442914D02*
X135952381Y-30490533D01*
X137476190Y-31204819D02*
X136904762Y-31204819D01*
X137190476Y-31204819D02*
X137190476Y-30204819D01*
X137190476Y-30204819D02*
X137095238Y-30347676D01*
X137095238Y-30347676D02*
X137000000Y-30442914D01*
X137000000Y-30442914D02*
X136904762Y-30490533D01*
X138428571Y-31204819D02*
X137857143Y-31204819D01*
X138142857Y-31204819D02*
X138142857Y-30204819D01*
X138142857Y-30204819D02*
X138047619Y-30347676D01*
X138047619Y-30347676D02*
X137952381Y-30442914D01*
X137952381Y-30442914D02*
X137857143Y-30490533D01*
X138761905Y-30204819D02*
X139428571Y-30204819D01*
X139428571Y-30204819D02*
X139000000Y-31204819D01*
X139809524Y-30823866D02*
X140571429Y-30823866D01*
X140952381Y-30204819D02*
X141571428Y-30204819D01*
X141571428Y-30204819D02*
X141238095Y-30585771D01*
X141238095Y-30585771D02*
X141380952Y-30585771D01*
X141380952Y-30585771D02*
X141476190Y-30633390D01*
X141476190Y-30633390D02*
X141523809Y-30681009D01*
X141523809Y-30681009D02*
X141571428Y-30776247D01*
X141571428Y-30776247D02*
X141571428Y-31014342D01*
X141571428Y-31014342D02*
X141523809Y-31109580D01*
X141523809Y-31109580D02*
X141476190Y-31157200D01*
X141476190Y-31157200D02*
X141380952Y-31204819D01*
X141380952Y-31204819D02*
X141095238Y-31204819D01*
X141095238Y-31204819D02*
X141000000Y-31157200D01*
X141000000Y-31157200D02*
X140952381Y-31109580D01*
X142000000Y-31109580D02*
X142047619Y-31157200D01*
X142047619Y-31157200D02*
X142000000Y-31204819D01*
X142000000Y-31204819D02*
X141952381Y-31157200D01*
X141952381Y-31157200D02*
X142000000Y-31109580D01*
X142000000Y-31109580D02*
X142000000Y-31204819D01*
X142380952Y-30204819D02*
X142999999Y-30204819D01*
X142999999Y-30204819D02*
X142666666Y-30585771D01*
X142666666Y-30585771D02*
X142809523Y-30585771D01*
X142809523Y-30585771D02*
X142904761Y-30633390D01*
X142904761Y-30633390D02*
X142952380Y-30681009D01*
X142952380Y-30681009D02*
X142999999Y-30776247D01*
X142999999Y-30776247D02*
X142999999Y-31014342D01*
X142999999Y-31014342D02*
X142952380Y-31109580D01*
X142952380Y-31109580D02*
X142904761Y-31157200D01*
X142904761Y-31157200D02*
X142809523Y-31204819D01*
X142809523Y-31204819D02*
X142523809Y-31204819D01*
X142523809Y-31204819D02*
X142428571Y-31157200D01*
X142428571Y-31157200D02*
X142380952Y-31109580D01*
D12*
X137563855Y-35859523D02*
X138211474Y-35859523D01*
X138211474Y-35859523D02*
X138287664Y-35821428D01*
X138287664Y-35821428D02*
X138325760Y-35783333D01*
X138325760Y-35783333D02*
X138363855Y-35707142D01*
X138363855Y-35707142D02*
X138363855Y-35554761D01*
X138363855Y-35554761D02*
X138325760Y-35478571D01*
X138325760Y-35478571D02*
X138287664Y-35440476D01*
X138287664Y-35440476D02*
X138211474Y-35402380D01*
X138211474Y-35402380D02*
X137563855Y-35402380D01*
X138363855Y-34602381D02*
X138363855Y-35059524D01*
X138363855Y-34830952D02*
X137563855Y-34830952D01*
X137563855Y-34830952D02*
X137678140Y-34907143D01*
X137678140Y-34907143D02*
X137754331Y-34983333D01*
X137754331Y-34983333D02*
X137792426Y-35059524D01*
D10*
X31140774Y-98910694D02*
X31140774Y-97910694D01*
X31712202Y-98910694D02*
X31283631Y-98339265D01*
X31712202Y-97910694D02*
X31140774Y-98482122D01*
X32140774Y-98386884D02*
X32474107Y-98386884D01*
X32616964Y-98910694D02*
X32140774Y-98910694D01*
X32140774Y-98910694D02*
X32140774Y-97910694D01*
X32140774Y-97910694D02*
X32616964Y-97910694D01*
X33236012Y-98434503D02*
X33236012Y-98910694D01*
X32902679Y-97910694D02*
X33236012Y-98434503D01*
X33236012Y-98434503D02*
X33569345Y-97910694D01*
X33855060Y-98863075D02*
X33997917Y-98910694D01*
X33997917Y-98910694D02*
X34236012Y-98910694D01*
X34236012Y-98910694D02*
X34331250Y-98863075D01*
X34331250Y-98863075D02*
X34378869Y-98815455D01*
X34378869Y-98815455D02*
X34426488Y-98720217D01*
X34426488Y-98720217D02*
X34426488Y-98624979D01*
X34426488Y-98624979D02*
X34378869Y-98529741D01*
X34378869Y-98529741D02*
X34331250Y-98482122D01*
X34331250Y-98482122D02*
X34236012Y-98434503D01*
X34236012Y-98434503D02*
X34045536Y-98386884D01*
X34045536Y-98386884D02*
X33950298Y-98339265D01*
X33950298Y-98339265D02*
X33902679Y-98291646D01*
X33902679Y-98291646D02*
X33855060Y-98196408D01*
X33855060Y-98196408D02*
X33855060Y-98101170D01*
X33855060Y-98101170D02*
X33902679Y-98005932D01*
X33902679Y-98005932D02*
X33950298Y-97958313D01*
X33950298Y-97958313D02*
X34045536Y-97910694D01*
X34045536Y-97910694D02*
X34283631Y-97910694D01*
X34283631Y-97910694D02*
X34426488Y-97958313D01*
X34759822Y-97910694D02*
X34997917Y-98910694D01*
X34997917Y-98910694D02*
X35188393Y-98196408D01*
X35188393Y-98196408D02*
X35378869Y-98910694D01*
X35378869Y-98910694D02*
X35616965Y-97910694D01*
X31521726Y-83115075D02*
X31664583Y-83162694D01*
X31664583Y-83162694D02*
X31902678Y-83162694D01*
X31902678Y-83162694D02*
X31997916Y-83115075D01*
X31997916Y-83115075D02*
X32045535Y-83067455D01*
X32045535Y-83067455D02*
X32093154Y-82972217D01*
X32093154Y-82972217D02*
X32093154Y-82876979D01*
X32093154Y-82876979D02*
X32045535Y-82781741D01*
X32045535Y-82781741D02*
X31997916Y-82734122D01*
X31997916Y-82734122D02*
X31902678Y-82686503D01*
X31902678Y-82686503D02*
X31712202Y-82638884D01*
X31712202Y-82638884D02*
X31616964Y-82591265D01*
X31616964Y-82591265D02*
X31569345Y-82543646D01*
X31569345Y-82543646D02*
X31521726Y-82448408D01*
X31521726Y-82448408D02*
X31521726Y-82353170D01*
X31521726Y-82353170D02*
X31569345Y-82257932D01*
X31569345Y-82257932D02*
X31616964Y-82210313D01*
X31616964Y-82210313D02*
X31712202Y-82162694D01*
X31712202Y-82162694D02*
X31950297Y-82162694D01*
X31950297Y-82162694D02*
X32093154Y-82210313D01*
X32426488Y-82162694D02*
X32664583Y-83162694D01*
X32664583Y-83162694D02*
X32855059Y-82448408D01*
X32855059Y-82448408D02*
X33045535Y-83162694D01*
X33045535Y-83162694D02*
X33283631Y-82162694D01*
X34188392Y-83162694D02*
X33616964Y-83162694D01*
X33902678Y-83162694D02*
X33902678Y-82162694D01*
X33902678Y-82162694D02*
X33807440Y-82305551D01*
X33807440Y-82305551D02*
X33712202Y-82400789D01*
X33712202Y-82400789D02*
X33616964Y-82448408D01*
X34521726Y-82162694D02*
X35188392Y-82162694D01*
X35188392Y-82162694D02*
X34759821Y-83162694D01*
X69240774Y-79860694D02*
X69240774Y-78860694D01*
X69812202Y-79860694D02*
X69383631Y-79289265D01*
X69812202Y-78860694D02*
X69240774Y-79432122D01*
X70240774Y-79336884D02*
X70574107Y-79336884D01*
X70716964Y-79860694D02*
X70240774Y-79860694D01*
X70240774Y-79860694D02*
X70240774Y-78860694D01*
X70240774Y-78860694D02*
X70716964Y-78860694D01*
X71336012Y-79384503D02*
X71336012Y-79860694D01*
X71002679Y-78860694D02*
X71336012Y-79384503D01*
X71336012Y-79384503D02*
X71669345Y-78860694D01*
X71955060Y-79813075D02*
X72097917Y-79860694D01*
X72097917Y-79860694D02*
X72336012Y-79860694D01*
X72336012Y-79860694D02*
X72431250Y-79813075D01*
X72431250Y-79813075D02*
X72478869Y-79765455D01*
X72478869Y-79765455D02*
X72526488Y-79670217D01*
X72526488Y-79670217D02*
X72526488Y-79574979D01*
X72526488Y-79574979D02*
X72478869Y-79479741D01*
X72478869Y-79479741D02*
X72431250Y-79432122D01*
X72431250Y-79432122D02*
X72336012Y-79384503D01*
X72336012Y-79384503D02*
X72145536Y-79336884D01*
X72145536Y-79336884D02*
X72050298Y-79289265D01*
X72050298Y-79289265D02*
X72002679Y-79241646D01*
X72002679Y-79241646D02*
X71955060Y-79146408D01*
X71955060Y-79146408D02*
X71955060Y-79051170D01*
X71955060Y-79051170D02*
X72002679Y-78955932D01*
X72002679Y-78955932D02*
X72050298Y-78908313D01*
X72050298Y-78908313D02*
X72145536Y-78860694D01*
X72145536Y-78860694D02*
X72383631Y-78860694D01*
X72383631Y-78860694D02*
X72526488Y-78908313D01*
X72859822Y-78860694D02*
X73097917Y-79860694D01*
X73097917Y-79860694D02*
X73288393Y-79146408D01*
X73288393Y-79146408D02*
X73478869Y-79860694D01*
X73478869Y-79860694D02*
X73716965Y-78860694D01*
X69621726Y-64065075D02*
X69764583Y-64112694D01*
X69764583Y-64112694D02*
X70002678Y-64112694D01*
X70002678Y-64112694D02*
X70097916Y-64065075D01*
X70097916Y-64065075D02*
X70145535Y-64017455D01*
X70145535Y-64017455D02*
X70193154Y-63922217D01*
X70193154Y-63922217D02*
X70193154Y-63826979D01*
X70193154Y-63826979D02*
X70145535Y-63731741D01*
X70145535Y-63731741D02*
X70097916Y-63684122D01*
X70097916Y-63684122D02*
X70002678Y-63636503D01*
X70002678Y-63636503D02*
X69812202Y-63588884D01*
X69812202Y-63588884D02*
X69716964Y-63541265D01*
X69716964Y-63541265D02*
X69669345Y-63493646D01*
X69669345Y-63493646D02*
X69621726Y-63398408D01*
X69621726Y-63398408D02*
X69621726Y-63303170D01*
X69621726Y-63303170D02*
X69669345Y-63207932D01*
X69669345Y-63207932D02*
X69716964Y-63160313D01*
X69716964Y-63160313D02*
X69812202Y-63112694D01*
X69812202Y-63112694D02*
X70050297Y-63112694D01*
X70050297Y-63112694D02*
X70193154Y-63160313D01*
X70526488Y-63112694D02*
X70764583Y-64112694D01*
X70764583Y-64112694D02*
X70955059Y-63398408D01*
X70955059Y-63398408D02*
X71145535Y-64112694D01*
X71145535Y-64112694D02*
X71383631Y-63112694D01*
X72288392Y-64112694D02*
X71716964Y-64112694D01*
X72002678Y-64112694D02*
X72002678Y-63112694D01*
X72002678Y-63112694D02*
X71907440Y-63255551D01*
X71907440Y-63255551D02*
X71812202Y-63350789D01*
X71812202Y-63350789D02*
X71716964Y-63398408D01*
X72621726Y-63112694D02*
X73240773Y-63112694D01*
X73240773Y-63112694D02*
X72907440Y-63493646D01*
X72907440Y-63493646D02*
X73050297Y-63493646D01*
X73050297Y-63493646D02*
X73145535Y-63541265D01*
X73145535Y-63541265D02*
X73193154Y-63588884D01*
X73193154Y-63588884D02*
X73240773Y-63684122D01*
X73240773Y-63684122D02*
X73240773Y-63922217D01*
X73240773Y-63922217D02*
X73193154Y-64017455D01*
X73193154Y-64017455D02*
X73145535Y-64065075D01*
X73145535Y-64065075D02*
X73050297Y-64112694D01*
X73050297Y-64112694D02*
X72764583Y-64112694D01*
X72764583Y-64112694D02*
X72669345Y-64065075D01*
X72669345Y-64065075D02*
X72621726Y-64017455D01*
X183540774Y-60810694D02*
X183540774Y-59810694D01*
X184112202Y-60810694D02*
X183683631Y-60239265D01*
X184112202Y-59810694D02*
X183540774Y-60382122D01*
X184540774Y-60286884D02*
X184874107Y-60286884D01*
X185016964Y-60810694D02*
X184540774Y-60810694D01*
X184540774Y-60810694D02*
X184540774Y-59810694D01*
X184540774Y-59810694D02*
X185016964Y-59810694D01*
X185636012Y-60334503D02*
X185636012Y-60810694D01*
X185302679Y-59810694D02*
X185636012Y-60334503D01*
X185636012Y-60334503D02*
X185969345Y-59810694D01*
X186255060Y-60763075D02*
X186397917Y-60810694D01*
X186397917Y-60810694D02*
X186636012Y-60810694D01*
X186636012Y-60810694D02*
X186731250Y-60763075D01*
X186731250Y-60763075D02*
X186778869Y-60715455D01*
X186778869Y-60715455D02*
X186826488Y-60620217D01*
X186826488Y-60620217D02*
X186826488Y-60524979D01*
X186826488Y-60524979D02*
X186778869Y-60429741D01*
X186778869Y-60429741D02*
X186731250Y-60382122D01*
X186731250Y-60382122D02*
X186636012Y-60334503D01*
X186636012Y-60334503D02*
X186445536Y-60286884D01*
X186445536Y-60286884D02*
X186350298Y-60239265D01*
X186350298Y-60239265D02*
X186302679Y-60191646D01*
X186302679Y-60191646D02*
X186255060Y-60096408D01*
X186255060Y-60096408D02*
X186255060Y-60001170D01*
X186255060Y-60001170D02*
X186302679Y-59905932D01*
X186302679Y-59905932D02*
X186350298Y-59858313D01*
X186350298Y-59858313D02*
X186445536Y-59810694D01*
X186445536Y-59810694D02*
X186683631Y-59810694D01*
X186683631Y-59810694D02*
X186826488Y-59858313D01*
X187159822Y-59810694D02*
X187397917Y-60810694D01*
X187397917Y-60810694D02*
X187588393Y-60096408D01*
X187588393Y-60096408D02*
X187778869Y-60810694D01*
X187778869Y-60810694D02*
X188016965Y-59810694D01*
X183921726Y-45015075D02*
X184064583Y-45062694D01*
X184064583Y-45062694D02*
X184302678Y-45062694D01*
X184302678Y-45062694D02*
X184397916Y-45015075D01*
X184397916Y-45015075D02*
X184445535Y-44967455D01*
X184445535Y-44967455D02*
X184493154Y-44872217D01*
X184493154Y-44872217D02*
X184493154Y-44776979D01*
X184493154Y-44776979D02*
X184445535Y-44681741D01*
X184445535Y-44681741D02*
X184397916Y-44634122D01*
X184397916Y-44634122D02*
X184302678Y-44586503D01*
X184302678Y-44586503D02*
X184112202Y-44538884D01*
X184112202Y-44538884D02*
X184016964Y-44491265D01*
X184016964Y-44491265D02*
X183969345Y-44443646D01*
X183969345Y-44443646D02*
X183921726Y-44348408D01*
X183921726Y-44348408D02*
X183921726Y-44253170D01*
X183921726Y-44253170D02*
X183969345Y-44157932D01*
X183969345Y-44157932D02*
X184016964Y-44110313D01*
X184016964Y-44110313D02*
X184112202Y-44062694D01*
X184112202Y-44062694D02*
X184350297Y-44062694D01*
X184350297Y-44062694D02*
X184493154Y-44110313D01*
X184826488Y-44062694D02*
X185064583Y-45062694D01*
X185064583Y-45062694D02*
X185255059Y-44348408D01*
X185255059Y-44348408D02*
X185445535Y-45062694D01*
X185445535Y-45062694D02*
X185683631Y-44062694D01*
X186588392Y-45062694D02*
X186016964Y-45062694D01*
X186302678Y-45062694D02*
X186302678Y-44062694D01*
X186302678Y-44062694D02*
X186207440Y-44205551D01*
X186207440Y-44205551D02*
X186112202Y-44300789D01*
X186112202Y-44300789D02*
X186016964Y-44348408D01*
X187207440Y-44062694D02*
X187302678Y-44062694D01*
X187302678Y-44062694D02*
X187397916Y-44110313D01*
X187397916Y-44110313D02*
X187445535Y-44157932D01*
X187445535Y-44157932D02*
X187493154Y-44253170D01*
X187493154Y-44253170D02*
X187540773Y-44443646D01*
X187540773Y-44443646D02*
X187540773Y-44681741D01*
X187540773Y-44681741D02*
X187493154Y-44872217D01*
X187493154Y-44872217D02*
X187445535Y-44967455D01*
X187445535Y-44967455D02*
X187397916Y-45015075D01*
X187397916Y-45015075D02*
X187302678Y-45062694D01*
X187302678Y-45062694D02*
X187207440Y-45062694D01*
X187207440Y-45062694D02*
X187112202Y-45015075D01*
X187112202Y-45015075D02*
X187064583Y-44967455D01*
X187064583Y-44967455D02*
X187016964Y-44872217D01*
X187016964Y-44872217D02*
X186969345Y-44681741D01*
X186969345Y-44681741D02*
X186969345Y-44443646D01*
X186969345Y-44443646D02*
X187016964Y-44253170D01*
X187016964Y-44253170D02*
X187064583Y-44157932D01*
X187064583Y-44157932D02*
X187112202Y-44110313D01*
X187112202Y-44110313D02*
X187207440Y-44062694D01*
X145440774Y-60810694D02*
X145440774Y-59810694D01*
X146012202Y-60810694D02*
X145583631Y-60239265D01*
X146012202Y-59810694D02*
X145440774Y-60382122D01*
X146440774Y-60286884D02*
X146774107Y-60286884D01*
X146916964Y-60810694D02*
X146440774Y-60810694D01*
X146440774Y-60810694D02*
X146440774Y-59810694D01*
X146440774Y-59810694D02*
X146916964Y-59810694D01*
X147536012Y-60334503D02*
X147536012Y-60810694D01*
X147202679Y-59810694D02*
X147536012Y-60334503D01*
X147536012Y-60334503D02*
X147869345Y-59810694D01*
X148155060Y-60763075D02*
X148297917Y-60810694D01*
X148297917Y-60810694D02*
X148536012Y-60810694D01*
X148536012Y-60810694D02*
X148631250Y-60763075D01*
X148631250Y-60763075D02*
X148678869Y-60715455D01*
X148678869Y-60715455D02*
X148726488Y-60620217D01*
X148726488Y-60620217D02*
X148726488Y-60524979D01*
X148726488Y-60524979D02*
X148678869Y-60429741D01*
X148678869Y-60429741D02*
X148631250Y-60382122D01*
X148631250Y-60382122D02*
X148536012Y-60334503D01*
X148536012Y-60334503D02*
X148345536Y-60286884D01*
X148345536Y-60286884D02*
X148250298Y-60239265D01*
X148250298Y-60239265D02*
X148202679Y-60191646D01*
X148202679Y-60191646D02*
X148155060Y-60096408D01*
X148155060Y-60096408D02*
X148155060Y-60001170D01*
X148155060Y-60001170D02*
X148202679Y-59905932D01*
X148202679Y-59905932D02*
X148250298Y-59858313D01*
X148250298Y-59858313D02*
X148345536Y-59810694D01*
X148345536Y-59810694D02*
X148583631Y-59810694D01*
X148583631Y-59810694D02*
X148726488Y-59858313D01*
X149059822Y-59810694D02*
X149297917Y-60810694D01*
X149297917Y-60810694D02*
X149488393Y-60096408D01*
X149488393Y-60096408D02*
X149678869Y-60810694D01*
X149678869Y-60810694D02*
X149916965Y-59810694D01*
X146297917Y-45015075D02*
X146440774Y-45062694D01*
X146440774Y-45062694D02*
X146678869Y-45062694D01*
X146678869Y-45062694D02*
X146774107Y-45015075D01*
X146774107Y-45015075D02*
X146821726Y-44967455D01*
X146821726Y-44967455D02*
X146869345Y-44872217D01*
X146869345Y-44872217D02*
X146869345Y-44776979D01*
X146869345Y-44776979D02*
X146821726Y-44681741D01*
X146821726Y-44681741D02*
X146774107Y-44634122D01*
X146774107Y-44634122D02*
X146678869Y-44586503D01*
X146678869Y-44586503D02*
X146488393Y-44538884D01*
X146488393Y-44538884D02*
X146393155Y-44491265D01*
X146393155Y-44491265D02*
X146345536Y-44443646D01*
X146345536Y-44443646D02*
X146297917Y-44348408D01*
X146297917Y-44348408D02*
X146297917Y-44253170D01*
X146297917Y-44253170D02*
X146345536Y-44157932D01*
X146345536Y-44157932D02*
X146393155Y-44110313D01*
X146393155Y-44110313D02*
X146488393Y-44062694D01*
X146488393Y-44062694D02*
X146726488Y-44062694D01*
X146726488Y-44062694D02*
X146869345Y-44110313D01*
X147202679Y-44062694D02*
X147440774Y-45062694D01*
X147440774Y-45062694D02*
X147631250Y-44348408D01*
X147631250Y-44348408D02*
X147821726Y-45062694D01*
X147821726Y-45062694D02*
X148059822Y-44062694D01*
X148488393Y-45062694D02*
X148678869Y-45062694D01*
X148678869Y-45062694D02*
X148774107Y-45015075D01*
X148774107Y-45015075D02*
X148821726Y-44967455D01*
X148821726Y-44967455D02*
X148916964Y-44824598D01*
X148916964Y-44824598D02*
X148964583Y-44634122D01*
X148964583Y-44634122D02*
X148964583Y-44253170D01*
X148964583Y-44253170D02*
X148916964Y-44157932D01*
X148916964Y-44157932D02*
X148869345Y-44110313D01*
X148869345Y-44110313D02*
X148774107Y-44062694D01*
X148774107Y-44062694D02*
X148583631Y-44062694D01*
X148583631Y-44062694D02*
X148488393Y-44110313D01*
X148488393Y-44110313D02*
X148440774Y-44157932D01*
X148440774Y-44157932D02*
X148393155Y-44253170D01*
X148393155Y-44253170D02*
X148393155Y-44491265D01*
X148393155Y-44491265D02*
X148440774Y-44586503D01*
X148440774Y-44586503D02*
X148488393Y-44634122D01*
X148488393Y-44634122D02*
X148583631Y-44681741D01*
X148583631Y-44681741D02*
X148774107Y-44681741D01*
X148774107Y-44681741D02*
X148869345Y-44634122D01*
X148869345Y-44634122D02*
X148916964Y-44586503D01*
X148916964Y-44586503D02*
X148964583Y-44491265D01*
X131954819Y-33942857D02*
X131954819Y-34514285D01*
X131954819Y-34228571D02*
X130954819Y-34228571D01*
X130954819Y-34228571D02*
X131097676Y-34323809D01*
X131097676Y-34323809D02*
X131192914Y-34419047D01*
X131192914Y-34419047D02*
X131240533Y-34514285D01*
X130954819Y-33323809D02*
X130954819Y-33228571D01*
X130954819Y-33228571D02*
X131002438Y-33133333D01*
X131002438Y-33133333D02*
X131050057Y-33085714D01*
X131050057Y-33085714D02*
X131145295Y-33038095D01*
X131145295Y-33038095D02*
X131335771Y-32990476D01*
X131335771Y-32990476D02*
X131573866Y-32990476D01*
X131573866Y-32990476D02*
X131764342Y-33038095D01*
X131764342Y-33038095D02*
X131859580Y-33085714D01*
X131859580Y-33085714D02*
X131907200Y-33133333D01*
X131907200Y-33133333D02*
X131954819Y-33228571D01*
X131954819Y-33228571D02*
X131954819Y-33323809D01*
X131954819Y-33323809D02*
X131907200Y-33419047D01*
X131907200Y-33419047D02*
X131859580Y-33466666D01*
X131859580Y-33466666D02*
X131764342Y-33514285D01*
X131764342Y-33514285D02*
X131573866Y-33561904D01*
X131573866Y-33561904D02*
X131335771Y-33561904D01*
X131335771Y-33561904D02*
X131145295Y-33514285D01*
X131145295Y-33514285D02*
X131050057Y-33466666D01*
X131050057Y-33466666D02*
X131002438Y-33419047D01*
X131002438Y-33419047D02*
X130954819Y-33323809D01*
X131288152Y-32133333D02*
X131954819Y-32133333D01*
X131288152Y-32561904D02*
X131811961Y-32561904D01*
X131811961Y-32561904D02*
X131907200Y-32514285D01*
X131907200Y-32514285D02*
X131954819Y-32419047D01*
X131954819Y-32419047D02*
X131954819Y-32276190D01*
X131954819Y-32276190D02*
X131907200Y-32180952D01*
X131907200Y-32180952D02*
X131859580Y-32133333D01*
D11*
X131679530Y-36593333D02*
X131703340Y-36617142D01*
X131703340Y-36617142D02*
X131727149Y-36688571D01*
X131727149Y-36688571D02*
X131727149Y-36736190D01*
X131727149Y-36736190D02*
X131703340Y-36807618D01*
X131703340Y-36807618D02*
X131655720Y-36855237D01*
X131655720Y-36855237D02*
X131608101Y-36879047D01*
X131608101Y-36879047D02*
X131512863Y-36902856D01*
X131512863Y-36902856D02*
X131441435Y-36902856D01*
X131441435Y-36902856D02*
X131346197Y-36879047D01*
X131346197Y-36879047D02*
X131298578Y-36855237D01*
X131298578Y-36855237D02*
X131250959Y-36807618D01*
X131250959Y-36807618D02*
X131227149Y-36736190D01*
X131227149Y-36736190D02*
X131227149Y-36688571D01*
X131227149Y-36688571D02*
X131250959Y-36617142D01*
X131250959Y-36617142D02*
X131274768Y-36593333D01*
X131227149Y-36426666D02*
X131227149Y-36117142D01*
X131227149Y-36117142D02*
X131417625Y-36283809D01*
X131417625Y-36283809D02*
X131417625Y-36212380D01*
X131417625Y-36212380D02*
X131441435Y-36164761D01*
X131441435Y-36164761D02*
X131465244Y-36140952D01*
X131465244Y-36140952D02*
X131512863Y-36117142D01*
X131512863Y-36117142D02*
X131631911Y-36117142D01*
X131631911Y-36117142D02*
X131679530Y-36140952D01*
X131679530Y-36140952D02*
X131703340Y-36164761D01*
X131703340Y-36164761D02*
X131727149Y-36212380D01*
X131727149Y-36212380D02*
X131727149Y-36355237D01*
X131727149Y-36355237D02*
X131703340Y-36402856D01*
X131703340Y-36402856D02*
X131679530Y-36426666D01*
D10*
X133780952Y-115414819D02*
X134019047Y-116414819D01*
X134019047Y-116414819D02*
X134209523Y-115700533D01*
X134209523Y-115700533D02*
X134399999Y-116414819D01*
X134399999Y-116414819D02*
X134638095Y-115414819D01*
X134971428Y-115510057D02*
X135019047Y-115462438D01*
X135019047Y-115462438D02*
X135114285Y-115414819D01*
X135114285Y-115414819D02*
X135352380Y-115414819D01*
X135352380Y-115414819D02*
X135447618Y-115462438D01*
X135447618Y-115462438D02*
X135495237Y-115510057D01*
X135495237Y-115510057D02*
X135542856Y-115605295D01*
X135542856Y-115605295D02*
X135542856Y-115700533D01*
X135542856Y-115700533D02*
X135495237Y-115843390D01*
X135495237Y-115843390D02*
X134923809Y-116414819D01*
X134923809Y-116414819D02*
X135542856Y-116414819D01*
X136447618Y-115414819D02*
X135971428Y-115414819D01*
X135971428Y-115414819D02*
X135923809Y-115891009D01*
X135923809Y-115891009D02*
X135971428Y-115843390D01*
X135971428Y-115843390D02*
X136066666Y-115795771D01*
X136066666Y-115795771D02*
X136304761Y-115795771D01*
X136304761Y-115795771D02*
X136399999Y-115843390D01*
X136399999Y-115843390D02*
X136447618Y-115891009D01*
X136447618Y-115891009D02*
X136495237Y-115986247D01*
X136495237Y-115986247D02*
X136495237Y-116224342D01*
X136495237Y-116224342D02*
X136447618Y-116319580D01*
X136447618Y-116319580D02*
X136399999Y-116367200D01*
X136399999Y-116367200D02*
X136304761Y-116414819D01*
X136304761Y-116414819D02*
X136066666Y-116414819D01*
X136066666Y-116414819D02*
X135971428Y-116367200D01*
X135971428Y-116367200D02*
X135923809Y-116319580D01*
X137590475Y-116510057D02*
X137495237Y-116462438D01*
X137495237Y-116462438D02*
X137399999Y-116367200D01*
X137399999Y-116367200D02*
X137257142Y-116224342D01*
X137257142Y-116224342D02*
X137161904Y-116176723D01*
X137161904Y-116176723D02*
X137066666Y-116176723D01*
X137114285Y-116414819D02*
X137019047Y-116367200D01*
X137019047Y-116367200D02*
X136923809Y-116271961D01*
X136923809Y-116271961D02*
X136876190Y-116081485D01*
X136876190Y-116081485D02*
X136876190Y-115748152D01*
X136876190Y-115748152D02*
X136923809Y-115557676D01*
X136923809Y-115557676D02*
X137019047Y-115462438D01*
X137019047Y-115462438D02*
X137114285Y-115414819D01*
X137114285Y-115414819D02*
X137304761Y-115414819D01*
X137304761Y-115414819D02*
X137399999Y-115462438D01*
X137399999Y-115462438D02*
X137495237Y-115557676D01*
X137495237Y-115557676D02*
X137542856Y-115748152D01*
X137542856Y-115748152D02*
X137542856Y-116081485D01*
X137542856Y-116081485D02*
X137495237Y-116271961D01*
X137495237Y-116271961D02*
X137399999Y-116367200D01*
X137399999Y-116367200D02*
X137304761Y-116414819D01*
X137304761Y-116414819D02*
X137114285Y-116414819D01*
X138495237Y-116414819D02*
X137923809Y-116414819D01*
X138209523Y-116414819D02*
X138209523Y-115414819D01*
X138209523Y-115414819D02*
X138114285Y-115557676D01*
X138114285Y-115557676D02*
X138019047Y-115652914D01*
X138019047Y-115652914D02*
X137923809Y-115700533D01*
X138876190Y-115510057D02*
X138923809Y-115462438D01*
X138923809Y-115462438D02*
X139019047Y-115414819D01*
X139019047Y-115414819D02*
X139257142Y-115414819D01*
X139257142Y-115414819D02*
X139352380Y-115462438D01*
X139352380Y-115462438D02*
X139399999Y-115510057D01*
X139399999Y-115510057D02*
X139447618Y-115605295D01*
X139447618Y-115605295D02*
X139447618Y-115700533D01*
X139447618Y-115700533D02*
X139399999Y-115843390D01*
X139399999Y-115843390D02*
X138828571Y-116414819D01*
X138828571Y-116414819D02*
X139447618Y-116414819D01*
X140019047Y-115843390D02*
X139923809Y-115795771D01*
X139923809Y-115795771D02*
X139876190Y-115748152D01*
X139876190Y-115748152D02*
X139828571Y-115652914D01*
X139828571Y-115652914D02*
X139828571Y-115605295D01*
X139828571Y-115605295D02*
X139876190Y-115510057D01*
X139876190Y-115510057D02*
X139923809Y-115462438D01*
X139923809Y-115462438D02*
X140019047Y-115414819D01*
X140019047Y-115414819D02*
X140209523Y-115414819D01*
X140209523Y-115414819D02*
X140304761Y-115462438D01*
X140304761Y-115462438D02*
X140352380Y-115510057D01*
X140352380Y-115510057D02*
X140399999Y-115605295D01*
X140399999Y-115605295D02*
X140399999Y-115652914D01*
X140399999Y-115652914D02*
X140352380Y-115748152D01*
X140352380Y-115748152D02*
X140304761Y-115795771D01*
X140304761Y-115795771D02*
X140209523Y-115843390D01*
X140209523Y-115843390D02*
X140019047Y-115843390D01*
X140019047Y-115843390D02*
X139923809Y-115891009D01*
X139923809Y-115891009D02*
X139876190Y-115938628D01*
X139876190Y-115938628D02*
X139828571Y-116033866D01*
X139828571Y-116033866D02*
X139828571Y-116224342D01*
X139828571Y-116224342D02*
X139876190Y-116319580D01*
X139876190Y-116319580D02*
X139923809Y-116367200D01*
X139923809Y-116367200D02*
X140019047Y-116414819D01*
X140019047Y-116414819D02*
X140209523Y-116414819D01*
X140209523Y-116414819D02*
X140304761Y-116367200D01*
X140304761Y-116367200D02*
X140352380Y-116319580D01*
X140352380Y-116319580D02*
X140399999Y-116224342D01*
X140399999Y-116224342D02*
X140399999Y-116033866D01*
X140399999Y-116033866D02*
X140352380Y-115938628D01*
X140352380Y-115938628D02*
X140304761Y-115891009D01*
X140304761Y-115891009D02*
X140209523Y-115843390D01*
X141114285Y-115414819D02*
X141114285Y-116129104D01*
X141114285Y-116129104D02*
X141066666Y-116271961D01*
X141066666Y-116271961D02*
X140971428Y-116367200D01*
X140971428Y-116367200D02*
X140828571Y-116414819D01*
X140828571Y-116414819D02*
X140733333Y-116414819D01*
X141447619Y-115414819D02*
X141780952Y-116414819D01*
X141780952Y-116414819D02*
X142114285Y-115414819D01*
X142400000Y-116367200D02*
X142542857Y-116414819D01*
X142542857Y-116414819D02*
X142780952Y-116414819D01*
X142780952Y-116414819D02*
X142876190Y-116367200D01*
X142876190Y-116367200D02*
X142923809Y-116319580D01*
X142923809Y-116319580D02*
X142971428Y-116224342D01*
X142971428Y-116224342D02*
X142971428Y-116129104D01*
X142971428Y-116129104D02*
X142923809Y-116033866D01*
X142923809Y-116033866D02*
X142876190Y-115986247D01*
X142876190Y-115986247D02*
X142780952Y-115938628D01*
X142780952Y-115938628D02*
X142590476Y-115891009D01*
X142590476Y-115891009D02*
X142495238Y-115843390D01*
X142495238Y-115843390D02*
X142447619Y-115795771D01*
X142447619Y-115795771D02*
X142400000Y-115700533D01*
X142400000Y-115700533D02*
X142400000Y-115605295D01*
X142400000Y-115605295D02*
X142447619Y-115510057D01*
X142447619Y-115510057D02*
X142495238Y-115462438D01*
X142495238Y-115462438D02*
X142590476Y-115414819D01*
X142590476Y-115414819D02*
X142828571Y-115414819D01*
X142828571Y-115414819D02*
X142971428Y-115462438D01*
X137638095Y-111854819D02*
X137638095Y-112664342D01*
X137638095Y-112664342D02*
X137685714Y-112759580D01*
X137685714Y-112759580D02*
X137733333Y-112807200D01*
X137733333Y-112807200D02*
X137828571Y-112854819D01*
X137828571Y-112854819D02*
X138019047Y-112854819D01*
X138019047Y-112854819D02*
X138114285Y-112807200D01*
X138114285Y-112807200D02*
X138161904Y-112759580D01*
X138161904Y-112759580D02*
X138209523Y-112664342D01*
X138209523Y-112664342D02*
X138209523Y-111854819D01*
X138638095Y-111950057D02*
X138685714Y-111902438D01*
X138685714Y-111902438D02*
X138780952Y-111854819D01*
X138780952Y-111854819D02*
X139019047Y-111854819D01*
X139019047Y-111854819D02*
X139114285Y-111902438D01*
X139114285Y-111902438D02*
X139161904Y-111950057D01*
X139161904Y-111950057D02*
X139209523Y-112045295D01*
X139209523Y-112045295D02*
X139209523Y-112140533D01*
X139209523Y-112140533D02*
X139161904Y-112283390D01*
X139161904Y-112283390D02*
X138590476Y-112854819D01*
X138590476Y-112854819D02*
X139209523Y-112854819D01*
X174015774Y-117960694D02*
X174015774Y-116960694D01*
X174587202Y-117960694D02*
X174158631Y-117389265D01*
X174587202Y-116960694D02*
X174015774Y-117532122D01*
X175015774Y-117436884D02*
X175349107Y-117436884D01*
X175491964Y-117960694D02*
X175015774Y-117960694D01*
X175015774Y-117960694D02*
X175015774Y-116960694D01*
X175015774Y-116960694D02*
X175491964Y-116960694D01*
X176111012Y-117484503D02*
X176111012Y-117960694D01*
X175777679Y-116960694D02*
X176111012Y-117484503D01*
X176111012Y-117484503D02*
X176444345Y-116960694D01*
X176730060Y-117913075D02*
X176872917Y-117960694D01*
X176872917Y-117960694D02*
X177111012Y-117960694D01*
X177111012Y-117960694D02*
X177206250Y-117913075D01*
X177206250Y-117913075D02*
X177253869Y-117865455D01*
X177253869Y-117865455D02*
X177301488Y-117770217D01*
X177301488Y-117770217D02*
X177301488Y-117674979D01*
X177301488Y-117674979D02*
X177253869Y-117579741D01*
X177253869Y-117579741D02*
X177206250Y-117532122D01*
X177206250Y-117532122D02*
X177111012Y-117484503D01*
X177111012Y-117484503D02*
X176920536Y-117436884D01*
X176920536Y-117436884D02*
X176825298Y-117389265D01*
X176825298Y-117389265D02*
X176777679Y-117341646D01*
X176777679Y-117341646D02*
X176730060Y-117246408D01*
X176730060Y-117246408D02*
X176730060Y-117151170D01*
X176730060Y-117151170D02*
X176777679Y-117055932D01*
X176777679Y-117055932D02*
X176825298Y-117008313D01*
X176825298Y-117008313D02*
X176920536Y-116960694D01*
X176920536Y-116960694D02*
X177158631Y-116960694D01*
X177158631Y-116960694D02*
X177301488Y-117008313D01*
X177634822Y-116960694D02*
X177872917Y-117960694D01*
X177872917Y-117960694D02*
X178063393Y-117246408D01*
X178063393Y-117246408D02*
X178253869Y-117960694D01*
X178253869Y-117960694D02*
X178491965Y-116960694D01*
X174396726Y-102165075D02*
X174539583Y-102212694D01*
X174539583Y-102212694D02*
X174777678Y-102212694D01*
X174777678Y-102212694D02*
X174872916Y-102165075D01*
X174872916Y-102165075D02*
X174920535Y-102117455D01*
X174920535Y-102117455D02*
X174968154Y-102022217D01*
X174968154Y-102022217D02*
X174968154Y-101926979D01*
X174968154Y-101926979D02*
X174920535Y-101831741D01*
X174920535Y-101831741D02*
X174872916Y-101784122D01*
X174872916Y-101784122D02*
X174777678Y-101736503D01*
X174777678Y-101736503D02*
X174587202Y-101688884D01*
X174587202Y-101688884D02*
X174491964Y-101641265D01*
X174491964Y-101641265D02*
X174444345Y-101593646D01*
X174444345Y-101593646D02*
X174396726Y-101498408D01*
X174396726Y-101498408D02*
X174396726Y-101403170D01*
X174396726Y-101403170D02*
X174444345Y-101307932D01*
X174444345Y-101307932D02*
X174491964Y-101260313D01*
X174491964Y-101260313D02*
X174587202Y-101212694D01*
X174587202Y-101212694D02*
X174825297Y-101212694D01*
X174825297Y-101212694D02*
X174968154Y-101260313D01*
X175301488Y-101212694D02*
X175539583Y-102212694D01*
X175539583Y-102212694D02*
X175730059Y-101498408D01*
X175730059Y-101498408D02*
X175920535Y-102212694D01*
X175920535Y-102212694D02*
X176158631Y-101212694D01*
X176491964Y-101307932D02*
X176539583Y-101260313D01*
X176539583Y-101260313D02*
X176634821Y-101212694D01*
X176634821Y-101212694D02*
X176872916Y-101212694D01*
X176872916Y-101212694D02*
X176968154Y-101260313D01*
X176968154Y-101260313D02*
X177015773Y-101307932D01*
X177015773Y-101307932D02*
X177063392Y-101403170D01*
X177063392Y-101403170D02*
X177063392Y-101498408D01*
X177063392Y-101498408D02*
X177015773Y-101641265D01*
X177015773Y-101641265D02*
X176444345Y-102212694D01*
X176444345Y-102212694D02*
X177063392Y-102212694D01*
X177682440Y-101212694D02*
X177777678Y-101212694D01*
X177777678Y-101212694D02*
X177872916Y-101260313D01*
X177872916Y-101260313D02*
X177920535Y-101307932D01*
X177920535Y-101307932D02*
X177968154Y-101403170D01*
X177968154Y-101403170D02*
X178015773Y-101593646D01*
X178015773Y-101593646D02*
X178015773Y-101831741D01*
X178015773Y-101831741D02*
X177968154Y-102022217D01*
X177968154Y-102022217D02*
X177920535Y-102117455D01*
X177920535Y-102117455D02*
X177872916Y-102165075D01*
X177872916Y-102165075D02*
X177777678Y-102212694D01*
X177777678Y-102212694D02*
X177682440Y-102212694D01*
X177682440Y-102212694D02*
X177587202Y-102165075D01*
X177587202Y-102165075D02*
X177539583Y-102117455D01*
X177539583Y-102117455D02*
X177491964Y-102022217D01*
X177491964Y-102022217D02*
X177444345Y-101831741D01*
X177444345Y-101831741D02*
X177444345Y-101593646D01*
X177444345Y-101593646D02*
X177491964Y-101403170D01*
X177491964Y-101403170D02*
X177539583Y-101307932D01*
X177539583Y-101307932D02*
X177587202Y-101260313D01*
X177587202Y-101260313D02*
X177682440Y-101212694D01*
X138180952Y-109004819D02*
X137609524Y-109004819D01*
X137895238Y-109004819D02*
X137895238Y-108004819D01*
X137895238Y-108004819D02*
X137800000Y-108147676D01*
X137800000Y-108147676D02*
X137704762Y-108242914D01*
X137704762Y-108242914D02*
X137609524Y-108290533D01*
X138609524Y-109004819D02*
X138609524Y-108004819D01*
X138704762Y-108623866D02*
X138990476Y-109004819D01*
X138990476Y-108338152D02*
X138609524Y-108719104D01*
D11*
X135516666Y-108777149D02*
X135350000Y-108539054D01*
X135230952Y-108777149D02*
X135230952Y-108277149D01*
X135230952Y-108277149D02*
X135421428Y-108277149D01*
X135421428Y-108277149D02*
X135469047Y-108300959D01*
X135469047Y-108300959D02*
X135492857Y-108324768D01*
X135492857Y-108324768D02*
X135516666Y-108372387D01*
X135516666Y-108372387D02*
X135516666Y-108443816D01*
X135516666Y-108443816D02*
X135492857Y-108491435D01*
X135492857Y-108491435D02*
X135469047Y-108515244D01*
X135469047Y-108515244D02*
X135421428Y-108539054D01*
X135421428Y-108539054D02*
X135230952Y-108539054D01*
X135754762Y-108777149D02*
X135850000Y-108777149D01*
X135850000Y-108777149D02*
X135897619Y-108753340D01*
X135897619Y-108753340D02*
X135921428Y-108729530D01*
X135921428Y-108729530D02*
X135969047Y-108658101D01*
X135969047Y-108658101D02*
X135992857Y-108562863D01*
X135992857Y-108562863D02*
X135992857Y-108372387D01*
X135992857Y-108372387D02*
X135969047Y-108324768D01*
X135969047Y-108324768D02*
X135945238Y-108300959D01*
X135945238Y-108300959D02*
X135897619Y-108277149D01*
X135897619Y-108277149D02*
X135802381Y-108277149D01*
X135802381Y-108277149D02*
X135754762Y-108300959D01*
X135754762Y-108300959D02*
X135730952Y-108324768D01*
X135730952Y-108324768D02*
X135707143Y-108372387D01*
X135707143Y-108372387D02*
X135707143Y-108491435D01*
X135707143Y-108491435D02*
X135730952Y-108539054D01*
X135730952Y-108539054D02*
X135754762Y-108562863D01*
X135754762Y-108562863D02*
X135802381Y-108586673D01*
X135802381Y-108586673D02*
X135897619Y-108586673D01*
X135897619Y-108586673D02*
X135945238Y-108562863D01*
X135945238Y-108562863D02*
X135969047Y-108539054D01*
X135969047Y-108539054D02*
X135992857Y-108491435D01*
D10*
X69240774Y-41760694D02*
X69240774Y-40760694D01*
X69812202Y-41760694D02*
X69383631Y-41189265D01*
X69812202Y-40760694D02*
X69240774Y-41332122D01*
X70240774Y-41236884D02*
X70574107Y-41236884D01*
X70716964Y-41760694D02*
X70240774Y-41760694D01*
X70240774Y-41760694D02*
X70240774Y-40760694D01*
X70240774Y-40760694D02*
X70716964Y-40760694D01*
X71336012Y-41284503D02*
X71336012Y-41760694D01*
X71002679Y-40760694D02*
X71336012Y-41284503D01*
X71336012Y-41284503D02*
X71669345Y-40760694D01*
X71955060Y-41713075D02*
X72097917Y-41760694D01*
X72097917Y-41760694D02*
X72336012Y-41760694D01*
X72336012Y-41760694D02*
X72431250Y-41713075D01*
X72431250Y-41713075D02*
X72478869Y-41665455D01*
X72478869Y-41665455D02*
X72526488Y-41570217D01*
X72526488Y-41570217D02*
X72526488Y-41474979D01*
X72526488Y-41474979D02*
X72478869Y-41379741D01*
X72478869Y-41379741D02*
X72431250Y-41332122D01*
X72431250Y-41332122D02*
X72336012Y-41284503D01*
X72336012Y-41284503D02*
X72145536Y-41236884D01*
X72145536Y-41236884D02*
X72050298Y-41189265D01*
X72050298Y-41189265D02*
X72002679Y-41141646D01*
X72002679Y-41141646D02*
X71955060Y-41046408D01*
X71955060Y-41046408D02*
X71955060Y-40951170D01*
X71955060Y-40951170D02*
X72002679Y-40855932D01*
X72002679Y-40855932D02*
X72050298Y-40808313D01*
X72050298Y-40808313D02*
X72145536Y-40760694D01*
X72145536Y-40760694D02*
X72383631Y-40760694D01*
X72383631Y-40760694D02*
X72526488Y-40808313D01*
X72859822Y-40760694D02*
X73097917Y-41760694D01*
X73097917Y-41760694D02*
X73288393Y-41046408D01*
X73288393Y-41046408D02*
X73478869Y-41760694D01*
X73478869Y-41760694D02*
X73716965Y-40760694D01*
X70097917Y-25965075D02*
X70240774Y-26012694D01*
X70240774Y-26012694D02*
X70478869Y-26012694D01*
X70478869Y-26012694D02*
X70574107Y-25965075D01*
X70574107Y-25965075D02*
X70621726Y-25917455D01*
X70621726Y-25917455D02*
X70669345Y-25822217D01*
X70669345Y-25822217D02*
X70669345Y-25726979D01*
X70669345Y-25726979D02*
X70621726Y-25631741D01*
X70621726Y-25631741D02*
X70574107Y-25584122D01*
X70574107Y-25584122D02*
X70478869Y-25536503D01*
X70478869Y-25536503D02*
X70288393Y-25488884D01*
X70288393Y-25488884D02*
X70193155Y-25441265D01*
X70193155Y-25441265D02*
X70145536Y-25393646D01*
X70145536Y-25393646D02*
X70097917Y-25298408D01*
X70097917Y-25298408D02*
X70097917Y-25203170D01*
X70097917Y-25203170D02*
X70145536Y-25107932D01*
X70145536Y-25107932D02*
X70193155Y-25060313D01*
X70193155Y-25060313D02*
X70288393Y-25012694D01*
X70288393Y-25012694D02*
X70526488Y-25012694D01*
X70526488Y-25012694D02*
X70669345Y-25060313D01*
X71002679Y-25012694D02*
X71240774Y-26012694D01*
X71240774Y-26012694D02*
X71431250Y-25298408D01*
X71431250Y-25298408D02*
X71621726Y-26012694D01*
X71621726Y-26012694D02*
X71859822Y-25012694D01*
X72193155Y-25107932D02*
X72240774Y-25060313D01*
X72240774Y-25060313D02*
X72336012Y-25012694D01*
X72336012Y-25012694D02*
X72574107Y-25012694D01*
X72574107Y-25012694D02*
X72669345Y-25060313D01*
X72669345Y-25060313D02*
X72716964Y-25107932D01*
X72716964Y-25107932D02*
X72764583Y-25203170D01*
X72764583Y-25203170D02*
X72764583Y-25298408D01*
X72764583Y-25298408D02*
X72716964Y-25441265D01*
X72716964Y-25441265D02*
X72145536Y-26012694D01*
X72145536Y-26012694D02*
X72764583Y-26012694D01*
X202590774Y-60810694D02*
X202590774Y-59810694D01*
X203162202Y-60810694D02*
X202733631Y-60239265D01*
X203162202Y-59810694D02*
X202590774Y-60382122D01*
X203590774Y-60286884D02*
X203924107Y-60286884D01*
X204066964Y-60810694D02*
X203590774Y-60810694D01*
X203590774Y-60810694D02*
X203590774Y-59810694D01*
X203590774Y-59810694D02*
X204066964Y-59810694D01*
X204686012Y-60334503D02*
X204686012Y-60810694D01*
X204352679Y-59810694D02*
X204686012Y-60334503D01*
X204686012Y-60334503D02*
X205019345Y-59810694D01*
X205305060Y-60763075D02*
X205447917Y-60810694D01*
X205447917Y-60810694D02*
X205686012Y-60810694D01*
X205686012Y-60810694D02*
X205781250Y-60763075D01*
X205781250Y-60763075D02*
X205828869Y-60715455D01*
X205828869Y-60715455D02*
X205876488Y-60620217D01*
X205876488Y-60620217D02*
X205876488Y-60524979D01*
X205876488Y-60524979D02*
X205828869Y-60429741D01*
X205828869Y-60429741D02*
X205781250Y-60382122D01*
X205781250Y-60382122D02*
X205686012Y-60334503D01*
X205686012Y-60334503D02*
X205495536Y-60286884D01*
X205495536Y-60286884D02*
X205400298Y-60239265D01*
X205400298Y-60239265D02*
X205352679Y-60191646D01*
X205352679Y-60191646D02*
X205305060Y-60096408D01*
X205305060Y-60096408D02*
X205305060Y-60001170D01*
X205305060Y-60001170D02*
X205352679Y-59905932D01*
X205352679Y-59905932D02*
X205400298Y-59858313D01*
X205400298Y-59858313D02*
X205495536Y-59810694D01*
X205495536Y-59810694D02*
X205733631Y-59810694D01*
X205733631Y-59810694D02*
X205876488Y-59858313D01*
X206209822Y-59810694D02*
X206447917Y-60810694D01*
X206447917Y-60810694D02*
X206638393Y-60096408D01*
X206638393Y-60096408D02*
X206828869Y-60810694D01*
X206828869Y-60810694D02*
X207066965Y-59810694D01*
X202971726Y-45015075D02*
X203114583Y-45062694D01*
X203114583Y-45062694D02*
X203352678Y-45062694D01*
X203352678Y-45062694D02*
X203447916Y-45015075D01*
X203447916Y-45015075D02*
X203495535Y-44967455D01*
X203495535Y-44967455D02*
X203543154Y-44872217D01*
X203543154Y-44872217D02*
X203543154Y-44776979D01*
X203543154Y-44776979D02*
X203495535Y-44681741D01*
X203495535Y-44681741D02*
X203447916Y-44634122D01*
X203447916Y-44634122D02*
X203352678Y-44586503D01*
X203352678Y-44586503D02*
X203162202Y-44538884D01*
X203162202Y-44538884D02*
X203066964Y-44491265D01*
X203066964Y-44491265D02*
X203019345Y-44443646D01*
X203019345Y-44443646D02*
X202971726Y-44348408D01*
X202971726Y-44348408D02*
X202971726Y-44253170D01*
X202971726Y-44253170D02*
X203019345Y-44157932D01*
X203019345Y-44157932D02*
X203066964Y-44110313D01*
X203066964Y-44110313D02*
X203162202Y-44062694D01*
X203162202Y-44062694D02*
X203400297Y-44062694D01*
X203400297Y-44062694D02*
X203543154Y-44110313D01*
X203876488Y-44062694D02*
X204114583Y-45062694D01*
X204114583Y-45062694D02*
X204305059Y-44348408D01*
X204305059Y-44348408D02*
X204495535Y-45062694D01*
X204495535Y-45062694D02*
X204733631Y-44062694D01*
X205638392Y-45062694D02*
X205066964Y-45062694D01*
X205352678Y-45062694D02*
X205352678Y-44062694D01*
X205352678Y-44062694D02*
X205257440Y-44205551D01*
X205257440Y-44205551D02*
X205162202Y-44300789D01*
X205162202Y-44300789D02*
X205066964Y-44348408D01*
X206590773Y-45062694D02*
X206019345Y-45062694D01*
X206305059Y-45062694D02*
X206305059Y-44062694D01*
X206305059Y-44062694D02*
X206209821Y-44205551D01*
X206209821Y-44205551D02*
X206114583Y-44300789D01*
X206114583Y-44300789D02*
X206019345Y-44348408D01*
X140607142Y-29504819D02*
X140035714Y-29504819D01*
X140321428Y-29504819D02*
X140321428Y-28504819D01*
X140321428Y-28504819D02*
X140226190Y-28647676D01*
X140226190Y-28647676D02*
X140130952Y-28742914D01*
X140130952Y-28742914D02*
X140035714Y-28790533D01*
X141226190Y-28504819D02*
X141321428Y-28504819D01*
X141321428Y-28504819D02*
X141416666Y-28552438D01*
X141416666Y-28552438D02*
X141464285Y-28600057D01*
X141464285Y-28600057D02*
X141511904Y-28695295D01*
X141511904Y-28695295D02*
X141559523Y-28885771D01*
X141559523Y-28885771D02*
X141559523Y-29123866D01*
X141559523Y-29123866D02*
X141511904Y-29314342D01*
X141511904Y-29314342D02*
X141464285Y-29409580D01*
X141464285Y-29409580D02*
X141416666Y-29457200D01*
X141416666Y-29457200D02*
X141321428Y-29504819D01*
X141321428Y-29504819D02*
X141226190Y-29504819D01*
X141226190Y-29504819D02*
X141130952Y-29457200D01*
X141130952Y-29457200D02*
X141083333Y-29409580D01*
X141083333Y-29409580D02*
X141035714Y-29314342D01*
X141035714Y-29314342D02*
X140988095Y-29123866D01*
X140988095Y-29123866D02*
X140988095Y-28885771D01*
X140988095Y-28885771D02*
X141035714Y-28695295D01*
X141035714Y-28695295D02*
X141083333Y-28600057D01*
X141083333Y-28600057D02*
X141130952Y-28552438D01*
X141130952Y-28552438D02*
X141226190Y-28504819D01*
X142416666Y-28838152D02*
X142416666Y-29504819D01*
X141988095Y-28838152D02*
X141988095Y-29361961D01*
X141988095Y-29361961D02*
X142035714Y-29457200D01*
X142035714Y-29457200D02*
X142130952Y-29504819D01*
X142130952Y-29504819D02*
X142273809Y-29504819D01*
X142273809Y-29504819D02*
X142369047Y-29457200D01*
X142369047Y-29457200D02*
X142416666Y-29409580D01*
D11*
X137916666Y-29229530D02*
X137892857Y-29253340D01*
X137892857Y-29253340D02*
X137821428Y-29277149D01*
X137821428Y-29277149D02*
X137773809Y-29277149D01*
X137773809Y-29277149D02*
X137702381Y-29253340D01*
X137702381Y-29253340D02*
X137654762Y-29205720D01*
X137654762Y-29205720D02*
X137630952Y-29158101D01*
X137630952Y-29158101D02*
X137607143Y-29062863D01*
X137607143Y-29062863D02*
X137607143Y-28991435D01*
X137607143Y-28991435D02*
X137630952Y-28896197D01*
X137630952Y-28896197D02*
X137654762Y-28848578D01*
X137654762Y-28848578D02*
X137702381Y-28800959D01*
X137702381Y-28800959D02*
X137773809Y-28777149D01*
X137773809Y-28777149D02*
X137821428Y-28777149D01*
X137821428Y-28777149D02*
X137892857Y-28800959D01*
X137892857Y-28800959D02*
X137916666Y-28824768D01*
X138392857Y-29277149D02*
X138107143Y-29277149D01*
X138250000Y-29277149D02*
X138250000Y-28777149D01*
X138250000Y-28777149D02*
X138202381Y-28848578D01*
X138202381Y-28848578D02*
X138154762Y-28896197D01*
X138154762Y-28896197D02*
X138107143Y-28920006D01*
D10*
X69240774Y-60810694D02*
X69240774Y-59810694D01*
X69812202Y-60810694D02*
X69383631Y-60239265D01*
X69812202Y-59810694D02*
X69240774Y-60382122D01*
X70240774Y-60286884D02*
X70574107Y-60286884D01*
X70716964Y-60810694D02*
X70240774Y-60810694D01*
X70240774Y-60810694D02*
X70240774Y-59810694D01*
X70240774Y-59810694D02*
X70716964Y-59810694D01*
X71336012Y-60334503D02*
X71336012Y-60810694D01*
X71002679Y-59810694D02*
X71336012Y-60334503D01*
X71336012Y-60334503D02*
X71669345Y-59810694D01*
X71955060Y-60763075D02*
X72097917Y-60810694D01*
X72097917Y-60810694D02*
X72336012Y-60810694D01*
X72336012Y-60810694D02*
X72431250Y-60763075D01*
X72431250Y-60763075D02*
X72478869Y-60715455D01*
X72478869Y-60715455D02*
X72526488Y-60620217D01*
X72526488Y-60620217D02*
X72526488Y-60524979D01*
X72526488Y-60524979D02*
X72478869Y-60429741D01*
X72478869Y-60429741D02*
X72431250Y-60382122D01*
X72431250Y-60382122D02*
X72336012Y-60334503D01*
X72336012Y-60334503D02*
X72145536Y-60286884D01*
X72145536Y-60286884D02*
X72050298Y-60239265D01*
X72050298Y-60239265D02*
X72002679Y-60191646D01*
X72002679Y-60191646D02*
X71955060Y-60096408D01*
X71955060Y-60096408D02*
X71955060Y-60001170D01*
X71955060Y-60001170D02*
X72002679Y-59905932D01*
X72002679Y-59905932D02*
X72050298Y-59858313D01*
X72050298Y-59858313D02*
X72145536Y-59810694D01*
X72145536Y-59810694D02*
X72383631Y-59810694D01*
X72383631Y-59810694D02*
X72526488Y-59858313D01*
X72859822Y-59810694D02*
X73097917Y-60810694D01*
X73097917Y-60810694D02*
X73288393Y-60096408D01*
X73288393Y-60096408D02*
X73478869Y-60810694D01*
X73478869Y-60810694D02*
X73716965Y-59810694D01*
X70097917Y-45015075D02*
X70240774Y-45062694D01*
X70240774Y-45062694D02*
X70478869Y-45062694D01*
X70478869Y-45062694D02*
X70574107Y-45015075D01*
X70574107Y-45015075D02*
X70621726Y-44967455D01*
X70621726Y-44967455D02*
X70669345Y-44872217D01*
X70669345Y-44872217D02*
X70669345Y-44776979D01*
X70669345Y-44776979D02*
X70621726Y-44681741D01*
X70621726Y-44681741D02*
X70574107Y-44634122D01*
X70574107Y-44634122D02*
X70478869Y-44586503D01*
X70478869Y-44586503D02*
X70288393Y-44538884D01*
X70288393Y-44538884D02*
X70193155Y-44491265D01*
X70193155Y-44491265D02*
X70145536Y-44443646D01*
X70145536Y-44443646D02*
X70097917Y-44348408D01*
X70097917Y-44348408D02*
X70097917Y-44253170D01*
X70097917Y-44253170D02*
X70145536Y-44157932D01*
X70145536Y-44157932D02*
X70193155Y-44110313D01*
X70193155Y-44110313D02*
X70288393Y-44062694D01*
X70288393Y-44062694D02*
X70526488Y-44062694D01*
X70526488Y-44062694D02*
X70669345Y-44110313D01*
X71002679Y-44062694D02*
X71240774Y-45062694D01*
X71240774Y-45062694D02*
X71431250Y-44348408D01*
X71431250Y-44348408D02*
X71621726Y-45062694D01*
X71621726Y-45062694D02*
X71859822Y-44062694D01*
X72669345Y-44062694D02*
X72478869Y-44062694D01*
X72478869Y-44062694D02*
X72383631Y-44110313D01*
X72383631Y-44110313D02*
X72336012Y-44157932D01*
X72336012Y-44157932D02*
X72240774Y-44300789D01*
X72240774Y-44300789D02*
X72193155Y-44491265D01*
X72193155Y-44491265D02*
X72193155Y-44872217D01*
X72193155Y-44872217D02*
X72240774Y-44967455D01*
X72240774Y-44967455D02*
X72288393Y-45015075D01*
X72288393Y-45015075D02*
X72383631Y-45062694D01*
X72383631Y-45062694D02*
X72574107Y-45062694D01*
X72574107Y-45062694D02*
X72669345Y-45015075D01*
X72669345Y-45015075D02*
X72716964Y-44967455D01*
X72716964Y-44967455D02*
X72764583Y-44872217D01*
X72764583Y-44872217D02*
X72764583Y-44634122D01*
X72764583Y-44634122D02*
X72716964Y-44538884D01*
X72716964Y-44538884D02*
X72669345Y-44491265D01*
X72669345Y-44491265D02*
X72574107Y-44443646D01*
X72574107Y-44443646D02*
X72383631Y-44443646D01*
X72383631Y-44443646D02*
X72288393Y-44491265D01*
X72288393Y-44491265D02*
X72240774Y-44538884D01*
X72240774Y-44538884D02*
X72193155Y-44634122D01*
X50190774Y-60810694D02*
X50190774Y-59810694D01*
X50762202Y-60810694D02*
X50333631Y-60239265D01*
X50762202Y-59810694D02*
X50190774Y-60382122D01*
X51190774Y-60286884D02*
X51524107Y-60286884D01*
X51666964Y-60810694D02*
X51190774Y-60810694D01*
X51190774Y-60810694D02*
X51190774Y-59810694D01*
X51190774Y-59810694D02*
X51666964Y-59810694D01*
X52286012Y-60334503D02*
X52286012Y-60810694D01*
X51952679Y-59810694D02*
X52286012Y-60334503D01*
X52286012Y-60334503D02*
X52619345Y-59810694D01*
X52905060Y-60763075D02*
X53047917Y-60810694D01*
X53047917Y-60810694D02*
X53286012Y-60810694D01*
X53286012Y-60810694D02*
X53381250Y-60763075D01*
X53381250Y-60763075D02*
X53428869Y-60715455D01*
X53428869Y-60715455D02*
X53476488Y-60620217D01*
X53476488Y-60620217D02*
X53476488Y-60524979D01*
X53476488Y-60524979D02*
X53428869Y-60429741D01*
X53428869Y-60429741D02*
X53381250Y-60382122D01*
X53381250Y-60382122D02*
X53286012Y-60334503D01*
X53286012Y-60334503D02*
X53095536Y-60286884D01*
X53095536Y-60286884D02*
X53000298Y-60239265D01*
X53000298Y-60239265D02*
X52952679Y-60191646D01*
X52952679Y-60191646D02*
X52905060Y-60096408D01*
X52905060Y-60096408D02*
X52905060Y-60001170D01*
X52905060Y-60001170D02*
X52952679Y-59905932D01*
X52952679Y-59905932D02*
X53000298Y-59858313D01*
X53000298Y-59858313D02*
X53095536Y-59810694D01*
X53095536Y-59810694D02*
X53333631Y-59810694D01*
X53333631Y-59810694D02*
X53476488Y-59858313D01*
X53809822Y-59810694D02*
X54047917Y-60810694D01*
X54047917Y-60810694D02*
X54238393Y-60096408D01*
X54238393Y-60096408D02*
X54428869Y-60810694D01*
X54428869Y-60810694D02*
X54666965Y-59810694D01*
X51047917Y-45015075D02*
X51190774Y-45062694D01*
X51190774Y-45062694D02*
X51428869Y-45062694D01*
X51428869Y-45062694D02*
X51524107Y-45015075D01*
X51524107Y-45015075D02*
X51571726Y-44967455D01*
X51571726Y-44967455D02*
X51619345Y-44872217D01*
X51619345Y-44872217D02*
X51619345Y-44776979D01*
X51619345Y-44776979D02*
X51571726Y-44681741D01*
X51571726Y-44681741D02*
X51524107Y-44634122D01*
X51524107Y-44634122D02*
X51428869Y-44586503D01*
X51428869Y-44586503D02*
X51238393Y-44538884D01*
X51238393Y-44538884D02*
X51143155Y-44491265D01*
X51143155Y-44491265D02*
X51095536Y-44443646D01*
X51095536Y-44443646D02*
X51047917Y-44348408D01*
X51047917Y-44348408D02*
X51047917Y-44253170D01*
X51047917Y-44253170D02*
X51095536Y-44157932D01*
X51095536Y-44157932D02*
X51143155Y-44110313D01*
X51143155Y-44110313D02*
X51238393Y-44062694D01*
X51238393Y-44062694D02*
X51476488Y-44062694D01*
X51476488Y-44062694D02*
X51619345Y-44110313D01*
X51952679Y-44062694D02*
X52190774Y-45062694D01*
X52190774Y-45062694D02*
X52381250Y-44348408D01*
X52381250Y-44348408D02*
X52571726Y-45062694D01*
X52571726Y-45062694D02*
X52809822Y-44062694D01*
X53666964Y-44062694D02*
X53190774Y-44062694D01*
X53190774Y-44062694D02*
X53143155Y-44538884D01*
X53143155Y-44538884D02*
X53190774Y-44491265D01*
X53190774Y-44491265D02*
X53286012Y-44443646D01*
X53286012Y-44443646D02*
X53524107Y-44443646D01*
X53524107Y-44443646D02*
X53619345Y-44491265D01*
X53619345Y-44491265D02*
X53666964Y-44538884D01*
X53666964Y-44538884D02*
X53714583Y-44634122D01*
X53714583Y-44634122D02*
X53714583Y-44872217D01*
X53714583Y-44872217D02*
X53666964Y-44967455D01*
X53666964Y-44967455D02*
X53619345Y-45015075D01*
X53619345Y-45015075D02*
X53524107Y-45062694D01*
X53524107Y-45062694D02*
X53286012Y-45062694D01*
X53286012Y-45062694D02*
X53190774Y-45015075D01*
X53190774Y-45015075D02*
X53143155Y-44967455D01*
X145440774Y-79860694D02*
X145440774Y-78860694D01*
X146012202Y-79860694D02*
X145583631Y-79289265D01*
X146012202Y-78860694D02*
X145440774Y-79432122D01*
X146440774Y-79336884D02*
X146774107Y-79336884D01*
X146916964Y-79860694D02*
X146440774Y-79860694D01*
X146440774Y-79860694D02*
X146440774Y-78860694D01*
X146440774Y-78860694D02*
X146916964Y-78860694D01*
X147536012Y-79384503D02*
X147536012Y-79860694D01*
X147202679Y-78860694D02*
X147536012Y-79384503D01*
X147536012Y-79384503D02*
X147869345Y-78860694D01*
X148155060Y-79813075D02*
X148297917Y-79860694D01*
X148297917Y-79860694D02*
X148536012Y-79860694D01*
X148536012Y-79860694D02*
X148631250Y-79813075D01*
X148631250Y-79813075D02*
X148678869Y-79765455D01*
X148678869Y-79765455D02*
X148726488Y-79670217D01*
X148726488Y-79670217D02*
X148726488Y-79574979D01*
X148726488Y-79574979D02*
X148678869Y-79479741D01*
X148678869Y-79479741D02*
X148631250Y-79432122D01*
X148631250Y-79432122D02*
X148536012Y-79384503D01*
X148536012Y-79384503D02*
X148345536Y-79336884D01*
X148345536Y-79336884D02*
X148250298Y-79289265D01*
X148250298Y-79289265D02*
X148202679Y-79241646D01*
X148202679Y-79241646D02*
X148155060Y-79146408D01*
X148155060Y-79146408D02*
X148155060Y-79051170D01*
X148155060Y-79051170D02*
X148202679Y-78955932D01*
X148202679Y-78955932D02*
X148250298Y-78908313D01*
X148250298Y-78908313D02*
X148345536Y-78860694D01*
X148345536Y-78860694D02*
X148583631Y-78860694D01*
X148583631Y-78860694D02*
X148726488Y-78908313D01*
X149059822Y-78860694D02*
X149297917Y-79860694D01*
X149297917Y-79860694D02*
X149488393Y-79146408D01*
X149488393Y-79146408D02*
X149678869Y-79860694D01*
X149678869Y-79860694D02*
X149916965Y-78860694D01*
X145821726Y-64065075D02*
X145964583Y-64112694D01*
X145964583Y-64112694D02*
X146202678Y-64112694D01*
X146202678Y-64112694D02*
X146297916Y-64065075D01*
X146297916Y-64065075D02*
X146345535Y-64017455D01*
X146345535Y-64017455D02*
X146393154Y-63922217D01*
X146393154Y-63922217D02*
X146393154Y-63826979D01*
X146393154Y-63826979D02*
X146345535Y-63731741D01*
X146345535Y-63731741D02*
X146297916Y-63684122D01*
X146297916Y-63684122D02*
X146202678Y-63636503D01*
X146202678Y-63636503D02*
X146012202Y-63588884D01*
X146012202Y-63588884D02*
X145916964Y-63541265D01*
X145916964Y-63541265D02*
X145869345Y-63493646D01*
X145869345Y-63493646D02*
X145821726Y-63398408D01*
X145821726Y-63398408D02*
X145821726Y-63303170D01*
X145821726Y-63303170D02*
X145869345Y-63207932D01*
X145869345Y-63207932D02*
X145916964Y-63160313D01*
X145916964Y-63160313D02*
X146012202Y-63112694D01*
X146012202Y-63112694D02*
X146250297Y-63112694D01*
X146250297Y-63112694D02*
X146393154Y-63160313D01*
X146726488Y-63112694D02*
X146964583Y-64112694D01*
X146964583Y-64112694D02*
X147155059Y-63398408D01*
X147155059Y-63398408D02*
X147345535Y-64112694D01*
X147345535Y-64112694D02*
X147583631Y-63112694D01*
X148488392Y-64112694D02*
X147916964Y-64112694D01*
X148202678Y-64112694D02*
X148202678Y-63112694D01*
X148202678Y-63112694D02*
X148107440Y-63255551D01*
X148107440Y-63255551D02*
X148012202Y-63350789D01*
X148012202Y-63350789D02*
X147916964Y-63398408D01*
X149393154Y-63112694D02*
X148916964Y-63112694D01*
X148916964Y-63112694D02*
X148869345Y-63588884D01*
X148869345Y-63588884D02*
X148916964Y-63541265D01*
X148916964Y-63541265D02*
X149012202Y-63493646D01*
X149012202Y-63493646D02*
X149250297Y-63493646D01*
X149250297Y-63493646D02*
X149345535Y-63541265D01*
X149345535Y-63541265D02*
X149393154Y-63588884D01*
X149393154Y-63588884D02*
X149440773Y-63684122D01*
X149440773Y-63684122D02*
X149440773Y-63922217D01*
X149440773Y-63922217D02*
X149393154Y-64017455D01*
X149393154Y-64017455D02*
X149345535Y-64065075D01*
X149345535Y-64065075D02*
X149250297Y-64112694D01*
X149250297Y-64112694D02*
X149012202Y-64112694D01*
X149012202Y-64112694D02*
X148916964Y-64065075D01*
X148916964Y-64065075D02*
X148869345Y-64017455D01*
X231165774Y-41760694D02*
X231165774Y-40760694D01*
X231737202Y-41760694D02*
X231308631Y-41189265D01*
X231737202Y-40760694D02*
X231165774Y-41332122D01*
X232165774Y-41236884D02*
X232499107Y-41236884D01*
X232641964Y-41760694D02*
X232165774Y-41760694D01*
X232165774Y-41760694D02*
X232165774Y-40760694D01*
X232165774Y-40760694D02*
X232641964Y-40760694D01*
X233261012Y-41284503D02*
X233261012Y-41760694D01*
X232927679Y-40760694D02*
X233261012Y-41284503D01*
X233261012Y-41284503D02*
X233594345Y-40760694D01*
X233880060Y-41713075D02*
X234022917Y-41760694D01*
X234022917Y-41760694D02*
X234261012Y-41760694D01*
X234261012Y-41760694D02*
X234356250Y-41713075D01*
X234356250Y-41713075D02*
X234403869Y-41665455D01*
X234403869Y-41665455D02*
X234451488Y-41570217D01*
X234451488Y-41570217D02*
X234451488Y-41474979D01*
X234451488Y-41474979D02*
X234403869Y-41379741D01*
X234403869Y-41379741D02*
X234356250Y-41332122D01*
X234356250Y-41332122D02*
X234261012Y-41284503D01*
X234261012Y-41284503D02*
X234070536Y-41236884D01*
X234070536Y-41236884D02*
X233975298Y-41189265D01*
X233975298Y-41189265D02*
X233927679Y-41141646D01*
X233927679Y-41141646D02*
X233880060Y-41046408D01*
X233880060Y-41046408D02*
X233880060Y-40951170D01*
X233880060Y-40951170D02*
X233927679Y-40855932D01*
X233927679Y-40855932D02*
X233975298Y-40808313D01*
X233975298Y-40808313D02*
X234070536Y-40760694D01*
X234070536Y-40760694D02*
X234308631Y-40760694D01*
X234308631Y-40760694D02*
X234451488Y-40808313D01*
X234784822Y-40760694D02*
X235022917Y-41760694D01*
X235022917Y-41760694D02*
X235213393Y-41046408D01*
X235213393Y-41046408D02*
X235403869Y-41760694D01*
X235403869Y-41760694D02*
X235641965Y-40760694D01*
X232022917Y-25965075D02*
X232165774Y-26012694D01*
X232165774Y-26012694D02*
X232403869Y-26012694D01*
X232403869Y-26012694D02*
X232499107Y-25965075D01*
X232499107Y-25965075D02*
X232546726Y-25917455D01*
X232546726Y-25917455D02*
X232594345Y-25822217D01*
X232594345Y-25822217D02*
X232594345Y-25726979D01*
X232594345Y-25726979D02*
X232546726Y-25631741D01*
X232546726Y-25631741D02*
X232499107Y-25584122D01*
X232499107Y-25584122D02*
X232403869Y-25536503D01*
X232403869Y-25536503D02*
X232213393Y-25488884D01*
X232213393Y-25488884D02*
X232118155Y-25441265D01*
X232118155Y-25441265D02*
X232070536Y-25393646D01*
X232070536Y-25393646D02*
X232022917Y-25298408D01*
X232022917Y-25298408D02*
X232022917Y-25203170D01*
X232022917Y-25203170D02*
X232070536Y-25107932D01*
X232070536Y-25107932D02*
X232118155Y-25060313D01*
X232118155Y-25060313D02*
X232213393Y-25012694D01*
X232213393Y-25012694D02*
X232451488Y-25012694D01*
X232451488Y-25012694D02*
X232594345Y-25060313D01*
X232927679Y-25012694D02*
X233165774Y-26012694D01*
X233165774Y-26012694D02*
X233356250Y-25298408D01*
X233356250Y-25298408D02*
X233546726Y-26012694D01*
X233546726Y-26012694D02*
X233784822Y-25012694D01*
X234594345Y-25346027D02*
X234594345Y-26012694D01*
X234356250Y-24965075D02*
X234118155Y-25679360D01*
X234118155Y-25679360D02*
X234737202Y-25679360D01*
X131380951Y-16319819D02*
X131380951Y-17129342D01*
X131380951Y-17129342D02*
X131428570Y-17224580D01*
X131428570Y-17224580D02*
X131476189Y-17272200D01*
X131476189Y-17272200D02*
X131571427Y-17319819D01*
X131571427Y-17319819D02*
X131761903Y-17319819D01*
X131761903Y-17319819D02*
X131857141Y-17272200D01*
X131857141Y-17272200D02*
X131904760Y-17224580D01*
X131904760Y-17224580D02*
X131952379Y-17129342D01*
X131952379Y-17129342D02*
X131952379Y-16319819D01*
X132380951Y-17272200D02*
X132523808Y-17319819D01*
X132523808Y-17319819D02*
X132761903Y-17319819D01*
X132761903Y-17319819D02*
X132857141Y-17272200D01*
X132857141Y-17272200D02*
X132904760Y-17224580D01*
X132904760Y-17224580D02*
X132952379Y-17129342D01*
X132952379Y-17129342D02*
X132952379Y-17034104D01*
X132952379Y-17034104D02*
X132904760Y-16938866D01*
X132904760Y-16938866D02*
X132857141Y-16891247D01*
X132857141Y-16891247D02*
X132761903Y-16843628D01*
X132761903Y-16843628D02*
X132571427Y-16796009D01*
X132571427Y-16796009D02*
X132476189Y-16748390D01*
X132476189Y-16748390D02*
X132428570Y-16700771D01*
X132428570Y-16700771D02*
X132380951Y-16605533D01*
X132380951Y-16605533D02*
X132380951Y-16510295D01*
X132380951Y-16510295D02*
X132428570Y-16415057D01*
X132428570Y-16415057D02*
X132476189Y-16367438D01*
X132476189Y-16367438D02*
X132571427Y-16319819D01*
X132571427Y-16319819D02*
X132809522Y-16319819D01*
X132809522Y-16319819D02*
X132952379Y-16367438D01*
X133714284Y-16796009D02*
X133857141Y-16843628D01*
X133857141Y-16843628D02*
X133904760Y-16891247D01*
X133904760Y-16891247D02*
X133952379Y-16986485D01*
X133952379Y-16986485D02*
X133952379Y-17129342D01*
X133952379Y-17129342D02*
X133904760Y-17224580D01*
X133904760Y-17224580D02*
X133857141Y-17272200D01*
X133857141Y-17272200D02*
X133761903Y-17319819D01*
X133761903Y-17319819D02*
X133380951Y-17319819D01*
X133380951Y-17319819D02*
X133380951Y-16319819D01*
X133380951Y-16319819D02*
X133714284Y-16319819D01*
X133714284Y-16319819D02*
X133809522Y-16367438D01*
X133809522Y-16367438D02*
X133857141Y-16415057D01*
X133857141Y-16415057D02*
X133904760Y-16510295D01*
X133904760Y-16510295D02*
X133904760Y-16605533D01*
X133904760Y-16605533D02*
X133857141Y-16700771D01*
X133857141Y-16700771D02*
X133809522Y-16748390D01*
X133809522Y-16748390D02*
X133714284Y-16796009D01*
X133714284Y-16796009D02*
X133380951Y-16796009D01*
X134142856Y-17415057D02*
X134904760Y-17415057D01*
X135714284Y-17224580D02*
X135666665Y-17272200D01*
X135666665Y-17272200D02*
X135523808Y-17319819D01*
X135523808Y-17319819D02*
X135428570Y-17319819D01*
X135428570Y-17319819D02*
X135285713Y-17272200D01*
X135285713Y-17272200D02*
X135190475Y-17176961D01*
X135190475Y-17176961D02*
X135142856Y-17081723D01*
X135142856Y-17081723D02*
X135095237Y-16891247D01*
X135095237Y-16891247D02*
X135095237Y-16748390D01*
X135095237Y-16748390D02*
X135142856Y-16557914D01*
X135142856Y-16557914D02*
X135190475Y-16462676D01*
X135190475Y-16462676D02*
X135285713Y-16367438D01*
X135285713Y-16367438D02*
X135428570Y-16319819D01*
X135428570Y-16319819D02*
X135523808Y-16319819D01*
X135523808Y-16319819D02*
X135666665Y-16367438D01*
X135666665Y-16367438D02*
X135714284Y-16415057D01*
X135904761Y-17415057D02*
X136666665Y-17415057D01*
X137476189Y-17319819D02*
X137142856Y-16843628D01*
X136904761Y-17319819D02*
X136904761Y-16319819D01*
X136904761Y-16319819D02*
X137285713Y-16319819D01*
X137285713Y-16319819D02*
X137380951Y-16367438D01*
X137380951Y-16367438D02*
X137428570Y-16415057D01*
X137428570Y-16415057D02*
X137476189Y-16510295D01*
X137476189Y-16510295D02*
X137476189Y-16653152D01*
X137476189Y-16653152D02*
X137428570Y-16748390D01*
X137428570Y-16748390D02*
X137380951Y-16796009D01*
X137380951Y-16796009D02*
X137285713Y-16843628D01*
X137285713Y-16843628D02*
X136904761Y-16843628D01*
X138285713Y-17272200D02*
X138190475Y-17319819D01*
X138190475Y-17319819D02*
X137999999Y-17319819D01*
X137999999Y-17319819D02*
X137904761Y-17272200D01*
X137904761Y-17272200D02*
X137857142Y-17176961D01*
X137857142Y-17176961D02*
X137857142Y-16796009D01*
X137857142Y-16796009D02*
X137904761Y-16700771D01*
X137904761Y-16700771D02*
X137999999Y-16653152D01*
X137999999Y-16653152D02*
X138190475Y-16653152D01*
X138190475Y-16653152D02*
X138285713Y-16700771D01*
X138285713Y-16700771D02*
X138333332Y-16796009D01*
X138333332Y-16796009D02*
X138333332Y-16891247D01*
X138333332Y-16891247D02*
X137857142Y-16986485D01*
X139190475Y-17272200D02*
X139095237Y-17319819D01*
X139095237Y-17319819D02*
X138904761Y-17319819D01*
X138904761Y-17319819D02*
X138809523Y-17272200D01*
X138809523Y-17272200D02*
X138761904Y-17224580D01*
X138761904Y-17224580D02*
X138714285Y-17129342D01*
X138714285Y-17129342D02*
X138714285Y-16843628D01*
X138714285Y-16843628D02*
X138761904Y-16748390D01*
X138761904Y-16748390D02*
X138809523Y-16700771D01*
X138809523Y-16700771D02*
X138904761Y-16653152D01*
X138904761Y-16653152D02*
X139095237Y-16653152D01*
X139095237Y-16653152D02*
X139190475Y-16700771D01*
X139999999Y-17272200D02*
X139904761Y-17319819D01*
X139904761Y-17319819D02*
X139714285Y-17319819D01*
X139714285Y-17319819D02*
X139619047Y-17272200D01*
X139619047Y-17272200D02*
X139571428Y-17176961D01*
X139571428Y-17176961D02*
X139571428Y-16796009D01*
X139571428Y-16796009D02*
X139619047Y-16700771D01*
X139619047Y-16700771D02*
X139714285Y-16653152D01*
X139714285Y-16653152D02*
X139904761Y-16653152D01*
X139904761Y-16653152D02*
X139999999Y-16700771D01*
X139999999Y-16700771D02*
X140047618Y-16796009D01*
X140047618Y-16796009D02*
X140047618Y-16891247D01*
X140047618Y-16891247D02*
X139571428Y-16986485D01*
X140476190Y-16653152D02*
X140476190Y-17653152D01*
X140476190Y-16700771D02*
X140571428Y-16653152D01*
X140571428Y-16653152D02*
X140761904Y-16653152D01*
X140761904Y-16653152D02*
X140857142Y-16700771D01*
X140857142Y-16700771D02*
X140904761Y-16748390D01*
X140904761Y-16748390D02*
X140952380Y-16843628D01*
X140952380Y-16843628D02*
X140952380Y-17129342D01*
X140952380Y-17129342D02*
X140904761Y-17224580D01*
X140904761Y-17224580D02*
X140857142Y-17272200D01*
X140857142Y-17272200D02*
X140761904Y-17319819D01*
X140761904Y-17319819D02*
X140571428Y-17319819D01*
X140571428Y-17319819D02*
X140476190Y-17272200D01*
X141238095Y-16653152D02*
X141619047Y-16653152D01*
X141380952Y-16319819D02*
X141380952Y-17176961D01*
X141380952Y-17176961D02*
X141428571Y-17272200D01*
X141428571Y-17272200D02*
X141523809Y-17319819D01*
X141523809Y-17319819D02*
X141619047Y-17319819D01*
X142380952Y-17319819D02*
X142380952Y-16796009D01*
X142380952Y-16796009D02*
X142333333Y-16700771D01*
X142333333Y-16700771D02*
X142238095Y-16653152D01*
X142238095Y-16653152D02*
X142047619Y-16653152D01*
X142047619Y-16653152D02*
X141952381Y-16700771D01*
X142380952Y-17272200D02*
X142285714Y-17319819D01*
X142285714Y-17319819D02*
X142047619Y-17319819D01*
X142047619Y-17319819D02*
X141952381Y-17272200D01*
X141952381Y-17272200D02*
X141904762Y-17176961D01*
X141904762Y-17176961D02*
X141904762Y-17081723D01*
X141904762Y-17081723D02*
X141952381Y-16986485D01*
X141952381Y-16986485D02*
X142047619Y-16938866D01*
X142047619Y-16938866D02*
X142285714Y-16938866D01*
X142285714Y-16938866D02*
X142380952Y-16891247D01*
X143285714Y-17272200D02*
X143190476Y-17319819D01*
X143190476Y-17319819D02*
X143000000Y-17319819D01*
X143000000Y-17319819D02*
X142904762Y-17272200D01*
X142904762Y-17272200D02*
X142857143Y-17224580D01*
X142857143Y-17224580D02*
X142809524Y-17129342D01*
X142809524Y-17129342D02*
X142809524Y-16843628D01*
X142809524Y-16843628D02*
X142857143Y-16748390D01*
X142857143Y-16748390D02*
X142904762Y-16700771D01*
X142904762Y-16700771D02*
X143000000Y-16653152D01*
X143000000Y-16653152D02*
X143190476Y-16653152D01*
X143190476Y-16653152D02*
X143285714Y-16700771D01*
X143857143Y-17319819D02*
X143761905Y-17272200D01*
X143761905Y-17272200D02*
X143714286Y-17176961D01*
X143714286Y-17176961D02*
X143714286Y-16319819D01*
X144619048Y-17272200D02*
X144523810Y-17319819D01*
X144523810Y-17319819D02*
X144333334Y-17319819D01*
X144333334Y-17319819D02*
X144238096Y-17272200D01*
X144238096Y-17272200D02*
X144190477Y-17176961D01*
X144190477Y-17176961D02*
X144190477Y-16796009D01*
X144190477Y-16796009D02*
X144238096Y-16700771D01*
X144238096Y-16700771D02*
X144333334Y-16653152D01*
X144333334Y-16653152D02*
X144523810Y-16653152D01*
X144523810Y-16653152D02*
X144619048Y-16700771D01*
X144619048Y-16700771D02*
X144666667Y-16796009D01*
X144666667Y-16796009D02*
X144666667Y-16891247D01*
X144666667Y-16891247D02*
X144190477Y-16986485D01*
X137666666Y-21254819D02*
X137666666Y-21969104D01*
X137666666Y-21969104D02*
X137619047Y-22111961D01*
X137619047Y-22111961D02*
X137523809Y-22207200D01*
X137523809Y-22207200D02*
X137380952Y-22254819D01*
X137380952Y-22254819D02*
X137285714Y-22254819D01*
X138666666Y-22254819D02*
X138095238Y-22254819D01*
X138380952Y-22254819D02*
X138380952Y-21254819D01*
X138380952Y-21254819D02*
X138285714Y-21397676D01*
X138285714Y-21397676D02*
X138190476Y-21492914D01*
X138190476Y-21492914D02*
X138095238Y-21540533D01*
X221640774Y-60810694D02*
X221640774Y-59810694D01*
X222212202Y-60810694D02*
X221783631Y-60239265D01*
X222212202Y-59810694D02*
X221640774Y-60382122D01*
X222640774Y-60286884D02*
X222974107Y-60286884D01*
X223116964Y-60810694D02*
X222640774Y-60810694D01*
X222640774Y-60810694D02*
X222640774Y-59810694D01*
X222640774Y-59810694D02*
X223116964Y-59810694D01*
X223736012Y-60334503D02*
X223736012Y-60810694D01*
X223402679Y-59810694D02*
X223736012Y-60334503D01*
X223736012Y-60334503D02*
X224069345Y-59810694D01*
X224355060Y-60763075D02*
X224497917Y-60810694D01*
X224497917Y-60810694D02*
X224736012Y-60810694D01*
X224736012Y-60810694D02*
X224831250Y-60763075D01*
X224831250Y-60763075D02*
X224878869Y-60715455D01*
X224878869Y-60715455D02*
X224926488Y-60620217D01*
X224926488Y-60620217D02*
X224926488Y-60524979D01*
X224926488Y-60524979D02*
X224878869Y-60429741D01*
X224878869Y-60429741D02*
X224831250Y-60382122D01*
X224831250Y-60382122D02*
X224736012Y-60334503D01*
X224736012Y-60334503D02*
X224545536Y-60286884D01*
X224545536Y-60286884D02*
X224450298Y-60239265D01*
X224450298Y-60239265D02*
X224402679Y-60191646D01*
X224402679Y-60191646D02*
X224355060Y-60096408D01*
X224355060Y-60096408D02*
X224355060Y-60001170D01*
X224355060Y-60001170D02*
X224402679Y-59905932D01*
X224402679Y-59905932D02*
X224450298Y-59858313D01*
X224450298Y-59858313D02*
X224545536Y-59810694D01*
X224545536Y-59810694D02*
X224783631Y-59810694D01*
X224783631Y-59810694D02*
X224926488Y-59858313D01*
X225259822Y-59810694D02*
X225497917Y-60810694D01*
X225497917Y-60810694D02*
X225688393Y-60096408D01*
X225688393Y-60096408D02*
X225878869Y-60810694D01*
X225878869Y-60810694D02*
X226116965Y-59810694D01*
X222021726Y-45015075D02*
X222164583Y-45062694D01*
X222164583Y-45062694D02*
X222402678Y-45062694D01*
X222402678Y-45062694D02*
X222497916Y-45015075D01*
X222497916Y-45015075D02*
X222545535Y-44967455D01*
X222545535Y-44967455D02*
X222593154Y-44872217D01*
X222593154Y-44872217D02*
X222593154Y-44776979D01*
X222593154Y-44776979D02*
X222545535Y-44681741D01*
X222545535Y-44681741D02*
X222497916Y-44634122D01*
X222497916Y-44634122D02*
X222402678Y-44586503D01*
X222402678Y-44586503D02*
X222212202Y-44538884D01*
X222212202Y-44538884D02*
X222116964Y-44491265D01*
X222116964Y-44491265D02*
X222069345Y-44443646D01*
X222069345Y-44443646D02*
X222021726Y-44348408D01*
X222021726Y-44348408D02*
X222021726Y-44253170D01*
X222021726Y-44253170D02*
X222069345Y-44157932D01*
X222069345Y-44157932D02*
X222116964Y-44110313D01*
X222116964Y-44110313D02*
X222212202Y-44062694D01*
X222212202Y-44062694D02*
X222450297Y-44062694D01*
X222450297Y-44062694D02*
X222593154Y-44110313D01*
X222926488Y-44062694D02*
X223164583Y-45062694D01*
X223164583Y-45062694D02*
X223355059Y-44348408D01*
X223355059Y-44348408D02*
X223545535Y-45062694D01*
X223545535Y-45062694D02*
X223783631Y-44062694D01*
X224688392Y-45062694D02*
X224116964Y-45062694D01*
X224402678Y-45062694D02*
X224402678Y-44062694D01*
X224402678Y-44062694D02*
X224307440Y-44205551D01*
X224307440Y-44205551D02*
X224212202Y-44300789D01*
X224212202Y-44300789D02*
X224116964Y-44348408D01*
X225069345Y-44157932D02*
X225116964Y-44110313D01*
X225116964Y-44110313D02*
X225212202Y-44062694D01*
X225212202Y-44062694D02*
X225450297Y-44062694D01*
X225450297Y-44062694D02*
X225545535Y-44110313D01*
X225545535Y-44110313D02*
X225593154Y-44157932D01*
X225593154Y-44157932D02*
X225640773Y-44253170D01*
X225640773Y-44253170D02*
X225640773Y-44348408D01*
X225640773Y-44348408D02*
X225593154Y-44491265D01*
X225593154Y-44491265D02*
X225021726Y-45062694D01*
X225021726Y-45062694D02*
X225640773Y-45062694D01*
X147030952Y-119304819D02*
X146459524Y-119304819D01*
X146745238Y-119304819D02*
X146745238Y-118304819D01*
X146745238Y-118304819D02*
X146650000Y-118447676D01*
X146650000Y-118447676D02*
X146554762Y-118542914D01*
X146554762Y-118542914D02*
X146459524Y-118590533D01*
X147459524Y-119304819D02*
X147459524Y-118304819D01*
X147554762Y-118923866D02*
X147840476Y-119304819D01*
X147840476Y-118638152D02*
X147459524Y-119019104D01*
D11*
X143478571Y-118727149D02*
X143311905Y-118489054D01*
X143192857Y-118727149D02*
X143192857Y-118227149D01*
X143192857Y-118227149D02*
X143383333Y-118227149D01*
X143383333Y-118227149D02*
X143430952Y-118250959D01*
X143430952Y-118250959D02*
X143454762Y-118274768D01*
X143454762Y-118274768D02*
X143478571Y-118322387D01*
X143478571Y-118322387D02*
X143478571Y-118393816D01*
X143478571Y-118393816D02*
X143454762Y-118441435D01*
X143454762Y-118441435D02*
X143430952Y-118465244D01*
X143430952Y-118465244D02*
X143383333Y-118489054D01*
X143383333Y-118489054D02*
X143192857Y-118489054D01*
X143954762Y-118727149D02*
X143669048Y-118727149D01*
X143811905Y-118727149D02*
X143811905Y-118227149D01*
X143811905Y-118227149D02*
X143764286Y-118298578D01*
X143764286Y-118298578D02*
X143716667Y-118346197D01*
X143716667Y-118346197D02*
X143669048Y-118370006D01*
X144264285Y-118227149D02*
X144311904Y-118227149D01*
X144311904Y-118227149D02*
X144359523Y-118250959D01*
X144359523Y-118250959D02*
X144383333Y-118274768D01*
X144383333Y-118274768D02*
X144407142Y-118322387D01*
X144407142Y-118322387D02*
X144430952Y-118417625D01*
X144430952Y-118417625D02*
X144430952Y-118536673D01*
X144430952Y-118536673D02*
X144407142Y-118631911D01*
X144407142Y-118631911D02*
X144383333Y-118679530D01*
X144383333Y-118679530D02*
X144359523Y-118703340D01*
X144359523Y-118703340D02*
X144311904Y-118727149D01*
X144311904Y-118727149D02*
X144264285Y-118727149D01*
X144264285Y-118727149D02*
X144216666Y-118703340D01*
X144216666Y-118703340D02*
X144192857Y-118679530D01*
X144192857Y-118679530D02*
X144169047Y-118631911D01*
X144169047Y-118631911D02*
X144145238Y-118536673D01*
X144145238Y-118536673D02*
X144145238Y-118417625D01*
X144145238Y-118417625D02*
X144169047Y-118322387D01*
X144169047Y-118322387D02*
X144192857Y-118274768D01*
X144192857Y-118274768D02*
X144216666Y-118250959D01*
X144216666Y-118250959D02*
X144264285Y-118227149D01*
D13*
%TO.C,SW19*%
X93656250Y-103281875D02*
X106356250Y-103281875D01*
X93656250Y-115981875D02*
X93656250Y-103281875D01*
X106356250Y-103281875D02*
X106356250Y-115981875D01*
X106356250Y-115981875D02*
X93656250Y-115981875D01*
%TO.C,U3*%
X141600000Y-92200000D02*
X134600000Y-92200000D01*
X141600000Y-85200000D02*
X141600000Y-92200000D01*
X135600000Y-85200000D02*
X141600000Y-85200000D01*
X134600000Y-92200000D02*
X134600000Y-86200000D01*
X134600000Y-86200000D02*
X135600000Y-85200000D01*
%TO.C,RESET_SW1*%
X137565000Y-123130000D02*
X135660000Y-123130000D01*
X137565000Y-118050000D02*
X137565000Y-123130000D01*
X135660000Y-123130000D02*
X135025000Y-122495000D01*
X135025000Y-122495000D02*
X135025000Y-118050000D01*
X135025000Y-118050000D02*
X137565000Y-118050000D01*
%TO.C,SW1*%
X36506250Y-27081875D02*
X49206250Y-27081875D01*
X36506250Y-39781875D02*
X36506250Y-27081875D01*
X49206250Y-27081875D02*
X49206250Y-39781875D01*
X49206250Y-39781875D02*
X36506250Y-39781875D01*
%TO.C,SW8*%
X122231250Y-46131875D02*
X134931250Y-46131875D01*
X122231250Y-58831875D02*
X122231250Y-46131875D01*
X134931250Y-46131875D02*
X134931250Y-58831875D01*
X134931250Y-58831875D02*
X122231250Y-58831875D01*
%TO.C,SW14*%
X122231250Y-65181875D02*
X134931250Y-65181875D01*
X122231250Y-77881875D02*
X122231250Y-65181875D01*
X134931250Y-65181875D02*
X134931250Y-77881875D01*
X134931250Y-77881875D02*
X122231250Y-77881875D01*
%TO.C,C2*%
X144005000Y-37510000D02*
X144005000Y-35510000D01*
X145255000Y-37510000D02*
X144005000Y-37510000D01*
X144005000Y-35510000D02*
X145255000Y-35510000D01*
X145255000Y-35510000D02*
X145255000Y-37510000D01*
%TO.C,SW16*%
X198431250Y-65181875D02*
X211131250Y-65181875D01*
X198431250Y-77881875D02*
X198431250Y-65181875D01*
X211131250Y-65181875D02*
X211131250Y-77881875D01*
X211131250Y-77881875D02*
X198431250Y-77881875D01*
%TO.C,SW18*%
X236531250Y-84231875D02*
X249231250Y-84231875D01*
X236531250Y-96931875D02*
X236531250Y-84231875D01*
X249231250Y-84231875D02*
X249231250Y-96931875D01*
X249231250Y-96931875D02*
X236531250Y-96931875D01*
%TO.C,SW7*%
X84131250Y-46131875D02*
X96831250Y-46131875D01*
X84131250Y-58831875D02*
X84131250Y-46131875D01*
X96831250Y-46131875D02*
X96831250Y-58831875D01*
X96831250Y-58831875D02*
X84131250Y-58831875D01*
%TO.C,C4*%
X143990000Y-109895000D02*
X145990000Y-109895000D01*
X143990000Y-111145000D02*
X143990000Y-109895000D01*
X145990000Y-109895000D02*
X145990000Y-111145000D01*
X145990000Y-111145000D02*
X143990000Y-111145000D01*
%TO.C,SW3*%
X198431250Y-27081875D02*
X211131250Y-27081875D01*
X198431250Y-39781875D02*
X198431250Y-27081875D01*
X211131250Y-27081875D02*
X211131250Y-39781875D01*
X211131250Y-39781875D02*
X198431250Y-39781875D01*
%TO.C,U1*%
X139850000Y-37600000D02*
X139850000Y-31900000D01*
X139850000Y-37600000D02*
X138850000Y-38600000D01*
X139850000Y-31900000D02*
X136150000Y-31900000D01*
X138850000Y-38600000D02*
X136150000Y-38600000D01*
X136150000Y-38600000D02*
X136150000Y-31900000D01*
%TO.C,SW17*%
X26981250Y-84231875D02*
X39681250Y-84231875D01*
X26981250Y-96931875D02*
X26981250Y-84231875D01*
X39681250Y-84231875D02*
X39681250Y-96931875D01*
X39681250Y-96931875D02*
X26981250Y-96931875D01*
%TO.C,SW13*%
X65081250Y-65181875D02*
X77781250Y-65181875D01*
X65081250Y-77881875D02*
X65081250Y-65181875D01*
X77781250Y-65181875D02*
X77781250Y-77881875D01*
X77781250Y-77881875D02*
X65081250Y-77881875D01*
%TO.C,SW10*%
X179381250Y-46131875D02*
X192081250Y-46131875D01*
X179381250Y-58831875D02*
X179381250Y-46131875D01*
X192081250Y-46131875D02*
X192081250Y-58831875D01*
X192081250Y-58831875D02*
X179381250Y-58831875D01*
%TO.C,SW9*%
X141281250Y-46131875D02*
X153981250Y-46131875D01*
X141281250Y-58831875D02*
X141281250Y-46131875D01*
X153981250Y-46131875D02*
X153981250Y-58831875D01*
X153981250Y-58831875D02*
X141281250Y-58831875D01*
%TO.C,C3*%
X130875000Y-37510000D02*
X130875000Y-35510000D01*
X132125000Y-37510000D02*
X130875000Y-37510000D01*
X130875000Y-35510000D02*
X132125000Y-35510000D01*
X132125000Y-35510000D02*
X132125000Y-37510000D01*
%TO.C,U2*%
X135785000Y-110785000D02*
X136785000Y-109785000D01*
X135785000Y-115015000D02*
X135785000Y-110785000D01*
X136785000Y-109785000D02*
X141015000Y-109785000D01*
X141015000Y-109785000D02*
X141015000Y-115015000D01*
X141015000Y-115015000D02*
X135785000Y-115015000D01*
%TO.C,SW20*%
X169856250Y-103281875D02*
X182556250Y-103281875D01*
X169856250Y-115981875D02*
X169856250Y-103281875D01*
X182556250Y-103281875D02*
X182556250Y-115981875D01*
X182556250Y-115981875D02*
X169856250Y-115981875D01*
%TO.C,R9*%
X136600000Y-109175000D02*
X134600000Y-109175000D01*
X136600000Y-107925000D02*
X136600000Y-109175000D01*
X134600000Y-109175000D02*
X134600000Y-107925000D01*
X134600000Y-107925000D02*
X136600000Y-107925000D01*
%TO.C,SW2*%
X65081250Y-27081875D02*
X77781250Y-27081875D01*
X65081250Y-39781875D02*
X65081250Y-27081875D01*
X77781250Y-27081875D02*
X77781250Y-39781875D01*
X77781250Y-39781875D02*
X65081250Y-39781875D01*
%TO.C,SW11*%
X198431250Y-46131875D02*
X211131250Y-46131875D01*
X198431250Y-58831875D02*
X198431250Y-46131875D01*
X211131250Y-46131875D02*
X211131250Y-58831875D01*
X211131250Y-58831875D02*
X198431250Y-58831875D01*
%TO.C,C1*%
X137000000Y-28425000D02*
X139000000Y-28425000D01*
X137000000Y-29675000D02*
X137000000Y-28425000D01*
X139000000Y-28425000D02*
X139000000Y-29675000D01*
X139000000Y-29675000D02*
X137000000Y-29675000D01*
%TO.C,SW6*%
X65081250Y-46131875D02*
X77781250Y-46131875D01*
X65081250Y-58831875D02*
X65081250Y-46131875D01*
X77781250Y-46131875D02*
X77781250Y-58831875D01*
X77781250Y-58831875D02*
X65081250Y-58831875D01*
%TO.C,SW5*%
X46031250Y-46131875D02*
X58731250Y-46131875D01*
X46031250Y-58831875D02*
X46031250Y-46131875D01*
X58731250Y-46131875D02*
X58731250Y-58831875D01*
X58731250Y-58831875D02*
X46031250Y-58831875D01*
%TO.C,SW15*%
X141281250Y-65181875D02*
X153981250Y-65181875D01*
X141281250Y-77881875D02*
X141281250Y-65181875D01*
X153981250Y-65181875D02*
X153981250Y-77881875D01*
X153981250Y-77881875D02*
X141281250Y-77881875D01*
%TO.C,SW4*%
X227006250Y-27081875D02*
X239706250Y-27081875D01*
X227006250Y-39781875D02*
X227006250Y-27081875D01*
X239706250Y-27081875D02*
X239706250Y-39781875D01*
X239706250Y-39781875D02*
X227006250Y-39781875D01*
%TO.C,J1*%
X142470000Y-25475000D02*
X142470000Y-18125000D01*
X142470000Y-25475000D02*
X133530000Y-25475000D01*
X142470000Y-18125000D02*
X133530000Y-18125000D01*
X133530000Y-18125000D02*
X133530000Y-25475000D01*
%TO.C,BOOT_SW1*%
X141175000Y-123130000D02*
X139270000Y-123130000D01*
X141175000Y-118050000D02*
X141175000Y-123130000D01*
X139270000Y-123130000D02*
X138635000Y-122495000D01*
X138635000Y-122495000D02*
X138635000Y-118050000D01*
X138635000Y-118050000D02*
X141175000Y-118050000D01*
%TO.C,SW12*%
X217481250Y-46131875D02*
X230181250Y-46131875D01*
X217481250Y-58831875D02*
X217481250Y-46131875D01*
X230181250Y-46131875D02*
X230181250Y-58831875D01*
X230181250Y-58831875D02*
X217481250Y-58831875D01*
%TO.C,R10*%
X142800000Y-119125000D02*
X142800000Y-117875000D01*
X142800000Y-117875000D02*
X144800000Y-117875000D01*
X144800000Y-119125000D02*
X142800000Y-119125000D01*
X144800000Y-117875000D02*
X144800000Y-119125000D01*
%TD*%
M02*
