%TF.GenerationSoftware,KiCad,Pcbnew,7.0.7*%
%TF.CreationDate,2023-10-04T19:01:13+09:00*%
%TF.ProjectId,Sixtar-Switch,53697874-6172-42d5-9377-697463682e6b,rev?*%
%TF.SameCoordinates,Original*%
%TF.FileFunction,Drillmap*%
%TF.FilePolarity,Positive*%
%FSLAX45Y45*%
G04 Gerber Fmt 4.5, Leading zero omitted, Abs format (unit mm)*
G04 Created by KiCad (PCBNEW 7.0.7) date 2023-10-04 19:01:13*
%MOMM*%
%LPD*%
G01*
G04 APERTURE LIST*
%ADD10C,0.100000*%
%ADD11C,0.200000*%
%ADD12C,0.005000*%
%ADD13C,0.010000*%
%ADD14C,0.040000*%
%ADD15C,0.060000*%
%ADD16C,0.150000*%
G04 APERTURE END LIST*
D10*
X25800000Y-12500000D02*
X1800000Y-12500000D01*
X1800000Y-12500000D02*
X1800000Y-1800000D01*
X25800000Y-1800000D02*
X25800000Y-12500000D01*
X1800000Y-1800000D02*
X25800000Y-1800000D01*
D11*
D12*
X13463500Y-8967500D02*
X13468500Y-8972500D01*
X13468500Y-8967500D02*
X13463500Y-8972500D01*
X13707500Y-9210500D02*
X13712500Y-9215500D01*
X13712500Y-9210500D02*
X13707500Y-9215500D01*
X13787500Y-8392500D02*
X13792500Y-8397500D01*
X13792500Y-8392500D02*
X13787500Y-8397500D01*
X13787500Y-8523750D02*
X13792500Y-8528750D01*
X13792500Y-8523750D02*
X13787500Y-8528750D01*
X13787500Y-9632500D02*
X13792500Y-9637500D01*
X13792500Y-9632500D02*
X13787500Y-9637500D01*
X13827500Y-9211500D02*
X13832500Y-9216500D01*
X13832500Y-9211500D02*
X13827500Y-9216500D01*
X13834500Y-9110500D02*
X13839500Y-9115500D01*
X13839500Y-9110500D02*
X13834500Y-9115500D01*
X13867500Y-9211500D02*
X13872500Y-9216500D01*
X13872500Y-9211500D02*
X13867500Y-9216500D01*
X13900500Y-9110500D02*
X13905500Y-9115500D01*
X13905500Y-9110500D02*
X13900500Y-9115500D01*
X13987500Y-8390500D02*
X13992500Y-8395500D01*
X13992500Y-8390500D02*
X13987500Y-8395500D01*
X13987500Y-8523750D02*
X13992500Y-8528750D01*
X13992500Y-8523750D02*
X13987500Y-8528750D01*
X14067500Y-8392500D02*
X14072500Y-8397500D01*
X14072500Y-8392500D02*
X14067500Y-8397500D01*
X14151250Y-8967500D02*
X14156250Y-8972500D01*
X14156250Y-8967500D02*
X14151250Y-8972500D01*
D13*
X10207213Y-8925000D02*
G75*
G03*
X10207213Y-8925000I-5000J0D01*
G01*
X10317213Y-8924950D02*
G75*
G03*
X10317213Y-8924950I-5000J0D01*
G01*
X11775000Y-7360000D02*
G75*
G03*
X11775000Y-7360000I-5000J0D01*
G01*
X11775000Y-7460000D02*
G75*
G03*
X11775000Y-7460000I-5000J0D01*
G01*
X11870050Y-4404713D02*
G75*
G03*
X11870050Y-4404713I-5000J0D01*
G01*
X11969950Y-4257500D02*
G75*
G03*
X11969950Y-4257500I-5000J0D01*
G01*
X12585000Y-8855050D02*
G75*
G03*
X12585000Y-8855050I-5000J0D01*
G01*
X12585000Y-8959900D02*
G75*
G03*
X12585000Y-8959900I-5000J0D01*
G01*
X12634591Y-8855062D02*
G75*
G03*
X12634591Y-8855062I-5000J0D01*
G01*
X12635000Y-8959950D02*
G75*
G03*
X12635000Y-8959950I-5000J0D01*
G01*
X12674541Y-8855085D02*
G75*
G03*
X12674541Y-8855085I-5000J0D01*
G01*
X12695000Y-8959950D02*
G75*
G03*
X12695000Y-8959950I-5000J0D01*
G01*
X12723947Y-8855087D02*
G75*
G03*
X12723947Y-8855087I-5000J0D01*
G01*
X12745252Y-8959950D02*
G75*
G03*
X12745252Y-8959950I-5000J0D01*
G01*
X12773372Y-8855086D02*
G75*
G03*
X12773372Y-8855086I-5000J0D01*
G01*
X12801487Y-8960864D02*
G75*
G03*
X12801487Y-8960864I-5000J0D01*
G01*
X12822802Y-8855089D02*
G75*
G03*
X12822802Y-8855089I-5000J0D01*
G01*
X12850000Y-8959950D02*
G75*
G03*
X12850000Y-8959950I-5000J0D01*
G01*
X12872229Y-8855088D02*
G75*
G03*
X12872229Y-8855088I-5000J0D01*
G01*
X12914656Y-8855090D02*
G75*
G03*
X12914656Y-8855090I-5000J0D01*
G01*
X12957105Y-8855050D02*
G75*
G03*
X12957105Y-8855050I-5000J0D01*
G01*
X13000000Y-9525000D02*
G75*
G03*
X13000000Y-9525000I-5000J0D01*
G01*
X13000050Y-9394901D02*
G75*
G03*
X13000050Y-9394901I-5000J0D01*
G01*
X13000050Y-9435000D02*
G75*
G03*
X13000050Y-9435000I-5000J0D01*
G01*
X13000050Y-9475000D02*
G75*
G03*
X13000050Y-9475000I-5000J0D01*
G01*
X13000050Y-9604900D02*
G75*
G03*
X13000050Y-9604900I-5000J0D01*
G01*
X13000050Y-9564950D02*
G75*
G03*
X13000050Y-9564950I-5000J0D01*
G01*
X13004950Y-9195000D02*
G75*
G03*
X13004950Y-9195000I-5000J0D01*
G01*
X13006508Y-8855088D02*
G75*
G03*
X13006508Y-8855088I-5000J0D01*
G01*
X13035107Y-9315000D02*
G75*
G03*
X13035107Y-9315000I-5000J0D01*
G01*
X13070000Y-8890000D02*
G75*
G03*
X13070000Y-8890000I-5000J0D01*
G01*
X13070050Y-8650000D02*
G75*
G03*
X13070050Y-8650000I-5000J0D01*
G01*
X13070050Y-8690000D02*
G75*
G03*
X13070050Y-8690000I-5000J0D01*
G01*
X13070050Y-8730000D02*
G75*
G03*
X13070050Y-8730000I-5000J0D01*
G01*
X13070050Y-8770000D02*
G75*
G03*
X13070050Y-8770000I-5000J0D01*
G01*
X13070050Y-8810000D02*
G75*
G03*
X13070050Y-8810000I-5000J0D01*
G01*
X13070050Y-8850000D02*
G75*
G03*
X13070050Y-8850000I-5000J0D01*
G01*
X13070057Y-8929950D02*
G75*
G03*
X13070057Y-8929950I-5000J0D01*
G01*
X13289943Y-8929950D02*
G75*
G03*
X13289943Y-8929950I-5000J0D01*
G01*
X13289950Y-8650000D02*
G75*
G03*
X13289950Y-8650000I-5000J0D01*
G01*
X13289950Y-8690000D02*
G75*
G03*
X13289950Y-8690000I-5000J0D01*
G01*
X13289950Y-8770000D02*
G75*
G03*
X13289950Y-8770000I-5000J0D01*
G01*
X13289950Y-8809950D02*
G75*
G03*
X13289950Y-8809950I-5000J0D01*
G01*
X13289950Y-8850000D02*
G75*
G03*
X13289950Y-8850000I-5000J0D01*
G01*
X13289950Y-9010000D02*
G75*
G03*
X13289950Y-9010000I-5000J0D01*
G01*
X13289950Y-9090000D02*
G75*
G03*
X13289950Y-9090000I-5000J0D01*
G01*
X13289950Y-9130000D02*
G75*
G03*
X13289950Y-9130000I-5000J0D01*
G01*
X13289950Y-9315000D02*
G75*
G03*
X13289950Y-9315000I-5000J0D01*
G01*
X13289950Y-9354950D02*
G75*
G03*
X13289950Y-9354950I-5000J0D01*
G01*
X13289950Y-9394901D02*
G75*
G03*
X13289950Y-9394901I-5000J0D01*
G01*
X13289950Y-9434851D02*
G75*
G03*
X13289950Y-9434851I-5000J0D01*
G01*
X13289950Y-9565000D02*
G75*
G03*
X13289950Y-9565000I-5000J0D01*
G01*
X13289950Y-9604950D02*
G75*
G03*
X13289950Y-9604950I-5000J0D01*
G01*
X13290000Y-8890000D02*
G75*
G03*
X13290000Y-8890000I-5000J0D01*
G01*
X13290000Y-9050000D02*
G75*
G03*
X13290000Y-9050000I-5000J0D01*
G01*
X13290000Y-9475000D02*
G75*
G03*
X13290000Y-9475000I-5000J0D01*
G01*
X13290000Y-9525000D02*
G75*
G03*
X13290000Y-9525000I-5000J0D01*
G01*
X13290007Y-8729950D02*
G75*
G03*
X13290007Y-8729950I-5000J0D01*
G01*
X13485000Y-11680000D02*
G75*
G03*
X13485000Y-11680000I-5000J0D01*
G01*
X13495000Y-7400000D02*
G75*
G03*
X13495000Y-7400000I-5000J0D01*
G01*
X13495312Y-7519738D02*
G75*
G03*
X13495312Y-7519738I-5000J0D01*
G01*
X13565337Y-7059663D02*
G75*
G03*
X13565337Y-7059663I-5000J0D01*
G01*
X13602837Y-7097163D02*
G75*
G03*
X13602837Y-7097163I-5000J0D01*
G01*
X13610300Y-7005000D02*
G75*
G03*
X13610300Y-7005000I-5000J0D01*
G01*
X13629412Y-9804412D02*
G75*
G03*
X13629412Y-9804412I-5000J0D01*
G01*
X13636175Y-7130502D02*
G75*
G03*
X13636175Y-7130502I-5000J0D01*
G01*
X13645250Y-7040784D02*
G75*
G03*
X13645250Y-7040784I-5000J0D01*
G01*
X13670337Y-7164663D02*
G75*
G03*
X13670337Y-7164663I-5000J0D01*
G01*
X13680087Y-9396046D02*
G75*
G03*
X13680087Y-9396046I-5000J0D01*
G01*
X13680087Y-9445473D02*
G75*
G03*
X13680087Y-9445473I-5000J0D01*
G01*
X13680087Y-9494899D02*
G75*
G03*
X13680087Y-9494899I-5000J0D01*
G01*
X13680088Y-9346618D02*
G75*
G03*
X13680088Y-9346618I-5000J0D01*
G01*
X13680200Y-7075731D02*
G75*
G03*
X13680200Y-7075731I-5000J0D01*
G01*
X13693000Y-9868000D02*
G75*
G03*
X13693000Y-9868000I-5000J0D01*
G01*
X13707837Y-7202163D02*
G75*
G03*
X13707837Y-7202163I-5000J0D01*
G01*
X13710288Y-7105817D02*
G75*
G03*
X13710288Y-7105817I-5000J0D01*
G01*
X13741197Y-6378001D02*
G75*
G03*
X13741197Y-6378001I-5000J0D01*
G01*
X13745238Y-7140781D02*
G75*
G03*
X13745238Y-7140781I-5000J0D01*
G01*
X13750150Y-7249663D02*
G75*
G03*
X13750150Y-7249663I-5000J0D01*
G01*
X13780150Y-6900000D02*
G75*
G03*
X13780150Y-6900000I-5000J0D01*
G01*
X13780188Y-7175661D02*
G75*
G03*
X13780188Y-7175661I-5000J0D01*
G01*
X13810225Y-6305748D02*
G75*
G03*
X13810225Y-6305748I-5000J0D01*
G01*
X13815013Y-6409390D02*
G75*
G03*
X13815013Y-6409390I-5000J0D01*
G01*
X13845100Y-6340679D02*
G75*
G03*
X13845100Y-6340679I-5000J0D01*
G01*
X13845100Y-7820386D02*
G75*
G03*
X13845100Y-7820386I-5000J0D01*
G01*
X13845100Y-7860336D02*
G75*
G03*
X13845100Y-7860336I-5000J0D01*
G01*
X13845100Y-7900287D02*
G75*
G03*
X13845100Y-7900287I-5000J0D01*
G01*
X13880050Y-4635000D02*
G75*
G03*
X13880050Y-4635000I-5000J0D01*
G01*
X13880050Y-5210000D02*
G75*
G03*
X13880050Y-5210000I-5000J0D01*
G01*
X13880050Y-6100000D02*
G75*
G03*
X13880050Y-6100000I-5000J0D01*
G01*
X13989950Y-4635000D02*
G75*
G03*
X13989950Y-4635000I-5000J0D01*
G01*
X13989950Y-5210000D02*
G75*
G03*
X13989950Y-5210000I-5000J0D01*
G01*
X13989950Y-6100000D02*
G75*
G03*
X13989950Y-6100000I-5000J0D01*
G01*
X13989950Y-6900000D02*
G75*
G03*
X13989950Y-6900000I-5000J0D01*
G01*
X13989950Y-7820000D02*
G75*
G03*
X13989950Y-7820000I-5000J0D01*
G01*
X13989950Y-7860000D02*
G75*
G03*
X13989950Y-7860000I-5000J0D01*
G01*
X13989950Y-7900000D02*
G75*
G03*
X13989950Y-7900000I-5000J0D01*
G01*
X14029948Y-9464851D02*
G75*
G03*
X14029948Y-9464851I-5000J0D01*
G01*
X14029950Y-9345000D02*
G75*
G03*
X14029950Y-9345000I-5000J0D01*
G01*
X14029950Y-9384950D02*
G75*
G03*
X14029950Y-9384950I-5000J0D01*
G01*
X14030030Y-9424901D02*
G75*
G03*
X14030030Y-9424901I-5000J0D01*
G01*
X14415000Y-11715000D02*
G75*
G03*
X14415000Y-11715000I-5000J0D01*
G01*
X14415434Y-4193530D02*
G75*
G03*
X14415434Y-4193530I-5000J0D01*
G01*
X14440000Y-4225000D02*
G75*
G03*
X14440000Y-4225000I-5000J0D01*
G01*
X14476833Y-4131755D02*
G75*
G03*
X14476833Y-4131755I-5000J0D01*
G01*
X14503485Y-4161514D02*
G75*
G03*
X14503485Y-4161514I-5000J0D01*
G01*
X14645000Y-11715000D02*
G75*
G03*
X14645000Y-11715000I-5000J0D01*
G01*
D14*
X6191000Y-4647738D02*
X6191000Y-4687738D01*
X6171000Y-4667738D02*
X6211000Y-4667738D01*
X6191000Y-4792638D02*
X6191000Y-4832638D01*
X6171000Y-4812638D02*
X6211000Y-4812638D01*
X6191000Y-6552737D02*
X6191000Y-6592737D01*
X6171000Y-6572737D02*
X6211000Y-6572737D01*
X6191000Y-6697637D02*
X6191000Y-6737637D01*
X6171000Y-6717637D02*
X6211000Y-6717637D01*
X7324675Y-5760000D02*
X7324675Y-5800000D01*
X7304675Y-5780000D02*
X7344675Y-5780000D01*
X7469575Y-5756000D02*
X7469575Y-5796000D01*
X7449575Y-5776000D02*
X7489575Y-5776000D01*
X12918176Y-7669176D02*
X12918176Y-7709176D01*
X12898176Y-7689176D02*
X12938176Y-7689176D01*
X13039675Y-5760000D02*
X13039675Y-5800000D01*
X13019675Y-5780000D02*
X13059675Y-5780000D01*
X13065050Y-11157500D02*
X13065050Y-11197500D01*
X13045050Y-11177500D02*
X13085050Y-11177500D01*
X13095050Y-11261472D02*
X13095050Y-11301472D01*
X13075050Y-11281472D02*
X13115050Y-11281472D01*
X13120136Y-7672136D02*
X13120136Y-7712136D01*
X13100136Y-7692136D02*
X13140136Y-7692136D01*
X13184575Y-5760000D02*
X13184575Y-5800000D01*
X13164575Y-5780000D02*
X13204575Y-5780000D01*
X13272500Y-11410000D02*
X13272500Y-11450000D01*
X13252500Y-11430000D02*
X13292500Y-11430000D01*
X13444000Y-10168000D02*
X13444000Y-10208000D01*
X13424000Y-10188000D02*
X13464000Y-10188000D01*
X13475000Y-2640000D02*
X13475000Y-2680000D01*
X13455000Y-2660000D02*
X13495000Y-2660000D01*
X13480250Y-9978000D02*
X13480250Y-10018000D01*
X13460250Y-9998000D02*
X13500250Y-9998000D01*
X13670000Y-2360000D02*
X13670000Y-2400000D01*
X13650000Y-2380000D02*
X13690000Y-2380000D01*
X13687750Y-9978000D02*
X13687750Y-10018000D01*
X13667750Y-9998000D02*
X13707750Y-9998000D01*
X13698000Y-10168000D02*
X13698000Y-10208000D01*
X13678000Y-10188000D02*
X13718000Y-10188000D01*
X13705000Y-4325000D02*
X13705000Y-4365000D01*
X13685000Y-4345000D02*
X13725000Y-4345000D01*
X13724202Y-2657590D02*
X13724202Y-2697590D01*
X13704202Y-2677590D02*
X13744202Y-2677590D01*
X13794110Y-3731570D02*
X13794110Y-3771570D01*
X13774110Y-3751570D02*
X13814110Y-3751570D01*
X13795000Y-3505000D02*
X13795000Y-3545000D01*
X13775000Y-3525000D02*
X13815000Y-3525000D01*
X13807500Y-4647738D02*
X13807500Y-4687738D01*
X13787500Y-4667738D02*
X13827500Y-4667738D01*
X13807500Y-4792638D02*
X13807500Y-4832638D01*
X13787500Y-4812638D02*
X13827500Y-4812638D01*
X13810000Y-8850000D02*
X13810000Y-8890000D01*
X13790000Y-8870000D02*
X13830000Y-8870000D01*
X13820000Y-10675000D02*
X13820000Y-10715000D01*
X13800000Y-10695000D02*
X13840000Y-10695000D01*
X13875000Y-2660000D02*
X13875000Y-2700000D01*
X13855000Y-2680000D02*
X13895000Y-2680000D01*
X13915000Y-4325000D02*
X13915000Y-4365000D01*
X13895000Y-4345000D02*
X13935000Y-4345000D01*
X13930000Y-2360000D02*
X13930000Y-2400000D01*
X13910000Y-2380000D02*
X13950000Y-2380000D01*
X13960717Y-10909950D02*
X13960717Y-10949950D01*
X13940717Y-10929950D02*
X13980717Y-10929950D01*
X13961354Y-10750050D02*
X13961354Y-10790050D01*
X13941354Y-10770050D02*
X13981354Y-10770050D01*
X14055000Y-11157500D02*
X14055000Y-11197500D01*
X14035000Y-11177500D02*
X14075000Y-11177500D01*
X14055000Y-11277500D02*
X14055000Y-11317500D01*
X14035000Y-11297500D02*
X14075000Y-11297500D01*
X14055000Y-11410000D02*
X14055000Y-11450000D01*
X14035000Y-11430000D02*
X14075000Y-11430000D01*
X14125000Y-2640000D02*
X14125000Y-2680000D01*
X14105000Y-2660000D02*
X14145000Y-2660000D01*
X14254750Y-8203000D02*
X14254750Y-8243000D01*
X14234750Y-8223000D02*
X14274750Y-8223000D01*
X14295000Y-10675000D02*
X14295000Y-10715000D01*
X14275000Y-10695000D02*
X14315000Y-10695000D01*
X14395250Y-11032000D02*
X14395250Y-11072000D01*
X14375250Y-11052000D02*
X14415250Y-11052000D01*
X14944675Y-5760000D02*
X14944675Y-5800000D01*
X14924675Y-5780000D02*
X14964675Y-5780000D01*
X15006989Y-7670011D02*
X15006989Y-7710011D01*
X14986989Y-7690011D02*
X15026989Y-7690011D01*
X15031750Y-8316000D02*
X15031750Y-8356000D01*
X15011750Y-8336000D02*
X15051750Y-8336000D01*
X15089575Y-5760000D02*
X15089575Y-5800000D01*
X15069575Y-5780000D02*
X15109575Y-5780000D01*
X15208449Y-7666551D02*
X15208449Y-7706551D01*
X15188449Y-7686551D02*
X15228449Y-7686551D01*
X20659675Y-3864000D02*
X20659675Y-3904000D01*
X20639675Y-3884000D02*
X20679675Y-3884000D01*
X20659675Y-5758000D02*
X20659675Y-5798000D01*
X20639675Y-5778000D02*
X20679675Y-5778000D01*
X20804575Y-5758000D02*
X20804575Y-5798000D01*
X20784575Y-5778000D02*
X20824575Y-5778000D01*
X20817000Y-3862000D02*
X20817000Y-3902000D01*
X20797000Y-3882000D02*
X20837000Y-3882000D01*
X21431000Y-4792638D02*
X21431000Y-4832638D01*
X21411000Y-4812638D02*
X21451000Y-4812638D01*
X21435000Y-4647738D02*
X21435000Y-4687738D01*
X21415000Y-4667738D02*
X21455000Y-4667738D01*
D15*
X13389213Y-2093713D02*
X13389213Y-2051287D01*
X13346787Y-2051287D01*
X13346787Y-2093713D01*
X13389213Y-2093713D01*
D11*
X13398000Y-2102500D02*
X13398000Y-2042500D01*
X13398000Y-2042500D02*
G75*
G03*
X13338000Y-2042500I-30000J0D01*
G01*
X13338000Y-2042500D02*
X13338000Y-2102500D01*
X13338000Y-2102500D02*
G75*
G03*
X13398000Y-2102500I30000J0D01*
G01*
D15*
X13389213Y-2511713D02*
X13389213Y-2469287D01*
X13346787Y-2469287D01*
X13346787Y-2511713D01*
X13389213Y-2511713D01*
D11*
X13398000Y-2545500D02*
X13398000Y-2435500D01*
X13398000Y-2435500D02*
G75*
G03*
X13338000Y-2435500I-30000J0D01*
G01*
X13338000Y-2435500D02*
X13338000Y-2545500D01*
X13338000Y-2545500D02*
G75*
G03*
X13398000Y-2545500I30000J0D01*
G01*
D15*
X14253213Y-2093713D02*
X14253213Y-2051287D01*
X14210787Y-2051287D01*
X14210787Y-2093713D01*
X14253213Y-2093713D01*
D11*
X14262000Y-2102500D02*
X14262000Y-2042500D01*
X14262000Y-2042500D02*
G75*
G03*
X14202000Y-2042500I-30000J0D01*
G01*
X14202000Y-2042500D02*
X14202000Y-2102500D01*
X14202000Y-2102500D02*
G75*
G03*
X14262000Y-2102500I30000J0D01*
G01*
D15*
X14253213Y-2511713D02*
X14253213Y-2469287D01*
X14210787Y-2469287D01*
X14210787Y-2511713D01*
X14253213Y-2511713D01*
D11*
X14262000Y-2545500D02*
X14262000Y-2435500D01*
X14262000Y-2435500D02*
G75*
G03*
X14202000Y-2435500I-30000J0D01*
G01*
X14202000Y-2435500D02*
X14202000Y-2545500D01*
X14202000Y-2545500D02*
G75*
G03*
X14262000Y-2545500I30000J0D01*
G01*
D10*
X13629500Y-11982000D02*
X13679500Y-11932000D01*
X13629500Y-11882000D01*
X13579500Y-11932000D01*
X13629500Y-11982000D01*
X13629500Y-12236000D02*
X13679500Y-12186000D01*
X13629500Y-12136000D01*
X13579500Y-12186000D01*
X13629500Y-12236000D01*
X13990500Y-11982000D02*
X14040500Y-11932000D01*
X13990500Y-11882000D01*
X13940500Y-11932000D01*
X13990500Y-11982000D01*
X13990500Y-12236000D02*
X14040500Y-12186000D01*
X13990500Y-12136000D01*
X13940500Y-12186000D01*
X13990500Y-12236000D01*
D16*
X2877125Y-8729188D02*
X3027125Y-8879188D01*
X3027125Y-8729188D02*
X2877125Y-8879188D01*
X3027125Y-8804188D02*
G75*
G03*
X3027125Y-8804188I-75000J0D01*
G01*
X3512125Y-8475188D02*
X3662125Y-8625188D01*
X3662125Y-8475188D02*
X3512125Y-8625188D01*
X3662125Y-8550188D02*
G75*
G03*
X3662125Y-8550188I-75000J0D01*
G01*
X3829625Y-3014187D02*
X3979625Y-3164187D01*
X3979625Y-3014187D02*
X3829625Y-3164187D01*
X3979625Y-3089187D02*
G75*
G03*
X3979625Y-3089187I-75000J0D01*
G01*
X4464625Y-2760188D02*
X4614625Y-2910187D01*
X4614625Y-2760188D02*
X4464625Y-2910187D01*
X4614625Y-2835187D02*
G75*
G03*
X4614625Y-2835187I-75000J0D01*
G01*
X4782125Y-4919188D02*
X4932125Y-5069188D01*
X4932125Y-4919188D02*
X4782125Y-5069188D01*
X4932125Y-4994188D02*
G75*
G03*
X4932125Y-4994188I-75000J0D01*
G01*
X5417125Y-4665188D02*
X5567125Y-4815188D01*
X5567125Y-4665188D02*
X5417125Y-4815188D01*
X5567125Y-4740188D02*
G75*
G03*
X5567125Y-4740188I-75000J0D01*
G01*
X6687125Y-3014187D02*
X6837125Y-3164187D01*
X6837125Y-3014187D02*
X6687125Y-3164187D01*
X6837125Y-3089187D02*
G75*
G03*
X6837125Y-3089187I-75000J0D01*
G01*
X6687125Y-4919188D02*
X6837125Y-5069188D01*
X6837125Y-4919188D02*
X6687125Y-5069188D01*
X6837125Y-4994188D02*
G75*
G03*
X6837125Y-4994188I-75000J0D01*
G01*
X6687125Y-6824187D02*
X6837125Y-6974187D01*
X6837125Y-6824187D02*
X6687125Y-6974187D01*
X6837125Y-6899187D02*
G75*
G03*
X6837125Y-6899187I-75000J0D01*
G01*
X7322125Y-2760188D02*
X7472125Y-2910187D01*
X7472125Y-2760188D02*
X7322125Y-2910187D01*
X7472125Y-2835187D02*
G75*
G03*
X7472125Y-2835187I-75000J0D01*
G01*
X7322125Y-4665188D02*
X7472125Y-4815188D01*
X7472125Y-4665188D02*
X7322125Y-4815188D01*
X7472125Y-4740188D02*
G75*
G03*
X7472125Y-4740188I-75000J0D01*
G01*
X7322125Y-6570187D02*
X7472125Y-6720187D01*
X7472125Y-6570187D02*
X7322125Y-6720187D01*
X7472125Y-6645187D02*
G75*
G03*
X7472125Y-6645187I-75000J0D01*
G01*
X8592125Y-4919188D02*
X8742125Y-5069188D01*
X8742125Y-4919188D02*
X8592125Y-5069188D01*
X8742125Y-4994188D02*
G75*
G03*
X8742125Y-4994188I-75000J0D01*
G01*
X9227125Y-4665188D02*
X9377125Y-4815188D01*
X9377125Y-4665188D02*
X9227125Y-4815188D01*
X9377125Y-4740188D02*
G75*
G03*
X9377125Y-4740188I-75000J0D01*
G01*
X9544625Y-10634188D02*
X9694625Y-10784188D01*
X9694625Y-10634188D02*
X9544625Y-10784188D01*
X9694625Y-10709188D02*
G75*
G03*
X9694625Y-10709188I-75000J0D01*
G01*
X10179625Y-10380188D02*
X10329625Y-10530188D01*
X10329625Y-10380188D02*
X10179625Y-10530188D01*
X10329625Y-10455188D02*
G75*
G03*
X10329625Y-10455188I-75000J0D01*
G01*
X12402125Y-4919188D02*
X12552125Y-5069188D01*
X12552125Y-4919188D02*
X12402125Y-5069188D01*
X12552125Y-4994188D02*
G75*
G03*
X12552125Y-4994188I-75000J0D01*
G01*
X12402125Y-6824187D02*
X12552125Y-6974187D01*
X12552125Y-6824187D02*
X12402125Y-6974187D01*
X12552125Y-6899187D02*
G75*
G03*
X12552125Y-6899187I-75000J0D01*
G01*
X13037125Y-4665188D02*
X13187125Y-4815188D01*
X13187125Y-4665188D02*
X13037125Y-4815188D01*
X13187125Y-4740188D02*
G75*
G03*
X13187125Y-4740188I-75000J0D01*
G01*
X13037125Y-6570187D02*
X13187125Y-6720187D01*
X13187125Y-6570187D02*
X13037125Y-6720187D01*
X13187125Y-6645187D02*
G75*
G03*
X13187125Y-6645187I-75000J0D01*
G01*
X14307125Y-4919188D02*
X14457125Y-5069188D01*
X14457125Y-4919188D02*
X14307125Y-5069188D01*
X14457125Y-4994188D02*
G75*
G03*
X14457125Y-4994188I-75000J0D01*
G01*
X14307125Y-6824187D02*
X14457125Y-6974187D01*
X14457125Y-6824187D02*
X14307125Y-6974187D01*
X14457125Y-6899187D02*
G75*
G03*
X14457125Y-6899187I-75000J0D01*
G01*
X14942125Y-4665188D02*
X15092125Y-4815188D01*
X15092125Y-4665188D02*
X14942125Y-4815188D01*
X15092125Y-4740188D02*
G75*
G03*
X15092125Y-4740188I-75000J0D01*
G01*
X14942125Y-6570187D02*
X15092125Y-6720187D01*
X15092125Y-6570187D02*
X14942125Y-6720187D01*
X15092125Y-6645187D02*
G75*
G03*
X15092125Y-6645187I-75000J0D01*
G01*
X17164625Y-10634188D02*
X17314625Y-10784188D01*
X17314625Y-10634188D02*
X17164625Y-10784188D01*
X17314625Y-10709188D02*
G75*
G03*
X17314625Y-10709188I-75000J0D01*
G01*
X17799625Y-10380188D02*
X17949625Y-10530188D01*
X17949625Y-10380188D02*
X17799625Y-10530188D01*
X17949625Y-10455188D02*
G75*
G03*
X17949625Y-10455188I-75000J0D01*
G01*
X18117125Y-4919188D02*
X18267125Y-5069188D01*
X18267125Y-4919188D02*
X18117125Y-5069188D01*
X18267125Y-4994188D02*
G75*
G03*
X18267125Y-4994188I-75000J0D01*
G01*
X18752125Y-4665188D02*
X18902125Y-4815188D01*
X18902125Y-4665188D02*
X18752125Y-4815188D01*
X18902125Y-4740188D02*
G75*
G03*
X18902125Y-4740188I-75000J0D01*
G01*
X20022125Y-3014187D02*
X20172125Y-3164187D01*
X20172125Y-3014187D02*
X20022125Y-3164187D01*
X20172125Y-3089187D02*
G75*
G03*
X20172125Y-3089187I-75000J0D01*
G01*
X20022125Y-4919188D02*
X20172125Y-5069188D01*
X20172125Y-4919188D02*
X20022125Y-5069188D01*
X20172125Y-4994188D02*
G75*
G03*
X20172125Y-4994188I-75000J0D01*
G01*
X20022125Y-6824187D02*
X20172125Y-6974187D01*
X20172125Y-6824187D02*
X20022125Y-6974187D01*
X20172125Y-6899187D02*
G75*
G03*
X20172125Y-6899187I-75000J0D01*
G01*
X20657125Y-2760188D02*
X20807125Y-2910187D01*
X20807125Y-2760188D02*
X20657125Y-2910187D01*
X20807125Y-2835187D02*
G75*
G03*
X20807125Y-2835187I-75000J0D01*
G01*
X20657125Y-4665188D02*
X20807125Y-4815188D01*
X20807125Y-4665188D02*
X20657125Y-4815188D01*
X20807125Y-4740188D02*
G75*
G03*
X20807125Y-4740188I-75000J0D01*
G01*
X20657125Y-6570187D02*
X20807125Y-6720187D01*
X20807125Y-6570187D02*
X20657125Y-6720187D01*
X20807125Y-6645187D02*
G75*
G03*
X20807125Y-6645187I-75000J0D01*
G01*
X21927125Y-4919188D02*
X22077125Y-5069188D01*
X22077125Y-4919188D02*
X21927125Y-5069188D01*
X22077125Y-4994188D02*
G75*
G03*
X22077125Y-4994188I-75000J0D01*
G01*
X22562125Y-4665188D02*
X22712125Y-4815188D01*
X22712125Y-4665188D02*
X22562125Y-4815188D01*
X22712125Y-4740188D02*
G75*
G03*
X22712125Y-4740188I-75000J0D01*
G01*
X22879625Y-3014187D02*
X23029625Y-3164187D01*
X23029625Y-3014187D02*
X22879625Y-3164187D01*
X23029625Y-3089187D02*
G75*
G03*
X23029625Y-3089187I-75000J0D01*
G01*
X23514625Y-2760188D02*
X23664625Y-2910187D01*
X23664625Y-2760188D02*
X23514625Y-2910187D01*
X23664625Y-2835187D02*
G75*
G03*
X23664625Y-2835187I-75000J0D01*
G01*
X23832125Y-8729188D02*
X23982125Y-8879188D01*
X23982125Y-8729188D02*
X23832125Y-8879188D01*
X23982125Y-8804188D02*
G75*
G03*
X23982125Y-8804188I-75000J0D01*
G01*
X24467125Y-8475188D02*
X24617125Y-8625188D01*
X24617125Y-8475188D02*
X24467125Y-8625188D01*
X24617125Y-8550188D02*
G75*
G03*
X24617125Y-8550188I-75000J0D01*
G01*
D11*
X2055777Y-12816484D02*
X2055777Y-12616484D01*
X2055777Y-12616484D02*
X2103396Y-12616484D01*
X2103396Y-12616484D02*
X2131967Y-12626008D01*
X2131967Y-12626008D02*
X2151015Y-12645055D01*
X2151015Y-12645055D02*
X2160539Y-12664103D01*
X2160539Y-12664103D02*
X2170063Y-12702198D01*
X2170063Y-12702198D02*
X2170063Y-12730769D01*
X2170063Y-12730769D02*
X2160539Y-12768865D01*
X2160539Y-12768865D02*
X2151015Y-12787912D01*
X2151015Y-12787912D02*
X2131967Y-12806960D01*
X2131967Y-12806960D02*
X2103396Y-12816484D01*
X2103396Y-12816484D02*
X2055777Y-12816484D01*
X2255777Y-12816484D02*
X2255777Y-12683150D01*
X2255777Y-12721246D02*
X2265301Y-12702198D01*
X2265301Y-12702198D02*
X2274824Y-12692674D01*
X2274824Y-12692674D02*
X2293872Y-12683150D01*
X2293872Y-12683150D02*
X2312920Y-12683150D01*
X2379586Y-12816484D02*
X2379586Y-12683150D01*
X2379586Y-12616484D02*
X2370063Y-12626008D01*
X2370063Y-12626008D02*
X2379586Y-12635531D01*
X2379586Y-12635531D02*
X2389110Y-12626008D01*
X2389110Y-12626008D02*
X2379586Y-12616484D01*
X2379586Y-12616484D02*
X2379586Y-12635531D01*
X2503396Y-12816484D02*
X2484348Y-12806960D01*
X2484348Y-12806960D02*
X2474824Y-12787912D01*
X2474824Y-12787912D02*
X2474824Y-12616484D01*
X2608158Y-12816484D02*
X2589110Y-12806960D01*
X2589110Y-12806960D02*
X2579586Y-12787912D01*
X2579586Y-12787912D02*
X2579586Y-12616484D01*
X2836729Y-12816484D02*
X2836729Y-12616484D01*
X2836729Y-12616484D02*
X2903396Y-12759341D01*
X2903396Y-12759341D02*
X2970062Y-12616484D01*
X2970062Y-12616484D02*
X2970062Y-12816484D01*
X3151015Y-12816484D02*
X3151015Y-12711722D01*
X3151015Y-12711722D02*
X3141491Y-12692674D01*
X3141491Y-12692674D02*
X3122443Y-12683150D01*
X3122443Y-12683150D02*
X3084348Y-12683150D01*
X3084348Y-12683150D02*
X3065301Y-12692674D01*
X3151015Y-12806960D02*
X3131967Y-12816484D01*
X3131967Y-12816484D02*
X3084348Y-12816484D01*
X3084348Y-12816484D02*
X3065301Y-12806960D01*
X3065301Y-12806960D02*
X3055777Y-12787912D01*
X3055777Y-12787912D02*
X3055777Y-12768865D01*
X3055777Y-12768865D02*
X3065301Y-12749817D01*
X3065301Y-12749817D02*
X3084348Y-12740293D01*
X3084348Y-12740293D02*
X3131967Y-12740293D01*
X3131967Y-12740293D02*
X3151015Y-12730769D01*
X3246253Y-12683150D02*
X3246253Y-12883150D01*
X3246253Y-12692674D02*
X3265301Y-12683150D01*
X3265301Y-12683150D02*
X3303396Y-12683150D01*
X3303396Y-12683150D02*
X3322443Y-12692674D01*
X3322443Y-12692674D02*
X3331967Y-12702198D01*
X3331967Y-12702198D02*
X3341491Y-12721246D01*
X3341491Y-12721246D02*
X3341491Y-12778388D01*
X3341491Y-12778388D02*
X3331967Y-12797436D01*
X3331967Y-12797436D02*
X3322443Y-12806960D01*
X3322443Y-12806960D02*
X3303396Y-12816484D01*
X3303396Y-12816484D02*
X3265301Y-12816484D01*
X3265301Y-12816484D02*
X3246253Y-12806960D01*
X3427205Y-12797436D02*
X3436729Y-12806960D01*
X3436729Y-12806960D02*
X3427205Y-12816484D01*
X3427205Y-12816484D02*
X3417682Y-12806960D01*
X3417682Y-12806960D02*
X3427205Y-12797436D01*
X3427205Y-12797436D02*
X3427205Y-12816484D01*
X3427205Y-12692674D02*
X3436729Y-12702198D01*
X3436729Y-12702198D02*
X3427205Y-12711722D01*
X3427205Y-12711722D02*
X3417682Y-12702198D01*
X3417682Y-12702198D02*
X3427205Y-12692674D01*
X3427205Y-12692674D02*
X3427205Y-12711722D01*
D12*
X1790000Y-13142500D02*
X1795000Y-13147500D01*
X1795000Y-13142500D02*
X1790000Y-13147500D01*
D11*
X2093872Y-13036484D02*
X2112920Y-13036484D01*
X2112920Y-13036484D02*
X2131967Y-13046008D01*
X2131967Y-13046008D02*
X2141491Y-13055531D01*
X2141491Y-13055531D02*
X2151015Y-13074579D01*
X2151015Y-13074579D02*
X2160539Y-13112674D01*
X2160539Y-13112674D02*
X2160539Y-13160293D01*
X2160539Y-13160293D02*
X2151015Y-13198388D01*
X2151015Y-13198388D02*
X2141491Y-13217436D01*
X2141491Y-13217436D02*
X2131967Y-13226960D01*
X2131967Y-13226960D02*
X2112920Y-13236484D01*
X2112920Y-13236484D02*
X2093872Y-13236484D01*
X2093872Y-13236484D02*
X2074824Y-13226960D01*
X2074824Y-13226960D02*
X2065301Y-13217436D01*
X2065301Y-13217436D02*
X2055777Y-13198388D01*
X2055777Y-13198388D02*
X2046253Y-13160293D01*
X2046253Y-13160293D02*
X2046253Y-13112674D01*
X2046253Y-13112674D02*
X2055777Y-13074579D01*
X2055777Y-13074579D02*
X2065301Y-13055531D01*
X2065301Y-13055531D02*
X2074824Y-13046008D01*
X2074824Y-13046008D02*
X2093872Y-13036484D01*
X2246253Y-13217436D02*
X2255777Y-13226960D01*
X2255777Y-13226960D02*
X2246253Y-13236484D01*
X2246253Y-13236484D02*
X2236729Y-13226960D01*
X2236729Y-13226960D02*
X2246253Y-13217436D01*
X2246253Y-13217436D02*
X2246253Y-13236484D01*
X2379586Y-13036484D02*
X2398634Y-13036484D01*
X2398634Y-13036484D02*
X2417682Y-13046008D01*
X2417682Y-13046008D02*
X2427205Y-13055531D01*
X2427205Y-13055531D02*
X2436729Y-13074579D01*
X2436729Y-13074579D02*
X2446253Y-13112674D01*
X2446253Y-13112674D02*
X2446253Y-13160293D01*
X2446253Y-13160293D02*
X2436729Y-13198388D01*
X2436729Y-13198388D02*
X2427205Y-13217436D01*
X2427205Y-13217436D02*
X2417682Y-13226960D01*
X2417682Y-13226960D02*
X2398634Y-13236484D01*
X2398634Y-13236484D02*
X2379586Y-13236484D01*
X2379586Y-13236484D02*
X2360539Y-13226960D01*
X2360539Y-13226960D02*
X2351015Y-13217436D01*
X2351015Y-13217436D02*
X2341491Y-13198388D01*
X2341491Y-13198388D02*
X2331967Y-13160293D01*
X2331967Y-13160293D02*
X2331967Y-13112674D01*
X2331967Y-13112674D02*
X2341491Y-13074579D01*
X2341491Y-13074579D02*
X2351015Y-13055531D01*
X2351015Y-13055531D02*
X2360539Y-13046008D01*
X2360539Y-13046008D02*
X2379586Y-13036484D01*
X2627205Y-13036484D02*
X2531967Y-13036484D01*
X2531967Y-13036484D02*
X2522444Y-13131722D01*
X2522444Y-13131722D02*
X2531967Y-13122198D01*
X2531967Y-13122198D02*
X2551015Y-13112674D01*
X2551015Y-13112674D02*
X2598634Y-13112674D01*
X2598634Y-13112674D02*
X2617682Y-13122198D01*
X2617682Y-13122198D02*
X2627205Y-13131722D01*
X2627205Y-13131722D02*
X2636729Y-13150769D01*
X2636729Y-13150769D02*
X2636729Y-13198388D01*
X2636729Y-13198388D02*
X2627205Y-13217436D01*
X2627205Y-13217436D02*
X2617682Y-13226960D01*
X2617682Y-13226960D02*
X2598634Y-13236484D01*
X2598634Y-13236484D02*
X2551015Y-13236484D01*
X2551015Y-13236484D02*
X2531967Y-13226960D01*
X2531967Y-13226960D02*
X2522444Y-13217436D01*
X2760539Y-13036484D02*
X2779586Y-13036484D01*
X2779586Y-13036484D02*
X2798634Y-13046008D01*
X2798634Y-13046008D02*
X2808158Y-13055531D01*
X2808158Y-13055531D02*
X2817682Y-13074579D01*
X2817682Y-13074579D02*
X2827205Y-13112674D01*
X2827205Y-13112674D02*
X2827205Y-13160293D01*
X2827205Y-13160293D02*
X2817682Y-13198388D01*
X2817682Y-13198388D02*
X2808158Y-13217436D01*
X2808158Y-13217436D02*
X2798634Y-13226960D01*
X2798634Y-13226960D02*
X2779586Y-13236484D01*
X2779586Y-13236484D02*
X2760539Y-13236484D01*
X2760539Y-13236484D02*
X2741491Y-13226960D01*
X2741491Y-13226960D02*
X2731967Y-13217436D01*
X2731967Y-13217436D02*
X2722444Y-13198388D01*
X2722444Y-13198388D02*
X2712920Y-13160293D01*
X2712920Y-13160293D02*
X2712920Y-13112674D01*
X2712920Y-13112674D02*
X2722444Y-13074579D01*
X2722444Y-13074579D02*
X2731967Y-13055531D01*
X2731967Y-13055531D02*
X2741491Y-13046008D01*
X2741491Y-13046008D02*
X2760539Y-13036484D01*
X2912920Y-13236484D02*
X2912920Y-13103150D01*
X2912920Y-13122198D02*
X2922443Y-13112674D01*
X2922443Y-13112674D02*
X2941491Y-13103150D01*
X2941491Y-13103150D02*
X2970063Y-13103150D01*
X2970063Y-13103150D02*
X2989110Y-13112674D01*
X2989110Y-13112674D02*
X2998634Y-13131722D01*
X2998634Y-13131722D02*
X2998634Y-13236484D01*
X2998634Y-13131722D02*
X3008158Y-13112674D01*
X3008158Y-13112674D02*
X3027205Y-13103150D01*
X3027205Y-13103150D02*
X3055777Y-13103150D01*
X3055777Y-13103150D02*
X3074824Y-13112674D01*
X3074824Y-13112674D02*
X3084348Y-13131722D01*
X3084348Y-13131722D02*
X3084348Y-13236484D01*
X3179586Y-13236484D02*
X3179586Y-13103150D01*
X3179586Y-13122198D02*
X3189110Y-13112674D01*
X3189110Y-13112674D02*
X3208158Y-13103150D01*
X3208158Y-13103150D02*
X3236729Y-13103150D01*
X3236729Y-13103150D02*
X3255777Y-13112674D01*
X3255777Y-13112674D02*
X3265301Y-13131722D01*
X3265301Y-13131722D02*
X3265301Y-13236484D01*
X3265301Y-13131722D02*
X3274824Y-13112674D01*
X3274824Y-13112674D02*
X3293872Y-13103150D01*
X3293872Y-13103150D02*
X3322443Y-13103150D01*
X3322443Y-13103150D02*
X3341491Y-13112674D01*
X3341491Y-13112674D02*
X3351015Y-13131722D01*
X3351015Y-13131722D02*
X3351015Y-13236484D01*
X3741491Y-13026960D02*
X3570063Y-13284103D01*
X3998634Y-13036484D02*
X4017682Y-13036484D01*
X4017682Y-13036484D02*
X4036729Y-13046008D01*
X4036729Y-13046008D02*
X4046253Y-13055531D01*
X4046253Y-13055531D02*
X4055777Y-13074579D01*
X4055777Y-13074579D02*
X4065301Y-13112674D01*
X4065301Y-13112674D02*
X4065301Y-13160293D01*
X4065301Y-13160293D02*
X4055777Y-13198388D01*
X4055777Y-13198388D02*
X4046253Y-13217436D01*
X4046253Y-13217436D02*
X4036729Y-13226960D01*
X4036729Y-13226960D02*
X4017682Y-13236484D01*
X4017682Y-13236484D02*
X3998634Y-13236484D01*
X3998634Y-13236484D02*
X3979586Y-13226960D01*
X3979586Y-13226960D02*
X3970063Y-13217436D01*
X3970063Y-13217436D02*
X3960539Y-13198388D01*
X3960539Y-13198388D02*
X3951015Y-13160293D01*
X3951015Y-13160293D02*
X3951015Y-13112674D01*
X3951015Y-13112674D02*
X3960539Y-13074579D01*
X3960539Y-13074579D02*
X3970063Y-13055531D01*
X3970063Y-13055531D02*
X3979586Y-13046008D01*
X3979586Y-13046008D02*
X3998634Y-13036484D01*
X4151015Y-13217436D02*
X4160539Y-13226960D01*
X4160539Y-13226960D02*
X4151015Y-13236484D01*
X4151015Y-13236484D02*
X4141491Y-13226960D01*
X4141491Y-13226960D02*
X4151015Y-13217436D01*
X4151015Y-13217436D02*
X4151015Y-13236484D01*
X4284348Y-13036484D02*
X4303396Y-13036484D01*
X4303396Y-13036484D02*
X4322444Y-13046008D01*
X4322444Y-13046008D02*
X4331968Y-13055531D01*
X4331968Y-13055531D02*
X4341491Y-13074579D01*
X4341491Y-13074579D02*
X4351015Y-13112674D01*
X4351015Y-13112674D02*
X4351015Y-13160293D01*
X4351015Y-13160293D02*
X4341491Y-13198388D01*
X4341491Y-13198388D02*
X4331968Y-13217436D01*
X4331968Y-13217436D02*
X4322444Y-13226960D01*
X4322444Y-13226960D02*
X4303396Y-13236484D01*
X4303396Y-13236484D02*
X4284348Y-13236484D01*
X4284348Y-13236484D02*
X4265301Y-13226960D01*
X4265301Y-13226960D02*
X4255777Y-13217436D01*
X4255777Y-13217436D02*
X4246253Y-13198388D01*
X4246253Y-13198388D02*
X4236729Y-13160293D01*
X4236729Y-13160293D02*
X4236729Y-13112674D01*
X4236729Y-13112674D02*
X4246253Y-13074579D01*
X4246253Y-13074579D02*
X4255777Y-13055531D01*
X4255777Y-13055531D02*
X4265301Y-13046008D01*
X4265301Y-13046008D02*
X4284348Y-13036484D01*
X4474825Y-13036484D02*
X4493872Y-13036484D01*
X4493872Y-13036484D02*
X4512920Y-13046008D01*
X4512920Y-13046008D02*
X4522444Y-13055531D01*
X4522444Y-13055531D02*
X4531968Y-13074579D01*
X4531968Y-13074579D02*
X4541491Y-13112674D01*
X4541491Y-13112674D02*
X4541491Y-13160293D01*
X4541491Y-13160293D02*
X4531968Y-13198388D01*
X4531968Y-13198388D02*
X4522444Y-13217436D01*
X4522444Y-13217436D02*
X4512920Y-13226960D01*
X4512920Y-13226960D02*
X4493872Y-13236484D01*
X4493872Y-13236484D02*
X4474825Y-13236484D01*
X4474825Y-13236484D02*
X4455777Y-13226960D01*
X4455777Y-13226960D02*
X4446253Y-13217436D01*
X4446253Y-13217436D02*
X4436729Y-13198388D01*
X4436729Y-13198388D02*
X4427206Y-13160293D01*
X4427206Y-13160293D02*
X4427206Y-13112674D01*
X4427206Y-13112674D02*
X4436729Y-13074579D01*
X4436729Y-13074579D02*
X4446253Y-13055531D01*
X4446253Y-13055531D02*
X4455777Y-13046008D01*
X4455777Y-13046008D02*
X4474825Y-13036484D01*
X4617682Y-13055531D02*
X4627206Y-13046008D01*
X4627206Y-13046008D02*
X4646253Y-13036484D01*
X4646253Y-13036484D02*
X4693872Y-13036484D01*
X4693872Y-13036484D02*
X4712920Y-13046008D01*
X4712920Y-13046008D02*
X4722444Y-13055531D01*
X4722444Y-13055531D02*
X4731968Y-13074579D01*
X4731968Y-13074579D02*
X4731968Y-13093627D01*
X4731968Y-13093627D02*
X4722444Y-13122198D01*
X4722444Y-13122198D02*
X4608158Y-13236484D01*
X4608158Y-13236484D02*
X4731968Y-13236484D01*
X4855777Y-13036484D02*
X4874825Y-13036484D01*
X4874825Y-13036484D02*
X4893872Y-13046008D01*
X4893872Y-13046008D02*
X4903396Y-13055531D01*
X4903396Y-13055531D02*
X4912920Y-13074579D01*
X4912920Y-13074579D02*
X4922444Y-13112674D01*
X4922444Y-13112674D02*
X4922444Y-13160293D01*
X4922444Y-13160293D02*
X4912920Y-13198388D01*
X4912920Y-13198388D02*
X4903396Y-13217436D01*
X4903396Y-13217436D02*
X4893872Y-13226960D01*
X4893872Y-13226960D02*
X4874825Y-13236484D01*
X4874825Y-13236484D02*
X4855777Y-13236484D01*
X4855777Y-13236484D02*
X4836729Y-13226960D01*
X4836729Y-13226960D02*
X4827206Y-13217436D01*
X4827206Y-13217436D02*
X4817682Y-13198388D01*
X4817682Y-13198388D02*
X4808158Y-13160293D01*
X4808158Y-13160293D02*
X4808158Y-13112674D01*
X4808158Y-13112674D02*
X4817682Y-13074579D01*
X4817682Y-13074579D02*
X4827206Y-13055531D01*
X4827206Y-13055531D02*
X4836729Y-13046008D01*
X4836729Y-13046008D02*
X4855777Y-13036484D01*
X4998634Y-13036484D02*
X4998634Y-13074579D01*
X5074825Y-13036484D02*
X5074825Y-13074579D01*
X5370063Y-13312674D02*
X5360539Y-13303150D01*
X5360539Y-13303150D02*
X5341491Y-13274579D01*
X5341491Y-13274579D02*
X5331968Y-13255531D01*
X5331968Y-13255531D02*
X5322444Y-13226960D01*
X5322444Y-13226960D02*
X5312920Y-13179341D01*
X5312920Y-13179341D02*
X5312920Y-13141246D01*
X5312920Y-13141246D02*
X5322444Y-13093627D01*
X5322444Y-13093627D02*
X5331968Y-13065055D01*
X5331968Y-13065055D02*
X5341491Y-13046008D01*
X5341491Y-13046008D02*
X5360539Y-13017436D01*
X5360539Y-13017436D02*
X5370063Y-13007912D01*
X5551015Y-13236484D02*
X5436730Y-13236484D01*
X5493872Y-13236484D02*
X5493872Y-13036484D01*
X5493872Y-13036484D02*
X5474825Y-13065055D01*
X5474825Y-13065055D02*
X5455777Y-13084103D01*
X5455777Y-13084103D02*
X5436730Y-13093627D01*
X5617682Y-13036484D02*
X5741491Y-13036484D01*
X5741491Y-13036484D02*
X5674825Y-13112674D01*
X5674825Y-13112674D02*
X5703396Y-13112674D01*
X5703396Y-13112674D02*
X5722444Y-13122198D01*
X5722444Y-13122198D02*
X5731968Y-13131722D01*
X5731968Y-13131722D02*
X5741491Y-13150769D01*
X5741491Y-13150769D02*
X5741491Y-13198388D01*
X5741491Y-13198388D02*
X5731968Y-13217436D01*
X5731968Y-13217436D02*
X5722444Y-13226960D01*
X5722444Y-13226960D02*
X5703396Y-13236484D01*
X5703396Y-13236484D02*
X5646253Y-13236484D01*
X5646253Y-13236484D02*
X5627206Y-13226960D01*
X5627206Y-13226960D02*
X5617682Y-13217436D01*
X5979587Y-13236484D02*
X5979587Y-13036484D01*
X6065301Y-13236484D02*
X6065301Y-13131722D01*
X6065301Y-13131722D02*
X6055777Y-13112674D01*
X6055777Y-13112674D02*
X6036730Y-13103150D01*
X6036730Y-13103150D02*
X6008158Y-13103150D01*
X6008158Y-13103150D02*
X5989110Y-13112674D01*
X5989110Y-13112674D02*
X5979587Y-13122198D01*
X6189110Y-13236484D02*
X6170063Y-13226960D01*
X6170063Y-13226960D02*
X6160539Y-13217436D01*
X6160539Y-13217436D02*
X6151015Y-13198388D01*
X6151015Y-13198388D02*
X6151015Y-13141246D01*
X6151015Y-13141246D02*
X6160539Y-13122198D01*
X6160539Y-13122198D02*
X6170063Y-13112674D01*
X6170063Y-13112674D02*
X6189110Y-13103150D01*
X6189110Y-13103150D02*
X6217682Y-13103150D01*
X6217682Y-13103150D02*
X6236730Y-13112674D01*
X6236730Y-13112674D02*
X6246253Y-13122198D01*
X6246253Y-13122198D02*
X6255777Y-13141246D01*
X6255777Y-13141246D02*
X6255777Y-13198388D01*
X6255777Y-13198388D02*
X6246253Y-13217436D01*
X6246253Y-13217436D02*
X6236730Y-13226960D01*
X6236730Y-13226960D02*
X6217682Y-13236484D01*
X6217682Y-13236484D02*
X6189110Y-13236484D01*
X6370063Y-13236484D02*
X6351015Y-13226960D01*
X6351015Y-13226960D02*
X6341491Y-13207912D01*
X6341491Y-13207912D02*
X6341491Y-13036484D01*
X6522444Y-13226960D02*
X6503396Y-13236484D01*
X6503396Y-13236484D02*
X6465301Y-13236484D01*
X6465301Y-13236484D02*
X6446253Y-13226960D01*
X6446253Y-13226960D02*
X6436730Y-13207912D01*
X6436730Y-13207912D02*
X6436730Y-13131722D01*
X6436730Y-13131722D02*
X6446253Y-13112674D01*
X6446253Y-13112674D02*
X6465301Y-13103150D01*
X6465301Y-13103150D02*
X6503396Y-13103150D01*
X6503396Y-13103150D02*
X6522444Y-13112674D01*
X6522444Y-13112674D02*
X6531968Y-13131722D01*
X6531968Y-13131722D02*
X6531968Y-13150769D01*
X6531968Y-13150769D02*
X6436730Y-13169817D01*
X6608158Y-13226960D02*
X6627206Y-13236484D01*
X6627206Y-13236484D02*
X6665301Y-13236484D01*
X6665301Y-13236484D02*
X6684349Y-13226960D01*
X6684349Y-13226960D02*
X6693872Y-13207912D01*
X6693872Y-13207912D02*
X6693872Y-13198388D01*
X6693872Y-13198388D02*
X6684349Y-13179341D01*
X6684349Y-13179341D02*
X6665301Y-13169817D01*
X6665301Y-13169817D02*
X6636730Y-13169817D01*
X6636730Y-13169817D02*
X6617682Y-13160293D01*
X6617682Y-13160293D02*
X6608158Y-13141246D01*
X6608158Y-13141246D02*
X6608158Y-13131722D01*
X6608158Y-13131722D02*
X6617682Y-13112674D01*
X6617682Y-13112674D02*
X6636730Y-13103150D01*
X6636730Y-13103150D02*
X6665301Y-13103150D01*
X6665301Y-13103150D02*
X6684349Y-13112674D01*
X6760539Y-13312674D02*
X6770063Y-13303150D01*
X6770063Y-13303150D02*
X6789111Y-13274579D01*
X6789111Y-13274579D02*
X6798634Y-13255531D01*
X6798634Y-13255531D02*
X6808158Y-13226960D01*
X6808158Y-13226960D02*
X6817682Y-13179341D01*
X6817682Y-13179341D02*
X6817682Y-13141246D01*
X6817682Y-13141246D02*
X6808158Y-13093627D01*
X6808158Y-13093627D02*
X6798634Y-13065055D01*
X6798634Y-13065055D02*
X6789111Y-13046008D01*
X6789111Y-13046008D02*
X6770063Y-13017436D01*
X6770063Y-13017436D02*
X6760539Y-13007912D01*
D13*
X1795000Y-13409000D02*
G75*
G03*
X1795000Y-13409000I-5000J0D01*
G01*
D11*
X2093872Y-13300484D02*
X2112920Y-13300484D01*
X2112920Y-13300484D02*
X2131967Y-13310008D01*
X2131967Y-13310008D02*
X2141491Y-13319531D01*
X2141491Y-13319531D02*
X2151015Y-13338579D01*
X2151015Y-13338579D02*
X2160539Y-13376674D01*
X2160539Y-13376674D02*
X2160539Y-13424293D01*
X2160539Y-13424293D02*
X2151015Y-13462388D01*
X2151015Y-13462388D02*
X2141491Y-13481436D01*
X2141491Y-13481436D02*
X2131967Y-13490960D01*
X2131967Y-13490960D02*
X2112920Y-13500484D01*
X2112920Y-13500484D02*
X2093872Y-13500484D01*
X2093872Y-13500484D02*
X2074824Y-13490960D01*
X2074824Y-13490960D02*
X2065301Y-13481436D01*
X2065301Y-13481436D02*
X2055777Y-13462388D01*
X2055777Y-13462388D02*
X2046253Y-13424293D01*
X2046253Y-13424293D02*
X2046253Y-13376674D01*
X2046253Y-13376674D02*
X2055777Y-13338579D01*
X2055777Y-13338579D02*
X2065301Y-13319531D01*
X2065301Y-13319531D02*
X2074824Y-13310008D01*
X2074824Y-13310008D02*
X2093872Y-13300484D01*
X2246253Y-13481436D02*
X2255777Y-13490960D01*
X2255777Y-13490960D02*
X2246253Y-13500484D01*
X2246253Y-13500484D02*
X2236729Y-13490960D01*
X2236729Y-13490960D02*
X2246253Y-13481436D01*
X2246253Y-13481436D02*
X2246253Y-13500484D01*
X2446253Y-13500484D02*
X2331967Y-13500484D01*
X2389110Y-13500484D02*
X2389110Y-13300484D01*
X2389110Y-13300484D02*
X2370063Y-13329055D01*
X2370063Y-13329055D02*
X2351015Y-13348103D01*
X2351015Y-13348103D02*
X2331967Y-13357627D01*
X2570063Y-13300484D02*
X2589110Y-13300484D01*
X2589110Y-13300484D02*
X2608158Y-13310008D01*
X2608158Y-13310008D02*
X2617682Y-13319531D01*
X2617682Y-13319531D02*
X2627205Y-13338579D01*
X2627205Y-13338579D02*
X2636729Y-13376674D01*
X2636729Y-13376674D02*
X2636729Y-13424293D01*
X2636729Y-13424293D02*
X2627205Y-13462388D01*
X2627205Y-13462388D02*
X2617682Y-13481436D01*
X2617682Y-13481436D02*
X2608158Y-13490960D01*
X2608158Y-13490960D02*
X2589110Y-13500484D01*
X2589110Y-13500484D02*
X2570063Y-13500484D01*
X2570063Y-13500484D02*
X2551015Y-13490960D01*
X2551015Y-13490960D02*
X2541491Y-13481436D01*
X2541491Y-13481436D02*
X2531967Y-13462388D01*
X2531967Y-13462388D02*
X2522444Y-13424293D01*
X2522444Y-13424293D02*
X2522444Y-13376674D01*
X2522444Y-13376674D02*
X2531967Y-13338579D01*
X2531967Y-13338579D02*
X2541491Y-13319531D01*
X2541491Y-13319531D02*
X2551015Y-13310008D01*
X2551015Y-13310008D02*
X2570063Y-13300484D01*
X2760539Y-13300484D02*
X2779586Y-13300484D01*
X2779586Y-13300484D02*
X2798634Y-13310008D01*
X2798634Y-13310008D02*
X2808158Y-13319531D01*
X2808158Y-13319531D02*
X2817682Y-13338579D01*
X2817682Y-13338579D02*
X2827205Y-13376674D01*
X2827205Y-13376674D02*
X2827205Y-13424293D01*
X2827205Y-13424293D02*
X2817682Y-13462388D01*
X2817682Y-13462388D02*
X2808158Y-13481436D01*
X2808158Y-13481436D02*
X2798634Y-13490960D01*
X2798634Y-13490960D02*
X2779586Y-13500484D01*
X2779586Y-13500484D02*
X2760539Y-13500484D01*
X2760539Y-13500484D02*
X2741491Y-13490960D01*
X2741491Y-13490960D02*
X2731967Y-13481436D01*
X2731967Y-13481436D02*
X2722444Y-13462388D01*
X2722444Y-13462388D02*
X2712920Y-13424293D01*
X2712920Y-13424293D02*
X2712920Y-13376674D01*
X2712920Y-13376674D02*
X2722444Y-13338579D01*
X2722444Y-13338579D02*
X2731967Y-13319531D01*
X2731967Y-13319531D02*
X2741491Y-13310008D01*
X2741491Y-13310008D02*
X2760539Y-13300484D01*
X2912920Y-13500484D02*
X2912920Y-13367150D01*
X2912920Y-13386198D02*
X2922443Y-13376674D01*
X2922443Y-13376674D02*
X2941491Y-13367150D01*
X2941491Y-13367150D02*
X2970063Y-13367150D01*
X2970063Y-13367150D02*
X2989110Y-13376674D01*
X2989110Y-13376674D02*
X2998634Y-13395722D01*
X2998634Y-13395722D02*
X2998634Y-13500484D01*
X2998634Y-13395722D02*
X3008158Y-13376674D01*
X3008158Y-13376674D02*
X3027205Y-13367150D01*
X3027205Y-13367150D02*
X3055777Y-13367150D01*
X3055777Y-13367150D02*
X3074824Y-13376674D01*
X3074824Y-13376674D02*
X3084348Y-13395722D01*
X3084348Y-13395722D02*
X3084348Y-13500484D01*
X3179586Y-13500484D02*
X3179586Y-13367150D01*
X3179586Y-13386198D02*
X3189110Y-13376674D01*
X3189110Y-13376674D02*
X3208158Y-13367150D01*
X3208158Y-13367150D02*
X3236729Y-13367150D01*
X3236729Y-13367150D02*
X3255777Y-13376674D01*
X3255777Y-13376674D02*
X3265301Y-13395722D01*
X3265301Y-13395722D02*
X3265301Y-13500484D01*
X3265301Y-13395722D02*
X3274824Y-13376674D01*
X3274824Y-13376674D02*
X3293872Y-13367150D01*
X3293872Y-13367150D02*
X3322443Y-13367150D01*
X3322443Y-13367150D02*
X3341491Y-13376674D01*
X3341491Y-13376674D02*
X3351015Y-13395722D01*
X3351015Y-13395722D02*
X3351015Y-13500484D01*
X3741491Y-13290960D02*
X3570063Y-13548103D01*
X3998634Y-13300484D02*
X4017682Y-13300484D01*
X4017682Y-13300484D02*
X4036729Y-13310008D01*
X4036729Y-13310008D02*
X4046253Y-13319531D01*
X4046253Y-13319531D02*
X4055777Y-13338579D01*
X4055777Y-13338579D02*
X4065301Y-13376674D01*
X4065301Y-13376674D02*
X4065301Y-13424293D01*
X4065301Y-13424293D02*
X4055777Y-13462388D01*
X4055777Y-13462388D02*
X4046253Y-13481436D01*
X4046253Y-13481436D02*
X4036729Y-13490960D01*
X4036729Y-13490960D02*
X4017682Y-13500484D01*
X4017682Y-13500484D02*
X3998634Y-13500484D01*
X3998634Y-13500484D02*
X3979586Y-13490960D01*
X3979586Y-13490960D02*
X3970063Y-13481436D01*
X3970063Y-13481436D02*
X3960539Y-13462388D01*
X3960539Y-13462388D02*
X3951015Y-13424293D01*
X3951015Y-13424293D02*
X3951015Y-13376674D01*
X3951015Y-13376674D02*
X3960539Y-13338579D01*
X3960539Y-13338579D02*
X3970063Y-13319531D01*
X3970063Y-13319531D02*
X3979586Y-13310008D01*
X3979586Y-13310008D02*
X3998634Y-13300484D01*
X4151015Y-13481436D02*
X4160539Y-13490960D01*
X4160539Y-13490960D02*
X4151015Y-13500484D01*
X4151015Y-13500484D02*
X4141491Y-13490960D01*
X4141491Y-13490960D02*
X4151015Y-13481436D01*
X4151015Y-13481436D02*
X4151015Y-13500484D01*
X4284348Y-13300484D02*
X4303396Y-13300484D01*
X4303396Y-13300484D02*
X4322444Y-13310008D01*
X4322444Y-13310008D02*
X4331968Y-13319531D01*
X4331968Y-13319531D02*
X4341491Y-13338579D01*
X4341491Y-13338579D02*
X4351015Y-13376674D01*
X4351015Y-13376674D02*
X4351015Y-13424293D01*
X4351015Y-13424293D02*
X4341491Y-13462388D01*
X4341491Y-13462388D02*
X4331968Y-13481436D01*
X4331968Y-13481436D02*
X4322444Y-13490960D01*
X4322444Y-13490960D02*
X4303396Y-13500484D01*
X4303396Y-13500484D02*
X4284348Y-13500484D01*
X4284348Y-13500484D02*
X4265301Y-13490960D01*
X4265301Y-13490960D02*
X4255777Y-13481436D01*
X4255777Y-13481436D02*
X4246253Y-13462388D01*
X4246253Y-13462388D02*
X4236729Y-13424293D01*
X4236729Y-13424293D02*
X4236729Y-13376674D01*
X4236729Y-13376674D02*
X4246253Y-13338579D01*
X4246253Y-13338579D02*
X4255777Y-13319531D01*
X4255777Y-13319531D02*
X4265301Y-13310008D01*
X4265301Y-13310008D02*
X4284348Y-13300484D01*
X4474825Y-13300484D02*
X4493872Y-13300484D01*
X4493872Y-13300484D02*
X4512920Y-13310008D01*
X4512920Y-13310008D02*
X4522444Y-13319531D01*
X4522444Y-13319531D02*
X4531968Y-13338579D01*
X4531968Y-13338579D02*
X4541491Y-13376674D01*
X4541491Y-13376674D02*
X4541491Y-13424293D01*
X4541491Y-13424293D02*
X4531968Y-13462388D01*
X4531968Y-13462388D02*
X4522444Y-13481436D01*
X4522444Y-13481436D02*
X4512920Y-13490960D01*
X4512920Y-13490960D02*
X4493872Y-13500484D01*
X4493872Y-13500484D02*
X4474825Y-13500484D01*
X4474825Y-13500484D02*
X4455777Y-13490960D01*
X4455777Y-13490960D02*
X4446253Y-13481436D01*
X4446253Y-13481436D02*
X4436729Y-13462388D01*
X4436729Y-13462388D02*
X4427206Y-13424293D01*
X4427206Y-13424293D02*
X4427206Y-13376674D01*
X4427206Y-13376674D02*
X4436729Y-13338579D01*
X4436729Y-13338579D02*
X4446253Y-13319531D01*
X4446253Y-13319531D02*
X4455777Y-13310008D01*
X4455777Y-13310008D02*
X4474825Y-13300484D01*
X4608158Y-13300484D02*
X4731968Y-13300484D01*
X4731968Y-13300484D02*
X4665301Y-13376674D01*
X4665301Y-13376674D02*
X4693872Y-13376674D01*
X4693872Y-13376674D02*
X4712920Y-13386198D01*
X4712920Y-13386198D02*
X4722444Y-13395722D01*
X4722444Y-13395722D02*
X4731968Y-13414769D01*
X4731968Y-13414769D02*
X4731968Y-13462388D01*
X4731968Y-13462388D02*
X4722444Y-13481436D01*
X4722444Y-13481436D02*
X4712920Y-13490960D01*
X4712920Y-13490960D02*
X4693872Y-13500484D01*
X4693872Y-13500484D02*
X4636729Y-13500484D01*
X4636729Y-13500484D02*
X4617682Y-13490960D01*
X4617682Y-13490960D02*
X4608158Y-13481436D01*
X4827206Y-13500484D02*
X4865301Y-13500484D01*
X4865301Y-13500484D02*
X4884349Y-13490960D01*
X4884349Y-13490960D02*
X4893872Y-13481436D01*
X4893872Y-13481436D02*
X4912920Y-13452865D01*
X4912920Y-13452865D02*
X4922444Y-13414769D01*
X4922444Y-13414769D02*
X4922444Y-13338579D01*
X4922444Y-13338579D02*
X4912920Y-13319531D01*
X4912920Y-13319531D02*
X4903396Y-13310008D01*
X4903396Y-13310008D02*
X4884349Y-13300484D01*
X4884349Y-13300484D02*
X4846253Y-13300484D01*
X4846253Y-13300484D02*
X4827206Y-13310008D01*
X4827206Y-13310008D02*
X4817682Y-13319531D01*
X4817682Y-13319531D02*
X4808158Y-13338579D01*
X4808158Y-13338579D02*
X4808158Y-13386198D01*
X4808158Y-13386198D02*
X4817682Y-13405246D01*
X4817682Y-13405246D02*
X4827206Y-13414769D01*
X4827206Y-13414769D02*
X4846253Y-13424293D01*
X4846253Y-13424293D02*
X4884349Y-13424293D01*
X4884349Y-13424293D02*
X4903396Y-13414769D01*
X4903396Y-13414769D02*
X4912920Y-13405246D01*
X4912920Y-13405246D02*
X4922444Y-13386198D01*
X4998634Y-13300484D02*
X4998634Y-13338579D01*
X5074825Y-13300484D02*
X5074825Y-13338579D01*
X5370063Y-13576674D02*
X5360539Y-13567150D01*
X5360539Y-13567150D02*
X5341491Y-13538579D01*
X5341491Y-13538579D02*
X5331968Y-13519531D01*
X5331968Y-13519531D02*
X5322444Y-13490960D01*
X5322444Y-13490960D02*
X5312920Y-13443341D01*
X5312920Y-13443341D02*
X5312920Y-13405246D01*
X5312920Y-13405246D02*
X5322444Y-13357627D01*
X5322444Y-13357627D02*
X5331968Y-13329055D01*
X5331968Y-13329055D02*
X5341491Y-13310008D01*
X5341491Y-13310008D02*
X5360539Y-13281436D01*
X5360539Y-13281436D02*
X5370063Y-13271912D01*
X5551015Y-13500484D02*
X5436730Y-13500484D01*
X5493872Y-13500484D02*
X5493872Y-13300484D01*
X5493872Y-13300484D02*
X5474825Y-13329055D01*
X5474825Y-13329055D02*
X5455777Y-13348103D01*
X5455777Y-13348103D02*
X5436730Y-13357627D01*
X5674825Y-13300484D02*
X5693872Y-13300484D01*
X5693872Y-13300484D02*
X5712920Y-13310008D01*
X5712920Y-13310008D02*
X5722444Y-13319531D01*
X5722444Y-13319531D02*
X5731968Y-13338579D01*
X5731968Y-13338579D02*
X5741491Y-13376674D01*
X5741491Y-13376674D02*
X5741491Y-13424293D01*
X5741491Y-13424293D02*
X5731968Y-13462388D01*
X5731968Y-13462388D02*
X5722444Y-13481436D01*
X5722444Y-13481436D02*
X5712920Y-13490960D01*
X5712920Y-13490960D02*
X5693872Y-13500484D01*
X5693872Y-13500484D02*
X5674825Y-13500484D01*
X5674825Y-13500484D02*
X5655777Y-13490960D01*
X5655777Y-13490960D02*
X5646253Y-13481436D01*
X5646253Y-13481436D02*
X5636729Y-13462388D01*
X5636729Y-13462388D02*
X5627206Y-13424293D01*
X5627206Y-13424293D02*
X5627206Y-13376674D01*
X5627206Y-13376674D02*
X5636729Y-13338579D01*
X5636729Y-13338579D02*
X5646253Y-13319531D01*
X5646253Y-13319531D02*
X5655777Y-13310008D01*
X5655777Y-13310008D02*
X5674825Y-13300484D01*
X5808158Y-13300484D02*
X5941491Y-13300484D01*
X5941491Y-13300484D02*
X5855777Y-13500484D01*
X6170063Y-13500484D02*
X6170063Y-13300484D01*
X6255777Y-13500484D02*
X6255777Y-13395722D01*
X6255777Y-13395722D02*
X6246253Y-13376674D01*
X6246253Y-13376674D02*
X6227206Y-13367150D01*
X6227206Y-13367150D02*
X6198634Y-13367150D01*
X6198634Y-13367150D02*
X6179587Y-13376674D01*
X6179587Y-13376674D02*
X6170063Y-13386198D01*
X6379587Y-13500484D02*
X6360539Y-13490960D01*
X6360539Y-13490960D02*
X6351015Y-13481436D01*
X6351015Y-13481436D02*
X6341491Y-13462388D01*
X6341491Y-13462388D02*
X6341491Y-13405246D01*
X6341491Y-13405246D02*
X6351015Y-13386198D01*
X6351015Y-13386198D02*
X6360539Y-13376674D01*
X6360539Y-13376674D02*
X6379587Y-13367150D01*
X6379587Y-13367150D02*
X6408158Y-13367150D01*
X6408158Y-13367150D02*
X6427206Y-13376674D01*
X6427206Y-13376674D02*
X6436730Y-13386198D01*
X6436730Y-13386198D02*
X6446253Y-13405246D01*
X6446253Y-13405246D02*
X6446253Y-13462388D01*
X6446253Y-13462388D02*
X6436730Y-13481436D01*
X6436730Y-13481436D02*
X6427206Y-13490960D01*
X6427206Y-13490960D02*
X6408158Y-13500484D01*
X6408158Y-13500484D02*
X6379587Y-13500484D01*
X6560539Y-13500484D02*
X6541491Y-13490960D01*
X6541491Y-13490960D02*
X6531968Y-13471912D01*
X6531968Y-13471912D02*
X6531968Y-13300484D01*
X6712920Y-13490960D02*
X6693872Y-13500484D01*
X6693872Y-13500484D02*
X6655777Y-13500484D01*
X6655777Y-13500484D02*
X6636730Y-13490960D01*
X6636730Y-13490960D02*
X6627206Y-13471912D01*
X6627206Y-13471912D02*
X6627206Y-13395722D01*
X6627206Y-13395722D02*
X6636730Y-13376674D01*
X6636730Y-13376674D02*
X6655777Y-13367150D01*
X6655777Y-13367150D02*
X6693872Y-13367150D01*
X6693872Y-13367150D02*
X6712920Y-13376674D01*
X6712920Y-13376674D02*
X6722444Y-13395722D01*
X6722444Y-13395722D02*
X6722444Y-13414769D01*
X6722444Y-13414769D02*
X6627206Y-13433817D01*
X6798634Y-13490960D02*
X6817682Y-13500484D01*
X6817682Y-13500484D02*
X6855777Y-13500484D01*
X6855777Y-13500484D02*
X6874825Y-13490960D01*
X6874825Y-13490960D02*
X6884349Y-13471912D01*
X6884349Y-13471912D02*
X6884349Y-13462388D01*
X6884349Y-13462388D02*
X6874825Y-13443341D01*
X6874825Y-13443341D02*
X6855777Y-13433817D01*
X6855777Y-13433817D02*
X6827206Y-13433817D01*
X6827206Y-13433817D02*
X6808158Y-13424293D01*
X6808158Y-13424293D02*
X6798634Y-13405246D01*
X6798634Y-13405246D02*
X6798634Y-13395722D01*
X6798634Y-13395722D02*
X6808158Y-13376674D01*
X6808158Y-13376674D02*
X6827206Y-13367150D01*
X6827206Y-13367150D02*
X6855777Y-13367150D01*
X6855777Y-13367150D02*
X6874825Y-13376674D01*
X6951015Y-13576674D02*
X6960539Y-13567150D01*
X6960539Y-13567150D02*
X6979587Y-13538579D01*
X6979587Y-13538579D02*
X6989111Y-13519531D01*
X6989111Y-13519531D02*
X6998634Y-13490960D01*
X6998634Y-13490960D02*
X7008158Y-13443341D01*
X7008158Y-13443341D02*
X7008158Y-13405246D01*
X7008158Y-13405246D02*
X6998634Y-13357627D01*
X6998634Y-13357627D02*
X6989111Y-13329055D01*
X6989111Y-13329055D02*
X6979587Y-13310008D01*
X6979587Y-13310008D02*
X6960539Y-13281436D01*
X6960539Y-13281436D02*
X6951015Y-13271912D01*
D14*
X1775000Y-13653000D02*
X1775000Y-13693000D01*
X1755000Y-13673000D02*
X1795000Y-13673000D01*
D11*
X2093872Y-13564484D02*
X2112920Y-13564484D01*
X2112920Y-13564484D02*
X2131967Y-13574008D01*
X2131967Y-13574008D02*
X2141491Y-13583531D01*
X2141491Y-13583531D02*
X2151015Y-13602579D01*
X2151015Y-13602579D02*
X2160539Y-13640674D01*
X2160539Y-13640674D02*
X2160539Y-13688293D01*
X2160539Y-13688293D02*
X2151015Y-13726388D01*
X2151015Y-13726388D02*
X2141491Y-13745436D01*
X2141491Y-13745436D02*
X2131967Y-13754960D01*
X2131967Y-13754960D02*
X2112920Y-13764484D01*
X2112920Y-13764484D02*
X2093872Y-13764484D01*
X2093872Y-13764484D02*
X2074824Y-13754960D01*
X2074824Y-13754960D02*
X2065301Y-13745436D01*
X2065301Y-13745436D02*
X2055777Y-13726388D01*
X2055777Y-13726388D02*
X2046253Y-13688293D01*
X2046253Y-13688293D02*
X2046253Y-13640674D01*
X2046253Y-13640674D02*
X2055777Y-13602579D01*
X2055777Y-13602579D02*
X2065301Y-13583531D01*
X2065301Y-13583531D02*
X2074824Y-13574008D01*
X2074824Y-13574008D02*
X2093872Y-13564484D01*
X2246253Y-13745436D02*
X2255777Y-13754960D01*
X2255777Y-13754960D02*
X2246253Y-13764484D01*
X2246253Y-13764484D02*
X2236729Y-13754960D01*
X2236729Y-13754960D02*
X2246253Y-13745436D01*
X2246253Y-13745436D02*
X2246253Y-13764484D01*
X2427205Y-13631150D02*
X2427205Y-13764484D01*
X2379586Y-13554960D02*
X2331967Y-13697817D01*
X2331967Y-13697817D02*
X2455777Y-13697817D01*
X2570063Y-13564484D02*
X2589110Y-13564484D01*
X2589110Y-13564484D02*
X2608158Y-13574008D01*
X2608158Y-13574008D02*
X2617682Y-13583531D01*
X2617682Y-13583531D02*
X2627205Y-13602579D01*
X2627205Y-13602579D02*
X2636729Y-13640674D01*
X2636729Y-13640674D02*
X2636729Y-13688293D01*
X2636729Y-13688293D02*
X2627205Y-13726388D01*
X2627205Y-13726388D02*
X2617682Y-13745436D01*
X2617682Y-13745436D02*
X2608158Y-13754960D01*
X2608158Y-13754960D02*
X2589110Y-13764484D01*
X2589110Y-13764484D02*
X2570063Y-13764484D01*
X2570063Y-13764484D02*
X2551015Y-13754960D01*
X2551015Y-13754960D02*
X2541491Y-13745436D01*
X2541491Y-13745436D02*
X2531967Y-13726388D01*
X2531967Y-13726388D02*
X2522444Y-13688293D01*
X2522444Y-13688293D02*
X2522444Y-13640674D01*
X2522444Y-13640674D02*
X2531967Y-13602579D01*
X2531967Y-13602579D02*
X2541491Y-13583531D01*
X2541491Y-13583531D02*
X2551015Y-13574008D01*
X2551015Y-13574008D02*
X2570063Y-13564484D01*
X2760539Y-13564484D02*
X2779586Y-13564484D01*
X2779586Y-13564484D02*
X2798634Y-13574008D01*
X2798634Y-13574008D02*
X2808158Y-13583531D01*
X2808158Y-13583531D02*
X2817682Y-13602579D01*
X2817682Y-13602579D02*
X2827205Y-13640674D01*
X2827205Y-13640674D02*
X2827205Y-13688293D01*
X2827205Y-13688293D02*
X2817682Y-13726388D01*
X2817682Y-13726388D02*
X2808158Y-13745436D01*
X2808158Y-13745436D02*
X2798634Y-13754960D01*
X2798634Y-13754960D02*
X2779586Y-13764484D01*
X2779586Y-13764484D02*
X2760539Y-13764484D01*
X2760539Y-13764484D02*
X2741491Y-13754960D01*
X2741491Y-13754960D02*
X2731967Y-13745436D01*
X2731967Y-13745436D02*
X2722444Y-13726388D01*
X2722444Y-13726388D02*
X2712920Y-13688293D01*
X2712920Y-13688293D02*
X2712920Y-13640674D01*
X2712920Y-13640674D02*
X2722444Y-13602579D01*
X2722444Y-13602579D02*
X2731967Y-13583531D01*
X2731967Y-13583531D02*
X2741491Y-13574008D01*
X2741491Y-13574008D02*
X2760539Y-13564484D01*
X2912920Y-13764484D02*
X2912920Y-13631150D01*
X2912920Y-13650198D02*
X2922443Y-13640674D01*
X2922443Y-13640674D02*
X2941491Y-13631150D01*
X2941491Y-13631150D02*
X2970063Y-13631150D01*
X2970063Y-13631150D02*
X2989110Y-13640674D01*
X2989110Y-13640674D02*
X2998634Y-13659722D01*
X2998634Y-13659722D02*
X2998634Y-13764484D01*
X2998634Y-13659722D02*
X3008158Y-13640674D01*
X3008158Y-13640674D02*
X3027205Y-13631150D01*
X3027205Y-13631150D02*
X3055777Y-13631150D01*
X3055777Y-13631150D02*
X3074824Y-13640674D01*
X3074824Y-13640674D02*
X3084348Y-13659722D01*
X3084348Y-13659722D02*
X3084348Y-13764484D01*
X3179586Y-13764484D02*
X3179586Y-13631150D01*
X3179586Y-13650198D02*
X3189110Y-13640674D01*
X3189110Y-13640674D02*
X3208158Y-13631150D01*
X3208158Y-13631150D02*
X3236729Y-13631150D01*
X3236729Y-13631150D02*
X3255777Y-13640674D01*
X3255777Y-13640674D02*
X3265301Y-13659722D01*
X3265301Y-13659722D02*
X3265301Y-13764484D01*
X3265301Y-13659722D02*
X3274824Y-13640674D01*
X3274824Y-13640674D02*
X3293872Y-13631150D01*
X3293872Y-13631150D02*
X3322443Y-13631150D01*
X3322443Y-13631150D02*
X3341491Y-13640674D01*
X3341491Y-13640674D02*
X3351015Y-13659722D01*
X3351015Y-13659722D02*
X3351015Y-13764484D01*
X3741491Y-13554960D02*
X3570063Y-13812103D01*
X3998634Y-13564484D02*
X4017682Y-13564484D01*
X4017682Y-13564484D02*
X4036729Y-13574008D01*
X4036729Y-13574008D02*
X4046253Y-13583531D01*
X4046253Y-13583531D02*
X4055777Y-13602579D01*
X4055777Y-13602579D02*
X4065301Y-13640674D01*
X4065301Y-13640674D02*
X4065301Y-13688293D01*
X4065301Y-13688293D02*
X4055777Y-13726388D01*
X4055777Y-13726388D02*
X4046253Y-13745436D01*
X4046253Y-13745436D02*
X4036729Y-13754960D01*
X4036729Y-13754960D02*
X4017682Y-13764484D01*
X4017682Y-13764484D02*
X3998634Y-13764484D01*
X3998634Y-13764484D02*
X3979586Y-13754960D01*
X3979586Y-13754960D02*
X3970063Y-13745436D01*
X3970063Y-13745436D02*
X3960539Y-13726388D01*
X3960539Y-13726388D02*
X3951015Y-13688293D01*
X3951015Y-13688293D02*
X3951015Y-13640674D01*
X3951015Y-13640674D02*
X3960539Y-13602579D01*
X3960539Y-13602579D02*
X3970063Y-13583531D01*
X3970063Y-13583531D02*
X3979586Y-13574008D01*
X3979586Y-13574008D02*
X3998634Y-13564484D01*
X4151015Y-13745436D02*
X4160539Y-13754960D01*
X4160539Y-13754960D02*
X4151015Y-13764484D01*
X4151015Y-13764484D02*
X4141491Y-13754960D01*
X4141491Y-13754960D02*
X4151015Y-13745436D01*
X4151015Y-13745436D02*
X4151015Y-13764484D01*
X4284348Y-13564484D02*
X4303396Y-13564484D01*
X4303396Y-13564484D02*
X4322444Y-13574008D01*
X4322444Y-13574008D02*
X4331968Y-13583531D01*
X4331968Y-13583531D02*
X4341491Y-13602579D01*
X4341491Y-13602579D02*
X4351015Y-13640674D01*
X4351015Y-13640674D02*
X4351015Y-13688293D01*
X4351015Y-13688293D02*
X4341491Y-13726388D01*
X4341491Y-13726388D02*
X4331968Y-13745436D01*
X4331968Y-13745436D02*
X4322444Y-13754960D01*
X4322444Y-13754960D02*
X4303396Y-13764484D01*
X4303396Y-13764484D02*
X4284348Y-13764484D01*
X4284348Y-13764484D02*
X4265301Y-13754960D01*
X4265301Y-13754960D02*
X4255777Y-13745436D01*
X4255777Y-13745436D02*
X4246253Y-13726388D01*
X4246253Y-13726388D02*
X4236729Y-13688293D01*
X4236729Y-13688293D02*
X4236729Y-13640674D01*
X4236729Y-13640674D02*
X4246253Y-13602579D01*
X4246253Y-13602579D02*
X4255777Y-13583531D01*
X4255777Y-13583531D02*
X4265301Y-13574008D01*
X4265301Y-13574008D02*
X4284348Y-13564484D01*
X4541491Y-13764484D02*
X4427206Y-13764484D01*
X4484348Y-13764484D02*
X4484348Y-13564484D01*
X4484348Y-13564484D02*
X4465301Y-13593055D01*
X4465301Y-13593055D02*
X4446253Y-13612103D01*
X4446253Y-13612103D02*
X4427206Y-13621627D01*
X4722444Y-13564484D02*
X4627206Y-13564484D01*
X4627206Y-13564484D02*
X4617682Y-13659722D01*
X4617682Y-13659722D02*
X4627206Y-13650198D01*
X4627206Y-13650198D02*
X4646253Y-13640674D01*
X4646253Y-13640674D02*
X4693872Y-13640674D01*
X4693872Y-13640674D02*
X4712920Y-13650198D01*
X4712920Y-13650198D02*
X4722444Y-13659722D01*
X4722444Y-13659722D02*
X4731968Y-13678769D01*
X4731968Y-13678769D02*
X4731968Y-13726388D01*
X4731968Y-13726388D02*
X4722444Y-13745436D01*
X4722444Y-13745436D02*
X4712920Y-13754960D01*
X4712920Y-13754960D02*
X4693872Y-13764484D01*
X4693872Y-13764484D02*
X4646253Y-13764484D01*
X4646253Y-13764484D02*
X4627206Y-13754960D01*
X4627206Y-13754960D02*
X4617682Y-13745436D01*
X4798634Y-13564484D02*
X4931968Y-13564484D01*
X4931968Y-13564484D02*
X4846253Y-13764484D01*
X4998634Y-13564484D02*
X4998634Y-13602579D01*
X5074825Y-13564484D02*
X5074825Y-13602579D01*
X5370063Y-13840674D02*
X5360539Y-13831150D01*
X5360539Y-13831150D02*
X5341491Y-13802579D01*
X5341491Y-13802579D02*
X5331968Y-13783531D01*
X5331968Y-13783531D02*
X5322444Y-13754960D01*
X5322444Y-13754960D02*
X5312920Y-13707341D01*
X5312920Y-13707341D02*
X5312920Y-13669246D01*
X5312920Y-13669246D02*
X5322444Y-13621627D01*
X5322444Y-13621627D02*
X5331968Y-13593055D01*
X5331968Y-13593055D02*
X5341491Y-13574008D01*
X5341491Y-13574008D02*
X5360539Y-13545436D01*
X5360539Y-13545436D02*
X5370063Y-13535912D01*
X5541491Y-13564484D02*
X5446253Y-13564484D01*
X5446253Y-13564484D02*
X5436730Y-13659722D01*
X5436730Y-13659722D02*
X5446253Y-13650198D01*
X5446253Y-13650198D02*
X5465301Y-13640674D01*
X5465301Y-13640674D02*
X5512920Y-13640674D01*
X5512920Y-13640674D02*
X5531968Y-13650198D01*
X5531968Y-13650198D02*
X5541491Y-13659722D01*
X5541491Y-13659722D02*
X5551015Y-13678769D01*
X5551015Y-13678769D02*
X5551015Y-13726388D01*
X5551015Y-13726388D02*
X5541491Y-13745436D01*
X5541491Y-13745436D02*
X5531968Y-13754960D01*
X5531968Y-13754960D02*
X5512920Y-13764484D01*
X5512920Y-13764484D02*
X5465301Y-13764484D01*
X5465301Y-13764484D02*
X5446253Y-13754960D01*
X5446253Y-13754960D02*
X5436730Y-13745436D01*
X5674825Y-13564484D02*
X5693872Y-13564484D01*
X5693872Y-13564484D02*
X5712920Y-13574008D01*
X5712920Y-13574008D02*
X5722444Y-13583531D01*
X5722444Y-13583531D02*
X5731968Y-13602579D01*
X5731968Y-13602579D02*
X5741491Y-13640674D01*
X5741491Y-13640674D02*
X5741491Y-13688293D01*
X5741491Y-13688293D02*
X5731968Y-13726388D01*
X5731968Y-13726388D02*
X5722444Y-13745436D01*
X5722444Y-13745436D02*
X5712920Y-13754960D01*
X5712920Y-13754960D02*
X5693872Y-13764484D01*
X5693872Y-13764484D02*
X5674825Y-13764484D01*
X5674825Y-13764484D02*
X5655777Y-13754960D01*
X5655777Y-13754960D02*
X5646253Y-13745436D01*
X5646253Y-13745436D02*
X5636729Y-13726388D01*
X5636729Y-13726388D02*
X5627206Y-13688293D01*
X5627206Y-13688293D02*
X5627206Y-13640674D01*
X5627206Y-13640674D02*
X5636729Y-13602579D01*
X5636729Y-13602579D02*
X5646253Y-13583531D01*
X5646253Y-13583531D02*
X5655777Y-13574008D01*
X5655777Y-13574008D02*
X5674825Y-13564484D01*
X5979587Y-13764484D02*
X5979587Y-13564484D01*
X6065301Y-13764484D02*
X6065301Y-13659722D01*
X6065301Y-13659722D02*
X6055777Y-13640674D01*
X6055777Y-13640674D02*
X6036730Y-13631150D01*
X6036730Y-13631150D02*
X6008158Y-13631150D01*
X6008158Y-13631150D02*
X5989110Y-13640674D01*
X5989110Y-13640674D02*
X5979587Y-13650198D01*
X6189110Y-13764484D02*
X6170063Y-13754960D01*
X6170063Y-13754960D02*
X6160539Y-13745436D01*
X6160539Y-13745436D02*
X6151015Y-13726388D01*
X6151015Y-13726388D02*
X6151015Y-13669246D01*
X6151015Y-13669246D02*
X6160539Y-13650198D01*
X6160539Y-13650198D02*
X6170063Y-13640674D01*
X6170063Y-13640674D02*
X6189110Y-13631150D01*
X6189110Y-13631150D02*
X6217682Y-13631150D01*
X6217682Y-13631150D02*
X6236730Y-13640674D01*
X6236730Y-13640674D02*
X6246253Y-13650198D01*
X6246253Y-13650198D02*
X6255777Y-13669246D01*
X6255777Y-13669246D02*
X6255777Y-13726388D01*
X6255777Y-13726388D02*
X6246253Y-13745436D01*
X6246253Y-13745436D02*
X6236730Y-13754960D01*
X6236730Y-13754960D02*
X6217682Y-13764484D01*
X6217682Y-13764484D02*
X6189110Y-13764484D01*
X6370063Y-13764484D02*
X6351015Y-13754960D01*
X6351015Y-13754960D02*
X6341491Y-13735912D01*
X6341491Y-13735912D02*
X6341491Y-13564484D01*
X6522444Y-13754960D02*
X6503396Y-13764484D01*
X6503396Y-13764484D02*
X6465301Y-13764484D01*
X6465301Y-13764484D02*
X6446253Y-13754960D01*
X6446253Y-13754960D02*
X6436730Y-13735912D01*
X6436730Y-13735912D02*
X6436730Y-13659722D01*
X6436730Y-13659722D02*
X6446253Y-13640674D01*
X6446253Y-13640674D02*
X6465301Y-13631150D01*
X6465301Y-13631150D02*
X6503396Y-13631150D01*
X6503396Y-13631150D02*
X6522444Y-13640674D01*
X6522444Y-13640674D02*
X6531968Y-13659722D01*
X6531968Y-13659722D02*
X6531968Y-13678769D01*
X6531968Y-13678769D02*
X6436730Y-13697817D01*
X6608158Y-13754960D02*
X6627206Y-13764484D01*
X6627206Y-13764484D02*
X6665301Y-13764484D01*
X6665301Y-13764484D02*
X6684349Y-13754960D01*
X6684349Y-13754960D02*
X6693872Y-13735912D01*
X6693872Y-13735912D02*
X6693872Y-13726388D01*
X6693872Y-13726388D02*
X6684349Y-13707341D01*
X6684349Y-13707341D02*
X6665301Y-13697817D01*
X6665301Y-13697817D02*
X6636730Y-13697817D01*
X6636730Y-13697817D02*
X6617682Y-13688293D01*
X6617682Y-13688293D02*
X6608158Y-13669246D01*
X6608158Y-13669246D02*
X6608158Y-13659722D01*
X6608158Y-13659722D02*
X6617682Y-13640674D01*
X6617682Y-13640674D02*
X6636730Y-13631150D01*
X6636730Y-13631150D02*
X6665301Y-13631150D01*
X6665301Y-13631150D02*
X6684349Y-13640674D01*
X6760539Y-13840674D02*
X6770063Y-13831150D01*
X6770063Y-13831150D02*
X6789111Y-13802579D01*
X6789111Y-13802579D02*
X6798634Y-13783531D01*
X6798634Y-13783531D02*
X6808158Y-13754960D01*
X6808158Y-13754960D02*
X6817682Y-13707341D01*
X6817682Y-13707341D02*
X6817682Y-13669246D01*
X6817682Y-13669246D02*
X6808158Y-13621627D01*
X6808158Y-13621627D02*
X6798634Y-13593055D01*
X6798634Y-13593055D02*
X6789111Y-13574008D01*
X6789111Y-13574008D02*
X6770063Y-13545436D01*
X6770063Y-13545436D02*
X6760539Y-13535912D01*
D15*
X1786213Y-13958213D02*
X1786213Y-13915787D01*
X1743787Y-13915787D01*
X1743787Y-13958213D01*
X1786213Y-13958213D01*
D11*
X2093872Y-13828484D02*
X2112920Y-13828484D01*
X2112920Y-13828484D02*
X2131967Y-13838008D01*
X2131967Y-13838008D02*
X2141491Y-13847531D01*
X2141491Y-13847531D02*
X2151015Y-13866579D01*
X2151015Y-13866579D02*
X2160539Y-13904674D01*
X2160539Y-13904674D02*
X2160539Y-13952293D01*
X2160539Y-13952293D02*
X2151015Y-13990388D01*
X2151015Y-13990388D02*
X2141491Y-14009436D01*
X2141491Y-14009436D02*
X2131967Y-14018960D01*
X2131967Y-14018960D02*
X2112920Y-14028484D01*
X2112920Y-14028484D02*
X2093872Y-14028484D01*
X2093872Y-14028484D02*
X2074824Y-14018960D01*
X2074824Y-14018960D02*
X2065301Y-14009436D01*
X2065301Y-14009436D02*
X2055777Y-13990388D01*
X2055777Y-13990388D02*
X2046253Y-13952293D01*
X2046253Y-13952293D02*
X2046253Y-13904674D01*
X2046253Y-13904674D02*
X2055777Y-13866579D01*
X2055777Y-13866579D02*
X2065301Y-13847531D01*
X2065301Y-13847531D02*
X2074824Y-13838008D01*
X2074824Y-13838008D02*
X2093872Y-13828484D01*
X2246253Y-14009436D02*
X2255777Y-14018960D01*
X2255777Y-14018960D02*
X2246253Y-14028484D01*
X2246253Y-14028484D02*
X2236729Y-14018960D01*
X2236729Y-14018960D02*
X2246253Y-14009436D01*
X2246253Y-14009436D02*
X2246253Y-14028484D01*
X2427205Y-13828484D02*
X2389110Y-13828484D01*
X2389110Y-13828484D02*
X2370063Y-13838008D01*
X2370063Y-13838008D02*
X2360539Y-13847531D01*
X2360539Y-13847531D02*
X2341491Y-13876103D01*
X2341491Y-13876103D02*
X2331967Y-13914198D01*
X2331967Y-13914198D02*
X2331967Y-13990388D01*
X2331967Y-13990388D02*
X2341491Y-14009436D01*
X2341491Y-14009436D02*
X2351015Y-14018960D01*
X2351015Y-14018960D02*
X2370063Y-14028484D01*
X2370063Y-14028484D02*
X2408158Y-14028484D01*
X2408158Y-14028484D02*
X2427205Y-14018960D01*
X2427205Y-14018960D02*
X2436729Y-14009436D01*
X2436729Y-14009436D02*
X2446253Y-13990388D01*
X2446253Y-13990388D02*
X2446253Y-13942769D01*
X2446253Y-13942769D02*
X2436729Y-13923722D01*
X2436729Y-13923722D02*
X2427205Y-13914198D01*
X2427205Y-13914198D02*
X2408158Y-13904674D01*
X2408158Y-13904674D02*
X2370063Y-13904674D01*
X2370063Y-13904674D02*
X2351015Y-13914198D01*
X2351015Y-13914198D02*
X2341491Y-13923722D01*
X2341491Y-13923722D02*
X2331967Y-13942769D01*
X2570063Y-13828484D02*
X2589110Y-13828484D01*
X2589110Y-13828484D02*
X2608158Y-13838008D01*
X2608158Y-13838008D02*
X2617682Y-13847531D01*
X2617682Y-13847531D02*
X2627205Y-13866579D01*
X2627205Y-13866579D02*
X2636729Y-13904674D01*
X2636729Y-13904674D02*
X2636729Y-13952293D01*
X2636729Y-13952293D02*
X2627205Y-13990388D01*
X2627205Y-13990388D02*
X2617682Y-14009436D01*
X2617682Y-14009436D02*
X2608158Y-14018960D01*
X2608158Y-14018960D02*
X2589110Y-14028484D01*
X2589110Y-14028484D02*
X2570063Y-14028484D01*
X2570063Y-14028484D02*
X2551015Y-14018960D01*
X2551015Y-14018960D02*
X2541491Y-14009436D01*
X2541491Y-14009436D02*
X2531967Y-13990388D01*
X2531967Y-13990388D02*
X2522444Y-13952293D01*
X2522444Y-13952293D02*
X2522444Y-13904674D01*
X2522444Y-13904674D02*
X2531967Y-13866579D01*
X2531967Y-13866579D02*
X2541491Y-13847531D01*
X2541491Y-13847531D02*
X2551015Y-13838008D01*
X2551015Y-13838008D02*
X2570063Y-13828484D01*
X2760539Y-13828484D02*
X2779586Y-13828484D01*
X2779586Y-13828484D02*
X2798634Y-13838008D01*
X2798634Y-13838008D02*
X2808158Y-13847531D01*
X2808158Y-13847531D02*
X2817682Y-13866579D01*
X2817682Y-13866579D02*
X2827205Y-13904674D01*
X2827205Y-13904674D02*
X2827205Y-13952293D01*
X2827205Y-13952293D02*
X2817682Y-13990388D01*
X2817682Y-13990388D02*
X2808158Y-14009436D01*
X2808158Y-14009436D02*
X2798634Y-14018960D01*
X2798634Y-14018960D02*
X2779586Y-14028484D01*
X2779586Y-14028484D02*
X2760539Y-14028484D01*
X2760539Y-14028484D02*
X2741491Y-14018960D01*
X2741491Y-14018960D02*
X2731967Y-14009436D01*
X2731967Y-14009436D02*
X2722444Y-13990388D01*
X2722444Y-13990388D02*
X2712920Y-13952293D01*
X2712920Y-13952293D02*
X2712920Y-13904674D01*
X2712920Y-13904674D02*
X2722444Y-13866579D01*
X2722444Y-13866579D02*
X2731967Y-13847531D01*
X2731967Y-13847531D02*
X2741491Y-13838008D01*
X2741491Y-13838008D02*
X2760539Y-13828484D01*
X2912920Y-14028484D02*
X2912920Y-13895150D01*
X2912920Y-13914198D02*
X2922443Y-13904674D01*
X2922443Y-13904674D02*
X2941491Y-13895150D01*
X2941491Y-13895150D02*
X2970063Y-13895150D01*
X2970063Y-13895150D02*
X2989110Y-13904674D01*
X2989110Y-13904674D02*
X2998634Y-13923722D01*
X2998634Y-13923722D02*
X2998634Y-14028484D01*
X2998634Y-13923722D02*
X3008158Y-13904674D01*
X3008158Y-13904674D02*
X3027205Y-13895150D01*
X3027205Y-13895150D02*
X3055777Y-13895150D01*
X3055777Y-13895150D02*
X3074824Y-13904674D01*
X3074824Y-13904674D02*
X3084348Y-13923722D01*
X3084348Y-13923722D02*
X3084348Y-14028484D01*
X3179586Y-14028484D02*
X3179586Y-13895150D01*
X3179586Y-13914198D02*
X3189110Y-13904674D01*
X3189110Y-13904674D02*
X3208158Y-13895150D01*
X3208158Y-13895150D02*
X3236729Y-13895150D01*
X3236729Y-13895150D02*
X3255777Y-13904674D01*
X3255777Y-13904674D02*
X3265301Y-13923722D01*
X3265301Y-13923722D02*
X3265301Y-14028484D01*
X3265301Y-13923722D02*
X3274824Y-13904674D01*
X3274824Y-13904674D02*
X3293872Y-13895150D01*
X3293872Y-13895150D02*
X3322443Y-13895150D01*
X3322443Y-13895150D02*
X3341491Y-13904674D01*
X3341491Y-13904674D02*
X3351015Y-13923722D01*
X3351015Y-13923722D02*
X3351015Y-14028484D01*
X3741491Y-13818960D02*
X3570063Y-14076103D01*
X3998634Y-13828484D02*
X4017682Y-13828484D01*
X4017682Y-13828484D02*
X4036729Y-13838008D01*
X4036729Y-13838008D02*
X4046253Y-13847531D01*
X4046253Y-13847531D02*
X4055777Y-13866579D01*
X4055777Y-13866579D02*
X4065301Y-13904674D01*
X4065301Y-13904674D02*
X4065301Y-13952293D01*
X4065301Y-13952293D02*
X4055777Y-13990388D01*
X4055777Y-13990388D02*
X4046253Y-14009436D01*
X4046253Y-14009436D02*
X4036729Y-14018960D01*
X4036729Y-14018960D02*
X4017682Y-14028484D01*
X4017682Y-14028484D02*
X3998634Y-14028484D01*
X3998634Y-14028484D02*
X3979586Y-14018960D01*
X3979586Y-14018960D02*
X3970063Y-14009436D01*
X3970063Y-14009436D02*
X3960539Y-13990388D01*
X3960539Y-13990388D02*
X3951015Y-13952293D01*
X3951015Y-13952293D02*
X3951015Y-13904674D01*
X3951015Y-13904674D02*
X3960539Y-13866579D01*
X3960539Y-13866579D02*
X3970063Y-13847531D01*
X3970063Y-13847531D02*
X3979586Y-13838008D01*
X3979586Y-13838008D02*
X3998634Y-13828484D01*
X4151015Y-14009436D02*
X4160539Y-14018960D01*
X4160539Y-14018960D02*
X4151015Y-14028484D01*
X4151015Y-14028484D02*
X4141491Y-14018960D01*
X4141491Y-14018960D02*
X4151015Y-14009436D01*
X4151015Y-14009436D02*
X4151015Y-14028484D01*
X4284348Y-13828484D02*
X4303396Y-13828484D01*
X4303396Y-13828484D02*
X4322444Y-13838008D01*
X4322444Y-13838008D02*
X4331968Y-13847531D01*
X4331968Y-13847531D02*
X4341491Y-13866579D01*
X4341491Y-13866579D02*
X4351015Y-13904674D01*
X4351015Y-13904674D02*
X4351015Y-13952293D01*
X4351015Y-13952293D02*
X4341491Y-13990388D01*
X4341491Y-13990388D02*
X4331968Y-14009436D01*
X4331968Y-14009436D02*
X4322444Y-14018960D01*
X4322444Y-14018960D02*
X4303396Y-14028484D01*
X4303396Y-14028484D02*
X4284348Y-14028484D01*
X4284348Y-14028484D02*
X4265301Y-14018960D01*
X4265301Y-14018960D02*
X4255777Y-14009436D01*
X4255777Y-14009436D02*
X4246253Y-13990388D01*
X4246253Y-13990388D02*
X4236729Y-13952293D01*
X4236729Y-13952293D02*
X4236729Y-13904674D01*
X4236729Y-13904674D02*
X4246253Y-13866579D01*
X4246253Y-13866579D02*
X4255777Y-13847531D01*
X4255777Y-13847531D02*
X4265301Y-13838008D01*
X4265301Y-13838008D02*
X4284348Y-13828484D01*
X4427206Y-13847531D02*
X4436729Y-13838008D01*
X4436729Y-13838008D02*
X4455777Y-13828484D01*
X4455777Y-13828484D02*
X4503396Y-13828484D01*
X4503396Y-13828484D02*
X4522444Y-13838008D01*
X4522444Y-13838008D02*
X4531968Y-13847531D01*
X4531968Y-13847531D02*
X4541491Y-13866579D01*
X4541491Y-13866579D02*
X4541491Y-13885627D01*
X4541491Y-13885627D02*
X4531968Y-13914198D01*
X4531968Y-13914198D02*
X4417682Y-14028484D01*
X4417682Y-14028484D02*
X4541491Y-14028484D01*
X4608158Y-13828484D02*
X4731968Y-13828484D01*
X4731968Y-13828484D02*
X4665301Y-13904674D01*
X4665301Y-13904674D02*
X4693872Y-13904674D01*
X4693872Y-13904674D02*
X4712920Y-13914198D01*
X4712920Y-13914198D02*
X4722444Y-13923722D01*
X4722444Y-13923722D02*
X4731968Y-13942769D01*
X4731968Y-13942769D02*
X4731968Y-13990388D01*
X4731968Y-13990388D02*
X4722444Y-14009436D01*
X4722444Y-14009436D02*
X4712920Y-14018960D01*
X4712920Y-14018960D02*
X4693872Y-14028484D01*
X4693872Y-14028484D02*
X4636729Y-14028484D01*
X4636729Y-14028484D02*
X4617682Y-14018960D01*
X4617682Y-14018960D02*
X4608158Y-14009436D01*
X4903396Y-13828484D02*
X4865301Y-13828484D01*
X4865301Y-13828484D02*
X4846253Y-13838008D01*
X4846253Y-13838008D02*
X4836729Y-13847531D01*
X4836729Y-13847531D02*
X4817682Y-13876103D01*
X4817682Y-13876103D02*
X4808158Y-13914198D01*
X4808158Y-13914198D02*
X4808158Y-13990388D01*
X4808158Y-13990388D02*
X4817682Y-14009436D01*
X4817682Y-14009436D02*
X4827206Y-14018960D01*
X4827206Y-14018960D02*
X4846253Y-14028484D01*
X4846253Y-14028484D02*
X4884349Y-14028484D01*
X4884349Y-14028484D02*
X4903396Y-14018960D01*
X4903396Y-14018960D02*
X4912920Y-14009436D01*
X4912920Y-14009436D02*
X4922444Y-13990388D01*
X4922444Y-13990388D02*
X4922444Y-13942769D01*
X4922444Y-13942769D02*
X4912920Y-13923722D01*
X4912920Y-13923722D02*
X4903396Y-13914198D01*
X4903396Y-13914198D02*
X4884349Y-13904674D01*
X4884349Y-13904674D02*
X4846253Y-13904674D01*
X4846253Y-13904674D02*
X4827206Y-13914198D01*
X4827206Y-13914198D02*
X4817682Y-13923722D01*
X4817682Y-13923722D02*
X4808158Y-13942769D01*
X4998634Y-13828484D02*
X4998634Y-13866579D01*
X5074825Y-13828484D02*
X5074825Y-13866579D01*
X5370063Y-14104674D02*
X5360539Y-14095150D01*
X5360539Y-14095150D02*
X5341491Y-14066579D01*
X5341491Y-14066579D02*
X5331968Y-14047531D01*
X5331968Y-14047531D02*
X5322444Y-14018960D01*
X5322444Y-14018960D02*
X5312920Y-13971341D01*
X5312920Y-13971341D02*
X5312920Y-13933246D01*
X5312920Y-13933246D02*
X5322444Y-13885627D01*
X5322444Y-13885627D02*
X5331968Y-13857055D01*
X5331968Y-13857055D02*
X5341491Y-13838008D01*
X5341491Y-13838008D02*
X5360539Y-13809436D01*
X5360539Y-13809436D02*
X5370063Y-13799912D01*
X5484349Y-13828484D02*
X5503396Y-13828484D01*
X5503396Y-13828484D02*
X5522444Y-13838008D01*
X5522444Y-13838008D02*
X5531968Y-13847531D01*
X5531968Y-13847531D02*
X5541491Y-13866579D01*
X5541491Y-13866579D02*
X5551015Y-13904674D01*
X5551015Y-13904674D02*
X5551015Y-13952293D01*
X5551015Y-13952293D02*
X5541491Y-13990388D01*
X5541491Y-13990388D02*
X5531968Y-14009436D01*
X5531968Y-14009436D02*
X5522444Y-14018960D01*
X5522444Y-14018960D02*
X5503396Y-14028484D01*
X5503396Y-14028484D02*
X5484349Y-14028484D01*
X5484349Y-14028484D02*
X5465301Y-14018960D01*
X5465301Y-14018960D02*
X5455777Y-14009436D01*
X5455777Y-14009436D02*
X5446253Y-13990388D01*
X5446253Y-13990388D02*
X5436730Y-13952293D01*
X5436730Y-13952293D02*
X5436730Y-13904674D01*
X5436730Y-13904674D02*
X5446253Y-13866579D01*
X5446253Y-13866579D02*
X5455777Y-13847531D01*
X5455777Y-13847531D02*
X5465301Y-13838008D01*
X5465301Y-13838008D02*
X5484349Y-13828484D01*
X5789110Y-14028484D02*
X5789110Y-13828484D01*
X5874825Y-14028484D02*
X5874825Y-13923722D01*
X5874825Y-13923722D02*
X5865301Y-13904674D01*
X5865301Y-13904674D02*
X5846253Y-13895150D01*
X5846253Y-13895150D02*
X5817682Y-13895150D01*
X5817682Y-13895150D02*
X5798634Y-13904674D01*
X5798634Y-13904674D02*
X5789110Y-13914198D01*
X5998634Y-14028484D02*
X5979587Y-14018960D01*
X5979587Y-14018960D02*
X5970063Y-14009436D01*
X5970063Y-14009436D02*
X5960539Y-13990388D01*
X5960539Y-13990388D02*
X5960539Y-13933246D01*
X5960539Y-13933246D02*
X5970063Y-13914198D01*
X5970063Y-13914198D02*
X5979587Y-13904674D01*
X5979587Y-13904674D02*
X5998634Y-13895150D01*
X5998634Y-13895150D02*
X6027206Y-13895150D01*
X6027206Y-13895150D02*
X6046253Y-13904674D01*
X6046253Y-13904674D02*
X6055777Y-13914198D01*
X6055777Y-13914198D02*
X6065301Y-13933246D01*
X6065301Y-13933246D02*
X6065301Y-13990388D01*
X6065301Y-13990388D02*
X6055777Y-14009436D01*
X6055777Y-14009436D02*
X6046253Y-14018960D01*
X6046253Y-14018960D02*
X6027206Y-14028484D01*
X6027206Y-14028484D02*
X5998634Y-14028484D01*
X6179587Y-14028484D02*
X6160539Y-14018960D01*
X6160539Y-14018960D02*
X6151015Y-13999912D01*
X6151015Y-13999912D02*
X6151015Y-13828484D01*
X6331968Y-14018960D02*
X6312920Y-14028484D01*
X6312920Y-14028484D02*
X6274825Y-14028484D01*
X6274825Y-14028484D02*
X6255777Y-14018960D01*
X6255777Y-14018960D02*
X6246253Y-13999912D01*
X6246253Y-13999912D02*
X6246253Y-13923722D01*
X6246253Y-13923722D02*
X6255777Y-13904674D01*
X6255777Y-13904674D02*
X6274825Y-13895150D01*
X6274825Y-13895150D02*
X6312920Y-13895150D01*
X6312920Y-13895150D02*
X6331968Y-13904674D01*
X6331968Y-13904674D02*
X6341491Y-13923722D01*
X6341491Y-13923722D02*
X6341491Y-13942769D01*
X6341491Y-13942769D02*
X6246253Y-13961817D01*
X6417682Y-14018960D02*
X6436730Y-14028484D01*
X6436730Y-14028484D02*
X6474825Y-14028484D01*
X6474825Y-14028484D02*
X6493872Y-14018960D01*
X6493872Y-14018960D02*
X6503396Y-13999912D01*
X6503396Y-13999912D02*
X6503396Y-13990388D01*
X6503396Y-13990388D02*
X6493872Y-13971341D01*
X6493872Y-13971341D02*
X6474825Y-13961817D01*
X6474825Y-13961817D02*
X6446253Y-13961817D01*
X6446253Y-13961817D02*
X6427206Y-13952293D01*
X6427206Y-13952293D02*
X6417682Y-13933246D01*
X6417682Y-13933246D02*
X6417682Y-13923722D01*
X6417682Y-13923722D02*
X6427206Y-13904674D01*
X6427206Y-13904674D02*
X6446253Y-13895150D01*
X6446253Y-13895150D02*
X6474825Y-13895150D01*
X6474825Y-13895150D02*
X6493872Y-13904674D01*
X6741492Y-13952293D02*
X6893873Y-13952293D01*
X6817682Y-14028484D02*
X6817682Y-13876103D01*
X7227206Y-13895150D02*
X7227206Y-14028484D01*
X7179587Y-13818960D02*
X7131968Y-13961817D01*
X7131968Y-13961817D02*
X7255777Y-13961817D01*
X7474825Y-14018960D02*
X7493873Y-14028484D01*
X7493873Y-14028484D02*
X7531968Y-14028484D01*
X7531968Y-14028484D02*
X7551015Y-14018960D01*
X7551015Y-14018960D02*
X7560539Y-13999912D01*
X7560539Y-13999912D02*
X7560539Y-13990388D01*
X7560539Y-13990388D02*
X7551015Y-13971341D01*
X7551015Y-13971341D02*
X7531968Y-13961817D01*
X7531968Y-13961817D02*
X7503396Y-13961817D01*
X7503396Y-13961817D02*
X7484349Y-13952293D01*
X7484349Y-13952293D02*
X7474825Y-13933246D01*
X7474825Y-13933246D02*
X7474825Y-13923722D01*
X7474825Y-13923722D02*
X7484349Y-13904674D01*
X7484349Y-13904674D02*
X7503396Y-13895150D01*
X7503396Y-13895150D02*
X7531968Y-13895150D01*
X7531968Y-13895150D02*
X7551015Y-13904674D01*
X7674825Y-14028484D02*
X7655777Y-14018960D01*
X7655777Y-14018960D02*
X7646254Y-13999912D01*
X7646254Y-13999912D02*
X7646254Y-13828484D01*
X7779587Y-14028484D02*
X7760539Y-14018960D01*
X7760539Y-14018960D02*
X7751015Y-14009436D01*
X7751015Y-14009436D02*
X7741492Y-13990388D01*
X7741492Y-13990388D02*
X7741492Y-13933246D01*
X7741492Y-13933246D02*
X7751015Y-13914198D01*
X7751015Y-13914198D02*
X7760539Y-13904674D01*
X7760539Y-13904674D02*
X7779587Y-13895150D01*
X7779587Y-13895150D02*
X7808158Y-13895150D01*
X7808158Y-13895150D02*
X7827206Y-13904674D01*
X7827206Y-13904674D02*
X7836730Y-13914198D01*
X7836730Y-13914198D02*
X7846254Y-13933246D01*
X7846254Y-13933246D02*
X7846254Y-13990388D01*
X7846254Y-13990388D02*
X7836730Y-14009436D01*
X7836730Y-14009436D02*
X7827206Y-14018960D01*
X7827206Y-14018960D02*
X7808158Y-14028484D01*
X7808158Y-14028484D02*
X7779587Y-14028484D01*
X7903396Y-13895150D02*
X7979587Y-13895150D01*
X7931968Y-13828484D02*
X7931968Y-13999912D01*
X7931968Y-13999912D02*
X7941492Y-14018960D01*
X7941492Y-14018960D02*
X7960539Y-14028484D01*
X7960539Y-14028484D02*
X7979587Y-14028484D01*
X8036730Y-14018960D02*
X8055777Y-14028484D01*
X8055777Y-14028484D02*
X8093873Y-14028484D01*
X8093873Y-14028484D02*
X8112920Y-14018960D01*
X8112920Y-14018960D02*
X8122444Y-13999912D01*
X8122444Y-13999912D02*
X8122444Y-13990388D01*
X8122444Y-13990388D02*
X8112920Y-13971341D01*
X8112920Y-13971341D02*
X8093873Y-13961817D01*
X8093873Y-13961817D02*
X8065301Y-13961817D01*
X8065301Y-13961817D02*
X8046254Y-13952293D01*
X8046254Y-13952293D02*
X8036730Y-13933246D01*
X8036730Y-13933246D02*
X8036730Y-13923722D01*
X8036730Y-13923722D02*
X8046254Y-13904674D01*
X8046254Y-13904674D02*
X8065301Y-13895150D01*
X8065301Y-13895150D02*
X8093873Y-13895150D01*
X8093873Y-13895150D02*
X8112920Y-13904674D01*
X8189111Y-14104674D02*
X8198635Y-14095150D01*
X8198635Y-14095150D02*
X8217682Y-14066579D01*
X8217682Y-14066579D02*
X8227206Y-14047531D01*
X8227206Y-14047531D02*
X8236730Y-14018960D01*
X8236730Y-14018960D02*
X8246254Y-13971341D01*
X8246254Y-13971341D02*
X8246254Y-13933246D01*
X8246254Y-13933246D02*
X8236730Y-13885627D01*
X8236730Y-13885627D02*
X8227206Y-13857055D01*
X8227206Y-13857055D02*
X8217682Y-13838008D01*
X8217682Y-13838008D02*
X8198635Y-13809436D01*
X8198635Y-13809436D02*
X8189111Y-13799912D01*
D10*
X1745000Y-14251000D02*
X1795000Y-14201000D01*
X1745000Y-14151000D01*
X1695000Y-14201000D01*
X1745000Y-14251000D01*
D11*
X2160539Y-14292484D02*
X2046253Y-14292484D01*
X2103396Y-14292484D02*
X2103396Y-14092484D01*
X2103396Y-14092484D02*
X2084348Y-14121055D01*
X2084348Y-14121055D02*
X2065301Y-14140103D01*
X2065301Y-14140103D02*
X2046253Y-14149627D01*
X2246253Y-14273436D02*
X2255777Y-14282960D01*
X2255777Y-14282960D02*
X2246253Y-14292484D01*
X2246253Y-14292484D02*
X2236729Y-14282960D01*
X2236729Y-14282960D02*
X2246253Y-14273436D01*
X2246253Y-14273436D02*
X2246253Y-14292484D01*
X2379586Y-14092484D02*
X2398634Y-14092484D01*
X2398634Y-14092484D02*
X2417682Y-14102008D01*
X2417682Y-14102008D02*
X2427205Y-14111531D01*
X2427205Y-14111531D02*
X2436729Y-14130579D01*
X2436729Y-14130579D02*
X2446253Y-14168674D01*
X2446253Y-14168674D02*
X2446253Y-14216293D01*
X2446253Y-14216293D02*
X2436729Y-14254388D01*
X2436729Y-14254388D02*
X2427205Y-14273436D01*
X2427205Y-14273436D02*
X2417682Y-14282960D01*
X2417682Y-14282960D02*
X2398634Y-14292484D01*
X2398634Y-14292484D02*
X2379586Y-14292484D01*
X2379586Y-14292484D02*
X2360539Y-14282960D01*
X2360539Y-14282960D02*
X2351015Y-14273436D01*
X2351015Y-14273436D02*
X2341491Y-14254388D01*
X2341491Y-14254388D02*
X2331967Y-14216293D01*
X2331967Y-14216293D02*
X2331967Y-14168674D01*
X2331967Y-14168674D02*
X2341491Y-14130579D01*
X2341491Y-14130579D02*
X2351015Y-14111531D01*
X2351015Y-14111531D02*
X2360539Y-14102008D01*
X2360539Y-14102008D02*
X2379586Y-14092484D01*
X2570063Y-14092484D02*
X2589110Y-14092484D01*
X2589110Y-14092484D02*
X2608158Y-14102008D01*
X2608158Y-14102008D02*
X2617682Y-14111531D01*
X2617682Y-14111531D02*
X2627205Y-14130579D01*
X2627205Y-14130579D02*
X2636729Y-14168674D01*
X2636729Y-14168674D02*
X2636729Y-14216293D01*
X2636729Y-14216293D02*
X2627205Y-14254388D01*
X2627205Y-14254388D02*
X2617682Y-14273436D01*
X2617682Y-14273436D02*
X2608158Y-14282960D01*
X2608158Y-14282960D02*
X2589110Y-14292484D01*
X2589110Y-14292484D02*
X2570063Y-14292484D01*
X2570063Y-14292484D02*
X2551015Y-14282960D01*
X2551015Y-14282960D02*
X2541491Y-14273436D01*
X2541491Y-14273436D02*
X2531967Y-14254388D01*
X2531967Y-14254388D02*
X2522444Y-14216293D01*
X2522444Y-14216293D02*
X2522444Y-14168674D01*
X2522444Y-14168674D02*
X2531967Y-14130579D01*
X2531967Y-14130579D02*
X2541491Y-14111531D01*
X2541491Y-14111531D02*
X2551015Y-14102008D01*
X2551015Y-14102008D02*
X2570063Y-14092484D01*
X2760539Y-14092484D02*
X2779586Y-14092484D01*
X2779586Y-14092484D02*
X2798634Y-14102008D01*
X2798634Y-14102008D02*
X2808158Y-14111531D01*
X2808158Y-14111531D02*
X2817682Y-14130579D01*
X2817682Y-14130579D02*
X2827205Y-14168674D01*
X2827205Y-14168674D02*
X2827205Y-14216293D01*
X2827205Y-14216293D02*
X2817682Y-14254388D01*
X2817682Y-14254388D02*
X2808158Y-14273436D01*
X2808158Y-14273436D02*
X2798634Y-14282960D01*
X2798634Y-14282960D02*
X2779586Y-14292484D01*
X2779586Y-14292484D02*
X2760539Y-14292484D01*
X2760539Y-14292484D02*
X2741491Y-14282960D01*
X2741491Y-14282960D02*
X2731967Y-14273436D01*
X2731967Y-14273436D02*
X2722444Y-14254388D01*
X2722444Y-14254388D02*
X2712920Y-14216293D01*
X2712920Y-14216293D02*
X2712920Y-14168674D01*
X2712920Y-14168674D02*
X2722444Y-14130579D01*
X2722444Y-14130579D02*
X2731967Y-14111531D01*
X2731967Y-14111531D02*
X2741491Y-14102008D01*
X2741491Y-14102008D02*
X2760539Y-14092484D01*
X2912920Y-14292484D02*
X2912920Y-14159150D01*
X2912920Y-14178198D02*
X2922443Y-14168674D01*
X2922443Y-14168674D02*
X2941491Y-14159150D01*
X2941491Y-14159150D02*
X2970063Y-14159150D01*
X2970063Y-14159150D02*
X2989110Y-14168674D01*
X2989110Y-14168674D02*
X2998634Y-14187722D01*
X2998634Y-14187722D02*
X2998634Y-14292484D01*
X2998634Y-14187722D02*
X3008158Y-14168674D01*
X3008158Y-14168674D02*
X3027205Y-14159150D01*
X3027205Y-14159150D02*
X3055777Y-14159150D01*
X3055777Y-14159150D02*
X3074824Y-14168674D01*
X3074824Y-14168674D02*
X3084348Y-14187722D01*
X3084348Y-14187722D02*
X3084348Y-14292484D01*
X3179586Y-14292484D02*
X3179586Y-14159150D01*
X3179586Y-14178198D02*
X3189110Y-14168674D01*
X3189110Y-14168674D02*
X3208158Y-14159150D01*
X3208158Y-14159150D02*
X3236729Y-14159150D01*
X3236729Y-14159150D02*
X3255777Y-14168674D01*
X3255777Y-14168674D02*
X3265301Y-14187722D01*
X3265301Y-14187722D02*
X3265301Y-14292484D01*
X3265301Y-14187722D02*
X3274824Y-14168674D01*
X3274824Y-14168674D02*
X3293872Y-14159150D01*
X3293872Y-14159150D02*
X3322443Y-14159150D01*
X3322443Y-14159150D02*
X3341491Y-14168674D01*
X3341491Y-14168674D02*
X3351015Y-14187722D01*
X3351015Y-14187722D02*
X3351015Y-14292484D01*
X3741491Y-14082960D02*
X3570063Y-14340103D01*
X3998634Y-14092484D02*
X4017682Y-14092484D01*
X4017682Y-14092484D02*
X4036729Y-14102008D01*
X4036729Y-14102008D02*
X4046253Y-14111531D01*
X4046253Y-14111531D02*
X4055777Y-14130579D01*
X4055777Y-14130579D02*
X4065301Y-14168674D01*
X4065301Y-14168674D02*
X4065301Y-14216293D01*
X4065301Y-14216293D02*
X4055777Y-14254388D01*
X4055777Y-14254388D02*
X4046253Y-14273436D01*
X4046253Y-14273436D02*
X4036729Y-14282960D01*
X4036729Y-14282960D02*
X4017682Y-14292484D01*
X4017682Y-14292484D02*
X3998634Y-14292484D01*
X3998634Y-14292484D02*
X3979586Y-14282960D01*
X3979586Y-14282960D02*
X3970063Y-14273436D01*
X3970063Y-14273436D02*
X3960539Y-14254388D01*
X3960539Y-14254388D02*
X3951015Y-14216293D01*
X3951015Y-14216293D02*
X3951015Y-14168674D01*
X3951015Y-14168674D02*
X3960539Y-14130579D01*
X3960539Y-14130579D02*
X3970063Y-14111531D01*
X3970063Y-14111531D02*
X3979586Y-14102008D01*
X3979586Y-14102008D02*
X3998634Y-14092484D01*
X4151015Y-14273436D02*
X4160539Y-14282960D01*
X4160539Y-14282960D02*
X4151015Y-14292484D01*
X4151015Y-14292484D02*
X4141491Y-14282960D01*
X4141491Y-14282960D02*
X4151015Y-14273436D01*
X4151015Y-14273436D02*
X4151015Y-14292484D01*
X4284348Y-14092484D02*
X4303396Y-14092484D01*
X4303396Y-14092484D02*
X4322444Y-14102008D01*
X4322444Y-14102008D02*
X4331968Y-14111531D01*
X4331968Y-14111531D02*
X4341491Y-14130579D01*
X4341491Y-14130579D02*
X4351015Y-14168674D01*
X4351015Y-14168674D02*
X4351015Y-14216293D01*
X4351015Y-14216293D02*
X4341491Y-14254388D01*
X4341491Y-14254388D02*
X4331968Y-14273436D01*
X4331968Y-14273436D02*
X4322444Y-14282960D01*
X4322444Y-14282960D02*
X4303396Y-14292484D01*
X4303396Y-14292484D02*
X4284348Y-14292484D01*
X4284348Y-14292484D02*
X4265301Y-14282960D01*
X4265301Y-14282960D02*
X4255777Y-14273436D01*
X4255777Y-14273436D02*
X4246253Y-14254388D01*
X4246253Y-14254388D02*
X4236729Y-14216293D01*
X4236729Y-14216293D02*
X4236729Y-14168674D01*
X4236729Y-14168674D02*
X4246253Y-14130579D01*
X4246253Y-14130579D02*
X4255777Y-14111531D01*
X4255777Y-14111531D02*
X4265301Y-14102008D01*
X4265301Y-14102008D02*
X4284348Y-14092484D01*
X4417682Y-14092484D02*
X4541491Y-14092484D01*
X4541491Y-14092484D02*
X4474825Y-14168674D01*
X4474825Y-14168674D02*
X4503396Y-14168674D01*
X4503396Y-14168674D02*
X4522444Y-14178198D01*
X4522444Y-14178198D02*
X4531968Y-14187722D01*
X4531968Y-14187722D02*
X4541491Y-14206769D01*
X4541491Y-14206769D02*
X4541491Y-14254388D01*
X4541491Y-14254388D02*
X4531968Y-14273436D01*
X4531968Y-14273436D02*
X4522444Y-14282960D01*
X4522444Y-14282960D02*
X4503396Y-14292484D01*
X4503396Y-14292484D02*
X4446253Y-14292484D01*
X4446253Y-14292484D02*
X4427206Y-14282960D01*
X4427206Y-14282960D02*
X4417682Y-14273436D01*
X4636729Y-14292484D02*
X4674825Y-14292484D01*
X4674825Y-14292484D02*
X4693872Y-14282960D01*
X4693872Y-14282960D02*
X4703396Y-14273436D01*
X4703396Y-14273436D02*
X4722444Y-14244865D01*
X4722444Y-14244865D02*
X4731968Y-14206769D01*
X4731968Y-14206769D02*
X4731968Y-14130579D01*
X4731968Y-14130579D02*
X4722444Y-14111531D01*
X4722444Y-14111531D02*
X4712920Y-14102008D01*
X4712920Y-14102008D02*
X4693872Y-14092484D01*
X4693872Y-14092484D02*
X4655777Y-14092484D01*
X4655777Y-14092484D02*
X4636729Y-14102008D01*
X4636729Y-14102008D02*
X4627206Y-14111531D01*
X4627206Y-14111531D02*
X4617682Y-14130579D01*
X4617682Y-14130579D02*
X4617682Y-14178198D01*
X4617682Y-14178198D02*
X4627206Y-14197246D01*
X4627206Y-14197246D02*
X4636729Y-14206769D01*
X4636729Y-14206769D02*
X4655777Y-14216293D01*
X4655777Y-14216293D02*
X4693872Y-14216293D01*
X4693872Y-14216293D02*
X4712920Y-14206769D01*
X4712920Y-14206769D02*
X4722444Y-14197246D01*
X4722444Y-14197246D02*
X4731968Y-14178198D01*
X4903396Y-14159150D02*
X4903396Y-14292484D01*
X4855777Y-14082960D02*
X4808158Y-14225817D01*
X4808158Y-14225817D02*
X4931968Y-14225817D01*
X4998634Y-14092484D02*
X4998634Y-14130579D01*
X5074825Y-14092484D02*
X5074825Y-14130579D01*
X5370063Y-14368674D02*
X5360539Y-14359150D01*
X5360539Y-14359150D02*
X5341491Y-14330579D01*
X5341491Y-14330579D02*
X5331968Y-14311531D01*
X5331968Y-14311531D02*
X5322444Y-14282960D01*
X5322444Y-14282960D02*
X5312920Y-14235341D01*
X5312920Y-14235341D02*
X5312920Y-14197246D01*
X5312920Y-14197246D02*
X5322444Y-14149627D01*
X5322444Y-14149627D02*
X5331968Y-14121055D01*
X5331968Y-14121055D02*
X5341491Y-14102008D01*
X5341491Y-14102008D02*
X5360539Y-14073436D01*
X5360539Y-14073436D02*
X5370063Y-14063912D01*
X5531968Y-14159150D02*
X5531968Y-14292484D01*
X5484349Y-14082960D02*
X5436730Y-14225817D01*
X5436730Y-14225817D02*
X5560539Y-14225817D01*
X5789110Y-14292484D02*
X5789110Y-14092484D01*
X5874825Y-14292484D02*
X5874825Y-14187722D01*
X5874825Y-14187722D02*
X5865301Y-14168674D01*
X5865301Y-14168674D02*
X5846253Y-14159150D01*
X5846253Y-14159150D02*
X5817682Y-14159150D01*
X5817682Y-14159150D02*
X5798634Y-14168674D01*
X5798634Y-14168674D02*
X5789110Y-14178198D01*
X5998634Y-14292484D02*
X5979587Y-14282960D01*
X5979587Y-14282960D02*
X5970063Y-14273436D01*
X5970063Y-14273436D02*
X5960539Y-14254388D01*
X5960539Y-14254388D02*
X5960539Y-14197246D01*
X5960539Y-14197246D02*
X5970063Y-14178198D01*
X5970063Y-14178198D02*
X5979587Y-14168674D01*
X5979587Y-14168674D02*
X5998634Y-14159150D01*
X5998634Y-14159150D02*
X6027206Y-14159150D01*
X6027206Y-14159150D02*
X6046253Y-14168674D01*
X6046253Y-14168674D02*
X6055777Y-14178198D01*
X6055777Y-14178198D02*
X6065301Y-14197246D01*
X6065301Y-14197246D02*
X6065301Y-14254388D01*
X6065301Y-14254388D02*
X6055777Y-14273436D01*
X6055777Y-14273436D02*
X6046253Y-14282960D01*
X6046253Y-14282960D02*
X6027206Y-14292484D01*
X6027206Y-14292484D02*
X5998634Y-14292484D01*
X6179587Y-14292484D02*
X6160539Y-14282960D01*
X6160539Y-14282960D02*
X6151015Y-14263912D01*
X6151015Y-14263912D02*
X6151015Y-14092484D01*
X6331968Y-14282960D02*
X6312920Y-14292484D01*
X6312920Y-14292484D02*
X6274825Y-14292484D01*
X6274825Y-14292484D02*
X6255777Y-14282960D01*
X6255777Y-14282960D02*
X6246253Y-14263912D01*
X6246253Y-14263912D02*
X6246253Y-14187722D01*
X6246253Y-14187722D02*
X6255777Y-14168674D01*
X6255777Y-14168674D02*
X6274825Y-14159150D01*
X6274825Y-14159150D02*
X6312920Y-14159150D01*
X6312920Y-14159150D02*
X6331968Y-14168674D01*
X6331968Y-14168674D02*
X6341491Y-14187722D01*
X6341491Y-14187722D02*
X6341491Y-14206769D01*
X6341491Y-14206769D02*
X6246253Y-14225817D01*
X6417682Y-14282960D02*
X6436730Y-14292484D01*
X6436730Y-14292484D02*
X6474825Y-14292484D01*
X6474825Y-14292484D02*
X6493872Y-14282960D01*
X6493872Y-14282960D02*
X6503396Y-14263912D01*
X6503396Y-14263912D02*
X6503396Y-14254388D01*
X6503396Y-14254388D02*
X6493872Y-14235341D01*
X6493872Y-14235341D02*
X6474825Y-14225817D01*
X6474825Y-14225817D02*
X6446253Y-14225817D01*
X6446253Y-14225817D02*
X6427206Y-14216293D01*
X6427206Y-14216293D02*
X6417682Y-14197246D01*
X6417682Y-14197246D02*
X6417682Y-14187722D01*
X6417682Y-14187722D02*
X6427206Y-14168674D01*
X6427206Y-14168674D02*
X6446253Y-14159150D01*
X6446253Y-14159150D02*
X6474825Y-14159150D01*
X6474825Y-14159150D02*
X6493872Y-14168674D01*
X6570063Y-14368674D02*
X6579587Y-14359150D01*
X6579587Y-14359150D02*
X6598634Y-14330579D01*
X6598634Y-14330579D02*
X6608158Y-14311531D01*
X6608158Y-14311531D02*
X6617682Y-14282960D01*
X6617682Y-14282960D02*
X6627206Y-14235341D01*
X6627206Y-14235341D02*
X6627206Y-14197246D01*
X6627206Y-14197246D02*
X6617682Y-14149627D01*
X6617682Y-14149627D02*
X6608158Y-14121055D01*
X6608158Y-14121055D02*
X6598634Y-14102008D01*
X6598634Y-14102008D02*
X6579587Y-14073436D01*
X6579587Y-14073436D02*
X6570063Y-14063912D01*
D16*
X1645000Y-14390000D02*
X1795000Y-14540000D01*
X1795000Y-14390000D02*
X1645000Y-14540000D01*
X1795000Y-14465000D02*
G75*
G03*
X1795000Y-14465000I-75000J0D01*
G01*
D11*
X2160539Y-14556484D02*
X2046253Y-14556484D01*
X2103396Y-14556484D02*
X2103396Y-14356484D01*
X2103396Y-14356484D02*
X2084348Y-14385055D01*
X2084348Y-14385055D02*
X2065301Y-14404103D01*
X2065301Y-14404103D02*
X2046253Y-14413627D01*
X2246253Y-14537436D02*
X2255777Y-14546960D01*
X2255777Y-14546960D02*
X2246253Y-14556484D01*
X2246253Y-14556484D02*
X2236729Y-14546960D01*
X2236729Y-14546960D02*
X2246253Y-14537436D01*
X2246253Y-14537436D02*
X2246253Y-14556484D01*
X2436729Y-14356484D02*
X2341491Y-14356484D01*
X2341491Y-14356484D02*
X2331967Y-14451722D01*
X2331967Y-14451722D02*
X2341491Y-14442198D01*
X2341491Y-14442198D02*
X2360539Y-14432674D01*
X2360539Y-14432674D02*
X2408158Y-14432674D01*
X2408158Y-14432674D02*
X2427205Y-14442198D01*
X2427205Y-14442198D02*
X2436729Y-14451722D01*
X2436729Y-14451722D02*
X2446253Y-14470769D01*
X2446253Y-14470769D02*
X2446253Y-14518388D01*
X2446253Y-14518388D02*
X2436729Y-14537436D01*
X2436729Y-14537436D02*
X2427205Y-14546960D01*
X2427205Y-14546960D02*
X2408158Y-14556484D01*
X2408158Y-14556484D02*
X2360539Y-14556484D01*
X2360539Y-14556484D02*
X2341491Y-14546960D01*
X2341491Y-14546960D02*
X2331967Y-14537436D01*
X2570063Y-14356484D02*
X2589110Y-14356484D01*
X2589110Y-14356484D02*
X2608158Y-14366008D01*
X2608158Y-14366008D02*
X2617682Y-14375531D01*
X2617682Y-14375531D02*
X2627205Y-14394579D01*
X2627205Y-14394579D02*
X2636729Y-14432674D01*
X2636729Y-14432674D02*
X2636729Y-14480293D01*
X2636729Y-14480293D02*
X2627205Y-14518388D01*
X2627205Y-14518388D02*
X2617682Y-14537436D01*
X2617682Y-14537436D02*
X2608158Y-14546960D01*
X2608158Y-14546960D02*
X2589110Y-14556484D01*
X2589110Y-14556484D02*
X2570063Y-14556484D01*
X2570063Y-14556484D02*
X2551015Y-14546960D01*
X2551015Y-14546960D02*
X2541491Y-14537436D01*
X2541491Y-14537436D02*
X2531967Y-14518388D01*
X2531967Y-14518388D02*
X2522444Y-14480293D01*
X2522444Y-14480293D02*
X2522444Y-14432674D01*
X2522444Y-14432674D02*
X2531967Y-14394579D01*
X2531967Y-14394579D02*
X2541491Y-14375531D01*
X2541491Y-14375531D02*
X2551015Y-14366008D01*
X2551015Y-14366008D02*
X2570063Y-14356484D01*
X2760539Y-14356484D02*
X2779586Y-14356484D01*
X2779586Y-14356484D02*
X2798634Y-14366008D01*
X2798634Y-14366008D02*
X2808158Y-14375531D01*
X2808158Y-14375531D02*
X2817682Y-14394579D01*
X2817682Y-14394579D02*
X2827205Y-14432674D01*
X2827205Y-14432674D02*
X2827205Y-14480293D01*
X2827205Y-14480293D02*
X2817682Y-14518388D01*
X2817682Y-14518388D02*
X2808158Y-14537436D01*
X2808158Y-14537436D02*
X2798634Y-14546960D01*
X2798634Y-14546960D02*
X2779586Y-14556484D01*
X2779586Y-14556484D02*
X2760539Y-14556484D01*
X2760539Y-14556484D02*
X2741491Y-14546960D01*
X2741491Y-14546960D02*
X2731967Y-14537436D01*
X2731967Y-14537436D02*
X2722444Y-14518388D01*
X2722444Y-14518388D02*
X2712920Y-14480293D01*
X2712920Y-14480293D02*
X2712920Y-14432674D01*
X2712920Y-14432674D02*
X2722444Y-14394579D01*
X2722444Y-14394579D02*
X2731967Y-14375531D01*
X2731967Y-14375531D02*
X2741491Y-14366008D01*
X2741491Y-14366008D02*
X2760539Y-14356484D01*
X2912920Y-14556484D02*
X2912920Y-14423150D01*
X2912920Y-14442198D02*
X2922443Y-14432674D01*
X2922443Y-14432674D02*
X2941491Y-14423150D01*
X2941491Y-14423150D02*
X2970063Y-14423150D01*
X2970063Y-14423150D02*
X2989110Y-14432674D01*
X2989110Y-14432674D02*
X2998634Y-14451722D01*
X2998634Y-14451722D02*
X2998634Y-14556484D01*
X2998634Y-14451722D02*
X3008158Y-14432674D01*
X3008158Y-14432674D02*
X3027205Y-14423150D01*
X3027205Y-14423150D02*
X3055777Y-14423150D01*
X3055777Y-14423150D02*
X3074824Y-14432674D01*
X3074824Y-14432674D02*
X3084348Y-14451722D01*
X3084348Y-14451722D02*
X3084348Y-14556484D01*
X3179586Y-14556484D02*
X3179586Y-14423150D01*
X3179586Y-14442198D02*
X3189110Y-14432674D01*
X3189110Y-14432674D02*
X3208158Y-14423150D01*
X3208158Y-14423150D02*
X3236729Y-14423150D01*
X3236729Y-14423150D02*
X3255777Y-14432674D01*
X3255777Y-14432674D02*
X3265301Y-14451722D01*
X3265301Y-14451722D02*
X3265301Y-14556484D01*
X3265301Y-14451722D02*
X3274824Y-14432674D01*
X3274824Y-14432674D02*
X3293872Y-14423150D01*
X3293872Y-14423150D02*
X3322443Y-14423150D01*
X3322443Y-14423150D02*
X3341491Y-14432674D01*
X3341491Y-14432674D02*
X3351015Y-14451722D01*
X3351015Y-14451722D02*
X3351015Y-14556484D01*
X3741491Y-14346960D02*
X3570063Y-14604103D01*
X3998634Y-14356484D02*
X4017682Y-14356484D01*
X4017682Y-14356484D02*
X4036729Y-14366008D01*
X4036729Y-14366008D02*
X4046253Y-14375531D01*
X4046253Y-14375531D02*
X4055777Y-14394579D01*
X4055777Y-14394579D02*
X4065301Y-14432674D01*
X4065301Y-14432674D02*
X4065301Y-14480293D01*
X4065301Y-14480293D02*
X4055777Y-14518388D01*
X4055777Y-14518388D02*
X4046253Y-14537436D01*
X4046253Y-14537436D02*
X4036729Y-14546960D01*
X4036729Y-14546960D02*
X4017682Y-14556484D01*
X4017682Y-14556484D02*
X3998634Y-14556484D01*
X3998634Y-14556484D02*
X3979586Y-14546960D01*
X3979586Y-14546960D02*
X3970063Y-14537436D01*
X3970063Y-14537436D02*
X3960539Y-14518388D01*
X3960539Y-14518388D02*
X3951015Y-14480293D01*
X3951015Y-14480293D02*
X3951015Y-14432674D01*
X3951015Y-14432674D02*
X3960539Y-14394579D01*
X3960539Y-14394579D02*
X3970063Y-14375531D01*
X3970063Y-14375531D02*
X3979586Y-14366008D01*
X3979586Y-14366008D02*
X3998634Y-14356484D01*
X4151015Y-14537436D02*
X4160539Y-14546960D01*
X4160539Y-14546960D02*
X4151015Y-14556484D01*
X4151015Y-14556484D02*
X4141491Y-14546960D01*
X4141491Y-14546960D02*
X4151015Y-14537436D01*
X4151015Y-14537436D02*
X4151015Y-14556484D01*
X4284348Y-14356484D02*
X4303396Y-14356484D01*
X4303396Y-14356484D02*
X4322444Y-14366008D01*
X4322444Y-14366008D02*
X4331968Y-14375531D01*
X4331968Y-14375531D02*
X4341491Y-14394579D01*
X4341491Y-14394579D02*
X4351015Y-14432674D01*
X4351015Y-14432674D02*
X4351015Y-14480293D01*
X4351015Y-14480293D02*
X4341491Y-14518388D01*
X4341491Y-14518388D02*
X4331968Y-14537436D01*
X4331968Y-14537436D02*
X4322444Y-14546960D01*
X4322444Y-14546960D02*
X4303396Y-14556484D01*
X4303396Y-14556484D02*
X4284348Y-14556484D01*
X4284348Y-14556484D02*
X4265301Y-14546960D01*
X4265301Y-14546960D02*
X4255777Y-14537436D01*
X4255777Y-14537436D02*
X4246253Y-14518388D01*
X4246253Y-14518388D02*
X4236729Y-14480293D01*
X4236729Y-14480293D02*
X4236729Y-14432674D01*
X4236729Y-14432674D02*
X4246253Y-14394579D01*
X4246253Y-14394579D02*
X4255777Y-14375531D01*
X4255777Y-14375531D02*
X4265301Y-14366008D01*
X4265301Y-14366008D02*
X4284348Y-14356484D01*
X4531968Y-14356484D02*
X4436729Y-14356484D01*
X4436729Y-14356484D02*
X4427206Y-14451722D01*
X4427206Y-14451722D02*
X4436729Y-14442198D01*
X4436729Y-14442198D02*
X4455777Y-14432674D01*
X4455777Y-14432674D02*
X4503396Y-14432674D01*
X4503396Y-14432674D02*
X4522444Y-14442198D01*
X4522444Y-14442198D02*
X4531968Y-14451722D01*
X4531968Y-14451722D02*
X4541491Y-14470769D01*
X4541491Y-14470769D02*
X4541491Y-14518388D01*
X4541491Y-14518388D02*
X4531968Y-14537436D01*
X4531968Y-14537436D02*
X4522444Y-14546960D01*
X4522444Y-14546960D02*
X4503396Y-14556484D01*
X4503396Y-14556484D02*
X4455777Y-14556484D01*
X4455777Y-14556484D02*
X4436729Y-14546960D01*
X4436729Y-14546960D02*
X4427206Y-14537436D01*
X4636729Y-14556484D02*
X4674825Y-14556484D01*
X4674825Y-14556484D02*
X4693872Y-14546960D01*
X4693872Y-14546960D02*
X4703396Y-14537436D01*
X4703396Y-14537436D02*
X4722444Y-14508865D01*
X4722444Y-14508865D02*
X4731968Y-14470769D01*
X4731968Y-14470769D02*
X4731968Y-14394579D01*
X4731968Y-14394579D02*
X4722444Y-14375531D01*
X4722444Y-14375531D02*
X4712920Y-14366008D01*
X4712920Y-14366008D02*
X4693872Y-14356484D01*
X4693872Y-14356484D02*
X4655777Y-14356484D01*
X4655777Y-14356484D02*
X4636729Y-14366008D01*
X4636729Y-14366008D02*
X4627206Y-14375531D01*
X4627206Y-14375531D02*
X4617682Y-14394579D01*
X4617682Y-14394579D02*
X4617682Y-14442198D01*
X4617682Y-14442198D02*
X4627206Y-14461246D01*
X4627206Y-14461246D02*
X4636729Y-14470769D01*
X4636729Y-14470769D02*
X4655777Y-14480293D01*
X4655777Y-14480293D02*
X4693872Y-14480293D01*
X4693872Y-14480293D02*
X4712920Y-14470769D01*
X4712920Y-14470769D02*
X4722444Y-14461246D01*
X4722444Y-14461246D02*
X4731968Y-14442198D01*
X4922444Y-14556484D02*
X4808158Y-14556484D01*
X4865301Y-14556484D02*
X4865301Y-14356484D01*
X4865301Y-14356484D02*
X4846253Y-14385055D01*
X4846253Y-14385055D02*
X4827206Y-14404103D01*
X4827206Y-14404103D02*
X4808158Y-14413627D01*
X4998634Y-14356484D02*
X4998634Y-14394579D01*
X5074825Y-14356484D02*
X5074825Y-14394579D01*
X5370063Y-14632674D02*
X5360539Y-14623150D01*
X5360539Y-14623150D02*
X5341491Y-14594579D01*
X5341491Y-14594579D02*
X5331968Y-14575531D01*
X5331968Y-14575531D02*
X5322444Y-14546960D01*
X5322444Y-14546960D02*
X5312920Y-14499341D01*
X5312920Y-14499341D02*
X5312920Y-14461246D01*
X5312920Y-14461246D02*
X5322444Y-14413627D01*
X5322444Y-14413627D02*
X5331968Y-14385055D01*
X5331968Y-14385055D02*
X5341491Y-14366008D01*
X5341491Y-14366008D02*
X5360539Y-14337436D01*
X5360539Y-14337436D02*
X5370063Y-14327912D01*
X5531968Y-14423150D02*
X5531968Y-14556484D01*
X5484349Y-14346960D02*
X5436730Y-14489817D01*
X5436730Y-14489817D02*
X5560539Y-14489817D01*
X5674825Y-14356484D02*
X5693872Y-14356484D01*
X5693872Y-14356484D02*
X5712920Y-14366008D01*
X5712920Y-14366008D02*
X5722444Y-14375531D01*
X5722444Y-14375531D02*
X5731968Y-14394579D01*
X5731968Y-14394579D02*
X5741491Y-14432674D01*
X5741491Y-14432674D02*
X5741491Y-14480293D01*
X5741491Y-14480293D02*
X5731968Y-14518388D01*
X5731968Y-14518388D02*
X5722444Y-14537436D01*
X5722444Y-14537436D02*
X5712920Y-14546960D01*
X5712920Y-14546960D02*
X5693872Y-14556484D01*
X5693872Y-14556484D02*
X5674825Y-14556484D01*
X5674825Y-14556484D02*
X5655777Y-14546960D01*
X5655777Y-14546960D02*
X5646253Y-14537436D01*
X5646253Y-14537436D02*
X5636729Y-14518388D01*
X5636729Y-14518388D02*
X5627206Y-14480293D01*
X5627206Y-14480293D02*
X5627206Y-14432674D01*
X5627206Y-14432674D02*
X5636729Y-14394579D01*
X5636729Y-14394579D02*
X5646253Y-14375531D01*
X5646253Y-14375531D02*
X5655777Y-14366008D01*
X5655777Y-14366008D02*
X5674825Y-14356484D01*
X5979587Y-14556484D02*
X5979587Y-14356484D01*
X6065301Y-14556484D02*
X6065301Y-14451722D01*
X6065301Y-14451722D02*
X6055777Y-14432674D01*
X6055777Y-14432674D02*
X6036730Y-14423150D01*
X6036730Y-14423150D02*
X6008158Y-14423150D01*
X6008158Y-14423150D02*
X5989110Y-14432674D01*
X5989110Y-14432674D02*
X5979587Y-14442198D01*
X6189110Y-14556484D02*
X6170063Y-14546960D01*
X6170063Y-14546960D02*
X6160539Y-14537436D01*
X6160539Y-14537436D02*
X6151015Y-14518388D01*
X6151015Y-14518388D02*
X6151015Y-14461246D01*
X6151015Y-14461246D02*
X6160539Y-14442198D01*
X6160539Y-14442198D02*
X6170063Y-14432674D01*
X6170063Y-14432674D02*
X6189110Y-14423150D01*
X6189110Y-14423150D02*
X6217682Y-14423150D01*
X6217682Y-14423150D02*
X6236730Y-14432674D01*
X6236730Y-14432674D02*
X6246253Y-14442198D01*
X6246253Y-14442198D02*
X6255777Y-14461246D01*
X6255777Y-14461246D02*
X6255777Y-14518388D01*
X6255777Y-14518388D02*
X6246253Y-14537436D01*
X6246253Y-14537436D02*
X6236730Y-14546960D01*
X6236730Y-14546960D02*
X6217682Y-14556484D01*
X6217682Y-14556484D02*
X6189110Y-14556484D01*
X6370063Y-14556484D02*
X6351015Y-14546960D01*
X6351015Y-14546960D02*
X6341491Y-14527912D01*
X6341491Y-14527912D02*
X6341491Y-14356484D01*
X6522444Y-14546960D02*
X6503396Y-14556484D01*
X6503396Y-14556484D02*
X6465301Y-14556484D01*
X6465301Y-14556484D02*
X6446253Y-14546960D01*
X6446253Y-14546960D02*
X6436730Y-14527912D01*
X6436730Y-14527912D02*
X6436730Y-14451722D01*
X6436730Y-14451722D02*
X6446253Y-14432674D01*
X6446253Y-14432674D02*
X6465301Y-14423150D01*
X6465301Y-14423150D02*
X6503396Y-14423150D01*
X6503396Y-14423150D02*
X6522444Y-14432674D01*
X6522444Y-14432674D02*
X6531968Y-14451722D01*
X6531968Y-14451722D02*
X6531968Y-14470769D01*
X6531968Y-14470769D02*
X6436730Y-14489817D01*
X6608158Y-14546960D02*
X6627206Y-14556484D01*
X6627206Y-14556484D02*
X6665301Y-14556484D01*
X6665301Y-14556484D02*
X6684349Y-14546960D01*
X6684349Y-14546960D02*
X6693872Y-14527912D01*
X6693872Y-14527912D02*
X6693872Y-14518388D01*
X6693872Y-14518388D02*
X6684349Y-14499341D01*
X6684349Y-14499341D02*
X6665301Y-14489817D01*
X6665301Y-14489817D02*
X6636730Y-14489817D01*
X6636730Y-14489817D02*
X6617682Y-14480293D01*
X6617682Y-14480293D02*
X6608158Y-14461246D01*
X6608158Y-14461246D02*
X6608158Y-14451722D01*
X6608158Y-14451722D02*
X6617682Y-14432674D01*
X6617682Y-14432674D02*
X6636730Y-14423150D01*
X6636730Y-14423150D02*
X6665301Y-14423150D01*
X6665301Y-14423150D02*
X6684349Y-14432674D01*
X6760539Y-14632674D02*
X6770063Y-14623150D01*
X6770063Y-14623150D02*
X6789111Y-14594579D01*
X6789111Y-14594579D02*
X6798634Y-14575531D01*
X6798634Y-14575531D02*
X6808158Y-14546960D01*
X6808158Y-14546960D02*
X6817682Y-14499341D01*
X6817682Y-14499341D02*
X6817682Y-14461246D01*
X6817682Y-14461246D02*
X6808158Y-14413627D01*
X6808158Y-14413627D02*
X6798634Y-14385055D01*
X6798634Y-14385055D02*
X6789111Y-14366008D01*
X6789111Y-14366008D02*
X6770063Y-14337436D01*
X6770063Y-14337436D02*
X6760539Y-14327912D01*
M02*
