%TF.GenerationSoftware,KiCad,Pcbnew,7.0.7*%
%TF.CreationDate,2023-10-06T06:03:54+09:00*%
%TF.ProjectId,Sixtar-Switch,53697874-6172-42d5-9377-697463682e6b,rev?*%
%TF.SameCoordinates,Original*%
%TF.FileFunction,Other,User*%
%FSLAX46Y46*%
G04 Gerber Fmt 4.6, Leading zero omitted, Abs format (unit mm)*
G04 Created by KiCad (PCBNEW 7.0.7) date 2023-10-06 06:03:54*
%MOMM*%
%LPD*%
G01*
G04 APERTURE LIST*
%ADD10C,0.050000*%
G04 APERTURE END LIST*
D10*
%TO.C,R27*%
X85700000Y-58700000D02*
X87600000Y-58700000D01*
X87600000Y-58700000D02*
X87600000Y-55000000D01*
X85700000Y-55000000D02*
X85700000Y-58700000D01*
X87600000Y-55000000D02*
X85700000Y-55000000D01*
%TO.C,C12*%
X151160000Y-94340000D02*
X151160000Y-92380000D01*
X151160000Y-92380000D02*
X147400000Y-92380000D01*
X147400000Y-94340000D02*
X151160000Y-94340000D01*
X147400000Y-92380000D02*
X147400000Y-94340000D01*
%TO.C,C10*%
X151160000Y-90340000D02*
X151160000Y-88380000D01*
X151160000Y-88380000D02*
X147400000Y-88380000D01*
X147400000Y-90340000D02*
X151160000Y-90340000D01*
X147400000Y-88380000D02*
X147400000Y-90340000D01*
%TO.C,C5*%
X130132738Y-84340000D02*
X130132738Y-82380000D01*
X130132738Y-82380000D02*
X126372738Y-82380000D01*
X126372738Y-84340000D02*
X130132738Y-84340000D01*
X126372738Y-82380000D02*
X126372738Y-84340000D01*
%TO.C,C8*%
X151160000Y-86340000D02*
X151160000Y-84380000D01*
X151160000Y-84380000D02*
X147400000Y-84380000D01*
X147400000Y-86340000D02*
X151160000Y-86340000D01*
X147400000Y-84380000D02*
X147400000Y-86340000D01*
%TO.C,R1*%
X180970000Y-58640000D02*
X182870000Y-58640000D01*
X182870000Y-58640000D02*
X182870000Y-54940000D01*
X180970000Y-54940000D02*
X180970000Y-58640000D01*
X182870000Y-54940000D02*
X180970000Y-54940000D01*
%TO.C,C16*%
X137720000Y-100960000D02*
X137720000Y-99000000D01*
X137720000Y-99000000D02*
X133960000Y-99000000D01*
X133960000Y-100960000D02*
X137720000Y-100960000D01*
X133960000Y-99000000D02*
X133960000Y-100960000D01*
%TO.C,R19*%
X238050000Y-96750000D02*
X239950000Y-96750000D01*
X239950000Y-96750000D02*
X239950000Y-93050000D01*
X238050000Y-93050000D02*
X238050000Y-96750000D01*
X239950000Y-93050000D02*
X238050000Y-93050000D01*
%TO.C,R15*%
X123800000Y-77800000D02*
X125700000Y-77800000D01*
X125700000Y-77800000D02*
X125700000Y-74100000D01*
X123800000Y-74100000D02*
X123800000Y-77800000D01*
X125700000Y-74100000D02*
X123800000Y-74100000D01*
%TO.C,R26*%
X47650000Y-58700000D02*
X49550000Y-58700000D01*
X49550000Y-58700000D02*
X49550000Y-55000000D01*
X47650000Y-55000000D02*
X47650000Y-58700000D01*
X49550000Y-55000000D02*
X47650000Y-55000000D01*
%TO.C,R23*%
X228600000Y-39650000D02*
X230500000Y-39650000D01*
X230500000Y-39650000D02*
X230500000Y-35950000D01*
X228600000Y-35950000D02*
X228600000Y-39650000D01*
X230500000Y-35950000D02*
X228600000Y-35950000D01*
%TO.C,R2*%
X138050000Y-24650000D02*
X139950000Y-24650000D01*
X139950000Y-24650000D02*
X139950000Y-20950000D01*
X138050000Y-20950000D02*
X138050000Y-24650000D01*
X139950000Y-20950000D02*
X138050000Y-20950000D01*
%TO.C,R25*%
X66550000Y-77750000D02*
X68450000Y-77750000D01*
X68450000Y-77750000D02*
X68450000Y-74050000D01*
X66550000Y-74050000D02*
X66550000Y-77750000D01*
X68450000Y-74050000D02*
X66550000Y-74050000D01*
%TO.C,R16*%
X142900000Y-77800000D02*
X144800000Y-77800000D01*
X144800000Y-77800000D02*
X144800000Y-74100000D01*
X142900000Y-74100000D02*
X142900000Y-77800000D01*
X144800000Y-74100000D02*
X142900000Y-74100000D01*
%TO.C,R18*%
X200020000Y-39650000D02*
X201920000Y-39650000D01*
X201920000Y-39650000D02*
X201920000Y-35950000D01*
X200020000Y-35950000D02*
X200020000Y-39650000D01*
X201920000Y-35950000D02*
X200020000Y-35950000D01*
%TO.C,C9*%
X151160000Y-88340000D02*
X151160000Y-86380000D01*
X151160000Y-86380000D02*
X147400000Y-86380000D01*
X147400000Y-88340000D02*
X151160000Y-88340000D01*
X147400000Y-86380000D02*
X147400000Y-88340000D01*
%TO.C,R22*%
X38090000Y-39650000D02*
X39990000Y-39650000D01*
X39990000Y-39650000D02*
X39990000Y-35950000D01*
X38090000Y-35950000D02*
X38090000Y-39650000D01*
X39990000Y-35950000D02*
X38090000Y-35950000D01*
%TO.C,R8*%
X200020000Y-58640000D02*
X201920000Y-58640000D01*
X201920000Y-58640000D02*
X201920000Y-54940000D01*
X200020000Y-54940000D02*
X200020000Y-58640000D01*
X201920000Y-54940000D02*
X200020000Y-54940000D01*
%TO.C,R12*%
X142850000Y-58700000D02*
X144750000Y-58700000D01*
X144750000Y-58700000D02*
X144750000Y-55000000D01*
X142850000Y-55000000D02*
X142850000Y-58700000D01*
X144750000Y-55000000D02*
X142850000Y-55000000D01*
%TO.C,R21*%
X28450000Y-96750000D02*
X30350000Y-96750000D01*
X30350000Y-96750000D02*
X30350000Y-93050000D01*
X28450000Y-93050000D02*
X28450000Y-96750000D01*
X30350000Y-93050000D02*
X28450000Y-93050000D01*
%TO.C,C15*%
X143390000Y-83210000D02*
X143390000Y-81250000D01*
X143390000Y-81250000D02*
X139630000Y-81250000D01*
X139630000Y-83210000D02*
X143390000Y-83210000D01*
X139630000Y-81250000D02*
X139630000Y-83210000D01*
%TO.C,R3*%
X136050000Y-24650000D02*
X137950000Y-24650000D01*
X137950000Y-24650000D02*
X137950000Y-20950000D01*
X136050000Y-20950000D02*
X136050000Y-24650000D01*
X137950000Y-20950000D02*
X136050000Y-20950000D01*
%TO.C,R5*%
X140100000Y-40600000D02*
X138200000Y-40600000D01*
X138200000Y-40600000D02*
X138200000Y-44300000D01*
X140100000Y-44300000D02*
X140100000Y-40600000D01*
X138200000Y-44300000D02*
X140100000Y-44300000D01*
%TO.C,R13*%
X95150000Y-115850000D02*
X97050000Y-115850000D01*
X97050000Y-115850000D02*
X97050000Y-112150000D01*
X95150000Y-112150000D02*
X95150000Y-115850000D01*
X97050000Y-112150000D02*
X95150000Y-112150000D01*
%TO.C,R24*%
X66650000Y-58700000D02*
X68550000Y-58700000D01*
X68550000Y-58700000D02*
X68550000Y-55000000D01*
X66650000Y-55000000D02*
X66650000Y-58700000D01*
X68550000Y-55000000D02*
X66650000Y-55000000D01*
%TO.C,R4*%
X199950000Y-77750000D02*
X201850000Y-77750000D01*
X201850000Y-77750000D02*
X201850000Y-74050000D01*
X199950000Y-74050000D02*
X199950000Y-77750000D01*
X201850000Y-74050000D02*
X199950000Y-74050000D01*
%TO.C,C7*%
X151160000Y-84340000D02*
X151160000Y-82380000D01*
X151160000Y-82380000D02*
X147400000Y-82380000D01*
X147400000Y-84340000D02*
X151160000Y-84340000D01*
X147400000Y-82380000D02*
X147400000Y-84340000D01*
%TO.C,R6*%
X138000000Y-40600000D02*
X136100000Y-40600000D01*
X136100000Y-40600000D02*
X136100000Y-44300000D01*
X138000000Y-44300000D02*
X138000000Y-40600000D01*
X136100000Y-44300000D02*
X138000000Y-44300000D01*
%TO.C,R11*%
X123800000Y-58700000D02*
X125700000Y-58700000D01*
X125700000Y-58700000D02*
X125700000Y-55000000D01*
X123800000Y-55000000D02*
X123800000Y-58700000D01*
X125700000Y-55000000D02*
X123800000Y-55000000D01*
%TO.C,R17*%
X66680000Y-39640000D02*
X68580000Y-39640000D01*
X68580000Y-39640000D02*
X68580000Y-35940000D01*
X66680000Y-35940000D02*
X66680000Y-39640000D01*
X68580000Y-35940000D02*
X66680000Y-35940000D01*
%TO.C,C14*%
X139550000Y-83200000D02*
X139550000Y-81240000D01*
X139550000Y-81240000D02*
X135790000Y-81240000D01*
X135790000Y-83200000D02*
X139550000Y-83200000D01*
X135790000Y-81240000D02*
X135790000Y-83200000D01*
%TO.C,C17*%
X138480000Y-99000000D02*
X138480000Y-100960000D01*
X138480000Y-100960000D02*
X142240000Y-100960000D01*
X142240000Y-99000000D02*
X138480000Y-99000000D01*
X142240000Y-100960000D02*
X142240000Y-99000000D01*
%TO.C,C11*%
X151160000Y-92340000D02*
X151160000Y-90380000D01*
X151160000Y-90380000D02*
X147400000Y-90380000D01*
X147400000Y-92340000D02*
X151160000Y-92340000D01*
X147400000Y-90380000D02*
X147400000Y-92340000D01*
%TO.C,R7*%
X219070000Y-58630000D02*
X220970000Y-58630000D01*
X220970000Y-58630000D02*
X220970000Y-54930000D01*
X219070000Y-54930000D02*
X219070000Y-58630000D01*
X220970000Y-54930000D02*
X219070000Y-54930000D01*
%TO.C,R14*%
X171350000Y-115850000D02*
X173250000Y-115850000D01*
X173250000Y-115850000D02*
X173250000Y-112150000D01*
X171350000Y-112150000D02*
X171350000Y-115850000D01*
X173250000Y-112150000D02*
X171350000Y-112150000D01*
%TO.C,Y1*%
X141110000Y-106390000D02*
X134910000Y-106390000D01*
X141110000Y-102590000D02*
X141110000Y-106390000D01*
X134910000Y-106390000D02*
X134910000Y-102590000D01*
X134910000Y-102590000D02*
X141110000Y-102590000D01*
%TO.C,R20*%
X139930000Y-97680000D02*
X139930000Y-95780000D01*
X139930000Y-95780000D02*
X136230000Y-95780000D01*
X136230000Y-97680000D02*
X139930000Y-97680000D01*
X136230000Y-95780000D02*
X136230000Y-97680000D01*
%TO.C,C13*%
X151160000Y-96340000D02*
X151160000Y-94380000D01*
X151160000Y-94380000D02*
X147400000Y-94380000D01*
X147400000Y-96340000D02*
X151160000Y-96340000D01*
X147400000Y-94380000D02*
X147400000Y-96340000D01*
%TO.C,C6*%
X126372738Y-84360000D02*
X126372738Y-86320000D01*
X126372738Y-86320000D02*
X130132738Y-86320000D01*
X130132738Y-84360000D02*
X126372738Y-84360000D01*
X130132738Y-86320000D02*
X130132738Y-84360000D01*
%TD*%
M02*
