  0
SECTION
  2
HEADER
  9
$ANGBASE
  50
0.0
  9
$ANGDIR
  70
1
  9
$MEASUREMENT
  70
0
  0
ENDSEC
  0
SECTION
  2
TABLES
  0
TABLE
  2
LTYPE
  70
4
  0
LTYPE
  5
40F
  2
CONTINUOUS
  70
0
  3
Solid line
  72
65
  73
0
  40
0.0
  0
LTYPE
  5
410
  2
DASHDOT
 70
0
  3
Dash Dot ____ _ ____ _
 72
65
 73
4
 40
2.0
 49
1.25
 49
-0.25
 49
0.25
 49
-0.25
  0
LTYPE
  5
411
  2
DASHED
 70
0
  3
Dashed __ __ __ __ __
 72
65
 73
2
 40
0.75
 49
0.5
 49
-0.25
  0
LTYPE
  5
43B
  2
DOTTED
 70
0
  3
Dotted .  .  .  .
 72
65
 73
2
 40
0.2
 49
0.0
 49
-0.2
  0
ENDTAB
  0
TABLE
  2
STYLE
  70
4
  0
STYLE
  2
KICAD
  70
0
  40
0
  41
1
  42
1
  50
0
  71
0
  3
isocp.shx
  0
STYLE
  2
KICADB
  70
0
  40
0
  41
1
  42
1
  50
0
  71
0
  3
isocp.shx
  0
STYLE
  2
KICADI
  70
0
  40
0
  41
1
  42
1
  50
15
  71
0
  3
isocp.shx
  0
STYLE
  2
KICADBI
  70
0
  40
0
  41
1
  42
1
  50
15
  71
0
  3
isocp.shx
  0
ENDTAB
  0
TABLE
  2
LAYER
  70
1
  0
LAYER
  2
BLACK
  70
0
  62
7
  6
CONTINUOUS
  0
ENDTAB
  0
ENDSEC
  0
SECTION
  2
ENTITIES
0
LINE
8
BLACK
6
CONTINUOUS
10
10.1575
20
-4.92126
11
0.708661
21
-4.92126
0
LINE
8
BLACK
6
CONTINUOUS
10
0.708661
20
-4.92126
11
0.708661
21
-0.708661
0
LINE
8
BLACK
6
CONTINUOUS
10
10.1575
20
-0.708661
11
10.1575
21
-4.92126
0
LINE
8
BLACK
6
CONTINUOUS
10
0.708661
20
-0.708661
11
10.1575
21
-0.708661
0
LINE
8
BLACK
6
CONTINUOUS
10
5.30059
20
-3.53051
11
5.30256
21
-3.53248
0
LINE
8
BLACK
6
CONTINUOUS
10
5.30256
20
-3.53051
11
5.30059
21
-3.53248
0
LINE
8
BLACK
6
CONTINUOUS
10
5.39665
20
-3.62618
11
5.39862
21
-3.62815
0
LINE
8
BLACK
6
CONTINUOUS
10
5.39862
20
-3.62618
11
5.39665
21
-3.62815
0
LINE
8
BLACK
6
CONTINUOUS
10
5.42815
20
-3.30413
11
5.43012
21
-3.3061
0
LINE
8
BLACK
6
CONTINUOUS
10
5.43012
20
-3.30413
11
5.42815
21
-3.3061
0
LINE
8
BLACK
6
CONTINUOUS
10
5.42815
20
-3.35581
11
5.43012
21
-3.35778
0
LINE
8
BLACK
6
CONTINUOUS
10
5.43012
20
-3.35581
11
5.42815
21
-3.35778
0
LINE
8
BLACK
6
CONTINUOUS
10
5.42815
20
-3.79232
11
5.43012
21
-3.79429
0
LINE
8
BLACK
6
CONTINUOUS
10
5.43012
20
-3.79232
11
5.42815
21
-3.79429
0
LINE
8
BLACK
6
CONTINUOUS
10
5.4439
20
-3.62657
11
5.44587
21
-3.62854
0
LINE
8
BLACK
6
CONTINUOUS
10
5.44587
20
-3.62657
11
5.4439
21
-3.62854
0
LINE
8
BLACK
6
CONTINUOUS
10
5.44665
20
-3.58681
11
5.44862
21
-3.58878
0
LINE
8
BLACK
6
CONTINUOUS
10
5.44862
20
-3.58681
11
5.44665
21
-3.58878
0
LINE
8
BLACK
6
CONTINUOUS
10
5.45965
20
-3.62657
11
5.46161
21
-3.62854
0
LINE
8
BLACK
6
CONTINUOUS
10
5.46161
20
-3.62657
11
5.45965
21
-3.62854
0
LINE
8
BLACK
6
CONTINUOUS
10
5.47264
20
-3.58681
11
5.47461
21
-3.58878
0
LINE
8
BLACK
6
CONTINUOUS
10
5.47461
20
-3.58681
11
5.47264
21
-3.58878
0
LINE
8
BLACK
6
CONTINUOUS
10
5.50689
20
-3.30335
11
5.50886
21
-3.30531
0
LINE
8
BLACK
6
CONTINUOUS
10
5.50886
20
-3.30335
11
5.50689
21
-3.30531
0
LINE
8
BLACK
6
CONTINUOUS
10
5.50689
20
-3.35581
11
5.50886
21
-3.35778
0
LINE
8
BLACK
6
CONTINUOUS
10
5.50886
20
-3.35581
11
5.50689
21
-3.35778
0
LINE
8
BLACK
6
CONTINUOUS
10
5.53839
20
-3.30413
11
5.54035
21
-3.3061
0
LINE
8
BLACK
6
CONTINUOUS
10
5.54035
20
-3.30413
11
5.53839
21
-3.3061
0
LINE
8
BLACK
6
CONTINUOUS
10
5.57136
20
-3.53051
11
5.57333
21
-3.53248
0
LINE
8
BLACK
6
CONTINUOUS
10
5.57333
20
-3.53051
11
5.57136
21
-3.53248
0
CIRCLE
8
BLACK
10
4.01662
20
-3.51378
40
0.0019685
0
CIRCLE
8
BLACK
10
4.05993
20
-3.51376
40
0.0019685
0
CIRCLE
8
BLACK
10
4.63386
20
-2.89764
40
0.0019685
0
CIRCLE
8
BLACK
10
4.63386
20
-2.93701
40
0.0019685
0
CIRCLE
8
BLACK
10
4.67128
20
-1.73414
40
0.0019685
0
CIRCLE
8
BLACK
10
4.71061
20
-1.67618
40
0.0019685
0
CIRCLE
8
BLACK
10
4.95276
20
-3.48624
40
0.0019685
0
CIRCLE
8
BLACK
10
4.95276
20
-3.52752
40
0.0019685
0
CIRCLE
8
BLACK
10
4.97228
20
-3.48624
40
0.0019685
0
CIRCLE
8
BLACK
10
4.97244
20
-3.52754
40
0.0019685
0
CIRCLE
8
BLACK
10
4.98801
20
-3.48625
40
0.0019685
0
CIRCLE
8
BLACK
10
4.99606
20
-3.52754
40
0.0019685
0
CIRCLE
8
BLACK
10
5.00746
20
-3.48625
40
0.0019685
0
CIRCLE
8
BLACK
10
5.01585
20
-3.52754
40
0.0019685
0
CIRCLE
8
BLACK
10
5.02692
20
-3.48625
40
0.0019685
0
CIRCLE
8
BLACK
10
5.03799
20
-3.5279
40
0.0019685
0
CIRCLE
8
BLACK
10
5.04638
20
-3.48626
40
0.0019685
0
CIRCLE
8
BLACK
10
5.05709
20
-3.52754
40
0.0019685
0
CIRCLE
8
BLACK
10
5.06584
20
-3.48626
40
0.0019685
0
CIRCLE
8
BLACK
10
5.08254
20
-3.48626
40
0.0019685
0
CIRCLE
8
BLACK
10
5.09925
20
-3.48624
40
0.0019685
0
CIRCLE
8
BLACK
10
5.11614
20
-3.75
40
0.0019685
0
CIRCLE
8
BLACK
10
5.11616
20
-3.69878
40
0.0019685
0
CIRCLE
8
BLACK
10
5.11616
20
-3.71457
40
0.0019685
0
CIRCLE
8
BLACK
10
5.11616
20
-3.73031
40
0.0019685
0
CIRCLE
8
BLACK
10
5.11616
20
-3.78146
40
0.0019685
0
CIRCLE
8
BLACK
10
5.11616
20
-3.76573
40
0.0019685
0
CIRCLE
8
BLACK
10
5.11809
20
-3.62008
40
0.0019685
0
CIRCLE
8
BLACK
10
5.1187
20
-3.48626
40
0.0019685
0
CIRCLE
8
BLACK
10
5.12996
20
-3.66732
40
0.0019685
0
CIRCLE
8
BLACK
10
5.1437
20
-3.5
40
0.0019685
0
CIRCLE
8
BLACK
10
5.14372
20
-3.40551
40
0.0019685
0
CIRCLE
8
BLACK
10
5.14372
20
-3.42126
40
0.0019685
0
CIRCLE
8
BLACK
10
5.14372
20
-3.43701
40
0.0019685
0
CIRCLE
8
BLACK
10
5.14372
20
-3.45276
40
0.0019685
0
CIRCLE
8
BLACK
10
5.14372
20
-3.4685
40
0.0019685
0
CIRCLE
8
BLACK
10
5.14372
20
-3.48425
40
0.0019685
0
CIRCLE
8
BLACK
10
5.14372
20
-3.51573
40
0.0019685
0
CIRCLE
8
BLACK
10
5.23029
20
-3.51573
40
0.0019685
0
CIRCLE
8
BLACK
10
5.2303
20
-3.40551
40
0.0019685
0
CIRCLE
8
BLACK
10
5.2303
20
-3.42126
40
0.0019685
0
CIRCLE
8
BLACK
10
5.2303
20
-3.45276
40
0.0019685
0
CIRCLE
8
BLACK
10
5.2303
20
-3.46848
40
0.0019685
0
CIRCLE
8
BLACK
10
5.2303
20
-3.48425
40
0.0019685
0
CIRCLE
8
BLACK
10
5.2303
20
-3.54724
40
0.0019685
0
CIRCLE
8
BLACK
10
5.2303
20
-3.57874
40
0.0019685
0
CIRCLE
8
BLACK
10
5.2303
20
-3.59449
40
0.0019685
0
CIRCLE
8
BLACK
10
5.2303
20
-3.66732
40
0.0019685
0
CIRCLE
8
BLACK
10
5.2303
20
-3.68305
40
0.0019685
0
CIRCLE
8
BLACK
10
5.2303
20
-3.69878
40
0.0019685
0
CIRCLE
8
BLACK
10
5.2303
20
-3.71451
40
0.0019685
0
CIRCLE
8
BLACK
10
5.2303
20
-3.76575
40
0.0019685
0
CIRCLE
8
BLACK
10
5.2303
20
-3.78148
40
0.0019685
0
CIRCLE
8
BLACK
10
5.23031
20
-3.5
40
0.0019685
0
CIRCLE
8
BLACK
10
5.23031
20
-3.56299
40
0.0019685
0
CIRCLE
8
BLACK
10
5.23031
20
-3.73031
40
0.0019685
0
CIRCLE
8
BLACK
10
5.23031
20
-3.75
40
0.0019685
0
CIRCLE
8
BLACK
10
5.23032
20
-3.43699
40
0.0019685
0
CIRCLE
8
BLACK
10
5.30709
20
-4.59843
40
0.0019685
0
CIRCLE
8
BLACK
10
5.31102
20
-2.91339
40
0.0019685
0
CIRCLE
8
BLACK
10
5.31115
20
-2.96053
40
0.0019685
0
CIRCLE
8
BLACK
10
5.33872
20
-2.7794
40
0.0019685
0
CIRCLE
8
BLACK
10
5.35348
20
-2.79416
40
0.0019685
0
CIRCLE
8
BLACK
10
5.35642
20
-2.75787
40
0.0019685
0
CIRCLE
8
BLACK
10
5.36394
20
-3.86
40
0.0019685
0
CIRCLE
8
BLACK
10
5.3666
20
-2.80728
40
0.0019685
0
CIRCLE
8
BLACK
10
5.37018
20
-2.77196
40
0.0019685
0
CIRCLE
8
BLACK
10
5.38005
20
-2.82073
40
0.0019685
0
CIRCLE
8
BLACK
10
5.38389
20
-3.69923
40
0.0019685
0
CIRCLE
8
BLACK
10
5.38389
20
-3.71869
40
0.0019685
0
CIRCLE
8
BLACK
10
5.38389
20
-3.73815
40
0.0019685
0
CIRCLE
8
BLACK
10
5.38389
20
-3.67977
40
0.0019685
0
CIRCLE
8
BLACK
10
5.38394
20
-2.78572
40
0.0019685
0
CIRCLE
8
BLACK
10
5.38898
20
-3.88504
40
0.0019685
0
CIRCLE
8
BLACK
10
5.39482
20
-2.8355
40
0.0019685
0
CIRCLE
8
BLACK
10
5.39578
20
-2.79757
40
0.0019685
0
CIRCLE
8
BLACK
10
5.40795
20
-2.51102
40
0.0019685
0
CIRCLE
8
BLACK
10
5.40954
20
-2.81133
40
0.0019685
0
CIRCLE
8
BLACK
10
5.41148
20
-2.8542
40
0.0019685
0
CIRCLE
8
BLACK
10
5.42329
20
-2.71654
40
0.0019685
0
CIRCLE
8
BLACK
10
5.4233
20
-2.82506
40
0.0019685
0
CIRCLE
8
BLACK
10
5.43513
20
-2.48258
40
0.0019685
0
CIRCLE
8
BLACK
10
5.43701
20
-2.52338
40
0.0019685
0
CIRCLE
8
BLACK
10
5.44886
20
-2.49633
40
0.0019685
0
CIRCLE
8
BLACK
10
5.44886
20
-3.07889
40
0.0019685
0
CIRCLE
8
BLACK
10
5.44886
20
-3.09462
40
0.0019685
0
CIRCLE
8
BLACK
10
5.44886
20
-3.11035
40
0.0019685
0
CIRCLE
8
BLACK
10
5.46262
20
-1.8248
40
0.0019685
0
CIRCLE
8
BLACK
10
5.46262
20
-2.05118
40
0.0019685
0
CIRCLE
8
BLACK
10
5.46262
20
-2.40157
40
0.0019685
0
CIRCLE
8
BLACK
10
5.50589
20
-1.8248
40
0.0019685
0
CIRCLE
8
BLACK
10
5.50589
20
-2.05118
40
0.0019685
0
CIRCLE
8
BLACK
10
5.50589
20
-2.40157
40
0.0019685
0
CIRCLE
8
BLACK
10
5.50589
20
-2.71654
40
0.0019685
0
CIRCLE
8
BLACK
10
5.50589
20
-3.07874
40
0.0019685
0
CIRCLE
8
BLACK
10
5.50589
20
-3.09449
40
0.0019685
0
CIRCLE
8
BLACK
10
5.50589
20
-3.11024
40
0.0019685
0
CIRCLE
8
BLACK
10
5.52163
20
-3.72632
40
0.0019685
0
CIRCLE
8
BLACK
10
5.52163
20
-3.67913
40
0.0019685
0
CIRCLE
8
BLACK
10
5.52163
20
-3.69486
40
0.0019685
0
CIRCLE
8
BLACK
10
5.52167
20
-3.71059
40
0.0019685
0
CIRCLE
8
BLACK
10
5.67323
20
-4.6122
40
0.0019685
0
CIRCLE
8
BLACK
10
5.6734
20
-1.651
40
0.0019685
0
CIRCLE
8
BLACK
10
5.68307
20
-1.66339
40
0.0019685
0
CIRCLE
8
BLACK
10
5.69757
20
-1.62668
40
0.0019685
0
CIRCLE
8
BLACK
10
5.70807
20
-1.63839
40
0.0019685
0
CIRCLE
8
BLACK
10
5.76378
20
-4.6122
40
0.0019685
0
LINE
8
BLACK
6
CONTINUOUS
10
2.4374
20
-1.82982
11
2.4374
21
-1.84557
0
LINE
8
BLACK
6
CONTINUOUS
10
2.42953
20
-1.83769
11
2.44528
21
-1.83769
0
LINE
8
BLACK
6
CONTINUOUS
10
2.4374
20
-1.88687
11
2.4374
21
-1.90261
0
LINE
8
BLACK
6
CONTINUOUS
10
2.42953
20
-1.89474
11
2.44528
21
-1.89474
0
LINE
8
BLACK
6
CONTINUOUS
10
2.4374
20
-2.57982
11
2.4374
21
-2.59557
0
LINE
8
BLACK
6
CONTINUOUS
10
2.42953
20
-2.58769
11
2.44528
21
-2.58769
0
LINE
8
BLACK
6
CONTINUOUS
10
2.4374
20
-2.63687
11
2.4374
21
-2.65261
0
LINE
8
BLACK
6
CONTINUOUS
10
2.42953
20
-2.64474
11
2.44528
21
-2.64474
0
LINE
8
BLACK
6
CONTINUOUS
10
2.88373
20
-2.26772
11
2.88373
21
-2.28346
0
LINE
8
BLACK
6
CONTINUOUS
10
2.87586
20
-2.27559
11
2.8916
21
-2.27559
0
LINE
8
BLACK
6
CONTINUOUS
10
2.94078
20
-2.26614
11
2.94078
21
-2.28189
0
LINE
8
BLACK
6
CONTINUOUS
10
2.9329
20
-2.27402
11
2.94865
21
-2.27402
0
LINE
8
BLACK
6
CONTINUOUS
10
5.0859
20
-3.01936
11
5.0859
21
-3.03511
0
LINE
8
BLACK
6
CONTINUOUS
10
5.07802
20
-3.02723
11
5.09377
21
-3.02723
0
LINE
8
BLACK
6
CONTINUOUS
10
5.13373
20
-2.26772
11
5.13373
21
-2.28346
0
LINE
8
BLACK
6
CONTINUOUS
10
5.12586
20
-2.27559
11
5.1416
21
-2.27559
0
LINE
8
BLACK
6
CONTINUOUS
10
5.14372
20
-4.39272
11
5.14372
21
-4.40846
0
LINE
8
BLACK
6
CONTINUOUS
10
5.13585
20
-4.40059
11
5.15159
21
-4.40059
0
LINE
8
BLACK
6
CONTINUOUS
10
5.15553
20
-4.43365
11
5.15553
21
-4.4494
0
LINE
8
BLACK
6
CONTINUOUS
10
5.14766
20
-4.44152
11
5.16341
21
-4.44152
0
LINE
8
BLACK
6
CONTINUOUS
10
5.16541
20
-3.02053
11
5.16541
21
-3.03627
0
LINE
8
BLACK
6
CONTINUOUS
10
5.15753
20
-3.0284
11
5.17328
21
-3.0284
0
LINE
8
BLACK
6
CONTINUOUS
10
5.19078
20
-2.26772
11
5.19078
21
-2.28346
0
LINE
8
BLACK
6
CONTINUOUS
10
5.1829
20
-2.27559
11
5.19865
21
-2.27559
0
LINE
8
BLACK
6
CONTINUOUS
10
5.22539
20
-4.49213
11
5.22539
21
-4.50787
0
LINE
8
BLACK
6
CONTINUOUS
10
5.21752
20
-4.5
11
5.23327
21
-4.5
0
LINE
8
BLACK
6
CONTINUOUS
10
5.29291
20
-4.00315
11
5.29291
21
-4.0189
0
LINE
8
BLACK
6
CONTINUOUS
10
5.28504
20
-4.01102
11
5.30079
21
-4.01102
0
LINE
8
BLACK
6
CONTINUOUS
10
5.30512
20
-1.03937
11
5.30512
21
-1.05512
0
LINE
8
BLACK
6
CONTINUOUS
10
5.29724
20
-1.04724
11
5.31299
21
-1.04724
0
LINE
8
BLACK
6
CONTINUOUS
10
5.30719
20
-3.92835
11
5.30719
21
-3.94409
0
LINE
8
BLACK
6
CONTINUOUS
10
5.29931
20
-3.93622
11
5.31506
21
-3.93622
0
LINE
8
BLACK
6
CONTINUOUS
10
5.38189
20
-0.929134
11
5.38189
21
-0.944882
0
LINE
8
BLACK
6
CONTINUOUS
10
5.37402
20
-0.937008
11
5.38976
21
-0.937008
0
LINE
8
BLACK
6
CONTINUOUS
10
5.38888
20
-3.92835
11
5.38888
21
-3.94409
0
LINE
8
BLACK
6
CONTINUOUS
10
5.381
20
-3.93622
11
5.39675
21
-3.93622
0
LINE
8
BLACK
6
CONTINUOUS
10
5.39291
20
-4.00315
11
5.39291
21
-4.0189
0
LINE
8
BLACK
6
CONTINUOUS
10
5.38504
20
-4.01102
11
5.40079
21
-4.01102
0
LINE
8
BLACK
6
CONTINUOUS
10
5.39567
20
-1.70276
11
5.39567
21
-1.7185
0
LINE
8
BLACK
6
CONTINUOUS
10
5.3878
20
-1.71063
11
5.40354
21
-1.71063
0
LINE
8
BLACK
6
CONTINUOUS
10
5.40323
20
-1.0463
11
5.40323
21
-1.06204
0
LINE
8
BLACK
6
CONTINUOUS
10
5.39536
20
-1.05417
11
5.4111
21
-1.05417
0
LINE
8
BLACK
6
CONTINUOUS
10
5.43075
20
-1.46912
11
5.43075
21
-1.48487
0
LINE
8
BLACK
6
CONTINUOUS
10
5.42288
20
-1.477
11
5.43863
21
-1.477
0
LINE
8
BLACK
6
CONTINUOUS
10
5.4311
20
-1.37992
11
5.4311
21
-1.39567
0
LINE
8
BLACK
6
CONTINUOUS
10
5.42323
20
-1.3878
11
5.43898
21
-1.3878
0
LINE
8
BLACK
6
CONTINUOUS
10
5.43602
20
-1.82982
11
5.43602
21
-1.84557
0
LINE
8
BLACK
6
CONTINUOUS
10
5.42815
20
-1.83769
11
5.4439
21
-1.83769
0
LINE
8
BLACK
6
CONTINUOUS
10
5.43602
20
-1.88687
11
5.43602
21
-1.90261
0
LINE
8
BLACK
6
CONTINUOUS
10
5.42815
20
-1.89474
11
5.4439
21
-1.89474
0
LINE
8
BLACK
6
CONTINUOUS
10
5.43701
20
-3.48425
11
5.43701
21
-3.5
0
LINE
8
BLACK
6
CONTINUOUS
10
5.42913
20
-3.49213
11
5.44488
21
-3.49213
0
LINE
8
BLACK
6
CONTINUOUS
10
5.44094
20
-4.20276
11
5.44094
21
-4.2185
0
LINE
8
BLACK
6
CONTINUOUS
10
5.43307
20
-4.21063
11
5.44882
21
-4.21063
0
LINE
8
BLACK
6
CONTINUOUS
10
5.4626
20
-1.04724
11
5.4626
21
-1.06299
0
LINE
8
BLACK
6
CONTINUOUS
10
5.45472
20
-1.05512
11
5.47047
21
-1.05512
0
LINE
8
BLACK
6
CONTINUOUS
10
5.47835
20
-1.70276
11
5.47835
21
-1.7185
0
LINE
8
BLACK
6
CONTINUOUS
10
5.47047
20
-1.71063
11
5.48622
21
-1.71063
0
LINE
8
BLACK
6
CONTINUOUS
10
5.48425
20
-0.929134
11
5.48425
21
-0.944882
0
LINE
8
BLACK
6
CONTINUOUS
10
5.47638
20
-0.937008
11
5.49213
21
-0.937008
0
LINE
8
BLACK
6
CONTINUOUS
10
5.49635
20
-4.29526
11
5.49635
21
-4.311
0
LINE
8
BLACK
6
CONTINUOUS
10
5.48847
20
-4.30313
11
5.50422
21
-4.30313
0
LINE
8
BLACK
6
CONTINUOUS
10
5.4966
20
-4.2323
11
5.4966
21
-4.24805
0
LINE
8
BLACK
6
CONTINUOUS
10
5.48872
20
-4.24018
11
5.50447
21
-4.24018
0
LINE
8
BLACK
6
CONTINUOUS
10
5.53346
20
-4.39272
11
5.53346
21
-4.40846
0
LINE
8
BLACK
6
CONTINUOUS
10
5.52559
20
-4.40059
11
5.54134
21
-4.40059
0
LINE
8
BLACK
6
CONTINUOUS
10
5.53346
20
-4.43996
11
5.53346
21
-4.45571
0
LINE
8
BLACK
6
CONTINUOUS
10
5.52559
20
-4.44783
11
5.54134
21
-4.44783
0
LINE
8
BLACK
6
CONTINUOUS
10
5.53346
20
-4.49213
11
5.53346
21
-4.50787
0
LINE
8
BLACK
6
CONTINUOUS
10
5.52559
20
-4.5
11
5.54134
21
-4.5
0
LINE
8
BLACK
6
CONTINUOUS
10
5.56102
20
-1.03937
11
5.56102
21
-1.05512
0
LINE
8
BLACK
6
CONTINUOUS
10
5.55315
20
-1.04724
11
5.5689
21
-1.04724
0
LINE
8
BLACK
6
CONTINUOUS
10
5.61211
20
-3.22953
11
5.61211
21
-3.24528
0
LINE
8
BLACK
6
CONTINUOUS
10
5.60423
20
-3.2374
11
5.61998
21
-3.2374
0
LINE
8
BLACK
6
CONTINUOUS
10
5.62795
20
-4.20276
11
5.62795
21
-4.2185
0
LINE
8
BLACK
6
CONTINUOUS
10
5.62008
20
-4.21063
11
5.63583
21
-4.21063
0
LINE
8
BLACK
6
CONTINUOUS
10
5.66742
20
-4.34331
11
5.66742
21
-4.35906
0
LINE
8
BLACK
6
CONTINUOUS
10
5.65955
20
-4.35118
11
5.6753
21
-4.35118
0
LINE
8
BLACK
6
CONTINUOUS
10
5.88373
20
-2.26772
11
5.88373
21
-2.28346
0
LINE
8
BLACK
6
CONTINUOUS
10
5.87586
20
-2.27559
11
5.8916
21
-2.27559
0
LINE
8
BLACK
6
CONTINUOUS
10
5.90826
20
-3.01969
11
5.90826
21
-3.03544
0
LINE
8
BLACK
6
CONTINUOUS
10
5.90039
20
-3.02756
11
5.91614
21
-3.02756
0
LINE
8
BLACK
6
CONTINUOUS
10
5.91801
20
-3.27402
11
5.91801
21
-3.28976
0
LINE
8
BLACK
6
CONTINUOUS
10
5.91014
20
-3.28189
11
5.92589
21
-3.28189
0
LINE
8
BLACK
6
CONTINUOUS
10
5.94078
20
-2.26772
11
5.94078
21
-2.28346
0
LINE
8
BLACK
6
CONTINUOUS
10
5.9329
20
-2.27559
11
5.94865
21
-2.27559
0
LINE
8
BLACK
6
CONTINUOUS
10
5.98758
20
-3.01833
11
5.98758
21
-3.03408
0
LINE
8
BLACK
6
CONTINUOUS
10
5.9797
20
-3.0262
11
5.99545
21
-3.0262
0
LINE
8
BLACK
6
CONTINUOUS
10
8.13373
20
-1.52126
11
8.13373
21
-1.53701
0
LINE
8
BLACK
6
CONTINUOUS
10
8.12586
20
-1.52913
11
8.1416
21
-1.52913
0
LINE
8
BLACK
6
CONTINUOUS
10
8.13373
20
-2.26693
11
8.13373
21
-2.28268
0
LINE
8
BLACK
6
CONTINUOUS
10
8.12586
20
-2.2748
11
8.1416
21
-2.2748
0
LINE
8
BLACK
6
CONTINUOUS
10
8.19078
20
-2.26693
11
8.19078
21
-2.28268
0
LINE
8
BLACK
6
CONTINUOUS
10
8.1829
20
-2.2748
11
8.19865
21
-2.2748
0
LINE
8
BLACK
6
CONTINUOUS
10
8.19567
20
-1.52047
11
8.19567
21
-1.53622
0
LINE
8
BLACK
6
CONTINUOUS
10
8.1878
20
-1.52835
11
8.20354
21
-1.52835
0
LINE
8
BLACK
6
CONTINUOUS
10
8.4374
20
-1.88687
11
8.4374
21
-1.90261
0
LINE
8
BLACK
6
CONTINUOUS
10
8.42953
20
-1.89474
11
8.44528
21
-1.89474
0
LINE
8
BLACK
6
CONTINUOUS
10
8.43898
20
-1.82982
11
8.43898
21
-1.84557
0
LINE
8
BLACK
6
CONTINUOUS
10
8.4311
20
-1.83769
11
8.44685
21
-1.83769
0
LINE
8
BLACK
6
CONTINUOUS
10
5.27134
20
-0.824297
11
5.27134
21
-0.807593
0
LINE
8
BLACK
6
CONTINUOUS
10
5.27134
20
-0.807593
11
5.25464
21
-0.807593
0
LINE
8
BLACK
6
CONTINUOUS
10
5.25464
20
-0.807593
11
5.25464
21
-0.824297
0
LINE
8
BLACK
6
CONTINUOUS
10
5.25464
20
-0.824297
11
5.27134
21
-0.824297
0
LINE
8
BLACK
6
CONTINUOUS
10
5.2748
20
-0.827756
11
5.2748
21
-0.804134
0
ARC
8
BLACK
10
5.26299
20
-0.804134
40
0.011811
50
360
51
540
0
LINE
8
BLACK
6
CONTINUOUS
10
5.25118
20
-0.804134
11
5.25118
21
-0.827756
0
ARC
8
BLACK
10
5.26299
20
-0.827756
40
0.011811
50
180
51
360
0
LINE
8
BLACK
6
CONTINUOUS
10
5.27134
20
-0.988864
11
5.27134
21
-0.97216
0
LINE
8
BLACK
6
CONTINUOUS
10
5.27134
20
-0.97216
11
5.25464
21
-0.97216
0
LINE
8
BLACK
6
CONTINUOUS
10
5.25464
20
-0.97216
11
5.25464
21
-0.988864
0
LINE
8
BLACK
6
CONTINUOUS
10
5.25464
20
-0.988864
11
5.27134
21
-0.988864
0
LINE
8
BLACK
6
CONTINUOUS
10
5.2748
20
-1.00217
11
5.2748
21
-0.958858
0
ARC
8
BLACK
10
5.26299
20
-0.958858
40
0.011811
50
360
51
540
0
LINE
8
BLACK
6
CONTINUOUS
10
5.25118
20
-0.958858
11
5.25118
21
-1.00217
0
ARC
8
BLACK
10
5.26299
20
-1.00217
40
0.011811
50
180
51
360
0
LINE
8
BLACK
6
CONTINUOUS
10
5.6115
20
-0.824297
11
5.6115
21
-0.807593
0
LINE
8
BLACK
6
CONTINUOUS
10
5.6115
20
-0.807593
11
5.5948
21
-0.807593
0
LINE
8
BLACK
6
CONTINUOUS
10
5.5948
20
-0.807593
11
5.5948
21
-0.824297
0
LINE
8
BLACK
6
CONTINUOUS
10
5.5948
20
-0.824297
11
5.6115
21
-0.824297
0
LINE
8
BLACK
6
CONTINUOUS
10
5.61496
20
-0.827756
11
5.61496
21
-0.804134
0
ARC
8
BLACK
10
5.60315
20
-0.804134
40
0.011811
50
360
51
540
0
LINE
8
BLACK
6
CONTINUOUS
10
5.59134
20
-0.804134
11
5.59134
21
-0.827756
0
ARC
8
BLACK
10
5.60315
20
-0.827756
40
0.011811
50
180
51
360
0
LINE
8
BLACK
6
CONTINUOUS
10
5.6115
20
-0.988864
11
5.6115
21
-0.97216
0
LINE
8
BLACK
6
CONTINUOUS
10
5.6115
20
-0.97216
11
5.5948
21
-0.97216
0
LINE
8
BLACK
6
CONTINUOUS
10
5.5948
20
-0.97216
11
5.5948
21
-0.988864
0
LINE
8
BLACK
6
CONTINUOUS
10
5.5948
20
-0.988864
11
5.6115
21
-0.988864
0
LINE
8
BLACK
6
CONTINUOUS
10
5.61496
20
-1.00217
11
5.61496
21
-0.958858
0
ARC
8
BLACK
10
5.60315
20
-0.958858
40
0.011811
50
360
51
540
0
LINE
8
BLACK
6
CONTINUOUS
10
5.59134
20
-0.958858
11
5.59134
21
-1.00217
0
ARC
8
BLACK
10
5.60315
20
-1.00217
40
0.011811
50
180
51
360
0
LINE
8
BLACK
6
CONTINUOUS
10
5.36594
20
-4.71732
11
5.38563
21
-4.69764
0
LINE
8
BLACK
6
CONTINUOUS
10
5.38563
20
-4.69764
11
5.36594
21
-4.67795
0
LINE
8
BLACK
6
CONTINUOUS
10
5.36594
20
-4.67795
11
5.34626
21
-4.69764
0
LINE
8
BLACK
6
CONTINUOUS
10
5.34626
20
-4.69764
11
5.36594
21
-4.71732
0
LINE
8
BLACK
6
CONTINUOUS
10
5.36594
20
-4.81732
11
5.38563
21
-4.79764
0
LINE
8
BLACK
6
CONTINUOUS
10
5.38563
20
-4.79764
11
5.36594
21
-4.77795
0
LINE
8
BLACK
6
CONTINUOUS
10
5.36594
20
-4.77795
11
5.34626
21
-4.79764
0
LINE
8
BLACK
6
CONTINUOUS
10
5.34626
20
-4.79764
11
5.36594
21
-4.81732
0
LINE
8
BLACK
6
CONTINUOUS
10
5.50807
20
-4.71732
11
5.52776
21
-4.69764
0
LINE
8
BLACK
6
CONTINUOUS
10
5.52776
20
-4.69764
11
5.50807
21
-4.67795
0
LINE
8
BLACK
6
CONTINUOUS
10
5.50807
20
-4.67795
11
5.48839
21
-4.69764
0
LINE
8
BLACK
6
CONTINUOUS
10
5.48839
20
-4.69764
11
5.50807
21
-4.71732
0
LINE
8
BLACK
6
CONTINUOUS
10
5.50807
20
-4.81732
11
5.52776
21
-4.79764
0
LINE
8
BLACK
6
CONTINUOUS
10
5.52776
20
-4.79764
11
5.50807
21
-4.77795
0
LINE
8
BLACK
6
CONTINUOUS
10
5.50807
20
-4.77795
11
5.48839
21
-4.79764
0
LINE
8
BLACK
6
CONTINUOUS
10
5.48839
20
-4.79764
11
5.50807
21
-4.81732
0
LINE
8
BLACK
6
CONTINUOUS
10
1.13273
20
-3.43669
11
1.19178
21
-3.49574
0
LINE
8
BLACK
6
CONTINUOUS
10
1.19178
20
-3.43669
11
1.13273
21
-3.49574
0
CIRCLE
8
BLACK
10
1.16225
20
-3.46622
40
0.0295276
0
LINE
8
BLACK
6
CONTINUOUS
10
1.38273
20
-3.33669
11
1.44178
21
-3.39574
0
LINE
8
BLACK
6
CONTINUOUS
10
1.44178
20
-3.33669
11
1.38273
21
-3.39574
0
CIRCLE
8
BLACK
10
1.41225
20
-3.36622
40
0.0295276
0
LINE
8
BLACK
6
CONTINUOUS
10
1.50773
20
-1.18669
11
1.56678
21
-1.24574
0
LINE
8
BLACK
6
CONTINUOUS
10
1.56678
20
-1.18669
11
1.50773
21
-1.24574
0
CIRCLE
8
BLACK
10
1.53725
20
-1.21622
40
0.0295276
0
LINE
8
BLACK
6
CONTINUOUS
10
1.75773
20
-1.08669
11
1.81678
21
-1.14574
0
LINE
8
BLACK
6
CONTINUOUS
10
1.81678
20
-1.08669
11
1.75773
21
-1.14574
0
CIRCLE
8
BLACK
10
1.78725
20
-1.11622
40
0.0295276
0
LINE
8
BLACK
6
CONTINUOUS
10
1.88273
20
-1.93669
11
1.94178
21
-1.99574
0
LINE
8
BLACK
6
CONTINUOUS
10
1.94178
20
-1.93669
11
1.88273
21
-1.99574
0
CIRCLE
8
BLACK
10
1.91225
20
-1.96622
40
0.0295276
0
LINE
8
BLACK
6
CONTINUOUS
10
2.13273
20
-1.83669
11
2.19178
21
-1.89574
0
LINE
8
BLACK
6
CONTINUOUS
10
2.19178
20
-1.83669
11
2.13273
21
-1.89574
0
CIRCLE
8
BLACK
10
2.16225
20
-1.86622
40
0.0295276
0
LINE
8
BLACK
6
CONTINUOUS
10
2.63273
20
-1.18669
11
2.69178
21
-1.24574
0
LINE
8
BLACK
6
CONTINUOUS
10
2.69178
20
-1.18669
11
2.63273
21
-1.24574
0
CIRCLE
8
BLACK
10
2.66225
20
-1.21622
40
0.0295276
0
LINE
8
BLACK
6
CONTINUOUS
10
2.63273
20
-1.93669
11
2.69178
21
-1.99574
0
LINE
8
BLACK
6
CONTINUOUS
10
2.69178
20
-1.93669
11
2.63273
21
-1.99574
0
CIRCLE
8
BLACK
10
2.66225
20
-1.96622
40
0.0295276
0
LINE
8
BLACK
6
CONTINUOUS
10
2.63273
20
-2.68669
11
2.69178
21
-2.74574
0
LINE
8
BLACK
6
CONTINUOUS
10
2.69178
20
-2.68669
11
2.63273
21
-2.74574
0
CIRCLE
8
BLACK
10
2.66225
20
-2.71622
40
0.0295276
0
LINE
8
BLACK
6
CONTINUOUS
10
2.88273
20
-1.08669
11
2.94178
21
-1.14574
0
LINE
8
BLACK
6
CONTINUOUS
10
2.94178
20
-1.08669
11
2.88273
21
-1.14574
0
CIRCLE
8
BLACK
10
2.91225
20
-1.11622
40
0.0295276
0
LINE
8
BLACK
6
CONTINUOUS
10
2.88273
20
-1.83669
11
2.94178
21
-1.89574
0
LINE
8
BLACK
6
CONTINUOUS
10
2.94178
20
-1.83669
11
2.88273
21
-1.89574
0
CIRCLE
8
BLACK
10
2.91225
20
-1.86622
40
0.0295276
0
LINE
8
BLACK
6
CONTINUOUS
10
2.88273
20
-2.58669
11
2.94178
21
-2.64574
0
LINE
8
BLACK
6
CONTINUOUS
10
2.94178
20
-2.58669
11
2.88273
21
-2.64574
0
CIRCLE
8
BLACK
10
2.91225
20
-2.61622
40
0.0295276
0
LINE
8
BLACK
6
CONTINUOUS
10
3.38273
20
-1.93669
11
3.44178
21
-1.99574
0
LINE
8
BLACK
6
CONTINUOUS
10
3.44178
20
-1.93669
11
3.38273
21
-1.99574
0
CIRCLE
8
BLACK
10
3.41225
20
-1.96622
40
0.0295276
0
LINE
8
BLACK
6
CONTINUOUS
10
3.63273
20
-1.83669
11
3.69178
21
-1.89574
0
LINE
8
BLACK
6
CONTINUOUS
10
3.69178
20
-1.83669
11
3.63273
21
-1.89574
0
CIRCLE
8
BLACK
10
3.66225
20
-1.86622
40
0.0295276
0
LINE
8
BLACK
6
CONTINUOUS
10
3.75773
20
-4.18669
11
3.81678
21
-4.24574
0
LINE
8
BLACK
6
CONTINUOUS
10
3.81678
20
-4.18669
11
3.75773
21
-4.24574
0
CIRCLE
8
BLACK
10
3.78725
20
-4.21622
40
0.0295276
0
LINE
8
BLACK
6
CONTINUOUS
10
4.00773
20
-4.08669
11
4.06678
21
-4.14574
0
LINE
8
BLACK
6
CONTINUOUS
10
4.06678
20
-4.08669
11
4.00773
21
-4.14574
0
CIRCLE
8
BLACK
10
4.03725
20
-4.11622
40
0.0295276
0
LINE
8
BLACK
6
CONTINUOUS
10
4.88273
20
-1.93669
11
4.94178
21
-1.99574
0
LINE
8
BLACK
6
CONTINUOUS
10
4.94178
20
-1.93669
11
4.88273
21
-1.99574
0
CIRCLE
8
BLACK
10
4.91225
20
-1.96622
40
0.0295276
0
LINE
8
BLACK
6
CONTINUOUS
10
4.88273
20
-2.68669
11
4.94178
21
-2.74574
0
LINE
8
BLACK
6
CONTINUOUS
10
4.94178
20
-2.68669
11
4.88273
21
-2.74574
0
CIRCLE
8
BLACK
10
4.91225
20
-2.71622
40
0.0295276
0
LINE
8
BLACK
6
CONTINUOUS
10
5.13273
20
-1.83669
11
5.19178
21
-1.89574
0
LINE
8
BLACK
6
CONTINUOUS
10
5.19178
20
-1.83669
11
5.13273
21
-1.89574
0
CIRCLE
8
BLACK
10
5.16225
20
-1.86622
40
0.0295276
0
LINE
8
BLACK
6
CONTINUOUS
10
5.13273
20
-2.58669
11
5.19178
21
-2.64574
0
LINE
8
BLACK
6
CONTINUOUS
10
5.19178
20
-2.58669
11
5.13273
21
-2.64574
0
CIRCLE
8
BLACK
10
5.16225
20
-2.61622
40
0.0295276
0
LINE
8
BLACK
6
CONTINUOUS
10
5.63273
20
-1.93669
11
5.69178
21
-1.99574
0
LINE
8
BLACK
6
CONTINUOUS
10
5.69178
20
-1.93669
11
5.63273
21
-1.99574
0
CIRCLE
8
BLACK
10
5.66225
20
-1.96622
40
0.0295276
0
LINE
8
BLACK
6
CONTINUOUS
10
5.63273
20
-2.68669
11
5.69178
21
-2.74574
0
LINE
8
BLACK
6
CONTINUOUS
10
5.69178
20
-2.68669
11
5.63273
21
-2.74574
0
CIRCLE
8
BLACK
10
5.66225
20
-2.71622
40
0.0295276
0
LINE
8
BLACK
6
CONTINUOUS
10
5.88273
20
-1.83669
11
5.94178
21
-1.89574
0
LINE
8
BLACK
6
CONTINUOUS
10
5.94178
20
-1.83669
11
5.88273
21
-1.89574
0
CIRCLE
8
BLACK
10
5.91225
20
-1.86622
40
0.0295276
0
LINE
8
BLACK
6
CONTINUOUS
10
5.88273
20
-2.58669
11
5.94178
21
-2.64574
0
LINE
8
BLACK
6
CONTINUOUS
10
5.94178
20
-2.58669
11
5.88273
21
-2.64574
0
CIRCLE
8
BLACK
10
5.91225
20
-2.61622
40
0.0295276
0
LINE
8
BLACK
6
CONTINUOUS
10
6.75773
20
-4.18669
11
6.81678
21
-4.24574
0
LINE
8
BLACK
6
CONTINUOUS
10
6.81678
20
-4.18669
11
6.75773
21
-4.24574
0
CIRCLE
8
BLACK
10
6.78725
20
-4.21622
40
0.0295276
0
LINE
8
BLACK
6
CONTINUOUS
10
7.00773
20
-4.08669
11
7.06678
21
-4.14574
0
LINE
8
BLACK
6
CONTINUOUS
10
7.06678
20
-4.08669
11
7.00773
21
-4.14574
0
CIRCLE
8
BLACK
10
7.03725
20
-4.11622
40
0.0295276
0
LINE
8
BLACK
6
CONTINUOUS
10
7.13273
20
-1.93669
11
7.19178
21
-1.99574
0
LINE
8
BLACK
6
CONTINUOUS
10
7.19178
20
-1.93669
11
7.13273
21
-1.99574
0
CIRCLE
8
BLACK
10
7.16225
20
-1.96622
40
0.0295276
0
LINE
8
BLACK
6
CONTINUOUS
10
7.38273
20
-1.83669
11
7.44178
21
-1.89574
0
LINE
8
BLACK
6
CONTINUOUS
10
7.44178
20
-1.83669
11
7.38273
21
-1.89574
0
CIRCLE
8
BLACK
10
7.41225
20
-1.86622
40
0.0295276
0
LINE
8
BLACK
6
CONTINUOUS
10
7.88273
20
-1.18669
11
7.94178
21
-1.24574
0
LINE
8
BLACK
6
CONTINUOUS
10
7.94178
20
-1.18669
11
7.88273
21
-1.24574
0
CIRCLE
8
BLACK
10
7.91225
20
-1.21622
40
0.0295276
0
LINE
8
BLACK
6
CONTINUOUS
10
7.88273
20
-1.93669
11
7.94178
21
-1.99574
0
LINE
8
BLACK
6
CONTINUOUS
10
7.94178
20
-1.93669
11
7.88273
21
-1.99574
0
CIRCLE
8
BLACK
10
7.91225
20
-1.96622
40
0.0295276
0
LINE
8
BLACK
6
CONTINUOUS
10
7.88273
20
-2.68669
11
7.94178
21
-2.74574
0
LINE
8
BLACK
6
CONTINUOUS
10
7.94178
20
-2.68669
11
7.88273
21
-2.74574
0
CIRCLE
8
BLACK
10
7.91225
20
-2.71622
40
0.0295276
0
LINE
8
BLACK
6
CONTINUOUS
10
8.13273
20
-1.08669
11
8.19178
21
-1.14574
0
LINE
8
BLACK
6
CONTINUOUS
10
8.19178
20
-1.08669
11
8.13273
21
-1.14574
0
CIRCLE
8
BLACK
10
8.16225
20
-1.11622
40
0.0295276
0
LINE
8
BLACK
6
CONTINUOUS
10
8.13273
20
-1.83669
11
8.19178
21
-1.89574
0
LINE
8
BLACK
6
CONTINUOUS
10
8.19178
20
-1.83669
11
8.13273
21
-1.89574
0
CIRCLE
8
BLACK
10
8.16225
20
-1.86622
40
0.0295276
0
LINE
8
BLACK
6
CONTINUOUS
10
8.13273
20
-2.58669
11
8.19178
21
-2.64574
0
LINE
8
BLACK
6
CONTINUOUS
10
8.19178
20
-2.58669
11
8.13273
21
-2.64574
0
CIRCLE
8
BLACK
10
8.16225
20
-2.61622
40
0.0295276
0
LINE
8
BLACK
6
CONTINUOUS
10
8.63273
20
-1.93669
11
8.69178
21
-1.99574
0
LINE
8
BLACK
6
CONTINUOUS
10
8.69178
20
-1.93669
11
8.63273
21
-1.99574
0
CIRCLE
8
BLACK
10
8.66225
20
-1.96622
40
0.0295276
0
LINE
8
BLACK
6
CONTINUOUS
10
8.88273
20
-1.83669
11
8.94178
21
-1.89574
0
LINE
8
BLACK
6
CONTINUOUS
10
8.94178
20
-1.83669
11
8.88273
21
-1.89574
0
CIRCLE
8
BLACK
10
8.91225
20
-1.86622
40
0.0295276
0
LINE
8
BLACK
6
CONTINUOUS
10
9.00773
20
-1.18669
11
9.06678
21
-1.24574
0
LINE
8
BLACK
6
CONTINUOUS
10
9.06678
20
-1.18669
11
9.00773
21
-1.24574
0
CIRCLE
8
BLACK
10
9.03725
20
-1.21622
40
0.0295276
0
LINE
8
BLACK
6
CONTINUOUS
10
9.25773
20
-1.08669
11
9.31678
21
-1.14574
0
LINE
8
BLACK
6
CONTINUOUS
10
9.31678
20
-1.08669
11
9.25773
21
-1.14574
0
CIRCLE
8
BLACK
10
9.28725
20
-1.11622
40
0.0295276
0
LINE
8
BLACK
6
CONTINUOUS
10
9.38273
20
-3.43669
11
9.44178
21
-3.49574
0
LINE
8
BLACK
6
CONTINUOUS
10
9.44178
20
-3.43669
11
9.38273
21
-3.49574
0
CIRCLE
8
BLACK
10
9.41225
20
-3.46622
40
0.0295276
0
LINE
8
BLACK
6
CONTINUOUS
10
9.63273
20
-3.33669
11
9.69178
21
-3.39574
0
LINE
8
BLACK
6
CONTINUOUS
10
9.69178
20
-3.33669
11
9.63273
21
-3.39574
0
CIRCLE
8
BLACK
10
9.66225
20
-3.36622
40
0.0295276
0
LINE
8
BLACK
6
CONTINUOUS
10
0.809361
20
-5.04586
11
0.809361
21
-4.96712
0
LINE
8
BLACK
6
CONTINUOUS
10
0.809361
20
-4.96712
11
0.828109
21
-4.96712
0
LINE
8
BLACK
6
CONTINUOUS
10
0.828109
20
-4.96712
11
0.839357
21
-4.97087
0
LINE
8
BLACK
6
CONTINUOUS
10
0.839357
20
-4.97087
11
0.846856
21
-4.97837
0
LINE
8
BLACK
6
CONTINUOUS
10
0.846856
20
-4.97837
11
0.850606
21
-4.98587
0
LINE
8
BLACK
6
CONTINUOUS
10
0.850606
20
-4.98587
11
0.854355
21
-5.00087
0
LINE
8
BLACK
6
CONTINUOUS
10
0.854355
20
-5.00087
11
0.854355
21
-5.01211
0
LINE
8
BLACK
6
CONTINUOUS
10
0.854355
20
-5.01211
11
0.850606
21
-5.02711
0
LINE
8
BLACK
6
CONTINUOUS
10
0.850606
20
-5.02711
11
0.846856
21
-5.03461
0
LINE
8
BLACK
6
CONTINUOUS
10
0.846856
20
-5.03461
11
0.839357
21
-5.04211
0
LINE
8
BLACK
6
CONTINUOUS
10
0.839357
20
-5.04211
11
0.828109
21
-5.04586
0
LINE
8
BLACK
6
CONTINUOUS
10
0.828109
20
-5.04586
11
0.809361
21
-5.04586
0
LINE
8
BLACK
6
CONTINUOUS
10
0.888101
20
-5.04586
11
0.888101
21
-4.99337
0
LINE
8
BLACK
6
CONTINUOUS
10
0.888101
20
-5.00836
11
0.891851
21
-5.00087
0
LINE
8
BLACK
6
CONTINUOUS
10
0.891851
20
-5.00087
11
0.8956
21
-4.99712
0
LINE
8
BLACK
6
CONTINUOUS
10
0.8956
20
-4.99712
11
0.903099
21
-4.99337
0
LINE
8
BLACK
6
CONTINUOUS
10
0.903099
20
-4.99337
11
0.910598
21
-4.99337
0
LINE
8
BLACK
6
CONTINUOUS
10
0.936845
20
-5.04586
11
0.936845
21
-4.99337
0
LINE
8
BLACK
6
CONTINUOUS
10
0.936845
20
-4.96712
11
0.933095
21
-4.97087
0
LINE
8
BLACK
6
CONTINUOUS
10
0.933095
20
-4.97087
11
0.936845
21
-4.97462
0
LINE
8
BLACK
6
CONTINUOUS
10
0.936845
20
-4.97462
11
0.940595
21
-4.97087
0
LINE
8
BLACK
6
CONTINUOUS
10
0.940595
20
-4.97087
11
0.936845
21
-4.96712
0
LINE
8
BLACK
6
CONTINUOUS
10
0.936845
20
-4.96712
11
0.936845
21
-4.97462
0
LINE
8
BLACK
6
CONTINUOUS
10
0.985589
20
-5.04586
11
0.97809
21
-5.04211
0
LINE
8
BLACK
6
CONTINUOUS
10
0.97809
20
-5.04211
11
0.97434
21
-5.03461
0
LINE
8
BLACK
6
CONTINUOUS
10
0.97434
20
-5.03461
11
0.97434
21
-4.96712
0
LINE
8
BLACK
6
CONTINUOUS
10
1.02683
20
-5.04586
11
1.01933
21
-5.04211
0
LINE
8
BLACK
6
CONTINUOUS
10
1.01933
20
-5.04211
11
1.01559
21
-5.03461
0
LINE
8
BLACK
6
CONTINUOUS
10
1.01559
20
-5.03461
11
1.01559
21
-4.96712
0
LINE
8
BLACK
6
CONTINUOUS
10
1.11682
20
-5.04586
11
1.11682
21
-4.96712
0
LINE
8
BLACK
6
CONTINUOUS
10
1.11682
20
-4.96712
11
1.14307
21
-5.02336
0
LINE
8
BLACK
6
CONTINUOUS
10
1.14307
20
-5.02336
11
1.16932
21
-4.96712
0
LINE
8
BLACK
6
CONTINUOUS
10
1.16932
20
-4.96712
11
1.16932
21
-5.04586
0
LINE
8
BLACK
6
CONTINUOUS
10
1.24056
20
-5.04586
11
1.24056
21
-5.00461
0
LINE
8
BLACK
6
CONTINUOUS
10
1.24056
20
-5.00461
11
1.23681
21
-4.99712
0
LINE
8
BLACK
6
CONTINUOUS
10
1.23681
20
-4.99712
11
1.22931
21
-4.99337
0
LINE
8
BLACK
6
CONTINUOUS
10
1.22931
20
-4.99337
11
1.21431
21
-4.99337
0
LINE
8
BLACK
6
CONTINUOUS
10
1.21431
20
-4.99337
11
1.20681
21
-4.99712
0
LINE
8
BLACK
6
CONTINUOUS
10
1.24056
20
-5.04211
11
1.23306
21
-5.04586
0
LINE
8
BLACK
6
CONTINUOUS
10
1.23306
20
-5.04586
11
1.21431
21
-5.04586
0
LINE
8
BLACK
6
CONTINUOUS
10
1.21431
20
-5.04586
11
1.20681
21
-5.04211
0
LINE
8
BLACK
6
CONTINUOUS
10
1.20681
20
-5.04211
11
1.20306
21
-5.03461
0
LINE
8
BLACK
6
CONTINUOUS
10
1.20306
20
-5.03461
11
1.20306
21
-5.02711
0
LINE
8
BLACK
6
CONTINUOUS
10
1.20306
20
-5.02711
11
1.20681
21
-5.01961
0
LINE
8
BLACK
6
CONTINUOUS
10
1.20681
20
-5.01961
11
1.21431
21
-5.01586
0
LINE
8
BLACK
6
CONTINUOUS
10
1.21431
20
-5.01586
11
1.23306
21
-5.01586
0
LINE
8
BLACK
6
CONTINUOUS
10
1.23306
20
-5.01586
11
1.24056
21
-5.01211
0
LINE
8
BLACK
6
CONTINUOUS
10
1.27805
20
-4.99337
11
1.27805
21
-5.07211
0
LINE
8
BLACK
6
CONTINUOUS
10
1.27805
20
-4.99712
11
1.28555
21
-4.99337
0
LINE
8
BLACK
6
CONTINUOUS
10
1.28555
20
-4.99337
11
1.30055
21
-4.99337
0
LINE
8
BLACK
6
CONTINUOUS
10
1.30055
20
-4.99337
11
1.30805
21
-4.99712
0
LINE
8
BLACK
6
CONTINUOUS
10
1.30805
20
-4.99712
11
1.3118
21
-5.00087
0
LINE
8
BLACK
6
CONTINUOUS
10
1.3118
20
-5.00087
11
1.31555
21
-5.00836
0
LINE
8
BLACK
6
CONTINUOUS
10
1.31555
20
-5.00836
11
1.31555
21
-5.03086
0
LINE
8
BLACK
6
CONTINUOUS
10
1.31555
20
-5.03086
11
1.3118
21
-5.03836
0
LINE
8
BLACK
6
CONTINUOUS
10
1.3118
20
-5.03836
11
1.30805
21
-5.04211
0
LINE
8
BLACK
6
CONTINUOUS
10
1.30805
20
-5.04211
11
1.30055
21
-5.04586
0
LINE
8
BLACK
6
CONTINUOUS
10
1.30055
20
-5.04586
11
1.28555
21
-5.04586
0
LINE
8
BLACK
6
CONTINUOUS
10
1.28555
20
-5.04586
11
1.27805
21
-5.04211
0
LINE
8
BLACK
6
CONTINUOUS
10
1.34929
20
-5.03836
11
1.35304
21
-5.04211
0
LINE
8
BLACK
6
CONTINUOUS
10
1.35304
20
-5.04211
11
1.34929
21
-5.04586
0
LINE
8
BLACK
6
CONTINUOUS
10
1.34929
20
-5.04586
11
1.34554
21
-5.04211
0
LINE
8
BLACK
6
CONTINUOUS
10
1.34554
20
-5.04211
11
1.34929
21
-5.03836
0
LINE
8
BLACK
6
CONTINUOUS
10
1.34929
20
-5.03836
11
1.34929
21
-5.04586
0
LINE
8
BLACK
6
CONTINUOUS
10
1.34929
20
-4.99712
11
1.35304
21
-5.00087
0
LINE
8
BLACK
6
CONTINUOUS
10
1.35304
20
-5.00087
11
1.34929
21
-5.00461
0
LINE
8
BLACK
6
CONTINUOUS
10
1.34929
20
-5.00461
11
1.34554
21
-5.00087
0
LINE
8
BLACK
6
CONTINUOUS
10
1.34554
20
-5.00087
11
1.34929
21
-4.99712
0
LINE
8
BLACK
6
CONTINUOUS
10
1.34929
20
-4.99712
11
1.34929
21
-5.00461
0
LINE
8
BLACK
6
CONTINUOUS
10
0.704724
20
-5.17421
11
0.706693
21
-5.17618
0
LINE
8
BLACK
6
CONTINUOUS
10
0.706693
20
-5.17421
11
0.704724
21
-5.17618
0
LINE
8
BLACK
6
CONTINUOUS
10
0.824359
20
-5.13247
11
0.831858
21
-5.13247
0
LINE
8
BLACK
6
CONTINUOUS
10
0.831858
20
-5.13247
11
0.839357
21
-5.13622
0
LINE
8
BLACK
6
CONTINUOUS
10
0.839357
20
-5.13622
11
0.843107
21
-5.13997
0
LINE
8
BLACK
6
CONTINUOUS
10
0.843107
20
-5.13997
11
0.846856
21
-5.14747
0
LINE
8
BLACK
6
CONTINUOUS
10
0.846856
20
-5.14747
11
0.850606
21
-5.16247
0
LINE
8
BLACK
6
CONTINUOUS
10
0.850606
20
-5.16247
11
0.850606
21
-5.18122
0
LINE
8
BLACK
6
CONTINUOUS
10
0.850606
20
-5.18122
11
0.846856
21
-5.19622
0
LINE
8
BLACK
6
CONTINUOUS
10
0.846856
20
-5.19622
11
0.843107
21
-5.20371
0
LINE
8
BLACK
6
CONTINUOUS
10
0.843107
20
-5.20371
11
0.839357
21
-5.20746
0
LINE
8
BLACK
6
CONTINUOUS
10
0.839357
20
-5.20746
11
0.831858
21
-5.21121
0
LINE
8
BLACK
6
CONTINUOUS
10
0.831858
20
-5.21121
11
0.824359
21
-5.21121
0
LINE
8
BLACK
6
CONTINUOUS
10
0.824359
20
-5.21121
11
0.81686
21
-5.20746
0
LINE
8
BLACK
6
CONTINUOUS
10
0.81686
20
-5.20746
11
0.81311
21
-5.20371
0
LINE
8
BLACK
6
CONTINUOUS
10
0.81311
20
-5.20371
11
0.809361
21
-5.19622
0
LINE
8
BLACK
6
CONTINUOUS
10
0.809361
20
-5.19622
11
0.805611
21
-5.18122
0
LINE
8
BLACK
6
CONTINUOUS
10
0.805611
20
-5.18122
11
0.805611
21
-5.16247
0
LINE
8
BLACK
6
CONTINUOUS
10
0.805611
20
-5.16247
11
0.809361
21
-5.14747
0
LINE
8
BLACK
6
CONTINUOUS
10
0.809361
20
-5.14747
11
0.81311
21
-5.13997
0
LINE
8
BLACK
6
CONTINUOUS
10
0.81311
20
-5.13997
11
0.81686
21
-5.13622
0
LINE
8
BLACK
6
CONTINUOUS
10
0.81686
20
-5.13622
11
0.824359
21
-5.13247
0
LINE
8
BLACK
6
CONTINUOUS
10
0.884352
20
-5.20371
11
0.888101
21
-5.20746
0
LINE
8
BLACK
6
CONTINUOUS
10
0.888101
20
-5.20746
11
0.884352
21
-5.21121
0
LINE
8
BLACK
6
CONTINUOUS
10
0.884352
20
-5.21121
11
0.880602
21
-5.20746
0
LINE
8
BLACK
6
CONTINUOUS
10
0.880602
20
-5.20746
11
0.884352
21
-5.20371
0
LINE
8
BLACK
6
CONTINUOUS
10
0.884352
20
-5.20371
11
0.884352
21
-5.21121
0
LINE
8
BLACK
6
CONTINUOUS
10
0.936845
20
-5.13247
11
0.944344
21
-5.13247
0
LINE
8
BLACK
6
CONTINUOUS
10
0.944344
20
-5.13247
11
0.951843
21
-5.13622
0
LINE
8
BLACK
6
CONTINUOUS
10
0.951843
20
-5.13622
11
0.955593
21
-5.13997
0
LINE
8
BLACK
6
CONTINUOUS
10
0.955593
20
-5.13997
11
0.959342
21
-5.14747
0
LINE
8
BLACK
6
CONTINUOUS
10
0.959342
20
-5.14747
11
0.963092
21
-5.16247
0
LINE
8
BLACK
6
CONTINUOUS
10
0.963092
20
-5.16247
11
0.963092
21
-5.18122
0
LINE
8
BLACK
6
CONTINUOUS
10
0.963092
20
-5.18122
11
0.959342
21
-5.19622
0
LINE
8
BLACK
6
CONTINUOUS
10
0.959342
20
-5.19622
11
0.955593
21
-5.20371
0
LINE
8
BLACK
6
CONTINUOUS
10
0.955593
20
-5.20371
11
0.951843
21
-5.20746
0
LINE
8
BLACK
6
CONTINUOUS
10
0.951843
20
-5.20746
11
0.944344
21
-5.21121
0
LINE
8
BLACK
6
CONTINUOUS
10
0.944344
20
-5.21121
11
0.936845
21
-5.21121
0
LINE
8
BLACK
6
CONTINUOUS
10
0.936845
20
-5.21121
11
0.929346
21
-5.20746
0
LINE
8
BLACK
6
CONTINUOUS
10
0.929346
20
-5.20746
11
0.925596
21
-5.20371
0
LINE
8
BLACK
6
CONTINUOUS
10
0.925596
20
-5.20371
11
0.921847
21
-5.19622
0
LINE
8
BLACK
6
CONTINUOUS
10
0.921847
20
-5.19622
11
0.918097
21
-5.18122
0
LINE
8
BLACK
6
CONTINUOUS
10
0.918097
20
-5.18122
11
0.918097
21
-5.16247
0
LINE
8
BLACK
6
CONTINUOUS
10
0.918097
20
-5.16247
11
0.921847
21
-5.14747
0
LINE
8
BLACK
6
CONTINUOUS
10
0.921847
20
-5.14747
11
0.925596
21
-5.13997
0
LINE
8
BLACK
6
CONTINUOUS
10
0.925596
20
-5.13997
11
0.929346
21
-5.13622
0
LINE
8
BLACK
6
CONTINUOUS
10
0.929346
20
-5.13622
11
0.936845
21
-5.13247
0
LINE
8
BLACK
6
CONTINUOUS
10
1.03433
20
-5.13247
11
0.996838
21
-5.13247
0
LINE
8
BLACK
6
CONTINUOUS
10
0.996838
20
-5.13247
11
0.993088
21
-5.16997
0
LINE
8
BLACK
6
CONTINUOUS
10
0.993088
20
-5.16997
11
0.996838
21
-5.16622
0
LINE
8
BLACK
6
CONTINUOUS
10
0.996838
20
-5.16622
11
1.00434
21
-5.16247
0
LINE
8
BLACK
6
CONTINUOUS
10
1.00434
20
-5.16247
11
1.02308
21
-5.16247
0
LINE
8
BLACK
6
CONTINUOUS
10
1.02308
20
-5.16247
11
1.03058
21
-5.16622
0
LINE
8
BLACK
6
CONTINUOUS
10
1.03058
20
-5.16622
11
1.03433
21
-5.16997
0
LINE
8
BLACK
6
CONTINUOUS
10
1.03433
20
-5.16997
11
1.03808
21
-5.17747
0
LINE
8
BLACK
6
CONTINUOUS
10
1.03808
20
-5.17747
11
1.03808
21
-5.19622
0
LINE
8
BLACK
6
CONTINUOUS
10
1.03808
20
-5.19622
11
1.03433
21
-5.20371
0
LINE
8
BLACK
6
CONTINUOUS
10
1.03433
20
-5.20371
11
1.03058
21
-5.20746
0
LINE
8
BLACK
6
CONTINUOUS
10
1.03058
20
-5.20746
11
1.02308
21
-5.21121
0
LINE
8
BLACK
6
CONTINUOUS
10
1.02308
20
-5.21121
11
1.00434
21
-5.21121
0
LINE
8
BLACK
6
CONTINUOUS
10
1.00434
20
-5.21121
11
0.996838
21
-5.20746
0
LINE
8
BLACK
6
CONTINUOUS
10
0.996838
20
-5.20746
11
0.993088
21
-5.20371
0
LINE
8
BLACK
6
CONTINUOUS
10
1.08683
20
-5.13247
11
1.09433
21
-5.13247
0
LINE
8
BLACK
6
CONTINUOUS
10
1.09433
20
-5.13247
11
1.10182
21
-5.13622
0
LINE
8
BLACK
6
CONTINUOUS
10
1.10182
20
-5.13622
11
1.10557
21
-5.13997
0
LINE
8
BLACK
6
CONTINUOUS
10
1.10557
20
-5.13997
11
1.10932
21
-5.14747
0
LINE
8
BLACK
6
CONTINUOUS
10
1.10932
20
-5.14747
11
1.11307
21
-5.16247
0
LINE
8
BLACK
6
CONTINUOUS
10
1.11307
20
-5.16247
11
1.11307
21
-5.18122
0
LINE
8
BLACK
6
CONTINUOUS
10
1.11307
20
-5.18122
11
1.10932
21
-5.19622
0
LINE
8
BLACK
6
CONTINUOUS
10
1.10932
20
-5.19622
11
1.10557
21
-5.20371
0
LINE
8
BLACK
6
CONTINUOUS
10
1.10557
20
-5.20371
11
1.10182
21
-5.20746
0
LINE
8
BLACK
6
CONTINUOUS
10
1.10182
20
-5.20746
11
1.09433
21
-5.21121
0
LINE
8
BLACK
6
CONTINUOUS
10
1.09433
20
-5.21121
11
1.08683
21
-5.21121
0
LINE
8
BLACK
6
CONTINUOUS
10
1.08683
20
-5.21121
11
1.07933
21
-5.20746
0
LINE
8
BLACK
6
CONTINUOUS
10
1.07933
20
-5.20746
11
1.07558
21
-5.20371
0
LINE
8
BLACK
6
CONTINUOUS
10
1.07558
20
-5.20371
11
1.07183
21
-5.19622
0
LINE
8
BLACK
6
CONTINUOUS
10
1.07183
20
-5.19622
11
1.06808
21
-5.18122
0
LINE
8
BLACK
6
CONTINUOUS
10
1.06808
20
-5.18122
11
1.06808
21
-5.16247
0
LINE
8
BLACK
6
CONTINUOUS
10
1.06808
20
-5.16247
11
1.07183
21
-5.14747
0
LINE
8
BLACK
6
CONTINUOUS
10
1.07183
20
-5.14747
11
1.07558
21
-5.13997
0
LINE
8
BLACK
6
CONTINUOUS
10
1.07558
20
-5.13997
11
1.07933
21
-5.13622
0
LINE
8
BLACK
6
CONTINUOUS
10
1.07933
20
-5.13622
11
1.08683
21
-5.13247
0
LINE
8
BLACK
6
CONTINUOUS
10
1.14682
20
-5.21121
11
1.14682
21
-5.15872
0
LINE
8
BLACK
6
CONTINUOUS
10
1.14682
20
-5.16622
11
1.15057
21
-5.16247
0
LINE
8
BLACK
6
CONTINUOUS
10
1.15057
20
-5.16247
11
1.15807
21
-5.15872
0
LINE
8
BLACK
6
CONTINUOUS
10
1.15807
20
-5.15872
11
1.16932
21
-5.15872
0
LINE
8
BLACK
6
CONTINUOUS
10
1.16932
20
-5.15872
11
1.17682
21
-5.16247
0
LINE
8
BLACK
6
CONTINUOUS
10
1.17682
20
-5.16247
11
1.18056
21
-5.16997
0
LINE
8
BLACK
6
CONTINUOUS
10
1.18056
20
-5.16997
11
1.18056
21
-5.21121
0
LINE
8
BLACK
6
CONTINUOUS
10
1.18056
20
-5.16997
11
1.18431
21
-5.16247
0
LINE
8
BLACK
6
CONTINUOUS
10
1.18431
20
-5.16247
11
1.19181
21
-5.15872
0
LINE
8
BLACK
6
CONTINUOUS
10
1.19181
20
-5.15872
11
1.20306
21
-5.15872
0
LINE
8
BLACK
6
CONTINUOUS
10
1.20306
20
-5.15872
11
1.21056
21
-5.16247
0
LINE
8
BLACK
6
CONTINUOUS
10
1.21056
20
-5.16247
11
1.21431
21
-5.16997
0
LINE
8
BLACK
6
CONTINUOUS
10
1.21431
20
-5.16997
11
1.21431
21
-5.21121
0
LINE
8
BLACK
6
CONTINUOUS
10
1.25181
20
-5.21121
11
1.25181
21
-5.15872
0
LINE
8
BLACK
6
CONTINUOUS
10
1.25181
20
-5.16622
11
1.25556
21
-5.16247
0
LINE
8
BLACK
6
CONTINUOUS
10
1.25556
20
-5.16247
11
1.26305
21
-5.15872
0
LINE
8
BLACK
6
CONTINUOUS
10
1.26305
20
-5.15872
11
1.2743
21
-5.15872
0
LINE
8
BLACK
6
CONTINUOUS
10
1.2743
20
-5.15872
11
1.2818
21
-5.16247
0
LINE
8
BLACK
6
CONTINUOUS
10
1.2818
20
-5.16247
11
1.28555
21
-5.16997
0
LINE
8
BLACK
6
CONTINUOUS
10
1.28555
20
-5.16997
11
1.28555
21
-5.21121
0
LINE
8
BLACK
6
CONTINUOUS
10
1.28555
20
-5.16997
11
1.2893
21
-5.16247
0
LINE
8
BLACK
6
CONTINUOUS
10
1.2893
20
-5.16247
11
1.2968
21
-5.15872
0
LINE
8
BLACK
6
CONTINUOUS
10
1.2968
20
-5.15872
11
1.30805
21
-5.15872
0
LINE
8
BLACK
6
CONTINUOUS
10
1.30805
20
-5.15872
11
1.31555
21
-5.16247
0
LINE
8
BLACK
6
CONTINUOUS
10
1.31555
20
-5.16247
11
1.3193
21
-5.16997
0
LINE
8
BLACK
6
CONTINUOUS
10
1.3193
20
-5.16997
11
1.3193
21
-5.21121
0
LINE
8
BLACK
6
CONTINUOUS
10
1.47303
20
-5.12872
11
1.40554
21
-5.22996
0
LINE
8
BLACK
6
CONTINUOUS
10
1.57427
20
-5.13247
11
1.58176
21
-5.13247
0
LINE
8
BLACK
6
CONTINUOUS
10
1.58176
20
-5.13247
11
1.58926
21
-5.13622
0
LINE
8
BLACK
6
CONTINUOUS
10
1.58926
20
-5.13622
11
1.59301
21
-5.13997
0
LINE
8
BLACK
6
CONTINUOUS
10
1.59301
20
-5.13997
11
1.59676
21
-5.14747
0
LINE
8
BLACK
6
CONTINUOUS
10
1.59676
20
-5.14747
11
1.60051
21
-5.16247
0
LINE
8
BLACK
6
CONTINUOUS
10
1.60051
20
-5.16247
11
1.60051
21
-5.18122
0
LINE
8
BLACK
6
CONTINUOUS
10
1.60051
20
-5.18122
11
1.59676
21
-5.19622
0
LINE
8
BLACK
6
CONTINUOUS
10
1.59676
20
-5.19622
11
1.59301
21
-5.20371
0
LINE
8
BLACK
6
CONTINUOUS
10
1.59301
20
-5.20371
11
1.58926
21
-5.20746
0
LINE
8
BLACK
6
CONTINUOUS
10
1.58926
20
-5.20746
11
1.58176
21
-5.21121
0
LINE
8
BLACK
6
CONTINUOUS
10
1.58176
20
-5.21121
11
1.57427
21
-5.21121
0
LINE
8
BLACK
6
CONTINUOUS
10
1.57427
20
-5.21121
11
1.56677
21
-5.20746
0
LINE
8
BLACK
6
CONTINUOUS
10
1.56677
20
-5.20746
11
1.56302
21
-5.20371
0
LINE
8
BLACK
6
CONTINUOUS
10
1.56302
20
-5.20371
11
1.55927
21
-5.19622
0
LINE
8
BLACK
6
CONTINUOUS
10
1.55927
20
-5.19622
11
1.55552
21
-5.18122
0
LINE
8
BLACK
6
CONTINUOUS
10
1.55552
20
-5.18122
11
1.55552
21
-5.16247
0
LINE
8
BLACK
6
CONTINUOUS
10
1.55552
20
-5.16247
11
1.55927
21
-5.14747
0
LINE
8
BLACK
6
CONTINUOUS
10
1.55927
20
-5.14747
11
1.56302
21
-5.13997
0
LINE
8
BLACK
6
CONTINUOUS
10
1.56302
20
-5.13997
11
1.56677
21
-5.13622
0
LINE
8
BLACK
6
CONTINUOUS
10
1.56677
20
-5.13622
11
1.57427
21
-5.13247
0
LINE
8
BLACK
6
CONTINUOUS
10
1.63426
20
-5.20371
11
1.63801
21
-5.20746
0
LINE
8
BLACK
6
CONTINUOUS
10
1.63801
20
-5.20746
11
1.63426
21
-5.21121
0
LINE
8
BLACK
6
CONTINUOUS
10
1.63426
20
-5.21121
11
1.63051
21
-5.20746
0
LINE
8
BLACK
6
CONTINUOUS
10
1.63051
20
-5.20746
11
1.63426
21
-5.20371
0
LINE
8
BLACK
6
CONTINUOUS
10
1.63426
20
-5.20371
11
1.63426
21
-5.21121
0
LINE
8
BLACK
6
CONTINUOUS
10
1.68675
20
-5.13247
11
1.69425
21
-5.13247
0
LINE
8
BLACK
6
CONTINUOUS
10
1.69425
20
-5.13247
11
1.70175
21
-5.13622
0
LINE
8
BLACK
6
CONTINUOUS
10
1.70175
20
-5.13622
11
1.7055
21
-5.13997
0
LINE
8
BLACK
6
CONTINUOUS
10
1.7055
20
-5.13997
11
1.70925
21
-5.14747
0
LINE
8
BLACK
6
CONTINUOUS
10
1.70925
20
-5.14747
11
1.713
21
-5.16247
0
LINE
8
BLACK
6
CONTINUOUS
10
1.713
20
-5.16247
11
1.713
21
-5.18122
0
LINE
8
BLACK
6
CONTINUOUS
10
1.713
20
-5.18122
11
1.70925
21
-5.19622
0
LINE
8
BLACK
6
CONTINUOUS
10
1.70925
20
-5.19622
11
1.7055
21
-5.20371
0
LINE
8
BLACK
6
CONTINUOUS
10
1.7055
20
-5.20371
11
1.70175
21
-5.20746
0
LINE
8
BLACK
6
CONTINUOUS
10
1.70175
20
-5.20746
11
1.69425
21
-5.21121
0
LINE
8
BLACK
6
CONTINUOUS
10
1.69425
20
-5.21121
11
1.68675
21
-5.21121
0
LINE
8
BLACK
6
CONTINUOUS
10
1.68675
20
-5.21121
11
1.67925
21
-5.20746
0
LINE
8
BLACK
6
CONTINUOUS
10
1.67925
20
-5.20746
11
1.6755
21
-5.20371
0
LINE
8
BLACK
6
CONTINUOUS
10
1.6755
20
-5.20371
11
1.67175
21
-5.19622
0
LINE
8
BLACK
6
CONTINUOUS
10
1.67175
20
-5.19622
11
1.668
21
-5.18122
0
LINE
8
BLACK
6
CONTINUOUS
10
1.668
20
-5.18122
11
1.668
21
-5.16247
0
LINE
8
BLACK
6
CONTINUOUS
10
1.668
20
-5.16247
11
1.67175
21
-5.14747
0
LINE
8
BLACK
6
CONTINUOUS
10
1.67175
20
-5.14747
11
1.6755
21
-5.13997
0
LINE
8
BLACK
6
CONTINUOUS
10
1.6755
20
-5.13997
11
1.67925
21
-5.13622
0
LINE
8
BLACK
6
CONTINUOUS
10
1.67925
20
-5.13622
11
1.68675
21
-5.13247
0
LINE
8
BLACK
6
CONTINUOUS
10
1.76174
20
-5.13247
11
1.76924
21
-5.13247
0
LINE
8
BLACK
6
CONTINUOUS
10
1.76924
20
-5.13247
11
1.77674
21
-5.13622
0
LINE
8
BLACK
6
CONTINUOUS
10
1.77674
20
-5.13622
11
1.78049
21
-5.13997
0
LINE
8
BLACK
6
CONTINUOUS
10
1.78049
20
-5.13997
11
1.78424
21
-5.14747
0
LINE
8
BLACK
6
CONTINUOUS
10
1.78424
20
-5.14747
11
1.78799
21
-5.16247
0
LINE
8
BLACK
6
CONTINUOUS
10
1.78799
20
-5.16247
11
1.78799
21
-5.18122
0
LINE
8
BLACK
6
CONTINUOUS
10
1.78799
20
-5.18122
11
1.78424
21
-5.19622
0
LINE
8
BLACK
6
CONTINUOUS
10
1.78424
20
-5.19622
11
1.78049
21
-5.20371
0
LINE
8
BLACK
6
CONTINUOUS
10
1.78049
20
-5.20371
11
1.77674
21
-5.20746
0
LINE
8
BLACK
6
CONTINUOUS
10
1.77674
20
-5.20746
11
1.76924
21
-5.21121
0
LINE
8
BLACK
6
CONTINUOUS
10
1.76924
20
-5.21121
11
1.76174
21
-5.21121
0
LINE
8
BLACK
6
CONTINUOUS
10
1.76174
20
-5.21121
11
1.75424
21
-5.20746
0
LINE
8
BLACK
6
CONTINUOUS
10
1.75424
20
-5.20746
11
1.75049
21
-5.20371
0
LINE
8
BLACK
6
CONTINUOUS
10
1.75049
20
-5.20371
11
1.74674
21
-5.19622
0
LINE
8
BLACK
6
CONTINUOUS
10
1.74674
20
-5.19622
11
1.74299
21
-5.18122
0
LINE
8
BLACK
6
CONTINUOUS
10
1.74299
20
-5.18122
11
1.74299
21
-5.16247
0
LINE
8
BLACK
6
CONTINUOUS
10
1.74299
20
-5.16247
11
1.74674
21
-5.14747
0
LINE
8
BLACK
6
CONTINUOUS
10
1.74674
20
-5.14747
11
1.75049
21
-5.13997
0
LINE
8
BLACK
6
CONTINUOUS
10
1.75049
20
-5.13997
11
1.75424
21
-5.13622
0
LINE
8
BLACK
6
CONTINUOUS
10
1.75424
20
-5.13622
11
1.76174
21
-5.13247
0
LINE
8
BLACK
6
CONTINUOUS
10
1.81798
20
-5.13997
11
1.82173
21
-5.13622
0
LINE
8
BLACK
6
CONTINUOUS
10
1.82173
20
-5.13622
11
1.82923
21
-5.13247
0
LINE
8
BLACK
6
CONTINUOUS
10
1.82923
20
-5.13247
11
1.84798
21
-5.13247
0
LINE
8
BLACK
6
CONTINUOUS
10
1.84798
20
-5.13247
11
1.85548
21
-5.13622
0
LINE
8
BLACK
6
CONTINUOUS
10
1.85548
20
-5.13622
11
1.85923
21
-5.13997
0
LINE
8
BLACK
6
CONTINUOUS
10
1.85923
20
-5.13997
11
1.86298
21
-5.14747
0
LINE
8
BLACK
6
CONTINUOUS
10
1.86298
20
-5.14747
11
1.86298
21
-5.15497
0
LINE
8
BLACK
6
CONTINUOUS
10
1.86298
20
-5.15497
11
1.85923
21
-5.16622
0
LINE
8
BLACK
6
CONTINUOUS
10
1.85923
20
-5.16622
11
1.81424
21
-5.21121
0
LINE
8
BLACK
6
CONTINUOUS
10
1.81424
20
-5.21121
11
1.86298
21
-5.21121
0
LINE
8
BLACK
6
CONTINUOUS
10
1.91172
20
-5.13247
11
1.91922
21
-5.13247
0
LINE
8
BLACK
6
CONTINUOUS
10
1.91922
20
-5.13247
11
1.92672
21
-5.13622
0
LINE
8
BLACK
6
CONTINUOUS
10
1.92672
20
-5.13622
11
1.93047
21
-5.13997
0
LINE
8
BLACK
6
CONTINUOUS
10
1.93047
20
-5.13997
11
1.93422
21
-5.14747
0
LINE
8
BLACK
6
CONTINUOUS
10
1.93422
20
-5.14747
11
1.93797
21
-5.16247
0
LINE
8
BLACK
6
CONTINUOUS
10
1.93797
20
-5.16247
11
1.93797
21
-5.18122
0
LINE
8
BLACK
6
CONTINUOUS
10
1.93797
20
-5.18122
11
1.93422
21
-5.19622
0
LINE
8
BLACK
6
CONTINUOUS
10
1.93422
20
-5.19622
11
1.93047
21
-5.20371
0
LINE
8
BLACK
6
CONTINUOUS
10
1.93047
20
-5.20371
11
1.92672
21
-5.20746
0
LINE
8
BLACK
6
CONTINUOUS
10
1.92672
20
-5.20746
11
1.91922
21
-5.21121
0
LINE
8
BLACK
6
CONTINUOUS
10
1.91922
20
-5.21121
11
1.91172
21
-5.21121
0
LINE
8
BLACK
6
CONTINUOUS
10
1.91172
20
-5.21121
11
1.90422
21
-5.20746
0
LINE
8
BLACK
6
CONTINUOUS
10
1.90422
20
-5.20746
11
1.90047
21
-5.20371
0
LINE
8
BLACK
6
CONTINUOUS
10
1.90047
20
-5.20371
11
1.89673
21
-5.19622
0
LINE
8
BLACK
6
CONTINUOUS
10
1.89673
20
-5.19622
11
1.89298
21
-5.18122
0
LINE
8
BLACK
6
CONTINUOUS
10
1.89298
20
-5.18122
11
1.89298
21
-5.16247
0
LINE
8
BLACK
6
CONTINUOUS
10
1.89298
20
-5.16247
11
1.89673
21
-5.14747
0
LINE
8
BLACK
6
CONTINUOUS
10
1.89673
20
-5.14747
11
1.90047
21
-5.13997
0
LINE
8
BLACK
6
CONTINUOUS
10
1.90047
20
-5.13997
11
1.90422
21
-5.13622
0
LINE
8
BLACK
6
CONTINUOUS
10
1.90422
20
-5.13622
11
1.91172
21
-5.13247
0
LINE
8
BLACK
6
CONTINUOUS
10
1.96797
20
-5.13247
11
1.96797
21
-5.14747
0
LINE
8
BLACK
6
CONTINUOUS
10
1.99796
20
-5.13247
11
1.99796
21
-5.14747
0
LINE
8
BLACK
6
CONTINUOUS
10
2.1142
20
-5.24121
11
2.11045
21
-5.23746
0
LINE
8
BLACK
6
CONTINUOUS
10
2.11045
20
-5.23746
11
2.10295
21
-5.22621
0
LINE
8
BLACK
6
CONTINUOUS
10
2.10295
20
-5.22621
11
2.0992
21
-5.21871
0
LINE
8
BLACK
6
CONTINUOUS
10
2.0992
20
-5.21871
11
2.09545
21
-5.20746
0
LINE
8
BLACK
6
CONTINUOUS
10
2.09545
20
-5.20746
11
2.0917
21
-5.18872
0
LINE
8
BLACK
6
CONTINUOUS
10
2.0917
20
-5.18872
11
2.0917
21
-5.17372
0
LINE
8
BLACK
6
CONTINUOUS
10
2.0917
20
-5.17372
11
2.09545
21
-5.15497
0
LINE
8
BLACK
6
CONTINUOUS
10
2.09545
20
-5.15497
11
2.0992
21
-5.14372
0
LINE
8
BLACK
6
CONTINUOUS
10
2.0992
20
-5.14372
11
2.10295
21
-5.13622
0
LINE
8
BLACK
6
CONTINUOUS
10
2.10295
20
-5.13622
11
2.11045
21
-5.12497
0
LINE
8
BLACK
6
CONTINUOUS
10
2.11045
20
-5.12497
11
2.1142
21
-5.12123
0
LINE
8
BLACK
6
CONTINUOUS
10
2.18544
20
-5.21121
11
2.14044
21
-5.21121
0
LINE
8
BLACK
6
CONTINUOUS
10
2.16294
20
-5.21121
11
2.16294
21
-5.13247
0
LINE
8
BLACK
6
CONTINUOUS
10
2.16294
20
-5.13247
11
2.15544
21
-5.14372
0
LINE
8
BLACK
6
CONTINUOUS
10
2.15544
20
-5.14372
11
2.14794
21
-5.15122
0
LINE
8
BLACK
6
CONTINUOUS
10
2.14794
20
-5.15122
11
2.14044
21
-5.15497
0
LINE
8
BLACK
6
CONTINUOUS
10
2.21169
20
-5.13247
11
2.26043
21
-5.13247
0
LINE
8
BLACK
6
CONTINUOUS
10
2.26043
20
-5.13247
11
2.23418
21
-5.16247
0
LINE
8
BLACK
6
CONTINUOUS
10
2.23418
20
-5.16247
11
2.24543
21
-5.16247
0
LINE
8
BLACK
6
CONTINUOUS
10
2.24543
20
-5.16247
11
2.25293
21
-5.16622
0
LINE
8
BLACK
6
CONTINUOUS
10
2.25293
20
-5.16622
11
2.25668
21
-5.16997
0
LINE
8
BLACK
6
CONTINUOUS
10
2.25668
20
-5.16997
11
2.26043
21
-5.17747
0
LINE
8
BLACK
6
CONTINUOUS
10
2.26043
20
-5.17747
11
2.26043
21
-5.19622
0
LINE
8
BLACK
6
CONTINUOUS
10
2.26043
20
-5.19622
11
2.25668
21
-5.20371
0
LINE
8
BLACK
6
CONTINUOUS
10
2.25668
20
-5.20371
11
2.25293
21
-5.20746
0
LINE
8
BLACK
6
CONTINUOUS
10
2.25293
20
-5.20746
11
2.24543
21
-5.21121
0
LINE
8
BLACK
6
CONTINUOUS
10
2.24543
20
-5.21121
11
2.22293
21
-5.21121
0
LINE
8
BLACK
6
CONTINUOUS
10
2.22293
20
-5.21121
11
2.21544
21
-5.20746
0
LINE
8
BLACK
6
CONTINUOUS
10
2.21544
20
-5.20746
11
2.21169
21
-5.20371
0
LINE
8
BLACK
6
CONTINUOUS
10
2.35417
20
-5.21121
11
2.35417
21
-5.13247
0
LINE
8
BLACK
6
CONTINUOUS
10
2.38791
20
-5.21121
11
2.38791
21
-5.16997
0
LINE
8
BLACK
6
CONTINUOUS
10
2.38791
20
-5.16997
11
2.38416
21
-5.16247
0
LINE
8
BLACK
6
CONTINUOUS
10
2.38416
20
-5.16247
11
2.37667
21
-5.15872
0
LINE
8
BLACK
6
CONTINUOUS
10
2.37667
20
-5.15872
11
2.36542
21
-5.15872
0
LINE
8
BLACK
6
CONTINUOUS
10
2.36542
20
-5.15872
11
2.35792
21
-5.16247
0
LINE
8
BLACK
6
CONTINUOUS
10
2.35792
20
-5.16247
11
2.35417
21
-5.16622
0
LINE
8
BLACK
6
CONTINUOUS
10
2.43666
20
-5.21121
11
2.42916
21
-5.20746
0
LINE
8
BLACK
6
CONTINUOUS
10
2.42916
20
-5.20746
11
2.42541
21
-5.20371
0
LINE
8
BLACK
6
CONTINUOUS
10
2.42541
20
-5.20371
11
2.42166
21
-5.19622
0
LINE
8
BLACK
6
CONTINUOUS
10
2.42166
20
-5.19622
11
2.42166
21
-5.17372
0
LINE
8
BLACK
6
CONTINUOUS
10
2.42166
20
-5.17372
11
2.42541
21
-5.16622
0
LINE
8
BLACK
6
CONTINUOUS
10
2.42541
20
-5.16622
11
2.42916
21
-5.16247
0
LINE
8
BLACK
6
CONTINUOUS
10
2.42916
20
-5.16247
11
2.43666
21
-5.15872
0
LINE
8
BLACK
6
CONTINUOUS
10
2.43666
20
-5.15872
11
2.44791
21
-5.15872
0
LINE
8
BLACK
6
CONTINUOUS
10
2.44791
20
-5.15872
11
2.45541
21
-5.16247
0
LINE
8
BLACK
6
CONTINUOUS
10
2.45541
20
-5.16247
11
2.45915
21
-5.16622
0
LINE
8
BLACK
6
CONTINUOUS
10
2.45915
20
-5.16622
11
2.4629
21
-5.17372
0
LINE
8
BLACK
6
CONTINUOUS
10
2.4629
20
-5.17372
11
2.4629
21
-5.19622
0
LINE
8
BLACK
6
CONTINUOUS
10
2.4629
20
-5.19622
11
2.45915
21
-5.20371
0
LINE
8
BLACK
6
CONTINUOUS
10
2.45915
20
-5.20371
11
2.45541
21
-5.20746
0
LINE
8
BLACK
6
CONTINUOUS
10
2.45541
20
-5.20746
11
2.44791
21
-5.21121
0
LINE
8
BLACK
6
CONTINUOUS
10
2.44791
20
-5.21121
11
2.43666
21
-5.21121
0
LINE
8
BLACK
6
CONTINUOUS
10
2.5079
20
-5.21121
11
2.5004
21
-5.20746
0
LINE
8
BLACK
6
CONTINUOUS
10
2.5004
20
-5.20746
11
2.49665
21
-5.19997
0
LINE
8
BLACK
6
CONTINUOUS
10
2.49665
20
-5.19997
11
2.49665
21
-5.13247
0
LINE
8
BLACK
6
CONTINUOUS
10
2.56789
20
-5.20746
11
2.56039
21
-5.21121
0
LINE
8
BLACK
6
CONTINUOUS
10
2.56039
20
-5.21121
11
2.54539
21
-5.21121
0
LINE
8
BLACK
6
CONTINUOUS
10
2.54539
20
-5.21121
11
2.5379
21
-5.20746
0
LINE
8
BLACK
6
CONTINUOUS
10
2.5379
20
-5.20746
11
2.53415
21
-5.19997
0
LINE
8
BLACK
6
CONTINUOUS
10
2.53415
20
-5.19997
11
2.53415
21
-5.16997
0
LINE
8
BLACK
6
CONTINUOUS
10
2.53415
20
-5.16997
11
2.5379
21
-5.16247
0
LINE
8
BLACK
6
CONTINUOUS
10
2.5379
20
-5.16247
11
2.54539
21
-5.15872
0
LINE
8
BLACK
6
CONTINUOUS
10
2.54539
20
-5.15872
11
2.56039
21
-5.15872
0
LINE
8
BLACK
6
CONTINUOUS
10
2.56039
20
-5.15872
11
2.56789
21
-5.16247
0
LINE
8
BLACK
6
CONTINUOUS
10
2.56789
20
-5.16247
11
2.57164
21
-5.16997
0
LINE
8
BLACK
6
CONTINUOUS
10
2.57164
20
-5.16997
11
2.57164
21
-5.17747
0
LINE
8
BLACK
6
CONTINUOUS
10
2.57164
20
-5.17747
11
2.53415
21
-5.18497
0
LINE
8
BLACK
6
CONTINUOUS
10
2.60164
20
-5.20746
11
2.60914
21
-5.21121
0
LINE
8
BLACK
6
CONTINUOUS
10
2.60914
20
-5.21121
11
2.62413
21
-5.21121
0
LINE
8
BLACK
6
CONTINUOUS
10
2.62413
20
-5.21121
11
2.63163
21
-5.20746
0
LINE
8
BLACK
6
CONTINUOUS
10
2.63163
20
-5.20746
11
2.63538
21
-5.19997
0
LINE
8
BLACK
6
CONTINUOUS
10
2.63538
20
-5.19997
11
2.63538
21
-5.19622
0
LINE
8
BLACK
6
CONTINUOUS
10
2.63538
20
-5.19622
11
2.63163
21
-5.18872
0
LINE
8
BLACK
6
CONTINUOUS
10
2.63163
20
-5.18872
11
2.62413
21
-5.18497
0
LINE
8
BLACK
6
CONTINUOUS
10
2.62413
20
-5.18497
11
2.61289
21
-5.18497
0
LINE
8
BLACK
6
CONTINUOUS
10
2.61289
20
-5.18497
11
2.60539
21
-5.18122
0
LINE
8
BLACK
6
CONTINUOUS
10
2.60539
20
-5.18122
11
2.60164
21
-5.17372
0
LINE
8
BLACK
6
CONTINUOUS
10
2.60164
20
-5.17372
11
2.60164
21
-5.16997
0
LINE
8
BLACK
6
CONTINUOUS
10
2.60164
20
-5.16997
11
2.60539
21
-5.16247
0
LINE
8
BLACK
6
CONTINUOUS
10
2.60539
20
-5.16247
11
2.61289
21
-5.15872
0
LINE
8
BLACK
6
CONTINUOUS
10
2.61289
20
-5.15872
11
2.62413
21
-5.15872
0
LINE
8
BLACK
6
CONTINUOUS
10
2.62413
20
-5.15872
11
2.63163
21
-5.16247
0
LINE
8
BLACK
6
CONTINUOUS
10
2.66163
20
-5.24121
11
2.66538
21
-5.23746
0
LINE
8
BLACK
6
CONTINUOUS
10
2.66538
20
-5.23746
11
2.67288
21
-5.22621
0
LINE
8
BLACK
6
CONTINUOUS
10
2.67288
20
-5.22621
11
2.67663
21
-5.21871
0
LINE
8
BLACK
6
CONTINUOUS
10
2.67663
20
-5.21871
11
2.68038
21
-5.20746
0
LINE
8
BLACK
6
CONTINUOUS
10
2.68038
20
-5.20746
11
2.68413
21
-5.18872
0
LINE
8
BLACK
6
CONTINUOUS
10
2.68413
20
-5.18872
11
2.68413
21
-5.17372
0
LINE
8
BLACK
6
CONTINUOUS
10
2.68413
20
-5.17372
11
2.68038
21
-5.15497
0
LINE
8
BLACK
6
CONTINUOUS
10
2.68038
20
-5.15497
11
2.67663
21
-5.14372
0
LINE
8
BLACK
6
CONTINUOUS
10
2.67663
20
-5.14372
11
2.67288
21
-5.13622
0
LINE
8
BLACK
6
CONTINUOUS
10
2.67288
20
-5.13622
11
2.66538
21
-5.12497
0
LINE
8
BLACK
6
CONTINUOUS
10
2.66538
20
-5.12497
11
2.66163
21
-5.12123
0
CIRCLE
8
BLACK
10
0.704724
20
-5.27913
40
0.0019685
0
LINE
8
BLACK
6
CONTINUOUS
10
0.824359
20
-5.23641
11
0.831858
21
-5.23641
0
LINE
8
BLACK
6
CONTINUOUS
10
0.831858
20
-5.23641
11
0.839357
21
-5.24016
0
LINE
8
BLACK
6
CONTINUOUS
10
0.839357
20
-5.24016
11
0.843107
21
-5.24391
0
LINE
8
BLACK
6
CONTINUOUS
10
0.843107
20
-5.24391
11
0.846856
21
-5.25141
0
LINE
8
BLACK
6
CONTINUOUS
10
0.846856
20
-5.25141
11
0.850606
21
-5.26641
0
LINE
8
BLACK
6
CONTINUOUS
10
0.850606
20
-5.26641
11
0.850606
21
-5.28515
0
LINE
8
BLACK
6
CONTINUOUS
10
0.850606
20
-5.28515
11
0.846856
21
-5.30015
0
LINE
8
BLACK
6
CONTINUOUS
10
0.846856
20
-5.30015
11
0.843107
21
-5.30765
0
LINE
8
BLACK
6
CONTINUOUS
10
0.843107
20
-5.30765
11
0.839357
21
-5.3114
0
LINE
8
BLACK
6
CONTINUOUS
10
0.839357
20
-5.3114
11
0.831858
21
-5.31515
0
LINE
8
BLACK
6
CONTINUOUS
10
0.831858
20
-5.31515
11
0.824359
21
-5.31515
0
LINE
8
BLACK
6
CONTINUOUS
10
0.824359
20
-5.31515
11
0.81686
21
-5.3114
0
LINE
8
BLACK
6
CONTINUOUS
10
0.81686
20
-5.3114
11
0.81311
21
-5.30765
0
LINE
8
BLACK
6
CONTINUOUS
10
0.81311
20
-5.30765
11
0.809361
21
-5.30015
0
LINE
8
BLACK
6
CONTINUOUS
10
0.809361
20
-5.30015
11
0.805611
21
-5.28515
0
LINE
8
BLACK
6
CONTINUOUS
10
0.805611
20
-5.28515
11
0.805611
21
-5.26641
0
LINE
8
BLACK
6
CONTINUOUS
10
0.805611
20
-5.26641
11
0.809361
21
-5.25141
0
LINE
8
BLACK
6
CONTINUOUS
10
0.809361
20
-5.25141
11
0.81311
21
-5.24391
0
LINE
8
BLACK
6
CONTINUOUS
10
0.81311
20
-5.24391
11
0.81686
21
-5.24016
0
LINE
8
BLACK
6
CONTINUOUS
10
0.81686
20
-5.24016
11
0.824359
21
-5.23641
0
LINE
8
BLACK
6
CONTINUOUS
10
0.884352
20
-5.30765
11
0.888101
21
-5.3114
0
LINE
8
BLACK
6
CONTINUOUS
10
0.888101
20
-5.3114
11
0.884352
21
-5.31515
0
LINE
8
BLACK
6
CONTINUOUS
10
0.884352
20
-5.31515
11
0.880602
21
-5.3114
0
LINE
8
BLACK
6
CONTINUOUS
10
0.880602
20
-5.3114
11
0.884352
21
-5.30765
0
LINE
8
BLACK
6
CONTINUOUS
10
0.884352
20
-5.30765
11
0.884352
21
-5.31515
0
LINE
8
BLACK
6
CONTINUOUS
10
0.963092
20
-5.31515
11
0.918097
21
-5.31515
0
LINE
8
BLACK
6
CONTINUOUS
10
0.940595
20
-5.31515
11
0.940595
21
-5.23641
0
LINE
8
BLACK
6
CONTINUOUS
10
0.940595
20
-5.23641
11
0.933095
21
-5.24766
0
LINE
8
BLACK
6
CONTINUOUS
10
0.933095
20
-5.24766
11
0.925596
21
-5.25516
0
LINE
8
BLACK
6
CONTINUOUS
10
0.925596
20
-5.25516
11
0.918097
21
-5.25891
0
LINE
8
BLACK
6
CONTINUOUS
10
1.01184
20
-5.23641
11
1.01933
21
-5.23641
0
LINE
8
BLACK
6
CONTINUOUS
10
1.01933
20
-5.23641
11
1.02683
21
-5.24016
0
LINE
8
BLACK
6
CONTINUOUS
10
1.02683
20
-5.24016
11
1.03058
21
-5.24391
0
LINE
8
BLACK
6
CONTINUOUS
10
1.03058
20
-5.24391
11
1.03433
21
-5.25141
0
LINE
8
BLACK
6
CONTINUOUS
10
1.03433
20
-5.25141
11
1.03808
21
-5.26641
0
LINE
8
BLACK
6
CONTINUOUS
10
1.03808
20
-5.26641
11
1.03808
21
-5.28515
0
LINE
8
BLACK
6
CONTINUOUS
10
1.03808
20
-5.28515
11
1.03433
21
-5.30015
0
LINE
8
BLACK
6
CONTINUOUS
10
1.03433
20
-5.30015
11
1.03058
21
-5.30765
0
LINE
8
BLACK
6
CONTINUOUS
10
1.03058
20
-5.30765
11
1.02683
21
-5.3114
0
LINE
8
BLACK
6
CONTINUOUS
10
1.02683
20
-5.3114
11
1.01933
21
-5.31515
0
LINE
8
BLACK
6
CONTINUOUS
10
1.01933
20
-5.31515
11
1.01184
21
-5.31515
0
LINE
8
BLACK
6
CONTINUOUS
10
1.01184
20
-5.31515
11
1.00434
21
-5.3114
0
LINE
8
BLACK
6
CONTINUOUS
10
1.00434
20
-5.3114
11
1.00059
21
-5.30765
0
LINE
8
BLACK
6
CONTINUOUS
10
1.00059
20
-5.30765
11
0.996838
21
-5.30015
0
LINE
8
BLACK
6
CONTINUOUS
10
0.996838
20
-5.30015
11
0.993088
21
-5.28515
0
LINE
8
BLACK
6
CONTINUOUS
10
0.993088
20
-5.28515
11
0.993088
21
-5.26641
0
LINE
8
BLACK
6
CONTINUOUS
10
0.993088
20
-5.26641
11
0.996838
21
-5.25141
0
LINE
8
BLACK
6
CONTINUOUS
10
0.996838
20
-5.25141
11
1.00059
21
-5.24391
0
LINE
8
BLACK
6
CONTINUOUS
10
1.00059
20
-5.24391
11
1.00434
21
-5.24016
0
LINE
8
BLACK
6
CONTINUOUS
10
1.00434
20
-5.24016
11
1.01184
21
-5.23641
0
LINE
8
BLACK
6
CONTINUOUS
10
1.08683
20
-5.23641
11
1.09433
21
-5.23641
0
LINE
8
BLACK
6
CONTINUOUS
10
1.09433
20
-5.23641
11
1.10182
21
-5.24016
0
LINE
8
BLACK
6
CONTINUOUS
10
1.10182
20
-5.24016
11
1.10557
21
-5.24391
0
LINE
8
BLACK
6
CONTINUOUS
10
1.10557
20
-5.24391
11
1.10932
21
-5.25141
0
LINE
8
BLACK
6
CONTINUOUS
10
1.10932
20
-5.25141
11
1.11307
21
-5.26641
0
LINE
8
BLACK
6
CONTINUOUS
10
1.11307
20
-5.26641
11
1.11307
21
-5.28515
0
LINE
8
BLACK
6
CONTINUOUS
10
1.11307
20
-5.28515
11
1.10932
21
-5.30015
0
LINE
8
BLACK
6
CONTINUOUS
10
1.10932
20
-5.30015
11
1.10557
21
-5.30765
0
LINE
8
BLACK
6
CONTINUOUS
10
1.10557
20
-5.30765
11
1.10182
21
-5.3114
0
LINE
8
BLACK
6
CONTINUOUS
10
1.10182
20
-5.3114
11
1.09433
21
-5.31515
0
LINE
8
BLACK
6
CONTINUOUS
10
1.09433
20
-5.31515
11
1.08683
21
-5.31515
0
LINE
8
BLACK
6
CONTINUOUS
10
1.08683
20
-5.31515
11
1.07933
21
-5.3114
0
LINE
8
BLACK
6
CONTINUOUS
10
1.07933
20
-5.3114
11
1.07558
21
-5.30765
0
LINE
8
BLACK
6
CONTINUOUS
10
1.07558
20
-5.30765
11
1.07183
21
-5.30015
0
LINE
8
BLACK
6
CONTINUOUS
10
1.07183
20
-5.30015
11
1.06808
21
-5.28515
0
LINE
8
BLACK
6
CONTINUOUS
10
1.06808
20
-5.28515
11
1.06808
21
-5.26641
0
LINE
8
BLACK
6
CONTINUOUS
10
1.06808
20
-5.26641
11
1.07183
21
-5.25141
0
LINE
8
BLACK
6
CONTINUOUS
10
1.07183
20
-5.25141
11
1.07558
21
-5.24391
0
LINE
8
BLACK
6
CONTINUOUS
10
1.07558
20
-5.24391
11
1.07933
21
-5.24016
0
LINE
8
BLACK
6
CONTINUOUS
10
1.07933
20
-5.24016
11
1.08683
21
-5.23641
0
LINE
8
BLACK
6
CONTINUOUS
10
1.14682
20
-5.31515
11
1.14682
21
-5.26266
0
LINE
8
BLACK
6
CONTINUOUS
10
1.14682
20
-5.27016
11
1.15057
21
-5.26641
0
LINE
8
BLACK
6
CONTINUOUS
10
1.15057
20
-5.26641
11
1.15807
21
-5.26266
0
LINE
8
BLACK
6
CONTINUOUS
10
1.15807
20
-5.26266
11
1.16932
21
-5.26266
0
LINE
8
BLACK
6
CONTINUOUS
10
1.16932
20
-5.26266
11
1.17682
21
-5.26641
0
LINE
8
BLACK
6
CONTINUOUS
10
1.17682
20
-5.26641
11
1.18056
21
-5.27391
0
LINE
8
BLACK
6
CONTINUOUS
10
1.18056
20
-5.27391
11
1.18056
21
-5.31515
0
LINE
8
BLACK
6
CONTINUOUS
10
1.18056
20
-5.27391
11
1.18431
21
-5.26641
0
LINE
8
BLACK
6
CONTINUOUS
10
1.18431
20
-5.26641
11
1.19181
21
-5.26266
0
LINE
8
BLACK
6
CONTINUOUS
10
1.19181
20
-5.26266
11
1.20306
21
-5.26266
0
LINE
8
BLACK
6
CONTINUOUS
10
1.20306
20
-5.26266
11
1.21056
21
-5.26641
0
LINE
8
BLACK
6
CONTINUOUS
10
1.21056
20
-5.26641
11
1.21431
21
-5.27391
0
LINE
8
BLACK
6
CONTINUOUS
10
1.21431
20
-5.27391
11
1.21431
21
-5.31515
0
LINE
8
BLACK
6
CONTINUOUS
10
1.25181
20
-5.31515
11
1.25181
21
-5.26266
0
LINE
8
BLACK
6
CONTINUOUS
10
1.25181
20
-5.27016
11
1.25556
21
-5.26641
0
LINE
8
BLACK
6
CONTINUOUS
10
1.25556
20
-5.26641
11
1.26305
21
-5.26266
0
LINE
8
BLACK
6
CONTINUOUS
10
1.26305
20
-5.26266
11
1.2743
21
-5.26266
0
LINE
8
BLACK
6
CONTINUOUS
10
1.2743
20
-5.26266
11
1.2818
21
-5.26641
0
LINE
8
BLACK
6
CONTINUOUS
10
1.2818
20
-5.26641
11
1.28555
21
-5.27391
0
LINE
8
BLACK
6
CONTINUOUS
10
1.28555
20
-5.27391
11
1.28555
21
-5.31515
0
LINE
8
BLACK
6
CONTINUOUS
10
1.28555
20
-5.27391
11
1.2893
21
-5.26641
0
LINE
8
BLACK
6
CONTINUOUS
10
1.2893
20
-5.26641
11
1.2968
21
-5.26266
0
LINE
8
BLACK
6
CONTINUOUS
10
1.2968
20
-5.26266
11
1.30805
21
-5.26266
0
LINE
8
BLACK
6
CONTINUOUS
10
1.30805
20
-5.26266
11
1.31555
21
-5.26641
0
LINE
8
BLACK
6
CONTINUOUS
10
1.31555
20
-5.26641
11
1.3193
21
-5.27391
0
LINE
8
BLACK
6
CONTINUOUS
10
1.3193
20
-5.27391
11
1.3193
21
-5.31515
0
LINE
8
BLACK
6
CONTINUOUS
10
1.47303
20
-5.23266
11
1.40554
21
-5.3339
0
LINE
8
BLACK
6
CONTINUOUS
10
1.57427
20
-5.23641
11
1.58176
21
-5.23641
0
LINE
8
BLACK
6
CONTINUOUS
10
1.58176
20
-5.23641
11
1.58926
21
-5.24016
0
LINE
8
BLACK
6
CONTINUOUS
10
1.58926
20
-5.24016
11
1.59301
21
-5.24391
0
LINE
8
BLACK
6
CONTINUOUS
10
1.59301
20
-5.24391
11
1.59676
21
-5.25141
0
LINE
8
BLACK
6
CONTINUOUS
10
1.59676
20
-5.25141
11
1.60051
21
-5.26641
0
LINE
8
BLACK
6
CONTINUOUS
10
1.60051
20
-5.26641
11
1.60051
21
-5.28515
0
LINE
8
BLACK
6
CONTINUOUS
10
1.60051
20
-5.28515
11
1.59676
21
-5.30015
0
LINE
8
BLACK
6
CONTINUOUS
10
1.59676
20
-5.30015
11
1.59301
21
-5.30765
0
LINE
8
BLACK
6
CONTINUOUS
10
1.59301
20
-5.30765
11
1.58926
21
-5.3114
0
LINE
8
BLACK
6
CONTINUOUS
10
1.58926
20
-5.3114
11
1.58176
21
-5.31515
0
LINE
8
BLACK
6
CONTINUOUS
10
1.58176
20
-5.31515
11
1.57427
21
-5.31515
0
LINE
8
BLACK
6
CONTINUOUS
10
1.57427
20
-5.31515
11
1.56677
21
-5.3114
0
LINE
8
BLACK
6
CONTINUOUS
10
1.56677
20
-5.3114
11
1.56302
21
-5.30765
0
LINE
8
BLACK
6
CONTINUOUS
10
1.56302
20
-5.30765
11
1.55927
21
-5.30015
0
LINE
8
BLACK
6
CONTINUOUS
10
1.55927
20
-5.30015
11
1.55552
21
-5.28515
0
LINE
8
BLACK
6
CONTINUOUS
10
1.55552
20
-5.28515
11
1.55552
21
-5.26641
0
LINE
8
BLACK
6
CONTINUOUS
10
1.55552
20
-5.26641
11
1.55927
21
-5.25141
0
LINE
8
BLACK
6
CONTINUOUS
10
1.55927
20
-5.25141
11
1.56302
21
-5.24391
0
LINE
8
BLACK
6
CONTINUOUS
10
1.56302
20
-5.24391
11
1.56677
21
-5.24016
0
LINE
8
BLACK
6
CONTINUOUS
10
1.56677
20
-5.24016
11
1.57427
21
-5.23641
0
LINE
8
BLACK
6
CONTINUOUS
10
1.63426
20
-5.30765
11
1.63801
21
-5.3114
0
LINE
8
BLACK
6
CONTINUOUS
10
1.63801
20
-5.3114
11
1.63426
21
-5.31515
0
LINE
8
BLACK
6
CONTINUOUS
10
1.63426
20
-5.31515
11
1.63051
21
-5.3114
0
LINE
8
BLACK
6
CONTINUOUS
10
1.63051
20
-5.3114
11
1.63426
21
-5.30765
0
LINE
8
BLACK
6
CONTINUOUS
10
1.63426
20
-5.30765
11
1.63426
21
-5.31515
0
LINE
8
BLACK
6
CONTINUOUS
10
1.68675
20
-5.23641
11
1.69425
21
-5.23641
0
LINE
8
BLACK
6
CONTINUOUS
10
1.69425
20
-5.23641
11
1.70175
21
-5.24016
0
LINE
8
BLACK
6
CONTINUOUS
10
1.70175
20
-5.24016
11
1.7055
21
-5.24391
0
LINE
8
BLACK
6
CONTINUOUS
10
1.7055
20
-5.24391
11
1.70925
21
-5.25141
0
LINE
8
BLACK
6
CONTINUOUS
10
1.70925
20
-5.25141
11
1.713
21
-5.26641
0
LINE
8
BLACK
6
CONTINUOUS
10
1.713
20
-5.26641
11
1.713
21
-5.28515
0
LINE
8
BLACK
6
CONTINUOUS
10
1.713
20
-5.28515
11
1.70925
21
-5.30015
0
LINE
8
BLACK
6
CONTINUOUS
10
1.70925
20
-5.30015
11
1.7055
21
-5.30765
0
LINE
8
BLACK
6
CONTINUOUS
10
1.7055
20
-5.30765
11
1.70175
21
-5.3114
0
LINE
8
BLACK
6
CONTINUOUS
10
1.70175
20
-5.3114
11
1.69425
21
-5.31515
0
LINE
8
BLACK
6
CONTINUOUS
10
1.69425
20
-5.31515
11
1.68675
21
-5.31515
0
LINE
8
BLACK
6
CONTINUOUS
10
1.68675
20
-5.31515
11
1.67925
21
-5.3114
0
LINE
8
BLACK
6
CONTINUOUS
10
1.67925
20
-5.3114
11
1.6755
21
-5.30765
0
LINE
8
BLACK
6
CONTINUOUS
10
1.6755
20
-5.30765
11
1.67175
21
-5.30015
0
LINE
8
BLACK
6
CONTINUOUS
10
1.67175
20
-5.30015
11
1.668
21
-5.28515
0
LINE
8
BLACK
6
CONTINUOUS
10
1.668
20
-5.28515
11
1.668
21
-5.26641
0
LINE
8
BLACK
6
CONTINUOUS
10
1.668
20
-5.26641
11
1.67175
21
-5.25141
0
LINE
8
BLACK
6
CONTINUOUS
10
1.67175
20
-5.25141
11
1.6755
21
-5.24391
0
LINE
8
BLACK
6
CONTINUOUS
10
1.6755
20
-5.24391
11
1.67925
21
-5.24016
0
LINE
8
BLACK
6
CONTINUOUS
10
1.67925
20
-5.24016
11
1.68675
21
-5.23641
0
LINE
8
BLACK
6
CONTINUOUS
10
1.76174
20
-5.23641
11
1.76924
21
-5.23641
0
LINE
8
BLACK
6
CONTINUOUS
10
1.76924
20
-5.23641
11
1.77674
21
-5.24016
0
LINE
8
BLACK
6
CONTINUOUS
10
1.77674
20
-5.24016
11
1.78049
21
-5.24391
0
LINE
8
BLACK
6
CONTINUOUS
10
1.78049
20
-5.24391
11
1.78424
21
-5.25141
0
LINE
8
BLACK
6
CONTINUOUS
10
1.78424
20
-5.25141
11
1.78799
21
-5.26641
0
LINE
8
BLACK
6
CONTINUOUS
10
1.78799
20
-5.26641
11
1.78799
21
-5.28515
0
LINE
8
BLACK
6
CONTINUOUS
10
1.78799
20
-5.28515
11
1.78424
21
-5.30015
0
LINE
8
BLACK
6
CONTINUOUS
10
1.78424
20
-5.30015
11
1.78049
21
-5.30765
0
LINE
8
BLACK
6
CONTINUOUS
10
1.78049
20
-5.30765
11
1.77674
21
-5.3114
0
LINE
8
BLACK
6
CONTINUOUS
10
1.77674
20
-5.3114
11
1.76924
21
-5.31515
0
LINE
8
BLACK
6
CONTINUOUS
10
1.76924
20
-5.31515
11
1.76174
21
-5.31515
0
LINE
8
BLACK
6
CONTINUOUS
10
1.76174
20
-5.31515
11
1.75424
21
-5.3114
0
LINE
8
BLACK
6
CONTINUOUS
10
1.75424
20
-5.3114
11
1.75049
21
-5.30765
0
LINE
8
BLACK
6
CONTINUOUS
10
1.75049
20
-5.30765
11
1.74674
21
-5.30015
0
LINE
8
BLACK
6
CONTINUOUS
10
1.74674
20
-5.30015
11
1.74299
21
-5.28515
0
LINE
8
BLACK
6
CONTINUOUS
10
1.74299
20
-5.28515
11
1.74299
21
-5.26641
0
LINE
8
BLACK
6
CONTINUOUS
10
1.74299
20
-5.26641
11
1.74674
21
-5.25141
0
LINE
8
BLACK
6
CONTINUOUS
10
1.74674
20
-5.25141
11
1.75049
21
-5.24391
0
LINE
8
BLACK
6
CONTINUOUS
10
1.75049
20
-5.24391
11
1.75424
21
-5.24016
0
LINE
8
BLACK
6
CONTINUOUS
10
1.75424
20
-5.24016
11
1.76174
21
-5.23641
0
LINE
8
BLACK
6
CONTINUOUS
10
1.81424
20
-5.23641
11
1.86298
21
-5.23641
0
LINE
8
BLACK
6
CONTINUOUS
10
1.86298
20
-5.23641
11
1.83673
21
-5.26641
0
LINE
8
BLACK
6
CONTINUOUS
10
1.83673
20
-5.26641
11
1.84798
21
-5.26641
0
LINE
8
BLACK
6
CONTINUOUS
10
1.84798
20
-5.26641
11
1.85548
21
-5.27016
0
LINE
8
BLACK
6
CONTINUOUS
10
1.85548
20
-5.27016
11
1.85923
21
-5.27391
0
LINE
8
BLACK
6
CONTINUOUS
10
1.85923
20
-5.27391
11
1.86298
21
-5.28141
0
LINE
8
BLACK
6
CONTINUOUS
10
1.86298
20
-5.28141
11
1.86298
21
-5.30015
0
LINE
8
BLACK
6
CONTINUOUS
10
1.86298
20
-5.30015
11
1.85923
21
-5.30765
0
LINE
8
BLACK
6
CONTINUOUS
10
1.85923
20
-5.30765
11
1.85548
21
-5.3114
0
LINE
8
BLACK
6
CONTINUOUS
10
1.85548
20
-5.3114
11
1.84798
21
-5.31515
0
LINE
8
BLACK
6
CONTINUOUS
10
1.84798
20
-5.31515
11
1.82548
21
-5.31515
0
LINE
8
BLACK
6
CONTINUOUS
10
1.82548
20
-5.31515
11
1.81798
21
-5.3114
0
LINE
8
BLACK
6
CONTINUOUS
10
1.81798
20
-5.3114
11
1.81424
21
-5.30765
0
LINE
8
BLACK
6
CONTINUOUS
10
1.90047
20
-5.31515
11
1.91547
21
-5.31515
0
LINE
8
BLACK
6
CONTINUOUS
10
1.91547
20
-5.31515
11
1.92297
21
-5.3114
0
LINE
8
BLACK
6
CONTINUOUS
10
1.92297
20
-5.3114
11
1.92672
21
-5.30765
0
LINE
8
BLACK
6
CONTINUOUS
10
1.92672
20
-5.30765
11
1.93422
21
-5.2964
0
LINE
8
BLACK
6
CONTINUOUS
10
1.93422
20
-5.2964
11
1.93797
21
-5.28141
0
LINE
8
BLACK
6
CONTINUOUS
10
1.93797
20
-5.28141
11
1.93797
21
-5.25141
0
LINE
8
BLACK
6
CONTINUOUS
10
1.93797
20
-5.25141
11
1.93422
21
-5.24391
0
LINE
8
BLACK
6
CONTINUOUS
10
1.93422
20
-5.24391
11
1.93047
21
-5.24016
0
LINE
8
BLACK
6
CONTINUOUS
10
1.93047
20
-5.24016
11
1.92297
21
-5.23641
0
LINE
8
BLACK
6
CONTINUOUS
10
1.92297
20
-5.23641
11
1.90797
21
-5.23641
0
LINE
8
BLACK
6
CONTINUOUS
10
1.90797
20
-5.23641
11
1.90047
21
-5.24016
0
LINE
8
BLACK
6
CONTINUOUS
10
1.90047
20
-5.24016
11
1.89673
21
-5.24391
0
LINE
8
BLACK
6
CONTINUOUS
10
1.89673
20
-5.24391
11
1.89298
21
-5.25141
0
LINE
8
BLACK
6
CONTINUOUS
10
1.89298
20
-5.25141
11
1.89298
21
-5.27016
0
LINE
8
BLACK
6
CONTINUOUS
10
1.89298
20
-5.27016
11
1.89673
21
-5.27766
0
LINE
8
BLACK
6
CONTINUOUS
10
1.89673
20
-5.27766
11
1.90047
21
-5.28141
0
LINE
8
BLACK
6
CONTINUOUS
10
1.90047
20
-5.28141
11
1.90797
21
-5.28515
0
LINE
8
BLACK
6
CONTINUOUS
10
1.90797
20
-5.28515
11
1.92297
21
-5.28515
0
LINE
8
BLACK
6
CONTINUOUS
10
1.92297
20
-5.28515
11
1.93047
21
-5.28141
0
LINE
8
BLACK
6
CONTINUOUS
10
1.93047
20
-5.28141
11
1.93422
21
-5.27766
0
LINE
8
BLACK
6
CONTINUOUS
10
1.93422
20
-5.27766
11
1.93797
21
-5.27016
0
LINE
8
BLACK
6
CONTINUOUS
10
1.96797
20
-5.23641
11
1.96797
21
-5.25141
0
LINE
8
BLACK
6
CONTINUOUS
10
1.99796
20
-5.23641
11
1.99796
21
-5.25141
0
LINE
8
BLACK
6
CONTINUOUS
10
2.1142
20
-5.34515
11
2.11045
21
-5.3414
0
LINE
8
BLACK
6
CONTINUOUS
10
2.11045
20
-5.3414
11
2.10295
21
-5.33015
0
LINE
8
BLACK
6
CONTINUOUS
10
2.10295
20
-5.33015
11
2.0992
21
-5.32265
0
LINE
8
BLACK
6
CONTINUOUS
10
2.0992
20
-5.32265
11
2.09545
21
-5.3114
0
LINE
8
BLACK
6
CONTINUOUS
10
2.09545
20
-5.3114
11
2.0917
21
-5.29265
0
LINE
8
BLACK
6
CONTINUOUS
10
2.0917
20
-5.29265
11
2.0917
21
-5.27766
0
LINE
8
BLACK
6
CONTINUOUS
10
2.0917
20
-5.27766
11
2.09545
21
-5.25891
0
LINE
8
BLACK
6
CONTINUOUS
10
2.09545
20
-5.25891
11
2.0992
21
-5.24766
0
LINE
8
BLACK
6
CONTINUOUS
10
2.0992
20
-5.24766
11
2.10295
21
-5.24016
0
LINE
8
BLACK
6
CONTINUOUS
10
2.10295
20
-5.24016
11
2.11045
21
-5.22891
0
LINE
8
BLACK
6
CONTINUOUS
10
2.11045
20
-5.22891
11
2.1142
21
-5.22516
0
LINE
8
BLACK
6
CONTINUOUS
10
2.18544
20
-5.31515
11
2.14044
21
-5.31515
0
LINE
8
BLACK
6
CONTINUOUS
10
2.16294
20
-5.31515
11
2.16294
21
-5.23641
0
LINE
8
BLACK
6
CONTINUOUS
10
2.16294
20
-5.23641
11
2.15544
21
-5.24766
0
LINE
8
BLACK
6
CONTINUOUS
10
2.15544
20
-5.24766
11
2.14794
21
-5.25516
0
LINE
8
BLACK
6
CONTINUOUS
10
2.14794
20
-5.25516
11
2.14044
21
-5.25891
0
LINE
8
BLACK
6
CONTINUOUS
10
2.23418
20
-5.23641
11
2.24168
21
-5.23641
0
LINE
8
BLACK
6
CONTINUOUS
10
2.24168
20
-5.23641
11
2.24918
21
-5.24016
0
LINE
8
BLACK
6
CONTINUOUS
10
2.24918
20
-5.24016
11
2.25293
21
-5.24391
0
LINE
8
BLACK
6
CONTINUOUS
10
2.25293
20
-5.24391
11
2.25668
21
-5.25141
0
LINE
8
BLACK
6
CONTINUOUS
10
2.25668
20
-5.25141
11
2.26043
21
-5.26641
0
LINE
8
BLACK
6
CONTINUOUS
10
2.26043
20
-5.26641
11
2.26043
21
-5.28515
0
LINE
8
BLACK
6
CONTINUOUS
10
2.26043
20
-5.28515
11
2.25668
21
-5.30015
0
LINE
8
BLACK
6
CONTINUOUS
10
2.25668
20
-5.30015
11
2.25293
21
-5.30765
0
LINE
8
BLACK
6
CONTINUOUS
10
2.25293
20
-5.30765
11
2.24918
21
-5.3114
0
LINE
8
BLACK
6
CONTINUOUS
10
2.24918
20
-5.3114
11
2.24168
21
-5.31515
0
LINE
8
BLACK
6
CONTINUOUS
10
2.24168
20
-5.31515
11
2.23418
21
-5.31515
0
LINE
8
BLACK
6
CONTINUOUS
10
2.23418
20
-5.31515
11
2.22668
21
-5.3114
0
LINE
8
BLACK
6
CONTINUOUS
10
2.22668
20
-5.3114
11
2.22293
21
-5.30765
0
LINE
8
BLACK
6
CONTINUOUS
10
2.22293
20
-5.30765
11
2.21918
21
-5.30015
0
LINE
8
BLACK
6
CONTINUOUS
10
2.21918
20
-5.30015
11
2.21544
21
-5.28515
0
LINE
8
BLACK
6
CONTINUOUS
10
2.21544
20
-5.28515
11
2.21544
21
-5.26641
0
LINE
8
BLACK
6
CONTINUOUS
10
2.21544
20
-5.26641
11
2.21918
21
-5.25141
0
LINE
8
BLACK
6
CONTINUOUS
10
2.21918
20
-5.25141
11
2.22293
21
-5.24391
0
LINE
8
BLACK
6
CONTINUOUS
10
2.22293
20
-5.24391
11
2.22668
21
-5.24016
0
LINE
8
BLACK
6
CONTINUOUS
10
2.22668
20
-5.24016
11
2.23418
21
-5.23641
0
LINE
8
BLACK
6
CONTINUOUS
10
2.28668
20
-5.23641
11
2.33917
21
-5.23641
0
LINE
8
BLACK
6
CONTINUOUS
10
2.33917
20
-5.23641
11
2.30542
21
-5.31515
0
LINE
8
BLACK
6
CONTINUOUS
10
2.42916
20
-5.31515
11
2.42916
21
-5.23641
0
LINE
8
BLACK
6
CONTINUOUS
10
2.4629
20
-5.31515
11
2.4629
21
-5.27391
0
LINE
8
BLACK
6
CONTINUOUS
10
2.4629
20
-5.27391
11
2.45915
21
-5.26641
0
LINE
8
BLACK
6
CONTINUOUS
10
2.45915
20
-5.26641
11
2.45166
21
-5.26266
0
LINE
8
BLACK
6
CONTINUOUS
10
2.45166
20
-5.26266
11
2.44041
21
-5.26266
0
LINE
8
BLACK
6
CONTINUOUS
10
2.44041
20
-5.26266
11
2.43291
21
-5.26641
0
LINE
8
BLACK
6
CONTINUOUS
10
2.43291
20
-5.26641
11
2.42916
21
-5.27016
0
LINE
8
BLACK
6
CONTINUOUS
10
2.51165
20
-5.31515
11
2.50415
21
-5.3114
0
LINE
8
BLACK
6
CONTINUOUS
10
2.50415
20
-5.3114
11
2.5004
21
-5.30765
0
LINE
8
BLACK
6
CONTINUOUS
10
2.5004
20
-5.30765
11
2.49665
21
-5.30015
0
LINE
8
BLACK
6
CONTINUOUS
10
2.49665
20
-5.30015
11
2.49665
21
-5.27766
0
LINE
8
BLACK
6
CONTINUOUS
10
2.49665
20
-5.27766
11
2.5004
21
-5.27016
0
LINE
8
BLACK
6
CONTINUOUS
10
2.5004
20
-5.27016
11
2.50415
21
-5.26641
0
LINE
8
BLACK
6
CONTINUOUS
10
2.50415
20
-5.26641
11
2.51165
21
-5.26266
0
LINE
8
BLACK
6
CONTINUOUS
10
2.51165
20
-5.26266
11
2.5229
21
-5.26266
0
LINE
8
BLACK
6
CONTINUOUS
10
2.5229
20
-5.26266
11
2.5304
21
-5.26641
0
LINE
8
BLACK
6
CONTINUOUS
10
2.5304
20
-5.26641
11
2.53415
21
-5.27016
0
LINE
8
BLACK
6
CONTINUOUS
10
2.53415
20
-5.27016
11
2.5379
21
-5.27766
0
LINE
8
BLACK
6
CONTINUOUS
10
2.5379
20
-5.27766
11
2.5379
21
-5.30015
0
LINE
8
BLACK
6
CONTINUOUS
10
2.5379
20
-5.30015
11
2.53415
21
-5.30765
0
LINE
8
BLACK
6
CONTINUOUS
10
2.53415
20
-5.30765
11
2.5304
21
-5.3114
0
LINE
8
BLACK
6
CONTINUOUS
10
2.5304
20
-5.3114
11
2.5229
21
-5.31515
0
LINE
8
BLACK
6
CONTINUOUS
10
2.5229
20
-5.31515
11
2.51165
21
-5.31515
0
LINE
8
BLACK
6
CONTINUOUS
10
2.58289
20
-5.31515
11
2.57539
21
-5.3114
0
LINE
8
BLACK
6
CONTINUOUS
10
2.57539
20
-5.3114
11
2.57164
21
-5.3039
0
LINE
8
BLACK
6
CONTINUOUS
10
2.57164
20
-5.3039
11
2.57164
21
-5.23641
0
LINE
8
BLACK
6
CONTINUOUS
10
2.64288
20
-5.3114
11
2.63538
21
-5.31515
0
LINE
8
BLACK
6
CONTINUOUS
10
2.63538
20
-5.31515
11
2.62038
21
-5.31515
0
LINE
8
BLACK
6
CONTINUOUS
10
2.62038
20
-5.31515
11
2.61289
21
-5.3114
0
LINE
8
BLACK
6
CONTINUOUS
10
2.61289
20
-5.3114
11
2.60914
21
-5.3039
0
LINE
8
BLACK
6
CONTINUOUS
10
2.60914
20
-5.3039
11
2.60914
21
-5.27391
0
LINE
8
BLACK
6
CONTINUOUS
10
2.60914
20
-5.27391
11
2.61289
21
-5.26641
0
LINE
8
BLACK
6
CONTINUOUS
10
2.61289
20
-5.26641
11
2.62038
21
-5.26266
0
LINE
8
BLACK
6
CONTINUOUS
10
2.62038
20
-5.26266
11
2.63538
21
-5.26266
0
LINE
8
BLACK
6
CONTINUOUS
10
2.63538
20
-5.26266
11
2.64288
21
-5.26641
0
LINE
8
BLACK
6
CONTINUOUS
10
2.64288
20
-5.26641
11
2.64663
21
-5.27391
0
LINE
8
BLACK
6
CONTINUOUS
10
2.64663
20
-5.27391
11
2.64663
21
-5.28141
0
LINE
8
BLACK
6
CONTINUOUS
10
2.64663
20
-5.28141
11
2.60914
21
-5.2889
0
LINE
8
BLACK
6
CONTINUOUS
10
2.67663
20
-5.3114
11
2.68413
21
-5.31515
0
LINE
8
BLACK
6
CONTINUOUS
10
2.68413
20
-5.31515
11
2.69912
21
-5.31515
0
LINE
8
BLACK
6
CONTINUOUS
10
2.69912
20
-5.31515
11
2.70662
21
-5.3114
0
LINE
8
BLACK
6
CONTINUOUS
10
2.70662
20
-5.3114
11
2.71037
21
-5.3039
0
LINE
8
BLACK
6
CONTINUOUS
10
2.71037
20
-5.3039
11
2.71037
21
-5.30015
0
LINE
8
BLACK
6
CONTINUOUS
10
2.71037
20
-5.30015
11
2.70662
21
-5.29265
0
LINE
8
BLACK
6
CONTINUOUS
10
2.70662
20
-5.29265
11
2.69912
21
-5.2889
0
LINE
8
BLACK
6
CONTINUOUS
10
2.69912
20
-5.2889
11
2.68788
21
-5.2889
0
LINE
8
BLACK
6
CONTINUOUS
10
2.68788
20
-5.2889
11
2.68038
21
-5.28515
0
LINE
8
BLACK
6
CONTINUOUS
10
2.68038
20
-5.28515
11
2.67663
21
-5.27766
0
LINE
8
BLACK
6
CONTINUOUS
10
2.67663
20
-5.27766
11
2.67663
21
-5.27391
0
LINE
8
BLACK
6
CONTINUOUS
10
2.67663
20
-5.27391
11
2.68038
21
-5.26641
0
LINE
8
BLACK
6
CONTINUOUS
10
2.68038
20
-5.26641
11
2.68788
21
-5.26266
0
LINE
8
BLACK
6
CONTINUOUS
10
2.68788
20
-5.26266
11
2.69912
21
-5.26266
0
LINE
8
BLACK
6
CONTINUOUS
10
2.69912
20
-5.26266
11
2.70662
21
-5.26641
0
LINE
8
BLACK
6
CONTINUOUS
10
2.73662
20
-5.34515
11
2.74037
21
-5.3414
0
LINE
8
BLACK
6
CONTINUOUS
10
2.74037
20
-5.3414
11
2.74787
21
-5.33015
0
LINE
8
BLACK
6
CONTINUOUS
10
2.74787
20
-5.33015
11
2.75162
21
-5.32265
0
LINE
8
BLACK
6
CONTINUOUS
10
2.75162
20
-5.32265
11
2.75537
21
-5.3114
0
LINE
8
BLACK
6
CONTINUOUS
10
2.75537
20
-5.3114
11
2.75912
21
-5.29265
0
LINE
8
BLACK
6
CONTINUOUS
10
2.75912
20
-5.29265
11
2.75912
21
-5.27766
0
LINE
8
BLACK
6
CONTINUOUS
10
2.75912
20
-5.27766
11
2.75537
21
-5.25891
0
LINE
8
BLACK
6
CONTINUOUS
10
2.75537
20
-5.25891
11
2.75162
21
-5.24766
0
LINE
8
BLACK
6
CONTINUOUS
10
2.75162
20
-5.24766
11
2.74787
21
-5.24016
0
LINE
8
BLACK
6
CONTINUOUS
10
2.74787
20
-5.24016
11
2.74037
21
-5.22891
0
LINE
8
BLACK
6
CONTINUOUS
10
2.74037
20
-5.22891
11
2.73662
21
-5.22516
0
LINE
8
BLACK
6
CONTINUOUS
10
0.698819
20
-5.3752
11
0.698819
21
-5.39094
0
LINE
8
BLACK
6
CONTINUOUS
10
0.690945
20
-5.38307
11
0.706693
21
-5.38307
0
LINE
8
BLACK
6
CONTINUOUS
10
0.824359
20
-5.34035
11
0.831858
21
-5.34035
0
LINE
8
BLACK
6
CONTINUOUS
10
0.831858
20
-5.34035
11
0.839357
21
-5.3441
0
LINE
8
BLACK
6
CONTINUOUS
10
0.839357
20
-5.3441
11
0.843107
21
-5.34785
0
LINE
8
BLACK
6
CONTINUOUS
10
0.843107
20
-5.34785
11
0.846856
21
-5.35535
0
LINE
8
BLACK
6
CONTINUOUS
10
0.846856
20
-5.35535
11
0.850606
21
-5.37034
0
LINE
8
BLACK
6
CONTINUOUS
10
0.850606
20
-5.37034
11
0.850606
21
-5.38909
0
LINE
8
BLACK
6
CONTINUOUS
10
0.850606
20
-5.38909
11
0.846856
21
-5.40409
0
LINE
8
BLACK
6
CONTINUOUS
10
0.846856
20
-5.40409
11
0.843107
21
-5.41159
0
LINE
8
BLACK
6
CONTINUOUS
10
0.843107
20
-5.41159
11
0.839357
21
-5.41534
0
LINE
8
BLACK
6
CONTINUOUS
10
0.839357
20
-5.41534
11
0.831858
21
-5.41909
0
LINE
8
BLACK
6
CONTINUOUS
10
0.831858
20
-5.41909
11
0.824359
21
-5.41909
0
LINE
8
BLACK
6
CONTINUOUS
10
0.824359
20
-5.41909
11
0.81686
21
-5.41534
0
LINE
8
BLACK
6
CONTINUOUS
10
0.81686
20
-5.41534
11
0.81311
21
-5.41159
0
LINE
8
BLACK
6
CONTINUOUS
10
0.81311
20
-5.41159
11
0.809361
21
-5.40409
0
LINE
8
BLACK
6
CONTINUOUS
10
0.809361
20
-5.40409
11
0.805611
21
-5.38909
0
LINE
8
BLACK
6
CONTINUOUS
10
0.805611
20
-5.38909
11
0.805611
21
-5.37034
0
LINE
8
BLACK
6
CONTINUOUS
10
0.805611
20
-5.37034
11
0.809361
21
-5.35535
0
LINE
8
BLACK
6
CONTINUOUS
10
0.809361
20
-5.35535
11
0.81311
21
-5.34785
0
LINE
8
BLACK
6
CONTINUOUS
10
0.81311
20
-5.34785
11
0.81686
21
-5.3441
0
LINE
8
BLACK
6
CONTINUOUS
10
0.81686
20
-5.3441
11
0.824359
21
-5.34035
0
LINE
8
BLACK
6
CONTINUOUS
10
0.884352
20
-5.41159
11
0.888101
21
-5.41534
0
LINE
8
BLACK
6
CONTINUOUS
10
0.888101
20
-5.41534
11
0.884352
21
-5.41909
0
LINE
8
BLACK
6
CONTINUOUS
10
0.884352
20
-5.41909
11
0.880602
21
-5.41534
0
LINE
8
BLACK
6
CONTINUOUS
10
0.880602
20
-5.41534
11
0.884352
21
-5.41159
0
LINE
8
BLACK
6
CONTINUOUS
10
0.884352
20
-5.41159
11
0.884352
21
-5.41909
0
LINE
8
BLACK
6
CONTINUOUS
10
0.955593
20
-5.36659
11
0.955593
21
-5.41909
0
LINE
8
BLACK
6
CONTINUOUS
10
0.936845
20
-5.3366
11
0.918097
21
-5.39284
0
LINE
8
BLACK
6
CONTINUOUS
10
0.918097
20
-5.39284
11
0.966841
21
-5.39284
0
LINE
8
BLACK
6
CONTINUOUS
10
1.01184
20
-5.34035
11
1.01933
21
-5.34035
0
LINE
8
BLACK
6
CONTINUOUS
10
1.01933
20
-5.34035
11
1.02683
21
-5.3441
0
LINE
8
BLACK
6
CONTINUOUS
10
1.02683
20
-5.3441
11
1.03058
21
-5.34785
0
LINE
8
BLACK
6
CONTINUOUS
10
1.03058
20
-5.34785
11
1.03433
21
-5.35535
0
LINE
8
BLACK
6
CONTINUOUS
10
1.03433
20
-5.35535
11
1.03808
21
-5.37034
0
LINE
8
BLACK
6
CONTINUOUS
10
1.03808
20
-5.37034
11
1.03808
21
-5.38909
0
LINE
8
BLACK
6
CONTINUOUS
10
1.03808
20
-5.38909
11
1.03433
21
-5.40409
0
LINE
8
BLACK
6
CONTINUOUS
10
1.03433
20
-5.40409
11
1.03058
21
-5.41159
0
LINE
8
BLACK
6
CONTINUOUS
10
1.03058
20
-5.41159
11
1.02683
21
-5.41534
0
LINE
8
BLACK
6
CONTINUOUS
10
1.02683
20
-5.41534
11
1.01933
21
-5.41909
0
LINE
8
BLACK
6
CONTINUOUS
10
1.01933
20
-5.41909
11
1.01184
21
-5.41909
0
LINE
8
BLACK
6
CONTINUOUS
10
1.01184
20
-5.41909
11
1.00434
21
-5.41534
0
LINE
8
BLACK
6
CONTINUOUS
10
1.00434
20
-5.41534
11
1.00059
21
-5.41159
0
LINE
8
BLACK
6
CONTINUOUS
10
1.00059
20
-5.41159
11
0.996838
21
-5.40409
0
LINE
8
BLACK
6
CONTINUOUS
10
0.996838
20
-5.40409
11
0.993088
21
-5.38909
0
LINE
8
BLACK
6
CONTINUOUS
10
0.993088
20
-5.38909
11
0.993088
21
-5.37034
0
LINE
8
BLACK
6
CONTINUOUS
10
0.993088
20
-5.37034
11
0.996838
21
-5.35535
0
LINE
8
BLACK
6
CONTINUOUS
10
0.996838
20
-5.35535
11
1.00059
21
-5.34785
0
LINE
8
BLACK
6
CONTINUOUS
10
1.00059
20
-5.34785
11
1.00434
21
-5.3441
0
LINE
8
BLACK
6
CONTINUOUS
10
1.00434
20
-5.3441
11
1.01184
21
-5.34035
0
LINE
8
BLACK
6
CONTINUOUS
10
1.08683
20
-5.34035
11
1.09433
21
-5.34035
0
LINE
8
BLACK
6
CONTINUOUS
10
1.09433
20
-5.34035
11
1.10182
21
-5.3441
0
LINE
8
BLACK
6
CONTINUOUS
10
1.10182
20
-5.3441
11
1.10557
21
-5.34785
0
LINE
8
BLACK
6
CONTINUOUS
10
1.10557
20
-5.34785
11
1.10932
21
-5.35535
0
LINE
8
BLACK
6
CONTINUOUS
10
1.10932
20
-5.35535
11
1.11307
21
-5.37034
0
LINE
8
BLACK
6
CONTINUOUS
10
1.11307
20
-5.37034
11
1.11307
21
-5.38909
0
LINE
8
BLACK
6
CONTINUOUS
10
1.11307
20
-5.38909
11
1.10932
21
-5.40409
0
LINE
8
BLACK
6
CONTINUOUS
10
1.10932
20
-5.40409
11
1.10557
21
-5.41159
0
LINE
8
BLACK
6
CONTINUOUS
10
1.10557
20
-5.41159
11
1.10182
21
-5.41534
0
LINE
8
BLACK
6
CONTINUOUS
10
1.10182
20
-5.41534
11
1.09433
21
-5.41909
0
LINE
8
BLACK
6
CONTINUOUS
10
1.09433
20
-5.41909
11
1.08683
21
-5.41909
0
LINE
8
BLACK
6
CONTINUOUS
10
1.08683
20
-5.41909
11
1.07933
21
-5.41534
0
LINE
8
BLACK
6
CONTINUOUS
10
1.07933
20
-5.41534
11
1.07558
21
-5.41159
0
LINE
8
BLACK
6
CONTINUOUS
10
1.07558
20
-5.41159
11
1.07183
21
-5.40409
0
LINE
8
BLACK
6
CONTINUOUS
10
1.07183
20
-5.40409
11
1.06808
21
-5.38909
0
LINE
8
BLACK
6
CONTINUOUS
10
1.06808
20
-5.38909
11
1.06808
21
-5.37034
0
LINE
8
BLACK
6
CONTINUOUS
10
1.06808
20
-5.37034
11
1.07183
21
-5.35535
0
LINE
8
BLACK
6
CONTINUOUS
10
1.07183
20
-5.35535
11
1.07558
21
-5.34785
0
LINE
8
BLACK
6
CONTINUOUS
10
1.07558
20
-5.34785
11
1.07933
21
-5.3441
0
LINE
8
BLACK
6
CONTINUOUS
10
1.07933
20
-5.3441
11
1.08683
21
-5.34035
0
LINE
8
BLACK
6
CONTINUOUS
10
1.14682
20
-5.41909
11
1.14682
21
-5.36659
0
LINE
8
BLACK
6
CONTINUOUS
10
1.14682
20
-5.37409
11
1.15057
21
-5.37034
0
LINE
8
BLACK
6
CONTINUOUS
10
1.15057
20
-5.37034
11
1.15807
21
-5.36659
0
LINE
8
BLACK
6
CONTINUOUS
10
1.15807
20
-5.36659
11
1.16932
21
-5.36659
0
LINE
8
BLACK
6
CONTINUOUS
10
1.16932
20
-5.36659
11
1.17682
21
-5.37034
0
LINE
8
BLACK
6
CONTINUOUS
10
1.17682
20
-5.37034
11
1.18056
21
-5.37784
0
LINE
8
BLACK
6
CONTINUOUS
10
1.18056
20
-5.37784
11
1.18056
21
-5.41909
0
LINE
8
BLACK
6
CONTINUOUS
10
1.18056
20
-5.37784
11
1.18431
21
-5.37034
0
LINE
8
BLACK
6
CONTINUOUS
10
1.18431
20
-5.37034
11
1.19181
21
-5.36659
0
LINE
8
BLACK
6
CONTINUOUS
10
1.19181
20
-5.36659
11
1.20306
21
-5.36659
0
LINE
8
BLACK
6
CONTINUOUS
10
1.20306
20
-5.36659
11
1.21056
21
-5.37034
0
LINE
8
BLACK
6
CONTINUOUS
10
1.21056
20
-5.37034
11
1.21431
21
-5.37784
0
LINE
8
BLACK
6
CONTINUOUS
10
1.21431
20
-5.37784
11
1.21431
21
-5.41909
0
LINE
8
BLACK
6
CONTINUOUS
10
1.25181
20
-5.41909
11
1.25181
21
-5.36659
0
LINE
8
BLACK
6
CONTINUOUS
10
1.25181
20
-5.37409
11
1.25556
21
-5.37034
0
LINE
8
BLACK
6
CONTINUOUS
10
1.25556
20
-5.37034
11
1.26305
21
-5.36659
0
LINE
8
BLACK
6
CONTINUOUS
10
1.26305
20
-5.36659
11
1.2743
21
-5.36659
0
LINE
8
BLACK
6
CONTINUOUS
10
1.2743
20
-5.36659
11
1.2818
21
-5.37034
0
LINE
8
BLACK
6
CONTINUOUS
10
1.2818
20
-5.37034
11
1.28555
21
-5.37784
0
LINE
8
BLACK
6
CONTINUOUS
10
1.28555
20
-5.37784
11
1.28555
21
-5.41909
0
LINE
8
BLACK
6
CONTINUOUS
10
1.28555
20
-5.37784
11
1.2893
21
-5.37034
0
LINE
8
BLACK
6
CONTINUOUS
10
1.2893
20
-5.37034
11
1.2968
21
-5.36659
0
LINE
8
BLACK
6
CONTINUOUS
10
1.2968
20
-5.36659
11
1.30805
21
-5.36659
0
LINE
8
BLACK
6
CONTINUOUS
10
1.30805
20
-5.36659
11
1.31555
21
-5.37034
0
LINE
8
BLACK
6
CONTINUOUS
10
1.31555
20
-5.37034
11
1.3193
21
-5.37784
0
LINE
8
BLACK
6
CONTINUOUS
10
1.3193
20
-5.37784
11
1.3193
21
-5.41909
0
LINE
8
BLACK
6
CONTINUOUS
10
1.47303
20
-5.3366
11
1.40554
21
-5.43784
0
LINE
8
BLACK
6
CONTINUOUS
10
1.57427
20
-5.34035
11
1.58176
21
-5.34035
0
LINE
8
BLACK
6
CONTINUOUS
10
1.58176
20
-5.34035
11
1.58926
21
-5.3441
0
LINE
8
BLACK
6
CONTINUOUS
10
1.58926
20
-5.3441
11
1.59301
21
-5.34785
0
LINE
8
BLACK
6
CONTINUOUS
10
1.59301
20
-5.34785
11
1.59676
21
-5.35535
0
LINE
8
BLACK
6
CONTINUOUS
10
1.59676
20
-5.35535
11
1.60051
21
-5.37034
0
LINE
8
BLACK
6
CONTINUOUS
10
1.60051
20
-5.37034
11
1.60051
21
-5.38909
0
LINE
8
BLACK
6
CONTINUOUS
10
1.60051
20
-5.38909
11
1.59676
21
-5.40409
0
LINE
8
BLACK
6
CONTINUOUS
10
1.59676
20
-5.40409
11
1.59301
21
-5.41159
0
LINE
8
BLACK
6
CONTINUOUS
10
1.59301
20
-5.41159
11
1.58926
21
-5.41534
0
LINE
8
BLACK
6
CONTINUOUS
10
1.58926
20
-5.41534
11
1.58176
21
-5.41909
0
LINE
8
BLACK
6
CONTINUOUS
10
1.58176
20
-5.41909
11
1.57427
21
-5.41909
0
LINE
8
BLACK
6
CONTINUOUS
10
1.57427
20
-5.41909
11
1.56677
21
-5.41534
0
LINE
8
BLACK
6
CONTINUOUS
10
1.56677
20
-5.41534
11
1.56302
21
-5.41159
0
LINE
8
BLACK
6
CONTINUOUS
10
1.56302
20
-5.41159
11
1.55927
21
-5.40409
0
LINE
8
BLACK
6
CONTINUOUS
10
1.55927
20
-5.40409
11
1.55552
21
-5.38909
0
LINE
8
BLACK
6
CONTINUOUS
10
1.55552
20
-5.38909
11
1.55552
21
-5.37034
0
LINE
8
BLACK
6
CONTINUOUS
10
1.55552
20
-5.37034
11
1.55927
21
-5.35535
0
LINE
8
BLACK
6
CONTINUOUS
10
1.55927
20
-5.35535
11
1.56302
21
-5.34785
0
LINE
8
BLACK
6
CONTINUOUS
10
1.56302
20
-5.34785
11
1.56677
21
-5.3441
0
LINE
8
BLACK
6
CONTINUOUS
10
1.56677
20
-5.3441
11
1.57427
21
-5.34035
0
LINE
8
BLACK
6
CONTINUOUS
10
1.63426
20
-5.41159
11
1.63801
21
-5.41534
0
LINE
8
BLACK
6
CONTINUOUS
10
1.63801
20
-5.41534
11
1.63426
21
-5.41909
0
LINE
8
BLACK
6
CONTINUOUS
10
1.63426
20
-5.41909
11
1.63051
21
-5.41534
0
LINE
8
BLACK
6
CONTINUOUS
10
1.63051
20
-5.41534
11
1.63426
21
-5.41159
0
LINE
8
BLACK
6
CONTINUOUS
10
1.63426
20
-5.41159
11
1.63426
21
-5.41909
0
LINE
8
BLACK
6
CONTINUOUS
10
1.68675
20
-5.34035
11
1.69425
21
-5.34035
0
LINE
8
BLACK
6
CONTINUOUS
10
1.69425
20
-5.34035
11
1.70175
21
-5.3441
0
LINE
8
BLACK
6
CONTINUOUS
10
1.70175
20
-5.3441
11
1.7055
21
-5.34785
0
LINE
8
BLACK
6
CONTINUOUS
10
1.7055
20
-5.34785
11
1.70925
21
-5.35535
0
LINE
8
BLACK
6
CONTINUOUS
10
1.70925
20
-5.35535
11
1.713
21
-5.37034
0
LINE
8
BLACK
6
CONTINUOUS
10
1.713
20
-5.37034
11
1.713
21
-5.38909
0
LINE
8
BLACK
6
CONTINUOUS
10
1.713
20
-5.38909
11
1.70925
21
-5.40409
0
LINE
8
BLACK
6
CONTINUOUS
10
1.70925
20
-5.40409
11
1.7055
21
-5.41159
0
LINE
8
BLACK
6
CONTINUOUS
10
1.7055
20
-5.41159
11
1.70175
21
-5.41534
0
LINE
8
BLACK
6
CONTINUOUS
10
1.70175
20
-5.41534
11
1.69425
21
-5.41909
0
LINE
8
BLACK
6
CONTINUOUS
10
1.69425
20
-5.41909
11
1.68675
21
-5.41909
0
LINE
8
BLACK
6
CONTINUOUS
10
1.68675
20
-5.41909
11
1.67925
21
-5.41534
0
LINE
8
BLACK
6
CONTINUOUS
10
1.67925
20
-5.41534
11
1.6755
21
-5.41159
0
LINE
8
BLACK
6
CONTINUOUS
10
1.6755
20
-5.41159
11
1.67175
21
-5.40409
0
LINE
8
BLACK
6
CONTINUOUS
10
1.67175
20
-5.40409
11
1.668
21
-5.38909
0
LINE
8
BLACK
6
CONTINUOUS
10
1.668
20
-5.38909
11
1.668
21
-5.37034
0
LINE
8
BLACK
6
CONTINUOUS
10
1.668
20
-5.37034
11
1.67175
21
-5.35535
0
LINE
8
BLACK
6
CONTINUOUS
10
1.67175
20
-5.35535
11
1.6755
21
-5.34785
0
LINE
8
BLACK
6
CONTINUOUS
10
1.6755
20
-5.34785
11
1.67925
21
-5.3441
0
LINE
8
BLACK
6
CONTINUOUS
10
1.67925
20
-5.3441
11
1.68675
21
-5.34035
0
LINE
8
BLACK
6
CONTINUOUS
10
1.78799
20
-5.41909
11
1.74299
21
-5.41909
0
LINE
8
BLACK
6
CONTINUOUS
10
1.76549
20
-5.41909
11
1.76549
21
-5.34035
0
LINE
8
BLACK
6
CONTINUOUS
10
1.76549
20
-5.34035
11
1.75799
21
-5.3516
0
LINE
8
BLACK
6
CONTINUOUS
10
1.75799
20
-5.3516
11
1.75049
21
-5.3591
0
LINE
8
BLACK
6
CONTINUOUS
10
1.75049
20
-5.3591
11
1.74299
21
-5.36285
0
LINE
8
BLACK
6
CONTINUOUS
10
1.85923
20
-5.34035
11
1.82173
21
-5.34035
0
LINE
8
BLACK
6
CONTINUOUS
10
1.82173
20
-5.34035
11
1.81798
21
-5.37784
0
LINE
8
BLACK
6
CONTINUOUS
10
1.81798
20
-5.37784
11
1.82173
21
-5.37409
0
LINE
8
BLACK
6
CONTINUOUS
10
1.82173
20
-5.37409
11
1.82923
21
-5.37034
0
LINE
8
BLACK
6
CONTINUOUS
10
1.82923
20
-5.37034
11
1.84798
21
-5.37034
0
LINE
8
BLACK
6
CONTINUOUS
10
1.84798
20
-5.37034
11
1.85548
21
-5.37409
0
LINE
8
BLACK
6
CONTINUOUS
10
1.85548
20
-5.37409
11
1.85923
21
-5.37784
0
LINE
8
BLACK
6
CONTINUOUS
10
1.85923
20
-5.37784
11
1.86298
21
-5.38534
0
LINE
8
BLACK
6
CONTINUOUS
10
1.86298
20
-5.38534
11
1.86298
21
-5.40409
0
LINE
8
BLACK
6
CONTINUOUS
10
1.86298
20
-5.40409
11
1.85923
21
-5.41159
0
LINE
8
BLACK
6
CONTINUOUS
10
1.85923
20
-5.41159
11
1.85548
21
-5.41534
0
LINE
8
BLACK
6
CONTINUOUS
10
1.85548
20
-5.41534
11
1.84798
21
-5.41909
0
LINE
8
BLACK
6
CONTINUOUS
10
1.84798
20
-5.41909
11
1.82923
21
-5.41909
0
LINE
8
BLACK
6
CONTINUOUS
10
1.82923
20
-5.41909
11
1.82173
21
-5.41534
0
LINE
8
BLACK
6
CONTINUOUS
10
1.82173
20
-5.41534
11
1.81798
21
-5.41159
0
LINE
8
BLACK
6
CONTINUOUS
10
1.88923
20
-5.34035
11
1.94172
21
-5.34035
0
LINE
8
BLACK
6
CONTINUOUS
10
1.94172
20
-5.34035
11
1.90797
21
-5.41909
0
LINE
8
BLACK
6
CONTINUOUS
10
1.96797
20
-5.34035
11
1.96797
21
-5.35535
0
LINE
8
BLACK
6
CONTINUOUS
10
1.99796
20
-5.34035
11
1.99796
21
-5.35535
0
LINE
8
BLACK
6
CONTINUOUS
10
2.1142
20
-5.44908
11
2.11045
21
-5.44533
0
LINE
8
BLACK
6
CONTINUOUS
10
2.11045
20
-5.44533
11
2.10295
21
-5.43409
0
LINE
8
BLACK
6
CONTINUOUS
10
2.10295
20
-5.43409
11
2.0992
21
-5.42659
0
LINE
8
BLACK
6
CONTINUOUS
10
2.0992
20
-5.42659
11
2.09545
21
-5.41534
0
LINE
8
BLACK
6
CONTINUOUS
10
2.09545
20
-5.41534
11
2.0917
21
-5.39659
0
LINE
8
BLACK
6
CONTINUOUS
10
2.0917
20
-5.39659
11
2.0917
21
-5.38159
0
LINE
8
BLACK
6
CONTINUOUS
10
2.0917
20
-5.38159
11
2.09545
21
-5.36285
0
LINE
8
BLACK
6
CONTINUOUS
10
2.09545
20
-5.36285
11
2.0992
21
-5.3516
0
LINE
8
BLACK
6
CONTINUOUS
10
2.0992
20
-5.3516
11
2.10295
21
-5.3441
0
LINE
8
BLACK
6
CONTINUOUS
10
2.10295
20
-5.3441
11
2.11045
21
-5.33285
0
LINE
8
BLACK
6
CONTINUOUS
10
2.11045
20
-5.33285
11
2.1142
21
-5.3291
0
LINE
8
BLACK
6
CONTINUOUS
10
2.18169
20
-5.34035
11
2.14419
21
-5.34035
0
LINE
8
BLACK
6
CONTINUOUS
10
2.14419
20
-5.34035
11
2.14044
21
-5.37784
0
LINE
8
BLACK
6
CONTINUOUS
10
2.14044
20
-5.37784
11
2.14419
21
-5.37409
0
LINE
8
BLACK
6
CONTINUOUS
10
2.14419
20
-5.37409
11
2.15169
21
-5.37034
0
LINE
8
BLACK
6
CONTINUOUS
10
2.15169
20
-5.37034
11
2.17044
21
-5.37034
0
LINE
8
BLACK
6
CONTINUOUS
10
2.17044
20
-5.37034
11
2.17794
21
-5.37409
0
LINE
8
BLACK
6
CONTINUOUS
10
2.17794
20
-5.37409
11
2.18169
21
-5.37784
0
LINE
8
BLACK
6
CONTINUOUS
10
2.18169
20
-5.37784
11
2.18544
21
-5.38534
0
LINE
8
BLACK
6
CONTINUOUS
10
2.18544
20
-5.38534
11
2.18544
21
-5.40409
0
LINE
8
BLACK
6
CONTINUOUS
10
2.18544
20
-5.40409
11
2.18169
21
-5.41159
0
LINE
8
BLACK
6
CONTINUOUS
10
2.18169
20
-5.41159
11
2.17794
21
-5.41534
0
LINE
8
BLACK
6
CONTINUOUS
10
2.17794
20
-5.41534
11
2.17044
21
-5.41909
0
LINE
8
BLACK
6
CONTINUOUS
10
2.17044
20
-5.41909
11
2.15169
21
-5.41909
0
LINE
8
BLACK
6
CONTINUOUS
10
2.15169
20
-5.41909
11
2.14419
21
-5.41534
0
LINE
8
BLACK
6
CONTINUOUS
10
2.14419
20
-5.41534
11
2.14044
21
-5.41159
0
LINE
8
BLACK
6
CONTINUOUS
10
2.23418
20
-5.34035
11
2.24168
21
-5.34035
0
LINE
8
BLACK
6
CONTINUOUS
10
2.24168
20
-5.34035
11
2.24918
21
-5.3441
0
LINE
8
BLACK
6
CONTINUOUS
10
2.24918
20
-5.3441
11
2.25293
21
-5.34785
0
LINE
8
BLACK
6
CONTINUOUS
10
2.25293
20
-5.34785
11
2.25668
21
-5.35535
0
LINE
8
BLACK
6
CONTINUOUS
10
2.25668
20
-5.35535
11
2.26043
21
-5.37034
0
LINE
8
BLACK
6
CONTINUOUS
10
2.26043
20
-5.37034
11
2.26043
21
-5.38909
0
LINE
8
BLACK
6
CONTINUOUS
10
2.26043
20
-5.38909
11
2.25668
21
-5.40409
0
LINE
8
BLACK
6
CONTINUOUS
10
2.25668
20
-5.40409
11
2.25293
21
-5.41159
0
LINE
8
BLACK
6
CONTINUOUS
10
2.25293
20
-5.41159
11
2.24918
21
-5.41534
0
LINE
8
BLACK
6
CONTINUOUS
10
2.24918
20
-5.41534
11
2.24168
21
-5.41909
0
LINE
8
BLACK
6
CONTINUOUS
10
2.24168
20
-5.41909
11
2.23418
21
-5.41909
0
LINE
8
BLACK
6
CONTINUOUS
10
2.23418
20
-5.41909
11
2.22668
21
-5.41534
0
LINE
8
BLACK
6
CONTINUOUS
10
2.22668
20
-5.41534
11
2.22293
21
-5.41159
0
LINE
8
BLACK
6
CONTINUOUS
10
2.22293
20
-5.41159
11
2.21918
21
-5.40409
0
LINE
8
BLACK
6
CONTINUOUS
10
2.21918
20
-5.40409
11
2.21544
21
-5.38909
0
LINE
8
BLACK
6
CONTINUOUS
10
2.21544
20
-5.38909
11
2.21544
21
-5.37034
0
LINE
8
BLACK
6
CONTINUOUS
10
2.21544
20
-5.37034
11
2.21918
21
-5.35535
0
LINE
8
BLACK
6
CONTINUOUS
10
2.21918
20
-5.35535
11
2.22293
21
-5.34785
0
LINE
8
BLACK
6
CONTINUOUS
10
2.22293
20
-5.34785
11
2.22668
21
-5.3441
0
LINE
8
BLACK
6
CONTINUOUS
10
2.22668
20
-5.3441
11
2.23418
21
-5.34035
0
LINE
8
BLACK
6
CONTINUOUS
10
2.35417
20
-5.41909
11
2.35417
21
-5.34035
0
LINE
8
BLACK
6
CONTINUOUS
10
2.38791
20
-5.41909
11
2.38791
21
-5.37784
0
LINE
8
BLACK
6
CONTINUOUS
10
2.38791
20
-5.37784
11
2.38416
21
-5.37034
0
LINE
8
BLACK
6
CONTINUOUS
10
2.38416
20
-5.37034
11
2.37667
21
-5.36659
0
LINE
8
BLACK
6
CONTINUOUS
10
2.37667
20
-5.36659
11
2.36542
21
-5.36659
0
LINE
8
BLACK
6
CONTINUOUS
10
2.36542
20
-5.36659
11
2.35792
21
-5.37034
0
LINE
8
BLACK
6
CONTINUOUS
10
2.35792
20
-5.37034
11
2.35417
21
-5.37409
0
LINE
8
BLACK
6
CONTINUOUS
10
2.43666
20
-5.41909
11
2.42916
21
-5.41534
0
LINE
8
BLACK
6
CONTINUOUS
10
2.42916
20
-5.41534
11
2.42541
21
-5.41159
0
LINE
8
BLACK
6
CONTINUOUS
10
2.42541
20
-5.41159
11
2.42166
21
-5.40409
0
LINE
8
BLACK
6
CONTINUOUS
10
2.42166
20
-5.40409
11
2.42166
21
-5.38159
0
LINE
8
BLACK
6
CONTINUOUS
10
2.42166
20
-5.38159
11
2.42541
21
-5.37409
0
LINE
8
BLACK
6
CONTINUOUS
10
2.42541
20
-5.37409
11
2.42916
21
-5.37034
0
LINE
8
BLACK
6
CONTINUOUS
10
2.42916
20
-5.37034
11
2.43666
21
-5.36659
0
LINE
8
BLACK
6
CONTINUOUS
10
2.43666
20
-5.36659
11
2.44791
21
-5.36659
0
LINE
8
BLACK
6
CONTINUOUS
10
2.44791
20
-5.36659
11
2.45541
21
-5.37034
0
LINE
8
BLACK
6
CONTINUOUS
10
2.45541
20
-5.37034
11
2.45915
21
-5.37409
0
LINE
8
BLACK
6
CONTINUOUS
10
2.45915
20
-5.37409
11
2.4629
21
-5.38159
0
LINE
8
BLACK
6
CONTINUOUS
10
2.4629
20
-5.38159
11
2.4629
21
-5.40409
0
LINE
8
BLACK
6
CONTINUOUS
10
2.4629
20
-5.40409
11
2.45915
21
-5.41159
0
LINE
8
BLACK
6
CONTINUOUS
10
2.45915
20
-5.41159
11
2.45541
21
-5.41534
0
LINE
8
BLACK
6
CONTINUOUS
10
2.45541
20
-5.41534
11
2.44791
21
-5.41909
0
LINE
8
BLACK
6
CONTINUOUS
10
2.44791
20
-5.41909
11
2.43666
21
-5.41909
0
LINE
8
BLACK
6
CONTINUOUS
10
2.5079
20
-5.41909
11
2.5004
21
-5.41534
0
LINE
8
BLACK
6
CONTINUOUS
10
2.5004
20
-5.41534
11
2.49665
21
-5.40784
0
LINE
8
BLACK
6
CONTINUOUS
10
2.49665
20
-5.40784
11
2.49665
21
-5.34035
0
LINE
8
BLACK
6
CONTINUOUS
10
2.56789
20
-5.41534
11
2.56039
21
-5.41909
0
LINE
8
BLACK
6
CONTINUOUS
10
2.56039
20
-5.41909
11
2.54539
21
-5.41909
0
LINE
8
BLACK
6
CONTINUOUS
10
2.54539
20
-5.41909
11
2.5379
21
-5.41534
0
LINE
8
BLACK
6
CONTINUOUS
10
2.5379
20
-5.41534
11
2.53415
21
-5.40784
0
LINE
8
BLACK
6
CONTINUOUS
10
2.53415
20
-5.40784
11
2.53415
21
-5.37784
0
LINE
8
BLACK
6
CONTINUOUS
10
2.53415
20
-5.37784
11
2.5379
21
-5.37034
0
LINE
8
BLACK
6
CONTINUOUS
10
2.5379
20
-5.37034
11
2.54539
21
-5.36659
0
LINE
8
BLACK
6
CONTINUOUS
10
2.54539
20
-5.36659
11
2.56039
21
-5.36659
0
LINE
8
BLACK
6
CONTINUOUS
10
2.56039
20
-5.36659
11
2.56789
21
-5.37034
0
LINE
8
BLACK
6
CONTINUOUS
10
2.56789
20
-5.37034
11
2.57164
21
-5.37784
0
LINE
8
BLACK
6
CONTINUOUS
10
2.57164
20
-5.37784
11
2.57164
21
-5.38534
0
LINE
8
BLACK
6
CONTINUOUS
10
2.57164
20
-5.38534
11
2.53415
21
-5.39284
0
LINE
8
BLACK
6
CONTINUOUS
10
2.60164
20
-5.41534
11
2.60914
21
-5.41909
0
LINE
8
BLACK
6
CONTINUOUS
10
2.60914
20
-5.41909
11
2.62413
21
-5.41909
0
LINE
8
BLACK
6
CONTINUOUS
10
2.62413
20
-5.41909
11
2.63163
21
-5.41534
0
LINE
8
BLACK
6
CONTINUOUS
10
2.63163
20
-5.41534
11
2.63538
21
-5.40784
0
LINE
8
BLACK
6
CONTINUOUS
10
2.63538
20
-5.40784
11
2.63538
21
-5.40409
0
LINE
8
BLACK
6
CONTINUOUS
10
2.63538
20
-5.40409
11
2.63163
21
-5.39659
0
LINE
8
BLACK
6
CONTINUOUS
10
2.63163
20
-5.39659
11
2.62413
21
-5.39284
0
LINE
8
BLACK
6
CONTINUOUS
10
2.62413
20
-5.39284
11
2.61289
21
-5.39284
0
LINE
8
BLACK
6
CONTINUOUS
10
2.61289
20
-5.39284
11
2.60539
21
-5.38909
0
LINE
8
BLACK
6
CONTINUOUS
10
2.60539
20
-5.38909
11
2.60164
21
-5.38159
0
LINE
8
BLACK
6
CONTINUOUS
10
2.60164
20
-5.38159
11
2.60164
21
-5.37784
0
LINE
8
BLACK
6
CONTINUOUS
10
2.60164
20
-5.37784
11
2.60539
21
-5.37034
0
LINE
8
BLACK
6
CONTINUOUS
10
2.60539
20
-5.37034
11
2.61289
21
-5.36659
0
LINE
8
BLACK
6
CONTINUOUS
10
2.61289
20
-5.36659
11
2.62413
21
-5.36659
0
LINE
8
BLACK
6
CONTINUOUS
10
2.62413
20
-5.36659
11
2.63163
21
-5.37034
0
LINE
8
BLACK
6
CONTINUOUS
10
2.66163
20
-5.44908
11
2.66538
21
-5.44533
0
LINE
8
BLACK
6
CONTINUOUS
10
2.66538
20
-5.44533
11
2.67288
21
-5.43409
0
LINE
8
BLACK
6
CONTINUOUS
10
2.67288
20
-5.43409
11
2.67663
21
-5.42659
0
LINE
8
BLACK
6
CONTINUOUS
10
2.67663
20
-5.42659
11
2.68038
21
-5.41534
0
LINE
8
BLACK
6
CONTINUOUS
10
2.68038
20
-5.41534
11
2.68413
21
-5.39659
0
LINE
8
BLACK
6
CONTINUOUS
10
2.68413
20
-5.39659
11
2.68413
21
-5.38159
0
LINE
8
BLACK
6
CONTINUOUS
10
2.68413
20
-5.38159
11
2.68038
21
-5.36285
0
LINE
8
BLACK
6
CONTINUOUS
10
2.68038
20
-5.36285
11
2.67663
21
-5.3516
0
LINE
8
BLACK
6
CONTINUOUS
10
2.67663
20
-5.3516
11
2.67288
21
-5.3441
0
LINE
8
BLACK
6
CONTINUOUS
10
2.67288
20
-5.3441
11
2.66538
21
-5.33285
0
LINE
8
BLACK
6
CONTINUOUS
10
2.66538
20
-5.33285
11
2.66163
21
-5.3291
0
LINE
8
BLACK
6
CONTINUOUS
10
0.703234
20
-5.49536
11
0.703234
21
-5.47866
0
LINE
8
BLACK
6
CONTINUOUS
10
0.703234
20
-5.47866
11
0.68653
21
-5.47866
0
LINE
8
BLACK
6
CONTINUOUS
10
0.68653
20
-5.47866
11
0.68653
21
-5.49536
0
LINE
8
BLACK
6
CONTINUOUS
10
0.68653
20
-5.49536
11
0.703234
21
-5.49536
0
LINE
8
BLACK
6
CONTINUOUS
10
0.824359
20
-5.44428
11
0.831858
21
-5.44428
0
LINE
8
BLACK
6
CONTINUOUS
10
0.831858
20
-5.44428
11
0.839357
21
-5.44803
0
LINE
8
BLACK
6
CONTINUOUS
10
0.839357
20
-5.44803
11
0.843107
21
-5.45178
0
LINE
8
BLACK
6
CONTINUOUS
10
0.843107
20
-5.45178
11
0.846856
21
-5.45928
0
LINE
8
BLACK
6
CONTINUOUS
10
0.846856
20
-5.45928
11
0.850606
21
-5.47428
0
LINE
8
BLACK
6
CONTINUOUS
10
0.850606
20
-5.47428
11
0.850606
21
-5.49303
0
LINE
8
BLACK
6
CONTINUOUS
10
0.850606
20
-5.49303
11
0.846856
21
-5.50803
0
LINE
8
BLACK
6
CONTINUOUS
10
0.846856
20
-5.50803
11
0.843107
21
-5.51553
0
LINE
8
BLACK
6
CONTINUOUS
10
0.843107
20
-5.51553
11
0.839357
21
-5.51928
0
LINE
8
BLACK
6
CONTINUOUS
10
0.839357
20
-5.51928
11
0.831858
21
-5.52303
0
LINE
8
BLACK
6
CONTINUOUS
10
0.831858
20
-5.52303
11
0.824359
21
-5.52303
0
LINE
8
BLACK
6
CONTINUOUS
10
0.824359
20
-5.52303
11
0.81686
21
-5.51928
0
LINE
8
BLACK
6
CONTINUOUS
10
0.81686
20
-5.51928
11
0.81311
21
-5.51553
0
LINE
8
BLACK
6
CONTINUOUS
10
0.81311
20
-5.51553
11
0.809361
21
-5.50803
0
LINE
8
BLACK
6
CONTINUOUS
10
0.809361
20
-5.50803
11
0.805611
21
-5.49303
0
LINE
8
BLACK
6
CONTINUOUS
10
0.805611
20
-5.49303
11
0.805611
21
-5.47428
0
LINE
8
BLACK
6
CONTINUOUS
10
0.805611
20
-5.47428
11
0.809361
21
-5.45928
0
LINE
8
BLACK
6
CONTINUOUS
10
0.809361
20
-5.45928
11
0.81311
21
-5.45178
0
LINE
8
BLACK
6
CONTINUOUS
10
0.81311
20
-5.45178
11
0.81686
21
-5.44803
0
LINE
8
BLACK
6
CONTINUOUS
10
0.81686
20
-5.44803
11
0.824359
21
-5.44428
0
LINE
8
BLACK
6
CONTINUOUS
10
0.884352
20
-5.51553
11
0.888101
21
-5.51928
0
LINE
8
BLACK
6
CONTINUOUS
10
0.888101
20
-5.51928
11
0.884352
21
-5.52303
0
LINE
8
BLACK
6
CONTINUOUS
10
0.884352
20
-5.52303
11
0.880602
21
-5.51928
0
LINE
8
BLACK
6
CONTINUOUS
10
0.880602
20
-5.51928
11
0.884352
21
-5.51553
0
LINE
8
BLACK
6
CONTINUOUS
10
0.884352
20
-5.51553
11
0.884352
21
-5.52303
0
LINE
8
BLACK
6
CONTINUOUS
10
0.955593
20
-5.44428
11
0.940595
21
-5.44428
0
LINE
8
BLACK
6
CONTINUOUS
10
0.940595
20
-5.44428
11
0.933095
21
-5.44803
0
LINE
8
BLACK
6
CONTINUOUS
10
0.933095
20
-5.44803
11
0.929346
21
-5.45178
0
LINE
8
BLACK
6
CONTINUOUS
10
0.929346
20
-5.45178
11
0.921847
21
-5.46303
0
LINE
8
BLACK
6
CONTINUOUS
10
0.921847
20
-5.46303
11
0.918097
21
-5.47803
0
LINE
8
BLACK
6
CONTINUOUS
10
0.918097
20
-5.47803
11
0.918097
21
-5.50803
0
LINE
8
BLACK
6
CONTINUOUS
10
0.918097
20
-5.50803
11
0.921847
21
-5.51553
0
LINE
8
BLACK
6
CONTINUOUS
10
0.921847
20
-5.51553
11
0.925596
21
-5.51928
0
LINE
8
BLACK
6
CONTINUOUS
10
0.925596
20
-5.51928
11
0.933095
21
-5.52303
0
LINE
8
BLACK
6
CONTINUOUS
10
0.933095
20
-5.52303
11
0.948094
21
-5.52303
0
LINE
8
BLACK
6
CONTINUOUS
10
0.948094
20
-5.52303
11
0.955593
21
-5.51928
0
LINE
8
BLACK
6
CONTINUOUS
10
0.955593
20
-5.51928
11
0.959342
21
-5.51553
0
LINE
8
BLACK
6
CONTINUOUS
10
0.959342
20
-5.51553
11
0.963092
21
-5.50803
0
LINE
8
BLACK
6
CONTINUOUS
10
0.963092
20
-5.50803
11
0.963092
21
-5.48928
0
LINE
8
BLACK
6
CONTINUOUS
10
0.963092
20
-5.48928
11
0.959342
21
-5.48178
0
LINE
8
BLACK
6
CONTINUOUS
10
0.959342
20
-5.48178
11
0.955593
21
-5.47803
0
LINE
8
BLACK
6
CONTINUOUS
10
0.955593
20
-5.47803
11
0.948094
21
-5.47428
0
LINE
8
BLACK
6
CONTINUOUS
10
0.948094
20
-5.47428
11
0.933095
21
-5.47428
0
LINE
8
BLACK
6
CONTINUOUS
10
0.933095
20
-5.47428
11
0.925596
21
-5.47803
0
LINE
8
BLACK
6
CONTINUOUS
10
0.925596
20
-5.47803
11
0.921847
21
-5.48178
0
LINE
8
BLACK
6
CONTINUOUS
10
0.921847
20
-5.48178
11
0.918097
21
-5.48928
0
LINE
8
BLACK
6
CONTINUOUS
10
1.01184
20
-5.44428
11
1.01933
21
-5.44428
0
LINE
8
BLACK
6
CONTINUOUS
10
1.01933
20
-5.44428
11
1.02683
21
-5.44803
0
LINE
8
BLACK
6
CONTINUOUS
10
1.02683
20
-5.44803
11
1.03058
21
-5.45178
0
LINE
8
BLACK
6
CONTINUOUS
10
1.03058
20
-5.45178
11
1.03433
21
-5.45928
0
LINE
8
BLACK
6
CONTINUOUS
10
1.03433
20
-5.45928
11
1.03808
21
-5.47428
0
LINE
8
BLACK
6
CONTINUOUS
10
1.03808
20
-5.47428
11
1.03808
21
-5.49303
0
LINE
8
BLACK
6
CONTINUOUS
10
1.03808
20
-5.49303
11
1.03433
21
-5.50803
0
LINE
8
BLACK
6
CONTINUOUS
10
1.03433
20
-5.50803
11
1.03058
21
-5.51553
0
LINE
8
BLACK
6
CONTINUOUS
10
1.03058
20
-5.51553
11
1.02683
21
-5.51928
0
LINE
8
BLACK
6
CONTINUOUS
10
1.02683
20
-5.51928
11
1.01933
21
-5.52303
0
LINE
8
BLACK
6
CONTINUOUS
10
1.01933
20
-5.52303
11
1.01184
21
-5.52303
0
LINE
8
BLACK
6
CONTINUOUS
10
1.01184
20
-5.52303
11
1.00434
21
-5.51928
0
LINE
8
BLACK
6
CONTINUOUS
10
1.00434
20
-5.51928
11
1.00059
21
-5.51553
0
LINE
8
BLACK
6
CONTINUOUS
10
1.00059
20
-5.51553
11
0.996838
21
-5.50803
0
LINE
8
BLACK
6
CONTINUOUS
10
0.996838
20
-5.50803
11
0.993088
21
-5.49303
0
LINE
8
BLACK
6
CONTINUOUS
10
0.993088
20
-5.49303
11
0.993088
21
-5.47428
0
LINE
8
BLACK
6
CONTINUOUS
10
0.993088
20
-5.47428
11
0.996838
21
-5.45928
0
LINE
8
BLACK
6
CONTINUOUS
10
0.996838
20
-5.45928
11
1.00059
21
-5.45178
0
LINE
8
BLACK
6
CONTINUOUS
10
1.00059
20
-5.45178
11
1.00434
21
-5.44803
0
LINE
8
BLACK
6
CONTINUOUS
10
1.00434
20
-5.44803
11
1.01184
21
-5.44428
0
LINE
8
BLACK
6
CONTINUOUS
10
1.08683
20
-5.44428
11
1.09433
21
-5.44428
0
LINE
8
BLACK
6
CONTINUOUS
10
1.09433
20
-5.44428
11
1.10182
21
-5.44803
0
LINE
8
BLACK
6
CONTINUOUS
10
1.10182
20
-5.44803
11
1.10557
21
-5.45178
0
LINE
8
BLACK
6
CONTINUOUS
10
1.10557
20
-5.45178
11
1.10932
21
-5.45928
0
LINE
8
BLACK
6
CONTINUOUS
10
1.10932
20
-5.45928
11
1.11307
21
-5.47428
0
LINE
8
BLACK
6
CONTINUOUS
10
1.11307
20
-5.47428
11
1.11307
21
-5.49303
0
LINE
8
BLACK
6
CONTINUOUS
10
1.11307
20
-5.49303
11
1.10932
21
-5.50803
0
LINE
8
BLACK
6
CONTINUOUS
10
1.10932
20
-5.50803
11
1.10557
21
-5.51553
0
LINE
8
BLACK
6
CONTINUOUS
10
1.10557
20
-5.51553
11
1.10182
21
-5.51928
0
LINE
8
BLACK
6
CONTINUOUS
10
1.10182
20
-5.51928
11
1.09433
21
-5.52303
0
LINE
8
BLACK
6
CONTINUOUS
10
1.09433
20
-5.52303
11
1.08683
21
-5.52303
0
LINE
8
BLACK
6
CONTINUOUS
10
1.08683
20
-5.52303
11
1.07933
21
-5.51928
0
LINE
8
BLACK
6
CONTINUOUS
10
1.07933
20
-5.51928
11
1.07558
21
-5.51553
0
LINE
8
BLACK
6
CONTINUOUS
10
1.07558
20
-5.51553
11
1.07183
21
-5.50803
0
LINE
8
BLACK
6
CONTINUOUS
10
1.07183
20
-5.50803
11
1.06808
21
-5.49303
0
LINE
8
BLACK
6
CONTINUOUS
10
1.06808
20
-5.49303
11
1.06808
21
-5.47428
0
LINE
8
BLACK
6
CONTINUOUS
10
1.06808
20
-5.47428
11
1.07183
21
-5.45928
0
LINE
8
BLACK
6
CONTINUOUS
10
1.07183
20
-5.45928
11
1.07558
21
-5.45178
0
LINE
8
BLACK
6
CONTINUOUS
10
1.07558
20
-5.45178
11
1.07933
21
-5.44803
0
LINE
8
BLACK
6
CONTINUOUS
10
1.07933
20
-5.44803
11
1.08683
21
-5.44428
0
LINE
8
BLACK
6
CONTINUOUS
10
1.14682
20
-5.52303
11
1.14682
21
-5.47053
0
LINE
8
BLACK
6
CONTINUOUS
10
1.14682
20
-5.47803
11
1.15057
21
-5.47428
0
LINE
8
BLACK
6
CONTINUOUS
10
1.15057
20
-5.47428
11
1.15807
21
-5.47053
0
LINE
8
BLACK
6
CONTINUOUS
10
1.15807
20
-5.47053
11
1.16932
21
-5.47053
0
LINE
8
BLACK
6
CONTINUOUS
10
1.16932
20
-5.47053
11
1.17682
21
-5.47428
0
LINE
8
BLACK
6
CONTINUOUS
10
1.17682
20
-5.47428
11
1.18056
21
-5.48178
0
LINE
8
BLACK
6
CONTINUOUS
10
1.18056
20
-5.48178
11
1.18056
21
-5.52303
0
LINE
8
BLACK
6
CONTINUOUS
10
1.18056
20
-5.48178
11
1.18431
21
-5.47428
0
LINE
8
BLACK
6
CONTINUOUS
10
1.18431
20
-5.47428
11
1.19181
21
-5.47053
0
LINE
8
BLACK
6
CONTINUOUS
10
1.19181
20
-5.47053
11
1.20306
21
-5.47053
0
LINE
8
BLACK
6
CONTINUOUS
10
1.20306
20
-5.47053
11
1.21056
21
-5.47428
0
LINE
8
BLACK
6
CONTINUOUS
10
1.21056
20
-5.47428
11
1.21431
21
-5.48178
0
LINE
8
BLACK
6
CONTINUOUS
10
1.21431
20
-5.48178
11
1.21431
21
-5.52303
0
LINE
8
BLACK
6
CONTINUOUS
10
1.25181
20
-5.52303
11
1.25181
21
-5.47053
0
LINE
8
BLACK
6
CONTINUOUS
10
1.25181
20
-5.47803
11
1.25556
21
-5.47428
0
LINE
8
BLACK
6
CONTINUOUS
10
1.25556
20
-5.47428
11
1.26305
21
-5.47053
0
LINE
8
BLACK
6
CONTINUOUS
10
1.26305
20
-5.47053
11
1.2743
21
-5.47053
0
LINE
8
BLACK
6
CONTINUOUS
10
1.2743
20
-5.47053
11
1.2818
21
-5.47428
0
LINE
8
BLACK
6
CONTINUOUS
10
1.2818
20
-5.47428
11
1.28555
21
-5.48178
0
LINE
8
BLACK
6
CONTINUOUS
10
1.28555
20
-5.48178
11
1.28555
21
-5.52303
0
LINE
8
BLACK
6
CONTINUOUS
10
1.28555
20
-5.48178
11
1.2893
21
-5.47428
0
LINE
8
BLACK
6
CONTINUOUS
10
1.2893
20
-5.47428
11
1.2968
21
-5.47053
0
LINE
8
BLACK
6
CONTINUOUS
10
1.2968
20
-5.47053
11
1.30805
21
-5.47053
0
LINE
8
BLACK
6
CONTINUOUS
10
1.30805
20
-5.47053
11
1.31555
21
-5.47428
0
LINE
8
BLACK
6
CONTINUOUS
10
1.31555
20
-5.47428
11
1.3193
21
-5.48178
0
LINE
8
BLACK
6
CONTINUOUS
10
1.3193
20
-5.48178
11
1.3193
21
-5.52303
0
LINE
8
BLACK
6
CONTINUOUS
10
1.47303
20
-5.44054
11
1.40554
21
-5.54177
0
LINE
8
BLACK
6
CONTINUOUS
10
1.57427
20
-5.44428
11
1.58176
21
-5.44428
0
LINE
8
BLACK
6
CONTINUOUS
10
1.58176
20
-5.44428
11
1.58926
21
-5.44803
0
LINE
8
BLACK
6
CONTINUOUS
10
1.58926
20
-5.44803
11
1.59301
21
-5.45178
0
LINE
8
BLACK
6
CONTINUOUS
10
1.59301
20
-5.45178
11
1.59676
21
-5.45928
0
LINE
8
BLACK
6
CONTINUOUS
10
1.59676
20
-5.45928
11
1.60051
21
-5.47428
0
LINE
8
BLACK
6
CONTINUOUS
10
1.60051
20
-5.47428
11
1.60051
21
-5.49303
0
LINE
8
BLACK
6
CONTINUOUS
10
1.60051
20
-5.49303
11
1.59676
21
-5.50803
0
LINE
8
BLACK
6
CONTINUOUS
10
1.59676
20
-5.50803
11
1.59301
21
-5.51553
0
LINE
8
BLACK
6
CONTINUOUS
10
1.59301
20
-5.51553
11
1.58926
21
-5.51928
0
LINE
8
BLACK
6
CONTINUOUS
10
1.58926
20
-5.51928
11
1.58176
21
-5.52303
0
LINE
8
BLACK
6
CONTINUOUS
10
1.58176
20
-5.52303
11
1.57427
21
-5.52303
0
LINE
8
BLACK
6
CONTINUOUS
10
1.57427
20
-5.52303
11
1.56677
21
-5.51928
0
LINE
8
BLACK
6
CONTINUOUS
10
1.56677
20
-5.51928
11
1.56302
21
-5.51553
0
LINE
8
BLACK
6
CONTINUOUS
10
1.56302
20
-5.51553
11
1.55927
21
-5.50803
0
LINE
8
BLACK
6
CONTINUOUS
10
1.55927
20
-5.50803
11
1.55552
21
-5.49303
0
LINE
8
BLACK
6
CONTINUOUS
10
1.55552
20
-5.49303
11
1.55552
21
-5.47428
0
LINE
8
BLACK
6
CONTINUOUS
10
1.55552
20
-5.47428
11
1.55927
21
-5.45928
0
LINE
8
BLACK
6
CONTINUOUS
10
1.55927
20
-5.45928
11
1.56302
21
-5.45178
0
LINE
8
BLACK
6
CONTINUOUS
10
1.56302
20
-5.45178
11
1.56677
21
-5.44803
0
LINE
8
BLACK
6
CONTINUOUS
10
1.56677
20
-5.44803
11
1.57427
21
-5.44428
0
LINE
8
BLACK
6
CONTINUOUS
10
1.63426
20
-5.51553
11
1.63801
21
-5.51928
0
LINE
8
BLACK
6
CONTINUOUS
10
1.63801
20
-5.51928
11
1.63426
21
-5.52303
0
LINE
8
BLACK
6
CONTINUOUS
10
1.63426
20
-5.52303
11
1.63051
21
-5.51928
0
LINE
8
BLACK
6
CONTINUOUS
10
1.63051
20
-5.51928
11
1.63426
21
-5.51553
0
LINE
8
BLACK
6
CONTINUOUS
10
1.63426
20
-5.51553
11
1.63426
21
-5.52303
0
LINE
8
BLACK
6
CONTINUOUS
10
1.68675
20
-5.44428
11
1.69425
21
-5.44428
0
LINE
8
BLACK
6
CONTINUOUS
10
1.69425
20
-5.44428
11
1.70175
21
-5.44803
0
LINE
8
BLACK
6
CONTINUOUS
10
1.70175
20
-5.44803
11
1.7055
21
-5.45178
0
LINE
8
BLACK
6
CONTINUOUS
10
1.7055
20
-5.45178
11
1.70925
21
-5.45928
0
LINE
8
BLACK
6
CONTINUOUS
10
1.70925
20
-5.45928
11
1.713
21
-5.47428
0
LINE
8
BLACK
6
CONTINUOUS
10
1.713
20
-5.47428
11
1.713
21
-5.49303
0
LINE
8
BLACK
6
CONTINUOUS
10
1.713
20
-5.49303
11
1.70925
21
-5.50803
0
LINE
8
BLACK
6
CONTINUOUS
10
1.70925
20
-5.50803
11
1.7055
21
-5.51553
0
LINE
8
BLACK
6
CONTINUOUS
10
1.7055
20
-5.51553
11
1.70175
21
-5.51928
0
LINE
8
BLACK
6
CONTINUOUS
10
1.70175
20
-5.51928
11
1.69425
21
-5.52303
0
LINE
8
BLACK
6
CONTINUOUS
10
1.69425
20
-5.52303
11
1.68675
21
-5.52303
0
LINE
8
BLACK
6
CONTINUOUS
10
1.68675
20
-5.52303
11
1.67925
21
-5.51928
0
LINE
8
BLACK
6
CONTINUOUS
10
1.67925
20
-5.51928
11
1.6755
21
-5.51553
0
LINE
8
BLACK
6
CONTINUOUS
10
1.6755
20
-5.51553
11
1.67175
21
-5.50803
0
LINE
8
BLACK
6
CONTINUOUS
10
1.67175
20
-5.50803
11
1.668
21
-5.49303
0
LINE
8
BLACK
6
CONTINUOUS
10
1.668
20
-5.49303
11
1.668
21
-5.47428
0
LINE
8
BLACK
6
CONTINUOUS
10
1.668
20
-5.47428
11
1.67175
21
-5.45928
0
LINE
8
BLACK
6
CONTINUOUS
10
1.67175
20
-5.45928
11
1.6755
21
-5.45178
0
LINE
8
BLACK
6
CONTINUOUS
10
1.6755
20
-5.45178
11
1.67925
21
-5.44803
0
LINE
8
BLACK
6
CONTINUOUS
10
1.67925
20
-5.44803
11
1.68675
21
-5.44428
0
LINE
8
BLACK
6
CONTINUOUS
10
1.74299
20
-5.45178
11
1.74674
21
-5.44803
0
LINE
8
BLACK
6
CONTINUOUS
10
1.74674
20
-5.44803
11
1.75424
21
-5.44428
0
LINE
8
BLACK
6
CONTINUOUS
10
1.75424
20
-5.44428
11
1.77299
21
-5.44428
0
LINE
8
BLACK
6
CONTINUOUS
10
1.77299
20
-5.44428
11
1.78049
21
-5.44803
0
LINE
8
BLACK
6
CONTINUOUS
10
1.78049
20
-5.44803
11
1.78424
21
-5.45178
0
LINE
8
BLACK
6
CONTINUOUS
10
1.78424
20
-5.45178
11
1.78799
21
-5.45928
0
LINE
8
BLACK
6
CONTINUOUS
10
1.78799
20
-5.45928
11
1.78799
21
-5.46678
0
LINE
8
BLACK
6
CONTINUOUS
10
1.78799
20
-5.46678
11
1.78424
21
-5.47803
0
LINE
8
BLACK
6
CONTINUOUS
10
1.78424
20
-5.47803
11
1.73924
21
-5.52303
0
LINE
8
BLACK
6
CONTINUOUS
10
1.73924
20
-5.52303
11
1.78799
21
-5.52303
0
LINE
8
BLACK
6
CONTINUOUS
10
1.81424
20
-5.44428
11
1.86298
21
-5.44428
0
LINE
8
BLACK
6
CONTINUOUS
10
1.86298
20
-5.44428
11
1.83673
21
-5.47428
0
LINE
8
BLACK
6
CONTINUOUS
10
1.83673
20
-5.47428
11
1.84798
21
-5.47428
0
LINE
8
BLACK
6
CONTINUOUS
10
1.84798
20
-5.47428
11
1.85548
21
-5.47803
0
LINE
8
BLACK
6
CONTINUOUS
10
1.85548
20
-5.47803
11
1.85923
21
-5.48178
0
LINE
8
BLACK
6
CONTINUOUS
10
1.85923
20
-5.48178
11
1.86298
21
-5.48928
0
LINE
8
BLACK
6
CONTINUOUS
10
1.86298
20
-5.48928
11
1.86298
21
-5.50803
0
LINE
8
BLACK
6
CONTINUOUS
10
1.86298
20
-5.50803
11
1.85923
21
-5.51553
0
LINE
8
BLACK
6
CONTINUOUS
10
1.85923
20
-5.51553
11
1.85548
21
-5.51928
0
LINE
8
BLACK
6
CONTINUOUS
10
1.85548
20
-5.51928
11
1.84798
21
-5.52303
0
LINE
8
BLACK
6
CONTINUOUS
10
1.84798
20
-5.52303
11
1.82548
21
-5.52303
0
LINE
8
BLACK
6
CONTINUOUS
10
1.82548
20
-5.52303
11
1.81798
21
-5.51928
0
LINE
8
BLACK
6
CONTINUOUS
10
1.81798
20
-5.51928
11
1.81424
21
-5.51553
0
LINE
8
BLACK
6
CONTINUOUS
10
1.93047
20
-5.44428
11
1.91547
21
-5.44428
0
LINE
8
BLACK
6
CONTINUOUS
10
1.91547
20
-5.44428
11
1.90797
21
-5.44803
0
LINE
8
BLACK
6
CONTINUOUS
10
1.90797
20
-5.44803
11
1.90422
21
-5.45178
0
LINE
8
BLACK
6
CONTINUOUS
10
1.90422
20
-5.45178
11
1.89673
21
-5.46303
0
LINE
8
BLACK
6
CONTINUOUS
10
1.89673
20
-5.46303
11
1.89298
21
-5.47803
0
LINE
8
BLACK
6
CONTINUOUS
10
1.89298
20
-5.47803
11
1.89298
21
-5.50803
0
LINE
8
BLACK
6
CONTINUOUS
10
1.89298
20
-5.50803
11
1.89673
21
-5.51553
0
LINE
8
BLACK
6
CONTINUOUS
10
1.89673
20
-5.51553
11
1.90047
21
-5.51928
0
LINE
8
BLACK
6
CONTINUOUS
10
1.90047
20
-5.51928
11
1.90797
21
-5.52303
0
LINE
8
BLACK
6
CONTINUOUS
10
1.90797
20
-5.52303
11
1.92297
21
-5.52303
0
LINE
8
BLACK
6
CONTINUOUS
10
1.92297
20
-5.52303
11
1.93047
21
-5.51928
0
LINE
8
BLACK
6
CONTINUOUS
10
1.93047
20
-5.51928
11
1.93422
21
-5.51553
0
LINE
8
BLACK
6
CONTINUOUS
10
1.93422
20
-5.51553
11
1.93797
21
-5.50803
0
LINE
8
BLACK
6
CONTINUOUS
10
1.93797
20
-5.50803
11
1.93797
21
-5.48928
0
LINE
8
BLACK
6
CONTINUOUS
10
1.93797
20
-5.48928
11
1.93422
21
-5.48178
0
LINE
8
BLACK
6
CONTINUOUS
10
1.93422
20
-5.48178
11
1.93047
21
-5.47803
0
LINE
8
BLACK
6
CONTINUOUS
10
1.93047
20
-5.47803
11
1.92297
21
-5.47428
0
LINE
8
BLACK
6
CONTINUOUS
10
1.92297
20
-5.47428
11
1.90797
21
-5.47428
0
LINE
8
BLACK
6
CONTINUOUS
10
1.90797
20
-5.47428
11
1.90047
21
-5.47803
0
LINE
8
BLACK
6
CONTINUOUS
10
1.90047
20
-5.47803
11
1.89673
21
-5.48178
0
LINE
8
BLACK
6
CONTINUOUS
10
1.89673
20
-5.48178
11
1.89298
21
-5.48928
0
LINE
8
BLACK
6
CONTINUOUS
10
1.96797
20
-5.44428
11
1.96797
21
-5.45928
0
LINE
8
BLACK
6
CONTINUOUS
10
1.99796
20
-5.44428
11
1.99796
21
-5.45928
0
LINE
8
BLACK
6
CONTINUOUS
10
2.1142
20
-5.55302
11
2.11045
21
-5.54927
0
LINE
8
BLACK
6
CONTINUOUS
10
2.11045
20
-5.54927
11
2.10295
21
-5.53802
0
LINE
8
BLACK
6
CONTINUOUS
10
2.10295
20
-5.53802
11
2.0992
21
-5.53052
0
LINE
8
BLACK
6
CONTINUOUS
10
2.0992
20
-5.53052
11
2.09545
21
-5.51928
0
LINE
8
BLACK
6
CONTINUOUS
10
2.09545
20
-5.51928
11
2.0917
21
-5.50053
0
LINE
8
BLACK
6
CONTINUOUS
10
2.0917
20
-5.50053
11
2.0917
21
-5.48553
0
LINE
8
BLACK
6
CONTINUOUS
10
2.0917
20
-5.48553
11
2.09545
21
-5.46678
0
LINE
8
BLACK
6
CONTINUOUS
10
2.09545
20
-5.46678
11
2.0992
21
-5.45553
0
LINE
8
BLACK
6
CONTINUOUS
10
2.0992
20
-5.45553
11
2.10295
21
-5.44803
0
LINE
8
BLACK
6
CONTINUOUS
10
2.10295
20
-5.44803
11
2.11045
21
-5.43679
0
LINE
8
BLACK
6
CONTINUOUS
10
2.11045
20
-5.43679
11
2.1142
21
-5.43304
0
LINE
8
BLACK
6
CONTINUOUS
10
2.15919
20
-5.44428
11
2.16669
21
-5.44428
0
LINE
8
BLACK
6
CONTINUOUS
10
2.16669
20
-5.44428
11
2.17419
21
-5.44803
0
LINE
8
BLACK
6
CONTINUOUS
10
2.17419
20
-5.44803
11
2.17794
21
-5.45178
0
LINE
8
BLACK
6
CONTINUOUS
10
2.17794
20
-5.45178
11
2.18169
21
-5.45928
0
LINE
8
BLACK
6
CONTINUOUS
10
2.18169
20
-5.45928
11
2.18544
21
-5.47428
0
LINE
8
BLACK
6
CONTINUOUS
10
2.18544
20
-5.47428
11
2.18544
21
-5.49303
0
LINE
8
BLACK
6
CONTINUOUS
10
2.18544
20
-5.49303
11
2.18169
21
-5.50803
0
LINE
8
BLACK
6
CONTINUOUS
10
2.18169
20
-5.50803
11
2.17794
21
-5.51553
0
LINE
8
BLACK
6
CONTINUOUS
10
2.17794
20
-5.51553
11
2.17419
21
-5.51928
0
LINE
8
BLACK
6
CONTINUOUS
10
2.17419
20
-5.51928
11
2.16669
21
-5.52303
0
LINE
8
BLACK
6
CONTINUOUS
10
2.16669
20
-5.52303
11
2.15919
21
-5.52303
0
LINE
8
BLACK
6
CONTINUOUS
10
2.15919
20
-5.52303
11
2.15169
21
-5.51928
0
LINE
8
BLACK
6
CONTINUOUS
10
2.15169
20
-5.51928
11
2.14794
21
-5.51553
0
LINE
8
BLACK
6
CONTINUOUS
10
2.14794
20
-5.51553
11
2.14419
21
-5.50803
0
LINE
8
BLACK
6
CONTINUOUS
10
2.14419
20
-5.50803
11
2.14044
21
-5.49303
0
LINE
8
BLACK
6
CONTINUOUS
10
2.14044
20
-5.49303
11
2.14044
21
-5.47428
0
LINE
8
BLACK
6
CONTINUOUS
10
2.14044
20
-5.47428
11
2.14419
21
-5.45928
0
LINE
8
BLACK
6
CONTINUOUS
10
2.14419
20
-5.45928
11
2.14794
21
-5.45178
0
LINE
8
BLACK
6
CONTINUOUS
10
2.14794
20
-5.45178
11
2.15169
21
-5.44803
0
LINE
8
BLACK
6
CONTINUOUS
10
2.15169
20
-5.44803
11
2.15919
21
-5.44428
0
LINE
8
BLACK
6
CONTINUOUS
10
2.27918
20
-5.52303
11
2.27918
21
-5.44428
0
LINE
8
BLACK
6
CONTINUOUS
10
2.31292
20
-5.52303
11
2.31292
21
-5.48178
0
LINE
8
BLACK
6
CONTINUOUS
10
2.31292
20
-5.48178
11
2.30917
21
-5.47428
0
LINE
8
BLACK
6
CONTINUOUS
10
2.30917
20
-5.47428
11
2.30167
21
-5.47053
0
LINE
8
BLACK
6
CONTINUOUS
10
2.30167
20
-5.47053
11
2.29043
21
-5.47053
0
LINE
8
BLACK
6
CONTINUOUS
10
2.29043
20
-5.47053
11
2.28293
21
-5.47428
0
LINE
8
BLACK
6
CONTINUOUS
10
2.28293
20
-5.47428
11
2.27918
21
-5.47803
0
LINE
8
BLACK
6
CONTINUOUS
10
2.36167
20
-5.52303
11
2.35417
21
-5.51928
0
LINE
8
BLACK
6
CONTINUOUS
10
2.35417
20
-5.51928
11
2.35042
21
-5.51553
0
LINE
8
BLACK
6
CONTINUOUS
10
2.35042
20
-5.51553
11
2.34667
21
-5.50803
0
LINE
8
BLACK
6
CONTINUOUS
10
2.34667
20
-5.50803
11
2.34667
21
-5.48553
0
LINE
8
BLACK
6
CONTINUOUS
10
2.34667
20
-5.48553
11
2.35042
21
-5.47803
0
LINE
8
BLACK
6
CONTINUOUS
10
2.35042
20
-5.47803
11
2.35417
21
-5.47428
0
LINE
8
BLACK
6
CONTINUOUS
10
2.35417
20
-5.47428
11
2.36167
21
-5.47053
0
LINE
8
BLACK
6
CONTINUOUS
10
2.36167
20
-5.47053
11
2.37292
21
-5.47053
0
LINE
8
BLACK
6
CONTINUOUS
10
2.37292
20
-5.47053
11
2.38041
21
-5.47428
0
LINE
8
BLACK
6
CONTINUOUS
10
2.38041
20
-5.47428
11
2.38416
21
-5.47803
0
LINE
8
BLACK
6
CONTINUOUS
10
2.38416
20
-5.47803
11
2.38791
21
-5.48553
0
LINE
8
BLACK
6
CONTINUOUS
10
2.38791
20
-5.48553
11
2.38791
21
-5.50803
0
LINE
8
BLACK
6
CONTINUOUS
10
2.38791
20
-5.50803
11
2.38416
21
-5.51553
0
LINE
8
BLACK
6
CONTINUOUS
10
2.38416
20
-5.51553
11
2.38041
21
-5.51928
0
LINE
8
BLACK
6
CONTINUOUS
10
2.38041
20
-5.51928
11
2.37292
21
-5.52303
0
LINE
8
BLACK
6
CONTINUOUS
10
2.37292
20
-5.52303
11
2.36167
21
-5.52303
0
LINE
8
BLACK
6
CONTINUOUS
10
2.43291
20
-5.52303
11
2.42541
21
-5.51928
0
LINE
8
BLACK
6
CONTINUOUS
10
2.42541
20
-5.51928
11
2.42166
21
-5.51178
0
LINE
8
BLACK
6
CONTINUOUS
10
2.42166
20
-5.51178
11
2.42166
21
-5.44428
0
LINE
8
BLACK
6
CONTINUOUS
10
2.4929
20
-5.51928
11
2.4854
21
-5.52303
0
LINE
8
BLACK
6
CONTINUOUS
10
2.4854
20
-5.52303
11
2.4704
21
-5.52303
0
LINE
8
BLACK
6
CONTINUOUS
10
2.4704
20
-5.52303
11
2.4629
21
-5.51928
0
LINE
8
BLACK
6
CONTINUOUS
10
2.4629
20
-5.51928
11
2.45915
21
-5.51178
0
LINE
8
BLACK
6
CONTINUOUS
10
2.45915
20
-5.51178
11
2.45915
21
-5.48178
0
LINE
8
BLACK
6
CONTINUOUS
10
2.45915
20
-5.48178
11
2.4629
21
-5.47428
0
LINE
8
BLACK
6
CONTINUOUS
10
2.4629
20
-5.47428
11
2.4704
21
-5.47053
0
LINE
8
BLACK
6
CONTINUOUS
10
2.4704
20
-5.47053
11
2.4854
21
-5.47053
0
LINE
8
BLACK
6
CONTINUOUS
10
2.4854
20
-5.47053
11
2.4929
21
-5.47428
0
LINE
8
BLACK
6
CONTINUOUS
10
2.4929
20
-5.47428
11
2.49665
21
-5.48178
0
LINE
8
BLACK
6
CONTINUOUS
10
2.49665
20
-5.48178
11
2.49665
21
-5.48928
0
LINE
8
BLACK
6
CONTINUOUS
10
2.49665
20
-5.48928
11
2.45915
21
-5.49678
0
LINE
8
BLACK
6
CONTINUOUS
10
2.52665
20
-5.51928
11
2.53415
21
-5.52303
0
LINE
8
BLACK
6
CONTINUOUS
10
2.53415
20
-5.52303
11
2.54914
21
-5.52303
0
LINE
8
BLACK
6
CONTINUOUS
10
2.54914
20
-5.52303
11
2.55664
21
-5.51928
0
LINE
8
BLACK
6
CONTINUOUS
10
2.55664
20
-5.51928
11
2.56039
21
-5.51178
0
LINE
8
BLACK
6
CONTINUOUS
10
2.56039
20
-5.51178
11
2.56039
21
-5.50803
0
LINE
8
BLACK
6
CONTINUOUS
10
2.56039
20
-5.50803
11
2.55664
21
-5.50053
0
LINE
8
BLACK
6
CONTINUOUS
10
2.55664
20
-5.50053
11
2.54914
21
-5.49678
0
LINE
8
BLACK
6
CONTINUOUS
10
2.54914
20
-5.49678
11
2.5379
21
-5.49678
0
LINE
8
BLACK
6
CONTINUOUS
10
2.5379
20
-5.49678
11
2.5304
21
-5.49303
0
LINE
8
BLACK
6
CONTINUOUS
10
2.5304
20
-5.49303
11
2.52665
21
-5.48553
0
LINE
8
BLACK
6
CONTINUOUS
10
2.52665
20
-5.48553
11
2.52665
21
-5.48178
0
LINE
8
BLACK
6
CONTINUOUS
10
2.52665
20
-5.48178
11
2.5304
21
-5.47428
0
LINE
8
BLACK
6
CONTINUOUS
10
2.5304
20
-5.47428
11
2.5379
21
-5.47053
0
LINE
8
BLACK
6
CONTINUOUS
10
2.5379
20
-5.47053
11
2.54914
21
-5.47053
0
LINE
8
BLACK
6
CONTINUOUS
10
2.54914
20
-5.47053
11
2.55664
21
-5.47428
0
LINE
8
BLACK
6
CONTINUOUS
10
2.65413
20
-5.49303
11
2.71412
21
-5.49303
0
LINE
8
BLACK
6
CONTINUOUS
10
2.68413
20
-5.52303
11
2.68413
21
-5.46303
0
LINE
8
BLACK
6
CONTINUOUS
10
2.84536
20
-5.47053
11
2.84536
21
-5.52303
0
LINE
8
BLACK
6
CONTINUOUS
10
2.82661
20
-5.44054
11
2.80786
21
-5.49678
0
LINE
8
BLACK
6
CONTINUOUS
10
2.80786
20
-5.49678
11
2.85661
21
-5.49678
0
LINE
8
BLACK
6
CONTINUOUS
10
2.94284
20
-5.51928
11
2.95034
21
-5.52303
0
LINE
8
BLACK
6
CONTINUOUS
10
2.95034
20
-5.52303
11
2.96534
21
-5.52303
0
LINE
8
BLACK
6
CONTINUOUS
10
2.96534
20
-5.52303
11
2.97284
21
-5.51928
0
LINE
8
BLACK
6
CONTINUOUS
10
2.97284
20
-5.51928
11
2.97659
21
-5.51178
0
LINE
8
BLACK
6
CONTINUOUS
10
2.97659
20
-5.51178
11
2.97659
21
-5.50803
0
LINE
8
BLACK
6
CONTINUOUS
10
2.97659
20
-5.50803
11
2.97284
21
-5.50053
0
LINE
8
BLACK
6
CONTINUOUS
10
2.97284
20
-5.50053
11
2.96534
21
-5.49678
0
LINE
8
BLACK
6
CONTINUOUS
10
2.96534
20
-5.49678
11
2.95409
21
-5.49678
0
LINE
8
BLACK
6
CONTINUOUS
10
2.95409
20
-5.49678
11
2.94659
21
-5.49303
0
LINE
8
BLACK
6
CONTINUOUS
10
2.94659
20
-5.49303
11
2.94284
21
-5.48553
0
LINE
8
BLACK
6
CONTINUOUS
10
2.94284
20
-5.48553
11
2.94284
21
-5.48178
0
LINE
8
BLACK
6
CONTINUOUS
10
2.94284
20
-5.48178
11
2.94659
21
-5.47428
0
LINE
8
BLACK
6
CONTINUOUS
10
2.94659
20
-5.47428
11
2.95409
21
-5.47053
0
LINE
8
BLACK
6
CONTINUOUS
10
2.95409
20
-5.47053
11
2.96534
21
-5.47053
0
LINE
8
BLACK
6
CONTINUOUS
10
2.96534
20
-5.47053
11
2.97284
21
-5.47428
0
LINE
8
BLACK
6
CONTINUOUS
10
3.02158
20
-5.52303
11
3.01409
21
-5.51928
0
LINE
8
BLACK
6
CONTINUOUS
10
3.01409
20
-5.51928
11
3.01034
21
-5.51178
0
LINE
8
BLACK
6
CONTINUOUS
10
3.01034
20
-5.51178
11
3.01034
21
-5.44428
0
LINE
8
BLACK
6
CONTINUOUS
10
3.06283
20
-5.52303
11
3.05533
21
-5.51928
0
LINE
8
BLACK
6
CONTINUOUS
10
3.05533
20
-5.51928
11
3.05158
21
-5.51553
0
LINE
8
BLACK
6
CONTINUOUS
10
3.05158
20
-5.51553
11
3.04783
21
-5.50803
0
LINE
8
BLACK
6
CONTINUOUS
10
3.04783
20
-5.50803
11
3.04783
21
-5.48553
0
LINE
8
BLACK
6
CONTINUOUS
10
3.04783
20
-5.48553
11
3.05158
21
-5.47803
0
LINE
8
BLACK
6
CONTINUOUS
10
3.05158
20
-5.47803
11
3.05533
21
-5.47428
0
LINE
8
BLACK
6
CONTINUOUS
10
3.05533
20
-5.47428
11
3.06283
21
-5.47053
0
LINE
8
BLACK
6
CONTINUOUS
10
3.06283
20
-5.47053
11
3.07408
21
-5.47053
0
LINE
8
BLACK
6
CONTINUOUS
10
3.07408
20
-5.47053
11
3.08158
21
-5.47428
0
LINE
8
BLACK
6
CONTINUOUS
10
3.08158
20
-5.47428
11
3.08533
21
-5.47803
0
LINE
8
BLACK
6
CONTINUOUS
10
3.08533
20
-5.47803
11
3.08908
21
-5.48553
0
LINE
8
BLACK
6
CONTINUOUS
10
3.08908
20
-5.48553
11
3.08908
21
-5.50803
0
LINE
8
BLACK
6
CONTINUOUS
10
3.08908
20
-5.50803
11
3.08533
21
-5.51553
0
LINE
8
BLACK
6
CONTINUOUS
10
3.08533
20
-5.51553
11
3.08158
21
-5.51928
0
LINE
8
BLACK
6
CONTINUOUS
10
3.08158
20
-5.51928
11
3.07408
21
-5.52303
0
LINE
8
BLACK
6
CONTINUOUS
10
3.07408
20
-5.52303
11
3.06283
21
-5.52303
0
LINE
8
BLACK
6
CONTINUOUS
10
3.11157
20
-5.47053
11
3.14157
21
-5.47053
0
LINE
8
BLACK
6
CONTINUOUS
10
3.12282
20
-5.44428
11
3.12282
21
-5.51178
0
LINE
8
BLACK
6
CONTINUOUS
10
3.12282
20
-5.51178
11
3.12657
21
-5.51928
0
LINE
8
BLACK
6
CONTINUOUS
10
3.12657
20
-5.51928
11
3.13407
21
-5.52303
0
LINE
8
BLACK
6
CONTINUOUS
10
3.13407
20
-5.52303
11
3.14157
21
-5.52303
0
LINE
8
BLACK
6
CONTINUOUS
10
3.16407
20
-5.51928
11
3.17157
21
-5.52303
0
LINE
8
BLACK
6
CONTINUOUS
10
3.17157
20
-5.52303
11
3.18656
21
-5.52303
0
LINE
8
BLACK
6
CONTINUOUS
10
3.18656
20
-5.52303
11
3.19406
21
-5.51928
0
LINE
8
BLACK
6
CONTINUOUS
10
3.19406
20
-5.51928
11
3.19781
21
-5.51178
0
LINE
8
BLACK
6
CONTINUOUS
10
3.19781
20
-5.51178
11
3.19781
21
-5.50803
0
LINE
8
BLACK
6
CONTINUOUS
10
3.19781
20
-5.50803
11
3.19406
21
-5.50053
0
LINE
8
BLACK
6
CONTINUOUS
10
3.19406
20
-5.50053
11
3.18656
21
-5.49678
0
LINE
8
BLACK
6
CONTINUOUS
10
3.18656
20
-5.49678
11
3.17532
21
-5.49678
0
LINE
8
BLACK
6
CONTINUOUS
10
3.17532
20
-5.49678
11
3.16782
21
-5.49303
0
LINE
8
BLACK
6
CONTINUOUS
10
3.16782
20
-5.49303
11
3.16407
21
-5.48553
0
LINE
8
BLACK
6
CONTINUOUS
10
3.16407
20
-5.48553
11
3.16407
21
-5.48178
0
LINE
8
BLACK
6
CONTINUOUS
10
3.16407
20
-5.48178
11
3.16782
21
-5.47428
0
LINE
8
BLACK
6
CONTINUOUS
10
3.16782
20
-5.47428
11
3.17532
21
-5.47053
0
LINE
8
BLACK
6
CONTINUOUS
10
3.17532
20
-5.47053
11
3.18656
21
-5.47053
0
LINE
8
BLACK
6
CONTINUOUS
10
3.18656
20
-5.47053
11
3.19406
21
-5.47428
0
LINE
8
BLACK
6
CONTINUOUS
10
3.22406
20
-5.55302
11
3.22781
21
-5.54927
0
LINE
8
BLACK
6
CONTINUOUS
10
3.22781
20
-5.54927
11
3.23531
21
-5.53802
0
LINE
8
BLACK
6
CONTINUOUS
10
3.23531
20
-5.53802
11
3.23906
21
-5.53052
0
LINE
8
BLACK
6
CONTINUOUS
10
3.23906
20
-5.53052
11
3.24281
21
-5.51928
0
LINE
8
BLACK
6
CONTINUOUS
10
3.24281
20
-5.51928
11
3.24656
21
-5.50053
0
LINE
8
BLACK
6
CONTINUOUS
10
3.24656
20
-5.50053
11
3.24656
21
-5.48553
0
LINE
8
BLACK
6
CONTINUOUS
10
3.24656
20
-5.48553
11
3.24281
21
-5.46678
0
LINE
8
BLACK
6
CONTINUOUS
10
3.24281
20
-5.46678
11
3.23906
21
-5.45553
0
LINE
8
BLACK
6
CONTINUOUS
10
3.23906
20
-5.45553
11
3.23531
21
-5.44803
0
LINE
8
BLACK
6
CONTINUOUS
10
3.23531
20
-5.44803
11
3.22781
21
-5.43679
0
LINE
8
BLACK
6
CONTINUOUS
10
3.22781
20
-5.43679
11
3.22406
21
-5.43304
0
LINE
8
BLACK
6
CONTINUOUS
10
0.687008
20
-5.61063
11
0.706693
21
-5.59094
0
LINE
8
BLACK
6
CONTINUOUS
10
0.706693
20
-5.59094
11
0.687008
21
-5.57126
0
LINE
8
BLACK
6
CONTINUOUS
10
0.687008
20
-5.57126
11
0.667323
21
-5.59094
0
LINE
8
BLACK
6
CONTINUOUS
10
0.667323
20
-5.59094
11
0.687008
21
-5.61063
0
LINE
8
BLACK
6
CONTINUOUS
10
0.850606
20
-5.62696
11
0.805611
21
-5.62696
0
LINE
8
BLACK
6
CONTINUOUS
10
0.828109
20
-5.62696
11
0.828109
21
-5.54822
0
LINE
8
BLACK
6
CONTINUOUS
10
0.828109
20
-5.54822
11
0.82061
21
-5.55947
0
LINE
8
BLACK
6
CONTINUOUS
10
0.82061
20
-5.55947
11
0.81311
21
-5.56697
0
LINE
8
BLACK
6
CONTINUOUS
10
0.81311
20
-5.56697
11
0.805611
21
-5.57072
0
LINE
8
BLACK
6
CONTINUOUS
10
0.884352
20
-5.61946
11
0.888101
21
-5.62321
0
LINE
8
BLACK
6
CONTINUOUS
10
0.888101
20
-5.62321
11
0.884352
21
-5.62696
0
LINE
8
BLACK
6
CONTINUOUS
10
0.884352
20
-5.62696
11
0.880602
21
-5.62321
0
LINE
8
BLACK
6
CONTINUOUS
10
0.880602
20
-5.62321
11
0.884352
21
-5.61946
0
LINE
8
BLACK
6
CONTINUOUS
10
0.884352
20
-5.61946
11
0.884352
21
-5.62696
0
LINE
8
BLACK
6
CONTINUOUS
10
0.936845
20
-5.54822
11
0.944344
21
-5.54822
0
LINE
8
BLACK
6
CONTINUOUS
10
0.944344
20
-5.54822
11
0.951843
21
-5.55197
0
LINE
8
BLACK
6
CONTINUOUS
10
0.951843
20
-5.55197
11
0.955593
21
-5.55572
0
LINE
8
BLACK
6
CONTINUOUS
10
0.955593
20
-5.55572
11
0.959342
21
-5.56322
0
LINE
8
BLACK
6
CONTINUOUS
10
0.959342
20
-5.56322
11
0.963092
21
-5.57822
0
LINE
8
BLACK
6
CONTINUOUS
10
0.963092
20
-5.57822
11
0.963092
21
-5.59697
0
LINE
8
BLACK
6
CONTINUOUS
10
0.963092
20
-5.59697
11
0.959342
21
-5.61196
0
LINE
8
BLACK
6
CONTINUOUS
10
0.959342
20
-5.61196
11
0.955593
21
-5.61946
0
LINE
8
BLACK
6
CONTINUOUS
10
0.955593
20
-5.61946
11
0.951843
21
-5.62321
0
LINE
8
BLACK
6
CONTINUOUS
10
0.951843
20
-5.62321
11
0.944344
21
-5.62696
0
LINE
8
BLACK
6
CONTINUOUS
10
0.944344
20
-5.62696
11
0.936845
21
-5.62696
0
LINE
8
BLACK
6
CONTINUOUS
10
0.936845
20
-5.62696
11
0.929346
21
-5.62321
0
LINE
8
BLACK
6
CONTINUOUS
10
0.929346
20
-5.62321
11
0.925596
21
-5.61946
0
LINE
8
BLACK
6
CONTINUOUS
10
0.925596
20
-5.61946
11
0.921847
21
-5.61196
0
LINE
8
BLACK
6
CONTINUOUS
10
0.921847
20
-5.61196
11
0.918097
21
-5.59697
0
LINE
8
BLACK
6
CONTINUOUS
10
0.918097
20
-5.59697
11
0.918097
21
-5.57822
0
LINE
8
BLACK
6
CONTINUOUS
10
0.918097
20
-5.57822
11
0.921847
21
-5.56322
0
LINE
8
BLACK
6
CONTINUOUS
10
0.921847
20
-5.56322
11
0.925596
21
-5.55572
0
LINE
8
BLACK
6
CONTINUOUS
10
0.925596
20
-5.55572
11
0.929346
21
-5.55197
0
LINE
8
BLACK
6
CONTINUOUS
10
0.929346
20
-5.55197
11
0.936845
21
-5.54822
0
LINE
8
BLACK
6
CONTINUOUS
10
1.01184
20
-5.54822
11
1.01933
21
-5.54822
0
LINE
8
BLACK
6
CONTINUOUS
10
1.01933
20
-5.54822
11
1.02683
21
-5.55197
0
LINE
8
BLACK
6
CONTINUOUS
10
1.02683
20
-5.55197
11
1.03058
21
-5.55572
0
LINE
8
BLACK
6
CONTINUOUS
10
1.03058
20
-5.55572
11
1.03433
21
-5.56322
0
LINE
8
BLACK
6
CONTINUOUS
10
1.03433
20
-5.56322
11
1.03808
21
-5.57822
0
LINE
8
BLACK
6
CONTINUOUS
10
1.03808
20
-5.57822
11
1.03808
21
-5.59697
0
LINE
8
BLACK
6
CONTINUOUS
10
1.03808
20
-5.59697
11
1.03433
21
-5.61196
0
LINE
8
BLACK
6
CONTINUOUS
10
1.03433
20
-5.61196
11
1.03058
21
-5.61946
0
LINE
8
BLACK
6
CONTINUOUS
10
1.03058
20
-5.61946
11
1.02683
21
-5.62321
0
LINE
8
BLACK
6
CONTINUOUS
10
1.02683
20
-5.62321
11
1.01933
21
-5.62696
0
LINE
8
BLACK
6
CONTINUOUS
10
1.01933
20
-5.62696
11
1.01184
21
-5.62696
0
LINE
8
BLACK
6
CONTINUOUS
10
1.01184
20
-5.62696
11
1.00434
21
-5.62321
0
LINE
8
BLACK
6
CONTINUOUS
10
1.00434
20
-5.62321
11
1.00059
21
-5.61946
0
LINE
8
BLACK
6
CONTINUOUS
10
1.00059
20
-5.61946
11
0.996838
21
-5.61196
0
LINE
8
BLACK
6
CONTINUOUS
10
0.996838
20
-5.61196
11
0.993088
21
-5.59697
0
LINE
8
BLACK
6
CONTINUOUS
10
0.993088
20
-5.59697
11
0.993088
21
-5.57822
0
LINE
8
BLACK
6
CONTINUOUS
10
0.993088
20
-5.57822
11
0.996838
21
-5.56322
0
LINE
8
BLACK
6
CONTINUOUS
10
0.996838
20
-5.56322
11
1.00059
21
-5.55572
0
LINE
8
BLACK
6
CONTINUOUS
10
1.00059
20
-5.55572
11
1.00434
21
-5.55197
0
LINE
8
BLACK
6
CONTINUOUS
10
1.00434
20
-5.55197
11
1.01184
21
-5.54822
0
LINE
8
BLACK
6
CONTINUOUS
10
1.08683
20
-5.54822
11
1.09433
21
-5.54822
0
LINE
8
BLACK
6
CONTINUOUS
10
1.09433
20
-5.54822
11
1.10182
21
-5.55197
0
LINE
8
BLACK
6
CONTINUOUS
10
1.10182
20
-5.55197
11
1.10557
21
-5.55572
0
LINE
8
BLACK
6
CONTINUOUS
10
1.10557
20
-5.55572
11
1.10932
21
-5.56322
0
LINE
8
BLACK
6
CONTINUOUS
10
1.10932
20
-5.56322
11
1.11307
21
-5.57822
0
LINE
8
BLACK
6
CONTINUOUS
10
1.11307
20
-5.57822
11
1.11307
21
-5.59697
0
LINE
8
BLACK
6
CONTINUOUS
10
1.11307
20
-5.59697
11
1.10932
21
-5.61196
0
LINE
8
BLACK
6
CONTINUOUS
10
1.10932
20
-5.61196
11
1.10557
21
-5.61946
0
LINE
8
BLACK
6
CONTINUOUS
10
1.10557
20
-5.61946
11
1.10182
21
-5.62321
0
LINE
8
BLACK
6
CONTINUOUS
10
1.10182
20
-5.62321
11
1.09433
21
-5.62696
0
LINE
8
BLACK
6
CONTINUOUS
10
1.09433
20
-5.62696
11
1.08683
21
-5.62696
0
LINE
8
BLACK
6
CONTINUOUS
10
1.08683
20
-5.62696
11
1.07933
21
-5.62321
0
LINE
8
BLACK
6
CONTINUOUS
10
1.07933
20
-5.62321
11
1.07558
21
-5.61946
0
LINE
8
BLACK
6
CONTINUOUS
10
1.07558
20
-5.61946
11
1.07183
21
-5.61196
0
LINE
8
BLACK
6
CONTINUOUS
10
1.07183
20
-5.61196
11
1.06808
21
-5.59697
0
LINE
8
BLACK
6
CONTINUOUS
10
1.06808
20
-5.59697
11
1.06808
21
-5.57822
0
LINE
8
BLACK
6
CONTINUOUS
10
1.06808
20
-5.57822
11
1.07183
21
-5.56322
0
LINE
8
BLACK
6
CONTINUOUS
10
1.07183
20
-5.56322
11
1.07558
21
-5.55572
0
LINE
8
BLACK
6
CONTINUOUS
10
1.07558
20
-5.55572
11
1.07933
21
-5.55197
0
LINE
8
BLACK
6
CONTINUOUS
10
1.07933
20
-5.55197
11
1.08683
21
-5.54822
0
LINE
8
BLACK
6
CONTINUOUS
10
1.14682
20
-5.62696
11
1.14682
21
-5.57447
0
LINE
8
BLACK
6
CONTINUOUS
10
1.14682
20
-5.58197
11
1.15057
21
-5.57822
0
LINE
8
BLACK
6
CONTINUOUS
10
1.15057
20
-5.57822
11
1.15807
21
-5.57447
0
LINE
8
BLACK
6
CONTINUOUS
10
1.15807
20
-5.57447
11
1.16932
21
-5.57447
0
LINE
8
BLACK
6
CONTINUOUS
10
1.16932
20
-5.57447
11
1.17682
21
-5.57822
0
LINE
8
BLACK
6
CONTINUOUS
10
1.17682
20
-5.57822
11
1.18056
21
-5.58572
0
LINE
8
BLACK
6
CONTINUOUS
10
1.18056
20
-5.58572
11
1.18056
21
-5.62696
0
LINE
8
BLACK
6
CONTINUOUS
10
1.18056
20
-5.58572
11
1.18431
21
-5.57822
0
LINE
8
BLACK
6
CONTINUOUS
10
1.18431
20
-5.57822
11
1.19181
21
-5.57447
0
LINE
8
BLACK
6
CONTINUOUS
10
1.19181
20
-5.57447
11
1.20306
21
-5.57447
0
LINE
8
BLACK
6
CONTINUOUS
10
1.20306
20
-5.57447
11
1.21056
21
-5.57822
0
LINE
8
BLACK
6
CONTINUOUS
10
1.21056
20
-5.57822
11
1.21431
21
-5.58572
0
LINE
8
BLACK
6
CONTINUOUS
10
1.21431
20
-5.58572
11
1.21431
21
-5.62696
0
LINE
8
BLACK
6
CONTINUOUS
10
1.25181
20
-5.62696
11
1.25181
21
-5.57447
0
LINE
8
BLACK
6
CONTINUOUS
10
1.25181
20
-5.58197
11
1.25556
21
-5.57822
0
LINE
8
BLACK
6
CONTINUOUS
10
1.25556
20
-5.57822
11
1.26305
21
-5.57447
0
LINE
8
BLACK
6
CONTINUOUS
10
1.26305
20
-5.57447
11
1.2743
21
-5.57447
0
LINE
8
BLACK
6
CONTINUOUS
10
1.2743
20
-5.57447
11
1.2818
21
-5.57822
0
LINE
8
BLACK
6
CONTINUOUS
10
1.2818
20
-5.57822
11
1.28555
21
-5.58572
0
LINE
8
BLACK
6
CONTINUOUS
10
1.28555
20
-5.58572
11
1.28555
21
-5.62696
0
LINE
8
BLACK
6
CONTINUOUS
10
1.28555
20
-5.58572
11
1.2893
21
-5.57822
0
LINE
8
BLACK
6
CONTINUOUS
10
1.2893
20
-5.57822
11
1.2968
21
-5.57447
0
LINE
8
BLACK
6
CONTINUOUS
10
1.2968
20
-5.57447
11
1.30805
21
-5.57447
0
LINE
8
BLACK
6
CONTINUOUS
10
1.30805
20
-5.57447
11
1.31555
21
-5.57822
0
LINE
8
BLACK
6
CONTINUOUS
10
1.31555
20
-5.57822
11
1.3193
21
-5.58572
0
LINE
8
BLACK
6
CONTINUOUS
10
1.3193
20
-5.58572
11
1.3193
21
-5.62696
0
LINE
8
BLACK
6
CONTINUOUS
10
1.47303
20
-5.54447
11
1.40554
21
-5.64571
0
LINE
8
BLACK
6
CONTINUOUS
10
1.57427
20
-5.54822
11
1.58176
21
-5.54822
0
LINE
8
BLACK
6
CONTINUOUS
10
1.58176
20
-5.54822
11
1.58926
21
-5.55197
0
LINE
8
BLACK
6
CONTINUOUS
10
1.58926
20
-5.55197
11
1.59301
21
-5.55572
0
LINE
8
BLACK
6
CONTINUOUS
10
1.59301
20
-5.55572
11
1.59676
21
-5.56322
0
LINE
8
BLACK
6
CONTINUOUS
10
1.59676
20
-5.56322
11
1.60051
21
-5.57822
0
LINE
8
BLACK
6
CONTINUOUS
10
1.60051
20
-5.57822
11
1.60051
21
-5.59697
0
LINE
8
BLACK
6
CONTINUOUS
10
1.60051
20
-5.59697
11
1.59676
21
-5.61196
0
LINE
8
BLACK
6
CONTINUOUS
10
1.59676
20
-5.61196
11
1.59301
21
-5.61946
0
LINE
8
BLACK
6
CONTINUOUS
10
1.59301
20
-5.61946
11
1.58926
21
-5.62321
0
LINE
8
BLACK
6
CONTINUOUS
10
1.58926
20
-5.62321
11
1.58176
21
-5.62696
0
LINE
8
BLACK
6
CONTINUOUS
10
1.58176
20
-5.62696
11
1.57427
21
-5.62696
0
LINE
8
BLACK
6
CONTINUOUS
10
1.57427
20
-5.62696
11
1.56677
21
-5.62321
0
LINE
8
BLACK
6
CONTINUOUS
10
1.56677
20
-5.62321
11
1.56302
21
-5.61946
0
LINE
8
BLACK
6
CONTINUOUS
10
1.56302
20
-5.61946
11
1.55927
21
-5.61196
0
LINE
8
BLACK
6
CONTINUOUS
10
1.55927
20
-5.61196
11
1.55552
21
-5.59697
0
LINE
8
BLACK
6
CONTINUOUS
10
1.55552
20
-5.59697
11
1.55552
21
-5.57822
0
LINE
8
BLACK
6
CONTINUOUS
10
1.55552
20
-5.57822
11
1.55927
21
-5.56322
0
LINE
8
BLACK
6
CONTINUOUS
10
1.55927
20
-5.56322
11
1.56302
21
-5.55572
0
LINE
8
BLACK
6
CONTINUOUS
10
1.56302
20
-5.55572
11
1.56677
21
-5.55197
0
LINE
8
BLACK
6
CONTINUOUS
10
1.56677
20
-5.55197
11
1.57427
21
-5.54822
0
LINE
8
BLACK
6
CONTINUOUS
10
1.63426
20
-5.61946
11
1.63801
21
-5.62321
0
LINE
8
BLACK
6
CONTINUOUS
10
1.63801
20
-5.62321
11
1.63426
21
-5.62696
0
LINE
8
BLACK
6
CONTINUOUS
10
1.63426
20
-5.62696
11
1.63051
21
-5.62321
0
LINE
8
BLACK
6
CONTINUOUS
10
1.63051
20
-5.62321
11
1.63426
21
-5.61946
0
LINE
8
BLACK
6
CONTINUOUS
10
1.63426
20
-5.61946
11
1.63426
21
-5.62696
0
LINE
8
BLACK
6
CONTINUOUS
10
1.68675
20
-5.54822
11
1.69425
21
-5.54822
0
LINE
8
BLACK
6
CONTINUOUS
10
1.69425
20
-5.54822
11
1.70175
21
-5.55197
0
LINE
8
BLACK
6
CONTINUOUS
10
1.70175
20
-5.55197
11
1.7055
21
-5.55572
0
LINE
8
BLACK
6
CONTINUOUS
10
1.7055
20
-5.55572
11
1.70925
21
-5.56322
0
LINE
8
BLACK
6
CONTINUOUS
10
1.70925
20
-5.56322
11
1.713
21
-5.57822
0
LINE
8
BLACK
6
CONTINUOUS
10
1.713
20
-5.57822
11
1.713
21
-5.59697
0
LINE
8
BLACK
6
CONTINUOUS
10
1.713
20
-5.59697
11
1.70925
21
-5.61196
0
LINE
8
BLACK
6
CONTINUOUS
10
1.70925
20
-5.61196
11
1.7055
21
-5.61946
0
LINE
8
BLACK
6
CONTINUOUS
10
1.7055
20
-5.61946
11
1.70175
21
-5.62321
0
LINE
8
BLACK
6
CONTINUOUS
10
1.70175
20
-5.62321
11
1.69425
21
-5.62696
0
LINE
8
BLACK
6
CONTINUOUS
10
1.69425
20
-5.62696
11
1.68675
21
-5.62696
0
LINE
8
BLACK
6
CONTINUOUS
10
1.68675
20
-5.62696
11
1.67925
21
-5.62321
0
LINE
8
BLACK
6
CONTINUOUS
10
1.67925
20
-5.62321
11
1.6755
21
-5.61946
0
LINE
8
BLACK
6
CONTINUOUS
10
1.6755
20
-5.61946
11
1.67175
21
-5.61196
0
LINE
8
BLACK
6
CONTINUOUS
10
1.67175
20
-5.61196
11
1.668
21
-5.59697
0
LINE
8
BLACK
6
CONTINUOUS
10
1.668
20
-5.59697
11
1.668
21
-5.57822
0
LINE
8
BLACK
6
CONTINUOUS
10
1.668
20
-5.57822
11
1.67175
21
-5.56322
0
LINE
8
BLACK
6
CONTINUOUS
10
1.67175
20
-5.56322
11
1.6755
21
-5.55572
0
LINE
8
BLACK
6
CONTINUOUS
10
1.6755
20
-5.55572
11
1.67925
21
-5.55197
0
LINE
8
BLACK
6
CONTINUOUS
10
1.67925
20
-5.55197
11
1.68675
21
-5.54822
0
LINE
8
BLACK
6
CONTINUOUS
10
1.73924
20
-5.54822
11
1.78799
21
-5.54822
0
LINE
8
BLACK
6
CONTINUOUS
10
1.78799
20
-5.54822
11
1.76174
21
-5.57822
0
LINE
8
BLACK
6
CONTINUOUS
10
1.76174
20
-5.57822
11
1.77299
21
-5.57822
0
LINE
8
BLACK
6
CONTINUOUS
10
1.77299
20
-5.57822
11
1.78049
21
-5.58197
0
LINE
8
BLACK
6
CONTINUOUS
10
1.78049
20
-5.58197
11
1.78424
21
-5.58572
0
LINE
8
BLACK
6
CONTINUOUS
10
1.78424
20
-5.58572
11
1.78799
21
-5.59322
0
LINE
8
BLACK
6
CONTINUOUS
10
1.78799
20
-5.59322
11
1.78799
21
-5.61196
0
LINE
8
BLACK
6
CONTINUOUS
10
1.78799
20
-5.61196
11
1.78424
21
-5.61946
0
LINE
8
BLACK
6
CONTINUOUS
10
1.78424
20
-5.61946
11
1.78049
21
-5.62321
0
LINE
8
BLACK
6
CONTINUOUS
10
1.78049
20
-5.62321
11
1.77299
21
-5.62696
0
LINE
8
BLACK
6
CONTINUOUS
10
1.77299
20
-5.62696
11
1.75049
21
-5.62696
0
LINE
8
BLACK
6
CONTINUOUS
10
1.75049
20
-5.62696
11
1.74299
21
-5.62321
0
LINE
8
BLACK
6
CONTINUOUS
10
1.74299
20
-5.62321
11
1.73924
21
-5.61946
0
LINE
8
BLACK
6
CONTINUOUS
10
1.82548
20
-5.62696
11
1.84048
21
-5.62696
0
LINE
8
BLACK
6
CONTINUOUS
10
1.84048
20
-5.62696
11
1.84798
21
-5.62321
0
LINE
8
BLACK
6
CONTINUOUS
10
1.84798
20
-5.62321
11
1.85173
21
-5.61946
0
LINE
8
BLACK
6
CONTINUOUS
10
1.85173
20
-5.61946
11
1.85923
21
-5.60821
0
LINE
8
BLACK
6
CONTINUOUS
10
1.85923
20
-5.60821
11
1.86298
21
-5.59322
0
LINE
8
BLACK
6
CONTINUOUS
10
1.86298
20
-5.59322
11
1.86298
21
-5.56322
0
LINE
8
BLACK
6
CONTINUOUS
10
1.86298
20
-5.56322
11
1.85923
21
-5.55572
0
LINE
8
BLACK
6
CONTINUOUS
10
1.85923
20
-5.55572
11
1.85548
21
-5.55197
0
LINE
8
BLACK
6
CONTINUOUS
10
1.85548
20
-5.55197
11
1.84798
21
-5.54822
0
LINE
8
BLACK
6
CONTINUOUS
10
1.84798
20
-5.54822
11
1.83298
21
-5.54822
0
LINE
8
BLACK
6
CONTINUOUS
10
1.83298
20
-5.54822
11
1.82548
21
-5.55197
0
LINE
8
BLACK
6
CONTINUOUS
10
1.82548
20
-5.55197
11
1.82173
21
-5.55572
0
LINE
8
BLACK
6
CONTINUOUS
10
1.82173
20
-5.55572
11
1.81798
21
-5.56322
0
LINE
8
BLACK
6
CONTINUOUS
10
1.81798
20
-5.56322
11
1.81798
21
-5.58197
0
LINE
8
BLACK
6
CONTINUOUS
10
1.81798
20
-5.58197
11
1.82173
21
-5.58947
0
LINE
8
BLACK
6
CONTINUOUS
10
1.82173
20
-5.58947
11
1.82548
21
-5.59322
0
LINE
8
BLACK
6
CONTINUOUS
10
1.82548
20
-5.59322
11
1.83298
21
-5.59697
0
LINE
8
BLACK
6
CONTINUOUS
10
1.83298
20
-5.59697
11
1.84798
21
-5.59697
0
LINE
8
BLACK
6
CONTINUOUS
10
1.84798
20
-5.59697
11
1.85548
21
-5.59322
0
LINE
8
BLACK
6
CONTINUOUS
10
1.85548
20
-5.59322
11
1.85923
21
-5.58947
0
LINE
8
BLACK
6
CONTINUOUS
10
1.85923
20
-5.58947
11
1.86298
21
-5.58197
0
LINE
8
BLACK
6
CONTINUOUS
10
1.93047
20
-5.57447
11
1.93047
21
-5.62696
0
LINE
8
BLACK
6
CONTINUOUS
10
1.91172
20
-5.54447
11
1.89298
21
-5.60072
0
LINE
8
BLACK
6
CONTINUOUS
10
1.89298
20
-5.60072
11
1.94172
21
-5.60072
0
LINE
8
BLACK
6
CONTINUOUS
10
1.96797
20
-5.54822
11
1.96797
21
-5.56322
0
LINE
8
BLACK
6
CONTINUOUS
10
1.99796
20
-5.54822
11
1.99796
21
-5.56322
0
LINE
8
BLACK
6
CONTINUOUS
10
2.1142
20
-5.65696
11
2.11045
21
-5.65321
0
LINE
8
BLACK
6
CONTINUOUS
10
2.11045
20
-5.65321
11
2.10295
21
-5.64196
0
LINE
8
BLACK
6
CONTINUOUS
10
2.10295
20
-5.64196
11
2.0992
21
-5.63446
0
LINE
8
BLACK
6
CONTINUOUS
10
2.0992
20
-5.63446
11
2.09545
21
-5.62321
0
LINE
8
BLACK
6
CONTINUOUS
10
2.09545
20
-5.62321
11
2.0917
21
-5.60446
0
LINE
8
BLACK
6
CONTINUOUS
10
2.0917
20
-5.60446
11
2.0917
21
-5.58947
0
LINE
8
BLACK
6
CONTINUOUS
10
2.0917
20
-5.58947
11
2.09545
21
-5.57072
0
LINE
8
BLACK
6
CONTINUOUS
10
2.09545
20
-5.57072
11
2.0992
21
-5.55947
0
LINE
8
BLACK
6
CONTINUOUS
10
2.0992
20
-5.55947
11
2.10295
21
-5.55197
0
LINE
8
BLACK
6
CONTINUOUS
10
2.10295
20
-5.55197
11
2.11045
21
-5.54072
0
LINE
8
BLACK
6
CONTINUOUS
10
2.11045
20
-5.54072
11
2.1142
21
-5.53697
0
LINE
8
BLACK
6
CONTINUOUS
10
2.17794
20
-5.57447
11
2.17794
21
-5.62696
0
LINE
8
BLACK
6
CONTINUOUS
10
2.15919
20
-5.54447
11
2.14044
21
-5.60072
0
LINE
8
BLACK
6
CONTINUOUS
10
2.14044
20
-5.60072
11
2.18919
21
-5.60072
0
LINE
8
BLACK
6
CONTINUOUS
10
2.27918
20
-5.62696
11
2.27918
21
-5.54822
0
LINE
8
BLACK
6
CONTINUOUS
10
2.31292
20
-5.62696
11
2.31292
21
-5.58572
0
LINE
8
BLACK
6
CONTINUOUS
10
2.31292
20
-5.58572
11
2.30917
21
-5.57822
0
LINE
8
BLACK
6
CONTINUOUS
10
2.30917
20
-5.57822
11
2.30167
21
-5.57447
0
LINE
8
BLACK
6
CONTINUOUS
10
2.30167
20
-5.57447
11
2.29043
21
-5.57447
0
LINE
8
BLACK
6
CONTINUOUS
10
2.29043
20
-5.57447
11
2.28293
21
-5.57822
0
LINE
8
BLACK
6
CONTINUOUS
10
2.28293
20
-5.57822
11
2.27918
21
-5.58197
0
LINE
8
BLACK
6
CONTINUOUS
10
2.36167
20
-5.62696
11
2.35417
21
-5.62321
0
LINE
8
BLACK
6
CONTINUOUS
10
2.35417
20
-5.62321
11
2.35042
21
-5.61946
0
LINE
8
BLACK
6
CONTINUOUS
10
2.35042
20
-5.61946
11
2.34667
21
-5.61196
0
LINE
8
BLACK
6
CONTINUOUS
10
2.34667
20
-5.61196
11
2.34667
21
-5.58947
0
LINE
8
BLACK
6
CONTINUOUS
10
2.34667
20
-5.58947
11
2.35042
21
-5.58197
0
LINE
8
BLACK
6
CONTINUOUS
10
2.35042
20
-5.58197
11
2.35417
21
-5.57822
0
LINE
8
BLACK
6
CONTINUOUS
10
2.35417
20
-5.57822
11
2.36167
21
-5.57447
0
LINE
8
BLACK
6
CONTINUOUS
10
2.36167
20
-5.57447
11
2.37292
21
-5.57447
0
LINE
8
BLACK
6
CONTINUOUS
10
2.37292
20
-5.57447
11
2.38041
21
-5.57822
0
LINE
8
BLACK
6
CONTINUOUS
10
2.38041
20
-5.57822
11
2.38416
21
-5.58197
0
LINE
8
BLACK
6
CONTINUOUS
10
2.38416
20
-5.58197
11
2.38791
21
-5.58947
0
LINE
8
BLACK
6
CONTINUOUS
10
2.38791
20
-5.58947
11
2.38791
21
-5.61196
0
LINE
8
BLACK
6
CONTINUOUS
10
2.38791
20
-5.61196
11
2.38416
21
-5.61946
0
LINE
8
BLACK
6
CONTINUOUS
10
2.38416
20
-5.61946
11
2.38041
21
-5.62321
0
LINE
8
BLACK
6
CONTINUOUS
10
2.38041
20
-5.62321
11
2.37292
21
-5.62696
0
LINE
8
BLACK
6
CONTINUOUS
10
2.37292
20
-5.62696
11
2.36167
21
-5.62696
0
LINE
8
BLACK
6
CONTINUOUS
10
2.43291
20
-5.62696
11
2.42541
21
-5.62321
0
LINE
8
BLACK
6
CONTINUOUS
10
2.42541
20
-5.62321
11
2.42166
21
-5.61571
0
LINE
8
BLACK
6
CONTINUOUS
10
2.42166
20
-5.61571
11
2.42166
21
-5.54822
0
LINE
8
BLACK
6
CONTINUOUS
10
2.4929
20
-5.62321
11
2.4854
21
-5.62696
0
LINE
8
BLACK
6
CONTINUOUS
10
2.4854
20
-5.62696
11
2.4704
21
-5.62696
0
LINE
8
BLACK
6
CONTINUOUS
10
2.4704
20
-5.62696
11
2.4629
21
-5.62321
0
LINE
8
BLACK
6
CONTINUOUS
10
2.4629
20
-5.62321
11
2.45915
21
-5.61571
0
LINE
8
BLACK
6
CONTINUOUS
10
2.45915
20
-5.61571
11
2.45915
21
-5.58572
0
LINE
8
BLACK
6
CONTINUOUS
10
2.45915
20
-5.58572
11
2.4629
21
-5.57822
0
LINE
8
BLACK
6
CONTINUOUS
10
2.4629
20
-5.57822
11
2.4704
21
-5.57447
0
LINE
8
BLACK
6
CONTINUOUS
10
2.4704
20
-5.57447
11
2.4854
21
-5.57447
0
LINE
8
BLACK
6
CONTINUOUS
10
2.4854
20
-5.57447
11
2.4929
21
-5.57822
0
LINE
8
BLACK
6
CONTINUOUS
10
2.4929
20
-5.57822
11
2.49665
21
-5.58572
0
LINE
8
BLACK
6
CONTINUOUS
10
2.49665
20
-5.58572
11
2.49665
21
-5.59322
0
LINE
8
BLACK
6
CONTINUOUS
10
2.49665
20
-5.59322
11
2.45915
21
-5.60072
0
LINE
8
BLACK
6
CONTINUOUS
10
2.52665
20
-5.62321
11
2.53415
21
-5.62696
0
LINE
8
BLACK
6
CONTINUOUS
10
2.53415
20
-5.62696
11
2.54914
21
-5.62696
0
LINE
8
BLACK
6
CONTINUOUS
10
2.54914
20
-5.62696
11
2.55664
21
-5.62321
0
LINE
8
BLACK
6
CONTINUOUS
10
2.55664
20
-5.62321
11
2.56039
21
-5.61571
0
LINE
8
BLACK
6
CONTINUOUS
10
2.56039
20
-5.61571
11
2.56039
21
-5.61196
0
LINE
8
BLACK
6
CONTINUOUS
10
2.56039
20
-5.61196
11
2.55664
21
-5.60446
0
LINE
8
BLACK
6
CONTINUOUS
10
2.55664
20
-5.60446
11
2.54914
21
-5.60072
0
LINE
8
BLACK
6
CONTINUOUS
10
2.54914
20
-5.60072
11
2.5379
21
-5.60072
0
LINE
8
BLACK
6
CONTINUOUS
10
2.5379
20
-5.60072
11
2.5304
21
-5.59697
0
LINE
8
BLACK
6
CONTINUOUS
10
2.5304
20
-5.59697
11
2.52665
21
-5.58947
0
LINE
8
BLACK
6
CONTINUOUS
10
2.52665
20
-5.58947
11
2.52665
21
-5.58572
0
LINE
8
BLACK
6
CONTINUOUS
10
2.52665
20
-5.58572
11
2.5304
21
-5.57822
0
LINE
8
BLACK
6
CONTINUOUS
10
2.5304
20
-5.57822
11
2.5379
21
-5.57447
0
LINE
8
BLACK
6
CONTINUOUS
10
2.5379
20
-5.57447
11
2.54914
21
-5.57447
0
LINE
8
BLACK
6
CONTINUOUS
10
2.54914
20
-5.57447
11
2.55664
21
-5.57822
0
LINE
8
BLACK
6
CONTINUOUS
10
2.58664
20
-5.65696
11
2.59039
21
-5.65321
0
LINE
8
BLACK
6
CONTINUOUS
10
2.59039
20
-5.65321
11
2.59789
21
-5.64196
0
LINE
8
BLACK
6
CONTINUOUS
10
2.59789
20
-5.64196
11
2.60164
21
-5.63446
0
LINE
8
BLACK
6
CONTINUOUS
10
2.60164
20
-5.63446
11
2.60539
21
-5.62321
0
LINE
8
BLACK
6
CONTINUOUS
10
2.60539
20
-5.62321
11
2.60914
21
-5.60446
0
LINE
8
BLACK
6
CONTINUOUS
10
2.60914
20
-5.60446
11
2.60914
21
-5.58947
0
LINE
8
BLACK
6
CONTINUOUS
10
2.60914
20
-5.58947
11
2.60539
21
-5.57072
0
LINE
8
BLACK
6
CONTINUOUS
10
2.60539
20
-5.57072
11
2.60164
21
-5.55947
0
LINE
8
BLACK
6
CONTINUOUS
10
2.60164
20
-5.55947
11
2.59789
21
-5.55197
0
LINE
8
BLACK
6
CONTINUOUS
10
2.59789
20
-5.55197
11
2.59039
21
-5.54072
0
LINE
8
BLACK
6
CONTINUOUS
10
2.59039
20
-5.54072
11
2.58664
21
-5.53697
0
LINE
8
BLACK
6
CONTINUOUS
10
0.647638
20
-5.66535
11
0.706693
21
-5.72441
0
LINE
8
BLACK
6
CONTINUOUS
10
0.706693
20
-5.66535
11
0.647638
21
-5.72441
0
CIRCLE
8
BLACK
10
0.677165
20
-5.69488
40
0.0295276
0
LINE
8
BLACK
6
CONTINUOUS
10
0.850606
20
-5.7309
11
0.805611
21
-5.7309
0
LINE
8
BLACK
6
CONTINUOUS
10
0.828109
20
-5.7309
11
0.828109
21
-5.65216
0
LINE
8
BLACK
6
CONTINUOUS
10
0.828109
20
-5.65216
11
0.82061
21
-5.66341
0
LINE
8
BLACK
6
CONTINUOUS
10
0.82061
20
-5.66341
11
0.81311
21
-5.67091
0
LINE
8
BLACK
6
CONTINUOUS
10
0.81311
20
-5.67091
11
0.805611
21
-5.67466
0
LINE
8
BLACK
6
CONTINUOUS
10
0.884352
20
-5.7234
11
0.888101
21
-5.72715
0
LINE
8
BLACK
6
CONTINUOUS
10
0.888101
20
-5.72715
11
0.884352
21
-5.7309
0
LINE
8
BLACK
6
CONTINUOUS
10
0.884352
20
-5.7309
11
0.880602
21
-5.72715
0
LINE
8
BLACK
6
CONTINUOUS
10
0.880602
20
-5.72715
11
0.884352
21
-5.7234
0
LINE
8
BLACK
6
CONTINUOUS
10
0.884352
20
-5.7234
11
0.884352
21
-5.7309
0
LINE
8
BLACK
6
CONTINUOUS
10
0.959342
20
-5.65216
11
0.921847
21
-5.65216
0
LINE
8
BLACK
6
CONTINUOUS
10
0.921847
20
-5.65216
11
0.918097
21
-5.68965
0
LINE
8
BLACK
6
CONTINUOUS
10
0.918097
20
-5.68965
11
0.921847
21
-5.6859
0
LINE
8
BLACK
6
CONTINUOUS
10
0.921847
20
-5.6859
11
0.929346
21
-5.68216
0
LINE
8
BLACK
6
CONTINUOUS
10
0.929346
20
-5.68216
11
0.948094
21
-5.68216
0
LINE
8
BLACK
6
CONTINUOUS
10
0.948094
20
-5.68216
11
0.955593
21
-5.6859
0
LINE
8
BLACK
6
CONTINUOUS
10
0.955593
20
-5.6859
11
0.959342
21
-5.68965
0
LINE
8
BLACK
6
CONTINUOUS
10
0.959342
20
-5.68965
11
0.963092
21
-5.69715
0
LINE
8
BLACK
6
CONTINUOUS
10
0.963092
20
-5.69715
11
0.963092
21
-5.7159
0
LINE
8
BLACK
6
CONTINUOUS
10
0.963092
20
-5.7159
11
0.959342
21
-5.7234
0
LINE
8
BLACK
6
CONTINUOUS
10
0.959342
20
-5.7234
11
0.955593
21
-5.72715
0
LINE
8
BLACK
6
CONTINUOUS
10
0.955593
20
-5.72715
11
0.948094
21
-5.7309
0
LINE
8
BLACK
6
CONTINUOUS
10
0.948094
20
-5.7309
11
0.929346
21
-5.7309
0
LINE
8
BLACK
6
CONTINUOUS
10
0.929346
20
-5.7309
11
0.921847
21
-5.72715
0
LINE
8
BLACK
6
CONTINUOUS
10
0.921847
20
-5.72715
11
0.918097
21
-5.7234
0
LINE
8
BLACK
6
CONTINUOUS
10
1.01184
20
-5.65216
11
1.01933
21
-5.65216
0
LINE
8
BLACK
6
CONTINUOUS
10
1.01933
20
-5.65216
11
1.02683
21
-5.65591
0
LINE
8
BLACK
6
CONTINUOUS
10
1.02683
20
-5.65591
11
1.03058
21
-5.65966
0
LINE
8
BLACK
6
CONTINUOUS
10
1.03058
20
-5.65966
11
1.03433
21
-5.66716
0
LINE
8
BLACK
6
CONTINUOUS
10
1.03433
20
-5.66716
11
1.03808
21
-5.68216
0
LINE
8
BLACK
6
CONTINUOUS
10
1.03808
20
-5.68216
11
1.03808
21
-5.7009
0
LINE
8
BLACK
6
CONTINUOUS
10
1.03808
20
-5.7009
11
1.03433
21
-5.7159
0
LINE
8
BLACK
6
CONTINUOUS
10
1.03433
20
-5.7159
11
1.03058
21
-5.7234
0
LINE
8
BLACK
6
CONTINUOUS
10
1.03058
20
-5.7234
11
1.02683
21
-5.72715
0
LINE
8
BLACK
6
CONTINUOUS
10
1.02683
20
-5.72715
11
1.01933
21
-5.7309
0
LINE
8
BLACK
6
CONTINUOUS
10
1.01933
20
-5.7309
11
1.01184
21
-5.7309
0
LINE
8
BLACK
6
CONTINUOUS
10
1.01184
20
-5.7309
11
1.00434
21
-5.72715
0
LINE
8
BLACK
6
CONTINUOUS
10
1.00434
20
-5.72715
11
1.00059
21
-5.7234
0
LINE
8
BLACK
6
CONTINUOUS
10
1.00059
20
-5.7234
11
0.996838
21
-5.7159
0
LINE
8
BLACK
6
CONTINUOUS
10
0.996838
20
-5.7159
11
0.993088
21
-5.7009
0
LINE
8
BLACK
6
CONTINUOUS
10
0.993088
20
-5.7009
11
0.993088
21
-5.68216
0
LINE
8
BLACK
6
CONTINUOUS
10
0.993088
20
-5.68216
11
0.996838
21
-5.66716
0
LINE
8
BLACK
6
CONTINUOUS
10
0.996838
20
-5.66716
11
1.00059
21
-5.65966
0
LINE
8
BLACK
6
CONTINUOUS
10
1.00059
20
-5.65966
11
1.00434
21
-5.65591
0
LINE
8
BLACK
6
CONTINUOUS
10
1.00434
20
-5.65591
11
1.01184
21
-5.65216
0
LINE
8
BLACK
6
CONTINUOUS
10
1.08683
20
-5.65216
11
1.09433
21
-5.65216
0
LINE
8
BLACK
6
CONTINUOUS
10
1.09433
20
-5.65216
11
1.10182
21
-5.65591
0
LINE
8
BLACK
6
CONTINUOUS
10
1.10182
20
-5.65591
11
1.10557
21
-5.65966
0
LINE
8
BLACK
6
CONTINUOUS
10
1.10557
20
-5.65966
11
1.10932
21
-5.66716
0
LINE
8
BLACK
6
CONTINUOUS
10
1.10932
20
-5.66716
11
1.11307
21
-5.68216
0
LINE
8
BLACK
6
CONTINUOUS
10
1.11307
20
-5.68216
11
1.11307
21
-5.7009
0
LINE
8
BLACK
6
CONTINUOUS
10
1.11307
20
-5.7009
11
1.10932
21
-5.7159
0
LINE
8
BLACK
6
CONTINUOUS
10
1.10932
20
-5.7159
11
1.10557
21
-5.7234
0
LINE
8
BLACK
6
CONTINUOUS
10
1.10557
20
-5.7234
11
1.10182
21
-5.72715
0
LINE
8
BLACK
6
CONTINUOUS
10
1.10182
20
-5.72715
11
1.09433
21
-5.7309
0
LINE
8
BLACK
6
CONTINUOUS
10
1.09433
20
-5.7309
11
1.08683
21
-5.7309
0
LINE
8
BLACK
6
CONTINUOUS
10
1.08683
20
-5.7309
11
1.07933
21
-5.72715
0
LINE
8
BLACK
6
CONTINUOUS
10
1.07933
20
-5.72715
11
1.07558
21
-5.7234
0
LINE
8
BLACK
6
CONTINUOUS
10
1.07558
20
-5.7234
11
1.07183
21
-5.7159
0
LINE
8
BLACK
6
CONTINUOUS
10
1.07183
20
-5.7159
11
1.06808
21
-5.7009
0
LINE
8
BLACK
6
CONTINUOUS
10
1.06808
20
-5.7009
11
1.06808
21
-5.68216
0
LINE
8
BLACK
6
CONTINUOUS
10
1.06808
20
-5.68216
11
1.07183
21
-5.66716
0
LINE
8
BLACK
6
CONTINUOUS
10
1.07183
20
-5.66716
11
1.07558
21
-5.65966
0
LINE
8
BLACK
6
CONTINUOUS
10
1.07558
20
-5.65966
11
1.07933
21
-5.65591
0
LINE
8
BLACK
6
CONTINUOUS
10
1.07933
20
-5.65591
11
1.08683
21
-5.65216
0
LINE
8
BLACK
6
CONTINUOUS
10
1.14682
20
-5.7309
11
1.14682
21
-5.67841
0
LINE
8
BLACK
6
CONTINUOUS
10
1.14682
20
-5.6859
11
1.15057
21
-5.68216
0
LINE
8
BLACK
6
CONTINUOUS
10
1.15057
20
-5.68216
11
1.15807
21
-5.67841
0
LINE
8
BLACK
6
CONTINUOUS
10
1.15807
20
-5.67841
11
1.16932
21
-5.67841
0
LINE
8
BLACK
6
CONTINUOUS
10
1.16932
20
-5.67841
11
1.17682
21
-5.68216
0
LINE
8
BLACK
6
CONTINUOUS
10
1.17682
20
-5.68216
11
1.18056
21
-5.68965
0
LINE
8
BLACK
6
CONTINUOUS
10
1.18056
20
-5.68965
11
1.18056
21
-5.7309
0
LINE
8
BLACK
6
CONTINUOUS
10
1.18056
20
-5.68965
11
1.18431
21
-5.68216
0
LINE
8
BLACK
6
CONTINUOUS
10
1.18431
20
-5.68216
11
1.19181
21
-5.67841
0
LINE
8
BLACK
6
CONTINUOUS
10
1.19181
20
-5.67841
11
1.20306
21
-5.67841
0
LINE
8
BLACK
6
CONTINUOUS
10
1.20306
20
-5.67841
11
1.21056
21
-5.68216
0
LINE
8
BLACK
6
CONTINUOUS
10
1.21056
20
-5.68216
11
1.21431
21
-5.68965
0
LINE
8
BLACK
6
CONTINUOUS
10
1.21431
20
-5.68965
11
1.21431
21
-5.7309
0
LINE
8
BLACK
6
CONTINUOUS
10
1.25181
20
-5.7309
11
1.25181
21
-5.67841
0
LINE
8
BLACK
6
CONTINUOUS
10
1.25181
20
-5.6859
11
1.25556
21
-5.68216
0
LINE
8
BLACK
6
CONTINUOUS
10
1.25556
20
-5.68216
11
1.26305
21
-5.67841
0
LINE
8
BLACK
6
CONTINUOUS
10
1.26305
20
-5.67841
11
1.2743
21
-5.67841
0
LINE
8
BLACK
6
CONTINUOUS
10
1.2743
20
-5.67841
11
1.2818
21
-5.68216
0
LINE
8
BLACK
6
CONTINUOUS
10
1.2818
20
-5.68216
11
1.28555
21
-5.68965
0
LINE
8
BLACK
6
CONTINUOUS
10
1.28555
20
-5.68965
11
1.28555
21
-5.7309
0
LINE
8
BLACK
6
CONTINUOUS
10
1.28555
20
-5.68965
11
1.2893
21
-5.68216
0
LINE
8
BLACK
6
CONTINUOUS
10
1.2893
20
-5.68216
11
1.2968
21
-5.67841
0
LINE
8
BLACK
6
CONTINUOUS
10
1.2968
20
-5.67841
11
1.30805
21
-5.67841
0
LINE
8
BLACK
6
CONTINUOUS
10
1.30805
20
-5.67841
11
1.31555
21
-5.68216
0
LINE
8
BLACK
6
CONTINUOUS
10
1.31555
20
-5.68216
11
1.3193
21
-5.68965
0
LINE
8
BLACK
6
CONTINUOUS
10
1.3193
20
-5.68965
11
1.3193
21
-5.7309
0
LINE
8
BLACK
6
CONTINUOUS
10
1.47303
20
-5.64841
11
1.40554
21
-5.74965
0
LINE
8
BLACK
6
CONTINUOUS
10
1.57427
20
-5.65216
11
1.58176
21
-5.65216
0
LINE
8
BLACK
6
CONTINUOUS
10
1.58176
20
-5.65216
11
1.58926
21
-5.65591
0
LINE
8
BLACK
6
CONTINUOUS
10
1.58926
20
-5.65591
11
1.59301
21
-5.65966
0
LINE
8
BLACK
6
CONTINUOUS
10
1.59301
20
-5.65966
11
1.59676
21
-5.66716
0
LINE
8
BLACK
6
CONTINUOUS
10
1.59676
20
-5.66716
11
1.60051
21
-5.68216
0
LINE
8
BLACK
6
CONTINUOUS
10
1.60051
20
-5.68216
11
1.60051
21
-5.7009
0
LINE
8
BLACK
6
CONTINUOUS
10
1.60051
20
-5.7009
11
1.59676
21
-5.7159
0
LINE
8
BLACK
6
CONTINUOUS
10
1.59676
20
-5.7159
11
1.59301
21
-5.7234
0
LINE
8
BLACK
6
CONTINUOUS
10
1.59301
20
-5.7234
11
1.58926
21
-5.72715
0
LINE
8
BLACK
6
CONTINUOUS
10
1.58926
20
-5.72715
11
1.58176
21
-5.7309
0
LINE
8
BLACK
6
CONTINUOUS
10
1.58176
20
-5.7309
11
1.57427
21
-5.7309
0
LINE
8
BLACK
6
CONTINUOUS
10
1.57427
20
-5.7309
11
1.56677
21
-5.72715
0
LINE
8
BLACK
6
CONTINUOUS
10
1.56677
20
-5.72715
11
1.56302
21
-5.7234
0
LINE
8
BLACK
6
CONTINUOUS
10
1.56302
20
-5.7234
11
1.55927
21
-5.7159
0
LINE
8
BLACK
6
CONTINUOUS
10
1.55927
20
-5.7159
11
1.55552
21
-5.7009
0
LINE
8
BLACK
6
CONTINUOUS
10
1.55552
20
-5.7009
11
1.55552
21
-5.68216
0
LINE
8
BLACK
6
CONTINUOUS
10
1.55552
20
-5.68216
11
1.55927
21
-5.66716
0
LINE
8
BLACK
6
CONTINUOUS
10
1.55927
20
-5.66716
11
1.56302
21
-5.65966
0
LINE
8
BLACK
6
CONTINUOUS
10
1.56302
20
-5.65966
11
1.56677
21
-5.65591
0
LINE
8
BLACK
6
CONTINUOUS
10
1.56677
20
-5.65591
11
1.57427
21
-5.65216
0
LINE
8
BLACK
6
CONTINUOUS
10
1.63426
20
-5.7234
11
1.63801
21
-5.72715
0
LINE
8
BLACK
6
CONTINUOUS
10
1.63801
20
-5.72715
11
1.63426
21
-5.7309
0
LINE
8
BLACK
6
CONTINUOUS
10
1.63426
20
-5.7309
11
1.63051
21
-5.72715
0
LINE
8
BLACK
6
CONTINUOUS
10
1.63051
20
-5.72715
11
1.63426
21
-5.7234
0
LINE
8
BLACK
6
CONTINUOUS
10
1.63426
20
-5.7234
11
1.63426
21
-5.7309
0
LINE
8
BLACK
6
CONTINUOUS
10
1.68675
20
-5.65216
11
1.69425
21
-5.65216
0
LINE
8
BLACK
6
CONTINUOUS
10
1.69425
20
-5.65216
11
1.70175
21
-5.65591
0
LINE
8
BLACK
6
CONTINUOUS
10
1.70175
20
-5.65591
11
1.7055
21
-5.65966
0
LINE
8
BLACK
6
CONTINUOUS
10
1.7055
20
-5.65966
11
1.70925
21
-5.66716
0
LINE
8
BLACK
6
CONTINUOUS
10
1.70925
20
-5.66716
11
1.713
21
-5.68216
0
LINE
8
BLACK
6
CONTINUOUS
10
1.713
20
-5.68216
11
1.713
21
-5.7009
0
LINE
8
BLACK
6
CONTINUOUS
10
1.713
20
-5.7009
11
1.70925
21
-5.7159
0
LINE
8
BLACK
6
CONTINUOUS
10
1.70925
20
-5.7159
11
1.7055
21
-5.7234
0
LINE
8
BLACK
6
CONTINUOUS
10
1.7055
20
-5.7234
11
1.70175
21
-5.72715
0
LINE
8
BLACK
6
CONTINUOUS
10
1.70175
20
-5.72715
11
1.69425
21
-5.7309
0
LINE
8
BLACK
6
CONTINUOUS
10
1.69425
20
-5.7309
11
1.68675
21
-5.7309
0
LINE
8
BLACK
6
CONTINUOUS
10
1.68675
20
-5.7309
11
1.67925
21
-5.72715
0
LINE
8
BLACK
6
CONTINUOUS
10
1.67925
20
-5.72715
11
1.6755
21
-5.7234
0
LINE
8
BLACK
6
CONTINUOUS
10
1.6755
20
-5.7234
11
1.67175
21
-5.7159
0
LINE
8
BLACK
6
CONTINUOUS
10
1.67175
20
-5.7159
11
1.668
21
-5.7009
0
LINE
8
BLACK
6
CONTINUOUS
10
1.668
20
-5.7009
11
1.668
21
-5.68216
0
LINE
8
BLACK
6
CONTINUOUS
10
1.668
20
-5.68216
11
1.67175
21
-5.66716
0
LINE
8
BLACK
6
CONTINUOUS
10
1.67175
20
-5.66716
11
1.6755
21
-5.65966
0
LINE
8
BLACK
6
CONTINUOUS
10
1.6755
20
-5.65966
11
1.67925
21
-5.65591
0
LINE
8
BLACK
6
CONTINUOUS
10
1.67925
20
-5.65591
11
1.68675
21
-5.65216
0
LINE
8
BLACK
6
CONTINUOUS
10
1.78424
20
-5.65216
11
1.74674
21
-5.65216
0
LINE
8
BLACK
6
CONTINUOUS
10
1.74674
20
-5.65216
11
1.74299
21
-5.68965
0
LINE
8
BLACK
6
CONTINUOUS
10
1.74299
20
-5.68965
11
1.74674
21
-5.6859
0
LINE
8
BLACK
6
CONTINUOUS
10
1.74674
20
-5.6859
11
1.75424
21
-5.68216
0
LINE
8
BLACK
6
CONTINUOUS
10
1.75424
20
-5.68216
11
1.77299
21
-5.68216
0
LINE
8
BLACK
6
CONTINUOUS
10
1.77299
20
-5.68216
11
1.78049
21
-5.6859
0
LINE
8
BLACK
6
CONTINUOUS
10
1.78049
20
-5.6859
11
1.78424
21
-5.68965
0
LINE
8
BLACK
6
CONTINUOUS
10
1.78424
20
-5.68965
11
1.78799
21
-5.69715
0
LINE
8
BLACK
6
CONTINUOUS
10
1.78799
20
-5.69715
11
1.78799
21
-5.7159
0
LINE
8
BLACK
6
CONTINUOUS
10
1.78799
20
-5.7159
11
1.78424
21
-5.7234
0
LINE
8
BLACK
6
CONTINUOUS
10
1.78424
20
-5.7234
11
1.78049
21
-5.72715
0
LINE
8
BLACK
6
CONTINUOUS
10
1.78049
20
-5.72715
11
1.77299
21
-5.7309
0
LINE
8
BLACK
6
CONTINUOUS
10
1.77299
20
-5.7309
11
1.75424
21
-5.7309
0
LINE
8
BLACK
6
CONTINUOUS
10
1.75424
20
-5.7309
11
1.74674
21
-5.72715
0
LINE
8
BLACK
6
CONTINUOUS
10
1.74674
20
-5.72715
11
1.74299
21
-5.7234
0
LINE
8
BLACK
6
CONTINUOUS
10
1.82548
20
-5.7309
11
1.84048
21
-5.7309
0
LINE
8
BLACK
6
CONTINUOUS
10
1.84048
20
-5.7309
11
1.84798
21
-5.72715
0
LINE
8
BLACK
6
CONTINUOUS
10
1.84798
20
-5.72715
11
1.85173
21
-5.7234
0
LINE
8
BLACK
6
CONTINUOUS
10
1.85173
20
-5.7234
11
1.85923
21
-5.71215
0
LINE
8
BLACK
6
CONTINUOUS
10
1.85923
20
-5.71215
11
1.86298
21
-5.69715
0
LINE
8
BLACK
6
CONTINUOUS
10
1.86298
20
-5.69715
11
1.86298
21
-5.66716
0
LINE
8
BLACK
6
CONTINUOUS
10
1.86298
20
-5.66716
11
1.85923
21
-5.65966
0
LINE
8
BLACK
6
CONTINUOUS
10
1.85923
20
-5.65966
11
1.85548
21
-5.65591
0
LINE
8
BLACK
6
CONTINUOUS
10
1.85548
20
-5.65591
11
1.84798
21
-5.65216
0
LINE
8
BLACK
6
CONTINUOUS
10
1.84798
20
-5.65216
11
1.83298
21
-5.65216
0
LINE
8
BLACK
6
CONTINUOUS
10
1.83298
20
-5.65216
11
1.82548
21
-5.65591
0
LINE
8
BLACK
6
CONTINUOUS
10
1.82548
20
-5.65591
11
1.82173
21
-5.65966
0
LINE
8
BLACK
6
CONTINUOUS
10
1.82173
20
-5.65966
11
1.81798
21
-5.66716
0
LINE
8
BLACK
6
CONTINUOUS
10
1.81798
20
-5.66716
11
1.81798
21
-5.6859
0
LINE
8
BLACK
6
CONTINUOUS
10
1.81798
20
-5.6859
11
1.82173
21
-5.6934
0
LINE
8
BLACK
6
CONTINUOUS
10
1.82173
20
-5.6934
11
1.82548
21
-5.69715
0
LINE
8
BLACK
6
CONTINUOUS
10
1.82548
20
-5.69715
11
1.83298
21
-5.7009
0
LINE
8
BLACK
6
CONTINUOUS
10
1.83298
20
-5.7009
11
1.84798
21
-5.7009
0
LINE
8
BLACK
6
CONTINUOUS
10
1.84798
20
-5.7009
11
1.85548
21
-5.69715
0
LINE
8
BLACK
6
CONTINUOUS
10
1.85548
20
-5.69715
11
1.85923
21
-5.6934
0
LINE
8
BLACK
6
CONTINUOUS
10
1.85923
20
-5.6934
11
1.86298
21
-5.6859
0
LINE
8
BLACK
6
CONTINUOUS
10
1.93797
20
-5.7309
11
1.89298
21
-5.7309
0
LINE
8
BLACK
6
CONTINUOUS
10
1.91547
20
-5.7309
11
1.91547
21
-5.65216
0
LINE
8
BLACK
6
CONTINUOUS
10
1.91547
20
-5.65216
11
1.90797
21
-5.66341
0
LINE
8
BLACK
6
CONTINUOUS
10
1.90797
20
-5.66341
11
1.90047
21
-5.67091
0
LINE
8
BLACK
6
CONTINUOUS
10
1.90047
20
-5.67091
11
1.89298
21
-5.67466
0
LINE
8
BLACK
6
CONTINUOUS
10
1.96797
20
-5.65216
11
1.96797
21
-5.66716
0
LINE
8
BLACK
6
CONTINUOUS
10
1.99796
20
-5.65216
11
1.99796
21
-5.66716
0
LINE
8
BLACK
6
CONTINUOUS
10
2.1142
20
-5.7609
11
2.11045
21
-5.75715
0
LINE
8
BLACK
6
CONTINUOUS
10
2.11045
20
-5.75715
11
2.10295
21
-5.7459
0
LINE
8
BLACK
6
CONTINUOUS
10
2.10295
20
-5.7459
11
2.0992
21
-5.7384
0
LINE
8
BLACK
6
CONTINUOUS
10
2.0992
20
-5.7384
11
2.09545
21
-5.72715
0
LINE
8
BLACK
6
CONTINUOUS
10
2.09545
20
-5.72715
11
2.0917
21
-5.7084
0
LINE
8
BLACK
6
CONTINUOUS
10
2.0917
20
-5.7084
11
2.0917
21
-5.6934
0
LINE
8
BLACK
6
CONTINUOUS
10
2.0917
20
-5.6934
11
2.09545
21
-5.67466
0
LINE
8
BLACK
6
CONTINUOUS
10
2.09545
20
-5.67466
11
2.0992
21
-5.66341
0
LINE
8
BLACK
6
CONTINUOUS
10
2.0992
20
-5.66341
11
2.10295
21
-5.65591
0
LINE
8
BLACK
6
CONTINUOUS
10
2.10295
20
-5.65591
11
2.11045
21
-5.64466
0
LINE
8
BLACK
6
CONTINUOUS
10
2.11045
20
-5.64466
11
2.1142
21
-5.64091
0
LINE
8
BLACK
6
CONTINUOUS
10
2.17794
20
-5.67841
11
2.17794
21
-5.7309
0
LINE
8
BLACK
6
CONTINUOUS
10
2.15919
20
-5.64841
11
2.14044
21
-5.70465
0
LINE
8
BLACK
6
CONTINUOUS
10
2.14044
20
-5.70465
11
2.18919
21
-5.70465
0
LINE
8
BLACK
6
CONTINUOUS
10
2.23418
20
-5.65216
11
2.24168
21
-5.65216
0
LINE
8
BLACK
6
CONTINUOUS
10
2.24168
20
-5.65216
11
2.24918
21
-5.65591
0
LINE
8
BLACK
6
CONTINUOUS
10
2.24918
20
-5.65591
11
2.25293
21
-5.65966
0
LINE
8
BLACK
6
CONTINUOUS
10
2.25293
20
-5.65966
11
2.25668
21
-5.66716
0
LINE
8
BLACK
6
CONTINUOUS
10
2.25668
20
-5.66716
11
2.26043
21
-5.68216
0
LINE
8
BLACK
6
CONTINUOUS
10
2.26043
20
-5.68216
11
2.26043
21
-5.7009
0
LINE
8
BLACK
6
CONTINUOUS
10
2.26043
20
-5.7009
11
2.25668
21
-5.7159
0
LINE
8
BLACK
6
CONTINUOUS
10
2.25668
20
-5.7159
11
2.25293
21
-5.7234
0
LINE
8
BLACK
6
CONTINUOUS
10
2.25293
20
-5.7234
11
2.24918
21
-5.72715
0
LINE
8
BLACK
6
CONTINUOUS
10
2.24918
20
-5.72715
11
2.24168
21
-5.7309
0
LINE
8
BLACK
6
CONTINUOUS
10
2.24168
20
-5.7309
11
2.23418
21
-5.7309
0
LINE
8
BLACK
6
CONTINUOUS
10
2.23418
20
-5.7309
11
2.22668
21
-5.72715
0
LINE
8
BLACK
6
CONTINUOUS
10
2.22668
20
-5.72715
11
2.22293
21
-5.7234
0
LINE
8
BLACK
6
CONTINUOUS
10
2.22293
20
-5.7234
11
2.21918
21
-5.7159
0
LINE
8
BLACK
6
CONTINUOUS
10
2.21918
20
-5.7159
11
2.21544
21
-5.7009
0
LINE
8
BLACK
6
CONTINUOUS
10
2.21544
20
-5.7009
11
2.21544
21
-5.68216
0
LINE
8
BLACK
6
CONTINUOUS
10
2.21544
20
-5.68216
11
2.21918
21
-5.66716
0
LINE
8
BLACK
6
CONTINUOUS
10
2.21918
20
-5.66716
11
2.22293
21
-5.65966
0
LINE
8
BLACK
6
CONTINUOUS
10
2.22293
20
-5.65966
11
2.22668
21
-5.65591
0
LINE
8
BLACK
6
CONTINUOUS
10
2.22668
20
-5.65591
11
2.23418
21
-5.65216
0
LINE
8
BLACK
6
CONTINUOUS
10
2.35417
20
-5.7309
11
2.35417
21
-5.65216
0
LINE
8
BLACK
6
CONTINUOUS
10
2.38791
20
-5.7309
11
2.38791
21
-5.68965
0
LINE
8
BLACK
6
CONTINUOUS
10
2.38791
20
-5.68965
11
2.38416
21
-5.68216
0
LINE
8
BLACK
6
CONTINUOUS
10
2.38416
20
-5.68216
11
2.37667
21
-5.67841
0
LINE
8
BLACK
6
CONTINUOUS
10
2.37667
20
-5.67841
11
2.36542
21
-5.67841
0
LINE
8
BLACK
6
CONTINUOUS
10
2.36542
20
-5.67841
11
2.35792
21
-5.68216
0
LINE
8
BLACK
6
CONTINUOUS
10
2.35792
20
-5.68216
11
2.35417
21
-5.6859
0
LINE
8
BLACK
6
CONTINUOUS
10
2.43666
20
-5.7309
11
2.42916
21
-5.72715
0
LINE
8
BLACK
6
CONTINUOUS
10
2.42916
20
-5.72715
11
2.42541
21
-5.7234
0
LINE
8
BLACK
6
CONTINUOUS
10
2.42541
20
-5.7234
11
2.42166
21
-5.7159
0
LINE
8
BLACK
6
CONTINUOUS
10
2.42166
20
-5.7159
11
2.42166
21
-5.6934
0
LINE
8
BLACK
6
CONTINUOUS
10
2.42166
20
-5.6934
11
2.42541
21
-5.6859
0
LINE
8
BLACK
6
CONTINUOUS
10
2.42541
20
-5.6859
11
2.42916
21
-5.68216
0
LINE
8
BLACK
6
CONTINUOUS
10
2.42916
20
-5.68216
11
2.43666
21
-5.67841
0
LINE
8
BLACK
6
CONTINUOUS
10
2.43666
20
-5.67841
11
2.44791
21
-5.67841
0
LINE
8
BLACK
6
CONTINUOUS
10
2.44791
20
-5.67841
11
2.45541
21
-5.68216
0
LINE
8
BLACK
6
CONTINUOUS
10
2.45541
20
-5.68216
11
2.45915
21
-5.6859
0
LINE
8
BLACK
6
CONTINUOUS
10
2.45915
20
-5.6859
11
2.4629
21
-5.6934
0
LINE
8
BLACK
6
CONTINUOUS
10
2.4629
20
-5.6934
11
2.4629
21
-5.7159
0
LINE
8
BLACK
6
CONTINUOUS
10
2.4629
20
-5.7159
11
2.45915
21
-5.7234
0
LINE
8
BLACK
6
CONTINUOUS
10
2.45915
20
-5.7234
11
2.45541
21
-5.72715
0
LINE
8
BLACK
6
CONTINUOUS
10
2.45541
20
-5.72715
11
2.44791
21
-5.7309
0
LINE
8
BLACK
6
CONTINUOUS
10
2.44791
20
-5.7309
11
2.43666
21
-5.7309
0
LINE
8
BLACK
6
CONTINUOUS
10
2.5079
20
-5.7309
11
2.5004
21
-5.72715
0
LINE
8
BLACK
6
CONTINUOUS
10
2.5004
20
-5.72715
11
2.49665
21
-5.71965
0
LINE
8
BLACK
6
CONTINUOUS
10
2.49665
20
-5.71965
11
2.49665
21
-5.65216
0
LINE
8
BLACK
6
CONTINUOUS
10
2.56789
20
-5.72715
11
2.56039
21
-5.7309
0
LINE
8
BLACK
6
CONTINUOUS
10
2.56039
20
-5.7309
11
2.54539
21
-5.7309
0
LINE
8
BLACK
6
CONTINUOUS
10
2.54539
20
-5.7309
11
2.5379
21
-5.72715
0
LINE
8
BLACK
6
CONTINUOUS
10
2.5379
20
-5.72715
11
2.53415
21
-5.71965
0
LINE
8
BLACK
6
CONTINUOUS
10
2.53415
20
-5.71965
11
2.53415
21
-5.68965
0
LINE
8
BLACK
6
CONTINUOUS
10
2.53415
20
-5.68965
11
2.5379
21
-5.68216
0
LINE
8
BLACK
6
CONTINUOUS
10
2.5379
20
-5.68216
11
2.54539
21
-5.67841
0
LINE
8
BLACK
6
CONTINUOUS
10
2.54539
20
-5.67841
11
2.56039
21
-5.67841
0
LINE
8
BLACK
6
CONTINUOUS
10
2.56039
20
-5.67841
11
2.56789
21
-5.68216
0
LINE
8
BLACK
6
CONTINUOUS
10
2.56789
20
-5.68216
11
2.57164
21
-5.68965
0
LINE
8
BLACK
6
CONTINUOUS
10
2.57164
20
-5.68965
11
2.57164
21
-5.69715
0
LINE
8
BLACK
6
CONTINUOUS
10
2.57164
20
-5.69715
11
2.53415
21
-5.70465
0
LINE
8
BLACK
6
CONTINUOUS
10
2.60164
20
-5.72715
11
2.60914
21
-5.7309
0
LINE
8
BLACK
6
CONTINUOUS
10
2.60914
20
-5.7309
11
2.62413
21
-5.7309
0
LINE
8
BLACK
6
CONTINUOUS
10
2.62413
20
-5.7309
11
2.63163
21
-5.72715
0
LINE
8
BLACK
6
CONTINUOUS
10
2.63163
20
-5.72715
11
2.63538
21
-5.71965
0
LINE
8
BLACK
6
CONTINUOUS
10
2.63538
20
-5.71965
11
2.63538
21
-5.7159
0
LINE
8
BLACK
6
CONTINUOUS
10
2.63538
20
-5.7159
11
2.63163
21
-5.7084
0
LINE
8
BLACK
6
CONTINUOUS
10
2.63163
20
-5.7084
11
2.62413
21
-5.70465
0
LINE
8
BLACK
6
CONTINUOUS
10
2.62413
20
-5.70465
11
2.61289
21
-5.70465
0
LINE
8
BLACK
6
CONTINUOUS
10
2.61289
20
-5.70465
11
2.60539
21
-5.7009
0
LINE
8
BLACK
6
CONTINUOUS
10
2.60539
20
-5.7009
11
2.60164
21
-5.6934
0
LINE
8
BLACK
6
CONTINUOUS
10
2.60164
20
-5.6934
11
2.60164
21
-5.68965
0
LINE
8
BLACK
6
CONTINUOUS
10
2.60164
20
-5.68965
11
2.60539
21
-5.68216
0
LINE
8
BLACK
6
CONTINUOUS
10
2.60539
20
-5.68216
11
2.61289
21
-5.67841
0
LINE
8
BLACK
6
CONTINUOUS
10
2.61289
20
-5.67841
11
2.62413
21
-5.67841
0
LINE
8
BLACK
6
CONTINUOUS
10
2.62413
20
-5.67841
11
2.63163
21
-5.68216
0
LINE
8
BLACK
6
CONTINUOUS
10
2.66163
20
-5.7609
11
2.66538
21
-5.75715
0
LINE
8
BLACK
6
CONTINUOUS
10
2.66538
20
-5.75715
11
2.67288
21
-5.7459
0
LINE
8
BLACK
6
CONTINUOUS
10
2.67288
20
-5.7459
11
2.67663
21
-5.7384
0
LINE
8
BLACK
6
CONTINUOUS
10
2.67663
20
-5.7384
11
2.68038
21
-5.72715
0
LINE
8
BLACK
6
CONTINUOUS
10
2.68038
20
-5.72715
11
2.68413
21
-5.7084
0
LINE
8
BLACK
6
CONTINUOUS
10
2.68413
20
-5.7084
11
2.68413
21
-5.6934
0
LINE
8
BLACK
6
CONTINUOUS
10
2.68413
20
-5.6934
11
2.68038
21
-5.67466
0
LINE
8
BLACK
6
CONTINUOUS
10
2.68038
20
-5.67466
11
2.67663
21
-5.66341
0
LINE
8
BLACK
6
CONTINUOUS
10
2.67663
20
-5.66341
11
2.67288
21
-5.65591
0
LINE
8
BLACK
6
CONTINUOUS
10
2.67288
20
-5.65591
11
2.66538
21
-5.64466
0
LINE
8
BLACK
6
CONTINUOUS
10
2.66538
20
-5.64466
11
2.66163
21
-5.64091
  0
ENDSEC
  0
EOF
