M48
; DRILL file {KiCad 7.0.7} date Wed Oct  4 19:01:06 2023
; FORMAT={-:-/ absolute / inch / decimal}
; #@! TF.CreationDate,2023-10-04T19:01:06+09:00
; #@! TF.GenerationSoftware,Kicad,Pcbnew,7.0.7
; #@! TF.FileFunction,NonPlated,1,2,NPTH
FMAT,2
INCH
; #@! TA.AperFunction,NonPlated,NPTH,ComponentDrill
T1C0.0256
; #@! TA.AperFunction,NonPlated,NPTH,ComponentDrill
T2C0.0669
; #@! TA.AperFunction,NonPlated,NPTH,ComponentDrill
T3C0.1201
; #@! TA.AperFunction,NonPlated,NPTH,ComponentDrill
T4C0.1260
; #@! TA.AperFunction,NonPlated,NPTH,ComponentDrill
T5C0.1575
%
G90
G05
T1
X5.3193Y-0.9608
X5.5469Y-0.9608
T2
X1.1123Y-3.5662
X1.4873Y-1.3162
X1.5123Y-3.5662
X1.8623Y-2.0662
X1.8873Y-1.3162
X2.2623Y-2.0662
X2.6123Y-1.3162
X2.6123Y-2.0662
X2.6123Y-2.8162
X3.0123Y-1.3162
X3.0123Y-2.0662
X3.0123Y-2.8162
X3.3623Y-2.0662
X3.7373Y-4.3162
X3.7623Y-2.0662
X4.1373Y-4.3162
X4.8623Y-2.0662
X4.8623Y-2.8162
X5.2623Y-2.0662
X5.2623Y-2.8162
X5.6123Y-2.0662
X5.6123Y-2.8162
X6.0123Y-2.0662
X6.0123Y-2.8162
X6.7373Y-4.3162
X7.1123Y-2.0662
X7.1373Y-4.3162
X7.5123Y-2.0662
X7.8623Y-1.3162
X7.8623Y-2.0662
X7.8623Y-2.8162
X8.2623Y-1.3162
X8.2623Y-2.0662
X8.2623Y-2.8162
X8.6123Y-2.0662
X8.9873Y-1.3162
X9.0123Y-2.0662
X9.3623Y-3.5662
X9.3873Y-1.3162
X9.7623Y-3.5662
T3
X1.2188Y-1.0406
X2.1558Y-1.0406
X3.4688Y-4.0406
X4.4058Y-4.0406
X6.4688Y-4.0406
X7.4058Y-4.0406
X8.7188Y-1.0406
X9.6558Y-1.0406
T4
X0.8661Y-0.8661
X0.8661Y-4.7638
X10.0Y-0.9055
X10.0Y-4.7638
T5
X1.2188Y-1.6406
X1.3123Y-3.5662
X1.6873Y-1.3162
X2.0623Y-2.0662
X2.1558Y-1.6406
X2.8123Y-1.3162
X2.8123Y-2.0662
X2.8123Y-2.8162
X3.4688Y-4.6406
X3.5623Y-2.0662
X3.9373Y-4.3162
X4.4058Y-4.6406
X5.0623Y-2.0662
X5.0623Y-2.8162
X5.8123Y-2.0662
X5.8123Y-2.8162
X6.4688Y-4.6406
X6.9373Y-4.3162
X7.3123Y-2.0662
X7.4058Y-4.6406
X8.0623Y-1.3162
X8.0623Y-2.0662
X8.0623Y-2.8162
X8.7188Y-1.6406
X8.8123Y-2.0662
X9.1873Y-1.3162
X9.5623Y-3.5662
X9.6558Y-1.6406
T0
M30
