M48
; DRILL file {KiCad 7.0.7} date Fri Oct  6 06:04:05 2023
; FORMAT={-:-/ absolute / inch / decimal}
; #@! TF.CreationDate,2023-10-06T06:04:05+09:00
; #@! TF.GenerationSoftware,Kicad,Pcbnew,7.0.7
; #@! TF.FileFunction,Plated,1,2,PTH
FMAT,2
INCH
; #@! TA.AperFunction,Plated,PTH,ViaDrill
T1C0.0118
; #@! TA.AperFunction,Plated,PTH,ComponentDrill
T2C0.0236
; #@! TA.AperFunction,Plated,PTH,ComponentDrill
T3C0.0394
; #@! TA.AperFunction,Plated,PTH,ComponentDrill
T4C0.0591
%
G90
G05
T1
X1.7913Y-1.4954
X1.7913Y-1.5597
X2.9123Y-1.5723
X2.9134Y-1.4921
X2.9134Y-2.2454
X2.9134Y-2.3097
X4.063Y-0.9095
X4.063Y-0.9567
X4.4213Y-3.1457
X4.5669Y-2.4016
X4.5827Y-1.6024
X4.5827Y-1.7913
X4.6063Y-3.1457
X4.6299Y-1.6024
X4.6299Y-3.1693
X4.6526Y-1.5266
X4.6535Y-1.5591
X4.7008Y-1.5276
X4.7008Y-1.5591
X4.7008Y-1.7913
X4.7008Y-2.4016
X4.7008Y-3.3425
X4.7244Y-3.7047
X4.7244Y-3.7362
X4.7244Y-3.5472
X4.7244Y-3.5787
X4.7244Y-3.6102
X4.7244Y-3.6417
X4.7244Y-3.6732
X4.7244Y-3.7677
X4.7244Y-3.7992
X4.7244Y-3.8344
X4.7402Y-4.4954
X4.7402Y-4.5597
X4.7598Y-3.1693
X4.7613Y-3.3283
X4.8316Y-3.2914
X4.8328Y-4.3758
X4.8538Y-3.2692
X4.8819Y-3.6417
X4.8819Y-3.5472
X4.8819Y-3.5787
X4.8819Y-3.7046
X4.8819Y-3.7361
X4.8819Y-3.7676
X4.8819Y-3.6732
X4.8819Y-3.6102
X4.9094Y-3.5157
X4.9094Y-3.7913
X4.914Y-4.4237
X4.9206Y-3.3805
X4.9429Y-3.3582
X5.0669Y-3.1693
X5.1299Y-1.5236
X5.1301Y-1.5591
X5.1378Y-3.2008
X5.1378Y-3.3346
X5.1614Y-2.2454
X5.1623Y-2.3145
X5.1693Y-3.3346
X5.1693Y-3.2008
X5.1944Y-1.5236
X5.1944Y-1.5591
X5.2007Y-3.3346
X5.2008Y-3.2008
X5.2322Y-3.3347
X5.2323Y-3.2008
X5.2323Y-1.0866
X5.248Y-4.4738
X5.2637Y-3.3346
X5.2657Y-3.2008
X5.2677Y-4.0157
X5.2835Y-4.1492
X5.2835Y-4.2122
X5.2855Y-1.5236
X5.2855Y-1.5591
X5.3012Y-2.9528
X5.3012Y-2.3701
X5.3012Y-2.4016
X5.3071Y-3.8819
X5.3248Y-2.0217
X5.3316Y-3.7489
X5.3327Y-1.5236
X5.3327Y-1.5591
X5.3642Y-3.5755
X5.3819Y-2.1929
X5.3858Y-3.4409
X5.3858Y-3.4921
X5.3858Y-3.5433
X5.3903Y-4.376
X5.3911Y-4.4252
X5.3911Y-4.4738
X5.3922Y-1.1437
X5.3937Y-0.937
X5.3937Y-4.0236
X5.3957Y-1.7106
X5.3969Y-3.8083
X5.4035Y-1.0827
X5.4055Y-1.8268
X5.4292Y-2.6477
X5.4304Y-3.7493
X5.437Y-3.4409
X5.437Y-3.4921
X5.437Y-3.5433
X5.4527Y-3.3257
X5.4528Y-1.8977
X5.4528Y-3.237
X5.4606Y-3.5755
X5.4626Y-1.0827
X5.4685Y-3.4055
X5.4724Y-0.937
X5.4783Y-1.7106
X5.4843Y-3.874
X5.4882Y-3.4409
X5.4882Y-3.4921
X5.4882Y-3.5433
X5.4943Y-3.7187
X5.5236Y-3.6929
X5.5315Y-1.8268
X5.5315Y-1.8977
X5.5315Y-2.0217
X5.5315Y-2.1929
X5.5315Y-2.6477
X5.5315Y-2.9528
X5.5394Y-2.3701
X5.5394Y-2.4016
X5.5394Y-3.1693
X5.5866Y-3.8504
X5.6102Y-3.5315
X5.6121Y-3.2374
X5.6339Y-1.0866
X5.7035Y-4.2244
X5.7323Y-1.5236
X5.7323Y-1.5591
X5.8386Y-3.8268
X5.8831Y-4.2244
X5.8898Y-2.9961
X5.8911Y-3.0617
X5.9123Y-2.3148
X5.9134Y-2.2454
X5.9173Y-4.1485
X5.918Y-3.2819
X5.9217Y-4.3323
X5.9449Y-1.5236
X5.9449Y-1.5591
X5.9764Y-3.8307
X5.9764Y-4.1457
X5.9764Y-4.2205
X6.2087Y-2.6926
X6.2087Y-3.1457
X6.2087Y-2.7398
X6.2087Y-3.1929
X6.2402Y-2.6926
X6.2402Y-2.7398
X6.2402Y-3.1457
X6.2402Y-3.1929
X8.1614Y-1.4823
X8.1623Y-1.5628
X8.1634Y-2.243
X8.1634Y-2.3074
T3
X5.3659Y-4.6976
X5.3659Y-4.7976
X5.5081Y-4.6976
X5.5081Y-4.7976
T4
X1.1623Y-3.4662
X1.4123Y-3.3662
X1.5373Y-1.2162
X1.7873Y-1.1162
X1.9123Y-1.9662
X2.1623Y-1.8662
X2.6623Y-1.2162
X2.6623Y-1.9662
X2.6623Y-2.7162
X2.9123Y-1.1162
X2.9123Y-1.8662
X2.9123Y-2.6162
X3.4123Y-1.9662
X3.6623Y-1.8662
X3.7873Y-4.2162
X4.0373Y-4.1162
X4.9123Y-1.9662
X4.9123Y-2.7162
X5.1623Y-1.8662
X5.1623Y-2.6162
X5.6623Y-1.9662
X5.6623Y-2.7162
X5.9123Y-1.8662
X5.9123Y-2.6162
X6.7873Y-4.2162
X7.0373Y-4.1162
X7.1623Y-1.9662
X7.4123Y-1.8662
X7.9123Y-1.2162
X7.9123Y-1.9662
X7.9123Y-2.7162
X8.1623Y-1.1162
X8.1623Y-1.8662
X8.1623Y-2.6162
X8.6623Y-1.9662
X8.9123Y-1.8662
X9.0373Y-1.2162
X9.2873Y-1.1162
X9.4123Y-3.4662
X9.6623Y-3.3662
T2
G00X5.263Y-0.8317
M15
G01X5.263Y-0.8002
M16
G05
G00X5.263Y-1.0022
M15
G01X5.263Y-0.9589
M16
G05
G00X5.6031Y-0.8317
M15
G01X5.6031Y-0.8002
M16
G05
G00X5.6031Y-1.0022
M15
G01X5.6031Y-0.9589
M16
G05
T0
M30
