%TF.GenerationSoftware,KiCad,Pcbnew,7.0.7*%
%TF.CreationDate,2023-10-04T19:00:40+09:00*%
%TF.ProjectId,Sixtar-Switch,53697874-6172-42d5-9377-697463682e6b,rev?*%
%TF.SameCoordinates,Original*%
%TF.FileFunction,AssemblyDrawing,Bot*%
%FSLAX46Y46*%
G04 Gerber Fmt 4.6, Leading zero omitted, Abs format (unit mm)*
G04 Created by KiCad (PCBNEW 7.0.7) date 2023-10-04 19:00:40*
%MOMM*%
%LPD*%
G01*
G04 APERTURE LIST*
%ADD10C,0.150000*%
%ADD11C,0.080000*%
%ADD12C,0.100000*%
G04 APERTURE END LIST*
D10*
X146661547Y-93814819D02*
X147232975Y-93814819D01*
X146947261Y-93814819D02*
X146947261Y-92814819D01*
X146947261Y-92814819D02*
X147042499Y-92957676D01*
X147042499Y-92957676D02*
X147137737Y-93052914D01*
X147137737Y-93052914D02*
X147232975Y-93100533D01*
X146042499Y-92814819D02*
X145947261Y-92814819D01*
X145947261Y-92814819D02*
X145852023Y-92862438D01*
X145852023Y-92862438D02*
X145804404Y-92910057D01*
X145804404Y-92910057D02*
X145756785Y-93005295D01*
X145756785Y-93005295D02*
X145709166Y-93195771D01*
X145709166Y-93195771D02*
X145709166Y-93433866D01*
X145709166Y-93433866D02*
X145756785Y-93624342D01*
X145756785Y-93624342D02*
X145804404Y-93719580D01*
X145804404Y-93719580D02*
X145852023Y-93767200D01*
X145852023Y-93767200D02*
X145947261Y-93814819D01*
X145947261Y-93814819D02*
X146042499Y-93814819D01*
X146042499Y-93814819D02*
X146137737Y-93767200D01*
X146137737Y-93767200D02*
X146185356Y-93719580D01*
X146185356Y-93719580D02*
X146232975Y-93624342D01*
X146232975Y-93624342D02*
X146280594Y-93433866D01*
X146280594Y-93433866D02*
X146280594Y-93195771D01*
X146280594Y-93195771D02*
X146232975Y-93005295D01*
X146232975Y-93005295D02*
X146185356Y-92910057D01*
X146185356Y-92910057D02*
X146137737Y-92862438D01*
X146137737Y-92862438D02*
X146042499Y-92814819D01*
X145090118Y-92814819D02*
X144994880Y-92814819D01*
X144994880Y-92814819D02*
X144899642Y-92862438D01*
X144899642Y-92862438D02*
X144852023Y-92910057D01*
X144852023Y-92910057D02*
X144804404Y-93005295D01*
X144804404Y-93005295D02*
X144756785Y-93195771D01*
X144756785Y-93195771D02*
X144756785Y-93433866D01*
X144756785Y-93433866D02*
X144804404Y-93624342D01*
X144804404Y-93624342D02*
X144852023Y-93719580D01*
X144852023Y-93719580D02*
X144899642Y-93767200D01*
X144899642Y-93767200D02*
X144994880Y-93814819D01*
X144994880Y-93814819D02*
X145090118Y-93814819D01*
X145090118Y-93814819D02*
X145185356Y-93767200D01*
X145185356Y-93767200D02*
X145232975Y-93719580D01*
X145232975Y-93719580D02*
X145280594Y-93624342D01*
X145280594Y-93624342D02*
X145328213Y-93433866D01*
X145328213Y-93433866D02*
X145328213Y-93195771D01*
X145328213Y-93195771D02*
X145280594Y-93005295D01*
X145280594Y-93005295D02*
X145232975Y-92910057D01*
X145232975Y-92910057D02*
X145185356Y-92862438D01*
X145185356Y-92862438D02*
X145090118Y-92814819D01*
X143899642Y-93148152D02*
X143899642Y-93814819D01*
X144328213Y-93148152D02*
X144328213Y-93671961D01*
X144328213Y-93671961D02*
X144280594Y-93767200D01*
X144280594Y-93767200D02*
X144185356Y-93814819D01*
X144185356Y-93814819D02*
X144042499Y-93814819D01*
X144042499Y-93814819D02*
X143947261Y-93767200D01*
X143947261Y-93767200D02*
X143899642Y-93719580D01*
D11*
X149601428Y-93539530D02*
X149625237Y-93563340D01*
X149625237Y-93563340D02*
X149696666Y-93587149D01*
X149696666Y-93587149D02*
X149744285Y-93587149D01*
X149744285Y-93587149D02*
X149815713Y-93563340D01*
X149815713Y-93563340D02*
X149863332Y-93515720D01*
X149863332Y-93515720D02*
X149887142Y-93468101D01*
X149887142Y-93468101D02*
X149910951Y-93372863D01*
X149910951Y-93372863D02*
X149910951Y-93301435D01*
X149910951Y-93301435D02*
X149887142Y-93206197D01*
X149887142Y-93206197D02*
X149863332Y-93158578D01*
X149863332Y-93158578D02*
X149815713Y-93110959D01*
X149815713Y-93110959D02*
X149744285Y-93087149D01*
X149744285Y-93087149D02*
X149696666Y-93087149D01*
X149696666Y-93087149D02*
X149625237Y-93110959D01*
X149625237Y-93110959D02*
X149601428Y-93134768D01*
X149125237Y-93587149D02*
X149410951Y-93587149D01*
X149268094Y-93587149D02*
X149268094Y-93087149D01*
X149268094Y-93087149D02*
X149315713Y-93158578D01*
X149315713Y-93158578D02*
X149363332Y-93206197D01*
X149363332Y-93206197D02*
X149410951Y-93230006D01*
X148934761Y-93134768D02*
X148910952Y-93110959D01*
X148910952Y-93110959D02*
X148863333Y-93087149D01*
X148863333Y-93087149D02*
X148744285Y-93087149D01*
X148744285Y-93087149D02*
X148696666Y-93110959D01*
X148696666Y-93110959D02*
X148672857Y-93134768D01*
X148672857Y-93134768D02*
X148649047Y-93182387D01*
X148649047Y-93182387D02*
X148649047Y-93230006D01*
X148649047Y-93230006D02*
X148672857Y-93301435D01*
X148672857Y-93301435D02*
X148958571Y-93587149D01*
X148958571Y-93587149D02*
X148649047Y-93587149D01*
D10*
X146649047Y-89814819D02*
X147220475Y-89814819D01*
X146934761Y-89814819D02*
X146934761Y-88814819D01*
X146934761Y-88814819D02*
X147029999Y-88957676D01*
X147029999Y-88957676D02*
X147125237Y-89052914D01*
X147125237Y-89052914D02*
X147220475Y-89100533D01*
X146029999Y-88814819D02*
X145934761Y-88814819D01*
X145934761Y-88814819D02*
X145839523Y-88862438D01*
X145839523Y-88862438D02*
X145791904Y-88910057D01*
X145791904Y-88910057D02*
X145744285Y-89005295D01*
X145744285Y-89005295D02*
X145696666Y-89195771D01*
X145696666Y-89195771D02*
X145696666Y-89433866D01*
X145696666Y-89433866D02*
X145744285Y-89624342D01*
X145744285Y-89624342D02*
X145791904Y-89719580D01*
X145791904Y-89719580D02*
X145839523Y-89767200D01*
X145839523Y-89767200D02*
X145934761Y-89814819D01*
X145934761Y-89814819D02*
X146029999Y-89814819D01*
X146029999Y-89814819D02*
X146125237Y-89767200D01*
X146125237Y-89767200D02*
X146172856Y-89719580D01*
X146172856Y-89719580D02*
X146220475Y-89624342D01*
X146220475Y-89624342D02*
X146268094Y-89433866D01*
X146268094Y-89433866D02*
X146268094Y-89195771D01*
X146268094Y-89195771D02*
X146220475Y-89005295D01*
X146220475Y-89005295D02*
X146172856Y-88910057D01*
X146172856Y-88910057D02*
X146125237Y-88862438D01*
X146125237Y-88862438D02*
X146029999Y-88814819D01*
X145077618Y-88814819D02*
X144982380Y-88814819D01*
X144982380Y-88814819D02*
X144887142Y-88862438D01*
X144887142Y-88862438D02*
X144839523Y-88910057D01*
X144839523Y-88910057D02*
X144791904Y-89005295D01*
X144791904Y-89005295D02*
X144744285Y-89195771D01*
X144744285Y-89195771D02*
X144744285Y-89433866D01*
X144744285Y-89433866D02*
X144791904Y-89624342D01*
X144791904Y-89624342D02*
X144839523Y-89719580D01*
X144839523Y-89719580D02*
X144887142Y-89767200D01*
X144887142Y-89767200D02*
X144982380Y-89814819D01*
X144982380Y-89814819D02*
X145077618Y-89814819D01*
X145077618Y-89814819D02*
X145172856Y-89767200D01*
X145172856Y-89767200D02*
X145220475Y-89719580D01*
X145220475Y-89719580D02*
X145268094Y-89624342D01*
X145268094Y-89624342D02*
X145315713Y-89433866D01*
X145315713Y-89433866D02*
X145315713Y-89195771D01*
X145315713Y-89195771D02*
X145268094Y-89005295D01*
X145268094Y-89005295D02*
X145220475Y-88910057D01*
X145220475Y-88910057D02*
X145172856Y-88862438D01*
X145172856Y-88862438D02*
X145077618Y-88814819D01*
X143887142Y-89148152D02*
X143887142Y-89814819D01*
X144315713Y-89148152D02*
X144315713Y-89671961D01*
X144315713Y-89671961D02*
X144268094Y-89767200D01*
X144268094Y-89767200D02*
X144172856Y-89814819D01*
X144172856Y-89814819D02*
X144029999Y-89814819D01*
X144029999Y-89814819D02*
X143934761Y-89767200D01*
X143934761Y-89767200D02*
X143887142Y-89719580D01*
D11*
X149601428Y-89539530D02*
X149625237Y-89563340D01*
X149625237Y-89563340D02*
X149696666Y-89587149D01*
X149696666Y-89587149D02*
X149744285Y-89587149D01*
X149744285Y-89587149D02*
X149815713Y-89563340D01*
X149815713Y-89563340D02*
X149863332Y-89515720D01*
X149863332Y-89515720D02*
X149887142Y-89468101D01*
X149887142Y-89468101D02*
X149910951Y-89372863D01*
X149910951Y-89372863D02*
X149910951Y-89301435D01*
X149910951Y-89301435D02*
X149887142Y-89206197D01*
X149887142Y-89206197D02*
X149863332Y-89158578D01*
X149863332Y-89158578D02*
X149815713Y-89110959D01*
X149815713Y-89110959D02*
X149744285Y-89087149D01*
X149744285Y-89087149D02*
X149696666Y-89087149D01*
X149696666Y-89087149D02*
X149625237Y-89110959D01*
X149625237Y-89110959D02*
X149601428Y-89134768D01*
X149125237Y-89587149D02*
X149410951Y-89587149D01*
X149268094Y-89587149D02*
X149268094Y-89087149D01*
X149268094Y-89087149D02*
X149315713Y-89158578D01*
X149315713Y-89158578D02*
X149363332Y-89206197D01*
X149363332Y-89206197D02*
X149410951Y-89230006D01*
X148815714Y-89087149D02*
X148768095Y-89087149D01*
X148768095Y-89087149D02*
X148720476Y-89110959D01*
X148720476Y-89110959D02*
X148696666Y-89134768D01*
X148696666Y-89134768D02*
X148672857Y-89182387D01*
X148672857Y-89182387D02*
X148649047Y-89277625D01*
X148649047Y-89277625D02*
X148649047Y-89396673D01*
X148649047Y-89396673D02*
X148672857Y-89491911D01*
X148672857Y-89491911D02*
X148696666Y-89539530D01*
X148696666Y-89539530D02*
X148720476Y-89563340D01*
X148720476Y-89563340D02*
X148768095Y-89587149D01*
X148768095Y-89587149D02*
X148815714Y-89587149D01*
X148815714Y-89587149D02*
X148863333Y-89563340D01*
X148863333Y-89563340D02*
X148887142Y-89539530D01*
X148887142Y-89539530D02*
X148910952Y-89491911D01*
X148910952Y-89491911D02*
X148934761Y-89396673D01*
X148934761Y-89396673D02*
X148934761Y-89277625D01*
X148934761Y-89277625D02*
X148910952Y-89182387D01*
X148910952Y-89182387D02*
X148887142Y-89134768D01*
X148887142Y-89134768D02*
X148863333Y-89110959D01*
X148863333Y-89110959D02*
X148815714Y-89087149D01*
D10*
X133031785Y-83814819D02*
X133603213Y-83814819D01*
X133317499Y-83814819D02*
X133317499Y-82814819D01*
X133317499Y-82814819D02*
X133412737Y-82957676D01*
X133412737Y-82957676D02*
X133507975Y-83052914D01*
X133507975Y-83052914D02*
X133603213Y-83100533D01*
X132412737Y-82814819D02*
X132317499Y-82814819D01*
X132317499Y-82814819D02*
X132222261Y-82862438D01*
X132222261Y-82862438D02*
X132174642Y-82910057D01*
X132174642Y-82910057D02*
X132127023Y-83005295D01*
X132127023Y-83005295D02*
X132079404Y-83195771D01*
X132079404Y-83195771D02*
X132079404Y-83433866D01*
X132079404Y-83433866D02*
X132127023Y-83624342D01*
X132127023Y-83624342D02*
X132174642Y-83719580D01*
X132174642Y-83719580D02*
X132222261Y-83767200D01*
X132222261Y-83767200D02*
X132317499Y-83814819D01*
X132317499Y-83814819D02*
X132412737Y-83814819D01*
X132412737Y-83814819D02*
X132507975Y-83767200D01*
X132507975Y-83767200D02*
X132555594Y-83719580D01*
X132555594Y-83719580D02*
X132603213Y-83624342D01*
X132603213Y-83624342D02*
X132650832Y-83433866D01*
X132650832Y-83433866D02*
X132650832Y-83195771D01*
X132650832Y-83195771D02*
X132603213Y-83005295D01*
X132603213Y-83005295D02*
X132555594Y-82910057D01*
X132555594Y-82910057D02*
X132507975Y-82862438D01*
X132507975Y-82862438D02*
X132412737Y-82814819D01*
X131460356Y-82814819D02*
X131365118Y-82814819D01*
X131365118Y-82814819D02*
X131269880Y-82862438D01*
X131269880Y-82862438D02*
X131222261Y-82910057D01*
X131222261Y-82910057D02*
X131174642Y-83005295D01*
X131174642Y-83005295D02*
X131127023Y-83195771D01*
X131127023Y-83195771D02*
X131127023Y-83433866D01*
X131127023Y-83433866D02*
X131174642Y-83624342D01*
X131174642Y-83624342D02*
X131222261Y-83719580D01*
X131222261Y-83719580D02*
X131269880Y-83767200D01*
X131269880Y-83767200D02*
X131365118Y-83814819D01*
X131365118Y-83814819D02*
X131460356Y-83814819D01*
X131460356Y-83814819D02*
X131555594Y-83767200D01*
X131555594Y-83767200D02*
X131603213Y-83719580D01*
X131603213Y-83719580D02*
X131650832Y-83624342D01*
X131650832Y-83624342D02*
X131698451Y-83433866D01*
X131698451Y-83433866D02*
X131698451Y-83195771D01*
X131698451Y-83195771D02*
X131650832Y-83005295D01*
X131650832Y-83005295D02*
X131603213Y-82910057D01*
X131603213Y-82910057D02*
X131555594Y-82862438D01*
X131555594Y-82862438D02*
X131460356Y-82814819D01*
X130269880Y-83148152D02*
X130269880Y-83814819D01*
X130698451Y-83148152D02*
X130698451Y-83671961D01*
X130698451Y-83671961D02*
X130650832Y-83767200D01*
X130650832Y-83767200D02*
X130555594Y-83814819D01*
X130555594Y-83814819D02*
X130412737Y-83814819D01*
X130412737Y-83814819D02*
X130317499Y-83767200D01*
X130317499Y-83767200D02*
X130269880Y-83719580D01*
D11*
X128336071Y-83539530D02*
X128359880Y-83563340D01*
X128359880Y-83563340D02*
X128431309Y-83587149D01*
X128431309Y-83587149D02*
X128478928Y-83587149D01*
X128478928Y-83587149D02*
X128550356Y-83563340D01*
X128550356Y-83563340D02*
X128597975Y-83515720D01*
X128597975Y-83515720D02*
X128621785Y-83468101D01*
X128621785Y-83468101D02*
X128645594Y-83372863D01*
X128645594Y-83372863D02*
X128645594Y-83301435D01*
X128645594Y-83301435D02*
X128621785Y-83206197D01*
X128621785Y-83206197D02*
X128597975Y-83158578D01*
X128597975Y-83158578D02*
X128550356Y-83110959D01*
X128550356Y-83110959D02*
X128478928Y-83087149D01*
X128478928Y-83087149D02*
X128431309Y-83087149D01*
X128431309Y-83087149D02*
X128359880Y-83110959D01*
X128359880Y-83110959D02*
X128336071Y-83134768D01*
X127883690Y-83087149D02*
X128121785Y-83087149D01*
X128121785Y-83087149D02*
X128145594Y-83325244D01*
X128145594Y-83325244D02*
X128121785Y-83301435D01*
X128121785Y-83301435D02*
X128074166Y-83277625D01*
X128074166Y-83277625D02*
X127955118Y-83277625D01*
X127955118Y-83277625D02*
X127907499Y-83301435D01*
X127907499Y-83301435D02*
X127883690Y-83325244D01*
X127883690Y-83325244D02*
X127859880Y-83372863D01*
X127859880Y-83372863D02*
X127859880Y-83491911D01*
X127859880Y-83491911D02*
X127883690Y-83539530D01*
X127883690Y-83539530D02*
X127907499Y-83563340D01*
X127907499Y-83563340D02*
X127955118Y-83587149D01*
X127955118Y-83587149D02*
X128074166Y-83587149D01*
X128074166Y-83587149D02*
X128121785Y-83563340D01*
X128121785Y-83563340D02*
X128145594Y-83539530D01*
D10*
X146661547Y-85814819D02*
X147232975Y-85814819D01*
X146947261Y-85814819D02*
X146947261Y-84814819D01*
X146947261Y-84814819D02*
X147042499Y-84957676D01*
X147042499Y-84957676D02*
X147137737Y-85052914D01*
X147137737Y-85052914D02*
X147232975Y-85100533D01*
X146042499Y-84814819D02*
X145947261Y-84814819D01*
X145947261Y-84814819D02*
X145852023Y-84862438D01*
X145852023Y-84862438D02*
X145804404Y-84910057D01*
X145804404Y-84910057D02*
X145756785Y-85005295D01*
X145756785Y-85005295D02*
X145709166Y-85195771D01*
X145709166Y-85195771D02*
X145709166Y-85433866D01*
X145709166Y-85433866D02*
X145756785Y-85624342D01*
X145756785Y-85624342D02*
X145804404Y-85719580D01*
X145804404Y-85719580D02*
X145852023Y-85767200D01*
X145852023Y-85767200D02*
X145947261Y-85814819D01*
X145947261Y-85814819D02*
X146042499Y-85814819D01*
X146042499Y-85814819D02*
X146137737Y-85767200D01*
X146137737Y-85767200D02*
X146185356Y-85719580D01*
X146185356Y-85719580D02*
X146232975Y-85624342D01*
X146232975Y-85624342D02*
X146280594Y-85433866D01*
X146280594Y-85433866D02*
X146280594Y-85195771D01*
X146280594Y-85195771D02*
X146232975Y-85005295D01*
X146232975Y-85005295D02*
X146185356Y-84910057D01*
X146185356Y-84910057D02*
X146137737Y-84862438D01*
X146137737Y-84862438D02*
X146042499Y-84814819D01*
X145090118Y-84814819D02*
X144994880Y-84814819D01*
X144994880Y-84814819D02*
X144899642Y-84862438D01*
X144899642Y-84862438D02*
X144852023Y-84910057D01*
X144852023Y-84910057D02*
X144804404Y-85005295D01*
X144804404Y-85005295D02*
X144756785Y-85195771D01*
X144756785Y-85195771D02*
X144756785Y-85433866D01*
X144756785Y-85433866D02*
X144804404Y-85624342D01*
X144804404Y-85624342D02*
X144852023Y-85719580D01*
X144852023Y-85719580D02*
X144899642Y-85767200D01*
X144899642Y-85767200D02*
X144994880Y-85814819D01*
X144994880Y-85814819D02*
X145090118Y-85814819D01*
X145090118Y-85814819D02*
X145185356Y-85767200D01*
X145185356Y-85767200D02*
X145232975Y-85719580D01*
X145232975Y-85719580D02*
X145280594Y-85624342D01*
X145280594Y-85624342D02*
X145328213Y-85433866D01*
X145328213Y-85433866D02*
X145328213Y-85195771D01*
X145328213Y-85195771D02*
X145280594Y-85005295D01*
X145280594Y-85005295D02*
X145232975Y-84910057D01*
X145232975Y-84910057D02*
X145185356Y-84862438D01*
X145185356Y-84862438D02*
X145090118Y-84814819D01*
X143899642Y-85148152D02*
X143899642Y-85814819D01*
X144328213Y-85148152D02*
X144328213Y-85671961D01*
X144328213Y-85671961D02*
X144280594Y-85767200D01*
X144280594Y-85767200D02*
X144185356Y-85814819D01*
X144185356Y-85814819D02*
X144042499Y-85814819D01*
X144042499Y-85814819D02*
X143947261Y-85767200D01*
X143947261Y-85767200D02*
X143899642Y-85719580D01*
D11*
X149363333Y-85539530D02*
X149387142Y-85563340D01*
X149387142Y-85563340D02*
X149458571Y-85587149D01*
X149458571Y-85587149D02*
X149506190Y-85587149D01*
X149506190Y-85587149D02*
X149577618Y-85563340D01*
X149577618Y-85563340D02*
X149625237Y-85515720D01*
X149625237Y-85515720D02*
X149649047Y-85468101D01*
X149649047Y-85468101D02*
X149672856Y-85372863D01*
X149672856Y-85372863D02*
X149672856Y-85301435D01*
X149672856Y-85301435D02*
X149649047Y-85206197D01*
X149649047Y-85206197D02*
X149625237Y-85158578D01*
X149625237Y-85158578D02*
X149577618Y-85110959D01*
X149577618Y-85110959D02*
X149506190Y-85087149D01*
X149506190Y-85087149D02*
X149458571Y-85087149D01*
X149458571Y-85087149D02*
X149387142Y-85110959D01*
X149387142Y-85110959D02*
X149363333Y-85134768D01*
X149077618Y-85301435D02*
X149125237Y-85277625D01*
X149125237Y-85277625D02*
X149149047Y-85253816D01*
X149149047Y-85253816D02*
X149172856Y-85206197D01*
X149172856Y-85206197D02*
X149172856Y-85182387D01*
X149172856Y-85182387D02*
X149149047Y-85134768D01*
X149149047Y-85134768D02*
X149125237Y-85110959D01*
X149125237Y-85110959D02*
X149077618Y-85087149D01*
X149077618Y-85087149D02*
X148982380Y-85087149D01*
X148982380Y-85087149D02*
X148934761Y-85110959D01*
X148934761Y-85110959D02*
X148910952Y-85134768D01*
X148910952Y-85134768D02*
X148887142Y-85182387D01*
X148887142Y-85182387D02*
X148887142Y-85206197D01*
X148887142Y-85206197D02*
X148910952Y-85253816D01*
X148910952Y-85253816D02*
X148934761Y-85277625D01*
X148934761Y-85277625D02*
X148982380Y-85301435D01*
X148982380Y-85301435D02*
X149077618Y-85301435D01*
X149077618Y-85301435D02*
X149125237Y-85325244D01*
X149125237Y-85325244D02*
X149149047Y-85349054D01*
X149149047Y-85349054D02*
X149172856Y-85396673D01*
X149172856Y-85396673D02*
X149172856Y-85491911D01*
X149172856Y-85491911D02*
X149149047Y-85539530D01*
X149149047Y-85539530D02*
X149125237Y-85563340D01*
X149125237Y-85563340D02*
X149077618Y-85587149D01*
X149077618Y-85587149D02*
X148982380Y-85587149D01*
X148982380Y-85587149D02*
X148934761Y-85563340D01*
X148934761Y-85563340D02*
X148910952Y-85539530D01*
X148910952Y-85539530D02*
X148887142Y-85491911D01*
X148887142Y-85491911D02*
X148887142Y-85396673D01*
X148887142Y-85396673D02*
X148910952Y-85349054D01*
X148910952Y-85349054D02*
X148934761Y-85325244D01*
X148934761Y-85325244D02*
X148982380Y-85301435D01*
D10*
X146649047Y-87814819D02*
X147220475Y-87814819D01*
X146934761Y-87814819D02*
X146934761Y-86814819D01*
X146934761Y-86814819D02*
X147029999Y-86957676D01*
X147029999Y-86957676D02*
X147125237Y-87052914D01*
X147125237Y-87052914D02*
X147220475Y-87100533D01*
X146029999Y-86814819D02*
X145934761Y-86814819D01*
X145934761Y-86814819D02*
X145839523Y-86862438D01*
X145839523Y-86862438D02*
X145791904Y-86910057D01*
X145791904Y-86910057D02*
X145744285Y-87005295D01*
X145744285Y-87005295D02*
X145696666Y-87195771D01*
X145696666Y-87195771D02*
X145696666Y-87433866D01*
X145696666Y-87433866D02*
X145744285Y-87624342D01*
X145744285Y-87624342D02*
X145791904Y-87719580D01*
X145791904Y-87719580D02*
X145839523Y-87767200D01*
X145839523Y-87767200D02*
X145934761Y-87814819D01*
X145934761Y-87814819D02*
X146029999Y-87814819D01*
X146029999Y-87814819D02*
X146125237Y-87767200D01*
X146125237Y-87767200D02*
X146172856Y-87719580D01*
X146172856Y-87719580D02*
X146220475Y-87624342D01*
X146220475Y-87624342D02*
X146268094Y-87433866D01*
X146268094Y-87433866D02*
X146268094Y-87195771D01*
X146268094Y-87195771D02*
X146220475Y-87005295D01*
X146220475Y-87005295D02*
X146172856Y-86910057D01*
X146172856Y-86910057D02*
X146125237Y-86862438D01*
X146125237Y-86862438D02*
X146029999Y-86814819D01*
X145077618Y-86814819D02*
X144982380Y-86814819D01*
X144982380Y-86814819D02*
X144887142Y-86862438D01*
X144887142Y-86862438D02*
X144839523Y-86910057D01*
X144839523Y-86910057D02*
X144791904Y-87005295D01*
X144791904Y-87005295D02*
X144744285Y-87195771D01*
X144744285Y-87195771D02*
X144744285Y-87433866D01*
X144744285Y-87433866D02*
X144791904Y-87624342D01*
X144791904Y-87624342D02*
X144839523Y-87719580D01*
X144839523Y-87719580D02*
X144887142Y-87767200D01*
X144887142Y-87767200D02*
X144982380Y-87814819D01*
X144982380Y-87814819D02*
X145077618Y-87814819D01*
X145077618Y-87814819D02*
X145172856Y-87767200D01*
X145172856Y-87767200D02*
X145220475Y-87719580D01*
X145220475Y-87719580D02*
X145268094Y-87624342D01*
X145268094Y-87624342D02*
X145315713Y-87433866D01*
X145315713Y-87433866D02*
X145315713Y-87195771D01*
X145315713Y-87195771D02*
X145268094Y-87005295D01*
X145268094Y-87005295D02*
X145220475Y-86910057D01*
X145220475Y-86910057D02*
X145172856Y-86862438D01*
X145172856Y-86862438D02*
X145077618Y-86814819D01*
X143887142Y-87148152D02*
X143887142Y-87814819D01*
X144315713Y-87148152D02*
X144315713Y-87671961D01*
X144315713Y-87671961D02*
X144268094Y-87767200D01*
X144268094Y-87767200D02*
X144172856Y-87814819D01*
X144172856Y-87814819D02*
X144029999Y-87814819D01*
X144029999Y-87814819D02*
X143934761Y-87767200D01*
X143934761Y-87767200D02*
X143887142Y-87719580D01*
D11*
X149363333Y-87539530D02*
X149387142Y-87563340D01*
X149387142Y-87563340D02*
X149458571Y-87587149D01*
X149458571Y-87587149D02*
X149506190Y-87587149D01*
X149506190Y-87587149D02*
X149577618Y-87563340D01*
X149577618Y-87563340D02*
X149625237Y-87515720D01*
X149625237Y-87515720D02*
X149649047Y-87468101D01*
X149649047Y-87468101D02*
X149672856Y-87372863D01*
X149672856Y-87372863D02*
X149672856Y-87301435D01*
X149672856Y-87301435D02*
X149649047Y-87206197D01*
X149649047Y-87206197D02*
X149625237Y-87158578D01*
X149625237Y-87158578D02*
X149577618Y-87110959D01*
X149577618Y-87110959D02*
X149506190Y-87087149D01*
X149506190Y-87087149D02*
X149458571Y-87087149D01*
X149458571Y-87087149D02*
X149387142Y-87110959D01*
X149387142Y-87110959D02*
X149363333Y-87134768D01*
X149125237Y-87587149D02*
X149029999Y-87587149D01*
X149029999Y-87587149D02*
X148982380Y-87563340D01*
X148982380Y-87563340D02*
X148958571Y-87539530D01*
X148958571Y-87539530D02*
X148910952Y-87468101D01*
X148910952Y-87468101D02*
X148887142Y-87372863D01*
X148887142Y-87372863D02*
X148887142Y-87182387D01*
X148887142Y-87182387D02*
X148910952Y-87134768D01*
X148910952Y-87134768D02*
X148934761Y-87110959D01*
X148934761Y-87110959D02*
X148982380Y-87087149D01*
X148982380Y-87087149D02*
X149077618Y-87087149D01*
X149077618Y-87087149D02*
X149125237Y-87110959D01*
X149125237Y-87110959D02*
X149149047Y-87134768D01*
X149149047Y-87134768D02*
X149172856Y-87182387D01*
X149172856Y-87182387D02*
X149172856Y-87301435D01*
X149172856Y-87301435D02*
X149149047Y-87349054D01*
X149149047Y-87349054D02*
X149125237Y-87372863D01*
X149125237Y-87372863D02*
X149077618Y-87396673D01*
X149077618Y-87396673D02*
X148982380Y-87396673D01*
X148982380Y-87396673D02*
X148934761Y-87372863D01*
X148934761Y-87372863D02*
X148910952Y-87349054D01*
X148910952Y-87349054D02*
X148887142Y-87301435D01*
D10*
X141676666Y-84364819D02*
X142248094Y-84364819D01*
X141962380Y-84364819D02*
X141962380Y-83364819D01*
X141962380Y-83364819D02*
X142057618Y-83507676D01*
X142057618Y-83507676D02*
X142152856Y-83602914D01*
X142152856Y-83602914D02*
X142248094Y-83650533D01*
X140819523Y-83698152D02*
X140819523Y-84364819D01*
X141248094Y-83698152D02*
X141248094Y-84221961D01*
X141248094Y-84221961D02*
X141200475Y-84317200D01*
X141200475Y-84317200D02*
X141105237Y-84364819D01*
X141105237Y-84364819D02*
X140962380Y-84364819D01*
X140962380Y-84364819D02*
X140867142Y-84317200D01*
X140867142Y-84317200D02*
X140819523Y-84269580D01*
D11*
X141831428Y-82409530D02*
X141855237Y-82433340D01*
X141855237Y-82433340D02*
X141926666Y-82457149D01*
X141926666Y-82457149D02*
X141974285Y-82457149D01*
X141974285Y-82457149D02*
X142045713Y-82433340D01*
X142045713Y-82433340D02*
X142093332Y-82385720D01*
X142093332Y-82385720D02*
X142117142Y-82338101D01*
X142117142Y-82338101D02*
X142140951Y-82242863D01*
X142140951Y-82242863D02*
X142140951Y-82171435D01*
X142140951Y-82171435D02*
X142117142Y-82076197D01*
X142117142Y-82076197D02*
X142093332Y-82028578D01*
X142093332Y-82028578D02*
X142045713Y-81980959D01*
X142045713Y-81980959D02*
X141974285Y-81957149D01*
X141974285Y-81957149D02*
X141926666Y-81957149D01*
X141926666Y-81957149D02*
X141855237Y-81980959D01*
X141855237Y-81980959D02*
X141831428Y-82004768D01*
X141355237Y-82457149D02*
X141640951Y-82457149D01*
X141498094Y-82457149D02*
X141498094Y-81957149D01*
X141498094Y-81957149D02*
X141545713Y-82028578D01*
X141545713Y-82028578D02*
X141593332Y-82076197D01*
X141593332Y-82076197D02*
X141640951Y-82100006D01*
X140902857Y-81957149D02*
X141140952Y-81957149D01*
X141140952Y-81957149D02*
X141164761Y-82195244D01*
X141164761Y-82195244D02*
X141140952Y-82171435D01*
X141140952Y-82171435D02*
X141093333Y-82147625D01*
X141093333Y-82147625D02*
X140974285Y-82147625D01*
X140974285Y-82147625D02*
X140926666Y-82171435D01*
X140926666Y-82171435D02*
X140902857Y-82195244D01*
X140902857Y-82195244D02*
X140879047Y-82242863D01*
X140879047Y-82242863D02*
X140879047Y-82361911D01*
X140879047Y-82361911D02*
X140902857Y-82409530D01*
X140902857Y-82409530D02*
X140926666Y-82433340D01*
X140926666Y-82433340D02*
X140974285Y-82457149D01*
X140974285Y-82457149D02*
X141093333Y-82457149D01*
X141093333Y-82457149D02*
X141140952Y-82433340D01*
X141140952Y-82433340D02*
X141164761Y-82409530D01*
D10*
X138700057Y-44488095D02*
X138652438Y-44535714D01*
X138652438Y-44535714D02*
X138604819Y-44630952D01*
X138604819Y-44630952D02*
X138604819Y-44869047D01*
X138604819Y-44869047D02*
X138652438Y-44964285D01*
X138652438Y-44964285D02*
X138700057Y-45011904D01*
X138700057Y-45011904D02*
X138795295Y-45059523D01*
X138795295Y-45059523D02*
X138890533Y-45059523D01*
X138890533Y-45059523D02*
X139033390Y-45011904D01*
X139033390Y-45011904D02*
X139604819Y-44440476D01*
X139604819Y-44440476D02*
X139604819Y-45059523D01*
X138700057Y-45440476D02*
X138652438Y-45488095D01*
X138652438Y-45488095D02*
X138604819Y-45583333D01*
X138604819Y-45583333D02*
X138604819Y-45821428D01*
X138604819Y-45821428D02*
X138652438Y-45916666D01*
X138652438Y-45916666D02*
X138700057Y-45964285D01*
X138700057Y-45964285D02*
X138795295Y-46011904D01*
X138795295Y-46011904D02*
X138890533Y-46011904D01*
X138890533Y-46011904D02*
X139033390Y-45964285D01*
X139033390Y-45964285D02*
X139604819Y-45392857D01*
X139604819Y-45392857D02*
X139604819Y-46011904D01*
D11*
X139377149Y-42366666D02*
X139139054Y-42200000D01*
X139377149Y-42080952D02*
X138877149Y-42080952D01*
X138877149Y-42080952D02*
X138877149Y-42271428D01*
X138877149Y-42271428D02*
X138900959Y-42319047D01*
X138900959Y-42319047D02*
X138924768Y-42342857D01*
X138924768Y-42342857D02*
X138972387Y-42366666D01*
X138972387Y-42366666D02*
X139043816Y-42366666D01*
X139043816Y-42366666D02*
X139091435Y-42342857D01*
X139091435Y-42342857D02*
X139115244Y-42319047D01*
X139115244Y-42319047D02*
X139139054Y-42271428D01*
X139139054Y-42271428D02*
X139139054Y-42080952D01*
X138877149Y-42819047D02*
X138877149Y-42580952D01*
X138877149Y-42580952D02*
X139115244Y-42557143D01*
X139115244Y-42557143D02*
X139091435Y-42580952D01*
X139091435Y-42580952D02*
X139067625Y-42628571D01*
X139067625Y-42628571D02*
X139067625Y-42747619D01*
X139067625Y-42747619D02*
X139091435Y-42795238D01*
X139091435Y-42795238D02*
X139115244Y-42819047D01*
X139115244Y-42819047D02*
X139162863Y-42842857D01*
X139162863Y-42842857D02*
X139281911Y-42842857D01*
X139281911Y-42842857D02*
X139329530Y-42819047D01*
X139329530Y-42819047D02*
X139353340Y-42795238D01*
X139353340Y-42795238D02*
X139377149Y-42747619D01*
X139377149Y-42747619D02*
X139377149Y-42628571D01*
X139377149Y-42628571D02*
X139353340Y-42580952D01*
X139353340Y-42580952D02*
X139329530Y-42557143D01*
D10*
X146661547Y-83814819D02*
X147232975Y-83814819D01*
X146947261Y-83814819D02*
X146947261Y-82814819D01*
X146947261Y-82814819D02*
X147042499Y-82957676D01*
X147042499Y-82957676D02*
X147137737Y-83052914D01*
X147137737Y-83052914D02*
X147232975Y-83100533D01*
X146042499Y-82814819D02*
X145947261Y-82814819D01*
X145947261Y-82814819D02*
X145852023Y-82862438D01*
X145852023Y-82862438D02*
X145804404Y-82910057D01*
X145804404Y-82910057D02*
X145756785Y-83005295D01*
X145756785Y-83005295D02*
X145709166Y-83195771D01*
X145709166Y-83195771D02*
X145709166Y-83433866D01*
X145709166Y-83433866D02*
X145756785Y-83624342D01*
X145756785Y-83624342D02*
X145804404Y-83719580D01*
X145804404Y-83719580D02*
X145852023Y-83767200D01*
X145852023Y-83767200D02*
X145947261Y-83814819D01*
X145947261Y-83814819D02*
X146042499Y-83814819D01*
X146042499Y-83814819D02*
X146137737Y-83767200D01*
X146137737Y-83767200D02*
X146185356Y-83719580D01*
X146185356Y-83719580D02*
X146232975Y-83624342D01*
X146232975Y-83624342D02*
X146280594Y-83433866D01*
X146280594Y-83433866D02*
X146280594Y-83195771D01*
X146280594Y-83195771D02*
X146232975Y-83005295D01*
X146232975Y-83005295D02*
X146185356Y-82910057D01*
X146185356Y-82910057D02*
X146137737Y-82862438D01*
X146137737Y-82862438D02*
X146042499Y-82814819D01*
X145090118Y-82814819D02*
X144994880Y-82814819D01*
X144994880Y-82814819D02*
X144899642Y-82862438D01*
X144899642Y-82862438D02*
X144852023Y-82910057D01*
X144852023Y-82910057D02*
X144804404Y-83005295D01*
X144804404Y-83005295D02*
X144756785Y-83195771D01*
X144756785Y-83195771D02*
X144756785Y-83433866D01*
X144756785Y-83433866D02*
X144804404Y-83624342D01*
X144804404Y-83624342D02*
X144852023Y-83719580D01*
X144852023Y-83719580D02*
X144899642Y-83767200D01*
X144899642Y-83767200D02*
X144994880Y-83814819D01*
X144994880Y-83814819D02*
X145090118Y-83814819D01*
X145090118Y-83814819D02*
X145185356Y-83767200D01*
X145185356Y-83767200D02*
X145232975Y-83719580D01*
X145232975Y-83719580D02*
X145280594Y-83624342D01*
X145280594Y-83624342D02*
X145328213Y-83433866D01*
X145328213Y-83433866D02*
X145328213Y-83195771D01*
X145328213Y-83195771D02*
X145280594Y-83005295D01*
X145280594Y-83005295D02*
X145232975Y-82910057D01*
X145232975Y-82910057D02*
X145185356Y-82862438D01*
X145185356Y-82862438D02*
X145090118Y-82814819D01*
X143899642Y-83148152D02*
X143899642Y-83814819D01*
X144328213Y-83148152D02*
X144328213Y-83671961D01*
X144328213Y-83671961D02*
X144280594Y-83767200D01*
X144280594Y-83767200D02*
X144185356Y-83814819D01*
X144185356Y-83814819D02*
X144042499Y-83814819D01*
X144042499Y-83814819D02*
X143947261Y-83767200D01*
X143947261Y-83767200D02*
X143899642Y-83719580D01*
D11*
X149363333Y-83539530D02*
X149387142Y-83563340D01*
X149387142Y-83563340D02*
X149458571Y-83587149D01*
X149458571Y-83587149D02*
X149506190Y-83587149D01*
X149506190Y-83587149D02*
X149577618Y-83563340D01*
X149577618Y-83563340D02*
X149625237Y-83515720D01*
X149625237Y-83515720D02*
X149649047Y-83468101D01*
X149649047Y-83468101D02*
X149672856Y-83372863D01*
X149672856Y-83372863D02*
X149672856Y-83301435D01*
X149672856Y-83301435D02*
X149649047Y-83206197D01*
X149649047Y-83206197D02*
X149625237Y-83158578D01*
X149625237Y-83158578D02*
X149577618Y-83110959D01*
X149577618Y-83110959D02*
X149506190Y-83087149D01*
X149506190Y-83087149D02*
X149458571Y-83087149D01*
X149458571Y-83087149D02*
X149387142Y-83110959D01*
X149387142Y-83110959D02*
X149363333Y-83134768D01*
X149196666Y-83087149D02*
X148863333Y-83087149D01*
X148863333Y-83087149D02*
X149077618Y-83587149D01*
D10*
X136600057Y-44488095D02*
X136552438Y-44535714D01*
X136552438Y-44535714D02*
X136504819Y-44630952D01*
X136504819Y-44630952D02*
X136504819Y-44869047D01*
X136504819Y-44869047D02*
X136552438Y-44964285D01*
X136552438Y-44964285D02*
X136600057Y-45011904D01*
X136600057Y-45011904D02*
X136695295Y-45059523D01*
X136695295Y-45059523D02*
X136790533Y-45059523D01*
X136790533Y-45059523D02*
X136933390Y-45011904D01*
X136933390Y-45011904D02*
X137504819Y-44440476D01*
X137504819Y-44440476D02*
X137504819Y-45059523D01*
X136600057Y-45440476D02*
X136552438Y-45488095D01*
X136552438Y-45488095D02*
X136504819Y-45583333D01*
X136504819Y-45583333D02*
X136504819Y-45821428D01*
X136504819Y-45821428D02*
X136552438Y-45916666D01*
X136552438Y-45916666D02*
X136600057Y-45964285D01*
X136600057Y-45964285D02*
X136695295Y-46011904D01*
X136695295Y-46011904D02*
X136790533Y-46011904D01*
X136790533Y-46011904D02*
X136933390Y-45964285D01*
X136933390Y-45964285D02*
X137504819Y-45392857D01*
X137504819Y-45392857D02*
X137504819Y-46011904D01*
D11*
X137277149Y-42366666D02*
X137039054Y-42200000D01*
X137277149Y-42080952D02*
X136777149Y-42080952D01*
X136777149Y-42080952D02*
X136777149Y-42271428D01*
X136777149Y-42271428D02*
X136800959Y-42319047D01*
X136800959Y-42319047D02*
X136824768Y-42342857D01*
X136824768Y-42342857D02*
X136872387Y-42366666D01*
X136872387Y-42366666D02*
X136943816Y-42366666D01*
X136943816Y-42366666D02*
X136991435Y-42342857D01*
X136991435Y-42342857D02*
X137015244Y-42319047D01*
X137015244Y-42319047D02*
X137039054Y-42271428D01*
X137039054Y-42271428D02*
X137039054Y-42080952D01*
X136777149Y-42795238D02*
X136777149Y-42700000D01*
X136777149Y-42700000D02*
X136800959Y-42652381D01*
X136800959Y-42652381D02*
X136824768Y-42628571D01*
X136824768Y-42628571D02*
X136896197Y-42580952D01*
X136896197Y-42580952D02*
X136991435Y-42557143D01*
X136991435Y-42557143D02*
X137181911Y-42557143D01*
X137181911Y-42557143D02*
X137229530Y-42580952D01*
X137229530Y-42580952D02*
X137253340Y-42604762D01*
X137253340Y-42604762D02*
X137277149Y-42652381D01*
X137277149Y-42652381D02*
X137277149Y-42747619D01*
X137277149Y-42747619D02*
X137253340Y-42795238D01*
X137253340Y-42795238D02*
X137229530Y-42819047D01*
X137229530Y-42819047D02*
X137181911Y-42842857D01*
X137181911Y-42842857D02*
X137062863Y-42842857D01*
X137062863Y-42842857D02*
X137015244Y-42819047D01*
X137015244Y-42819047D02*
X136991435Y-42795238D01*
X136991435Y-42795238D02*
X136967625Y-42747619D01*
X136967625Y-42747619D02*
X136967625Y-42652381D01*
X136967625Y-42652381D02*
X136991435Y-42604762D01*
X136991435Y-42604762D02*
X137015244Y-42580952D01*
X137015244Y-42580952D02*
X137062863Y-42557143D01*
D10*
X137836666Y-84354819D02*
X138408094Y-84354819D01*
X138122380Y-84354819D02*
X138122380Y-83354819D01*
X138122380Y-83354819D02*
X138217618Y-83497676D01*
X138217618Y-83497676D02*
X138312856Y-83592914D01*
X138312856Y-83592914D02*
X138408094Y-83640533D01*
X136979523Y-83688152D02*
X136979523Y-84354819D01*
X137408094Y-83688152D02*
X137408094Y-84211961D01*
X137408094Y-84211961D02*
X137360475Y-84307200D01*
X137360475Y-84307200D02*
X137265237Y-84354819D01*
X137265237Y-84354819D02*
X137122380Y-84354819D01*
X137122380Y-84354819D02*
X137027142Y-84307200D01*
X137027142Y-84307200D02*
X136979523Y-84259580D01*
D11*
X137991428Y-82399530D02*
X138015237Y-82423340D01*
X138015237Y-82423340D02*
X138086666Y-82447149D01*
X138086666Y-82447149D02*
X138134285Y-82447149D01*
X138134285Y-82447149D02*
X138205713Y-82423340D01*
X138205713Y-82423340D02*
X138253332Y-82375720D01*
X138253332Y-82375720D02*
X138277142Y-82328101D01*
X138277142Y-82328101D02*
X138300951Y-82232863D01*
X138300951Y-82232863D02*
X138300951Y-82161435D01*
X138300951Y-82161435D02*
X138277142Y-82066197D01*
X138277142Y-82066197D02*
X138253332Y-82018578D01*
X138253332Y-82018578D02*
X138205713Y-81970959D01*
X138205713Y-81970959D02*
X138134285Y-81947149D01*
X138134285Y-81947149D02*
X138086666Y-81947149D01*
X138086666Y-81947149D02*
X138015237Y-81970959D01*
X138015237Y-81970959D02*
X137991428Y-81994768D01*
X137515237Y-82447149D02*
X137800951Y-82447149D01*
X137658094Y-82447149D02*
X137658094Y-81947149D01*
X137658094Y-81947149D02*
X137705713Y-82018578D01*
X137705713Y-82018578D02*
X137753332Y-82066197D01*
X137753332Y-82066197D02*
X137800951Y-82090006D01*
X137086666Y-82113816D02*
X137086666Y-82447149D01*
X137205714Y-81923340D02*
X137324761Y-82280482D01*
X137324761Y-82280482D02*
X137015238Y-82280482D01*
D10*
X146649047Y-91814819D02*
X147220475Y-91814819D01*
X146934761Y-91814819D02*
X146934761Y-90814819D01*
X146934761Y-90814819D02*
X147029999Y-90957676D01*
X147029999Y-90957676D02*
X147125237Y-91052914D01*
X147125237Y-91052914D02*
X147220475Y-91100533D01*
X146029999Y-90814819D02*
X145934761Y-90814819D01*
X145934761Y-90814819D02*
X145839523Y-90862438D01*
X145839523Y-90862438D02*
X145791904Y-90910057D01*
X145791904Y-90910057D02*
X145744285Y-91005295D01*
X145744285Y-91005295D02*
X145696666Y-91195771D01*
X145696666Y-91195771D02*
X145696666Y-91433866D01*
X145696666Y-91433866D02*
X145744285Y-91624342D01*
X145744285Y-91624342D02*
X145791904Y-91719580D01*
X145791904Y-91719580D02*
X145839523Y-91767200D01*
X145839523Y-91767200D02*
X145934761Y-91814819D01*
X145934761Y-91814819D02*
X146029999Y-91814819D01*
X146029999Y-91814819D02*
X146125237Y-91767200D01*
X146125237Y-91767200D02*
X146172856Y-91719580D01*
X146172856Y-91719580D02*
X146220475Y-91624342D01*
X146220475Y-91624342D02*
X146268094Y-91433866D01*
X146268094Y-91433866D02*
X146268094Y-91195771D01*
X146268094Y-91195771D02*
X146220475Y-91005295D01*
X146220475Y-91005295D02*
X146172856Y-90910057D01*
X146172856Y-90910057D02*
X146125237Y-90862438D01*
X146125237Y-90862438D02*
X146029999Y-90814819D01*
X145077618Y-90814819D02*
X144982380Y-90814819D01*
X144982380Y-90814819D02*
X144887142Y-90862438D01*
X144887142Y-90862438D02*
X144839523Y-90910057D01*
X144839523Y-90910057D02*
X144791904Y-91005295D01*
X144791904Y-91005295D02*
X144744285Y-91195771D01*
X144744285Y-91195771D02*
X144744285Y-91433866D01*
X144744285Y-91433866D02*
X144791904Y-91624342D01*
X144791904Y-91624342D02*
X144839523Y-91719580D01*
X144839523Y-91719580D02*
X144887142Y-91767200D01*
X144887142Y-91767200D02*
X144982380Y-91814819D01*
X144982380Y-91814819D02*
X145077618Y-91814819D01*
X145077618Y-91814819D02*
X145172856Y-91767200D01*
X145172856Y-91767200D02*
X145220475Y-91719580D01*
X145220475Y-91719580D02*
X145268094Y-91624342D01*
X145268094Y-91624342D02*
X145315713Y-91433866D01*
X145315713Y-91433866D02*
X145315713Y-91195771D01*
X145315713Y-91195771D02*
X145268094Y-91005295D01*
X145268094Y-91005295D02*
X145220475Y-90910057D01*
X145220475Y-90910057D02*
X145172856Y-90862438D01*
X145172856Y-90862438D02*
X145077618Y-90814819D01*
X143887142Y-91148152D02*
X143887142Y-91814819D01*
X144315713Y-91148152D02*
X144315713Y-91671961D01*
X144315713Y-91671961D02*
X144268094Y-91767200D01*
X144268094Y-91767200D02*
X144172856Y-91814819D01*
X144172856Y-91814819D02*
X144029999Y-91814819D01*
X144029999Y-91814819D02*
X143934761Y-91767200D01*
X143934761Y-91767200D02*
X143887142Y-91719580D01*
D11*
X149601428Y-91539530D02*
X149625237Y-91563340D01*
X149625237Y-91563340D02*
X149696666Y-91587149D01*
X149696666Y-91587149D02*
X149744285Y-91587149D01*
X149744285Y-91587149D02*
X149815713Y-91563340D01*
X149815713Y-91563340D02*
X149863332Y-91515720D01*
X149863332Y-91515720D02*
X149887142Y-91468101D01*
X149887142Y-91468101D02*
X149910951Y-91372863D01*
X149910951Y-91372863D02*
X149910951Y-91301435D01*
X149910951Y-91301435D02*
X149887142Y-91206197D01*
X149887142Y-91206197D02*
X149863332Y-91158578D01*
X149863332Y-91158578D02*
X149815713Y-91110959D01*
X149815713Y-91110959D02*
X149744285Y-91087149D01*
X149744285Y-91087149D02*
X149696666Y-91087149D01*
X149696666Y-91087149D02*
X149625237Y-91110959D01*
X149625237Y-91110959D02*
X149601428Y-91134768D01*
X149125237Y-91587149D02*
X149410951Y-91587149D01*
X149268094Y-91587149D02*
X149268094Y-91087149D01*
X149268094Y-91087149D02*
X149315713Y-91158578D01*
X149315713Y-91158578D02*
X149363332Y-91206197D01*
X149363332Y-91206197D02*
X149410951Y-91230006D01*
X148649047Y-91587149D02*
X148934761Y-91587149D01*
X148791904Y-91587149D02*
X148791904Y-91087149D01*
X148791904Y-91087149D02*
X148839523Y-91158578D01*
X148839523Y-91158578D02*
X148887142Y-91206197D01*
X148887142Y-91206197D02*
X148934761Y-91230006D01*
D10*
X146649047Y-95814819D02*
X147220475Y-95814819D01*
X146934761Y-95814819D02*
X146934761Y-94814819D01*
X146934761Y-94814819D02*
X147029999Y-94957676D01*
X147029999Y-94957676D02*
X147125237Y-95052914D01*
X147125237Y-95052914D02*
X147220475Y-95100533D01*
X146029999Y-94814819D02*
X145934761Y-94814819D01*
X145934761Y-94814819D02*
X145839523Y-94862438D01*
X145839523Y-94862438D02*
X145791904Y-94910057D01*
X145791904Y-94910057D02*
X145744285Y-95005295D01*
X145744285Y-95005295D02*
X145696666Y-95195771D01*
X145696666Y-95195771D02*
X145696666Y-95433866D01*
X145696666Y-95433866D02*
X145744285Y-95624342D01*
X145744285Y-95624342D02*
X145791904Y-95719580D01*
X145791904Y-95719580D02*
X145839523Y-95767200D01*
X145839523Y-95767200D02*
X145934761Y-95814819D01*
X145934761Y-95814819D02*
X146029999Y-95814819D01*
X146029999Y-95814819D02*
X146125237Y-95767200D01*
X146125237Y-95767200D02*
X146172856Y-95719580D01*
X146172856Y-95719580D02*
X146220475Y-95624342D01*
X146220475Y-95624342D02*
X146268094Y-95433866D01*
X146268094Y-95433866D02*
X146268094Y-95195771D01*
X146268094Y-95195771D02*
X146220475Y-95005295D01*
X146220475Y-95005295D02*
X146172856Y-94910057D01*
X146172856Y-94910057D02*
X146125237Y-94862438D01*
X146125237Y-94862438D02*
X146029999Y-94814819D01*
X145077618Y-94814819D02*
X144982380Y-94814819D01*
X144982380Y-94814819D02*
X144887142Y-94862438D01*
X144887142Y-94862438D02*
X144839523Y-94910057D01*
X144839523Y-94910057D02*
X144791904Y-95005295D01*
X144791904Y-95005295D02*
X144744285Y-95195771D01*
X144744285Y-95195771D02*
X144744285Y-95433866D01*
X144744285Y-95433866D02*
X144791904Y-95624342D01*
X144791904Y-95624342D02*
X144839523Y-95719580D01*
X144839523Y-95719580D02*
X144887142Y-95767200D01*
X144887142Y-95767200D02*
X144982380Y-95814819D01*
X144982380Y-95814819D02*
X145077618Y-95814819D01*
X145077618Y-95814819D02*
X145172856Y-95767200D01*
X145172856Y-95767200D02*
X145220475Y-95719580D01*
X145220475Y-95719580D02*
X145268094Y-95624342D01*
X145268094Y-95624342D02*
X145315713Y-95433866D01*
X145315713Y-95433866D02*
X145315713Y-95195771D01*
X145315713Y-95195771D02*
X145268094Y-95005295D01*
X145268094Y-95005295D02*
X145220475Y-94910057D01*
X145220475Y-94910057D02*
X145172856Y-94862438D01*
X145172856Y-94862438D02*
X145077618Y-94814819D01*
X143887142Y-95148152D02*
X143887142Y-95814819D01*
X144315713Y-95148152D02*
X144315713Y-95671961D01*
X144315713Y-95671961D02*
X144268094Y-95767200D01*
X144268094Y-95767200D02*
X144172856Y-95814819D01*
X144172856Y-95814819D02*
X144029999Y-95814819D01*
X144029999Y-95814819D02*
X143934761Y-95767200D01*
X143934761Y-95767200D02*
X143887142Y-95719580D01*
D11*
X149601428Y-95539530D02*
X149625237Y-95563340D01*
X149625237Y-95563340D02*
X149696666Y-95587149D01*
X149696666Y-95587149D02*
X149744285Y-95587149D01*
X149744285Y-95587149D02*
X149815713Y-95563340D01*
X149815713Y-95563340D02*
X149863332Y-95515720D01*
X149863332Y-95515720D02*
X149887142Y-95468101D01*
X149887142Y-95468101D02*
X149910951Y-95372863D01*
X149910951Y-95372863D02*
X149910951Y-95301435D01*
X149910951Y-95301435D02*
X149887142Y-95206197D01*
X149887142Y-95206197D02*
X149863332Y-95158578D01*
X149863332Y-95158578D02*
X149815713Y-95110959D01*
X149815713Y-95110959D02*
X149744285Y-95087149D01*
X149744285Y-95087149D02*
X149696666Y-95087149D01*
X149696666Y-95087149D02*
X149625237Y-95110959D01*
X149625237Y-95110959D02*
X149601428Y-95134768D01*
X149125237Y-95587149D02*
X149410951Y-95587149D01*
X149268094Y-95587149D02*
X149268094Y-95087149D01*
X149268094Y-95087149D02*
X149315713Y-95158578D01*
X149315713Y-95158578D02*
X149363332Y-95206197D01*
X149363332Y-95206197D02*
X149410951Y-95230006D01*
X148958571Y-95087149D02*
X148649047Y-95087149D01*
X148649047Y-95087149D02*
X148815714Y-95277625D01*
X148815714Y-95277625D02*
X148744285Y-95277625D01*
X148744285Y-95277625D02*
X148696666Y-95301435D01*
X148696666Y-95301435D02*
X148672857Y-95325244D01*
X148672857Y-95325244D02*
X148649047Y-95372863D01*
X148649047Y-95372863D02*
X148649047Y-95491911D01*
X148649047Y-95491911D02*
X148672857Y-95539530D01*
X148672857Y-95539530D02*
X148696666Y-95563340D01*
X148696666Y-95563340D02*
X148744285Y-95587149D01*
X148744285Y-95587149D02*
X148887142Y-95587149D01*
X148887142Y-95587149D02*
X148934761Y-95563340D01*
X148934761Y-95563340D02*
X148958571Y-95539530D01*
D10*
X133024285Y-85794819D02*
X133595713Y-85794819D01*
X133309999Y-85794819D02*
X133309999Y-84794819D01*
X133309999Y-84794819D02*
X133405237Y-84937676D01*
X133405237Y-84937676D02*
X133500475Y-85032914D01*
X133500475Y-85032914D02*
X133595713Y-85080533D01*
X132405237Y-84794819D02*
X132309999Y-84794819D01*
X132309999Y-84794819D02*
X132214761Y-84842438D01*
X132214761Y-84842438D02*
X132167142Y-84890057D01*
X132167142Y-84890057D02*
X132119523Y-84985295D01*
X132119523Y-84985295D02*
X132071904Y-85175771D01*
X132071904Y-85175771D02*
X132071904Y-85413866D01*
X132071904Y-85413866D02*
X132119523Y-85604342D01*
X132119523Y-85604342D02*
X132167142Y-85699580D01*
X132167142Y-85699580D02*
X132214761Y-85747200D01*
X132214761Y-85747200D02*
X132309999Y-85794819D01*
X132309999Y-85794819D02*
X132405237Y-85794819D01*
X132405237Y-85794819D02*
X132500475Y-85747200D01*
X132500475Y-85747200D02*
X132548094Y-85699580D01*
X132548094Y-85699580D02*
X132595713Y-85604342D01*
X132595713Y-85604342D02*
X132643332Y-85413866D01*
X132643332Y-85413866D02*
X132643332Y-85175771D01*
X132643332Y-85175771D02*
X132595713Y-84985295D01*
X132595713Y-84985295D02*
X132548094Y-84890057D01*
X132548094Y-84890057D02*
X132500475Y-84842438D01*
X132500475Y-84842438D02*
X132405237Y-84794819D01*
X131452856Y-84794819D02*
X131357618Y-84794819D01*
X131357618Y-84794819D02*
X131262380Y-84842438D01*
X131262380Y-84842438D02*
X131214761Y-84890057D01*
X131214761Y-84890057D02*
X131167142Y-84985295D01*
X131167142Y-84985295D02*
X131119523Y-85175771D01*
X131119523Y-85175771D02*
X131119523Y-85413866D01*
X131119523Y-85413866D02*
X131167142Y-85604342D01*
X131167142Y-85604342D02*
X131214761Y-85699580D01*
X131214761Y-85699580D02*
X131262380Y-85747200D01*
X131262380Y-85747200D02*
X131357618Y-85794819D01*
X131357618Y-85794819D02*
X131452856Y-85794819D01*
X131452856Y-85794819D02*
X131548094Y-85747200D01*
X131548094Y-85747200D02*
X131595713Y-85699580D01*
X131595713Y-85699580D02*
X131643332Y-85604342D01*
X131643332Y-85604342D02*
X131690951Y-85413866D01*
X131690951Y-85413866D02*
X131690951Y-85175771D01*
X131690951Y-85175771D02*
X131643332Y-84985295D01*
X131643332Y-84985295D02*
X131595713Y-84890057D01*
X131595713Y-84890057D02*
X131548094Y-84842438D01*
X131548094Y-84842438D02*
X131452856Y-84794819D01*
X130262380Y-85128152D02*
X130262380Y-85794819D01*
X130690951Y-85128152D02*
X130690951Y-85651961D01*
X130690951Y-85651961D02*
X130643332Y-85747200D01*
X130643332Y-85747200D02*
X130548094Y-85794819D01*
X130548094Y-85794819D02*
X130405237Y-85794819D01*
X130405237Y-85794819D02*
X130309999Y-85747200D01*
X130309999Y-85747200D02*
X130262380Y-85699580D01*
D11*
X128336071Y-85519530D02*
X128359880Y-85543340D01*
X128359880Y-85543340D02*
X128431309Y-85567149D01*
X128431309Y-85567149D02*
X128478928Y-85567149D01*
X128478928Y-85567149D02*
X128550356Y-85543340D01*
X128550356Y-85543340D02*
X128597975Y-85495720D01*
X128597975Y-85495720D02*
X128621785Y-85448101D01*
X128621785Y-85448101D02*
X128645594Y-85352863D01*
X128645594Y-85352863D02*
X128645594Y-85281435D01*
X128645594Y-85281435D02*
X128621785Y-85186197D01*
X128621785Y-85186197D02*
X128597975Y-85138578D01*
X128597975Y-85138578D02*
X128550356Y-85090959D01*
X128550356Y-85090959D02*
X128478928Y-85067149D01*
X128478928Y-85067149D02*
X128431309Y-85067149D01*
X128431309Y-85067149D02*
X128359880Y-85090959D01*
X128359880Y-85090959D02*
X128336071Y-85114768D01*
X127907499Y-85067149D02*
X128002737Y-85067149D01*
X128002737Y-85067149D02*
X128050356Y-85090959D01*
X128050356Y-85090959D02*
X128074166Y-85114768D01*
X128074166Y-85114768D02*
X128121785Y-85186197D01*
X128121785Y-85186197D02*
X128145594Y-85281435D01*
X128145594Y-85281435D02*
X128145594Y-85471911D01*
X128145594Y-85471911D02*
X128121785Y-85519530D01*
X128121785Y-85519530D02*
X128097975Y-85543340D01*
X128097975Y-85543340D02*
X128050356Y-85567149D01*
X128050356Y-85567149D02*
X127955118Y-85567149D01*
X127955118Y-85567149D02*
X127907499Y-85543340D01*
X127907499Y-85543340D02*
X127883690Y-85519530D01*
X127883690Y-85519530D02*
X127859880Y-85471911D01*
X127859880Y-85471911D02*
X127859880Y-85352863D01*
X127859880Y-85352863D02*
X127883690Y-85305244D01*
X127883690Y-85305244D02*
X127907499Y-85281435D01*
X127907499Y-85281435D02*
X127955118Y-85257625D01*
X127955118Y-85257625D02*
X128050356Y-85257625D01*
X128050356Y-85257625D02*
X128097975Y-85281435D01*
X128097975Y-85281435D02*
X128121785Y-85305244D01*
X128121785Y-85305244D02*
X128145594Y-85352863D01*
D10*
X84738152Y-55871428D02*
X85404819Y-55871428D01*
X84357200Y-55633333D02*
X85071485Y-55395238D01*
X85071485Y-55395238D02*
X85071485Y-56014285D01*
X85309580Y-56395238D02*
X85357200Y-56442857D01*
X85357200Y-56442857D02*
X85404819Y-56395238D01*
X85404819Y-56395238D02*
X85357200Y-56347619D01*
X85357200Y-56347619D02*
X85309580Y-56395238D01*
X85309580Y-56395238D02*
X85404819Y-56395238D01*
X84404819Y-56776190D02*
X84404819Y-57442856D01*
X84404819Y-57442856D02*
X85404819Y-57014285D01*
X85404819Y-57823809D02*
X84404819Y-57823809D01*
X85023866Y-57919047D02*
X85404819Y-58204761D01*
X84738152Y-58204761D02*
X85119104Y-57823809D01*
D11*
X86827149Y-56478571D02*
X86589054Y-56311905D01*
X86827149Y-56192857D02*
X86327149Y-56192857D01*
X86327149Y-56192857D02*
X86327149Y-56383333D01*
X86327149Y-56383333D02*
X86350959Y-56430952D01*
X86350959Y-56430952D02*
X86374768Y-56454762D01*
X86374768Y-56454762D02*
X86422387Y-56478571D01*
X86422387Y-56478571D02*
X86493816Y-56478571D01*
X86493816Y-56478571D02*
X86541435Y-56454762D01*
X86541435Y-56454762D02*
X86565244Y-56430952D01*
X86565244Y-56430952D02*
X86589054Y-56383333D01*
X86589054Y-56383333D02*
X86589054Y-56192857D01*
X86374768Y-56669048D02*
X86350959Y-56692857D01*
X86350959Y-56692857D02*
X86327149Y-56740476D01*
X86327149Y-56740476D02*
X86327149Y-56859524D01*
X86327149Y-56859524D02*
X86350959Y-56907143D01*
X86350959Y-56907143D02*
X86374768Y-56930952D01*
X86374768Y-56930952D02*
X86422387Y-56954762D01*
X86422387Y-56954762D02*
X86470006Y-56954762D01*
X86470006Y-56954762D02*
X86541435Y-56930952D01*
X86541435Y-56930952D02*
X86827149Y-56645238D01*
X86827149Y-56645238D02*
X86827149Y-56954762D01*
X86327149Y-57121428D02*
X86327149Y-57454761D01*
X86327149Y-57454761D02*
X86827149Y-57240476D01*
D10*
X180058152Y-55861428D02*
X180724819Y-55861428D01*
X179677200Y-55623333D02*
X180391485Y-55385238D01*
X180391485Y-55385238D02*
X180391485Y-56004285D01*
X180629580Y-56385238D02*
X180677200Y-56432857D01*
X180677200Y-56432857D02*
X180724819Y-56385238D01*
X180724819Y-56385238D02*
X180677200Y-56337619D01*
X180677200Y-56337619D02*
X180629580Y-56385238D01*
X180629580Y-56385238D02*
X180724819Y-56385238D01*
X179724819Y-56766190D02*
X179724819Y-57432856D01*
X179724819Y-57432856D02*
X180724819Y-57004285D01*
X180724819Y-57813809D02*
X179724819Y-57813809D01*
X180343866Y-57909047D02*
X180724819Y-58194761D01*
X180058152Y-58194761D02*
X180439104Y-57813809D01*
D11*
X182147149Y-56706666D02*
X181909054Y-56540000D01*
X182147149Y-56420952D02*
X181647149Y-56420952D01*
X181647149Y-56420952D02*
X181647149Y-56611428D01*
X181647149Y-56611428D02*
X181670959Y-56659047D01*
X181670959Y-56659047D02*
X181694768Y-56682857D01*
X181694768Y-56682857D02*
X181742387Y-56706666D01*
X181742387Y-56706666D02*
X181813816Y-56706666D01*
X181813816Y-56706666D02*
X181861435Y-56682857D01*
X181861435Y-56682857D02*
X181885244Y-56659047D01*
X181885244Y-56659047D02*
X181909054Y-56611428D01*
X181909054Y-56611428D02*
X181909054Y-56420952D01*
X182147149Y-57182857D02*
X182147149Y-56897143D01*
X182147149Y-57040000D02*
X181647149Y-57040000D01*
X181647149Y-57040000D02*
X181718578Y-56992381D01*
X181718578Y-56992381D02*
X181766197Y-56944762D01*
X181766197Y-56944762D02*
X181790006Y-56897143D01*
D10*
X137054285Y-101210057D02*
X137006666Y-101162438D01*
X137006666Y-101162438D02*
X136911428Y-101114819D01*
X136911428Y-101114819D02*
X136673333Y-101114819D01*
X136673333Y-101114819D02*
X136578095Y-101162438D01*
X136578095Y-101162438D02*
X136530476Y-101210057D01*
X136530476Y-101210057D02*
X136482857Y-101305295D01*
X136482857Y-101305295D02*
X136482857Y-101400533D01*
X136482857Y-101400533D02*
X136530476Y-101543390D01*
X136530476Y-101543390D02*
X137101904Y-102114819D01*
X137101904Y-102114819D02*
X136482857Y-102114819D01*
X136149523Y-101114819D02*
X135482857Y-101114819D01*
X135482857Y-101114819D02*
X135911428Y-102114819D01*
X135101904Y-101448152D02*
X135101904Y-102448152D01*
X135101904Y-101495771D02*
X135006666Y-101448152D01*
X135006666Y-101448152D02*
X134816190Y-101448152D01*
X134816190Y-101448152D02*
X134720952Y-101495771D01*
X134720952Y-101495771D02*
X134673333Y-101543390D01*
X134673333Y-101543390D02*
X134625714Y-101638628D01*
X134625714Y-101638628D02*
X134625714Y-101924342D01*
X134625714Y-101924342D02*
X134673333Y-102019580D01*
X134673333Y-102019580D02*
X134720952Y-102067200D01*
X134720952Y-102067200D02*
X134816190Y-102114819D01*
X134816190Y-102114819D02*
X135006666Y-102114819D01*
X135006666Y-102114819D02*
X135101904Y-102067200D01*
D11*
X136161428Y-100159530D02*
X136185237Y-100183340D01*
X136185237Y-100183340D02*
X136256666Y-100207149D01*
X136256666Y-100207149D02*
X136304285Y-100207149D01*
X136304285Y-100207149D02*
X136375713Y-100183340D01*
X136375713Y-100183340D02*
X136423332Y-100135720D01*
X136423332Y-100135720D02*
X136447142Y-100088101D01*
X136447142Y-100088101D02*
X136470951Y-99992863D01*
X136470951Y-99992863D02*
X136470951Y-99921435D01*
X136470951Y-99921435D02*
X136447142Y-99826197D01*
X136447142Y-99826197D02*
X136423332Y-99778578D01*
X136423332Y-99778578D02*
X136375713Y-99730959D01*
X136375713Y-99730959D02*
X136304285Y-99707149D01*
X136304285Y-99707149D02*
X136256666Y-99707149D01*
X136256666Y-99707149D02*
X136185237Y-99730959D01*
X136185237Y-99730959D02*
X136161428Y-99754768D01*
X135685237Y-100207149D02*
X135970951Y-100207149D01*
X135828094Y-100207149D02*
X135828094Y-99707149D01*
X135828094Y-99707149D02*
X135875713Y-99778578D01*
X135875713Y-99778578D02*
X135923332Y-99826197D01*
X135923332Y-99826197D02*
X135970951Y-99850006D01*
X135256666Y-99707149D02*
X135351904Y-99707149D01*
X135351904Y-99707149D02*
X135399523Y-99730959D01*
X135399523Y-99730959D02*
X135423333Y-99754768D01*
X135423333Y-99754768D02*
X135470952Y-99826197D01*
X135470952Y-99826197D02*
X135494761Y-99921435D01*
X135494761Y-99921435D02*
X135494761Y-100111911D01*
X135494761Y-100111911D02*
X135470952Y-100159530D01*
X135470952Y-100159530D02*
X135447142Y-100183340D01*
X135447142Y-100183340D02*
X135399523Y-100207149D01*
X135399523Y-100207149D02*
X135304285Y-100207149D01*
X135304285Y-100207149D02*
X135256666Y-100183340D01*
X135256666Y-100183340D02*
X135232857Y-100159530D01*
X135232857Y-100159530D02*
X135209047Y-100111911D01*
X135209047Y-100111911D02*
X135209047Y-99992863D01*
X135209047Y-99992863D02*
X135232857Y-99945244D01*
X135232857Y-99945244D02*
X135256666Y-99921435D01*
X135256666Y-99921435D02*
X135304285Y-99897625D01*
X135304285Y-99897625D02*
X135399523Y-99897625D01*
X135399523Y-99897625D02*
X135447142Y-99921435D01*
X135447142Y-99921435D02*
X135470952Y-99945244D01*
X135470952Y-99945244D02*
X135494761Y-99992863D01*
D10*
X237138152Y-93971428D02*
X237804819Y-93971428D01*
X236757200Y-93733333D02*
X237471485Y-93495238D01*
X237471485Y-93495238D02*
X237471485Y-94114285D01*
X237709580Y-94495238D02*
X237757200Y-94542857D01*
X237757200Y-94542857D02*
X237804819Y-94495238D01*
X237804819Y-94495238D02*
X237757200Y-94447619D01*
X237757200Y-94447619D02*
X237709580Y-94495238D01*
X237709580Y-94495238D02*
X237804819Y-94495238D01*
X236804819Y-94876190D02*
X236804819Y-95542856D01*
X236804819Y-95542856D02*
X237804819Y-95114285D01*
X237804819Y-95923809D02*
X236804819Y-95923809D01*
X237423866Y-96019047D02*
X237804819Y-96304761D01*
X237138152Y-96304761D02*
X237519104Y-95923809D01*
D11*
X239227149Y-94578571D02*
X238989054Y-94411905D01*
X239227149Y-94292857D02*
X238727149Y-94292857D01*
X238727149Y-94292857D02*
X238727149Y-94483333D01*
X238727149Y-94483333D02*
X238750959Y-94530952D01*
X238750959Y-94530952D02*
X238774768Y-94554762D01*
X238774768Y-94554762D02*
X238822387Y-94578571D01*
X238822387Y-94578571D02*
X238893816Y-94578571D01*
X238893816Y-94578571D02*
X238941435Y-94554762D01*
X238941435Y-94554762D02*
X238965244Y-94530952D01*
X238965244Y-94530952D02*
X238989054Y-94483333D01*
X238989054Y-94483333D02*
X238989054Y-94292857D01*
X239227149Y-95054762D02*
X239227149Y-94769048D01*
X239227149Y-94911905D02*
X238727149Y-94911905D01*
X238727149Y-94911905D02*
X238798578Y-94864286D01*
X238798578Y-94864286D02*
X238846197Y-94816667D01*
X238846197Y-94816667D02*
X238870006Y-94769048D01*
X239227149Y-95292857D02*
X239227149Y-95388095D01*
X239227149Y-95388095D02*
X239203340Y-95435714D01*
X239203340Y-95435714D02*
X239179530Y-95459523D01*
X239179530Y-95459523D02*
X239108101Y-95507142D01*
X239108101Y-95507142D02*
X239012863Y-95530952D01*
X239012863Y-95530952D02*
X238822387Y-95530952D01*
X238822387Y-95530952D02*
X238774768Y-95507142D01*
X238774768Y-95507142D02*
X238750959Y-95483333D01*
X238750959Y-95483333D02*
X238727149Y-95435714D01*
X238727149Y-95435714D02*
X238727149Y-95340476D01*
X238727149Y-95340476D02*
X238750959Y-95292857D01*
X238750959Y-95292857D02*
X238774768Y-95269047D01*
X238774768Y-95269047D02*
X238822387Y-95245238D01*
X238822387Y-95245238D02*
X238941435Y-95245238D01*
X238941435Y-95245238D02*
X238989054Y-95269047D01*
X238989054Y-95269047D02*
X239012863Y-95292857D01*
X239012863Y-95292857D02*
X239036673Y-95340476D01*
X239036673Y-95340476D02*
X239036673Y-95435714D01*
X239036673Y-95435714D02*
X239012863Y-95483333D01*
X239012863Y-95483333D02*
X238989054Y-95507142D01*
X238989054Y-95507142D02*
X238941435Y-95530952D01*
D10*
X122738152Y-74971428D02*
X123404819Y-74971428D01*
X122357200Y-74733333D02*
X123071485Y-74495238D01*
X123071485Y-74495238D02*
X123071485Y-75114285D01*
X123309580Y-75495238D02*
X123357200Y-75542857D01*
X123357200Y-75542857D02*
X123404819Y-75495238D01*
X123404819Y-75495238D02*
X123357200Y-75447619D01*
X123357200Y-75447619D02*
X123309580Y-75495238D01*
X123309580Y-75495238D02*
X123404819Y-75495238D01*
X122404819Y-75876190D02*
X122404819Y-76542856D01*
X122404819Y-76542856D02*
X123404819Y-76114285D01*
X123404819Y-76923809D02*
X122404819Y-76923809D01*
X123023866Y-77019047D02*
X123404819Y-77304761D01*
X122738152Y-77304761D02*
X123119104Y-76923809D01*
D11*
X124827149Y-75578571D02*
X124589054Y-75411905D01*
X124827149Y-75292857D02*
X124327149Y-75292857D01*
X124327149Y-75292857D02*
X124327149Y-75483333D01*
X124327149Y-75483333D02*
X124350959Y-75530952D01*
X124350959Y-75530952D02*
X124374768Y-75554762D01*
X124374768Y-75554762D02*
X124422387Y-75578571D01*
X124422387Y-75578571D02*
X124493816Y-75578571D01*
X124493816Y-75578571D02*
X124541435Y-75554762D01*
X124541435Y-75554762D02*
X124565244Y-75530952D01*
X124565244Y-75530952D02*
X124589054Y-75483333D01*
X124589054Y-75483333D02*
X124589054Y-75292857D01*
X124827149Y-76054762D02*
X124827149Y-75769048D01*
X124827149Y-75911905D02*
X124327149Y-75911905D01*
X124327149Y-75911905D02*
X124398578Y-75864286D01*
X124398578Y-75864286D02*
X124446197Y-75816667D01*
X124446197Y-75816667D02*
X124470006Y-75769048D01*
X124327149Y-76507142D02*
X124327149Y-76269047D01*
X124327149Y-76269047D02*
X124565244Y-76245238D01*
X124565244Y-76245238D02*
X124541435Y-76269047D01*
X124541435Y-76269047D02*
X124517625Y-76316666D01*
X124517625Y-76316666D02*
X124517625Y-76435714D01*
X124517625Y-76435714D02*
X124541435Y-76483333D01*
X124541435Y-76483333D02*
X124565244Y-76507142D01*
X124565244Y-76507142D02*
X124612863Y-76530952D01*
X124612863Y-76530952D02*
X124731911Y-76530952D01*
X124731911Y-76530952D02*
X124779530Y-76507142D01*
X124779530Y-76507142D02*
X124803340Y-76483333D01*
X124803340Y-76483333D02*
X124827149Y-76435714D01*
X124827149Y-76435714D02*
X124827149Y-76316666D01*
X124827149Y-76316666D02*
X124803340Y-76269047D01*
X124803340Y-76269047D02*
X124779530Y-76245238D01*
D10*
X46638152Y-55871428D02*
X47304819Y-55871428D01*
X46257200Y-55633333D02*
X46971485Y-55395238D01*
X46971485Y-55395238D02*
X46971485Y-56014285D01*
X47209580Y-56395238D02*
X47257200Y-56442857D01*
X47257200Y-56442857D02*
X47304819Y-56395238D01*
X47304819Y-56395238D02*
X47257200Y-56347619D01*
X47257200Y-56347619D02*
X47209580Y-56395238D01*
X47209580Y-56395238D02*
X47304819Y-56395238D01*
X46304819Y-56776190D02*
X46304819Y-57442856D01*
X46304819Y-57442856D02*
X47304819Y-57014285D01*
X47304819Y-57823809D02*
X46304819Y-57823809D01*
X46923866Y-57919047D02*
X47304819Y-58204761D01*
X46638152Y-58204761D02*
X47019104Y-57823809D01*
D11*
X48727149Y-56478571D02*
X48489054Y-56311905D01*
X48727149Y-56192857D02*
X48227149Y-56192857D01*
X48227149Y-56192857D02*
X48227149Y-56383333D01*
X48227149Y-56383333D02*
X48250959Y-56430952D01*
X48250959Y-56430952D02*
X48274768Y-56454762D01*
X48274768Y-56454762D02*
X48322387Y-56478571D01*
X48322387Y-56478571D02*
X48393816Y-56478571D01*
X48393816Y-56478571D02*
X48441435Y-56454762D01*
X48441435Y-56454762D02*
X48465244Y-56430952D01*
X48465244Y-56430952D02*
X48489054Y-56383333D01*
X48489054Y-56383333D02*
X48489054Y-56192857D01*
X48274768Y-56669048D02*
X48250959Y-56692857D01*
X48250959Y-56692857D02*
X48227149Y-56740476D01*
X48227149Y-56740476D02*
X48227149Y-56859524D01*
X48227149Y-56859524D02*
X48250959Y-56907143D01*
X48250959Y-56907143D02*
X48274768Y-56930952D01*
X48274768Y-56930952D02*
X48322387Y-56954762D01*
X48322387Y-56954762D02*
X48370006Y-56954762D01*
X48370006Y-56954762D02*
X48441435Y-56930952D01*
X48441435Y-56930952D02*
X48727149Y-56645238D01*
X48727149Y-56645238D02*
X48727149Y-56954762D01*
X48227149Y-57383333D02*
X48227149Y-57288095D01*
X48227149Y-57288095D02*
X48250959Y-57240476D01*
X48250959Y-57240476D02*
X48274768Y-57216666D01*
X48274768Y-57216666D02*
X48346197Y-57169047D01*
X48346197Y-57169047D02*
X48441435Y-57145238D01*
X48441435Y-57145238D02*
X48631911Y-57145238D01*
X48631911Y-57145238D02*
X48679530Y-57169047D01*
X48679530Y-57169047D02*
X48703340Y-57192857D01*
X48703340Y-57192857D02*
X48727149Y-57240476D01*
X48727149Y-57240476D02*
X48727149Y-57335714D01*
X48727149Y-57335714D02*
X48703340Y-57383333D01*
X48703340Y-57383333D02*
X48679530Y-57407142D01*
X48679530Y-57407142D02*
X48631911Y-57430952D01*
X48631911Y-57430952D02*
X48512863Y-57430952D01*
X48512863Y-57430952D02*
X48465244Y-57407142D01*
X48465244Y-57407142D02*
X48441435Y-57383333D01*
X48441435Y-57383333D02*
X48417625Y-57335714D01*
X48417625Y-57335714D02*
X48417625Y-57240476D01*
X48417625Y-57240476D02*
X48441435Y-57192857D01*
X48441435Y-57192857D02*
X48465244Y-57169047D01*
X48465244Y-57169047D02*
X48512863Y-57145238D01*
D10*
X227688152Y-36871428D02*
X228354819Y-36871428D01*
X227307200Y-36633333D02*
X228021485Y-36395238D01*
X228021485Y-36395238D02*
X228021485Y-37014285D01*
X228259580Y-37395238D02*
X228307200Y-37442857D01*
X228307200Y-37442857D02*
X228354819Y-37395238D01*
X228354819Y-37395238D02*
X228307200Y-37347619D01*
X228307200Y-37347619D02*
X228259580Y-37395238D01*
X228259580Y-37395238D02*
X228354819Y-37395238D01*
X227354819Y-37776190D02*
X227354819Y-38442856D01*
X227354819Y-38442856D02*
X228354819Y-38014285D01*
X228354819Y-38823809D02*
X227354819Y-38823809D01*
X227973866Y-38919047D02*
X228354819Y-39204761D01*
X227688152Y-39204761D02*
X228069104Y-38823809D01*
D11*
X229777149Y-37478571D02*
X229539054Y-37311905D01*
X229777149Y-37192857D02*
X229277149Y-37192857D01*
X229277149Y-37192857D02*
X229277149Y-37383333D01*
X229277149Y-37383333D02*
X229300959Y-37430952D01*
X229300959Y-37430952D02*
X229324768Y-37454762D01*
X229324768Y-37454762D02*
X229372387Y-37478571D01*
X229372387Y-37478571D02*
X229443816Y-37478571D01*
X229443816Y-37478571D02*
X229491435Y-37454762D01*
X229491435Y-37454762D02*
X229515244Y-37430952D01*
X229515244Y-37430952D02*
X229539054Y-37383333D01*
X229539054Y-37383333D02*
X229539054Y-37192857D01*
X229324768Y-37669048D02*
X229300959Y-37692857D01*
X229300959Y-37692857D02*
X229277149Y-37740476D01*
X229277149Y-37740476D02*
X229277149Y-37859524D01*
X229277149Y-37859524D02*
X229300959Y-37907143D01*
X229300959Y-37907143D02*
X229324768Y-37930952D01*
X229324768Y-37930952D02*
X229372387Y-37954762D01*
X229372387Y-37954762D02*
X229420006Y-37954762D01*
X229420006Y-37954762D02*
X229491435Y-37930952D01*
X229491435Y-37930952D02*
X229777149Y-37645238D01*
X229777149Y-37645238D02*
X229777149Y-37954762D01*
X229277149Y-38121428D02*
X229277149Y-38430952D01*
X229277149Y-38430952D02*
X229467625Y-38264285D01*
X229467625Y-38264285D02*
X229467625Y-38335714D01*
X229467625Y-38335714D02*
X229491435Y-38383333D01*
X229491435Y-38383333D02*
X229515244Y-38407142D01*
X229515244Y-38407142D02*
X229562863Y-38430952D01*
X229562863Y-38430952D02*
X229681911Y-38430952D01*
X229681911Y-38430952D02*
X229729530Y-38407142D01*
X229729530Y-38407142D02*
X229753340Y-38383333D01*
X229753340Y-38383333D02*
X229777149Y-38335714D01*
X229777149Y-38335714D02*
X229777149Y-38192857D01*
X229777149Y-38192857D02*
X229753340Y-38145238D01*
X229753340Y-38145238D02*
X229729530Y-38121428D01*
D10*
X138916033Y-18983333D02*
X138916033Y-18649999D01*
X138916033Y-18649999D02*
X139249366Y-18616666D01*
X139249366Y-18616666D02*
X139216033Y-18649999D01*
X139216033Y-18649999D02*
X139182700Y-18716666D01*
X139182700Y-18716666D02*
X139182700Y-18883333D01*
X139182700Y-18883333D02*
X139216033Y-18949999D01*
X139216033Y-18949999D02*
X139249366Y-18983333D01*
X139249366Y-18983333D02*
X139316033Y-19016666D01*
X139316033Y-19016666D02*
X139482700Y-19016666D01*
X139482700Y-19016666D02*
X139549366Y-18983333D01*
X139549366Y-18983333D02*
X139582700Y-18949999D01*
X139582700Y-18949999D02*
X139616033Y-18883333D01*
X139616033Y-18883333D02*
X139616033Y-18716666D01*
X139616033Y-18716666D02*
X139582700Y-18649999D01*
X139582700Y-18649999D02*
X139549366Y-18616666D01*
X139549366Y-19316666D02*
X139582700Y-19350000D01*
X139582700Y-19350000D02*
X139616033Y-19316666D01*
X139616033Y-19316666D02*
X139582700Y-19283333D01*
X139582700Y-19283333D02*
X139549366Y-19316666D01*
X139549366Y-19316666D02*
X139616033Y-19316666D01*
X139616033Y-20016666D02*
X139616033Y-19616666D01*
X139616033Y-19816666D02*
X138916033Y-19816666D01*
X138916033Y-19816666D02*
X139016033Y-19749999D01*
X139016033Y-19749999D02*
X139082700Y-19683333D01*
X139082700Y-19683333D02*
X139116033Y-19616666D01*
X139616033Y-20316666D02*
X138916033Y-20316666D01*
X139349366Y-20383333D02*
X139616033Y-20583333D01*
X139149366Y-20583333D02*
X139416033Y-20316666D01*
D11*
X139527149Y-22716666D02*
X139289054Y-22550000D01*
X139527149Y-22430952D02*
X139027149Y-22430952D01*
X139027149Y-22430952D02*
X139027149Y-22621428D01*
X139027149Y-22621428D02*
X139050959Y-22669047D01*
X139050959Y-22669047D02*
X139074768Y-22692857D01*
X139074768Y-22692857D02*
X139122387Y-22716666D01*
X139122387Y-22716666D02*
X139193816Y-22716666D01*
X139193816Y-22716666D02*
X139241435Y-22692857D01*
X139241435Y-22692857D02*
X139265244Y-22669047D01*
X139265244Y-22669047D02*
X139289054Y-22621428D01*
X139289054Y-22621428D02*
X139289054Y-22430952D01*
X139074768Y-22907143D02*
X139050959Y-22930952D01*
X139050959Y-22930952D02*
X139027149Y-22978571D01*
X139027149Y-22978571D02*
X139027149Y-23097619D01*
X139027149Y-23097619D02*
X139050959Y-23145238D01*
X139050959Y-23145238D02*
X139074768Y-23169047D01*
X139074768Y-23169047D02*
X139122387Y-23192857D01*
X139122387Y-23192857D02*
X139170006Y-23192857D01*
X139170006Y-23192857D02*
X139241435Y-23169047D01*
X139241435Y-23169047D02*
X139527149Y-22883333D01*
X139527149Y-22883333D02*
X139527149Y-23192857D01*
D10*
X65638152Y-74971428D02*
X66304819Y-74971428D01*
X65257200Y-74733333D02*
X65971485Y-74495238D01*
X65971485Y-74495238D02*
X65971485Y-75114285D01*
X66209580Y-75495238D02*
X66257200Y-75542857D01*
X66257200Y-75542857D02*
X66304819Y-75495238D01*
X66304819Y-75495238D02*
X66257200Y-75447619D01*
X66257200Y-75447619D02*
X66209580Y-75495238D01*
X66209580Y-75495238D02*
X66304819Y-75495238D01*
X65304819Y-75876190D02*
X65304819Y-76542856D01*
X65304819Y-76542856D02*
X66304819Y-76114285D01*
X66304819Y-76923809D02*
X65304819Y-76923809D01*
X65923866Y-77019047D02*
X66304819Y-77304761D01*
X65638152Y-77304761D02*
X66019104Y-76923809D01*
D11*
X67727149Y-75578571D02*
X67489054Y-75411905D01*
X67727149Y-75292857D02*
X67227149Y-75292857D01*
X67227149Y-75292857D02*
X67227149Y-75483333D01*
X67227149Y-75483333D02*
X67250959Y-75530952D01*
X67250959Y-75530952D02*
X67274768Y-75554762D01*
X67274768Y-75554762D02*
X67322387Y-75578571D01*
X67322387Y-75578571D02*
X67393816Y-75578571D01*
X67393816Y-75578571D02*
X67441435Y-75554762D01*
X67441435Y-75554762D02*
X67465244Y-75530952D01*
X67465244Y-75530952D02*
X67489054Y-75483333D01*
X67489054Y-75483333D02*
X67489054Y-75292857D01*
X67274768Y-75769048D02*
X67250959Y-75792857D01*
X67250959Y-75792857D02*
X67227149Y-75840476D01*
X67227149Y-75840476D02*
X67227149Y-75959524D01*
X67227149Y-75959524D02*
X67250959Y-76007143D01*
X67250959Y-76007143D02*
X67274768Y-76030952D01*
X67274768Y-76030952D02*
X67322387Y-76054762D01*
X67322387Y-76054762D02*
X67370006Y-76054762D01*
X67370006Y-76054762D02*
X67441435Y-76030952D01*
X67441435Y-76030952D02*
X67727149Y-75745238D01*
X67727149Y-75745238D02*
X67727149Y-76054762D01*
X67227149Y-76507142D02*
X67227149Y-76269047D01*
X67227149Y-76269047D02*
X67465244Y-76245238D01*
X67465244Y-76245238D02*
X67441435Y-76269047D01*
X67441435Y-76269047D02*
X67417625Y-76316666D01*
X67417625Y-76316666D02*
X67417625Y-76435714D01*
X67417625Y-76435714D02*
X67441435Y-76483333D01*
X67441435Y-76483333D02*
X67465244Y-76507142D01*
X67465244Y-76507142D02*
X67512863Y-76530952D01*
X67512863Y-76530952D02*
X67631911Y-76530952D01*
X67631911Y-76530952D02*
X67679530Y-76507142D01*
X67679530Y-76507142D02*
X67703340Y-76483333D01*
X67703340Y-76483333D02*
X67727149Y-76435714D01*
X67727149Y-76435714D02*
X67727149Y-76316666D01*
X67727149Y-76316666D02*
X67703340Y-76269047D01*
X67703340Y-76269047D02*
X67679530Y-76245238D01*
D10*
X141838152Y-74971428D02*
X142504819Y-74971428D01*
X141457200Y-74733333D02*
X142171485Y-74495238D01*
X142171485Y-74495238D02*
X142171485Y-75114285D01*
X142409580Y-75495238D02*
X142457200Y-75542857D01*
X142457200Y-75542857D02*
X142504819Y-75495238D01*
X142504819Y-75495238D02*
X142457200Y-75447619D01*
X142457200Y-75447619D02*
X142409580Y-75495238D01*
X142409580Y-75495238D02*
X142504819Y-75495238D01*
X141504819Y-75876190D02*
X141504819Y-76542856D01*
X141504819Y-76542856D02*
X142504819Y-76114285D01*
X142504819Y-76923809D02*
X141504819Y-76923809D01*
X142123866Y-77019047D02*
X142504819Y-77304761D01*
X141838152Y-77304761D02*
X142219104Y-76923809D01*
D11*
X143927149Y-75578571D02*
X143689054Y-75411905D01*
X143927149Y-75292857D02*
X143427149Y-75292857D01*
X143427149Y-75292857D02*
X143427149Y-75483333D01*
X143427149Y-75483333D02*
X143450959Y-75530952D01*
X143450959Y-75530952D02*
X143474768Y-75554762D01*
X143474768Y-75554762D02*
X143522387Y-75578571D01*
X143522387Y-75578571D02*
X143593816Y-75578571D01*
X143593816Y-75578571D02*
X143641435Y-75554762D01*
X143641435Y-75554762D02*
X143665244Y-75530952D01*
X143665244Y-75530952D02*
X143689054Y-75483333D01*
X143689054Y-75483333D02*
X143689054Y-75292857D01*
X143927149Y-76054762D02*
X143927149Y-75769048D01*
X143927149Y-75911905D02*
X143427149Y-75911905D01*
X143427149Y-75911905D02*
X143498578Y-75864286D01*
X143498578Y-75864286D02*
X143546197Y-75816667D01*
X143546197Y-75816667D02*
X143570006Y-75769048D01*
X143427149Y-76483333D02*
X143427149Y-76388095D01*
X143427149Y-76388095D02*
X143450959Y-76340476D01*
X143450959Y-76340476D02*
X143474768Y-76316666D01*
X143474768Y-76316666D02*
X143546197Y-76269047D01*
X143546197Y-76269047D02*
X143641435Y-76245238D01*
X143641435Y-76245238D02*
X143831911Y-76245238D01*
X143831911Y-76245238D02*
X143879530Y-76269047D01*
X143879530Y-76269047D02*
X143903340Y-76292857D01*
X143903340Y-76292857D02*
X143927149Y-76340476D01*
X143927149Y-76340476D02*
X143927149Y-76435714D01*
X143927149Y-76435714D02*
X143903340Y-76483333D01*
X143903340Y-76483333D02*
X143879530Y-76507142D01*
X143879530Y-76507142D02*
X143831911Y-76530952D01*
X143831911Y-76530952D02*
X143712863Y-76530952D01*
X143712863Y-76530952D02*
X143665244Y-76507142D01*
X143665244Y-76507142D02*
X143641435Y-76483333D01*
X143641435Y-76483333D02*
X143617625Y-76435714D01*
X143617625Y-76435714D02*
X143617625Y-76340476D01*
X143617625Y-76340476D02*
X143641435Y-76292857D01*
X143641435Y-76292857D02*
X143665244Y-76269047D01*
X143665244Y-76269047D02*
X143712863Y-76245238D01*
D10*
X199108152Y-36871428D02*
X199774819Y-36871428D01*
X198727200Y-36633333D02*
X199441485Y-36395238D01*
X199441485Y-36395238D02*
X199441485Y-37014285D01*
X199679580Y-37395238D02*
X199727200Y-37442857D01*
X199727200Y-37442857D02*
X199774819Y-37395238D01*
X199774819Y-37395238D02*
X199727200Y-37347619D01*
X199727200Y-37347619D02*
X199679580Y-37395238D01*
X199679580Y-37395238D02*
X199774819Y-37395238D01*
X198774819Y-37776190D02*
X198774819Y-38442856D01*
X198774819Y-38442856D02*
X199774819Y-38014285D01*
X199774819Y-38823809D02*
X198774819Y-38823809D01*
X199393866Y-38919047D02*
X199774819Y-39204761D01*
X199108152Y-39204761D02*
X199489104Y-38823809D01*
D11*
X201197149Y-37478571D02*
X200959054Y-37311905D01*
X201197149Y-37192857D02*
X200697149Y-37192857D01*
X200697149Y-37192857D02*
X200697149Y-37383333D01*
X200697149Y-37383333D02*
X200720959Y-37430952D01*
X200720959Y-37430952D02*
X200744768Y-37454762D01*
X200744768Y-37454762D02*
X200792387Y-37478571D01*
X200792387Y-37478571D02*
X200863816Y-37478571D01*
X200863816Y-37478571D02*
X200911435Y-37454762D01*
X200911435Y-37454762D02*
X200935244Y-37430952D01*
X200935244Y-37430952D02*
X200959054Y-37383333D01*
X200959054Y-37383333D02*
X200959054Y-37192857D01*
X201197149Y-37954762D02*
X201197149Y-37669048D01*
X201197149Y-37811905D02*
X200697149Y-37811905D01*
X200697149Y-37811905D02*
X200768578Y-37764286D01*
X200768578Y-37764286D02*
X200816197Y-37716667D01*
X200816197Y-37716667D02*
X200840006Y-37669048D01*
X200911435Y-38240476D02*
X200887625Y-38192857D01*
X200887625Y-38192857D02*
X200863816Y-38169047D01*
X200863816Y-38169047D02*
X200816197Y-38145238D01*
X200816197Y-38145238D02*
X200792387Y-38145238D01*
X200792387Y-38145238D02*
X200744768Y-38169047D01*
X200744768Y-38169047D02*
X200720959Y-38192857D01*
X200720959Y-38192857D02*
X200697149Y-38240476D01*
X200697149Y-38240476D02*
X200697149Y-38335714D01*
X200697149Y-38335714D02*
X200720959Y-38383333D01*
X200720959Y-38383333D02*
X200744768Y-38407142D01*
X200744768Y-38407142D02*
X200792387Y-38430952D01*
X200792387Y-38430952D02*
X200816197Y-38430952D01*
X200816197Y-38430952D02*
X200863816Y-38407142D01*
X200863816Y-38407142D02*
X200887625Y-38383333D01*
X200887625Y-38383333D02*
X200911435Y-38335714D01*
X200911435Y-38335714D02*
X200911435Y-38240476D01*
X200911435Y-38240476D02*
X200935244Y-38192857D01*
X200935244Y-38192857D02*
X200959054Y-38169047D01*
X200959054Y-38169047D02*
X201006673Y-38145238D01*
X201006673Y-38145238D02*
X201101911Y-38145238D01*
X201101911Y-38145238D02*
X201149530Y-38169047D01*
X201149530Y-38169047D02*
X201173340Y-38192857D01*
X201173340Y-38192857D02*
X201197149Y-38240476D01*
X201197149Y-38240476D02*
X201197149Y-38335714D01*
X201197149Y-38335714D02*
X201173340Y-38383333D01*
X201173340Y-38383333D02*
X201149530Y-38407142D01*
X201149530Y-38407142D02*
X201101911Y-38430952D01*
X201101911Y-38430952D02*
X201006673Y-38430952D01*
X201006673Y-38430952D02*
X200959054Y-38407142D01*
X200959054Y-38407142D02*
X200935244Y-38383333D01*
X200935244Y-38383333D02*
X200911435Y-38335714D01*
D10*
X37178152Y-36871428D02*
X37844819Y-36871428D01*
X36797200Y-36633333D02*
X37511485Y-36395238D01*
X37511485Y-36395238D02*
X37511485Y-37014285D01*
X37749580Y-37395238D02*
X37797200Y-37442857D01*
X37797200Y-37442857D02*
X37844819Y-37395238D01*
X37844819Y-37395238D02*
X37797200Y-37347619D01*
X37797200Y-37347619D02*
X37749580Y-37395238D01*
X37749580Y-37395238D02*
X37844819Y-37395238D01*
X36844819Y-37776190D02*
X36844819Y-38442856D01*
X36844819Y-38442856D02*
X37844819Y-38014285D01*
X37844819Y-38823809D02*
X36844819Y-38823809D01*
X37463866Y-38919047D02*
X37844819Y-39204761D01*
X37178152Y-39204761D02*
X37559104Y-38823809D01*
D11*
X39267149Y-37478571D02*
X39029054Y-37311905D01*
X39267149Y-37192857D02*
X38767149Y-37192857D01*
X38767149Y-37192857D02*
X38767149Y-37383333D01*
X38767149Y-37383333D02*
X38790959Y-37430952D01*
X38790959Y-37430952D02*
X38814768Y-37454762D01*
X38814768Y-37454762D02*
X38862387Y-37478571D01*
X38862387Y-37478571D02*
X38933816Y-37478571D01*
X38933816Y-37478571D02*
X38981435Y-37454762D01*
X38981435Y-37454762D02*
X39005244Y-37430952D01*
X39005244Y-37430952D02*
X39029054Y-37383333D01*
X39029054Y-37383333D02*
X39029054Y-37192857D01*
X38814768Y-37669048D02*
X38790959Y-37692857D01*
X38790959Y-37692857D02*
X38767149Y-37740476D01*
X38767149Y-37740476D02*
X38767149Y-37859524D01*
X38767149Y-37859524D02*
X38790959Y-37907143D01*
X38790959Y-37907143D02*
X38814768Y-37930952D01*
X38814768Y-37930952D02*
X38862387Y-37954762D01*
X38862387Y-37954762D02*
X38910006Y-37954762D01*
X38910006Y-37954762D02*
X38981435Y-37930952D01*
X38981435Y-37930952D02*
X39267149Y-37645238D01*
X39267149Y-37645238D02*
X39267149Y-37954762D01*
X38814768Y-38145238D02*
X38790959Y-38169047D01*
X38790959Y-38169047D02*
X38767149Y-38216666D01*
X38767149Y-38216666D02*
X38767149Y-38335714D01*
X38767149Y-38335714D02*
X38790959Y-38383333D01*
X38790959Y-38383333D02*
X38814768Y-38407142D01*
X38814768Y-38407142D02*
X38862387Y-38430952D01*
X38862387Y-38430952D02*
X38910006Y-38430952D01*
X38910006Y-38430952D02*
X38981435Y-38407142D01*
X38981435Y-38407142D02*
X39267149Y-38121428D01*
X39267149Y-38121428D02*
X39267149Y-38430952D01*
D10*
X199108152Y-55861428D02*
X199774819Y-55861428D01*
X198727200Y-55623333D02*
X199441485Y-55385238D01*
X199441485Y-55385238D02*
X199441485Y-56004285D01*
X199679580Y-56385238D02*
X199727200Y-56432857D01*
X199727200Y-56432857D02*
X199774819Y-56385238D01*
X199774819Y-56385238D02*
X199727200Y-56337619D01*
X199727200Y-56337619D02*
X199679580Y-56385238D01*
X199679580Y-56385238D02*
X199774819Y-56385238D01*
X198774819Y-56766190D02*
X198774819Y-57432856D01*
X198774819Y-57432856D02*
X199774819Y-57004285D01*
X199774819Y-57813809D02*
X198774819Y-57813809D01*
X199393866Y-57909047D02*
X199774819Y-58194761D01*
X199108152Y-58194761D02*
X199489104Y-57813809D01*
D11*
X201197149Y-56706666D02*
X200959054Y-56540000D01*
X201197149Y-56420952D02*
X200697149Y-56420952D01*
X200697149Y-56420952D02*
X200697149Y-56611428D01*
X200697149Y-56611428D02*
X200720959Y-56659047D01*
X200720959Y-56659047D02*
X200744768Y-56682857D01*
X200744768Y-56682857D02*
X200792387Y-56706666D01*
X200792387Y-56706666D02*
X200863816Y-56706666D01*
X200863816Y-56706666D02*
X200911435Y-56682857D01*
X200911435Y-56682857D02*
X200935244Y-56659047D01*
X200935244Y-56659047D02*
X200959054Y-56611428D01*
X200959054Y-56611428D02*
X200959054Y-56420952D01*
X200911435Y-56992381D02*
X200887625Y-56944762D01*
X200887625Y-56944762D02*
X200863816Y-56920952D01*
X200863816Y-56920952D02*
X200816197Y-56897143D01*
X200816197Y-56897143D02*
X200792387Y-56897143D01*
X200792387Y-56897143D02*
X200744768Y-56920952D01*
X200744768Y-56920952D02*
X200720959Y-56944762D01*
X200720959Y-56944762D02*
X200697149Y-56992381D01*
X200697149Y-56992381D02*
X200697149Y-57087619D01*
X200697149Y-57087619D02*
X200720959Y-57135238D01*
X200720959Y-57135238D02*
X200744768Y-57159047D01*
X200744768Y-57159047D02*
X200792387Y-57182857D01*
X200792387Y-57182857D02*
X200816197Y-57182857D01*
X200816197Y-57182857D02*
X200863816Y-57159047D01*
X200863816Y-57159047D02*
X200887625Y-57135238D01*
X200887625Y-57135238D02*
X200911435Y-57087619D01*
X200911435Y-57087619D02*
X200911435Y-56992381D01*
X200911435Y-56992381D02*
X200935244Y-56944762D01*
X200935244Y-56944762D02*
X200959054Y-56920952D01*
X200959054Y-56920952D02*
X201006673Y-56897143D01*
X201006673Y-56897143D02*
X201101911Y-56897143D01*
X201101911Y-56897143D02*
X201149530Y-56920952D01*
X201149530Y-56920952D02*
X201173340Y-56944762D01*
X201173340Y-56944762D02*
X201197149Y-56992381D01*
X201197149Y-56992381D02*
X201197149Y-57087619D01*
X201197149Y-57087619D02*
X201173340Y-57135238D01*
X201173340Y-57135238D02*
X201149530Y-57159047D01*
X201149530Y-57159047D02*
X201101911Y-57182857D01*
X201101911Y-57182857D02*
X201006673Y-57182857D01*
X201006673Y-57182857D02*
X200959054Y-57159047D01*
X200959054Y-57159047D02*
X200935244Y-57135238D01*
X200935244Y-57135238D02*
X200911435Y-57087619D01*
D10*
X141958152Y-55871428D02*
X142624819Y-55871428D01*
X141577200Y-55633333D02*
X142291485Y-55395238D01*
X142291485Y-55395238D02*
X142291485Y-56014285D01*
X142529580Y-56395238D02*
X142577200Y-56442857D01*
X142577200Y-56442857D02*
X142624819Y-56395238D01*
X142624819Y-56395238D02*
X142577200Y-56347619D01*
X142577200Y-56347619D02*
X142529580Y-56395238D01*
X142529580Y-56395238D02*
X142624819Y-56395238D01*
X141624819Y-56776190D02*
X141624819Y-57442856D01*
X141624819Y-57442856D02*
X142624819Y-57014285D01*
X142624819Y-57823809D02*
X141624819Y-57823809D01*
X142243866Y-57919047D02*
X142624819Y-58204761D01*
X141958152Y-58204761D02*
X142339104Y-57823809D01*
D11*
X144047149Y-56478571D02*
X143809054Y-56311905D01*
X144047149Y-56192857D02*
X143547149Y-56192857D01*
X143547149Y-56192857D02*
X143547149Y-56383333D01*
X143547149Y-56383333D02*
X143570959Y-56430952D01*
X143570959Y-56430952D02*
X143594768Y-56454762D01*
X143594768Y-56454762D02*
X143642387Y-56478571D01*
X143642387Y-56478571D02*
X143713816Y-56478571D01*
X143713816Y-56478571D02*
X143761435Y-56454762D01*
X143761435Y-56454762D02*
X143785244Y-56430952D01*
X143785244Y-56430952D02*
X143809054Y-56383333D01*
X143809054Y-56383333D02*
X143809054Y-56192857D01*
X144047149Y-56954762D02*
X144047149Y-56669048D01*
X144047149Y-56811905D02*
X143547149Y-56811905D01*
X143547149Y-56811905D02*
X143618578Y-56764286D01*
X143618578Y-56764286D02*
X143666197Y-56716667D01*
X143666197Y-56716667D02*
X143690006Y-56669048D01*
X143594768Y-57145238D02*
X143570959Y-57169047D01*
X143570959Y-57169047D02*
X143547149Y-57216666D01*
X143547149Y-57216666D02*
X143547149Y-57335714D01*
X143547149Y-57335714D02*
X143570959Y-57383333D01*
X143570959Y-57383333D02*
X143594768Y-57407142D01*
X143594768Y-57407142D02*
X143642387Y-57430952D01*
X143642387Y-57430952D02*
X143690006Y-57430952D01*
X143690006Y-57430952D02*
X143761435Y-57407142D01*
X143761435Y-57407142D02*
X144047149Y-57121428D01*
X144047149Y-57121428D02*
X144047149Y-57430952D01*
D10*
X27538152Y-93971428D02*
X28204819Y-93971428D01*
X27157200Y-93733333D02*
X27871485Y-93495238D01*
X27871485Y-93495238D02*
X27871485Y-94114285D01*
X28109580Y-94495238D02*
X28157200Y-94542857D01*
X28157200Y-94542857D02*
X28204819Y-94495238D01*
X28204819Y-94495238D02*
X28157200Y-94447619D01*
X28157200Y-94447619D02*
X28109580Y-94495238D01*
X28109580Y-94495238D02*
X28204819Y-94495238D01*
X27204819Y-94876190D02*
X27204819Y-95542856D01*
X27204819Y-95542856D02*
X28204819Y-95114285D01*
X28204819Y-95923809D02*
X27204819Y-95923809D01*
X27823866Y-96019047D02*
X28204819Y-96304761D01*
X27538152Y-96304761D02*
X27919104Y-95923809D01*
D11*
X29627149Y-94578571D02*
X29389054Y-94411905D01*
X29627149Y-94292857D02*
X29127149Y-94292857D01*
X29127149Y-94292857D02*
X29127149Y-94483333D01*
X29127149Y-94483333D02*
X29150959Y-94530952D01*
X29150959Y-94530952D02*
X29174768Y-94554762D01*
X29174768Y-94554762D02*
X29222387Y-94578571D01*
X29222387Y-94578571D02*
X29293816Y-94578571D01*
X29293816Y-94578571D02*
X29341435Y-94554762D01*
X29341435Y-94554762D02*
X29365244Y-94530952D01*
X29365244Y-94530952D02*
X29389054Y-94483333D01*
X29389054Y-94483333D02*
X29389054Y-94292857D01*
X29174768Y-94769048D02*
X29150959Y-94792857D01*
X29150959Y-94792857D02*
X29127149Y-94840476D01*
X29127149Y-94840476D02*
X29127149Y-94959524D01*
X29127149Y-94959524D02*
X29150959Y-95007143D01*
X29150959Y-95007143D02*
X29174768Y-95030952D01*
X29174768Y-95030952D02*
X29222387Y-95054762D01*
X29222387Y-95054762D02*
X29270006Y-95054762D01*
X29270006Y-95054762D02*
X29341435Y-95030952D01*
X29341435Y-95030952D02*
X29627149Y-94745238D01*
X29627149Y-94745238D02*
X29627149Y-95054762D01*
X29627149Y-95530952D02*
X29627149Y-95245238D01*
X29627149Y-95388095D02*
X29127149Y-95388095D01*
X29127149Y-95388095D02*
X29198578Y-95340476D01*
X29198578Y-95340476D02*
X29246197Y-95292857D01*
X29246197Y-95292857D02*
X29270006Y-95245238D01*
D10*
X136316033Y-18983333D02*
X136316033Y-18649999D01*
X136316033Y-18649999D02*
X136649366Y-18616666D01*
X136649366Y-18616666D02*
X136616033Y-18649999D01*
X136616033Y-18649999D02*
X136582700Y-18716666D01*
X136582700Y-18716666D02*
X136582700Y-18883333D01*
X136582700Y-18883333D02*
X136616033Y-18949999D01*
X136616033Y-18949999D02*
X136649366Y-18983333D01*
X136649366Y-18983333D02*
X136716033Y-19016666D01*
X136716033Y-19016666D02*
X136882700Y-19016666D01*
X136882700Y-19016666D02*
X136949366Y-18983333D01*
X136949366Y-18983333D02*
X136982700Y-18949999D01*
X136982700Y-18949999D02*
X137016033Y-18883333D01*
X137016033Y-18883333D02*
X137016033Y-18716666D01*
X137016033Y-18716666D02*
X136982700Y-18649999D01*
X136982700Y-18649999D02*
X136949366Y-18616666D01*
X136949366Y-19316666D02*
X136982700Y-19350000D01*
X136982700Y-19350000D02*
X137016033Y-19316666D01*
X137016033Y-19316666D02*
X136982700Y-19283333D01*
X136982700Y-19283333D02*
X136949366Y-19316666D01*
X136949366Y-19316666D02*
X137016033Y-19316666D01*
X137016033Y-20016666D02*
X137016033Y-19616666D01*
X137016033Y-19816666D02*
X136316033Y-19816666D01*
X136316033Y-19816666D02*
X136416033Y-19749999D01*
X136416033Y-19749999D02*
X136482700Y-19683333D01*
X136482700Y-19683333D02*
X136516033Y-19616666D01*
X137016033Y-20316666D02*
X136316033Y-20316666D01*
X136749366Y-20383333D02*
X137016033Y-20583333D01*
X136549366Y-20583333D02*
X136816033Y-20316666D01*
D11*
X136927149Y-22716666D02*
X136689054Y-22550000D01*
X136927149Y-22430952D02*
X136427149Y-22430952D01*
X136427149Y-22430952D02*
X136427149Y-22621428D01*
X136427149Y-22621428D02*
X136450959Y-22669047D01*
X136450959Y-22669047D02*
X136474768Y-22692857D01*
X136474768Y-22692857D02*
X136522387Y-22716666D01*
X136522387Y-22716666D02*
X136593816Y-22716666D01*
X136593816Y-22716666D02*
X136641435Y-22692857D01*
X136641435Y-22692857D02*
X136665244Y-22669047D01*
X136665244Y-22669047D02*
X136689054Y-22621428D01*
X136689054Y-22621428D02*
X136689054Y-22430952D01*
X136427149Y-22883333D02*
X136427149Y-23192857D01*
X136427149Y-23192857D02*
X136617625Y-23026190D01*
X136617625Y-23026190D02*
X136617625Y-23097619D01*
X136617625Y-23097619D02*
X136641435Y-23145238D01*
X136641435Y-23145238D02*
X136665244Y-23169047D01*
X136665244Y-23169047D02*
X136712863Y-23192857D01*
X136712863Y-23192857D02*
X136831911Y-23192857D01*
X136831911Y-23192857D02*
X136879530Y-23169047D01*
X136879530Y-23169047D02*
X136903340Y-23145238D01*
X136903340Y-23145238D02*
X136927149Y-23097619D01*
X136927149Y-23097619D02*
X136927149Y-22954762D01*
X136927149Y-22954762D02*
X136903340Y-22907143D01*
X136903340Y-22907143D02*
X136879530Y-22883333D01*
D10*
X94238152Y-113071428D02*
X94904819Y-113071428D01*
X93857200Y-112833333D02*
X94571485Y-112595238D01*
X94571485Y-112595238D02*
X94571485Y-113214285D01*
X94809580Y-113595238D02*
X94857200Y-113642857D01*
X94857200Y-113642857D02*
X94904819Y-113595238D01*
X94904819Y-113595238D02*
X94857200Y-113547619D01*
X94857200Y-113547619D02*
X94809580Y-113595238D01*
X94809580Y-113595238D02*
X94904819Y-113595238D01*
X93904819Y-113976190D02*
X93904819Y-114642856D01*
X93904819Y-114642856D02*
X94904819Y-114214285D01*
X94904819Y-115023809D02*
X93904819Y-115023809D01*
X94523866Y-115119047D02*
X94904819Y-115404761D01*
X94238152Y-115404761D02*
X94619104Y-115023809D01*
D11*
X96327149Y-113678571D02*
X96089054Y-113511905D01*
X96327149Y-113392857D02*
X95827149Y-113392857D01*
X95827149Y-113392857D02*
X95827149Y-113583333D01*
X95827149Y-113583333D02*
X95850959Y-113630952D01*
X95850959Y-113630952D02*
X95874768Y-113654762D01*
X95874768Y-113654762D02*
X95922387Y-113678571D01*
X95922387Y-113678571D02*
X95993816Y-113678571D01*
X95993816Y-113678571D02*
X96041435Y-113654762D01*
X96041435Y-113654762D02*
X96065244Y-113630952D01*
X96065244Y-113630952D02*
X96089054Y-113583333D01*
X96089054Y-113583333D02*
X96089054Y-113392857D01*
X96327149Y-114154762D02*
X96327149Y-113869048D01*
X96327149Y-114011905D02*
X95827149Y-114011905D01*
X95827149Y-114011905D02*
X95898578Y-113964286D01*
X95898578Y-113964286D02*
X95946197Y-113916667D01*
X95946197Y-113916667D02*
X95970006Y-113869048D01*
X95827149Y-114321428D02*
X95827149Y-114630952D01*
X95827149Y-114630952D02*
X96017625Y-114464285D01*
X96017625Y-114464285D02*
X96017625Y-114535714D01*
X96017625Y-114535714D02*
X96041435Y-114583333D01*
X96041435Y-114583333D02*
X96065244Y-114607142D01*
X96065244Y-114607142D02*
X96112863Y-114630952D01*
X96112863Y-114630952D02*
X96231911Y-114630952D01*
X96231911Y-114630952D02*
X96279530Y-114607142D01*
X96279530Y-114607142D02*
X96303340Y-114583333D01*
X96303340Y-114583333D02*
X96327149Y-114535714D01*
X96327149Y-114535714D02*
X96327149Y-114392857D01*
X96327149Y-114392857D02*
X96303340Y-114345238D01*
X96303340Y-114345238D02*
X96279530Y-114321428D01*
D10*
X65638152Y-55871428D02*
X66304819Y-55871428D01*
X65257200Y-55633333D02*
X65971485Y-55395238D01*
X65971485Y-55395238D02*
X65971485Y-56014285D01*
X66209580Y-56395238D02*
X66257200Y-56442857D01*
X66257200Y-56442857D02*
X66304819Y-56395238D01*
X66304819Y-56395238D02*
X66257200Y-56347619D01*
X66257200Y-56347619D02*
X66209580Y-56395238D01*
X66209580Y-56395238D02*
X66304819Y-56395238D01*
X65304819Y-56776190D02*
X65304819Y-57442856D01*
X65304819Y-57442856D02*
X66304819Y-57014285D01*
X66304819Y-57823809D02*
X65304819Y-57823809D01*
X65923866Y-57919047D02*
X66304819Y-58204761D01*
X65638152Y-58204761D02*
X66019104Y-57823809D01*
D11*
X67727149Y-56478571D02*
X67489054Y-56311905D01*
X67727149Y-56192857D02*
X67227149Y-56192857D01*
X67227149Y-56192857D02*
X67227149Y-56383333D01*
X67227149Y-56383333D02*
X67250959Y-56430952D01*
X67250959Y-56430952D02*
X67274768Y-56454762D01*
X67274768Y-56454762D02*
X67322387Y-56478571D01*
X67322387Y-56478571D02*
X67393816Y-56478571D01*
X67393816Y-56478571D02*
X67441435Y-56454762D01*
X67441435Y-56454762D02*
X67465244Y-56430952D01*
X67465244Y-56430952D02*
X67489054Y-56383333D01*
X67489054Y-56383333D02*
X67489054Y-56192857D01*
X67274768Y-56669048D02*
X67250959Y-56692857D01*
X67250959Y-56692857D02*
X67227149Y-56740476D01*
X67227149Y-56740476D02*
X67227149Y-56859524D01*
X67227149Y-56859524D02*
X67250959Y-56907143D01*
X67250959Y-56907143D02*
X67274768Y-56930952D01*
X67274768Y-56930952D02*
X67322387Y-56954762D01*
X67322387Y-56954762D02*
X67370006Y-56954762D01*
X67370006Y-56954762D02*
X67441435Y-56930952D01*
X67441435Y-56930952D02*
X67727149Y-56645238D01*
X67727149Y-56645238D02*
X67727149Y-56954762D01*
X67393816Y-57383333D02*
X67727149Y-57383333D01*
X67203340Y-57264285D02*
X67560482Y-57145238D01*
X67560482Y-57145238D02*
X67560482Y-57454761D01*
D10*
X199038152Y-74971428D02*
X199704819Y-74971428D01*
X198657200Y-74733333D02*
X199371485Y-74495238D01*
X199371485Y-74495238D02*
X199371485Y-75114285D01*
X199609580Y-75495238D02*
X199657200Y-75542857D01*
X199657200Y-75542857D02*
X199704819Y-75495238D01*
X199704819Y-75495238D02*
X199657200Y-75447619D01*
X199657200Y-75447619D02*
X199609580Y-75495238D01*
X199609580Y-75495238D02*
X199704819Y-75495238D01*
X198704819Y-75876190D02*
X198704819Y-76542856D01*
X198704819Y-76542856D02*
X199704819Y-76114285D01*
X199704819Y-76923809D02*
X198704819Y-76923809D01*
X199323866Y-77019047D02*
X199704819Y-77304761D01*
X199038152Y-77304761D02*
X199419104Y-76923809D01*
D11*
X201127149Y-75816666D02*
X200889054Y-75650000D01*
X201127149Y-75530952D02*
X200627149Y-75530952D01*
X200627149Y-75530952D02*
X200627149Y-75721428D01*
X200627149Y-75721428D02*
X200650959Y-75769047D01*
X200650959Y-75769047D02*
X200674768Y-75792857D01*
X200674768Y-75792857D02*
X200722387Y-75816666D01*
X200722387Y-75816666D02*
X200793816Y-75816666D01*
X200793816Y-75816666D02*
X200841435Y-75792857D01*
X200841435Y-75792857D02*
X200865244Y-75769047D01*
X200865244Y-75769047D02*
X200889054Y-75721428D01*
X200889054Y-75721428D02*
X200889054Y-75530952D01*
X200793816Y-76245238D02*
X201127149Y-76245238D01*
X200603340Y-76126190D02*
X200960482Y-76007143D01*
X200960482Y-76007143D02*
X200960482Y-76316666D01*
D10*
X122898152Y-55871428D02*
X123564819Y-55871428D01*
X122517200Y-55633333D02*
X123231485Y-55395238D01*
X123231485Y-55395238D02*
X123231485Y-56014285D01*
X123469580Y-56395238D02*
X123517200Y-56442857D01*
X123517200Y-56442857D02*
X123564819Y-56395238D01*
X123564819Y-56395238D02*
X123517200Y-56347619D01*
X123517200Y-56347619D02*
X123469580Y-56395238D01*
X123469580Y-56395238D02*
X123564819Y-56395238D01*
X122564819Y-56776190D02*
X122564819Y-57442856D01*
X122564819Y-57442856D02*
X123564819Y-57014285D01*
X123564819Y-57823809D02*
X122564819Y-57823809D01*
X123183866Y-57919047D02*
X123564819Y-58204761D01*
X122898152Y-58204761D02*
X123279104Y-57823809D01*
D11*
X124987149Y-56478571D02*
X124749054Y-56311905D01*
X124987149Y-56192857D02*
X124487149Y-56192857D01*
X124487149Y-56192857D02*
X124487149Y-56383333D01*
X124487149Y-56383333D02*
X124510959Y-56430952D01*
X124510959Y-56430952D02*
X124534768Y-56454762D01*
X124534768Y-56454762D02*
X124582387Y-56478571D01*
X124582387Y-56478571D02*
X124653816Y-56478571D01*
X124653816Y-56478571D02*
X124701435Y-56454762D01*
X124701435Y-56454762D02*
X124725244Y-56430952D01*
X124725244Y-56430952D02*
X124749054Y-56383333D01*
X124749054Y-56383333D02*
X124749054Y-56192857D01*
X124987149Y-56954762D02*
X124987149Y-56669048D01*
X124987149Y-56811905D02*
X124487149Y-56811905D01*
X124487149Y-56811905D02*
X124558578Y-56764286D01*
X124558578Y-56764286D02*
X124606197Y-56716667D01*
X124606197Y-56716667D02*
X124630006Y-56669048D01*
X124987149Y-57430952D02*
X124987149Y-57145238D01*
X124987149Y-57288095D02*
X124487149Y-57288095D01*
X124487149Y-57288095D02*
X124558578Y-57240476D01*
X124558578Y-57240476D02*
X124606197Y-57192857D01*
X124606197Y-57192857D02*
X124630006Y-57145238D01*
D10*
X65768152Y-36861428D02*
X66434819Y-36861428D01*
X65387200Y-36623333D02*
X66101485Y-36385238D01*
X66101485Y-36385238D02*
X66101485Y-37004285D01*
X66339580Y-37385238D02*
X66387200Y-37432857D01*
X66387200Y-37432857D02*
X66434819Y-37385238D01*
X66434819Y-37385238D02*
X66387200Y-37337619D01*
X66387200Y-37337619D02*
X66339580Y-37385238D01*
X66339580Y-37385238D02*
X66434819Y-37385238D01*
X65434819Y-37766190D02*
X65434819Y-38432856D01*
X65434819Y-38432856D02*
X66434819Y-38004285D01*
X66434819Y-38813809D02*
X65434819Y-38813809D01*
X66053866Y-38909047D02*
X66434819Y-39194761D01*
X65768152Y-39194761D02*
X66149104Y-38813809D01*
D11*
X67857149Y-37468571D02*
X67619054Y-37301905D01*
X67857149Y-37182857D02*
X67357149Y-37182857D01*
X67357149Y-37182857D02*
X67357149Y-37373333D01*
X67357149Y-37373333D02*
X67380959Y-37420952D01*
X67380959Y-37420952D02*
X67404768Y-37444762D01*
X67404768Y-37444762D02*
X67452387Y-37468571D01*
X67452387Y-37468571D02*
X67523816Y-37468571D01*
X67523816Y-37468571D02*
X67571435Y-37444762D01*
X67571435Y-37444762D02*
X67595244Y-37420952D01*
X67595244Y-37420952D02*
X67619054Y-37373333D01*
X67619054Y-37373333D02*
X67619054Y-37182857D01*
X67857149Y-37944762D02*
X67857149Y-37659048D01*
X67857149Y-37801905D02*
X67357149Y-37801905D01*
X67357149Y-37801905D02*
X67428578Y-37754286D01*
X67428578Y-37754286D02*
X67476197Y-37706667D01*
X67476197Y-37706667D02*
X67500006Y-37659048D01*
X67357149Y-38111428D02*
X67357149Y-38444761D01*
X67357149Y-38444761D02*
X67857149Y-38230476D01*
D10*
X141574285Y-101210057D02*
X141526666Y-101162438D01*
X141526666Y-101162438D02*
X141431428Y-101114819D01*
X141431428Y-101114819D02*
X141193333Y-101114819D01*
X141193333Y-101114819D02*
X141098095Y-101162438D01*
X141098095Y-101162438D02*
X141050476Y-101210057D01*
X141050476Y-101210057D02*
X141002857Y-101305295D01*
X141002857Y-101305295D02*
X141002857Y-101400533D01*
X141002857Y-101400533D02*
X141050476Y-101543390D01*
X141050476Y-101543390D02*
X141621904Y-102114819D01*
X141621904Y-102114819D02*
X141002857Y-102114819D01*
X140669523Y-101114819D02*
X140002857Y-101114819D01*
X140002857Y-101114819D02*
X140431428Y-102114819D01*
X139621904Y-101448152D02*
X139621904Y-102448152D01*
X139621904Y-101495771D02*
X139526666Y-101448152D01*
X139526666Y-101448152D02*
X139336190Y-101448152D01*
X139336190Y-101448152D02*
X139240952Y-101495771D01*
X139240952Y-101495771D02*
X139193333Y-101543390D01*
X139193333Y-101543390D02*
X139145714Y-101638628D01*
X139145714Y-101638628D02*
X139145714Y-101924342D01*
X139145714Y-101924342D02*
X139193333Y-102019580D01*
X139193333Y-102019580D02*
X139240952Y-102067200D01*
X139240952Y-102067200D02*
X139336190Y-102114819D01*
X139336190Y-102114819D02*
X139526666Y-102114819D01*
X139526666Y-102114819D02*
X139621904Y-102067200D01*
D11*
X140681428Y-100159530D02*
X140705237Y-100183340D01*
X140705237Y-100183340D02*
X140776666Y-100207149D01*
X140776666Y-100207149D02*
X140824285Y-100207149D01*
X140824285Y-100207149D02*
X140895713Y-100183340D01*
X140895713Y-100183340D02*
X140943332Y-100135720D01*
X140943332Y-100135720D02*
X140967142Y-100088101D01*
X140967142Y-100088101D02*
X140990951Y-99992863D01*
X140990951Y-99992863D02*
X140990951Y-99921435D01*
X140990951Y-99921435D02*
X140967142Y-99826197D01*
X140967142Y-99826197D02*
X140943332Y-99778578D01*
X140943332Y-99778578D02*
X140895713Y-99730959D01*
X140895713Y-99730959D02*
X140824285Y-99707149D01*
X140824285Y-99707149D02*
X140776666Y-99707149D01*
X140776666Y-99707149D02*
X140705237Y-99730959D01*
X140705237Y-99730959D02*
X140681428Y-99754768D01*
X140205237Y-100207149D02*
X140490951Y-100207149D01*
X140348094Y-100207149D02*
X140348094Y-99707149D01*
X140348094Y-99707149D02*
X140395713Y-99778578D01*
X140395713Y-99778578D02*
X140443332Y-99826197D01*
X140443332Y-99826197D02*
X140490951Y-99850006D01*
X140038571Y-99707149D02*
X139705238Y-99707149D01*
X139705238Y-99707149D02*
X139919523Y-100207149D01*
D10*
X218158152Y-55851428D02*
X218824819Y-55851428D01*
X217777200Y-55613333D02*
X218491485Y-55375238D01*
X218491485Y-55375238D02*
X218491485Y-55994285D01*
X218729580Y-56375238D02*
X218777200Y-56422857D01*
X218777200Y-56422857D02*
X218824819Y-56375238D01*
X218824819Y-56375238D02*
X218777200Y-56327619D01*
X218777200Y-56327619D02*
X218729580Y-56375238D01*
X218729580Y-56375238D02*
X218824819Y-56375238D01*
X217824819Y-56756190D02*
X217824819Y-57422856D01*
X217824819Y-57422856D02*
X218824819Y-56994285D01*
X218824819Y-57803809D02*
X217824819Y-57803809D01*
X218443866Y-57899047D02*
X218824819Y-58184761D01*
X218158152Y-58184761D02*
X218539104Y-57803809D01*
D11*
X220247149Y-56696666D02*
X220009054Y-56530000D01*
X220247149Y-56410952D02*
X219747149Y-56410952D01*
X219747149Y-56410952D02*
X219747149Y-56601428D01*
X219747149Y-56601428D02*
X219770959Y-56649047D01*
X219770959Y-56649047D02*
X219794768Y-56672857D01*
X219794768Y-56672857D02*
X219842387Y-56696666D01*
X219842387Y-56696666D02*
X219913816Y-56696666D01*
X219913816Y-56696666D02*
X219961435Y-56672857D01*
X219961435Y-56672857D02*
X219985244Y-56649047D01*
X219985244Y-56649047D02*
X220009054Y-56601428D01*
X220009054Y-56601428D02*
X220009054Y-56410952D01*
X219747149Y-56863333D02*
X219747149Y-57196666D01*
X219747149Y-57196666D02*
X220247149Y-56982381D01*
D10*
X170438152Y-113071428D02*
X171104819Y-113071428D01*
X170057200Y-112833333D02*
X170771485Y-112595238D01*
X170771485Y-112595238D02*
X170771485Y-113214285D01*
X171009580Y-113595238D02*
X171057200Y-113642857D01*
X171057200Y-113642857D02*
X171104819Y-113595238D01*
X171104819Y-113595238D02*
X171057200Y-113547619D01*
X171057200Y-113547619D02*
X171009580Y-113595238D01*
X171009580Y-113595238D02*
X171104819Y-113595238D01*
X170104819Y-113976190D02*
X170104819Y-114642856D01*
X170104819Y-114642856D02*
X171104819Y-114214285D01*
X171104819Y-115023809D02*
X170104819Y-115023809D01*
X170723866Y-115119047D02*
X171104819Y-115404761D01*
X170438152Y-115404761D02*
X170819104Y-115023809D01*
D11*
X172527149Y-113678571D02*
X172289054Y-113511905D01*
X172527149Y-113392857D02*
X172027149Y-113392857D01*
X172027149Y-113392857D02*
X172027149Y-113583333D01*
X172027149Y-113583333D02*
X172050959Y-113630952D01*
X172050959Y-113630952D02*
X172074768Y-113654762D01*
X172074768Y-113654762D02*
X172122387Y-113678571D01*
X172122387Y-113678571D02*
X172193816Y-113678571D01*
X172193816Y-113678571D02*
X172241435Y-113654762D01*
X172241435Y-113654762D02*
X172265244Y-113630952D01*
X172265244Y-113630952D02*
X172289054Y-113583333D01*
X172289054Y-113583333D02*
X172289054Y-113392857D01*
X172527149Y-114154762D02*
X172527149Y-113869048D01*
X172527149Y-114011905D02*
X172027149Y-114011905D01*
X172027149Y-114011905D02*
X172098578Y-113964286D01*
X172098578Y-113964286D02*
X172146197Y-113916667D01*
X172146197Y-113916667D02*
X172170006Y-113869048D01*
X172193816Y-114583333D02*
X172527149Y-114583333D01*
X172003340Y-114464285D02*
X172360482Y-114345238D01*
X172360482Y-114345238D02*
X172360482Y-114654761D01*
D10*
X145105238Y-107744819D02*
X145676666Y-107744819D01*
X145390952Y-107744819D02*
X145390952Y-106744819D01*
X145390952Y-106744819D02*
X145486190Y-106887676D01*
X145486190Y-106887676D02*
X145581428Y-106982914D01*
X145581428Y-106982914D02*
X145676666Y-107030533D01*
X144724285Y-106840057D02*
X144676666Y-106792438D01*
X144676666Y-106792438D02*
X144581428Y-106744819D01*
X144581428Y-106744819D02*
X144343333Y-106744819D01*
X144343333Y-106744819D02*
X144248095Y-106792438D01*
X144248095Y-106792438D02*
X144200476Y-106840057D01*
X144200476Y-106840057D02*
X144152857Y-106935295D01*
X144152857Y-106935295D02*
X144152857Y-107030533D01*
X144152857Y-107030533D02*
X144200476Y-107173390D01*
X144200476Y-107173390D02*
X144771904Y-107744819D01*
X144771904Y-107744819D02*
X144152857Y-107744819D01*
X143724285Y-107649580D02*
X143676666Y-107697200D01*
X143676666Y-107697200D02*
X143724285Y-107744819D01*
X143724285Y-107744819D02*
X143771904Y-107697200D01*
X143771904Y-107697200D02*
X143724285Y-107649580D01*
X143724285Y-107649580D02*
X143724285Y-107744819D01*
X143057619Y-106744819D02*
X142962381Y-106744819D01*
X142962381Y-106744819D02*
X142867143Y-106792438D01*
X142867143Y-106792438D02*
X142819524Y-106840057D01*
X142819524Y-106840057D02*
X142771905Y-106935295D01*
X142771905Y-106935295D02*
X142724286Y-107125771D01*
X142724286Y-107125771D02*
X142724286Y-107363866D01*
X142724286Y-107363866D02*
X142771905Y-107554342D01*
X142771905Y-107554342D02*
X142819524Y-107649580D01*
X142819524Y-107649580D02*
X142867143Y-107697200D01*
X142867143Y-107697200D02*
X142962381Y-107744819D01*
X142962381Y-107744819D02*
X143057619Y-107744819D01*
X143057619Y-107744819D02*
X143152857Y-107697200D01*
X143152857Y-107697200D02*
X143200476Y-107649580D01*
X143200476Y-107649580D02*
X143248095Y-107554342D01*
X143248095Y-107554342D02*
X143295714Y-107363866D01*
X143295714Y-107363866D02*
X143295714Y-107125771D01*
X143295714Y-107125771D02*
X143248095Y-106935295D01*
X143248095Y-106935295D02*
X143200476Y-106840057D01*
X143200476Y-106840057D02*
X143152857Y-106792438D01*
X143152857Y-106792438D02*
X143057619Y-106744819D01*
X142105238Y-106744819D02*
X142010000Y-106744819D01*
X142010000Y-106744819D02*
X141914762Y-106792438D01*
X141914762Y-106792438D02*
X141867143Y-106840057D01*
X141867143Y-106840057D02*
X141819524Y-106935295D01*
X141819524Y-106935295D02*
X141771905Y-107125771D01*
X141771905Y-107125771D02*
X141771905Y-107363866D01*
X141771905Y-107363866D02*
X141819524Y-107554342D01*
X141819524Y-107554342D02*
X141867143Y-107649580D01*
X141867143Y-107649580D02*
X141914762Y-107697200D01*
X141914762Y-107697200D02*
X142010000Y-107744819D01*
X142010000Y-107744819D02*
X142105238Y-107744819D01*
X142105238Y-107744819D02*
X142200476Y-107697200D01*
X142200476Y-107697200D02*
X142248095Y-107649580D01*
X142248095Y-107649580D02*
X142295714Y-107554342D01*
X142295714Y-107554342D02*
X142343333Y-107363866D01*
X142343333Y-107363866D02*
X142343333Y-107125771D01*
X142343333Y-107125771D02*
X142295714Y-106935295D01*
X142295714Y-106935295D02*
X142248095Y-106840057D01*
X142248095Y-106840057D02*
X142200476Y-106792438D01*
X142200476Y-106792438D02*
X142105238Y-106744819D01*
X141152857Y-106744819D02*
X141057619Y-106744819D01*
X141057619Y-106744819D02*
X140962381Y-106792438D01*
X140962381Y-106792438D02*
X140914762Y-106840057D01*
X140914762Y-106840057D02*
X140867143Y-106935295D01*
X140867143Y-106935295D02*
X140819524Y-107125771D01*
X140819524Y-107125771D02*
X140819524Y-107363866D01*
X140819524Y-107363866D02*
X140867143Y-107554342D01*
X140867143Y-107554342D02*
X140914762Y-107649580D01*
X140914762Y-107649580D02*
X140962381Y-107697200D01*
X140962381Y-107697200D02*
X141057619Y-107744819D01*
X141057619Y-107744819D02*
X141152857Y-107744819D01*
X141152857Y-107744819D02*
X141248095Y-107697200D01*
X141248095Y-107697200D02*
X141295714Y-107649580D01*
X141295714Y-107649580D02*
X141343333Y-107554342D01*
X141343333Y-107554342D02*
X141390952Y-107363866D01*
X141390952Y-107363866D02*
X141390952Y-107125771D01*
X141390952Y-107125771D02*
X141343333Y-106935295D01*
X141343333Y-106935295D02*
X141295714Y-106840057D01*
X141295714Y-106840057D02*
X141248095Y-106792438D01*
X141248095Y-106792438D02*
X141152857Y-106744819D01*
X140390952Y-107744819D02*
X140390952Y-106744819D01*
X140390952Y-106744819D02*
X140057619Y-107459104D01*
X140057619Y-107459104D02*
X139724286Y-106744819D01*
X139724286Y-106744819D02*
X139724286Y-107744819D01*
X139248095Y-107744819D02*
X139248095Y-106744819D01*
X139248095Y-107221009D02*
X138676667Y-107221009D01*
X138676667Y-107744819D02*
X138676667Y-106744819D01*
X138295714Y-107078152D02*
X137771905Y-107078152D01*
X137771905Y-107078152D02*
X138295714Y-107744819D01*
X138295714Y-107744819D02*
X137771905Y-107744819D01*
X137105238Y-108125771D02*
X137152857Y-108078152D01*
X137152857Y-108078152D02*
X137248095Y-107935295D01*
X137248095Y-107935295D02*
X137295714Y-107840057D01*
X137295714Y-107840057D02*
X137343333Y-107697200D01*
X137343333Y-107697200D02*
X137390952Y-107459104D01*
X137390952Y-107459104D02*
X137390952Y-107268628D01*
X137390952Y-107268628D02*
X137343333Y-107030533D01*
X137343333Y-107030533D02*
X137295714Y-106887676D01*
X137295714Y-106887676D02*
X137248095Y-106792438D01*
X137248095Y-106792438D02*
X137152857Y-106649580D01*
X137152857Y-106649580D02*
X137105238Y-106601961D01*
X136771904Y-107459104D02*
X136295714Y-107459104D01*
X136867142Y-107744819D02*
X136533809Y-106744819D01*
X136533809Y-106744819D02*
X136200476Y-107744819D01*
X136009999Y-106744819D02*
X135438571Y-106744819D01*
X135724285Y-107744819D02*
X135724285Y-106744819D01*
X135152856Y-107697200D02*
X135009999Y-107744819D01*
X135009999Y-107744819D02*
X134771904Y-107744819D01*
X134771904Y-107744819D02*
X134676666Y-107697200D01*
X134676666Y-107697200D02*
X134629047Y-107649580D01*
X134629047Y-107649580D02*
X134581428Y-107554342D01*
X134581428Y-107554342D02*
X134581428Y-107459104D01*
X134581428Y-107459104D02*
X134629047Y-107363866D01*
X134629047Y-107363866D02*
X134676666Y-107316247D01*
X134676666Y-107316247D02*
X134771904Y-107268628D01*
X134771904Y-107268628D02*
X134962380Y-107221009D01*
X134962380Y-107221009D02*
X135057618Y-107173390D01*
X135057618Y-107173390D02*
X135105237Y-107125771D01*
X135105237Y-107125771D02*
X135152856Y-107030533D01*
X135152856Y-107030533D02*
X135152856Y-106935295D01*
X135152856Y-106935295D02*
X135105237Y-106840057D01*
X135105237Y-106840057D02*
X135057618Y-106792438D01*
X135057618Y-106792438D02*
X134962380Y-106744819D01*
X134962380Y-106744819D02*
X134724285Y-106744819D01*
X134724285Y-106744819D02*
X134581428Y-106792438D01*
X134105237Y-107697200D02*
X134105237Y-107744819D01*
X134105237Y-107744819D02*
X134152856Y-107840057D01*
X134152856Y-107840057D02*
X134200475Y-107887676D01*
X133724285Y-107697200D02*
X133581428Y-107744819D01*
X133581428Y-107744819D02*
X133343333Y-107744819D01*
X133343333Y-107744819D02*
X133248095Y-107697200D01*
X133248095Y-107697200D02*
X133200476Y-107649580D01*
X133200476Y-107649580D02*
X133152857Y-107554342D01*
X133152857Y-107554342D02*
X133152857Y-107459104D01*
X133152857Y-107459104D02*
X133200476Y-107363866D01*
X133200476Y-107363866D02*
X133248095Y-107316247D01*
X133248095Y-107316247D02*
X133343333Y-107268628D01*
X133343333Y-107268628D02*
X133533809Y-107221009D01*
X133533809Y-107221009D02*
X133629047Y-107173390D01*
X133629047Y-107173390D02*
X133676666Y-107125771D01*
X133676666Y-107125771D02*
X133724285Y-107030533D01*
X133724285Y-107030533D02*
X133724285Y-106935295D01*
X133724285Y-106935295D02*
X133676666Y-106840057D01*
X133676666Y-106840057D02*
X133629047Y-106792438D01*
X133629047Y-106792438D02*
X133533809Y-106744819D01*
X133533809Y-106744819D02*
X133295714Y-106744819D01*
X133295714Y-106744819D02*
X133152857Y-106792438D01*
X132724285Y-107744819D02*
X132724285Y-106744819D01*
X132724285Y-106744819D02*
X132390952Y-107459104D01*
X132390952Y-107459104D02*
X132057619Y-106744819D01*
X132057619Y-106744819D02*
X132057619Y-107744819D01*
X131581428Y-107744819D02*
X131581428Y-106744819D01*
X131581428Y-106744819D02*
X131343333Y-106744819D01*
X131343333Y-106744819D02*
X131200476Y-106792438D01*
X131200476Y-106792438D02*
X131105238Y-106887676D01*
X131105238Y-106887676D02*
X131057619Y-106982914D01*
X131057619Y-106982914D02*
X131010000Y-107173390D01*
X131010000Y-107173390D02*
X131010000Y-107316247D01*
X131010000Y-107316247D02*
X131057619Y-107506723D01*
X131057619Y-107506723D02*
X131105238Y-107601961D01*
X131105238Y-107601961D02*
X131200476Y-107697200D01*
X131200476Y-107697200D02*
X131343333Y-107744819D01*
X131343333Y-107744819D02*
X131581428Y-107744819D01*
X130676666Y-108125771D02*
X130629047Y-108078152D01*
X130629047Y-108078152D02*
X130533809Y-107935295D01*
X130533809Y-107935295D02*
X130486190Y-107840057D01*
X130486190Y-107840057D02*
X130438571Y-107697200D01*
X130438571Y-107697200D02*
X130390952Y-107459104D01*
X130390952Y-107459104D02*
X130390952Y-107268628D01*
X130390952Y-107268628D02*
X130438571Y-107030533D01*
X130438571Y-107030533D02*
X130486190Y-106887676D01*
X130486190Y-106887676D02*
X130533809Y-106792438D01*
X130533809Y-106792438D02*
X130629047Y-106649580D01*
X130629047Y-106649580D02*
X130676666Y-106601961D01*
X138486190Y-104468628D02*
X138486190Y-104944819D01*
X138819523Y-103944819D02*
X138486190Y-104468628D01*
X138486190Y-104468628D02*
X138152857Y-103944819D01*
X137295714Y-104944819D02*
X137867142Y-104944819D01*
X137581428Y-104944819D02*
X137581428Y-103944819D01*
X137581428Y-103944819D02*
X137676666Y-104087676D01*
X137676666Y-104087676D02*
X137771904Y-104182914D01*
X137771904Y-104182914D02*
X137867142Y-104230533D01*
X138199047Y-98834819D02*
X138770475Y-98834819D01*
X138484761Y-98834819D02*
X138484761Y-97834819D01*
X138484761Y-97834819D02*
X138579999Y-97977676D01*
X138579999Y-97977676D02*
X138675237Y-98072914D01*
X138675237Y-98072914D02*
X138770475Y-98120533D01*
X137770475Y-98834819D02*
X137770475Y-97834819D01*
X137675237Y-98453866D02*
X137389523Y-98834819D01*
X137389523Y-98168152D02*
X137770475Y-98549104D01*
D11*
X138401428Y-96957149D02*
X138568094Y-96719054D01*
X138687142Y-96957149D02*
X138687142Y-96457149D01*
X138687142Y-96457149D02*
X138496666Y-96457149D01*
X138496666Y-96457149D02*
X138449047Y-96480959D01*
X138449047Y-96480959D02*
X138425237Y-96504768D01*
X138425237Y-96504768D02*
X138401428Y-96552387D01*
X138401428Y-96552387D02*
X138401428Y-96623816D01*
X138401428Y-96623816D02*
X138425237Y-96671435D01*
X138425237Y-96671435D02*
X138449047Y-96695244D01*
X138449047Y-96695244D02*
X138496666Y-96719054D01*
X138496666Y-96719054D02*
X138687142Y-96719054D01*
X138210951Y-96504768D02*
X138187142Y-96480959D01*
X138187142Y-96480959D02*
X138139523Y-96457149D01*
X138139523Y-96457149D02*
X138020475Y-96457149D01*
X138020475Y-96457149D02*
X137972856Y-96480959D01*
X137972856Y-96480959D02*
X137949047Y-96504768D01*
X137949047Y-96504768D02*
X137925237Y-96552387D01*
X137925237Y-96552387D02*
X137925237Y-96600006D01*
X137925237Y-96600006D02*
X137949047Y-96671435D01*
X137949047Y-96671435D02*
X138234761Y-96957149D01*
X138234761Y-96957149D02*
X137925237Y-96957149D01*
X137615714Y-96457149D02*
X137568095Y-96457149D01*
X137568095Y-96457149D02*
X137520476Y-96480959D01*
X137520476Y-96480959D02*
X137496666Y-96504768D01*
X137496666Y-96504768D02*
X137472857Y-96552387D01*
X137472857Y-96552387D02*
X137449047Y-96647625D01*
X137449047Y-96647625D02*
X137449047Y-96766673D01*
X137449047Y-96766673D02*
X137472857Y-96861911D01*
X137472857Y-96861911D02*
X137496666Y-96909530D01*
X137496666Y-96909530D02*
X137520476Y-96933340D01*
X137520476Y-96933340D02*
X137568095Y-96957149D01*
X137568095Y-96957149D02*
X137615714Y-96957149D01*
X137615714Y-96957149D02*
X137663333Y-96933340D01*
X137663333Y-96933340D02*
X137687142Y-96909530D01*
X137687142Y-96909530D02*
X137710952Y-96861911D01*
X137710952Y-96861911D02*
X137734761Y-96766673D01*
X137734761Y-96766673D02*
X137734761Y-96647625D01*
X137734761Y-96647625D02*
X137710952Y-96552387D01*
X137710952Y-96552387D02*
X137687142Y-96504768D01*
X137687142Y-96504768D02*
X137663333Y-96480959D01*
X137663333Y-96480959D02*
X137615714Y-96457149D01*
D12*
%TO.C,C12*%
X150280000Y-92735000D02*
X148280000Y-92735000D01*
X150280000Y-93985000D02*
X150280000Y-92735000D01*
X148280000Y-92735000D02*
X148280000Y-93985000D01*
X148280000Y-93985000D02*
X150280000Y-93985000D01*
%TO.C,C10*%
X150280000Y-88735000D02*
X148280000Y-88735000D01*
X150280000Y-89985000D02*
X150280000Y-88735000D01*
X148280000Y-88735000D02*
X148280000Y-89985000D01*
X148280000Y-89985000D02*
X150280000Y-89985000D01*
%TO.C,C5*%
X129252738Y-82735000D02*
X127252738Y-82735000D01*
X129252738Y-83985000D02*
X129252738Y-82735000D01*
X127252738Y-82735000D02*
X127252738Y-83985000D01*
X127252738Y-83985000D02*
X129252738Y-83985000D01*
%TO.C,C8*%
X150280000Y-84735000D02*
X148280000Y-84735000D01*
X150280000Y-85985000D02*
X150280000Y-84735000D01*
X148280000Y-84735000D02*
X148280000Y-85985000D01*
X148280000Y-85985000D02*
X150280000Y-85985000D01*
%TO.C,C9*%
X150280000Y-86735000D02*
X148280000Y-86735000D01*
X150280000Y-87985000D02*
X150280000Y-86735000D01*
X148280000Y-86735000D02*
X148280000Y-87985000D01*
X148280000Y-87985000D02*
X150280000Y-87985000D01*
%TO.C,C15*%
X142510000Y-81605000D02*
X140510000Y-81605000D01*
X142510000Y-82855000D02*
X142510000Y-81605000D01*
X140510000Y-81605000D02*
X140510000Y-82855000D01*
X140510000Y-82855000D02*
X142510000Y-82855000D01*
%TO.C,R5*%
X139775000Y-43450000D02*
X139775000Y-41450000D01*
X138525000Y-43450000D02*
X139775000Y-43450000D01*
X139775000Y-41450000D02*
X138525000Y-41450000D01*
X138525000Y-41450000D02*
X138525000Y-43450000D01*
%TO.C,C7*%
X150280000Y-82735000D02*
X148280000Y-82735000D01*
X150280000Y-83985000D02*
X150280000Y-82735000D01*
X148280000Y-82735000D02*
X148280000Y-83985000D01*
X148280000Y-83985000D02*
X150280000Y-83985000D01*
%TO.C,R6*%
X137675000Y-43450000D02*
X137675000Y-41450000D01*
X136425000Y-43450000D02*
X137675000Y-43450000D01*
X137675000Y-41450000D02*
X136425000Y-41450000D01*
X136425000Y-41450000D02*
X136425000Y-43450000D01*
%TO.C,C14*%
X138670000Y-81595000D02*
X136670000Y-81595000D01*
X138670000Y-82845000D02*
X138670000Y-81595000D01*
X136670000Y-81595000D02*
X136670000Y-82845000D01*
X136670000Y-82845000D02*
X138670000Y-82845000D01*
%TO.C,C11*%
X150280000Y-90735000D02*
X148280000Y-90735000D01*
X150280000Y-91985000D02*
X150280000Y-90735000D01*
X148280000Y-90735000D02*
X148280000Y-91985000D01*
X148280000Y-91985000D02*
X150280000Y-91985000D01*
%TO.C,C13*%
X150280000Y-94735000D02*
X148280000Y-94735000D01*
X150280000Y-95985000D02*
X150280000Y-94735000D01*
X148280000Y-94735000D02*
X148280000Y-95985000D01*
X148280000Y-95985000D02*
X150280000Y-95985000D01*
%TO.C,C6*%
X127252738Y-85965000D02*
X129252738Y-85965000D01*
X127252738Y-84715000D02*
X127252738Y-85965000D01*
X129252738Y-85965000D02*
X129252738Y-84715000D01*
X129252738Y-84715000D02*
X127252738Y-84715000D01*
%TO.C,R27*%
X85975000Y-57800000D02*
X87225000Y-57800000D01*
X87225000Y-57800000D02*
X87225000Y-55800000D01*
X85975000Y-55800000D02*
X85975000Y-57800000D01*
X87225000Y-55800000D02*
X85975000Y-55800000D01*
%TO.C,R1*%
X181295000Y-57790000D02*
X182545000Y-57790000D01*
X182545000Y-57790000D02*
X182545000Y-55790000D01*
X181295000Y-55790000D02*
X181295000Y-57790000D01*
X182545000Y-55790000D02*
X181295000Y-55790000D01*
%TO.C,C16*%
X136840000Y-100605000D02*
X136840000Y-99355000D01*
X136840000Y-99355000D02*
X134840000Y-99355000D01*
X134840000Y-100605000D02*
X136840000Y-100605000D01*
X134840000Y-99355000D02*
X134840000Y-100605000D01*
%TO.C,R19*%
X238375000Y-95900000D02*
X239625000Y-95900000D01*
X239625000Y-95900000D02*
X239625000Y-93900000D01*
X238375000Y-93900000D02*
X238375000Y-95900000D01*
X239625000Y-93900000D02*
X238375000Y-93900000D01*
%TO.C,R15*%
X123975000Y-76900000D02*
X125225000Y-76900000D01*
X125225000Y-76900000D02*
X125225000Y-74900000D01*
X123975000Y-74900000D02*
X123975000Y-76900000D01*
X125225000Y-74900000D02*
X123975000Y-74900000D01*
%TO.C,R26*%
X47875000Y-57800000D02*
X49125000Y-57800000D01*
X49125000Y-57800000D02*
X49125000Y-55800000D01*
X47875000Y-55800000D02*
X47875000Y-57800000D01*
X49125000Y-55800000D02*
X47875000Y-55800000D01*
%TO.C,R23*%
X228925000Y-38800000D02*
X230175000Y-38800000D01*
X230175000Y-38800000D02*
X230175000Y-36800000D01*
X228925000Y-36800000D02*
X228925000Y-38800000D01*
X230175000Y-36800000D02*
X228925000Y-36800000D01*
%TO.C,R2*%
X138675000Y-23800000D02*
X139925000Y-23800000D01*
X139925000Y-23800000D02*
X139925000Y-21800000D01*
X138675000Y-21800000D02*
X138675000Y-23800000D01*
X139925000Y-21800000D02*
X138675000Y-21800000D01*
%TO.C,R25*%
X66875000Y-76900000D02*
X68125000Y-76900000D01*
X68125000Y-76900000D02*
X68125000Y-74900000D01*
X66875000Y-74900000D02*
X66875000Y-76900000D01*
X68125000Y-74900000D02*
X66875000Y-74900000D01*
%TO.C,R16*%
X143075000Y-76900000D02*
X144325000Y-76900000D01*
X144325000Y-76900000D02*
X144325000Y-74900000D01*
X143075000Y-74900000D02*
X143075000Y-76900000D01*
X144325000Y-74900000D02*
X143075000Y-74900000D01*
%TO.C,R18*%
X200345000Y-38800000D02*
X201595000Y-38800000D01*
X201595000Y-38800000D02*
X201595000Y-36800000D01*
X200345000Y-36800000D02*
X200345000Y-38800000D01*
X201595000Y-36800000D02*
X200345000Y-36800000D01*
%TO.C,R22*%
X38415000Y-38800000D02*
X39665000Y-38800000D01*
X39665000Y-38800000D02*
X39665000Y-36800000D01*
X38415000Y-36800000D02*
X38415000Y-38800000D01*
X39665000Y-36800000D02*
X38415000Y-36800000D01*
%TO.C,R8*%
X200345000Y-57790000D02*
X201595000Y-57790000D01*
X201595000Y-57790000D02*
X201595000Y-55790000D01*
X200345000Y-55790000D02*
X200345000Y-57790000D01*
X201595000Y-55790000D02*
X200345000Y-55790000D01*
%TO.C,R12*%
X143195000Y-57800000D02*
X144445000Y-57800000D01*
X144445000Y-57800000D02*
X144445000Y-55800000D01*
X143195000Y-55800000D02*
X143195000Y-57800000D01*
X144445000Y-55800000D02*
X143195000Y-55800000D01*
%TO.C,R21*%
X28775000Y-95900000D02*
X30025000Y-95900000D01*
X30025000Y-95900000D02*
X30025000Y-93900000D01*
X28775000Y-93900000D02*
X28775000Y-95900000D01*
X30025000Y-93900000D02*
X28775000Y-93900000D01*
%TO.C,R3*%
X136075000Y-23800000D02*
X137325000Y-23800000D01*
X137325000Y-23800000D02*
X137325000Y-21800000D01*
X136075000Y-21800000D02*
X136075000Y-23800000D01*
X137325000Y-21800000D02*
X136075000Y-21800000D01*
%TO.C,R13*%
X95475000Y-115000000D02*
X96725000Y-115000000D01*
X96725000Y-115000000D02*
X96725000Y-113000000D01*
X95475000Y-113000000D02*
X95475000Y-115000000D01*
X96725000Y-113000000D02*
X95475000Y-113000000D01*
%TO.C,R24*%
X66875000Y-57800000D02*
X68125000Y-57800000D01*
X68125000Y-57800000D02*
X68125000Y-55800000D01*
X66875000Y-55800000D02*
X66875000Y-57800000D01*
X68125000Y-55800000D02*
X66875000Y-55800000D01*
%TO.C,R4*%
X200275000Y-76900000D02*
X201525000Y-76900000D01*
X201525000Y-76900000D02*
X201525000Y-74900000D01*
X200275000Y-74900000D02*
X200275000Y-76900000D01*
X201525000Y-74900000D02*
X200275000Y-74900000D01*
%TO.C,R11*%
X124135000Y-57800000D02*
X125385000Y-57800000D01*
X125385000Y-57800000D02*
X125385000Y-55800000D01*
X124135000Y-55800000D02*
X124135000Y-57800000D01*
X125385000Y-55800000D02*
X124135000Y-55800000D01*
%TO.C,R17*%
X67005000Y-38790000D02*
X68255000Y-38790000D01*
X68255000Y-38790000D02*
X68255000Y-36790000D01*
X67005000Y-36790000D02*
X67005000Y-38790000D01*
X68255000Y-36790000D02*
X67005000Y-36790000D01*
%TO.C,C17*%
X139360000Y-99355000D02*
X139360000Y-100605000D01*
X139360000Y-100605000D02*
X141360000Y-100605000D01*
X141360000Y-99355000D02*
X139360000Y-99355000D01*
X141360000Y-100605000D02*
X141360000Y-99355000D01*
%TO.C,R7*%
X219395000Y-57780000D02*
X220645000Y-57780000D01*
X220645000Y-57780000D02*
X220645000Y-55780000D01*
X219395000Y-55780000D02*
X219395000Y-57780000D01*
X220645000Y-55780000D02*
X219395000Y-55780000D01*
%TO.C,R14*%
X171675000Y-115000000D02*
X172925000Y-115000000D01*
X172925000Y-115000000D02*
X172925000Y-113000000D01*
X171675000Y-113000000D02*
X171675000Y-115000000D01*
X172925000Y-113000000D02*
X171675000Y-113000000D01*
%TO.C,Y1*%
X140510000Y-105890000D02*
X140510000Y-103090000D01*
X140510000Y-105090000D02*
X139510000Y-106090000D01*
X140510000Y-103090000D02*
X140310000Y-102890000D01*
X140310000Y-106090000D02*
X140510000Y-105890000D01*
X140310000Y-102890000D02*
X135710000Y-102890000D01*
X135710000Y-106090000D02*
X140310000Y-106090000D01*
X135710000Y-102890000D02*
X135510000Y-103090000D01*
X135510000Y-105890000D02*
X135710000Y-106090000D01*
X135510000Y-103090000D02*
X135510000Y-105890000D01*
%TO.C,R20*%
X139080000Y-97355000D02*
X139080000Y-96105000D01*
X139080000Y-96105000D02*
X137080000Y-96105000D01*
X137080000Y-97355000D02*
X139080000Y-97355000D01*
X137080000Y-96105000D02*
X137080000Y-97355000D01*
%TD*%
M02*
