%TF.GenerationSoftware,KiCad,Pcbnew,7.0.7*%
%TF.CreationDate,2023-10-06T06:03:54+09:00*%
%TF.ProjectId,Sixtar-Switch,53697874-6172-42d5-9377-697463682e6b,rev?*%
%TF.SameCoordinates,Original*%
%TF.FileFunction,Paste,Top*%
%TF.FilePolarity,Positive*%
%FSLAX46Y46*%
G04 Gerber Fmt 4.6, Leading zero omitted, Abs format (unit mm)*
G04 Created by KiCad (PCBNEW 7.0.7) date 2023-10-06 06:03:54*
%MOMM*%
%LPD*%
G01*
G04 APERTURE LIST*
G04 Aperture macros list*
%AMRoundRect*
0 Rectangle with rounded corners*
0 $1 Rounding radius*
0 $2 $3 $4 $5 $6 $7 $8 $9 X,Y pos of 4 corners*
0 Add a 4 corners polygon primitive as box body*
4,1,4,$2,$3,$4,$5,$6,$7,$8,$9,$2,$3,0*
0 Add four circle primitives for the rounded corners*
1,1,$1+$1,$2,$3*
1,1,$1+$1,$4,$5*
1,1,$1+$1,$6,$7*
1,1,$1+$1,$8,$9*
0 Add four rect primitives between the rounded corners*
20,1,$1+$1,$2,$3,$4,$5,0*
20,1,$1+$1,$4,$5,$6,$7,0*
20,1,$1+$1,$6,$7,$8,$9,0*
20,1,$1+$1,$8,$9,$2,$3,0*%
G04 Aperture macros list end*
%ADD10R,0.600000X1.150000*%
%ADD11R,0.300000X1.150000*%
%ADD12O,1.000000X2.100000*%
%ADD13O,1.000000X1.800000*%
%ADD14RoundRect,0.249999X-0.395001X-0.395001X0.395001X-0.395001X0.395001X0.395001X-0.395001X0.395001X0*%
%ADD15RoundRect,0.050000X-0.387500X-0.050000X0.387500X-0.050000X0.387500X0.050000X-0.387500X0.050000X0*%
%ADD16RoundRect,0.050000X-0.050000X-0.387500X0.050000X-0.387500X0.050000X0.387500X-0.050000X0.387500X0*%
%ADD17RoundRect,0.250000X0.475000X-0.337500X0.475000X0.337500X-0.475000X0.337500X-0.475000X-0.337500X0*%
%ADD18RoundRect,0.250000X-0.350000X-0.450000X0.350000X-0.450000X0.350000X0.450000X-0.350000X0.450000X0*%
%ADD19RoundRect,0.250000X-0.337500X-0.475000X0.337500X-0.475000X0.337500X0.475000X-0.337500X0.475000X0*%
%ADD20R,2.000000X1.500000*%
%ADD21R,2.000000X3.800000*%
%ADD22RoundRect,0.150000X-0.650000X-0.150000X0.650000X-0.150000X0.650000X0.150000X-0.650000X0.150000X0*%
G04 APERTURE END LIST*
D10*
%TO.C,J1*%
X141200000Y-25480000D03*
X140400000Y-25480000D03*
D11*
X139250000Y-25480000D03*
X138250000Y-25480000D03*
X137750000Y-25480000D03*
X136750000Y-25480000D03*
D10*
X135600000Y-25480000D03*
X134800000Y-25480000D03*
X134800000Y-25480000D03*
X135600000Y-25480000D03*
D11*
X136250000Y-25480000D03*
X137250000Y-25480000D03*
X138750000Y-25480000D03*
X139750000Y-25480000D03*
D10*
X140400000Y-25480000D03*
X141200000Y-25480000D03*
D12*
X142320000Y-24905000D03*
D13*
X142320000Y-20725000D03*
D12*
X133680000Y-24905000D03*
D13*
X133680000Y-20725000D03*
%TD*%
D14*
%TO.C,U3*%
X137300000Y-87900000D03*
X137300000Y-89500000D03*
X138900000Y-87900000D03*
X138900000Y-89500000D03*
D15*
X134662500Y-86100000D03*
X134662500Y-86500000D03*
X134662500Y-86900000D03*
X134662500Y-87300000D03*
X134662500Y-87700000D03*
X134662500Y-88100000D03*
X134662500Y-88500000D03*
X134662500Y-88900000D03*
X134662500Y-89300000D03*
X134662500Y-89700000D03*
X134662500Y-90100000D03*
X134662500Y-90500000D03*
X134662500Y-90900000D03*
X134662500Y-91300000D03*
D16*
X135500000Y-92137500D03*
X135900000Y-92137500D03*
X136300000Y-92137500D03*
X136700000Y-92137500D03*
X137100000Y-92137500D03*
X137500000Y-92137500D03*
X137900000Y-92137500D03*
X138300000Y-92137500D03*
X138700000Y-92137500D03*
X139100000Y-92137500D03*
X139500000Y-92137500D03*
X139900000Y-92137500D03*
X140300000Y-92137500D03*
X140700000Y-92137500D03*
D15*
X141537500Y-91300000D03*
X141537500Y-90900000D03*
X141537500Y-90500000D03*
X141537500Y-90100000D03*
X141537500Y-89700000D03*
X141537500Y-89300000D03*
X141537500Y-88900000D03*
X141537500Y-88500000D03*
X141537500Y-88100000D03*
X141537500Y-87700000D03*
X141537500Y-87300000D03*
X141537500Y-86900000D03*
X141537500Y-86500000D03*
X141537500Y-86100000D03*
D16*
X140700000Y-85262500D03*
X140300000Y-85262500D03*
X139900000Y-85262500D03*
X139500000Y-85262500D03*
X139100000Y-85262500D03*
X138700000Y-85262500D03*
X138300000Y-85262500D03*
X137900000Y-85262500D03*
X137500000Y-85262500D03*
X137100000Y-85262500D03*
X136700000Y-85262500D03*
X136300000Y-85262500D03*
X135900000Y-85262500D03*
X135500000Y-85262500D03*
%TD*%
D17*
%TO.C,C2*%
X144630000Y-37437500D03*
X144630000Y-35362500D03*
%TD*%
D18*
%TO.C,R10*%
X142600000Y-118500000D03*
X144600000Y-118500000D03*
%TD*%
D19*
%TO.C,C4*%
X143952500Y-110520000D03*
X146027500Y-110520000D03*
%TD*%
D20*
%TO.C,U1*%
X141150000Y-37550000D03*
X141150000Y-35250000D03*
D21*
X134850000Y-35250000D03*
D20*
X141150000Y-32950000D03*
%TD*%
D17*
%TO.C,C3*%
X131500000Y-37437500D03*
X131500000Y-35362500D03*
%TD*%
D22*
%TO.C,U2*%
X134800000Y-110495000D03*
X134800000Y-111765000D03*
X134800000Y-113035000D03*
X134800000Y-114305000D03*
X142000000Y-114305000D03*
X142000000Y-113035000D03*
X142000000Y-111765000D03*
X142000000Y-110495000D03*
%TD*%
D18*
%TO.C,R9*%
X134600000Y-108550000D03*
X136600000Y-108550000D03*
%TD*%
D19*
%TO.C,C1*%
X136962500Y-29050000D03*
X139037500Y-29050000D03*
%TD*%
M02*
